<svg width="432" height="421" viewBox="0 0 432 421" fill="none" xmlns="http://www.w3.org/2000/svg">
<path d="M117.708 389.48C227.086 446.193 337.006 337.188 370.999 271.512C427.22 162.958 234.494 17.9473 104.413 102.811C-25.7704 187.676 8.32996 332.766 117.708 389.48Z" fill="#FFB74D"/>
<path d="M172.614 239.609C243.311 276.275 314.348 205.824 336.245 163.4C372.524 93.2848 248.004 -0.31424 163.9 54.4031C79.9037 109.234 101.908 203.056 172.614 239.609Z" fill="#96286B"/>
<path d="M397.906 352.485C377.315 364.227 356.617 375.969 336.352 387.728C330.47 391.165 326.985 391.939 321.537 391.274C294.956 387.728 268.156 384.274 240.922 381.175C235.474 380.509 235.907 378.846 238.413 375.746C259.657 350.935 280.574 326.011 301.491 301.2C304.108 298.1 306.613 296.327 314.674 294.668C335.48 290.456 356.509 285.693 377.409 281.153C384.289 305.075 391.044 328.765 397.906 352.485Z" fill="#390142"/>
<path d="M316.746 138.821C367.063 124.08 416.752 146.895 428.509 190.203C441.365 237.946 417.942 280.146 370.99 293.885C328.73 306.292 276.11 278.049 263.906 236.531C251.475 194.414 275.018 150.997 316.746 138.821Z" fill="#FEE5BF"/>
<path d="M56.1545 66.478C106.484 51.7373 156.161 74.5643 167.93 117.86C180.782 165.615 157.373 207.82 110.407 221.554C68.1386 233.962 15.5185 205.714 3.31521 164.175C-9.10289 122.194 14.4271 78.7717 56.1545 66.478Z" fill="#FE6206"/>
<path d="M354.004 293.333L354.112 293.114L354.004 293.333C352.313 291.406 350.454 289.628 348.449 288.018L362.499 243.374C363.831 243.798 365.279 243.685 366.525 243.062C367.772 242.439 368.715 241.356 369.147 240.052C369.598 238.732 369.509 237.292 368.9 236.035C368.29 234.778 367.206 233.802 365.877 233.313L369.035 223.567C368.494 225.783 368.055 227.442 368.055 227.442C368.055 227.442 374.501 216.913 377.315 213.375C380.04 209.829 382.218 199.308 372.958 199.527C372.958 199.527 377.1 187.124 362.826 184.576C350.408 182.361 334.393 187.103 329.271 194.103C326.332 198.087 325.679 219.137 325.679 219.137C325.888 219.039 326.107 218.964 326.332 218.913L326.113 219.684C324.782 219.263 323.335 219.377 322.089 219.999C320.843 220.622 319.9 221.704 319.466 223.007C319.013 224.327 319.101 225.767 319.711 227.024C320.322 228.281 321.406 229.257 322.736 229.746L307.92 274.17C303.563 274.393 262.493 277.716 245.713 328.891L368.176 370.317C381.243 330.218 363.806 304.077 354.004 293.333ZM369.8 213.249C370.048 214.226 370.122 215.237 370.019 216.239C370 215.239 369.927 214.241 369.8 213.249Z" fill="white"/>
<path d="M348.01 241.382L343 239.723L343.653 237.95L346.597 238.943L348.337 229.75L350.081 230.196L348.01 241.382Z" fill="#1E120D"/>
<path d="M343 248.028C342.403 248.016 341.813 247.904 341.255 247.696C338.424 246.697 337.99 244.482 338.097 243.484L339.949 243.703C339.949 243.817 339.842 245.257 341.801 245.918C343.872 246.584 344.633 245.366 344.633 245.257L346.265 246.141C345.96 246.727 345.491 247.216 344.912 247.55C344.334 247.884 343.671 248.05 343 248.028Z" fill="#1E120D"/>
<path d="M337.005 222.329C336.791 223.104 336.146 223.55 335.592 223.327C335.442 223.256 335.308 223.156 335.199 223.032C335.09 222.909 335.007 222.765 334.956 222.61C334.905 222.454 334.887 222.29 334.902 222.128C334.918 221.965 334.967 221.807 335.046 221.664C335.373 220.889 335.905 220.446 336.464 220.67C336.721 220.855 336.912 221.116 337.009 221.413C337.106 221.711 337.105 222.032 337.005 222.329Z" fill="#1E120D"/>
<path d="M359.56 229.973C359.341 230.748 358.701 231.19 358.142 230.971C357.992 230.9 357.859 230.8 357.749 230.676C357.64 230.553 357.557 230.409 357.506 230.254C357.455 230.098 357.437 229.934 357.453 229.772C357.468 229.609 357.517 229.451 357.596 229.308C357.815 228.533 358.456 228.09 359.014 228.314C359.573 228.537 359.758 229.308 359.56 229.973Z" fill="#1E120D"/>
<path d="M335.265 229.531C335.149 229.835 334.97 230.113 334.739 230.347C334.508 230.581 334.231 230.766 333.924 230.891C333.618 231.015 333.288 231.077 332.956 231.071C332.624 231.065 332.297 230.992 331.995 230.857C330.581 230.436 329.709 228.975 330.143 227.757C330.26 227.453 330.439 227.175 330.67 226.942C330.901 226.708 331.178 226.523 331.484 226.398C331.791 226.274 332.12 226.212 332.452 226.217C332.783 226.221 333.111 226.293 333.413 226.427C334.835 226.873 335.695 228.2 335.265 229.531Z" fill="#574A45"/>
<path d="M358.898 237.503C358.783 237.808 358.605 238.087 358.375 238.321C358.145 238.556 357.868 238.741 357.561 238.866C357.255 238.991 356.925 239.052 356.594 239.047C356.262 239.041 355.935 238.969 355.633 238.834C354.215 238.392 353.343 236.952 353.781 235.734C353.897 235.43 354.075 235.152 354.305 234.918C354.536 234.684 354.812 234.498 355.119 234.374C355.425 234.249 355.754 234.187 356.086 234.192C356.417 234.197 356.744 234.269 357.046 234.404C357.704 234.586 358.263 235.011 358.608 235.588C358.953 236.166 359.057 236.852 358.898 237.503Z" fill="#574A45"/>
<path d="M325.567 219.338C325.567 219.338 331.669 217.679 334.286 201.949C334.286 201.949 339.184 212.802 352.806 209.925C360.11 208.371 368.601 209.26 369.688 213.248C370.887 217.565 367.836 227.534 367.836 227.534C367.836 227.534 374.282 217.005 377.1 213.467C379.82 209.925 381.999 199.401 372.739 199.624C372.739 199.624 376.881 187.216 362.611 184.668C350.189 182.453 334.174 187.216 329.056 194.195C326.242 198.293 325.567 219.338 325.567 219.338Z" fill="#1E120D"/>
<path d="M348.882 288.679L347.138 288.127L361.953 242.267L362.813 242.599C363.355 242.783 363.93 242.857 364.503 242.816C365.075 242.775 365.633 242.621 366.143 242.362C366.653 242.103 367.103 241.745 367.467 241.311C367.832 240.876 368.102 240.373 368.261 239.832C368.641 238.744 368.569 237.552 368.059 236.515C367.549 235.479 366.643 234.681 365.537 234.294L364.678 233.961L368.167 223.327C371.652 212.693 365.984 201.064 355.418 197.518C344.959 193.972 333.503 199.733 330.036 210.477L326.547 221.112L325.687 220.779C325.156 220.593 324.591 220.517 324.029 220.556C323.466 220.594 322.917 220.746 322.417 221.002C321.391 221.543 320.612 222.447 320.239 223.529C319.858 224.618 319.93 225.81 320.44 226.847C320.95 227.884 321.857 228.682 322.963 229.067L323.822 229.4L309.213 274.464L307.494 273.909L321.545 230.491C320.222 229.778 319.194 228.636 318.637 227.261C318.081 225.886 318.03 224.364 318.494 222.956C319.023 221.415 320.108 220.115 321.545 219.301C322.728 218.734 324.061 218.541 325.361 218.749L328.3 209.774C332.111 198.146 344.534 191.832 355.972 195.707C358.731 196.656 361.269 198.133 363.439 200.054C365.609 201.974 367.366 204.299 368.609 206.893C371.239 212.195 371.666 218.291 369.8 223.896L366.856 232.866C368.18 233.577 369.209 234.718 369.766 236.093C370.323 237.467 370.373 238.99 369.907 240.397C369.468 241.791 368.531 242.983 367.269 243.756C366.007 244.53 364.503 244.832 363.032 244.608L348.882 288.679Z" fill="#1E120D"/>
<path d="M323.169 226.759C322.626 226.552 322.18 226.154 321.919 225.642C321.658 225.131 321.6 224.543 321.756 223.992C321.933 223.454 322.315 223.005 322.823 222.736C323.33 222.468 323.924 222.402 324.48 222.552L324.261 223.327C324.094 223.271 323.918 223.25 323.743 223.265C323.568 223.28 323.398 223.331 323.244 223.414C323.09 223.498 322.956 223.612 322.85 223.749C322.744 223.886 322.668 224.044 322.628 224.211C322.566 224.377 322.54 224.553 322.55 224.729C322.561 224.905 322.607 225.077 322.688 225.235C322.768 225.392 322.881 225.532 323.018 225.646C323.156 225.76 323.315 225.845 323.487 225.896L323.169 226.759Z" fill="#1E120D"/>
<path d="M364.57 240.717C364.347 240.734 364.122 240.697 363.917 240.607L364.132 239.832C364.292 239.895 364.466 239.918 364.638 239.899C364.81 239.88 364.974 239.819 365.116 239.723C365.277 239.648 365.419 239.54 365.532 239.405C365.645 239.27 365.726 239.113 365.769 238.944C365.826 238.779 365.849 238.606 365.836 238.433C365.823 238.26 365.776 238.091 365.695 237.937C365.615 237.782 365.505 237.645 365.37 237.533C365.235 237.421 365.078 237.336 364.91 237.284L365.129 236.509C365.672 236.717 366.118 237.115 366.379 237.626C366.64 238.137 366.698 238.725 366.542 239.276C366.404 239.683 366.143 240.04 365.793 240.297C365.442 240.554 365.02 240.701 364.583 240.717H364.57Z" fill="#1E120D"/>
<path d="M368.601 371.648L244.514 329.666L244.733 328.891C262.162 275.501 306.179 273.618 308.027 273.504H308.457L309.002 274.279L308.891 274.726C308.672 275.501 302.248 293.333 307.804 304.965C308.748 307.035 310.13 308.884 311.857 310.392C313.584 311.9 315.618 313.032 317.824 313.713C322.508 315.268 326.866 314.937 330.9 312.719C342.119 306.515 347.129 287.794 347.228 287.685L347.554 286.464L348.534 287.243C348.964 287.571 386.446 316.817 368.798 370.873L368.601 371.648ZM246.693 328.559L367.509 369.411C382.656 321.892 354.331 294.31 348.556 289.323C347.138 293.754 342.02 308.6 331.798 314.248C327.333 316.686 322.43 317.015 317.308 315.355C312.191 313.582 308.487 310.369 306.308 305.719C301.186 294.975 305.449 279.91 306.961 275.366C299.747 275.833 262.6 281.258 246.693 328.559Z" fill="#1E120D"/>
<path d="M307.7 350.046L306.068 349.494L316.419 315.599L288.429 320.691L300.301 274.944L301.938 275.365L290.706 318.476L316.307 313.843C316.573 313.789 316.848 313.813 317.1 313.911C317.352 314.009 317.57 314.177 317.725 314.395C317.909 314.604 318.036 314.857 318.093 315.128C318.15 315.399 318.136 315.68 318.052 315.944L307.7 350.046Z" fill="#1E120D"/>
<path d="M307.701 350.046L306.068 349.495L316.527 315.38C316.616 315.112 316.772 314.87 316.982 314.677C317.191 314.483 317.447 314.344 317.725 314.273C317.996 314.232 318.272 314.248 318.535 314.321C318.798 314.394 319.042 314.521 319.251 314.694L336.898 334.067L353.227 292.751L354.859 293.413L337.444 337.31L318.052 316.151L307.701 350.046Z" fill="#1E120D"/>
<path d="M310.863 322.355C310.828 322.473 310.768 322.582 310.687 322.676C310.606 322.769 310.505 322.845 310.391 322.897C310.278 322.949 310.154 322.977 310.029 322.979C309.904 322.98 309.779 322.956 309.664 322.907C309.544 322.866 309.433 322.801 309.34 322.716C309.246 322.632 309.171 322.529 309.12 322.415C309.069 322.301 309.042 322.177 309.042 322.052C309.042 321.927 309.068 321.804 309.119 321.689C309.15 321.569 309.208 321.458 309.289 321.362C309.37 321.267 309.471 321.19 309.586 321.137C309.7 321.084 309.825 321.057 309.952 321.057C310.078 321.057 310.203 321.085 310.318 321.138C310.863 321.247 311.078 321.799 310.863 322.355Z" fill="#1E120D"/>
<path d="M309.991 323.795C309.802 323.812 309.612 323.774 309.445 323.686C309.216 323.606 309.005 323.481 308.825 323.32C308.645 323.159 308.5 322.964 308.399 322.747C308.297 322.53 308.241 322.295 308.233 322.056C308.225 321.817 308.266 321.58 308.354 321.357C308.419 321.13 308.533 320.918 308.686 320.737C308.84 320.555 309.032 320.408 309.247 320.303C309.463 320.199 309.699 320.14 309.94 320.131C310.18 320.121 310.42 320.162 310.644 320.249C310.874 320.329 311.084 320.454 311.264 320.615C311.444 320.776 311.588 320.971 311.69 321.188C311.791 321.406 311.847 321.64 311.854 321.879C311.861 322.118 311.819 322.355 311.731 322.578C311.617 322.939 311.385 323.254 311.07 323.474C310.756 323.694 310.377 323.807 309.991 323.795ZM309.991 322.022L310.85 322.245L309.991 322.022C310.098 321.913 310.098 321.913 309.991 321.913V322.022Z" fill="#1E120D"/>
<path d="M307.701 332.214C307.669 332.334 307.611 332.446 307.53 332.542C307.45 332.637 307.348 332.714 307.234 332.767C307.119 332.819 306.994 332.847 306.868 332.847C306.741 332.846 306.616 332.819 306.502 332.766C306.382 332.724 306.273 332.659 306.18 332.574C306.087 332.489 306.013 332.387 305.962 332.273C305.911 332.158 305.885 332.035 305.885 331.911C305.884 331.786 305.91 331.663 305.961 331.549C305.995 331.431 306.056 331.321 306.137 331.228C306.218 331.134 306.319 331.059 306.432 331.006C306.545 330.954 306.669 330.925 306.794 330.923C306.92 330.921 307.044 330.945 307.159 330.993C307.37 331.114 307.536 331.298 307.633 331.517C307.731 331.737 307.754 331.981 307.701 332.214Z" fill="#1E120D"/>
<path d="M306.828 333.764C306.641 333.781 306.452 333.743 306.287 333.654C306.057 333.574 305.847 333.45 305.667 333.289C305.487 333.127 305.342 332.932 305.24 332.715C305.139 332.498 305.082 332.264 305.075 332.025C305.067 331.786 305.108 331.548 305.196 331.325C305.261 331.098 305.374 330.887 305.528 330.706C305.682 330.524 305.873 330.376 306.089 330.272C306.305 330.168 306.541 330.109 306.782 330.099C307.022 330.09 307.262 330.13 307.486 330.218C307.715 330.298 307.926 330.422 308.106 330.584C308.285 330.745 308.43 330.94 308.531 331.157C308.633 331.374 308.689 331.609 308.696 331.848C308.703 332.087 308.661 332.324 308.573 332.547C308.513 332.764 308.404 332.966 308.256 333.137C308.107 333.309 307.922 333.447 307.714 333.541C307.431 333.657 307.133 333.732 306.828 333.764Z" fill="#1E120D"/>
<path d="M304.435 342.183C304.403 342.303 304.345 342.415 304.264 342.511C304.184 342.606 304.083 342.683 303.968 342.736C303.854 342.788 303.729 342.816 303.602 342.815C303.475 342.815 303.351 342.788 303.236 342.735C303.116 342.694 303.006 342.629 302.913 342.544C302.819 342.459 302.745 342.357 302.694 342.242C302.642 342.128 302.616 342.005 302.615 341.88C302.615 341.756 302.64 341.632 302.69 341.518C302.727 341.4 302.789 341.291 302.871 341.199C302.954 341.107 303.056 341.032 303.17 340.981C303.284 340.93 303.408 340.904 303.534 340.903C303.659 340.903 303.783 340.929 303.898 340.979C304.111 341.092 304.28 341.272 304.377 341.491C304.475 341.709 304.495 341.952 304.435 342.183Z" fill="#1E120D"/>
<path d="M303.563 343.623C303.38 343.635 303.198 343.594 303.039 343.506C302.809 343.426 302.598 343.303 302.418 343.142C302.238 342.981 302.093 342.786 301.992 342.569C301.89 342.352 301.834 342.118 301.827 341.879C301.821 341.64 301.863 341.403 301.951 341.181C302.013 340.963 302.121 340.761 302.269 340.589C302.418 340.417 302.602 340.278 302.811 340.183C303.212 339.99 303.671 339.95 304.1 340.073C304.329 340.153 304.539 340.277 304.718 340.439C304.898 340.6 305.042 340.794 305.144 341.011C305.245 341.227 305.301 341.462 305.308 341.7C305.316 341.938 305.275 342.176 305.187 342.398C305.097 342.752 304.887 343.065 304.593 343.288C304.298 343.51 303.935 343.629 303.563 343.623ZM303.563 341.96L304.422 342.183L303.563 341.96C303.67 341.85 303.67 341.85 303.563 341.85V341.96Z" fill="#1E120D"/>
<path d="M118.7 190.43L107.464 151.877C110.188 151.102 111.821 148.112 111.061 145.231C110.877 144.57 110.562 143.95 110.134 143.408C109.705 142.867 109.172 142.413 108.564 142.074C107.957 141.734 107.287 141.516 106.593 141.431C105.899 141.347 105.195 141.397 104.521 141.579L103.975 139.806C105.719 142.022 107.786 141.024 107.786 141.024L104.194 127.289C102.449 122.307 98.1998 118.538 96.133 117.102C96.3478 113.888 95.3681 110.342 90.0314 110.232C81.0981 110.123 64.1037 111.231 57.4564 130.061C56.2574 133.659 56.2574 137.539 57.4564 141.137L61.7061 154.648C61.9728 154.63 62.2324 154.556 62.4666 154.429C61.6468 155.102 61.0468 155.996 60.7412 157C60.4356 158.004 60.4379 159.074 60.7478 160.077C60.9309 160.738 61.2454 161.358 61.6733 161.9C62.1011 162.442 62.6339 162.895 63.2411 163.235C63.8484 163.575 64.518 163.793 65.2117 163.879C65.9054 163.964 66.6094 163.915 67.2835 163.733L78.1762 202.391H78.0687C76.3242 203.722 41.7898 230.306 57.1513 284.029L181.672 247.03C165.967 192.532 119.448 190.43 118.7 190.43ZM63.2358 154.096C63.6335 153.732 63.9293 153.274 64.0951 152.766L64.31 153.54C63.9408 153.704 63.5821 153.89 63.2358 154.096ZM91.5611 249.359L91.9908 249.245C91.9951 250.467 91.9951 250.799 91.5611 249.359ZM133.74 237.836H133.955C134.169 238.636 134.169 238.501 133.74 237.836Z" fill="white"/>
<path d="M56.5882 285.246L56.3734 284.362C40.7927 230.082 76.0919 202.947 77.6131 201.839L77.9439 201.616L78.8033 201.949L78.915 202.391C79.1299 203.166 83.9252 221.554 95.0371 227.981C99.0676 230.306 103.536 230.748 108.22 229.421C112.904 227.981 116.384 225.21 118.46 220.998C124.235 209.365 117.914 190.977 117.806 190.758L117.377 189.537H118.666C119.096 189.537 166.598 191.866 182.398 246.916L182.613 247.801L56.5882 285.246ZM77.6131 203.962C71.9497 208.595 44.2775 234.627 57.6839 283.031L180.576 246.588C166.302 198.516 127.41 192.199 119.895 191.415C121.308 195.96 125.339 211.134 120.002 221.769C117.716 226.401 113.901 229.522 108.671 231.072C106.284 231.847 103.755 232.109 101.255 231.842C98.7547 231.574 96.3427 230.783 94.182 229.522C83.9338 223.55 78.9236 208.595 77.6131 203.941V203.962Z" fill="#1E120D"/>
<path d="M75.4349 221.112C76.5787 221.112 77.506 220.169 77.506 219.006C77.506 217.843 76.5787 216.9 75.4349 216.9C74.291 216.9 73.3638 217.843 73.3638 219.006C73.3638 220.169 74.291 221.112 75.4349 221.112Z" fill="#1E120D"/>
<path d="M67.2664 235.625C68.4103 235.625 69.3375 234.682 69.3375 233.519C69.3375 232.356 68.4103 231.413 67.2664 231.413C66.1226 231.413 65.1953 232.356 65.1953 233.519C65.1953 234.682 66.1226 235.625 67.2664 235.625Z" fill="#1E120D"/>
<path d="M90.1431 232.188C90.2972 232.724 90.2368 233.298 89.9741 233.792C89.7113 234.286 89.2661 234.662 88.7294 234.846C88.1875 234.994 87.6074 234.926 87.1167 234.656C86.626 234.386 86.2648 233.936 86.1125 233.405C85.9575 232.868 86.018 232.294 86.2818 231.8C86.5455 231.305 86.9924 230.929 87.5305 230.748C88.0718 230.6 88.6508 230.669 89.1405 230.939C89.6302 231.209 89.9908 231.658 90.1431 232.188Z" fill="#1E120D"/>
<path d="M61.5985 254.122C62.7423 254.122 63.6696 253.179 63.6696 252.016C63.6696 250.853 62.7423 249.911 61.5985 249.911C60.4546 249.911 59.5273 250.853 59.5273 252.016C59.5273 253.179 60.4546 254.122 61.5985 254.122Z" fill="#1E120D"/>
<path d="M76.6336 247.476C77.7775 247.476 78.7047 246.533 78.7047 245.37C78.7047 244.207 77.7775 243.265 76.6336 243.265C75.4898 243.265 74.5625 244.207 74.5625 245.37C74.5625 246.533 75.4898 247.476 76.6336 247.476Z" fill="#1E120D"/>
<path d="M61.8177 276.941C62.9615 276.941 63.8888 275.998 63.8888 274.835C63.8888 273.672 62.9615 272.729 61.8177 272.729C60.6738 272.729 59.7466 273.672 59.7466 274.835C59.7466 275.998 60.6738 276.941 61.8177 276.941Z" fill="#1E120D"/>
<path d="M75.5463 262.427C75.7014 262.964 75.6408 263.539 75.3771 264.033C75.1133 264.527 74.6665 264.904 74.1283 265.085C73.587 265.233 73.0081 265.164 72.5183 264.894C72.0286 264.624 71.6681 264.175 71.5158 263.645C71.3616 263.108 71.422 262.535 71.6848 262.041C71.9475 261.547 72.3927 261.17 72.9295 260.987C73.1978 260.907 73.4797 260.882 73.7584 260.911C74.0371 260.941 74.3067 261.026 74.5512 261.16C74.7956 261.295 75.0097 261.477 75.1808 261.694C75.3518 261.912 75.4761 262.161 75.5463 262.427Z" fill="#1E120D"/>
<path d="M87.432 270.636C88.5758 270.636 89.5031 269.693 89.5031 268.53C89.5031 267.367 88.5758 266.424 87.432 266.424C86.2881 266.424 85.3608 267.367 85.3608 268.53C85.3608 269.693 86.2881 270.636 87.432 270.636Z" fill="#1E120D"/>
<path d="M91.4495 254.013C92.5934 254.013 93.5207 253.07 93.5207 251.907C93.5207 250.744 92.5934 249.801 91.4495 249.801C90.3057 249.801 89.3784 250.744 89.3784 251.907C89.3784 253.07 90.3057 254.013 91.4495 254.013Z" fill="#1E120D"/>
<path d="M110.3 252.016C111.444 252.016 112.371 251.074 112.371 249.91C112.371 248.747 111.444 247.805 110.3 247.805C109.156 247.805 108.229 248.747 108.229 249.91C108.229 251.074 109.156 252.016 110.3 252.016Z" fill="#1E120D"/>
<path d="M102.781 241.05C103.924 241.05 104.852 240.107 104.852 238.944C104.852 237.781 103.924 236.838 102.781 236.838C101.637 236.838 100.709 237.781 100.709 238.944C100.709 240.107 101.637 241.05 102.781 241.05Z" fill="#1E120D"/>
<path d="M120.973 232.079C122.117 232.079 123.045 231.136 123.045 229.973C123.045 228.81 122.117 227.867 120.973 227.867C119.83 227.867 118.902 228.81 118.902 229.973C118.902 231.136 119.83 232.079 120.973 232.079Z" fill="#1E120D"/>
<path d="M130.887 219.01C132.03 219.01 132.958 218.067 132.958 216.904C132.958 215.741 132.03 214.798 130.887 214.798C129.743 214.798 128.815 215.741 128.815 216.904C128.815 218.067 129.743 219.01 130.887 219.01Z" fill="#1E120D"/>
<path d="M146.906 223.546C148.049 223.546 148.977 222.603 148.977 221.44C148.977 220.277 148.049 219.334 146.906 219.334C145.762 219.334 144.834 220.277 144.834 221.44C144.834 222.603 145.762 223.546 146.906 223.546Z" fill="#1E120D"/>
<path d="M157.906 235.625C159.049 235.625 159.977 234.682 159.977 233.519C159.977 232.356 159.049 231.413 157.906 231.413C156.762 231.413 155.834 232.356 155.834 233.519C155.834 234.682 156.762 235.625 157.906 235.625Z" fill="#1E120D"/>
<path d="M172.833 240.055C173.977 240.055 174.904 239.113 174.904 237.95C174.904 236.787 173.977 235.844 172.833 235.844C171.689 235.844 170.762 236.787 170.762 237.95C170.762 239.113 171.689 240.055 172.833 240.055Z" fill="#1E120D"/>
<path d="M161.176 221.445C162.319 221.445 163.247 220.502 163.247 219.339C163.247 218.176 162.319 217.233 161.176 217.233C160.032 217.233 159.104 218.176 159.104 219.339C159.104 220.502 160.032 221.445 161.176 221.445Z" fill="#1E120D"/>
<path d="M143.416 235.511C144.56 235.511 145.487 234.569 145.487 233.406C145.487 232.243 144.56 231.3 143.416 231.3C142.272 231.3 141.345 232.243 141.345 233.406C141.345 234.569 142.272 235.511 143.416 235.511Z" fill="#1E120D"/>
<path d="M161.283 247.476C162.427 247.476 163.354 246.533 163.354 245.37C163.354 244.207 162.427 243.265 161.283 243.265C160.139 243.265 159.212 244.207 159.212 245.37C159.212 246.533 160.139 247.476 161.283 247.476Z" fill="#1E120D"/>
<path d="M145.711 251.115C146.855 251.115 147.782 250.173 147.782 249.01C147.782 247.847 146.855 246.904 145.711 246.904C144.567 246.904 143.64 247.847 143.64 249.01C143.64 250.173 144.567 251.115 145.711 251.115Z" fill="#1E120D"/>
<path d="M130.56 202.505C131.704 202.505 132.631 201.562 132.631 200.399C132.631 199.236 131.704 198.293 130.56 198.293C129.416 198.293 128.489 199.236 128.489 200.399C128.489 201.562 129.416 202.505 130.56 202.505Z" fill="#1E120D"/>
<path d="M147.013 208.927C148.157 208.927 149.084 207.985 149.084 206.822C149.084 205.659 148.157 204.716 147.013 204.716C145.869 204.716 144.942 205.659 144.942 206.822C144.942 207.985 145.869 208.927 147.013 208.927Z" fill="#1E120D"/>
<path d="M129.473 244.044C130.617 244.044 131.544 243.101 131.544 241.938C131.544 240.775 130.617 239.832 129.473 239.832C128.329 239.832 127.402 240.775 127.402 241.938C127.402 243.101 128.329 244.044 129.473 244.044Z" fill="#1E120D"/>
<path d="M128.166 259.438C129.31 259.438 130.237 258.495 130.237 257.332C130.237 256.169 129.31 255.226 128.166 255.226C127.022 255.226 126.095 256.169 126.095 257.332C126.095 258.495 127.022 259.438 128.166 259.438Z" fill="#1E120D"/>
<path d="M108.448 264.314C109.592 264.314 110.519 263.371 110.519 262.208C110.519 261.045 109.592 260.103 108.448 260.103C107.304 260.103 106.377 261.045 106.377 262.208C106.377 263.371 107.304 264.314 108.448 264.314Z" fill="#1E120D"/>
<path d="M61.7103 154.762C61.7103 154.762 65.5216 154.206 63.8888 148.335C62.1442 142.464 59.8583 135.376 68.465 131.387C77.0717 127.399 90.2504 133.384 95.1532 122.084C95.1532 122.084 99.9486 110.451 90.143 110.232C81.2097 110.123 64.2154 111.231 57.568 130.061C56.3732 133.66 56.3732 137.538 57.568 141.137L61.7103 154.762Z" fill="#1E120D"/>
<path d="M94.9384 116.545C94.3927 118.651 93.9544 118.428 93.3013 120.643C98.2041 123.301 99.8412 127.07 102.673 136.925C104.413 142.796 107.902 141.137 107.902 141.137L104.306 127.403C102.02 120.643 95.0673 116.213 94.9384 116.545Z" fill="#1E120D"/>
<path d="M77.5059 203.608L66.6132 164.933C65.3022 165.103 63.9695 164.872 62.7975 164.272C62.0697 163.87 61.4335 163.326 60.9281 162.674C60.4226 162.023 60.0586 161.276 59.8584 160.481C59.6212 159.693 59.5472 158.865 59.6409 158.048C59.7347 157.231 59.9941 156.44 60.4041 155.722C61.0217 154.553 62.0176 153.616 63.2358 153.061L60.619 143.98C58.9761 138.309 59.6399 132.234 62.4709 127.033C63.8125 124.492 65.6612 122.241 67.9074 120.415C70.1535 118.588 72.7513 117.222 75.5465 116.398C87.0923 112.962 99.2956 119.721 102.673 131.56L105.285 140.645C106.596 140.475 107.929 140.706 109.101 141.306C109.828 141.708 110.464 142.252 110.97 142.904C111.475 143.556 111.839 144.302 112.04 145.096C112.44 146.513 112.335 148.021 111.741 149.37C111.147 150.72 110.1 151.83 108.775 152.517L119.886 190.62L118.142 191.176L106.596 151.296L107.455 151.077C108.57 150.726 109.502 149.962 110.051 148.948C110.601 147.934 110.726 146.75 110.399 145.648C110.076 144.537 109.336 143.588 108.328 142.991C107.836 142.718 107.292 142.548 106.73 142.49C106.168 142.433 105.6 142.49 105.062 142.658L104.203 142.881L101.152 132.133C98.101 121.28 86.8818 115.076 76.2039 118.289C71.0497 119.853 66.7394 123.359 64.2198 128.035C61.6243 132.795 61.038 138.363 62.587 143.542L65.6378 154.29L64.7784 154.509C63.6633 154.861 62.732 155.624 62.1823 156.638C61.6327 157.652 61.5081 158.836 61.835 159.938C61.9791 160.481 62.2326 160.991 62.5806 161.437C62.9285 161.883 63.3639 162.256 63.8611 162.534C64.3583 162.813 64.9073 162.991 65.4759 163.059C66.0444 163.127 66.621 163.082 67.1718 162.928L68.0312 162.705L79.4696 203.137L77.5059 203.608Z" fill="#1E120D"/>
<path d="M78.9239 163.732C79.0566 164.383 78.9259 165.059 78.5595 165.617C78.193 166.175 77.6195 166.572 76.9602 166.723C75.5466 167.165 74.0211 166.504 73.6946 165.282C73.5606 164.632 73.6903 163.956 74.056 163.398C74.4218 162.84 74.9949 162.443 75.654 162.292C77.072 161.959 78.5974 162.406 78.9239 163.732Z" fill="#574A45"/>
<path d="M102.802 156.645C102.935 157.295 102.805 157.97 102.439 158.528C102.073 159.086 101.501 159.483 100.843 159.635C99.4245 160.077 97.8991 159.412 97.5726 158.194C97.4399 157.544 97.5706 156.868 97.937 156.31C98.3035 155.752 98.877 155.355 99.5362 155.204C100.928 154.648 102.454 155.314 102.802 156.645Z" fill="#574A45"/>
<path d="M85.1328 161.075L84.5871 159.302L87.6379 158.417L83.7148 148.449L85.352 147.669L90.0356 159.525L85.1328 161.075Z" fill="#1E120D"/>
<path d="M88.9443 169.052C88.2615 169.058 87.5893 168.886 86.9961 168.555C86.4029 168.223 85.9098 167.744 85.5669 167.165L87.204 166.39C87.3114 166.504 87.9646 167.721 90.0357 167.165C92.1068 166.609 91.9951 165.173 91.9951 165.059L93.8471 164.836C93.9545 165.944 93.4174 168.159 90.5814 168.934C89.9111 168.938 89.3826 169.052 88.9443 169.052Z" fill="#1E120D"/>
<path d="M62.7329 153.978L66.5099 152.904L66.7763 153.86L62.9993 154.939L62.7329 153.978Z" fill="#1E120D"/>
<path d="M102.291 142.262L106.068 141.188L106.33 142.144L102.557 143.222L102.291 142.262Z" fill="#1E120D"/>
<path d="M75.3272 160.965C73.1318 160.923 71.0223 160.122 69.3711 158.703C67.72 157.285 66.6335 155.34 66.3036 153.212C65.8703 150.78 66.4172 148.278 67.829 146.233C68.4892 145.237 69.3528 144.386 70.3652 143.734C71.3777 143.082 72.5171 142.642 73.7115 142.443C78.7217 141.558 83.4054 144.991 84.2777 149.977C84.7078 152.409 84.1612 154.91 82.7523 156.956C82.0887 157.946 81.2238 158.792 80.2116 159.44C79.1995 160.088 78.0618 160.524 76.8698 160.721C76.3661 160.857 75.8489 160.939 75.3272 160.965ZM75.3272 143.352C74.8519 143.339 74.3764 143.375 73.9092 143.462C69.5521 144.237 66.5013 148.558 67.2661 152.989C68.031 157.419 72.2764 160.519 76.6334 159.727C77.7078 159.564 78.7326 159.172 79.636 158.579C80.5394 157.986 81.2994 157.206 81.8628 156.295C83.0945 154.468 83.5565 152.245 83.1519 150.091C82.8917 148.234 81.9575 146.53 80.5206 145.293C79.0836 144.055 77.24 143.366 75.3272 143.352Z" fill="#1E120D"/>
<path d="M94.1735 155.314C92.8523 155.296 91.5512 154.994 90.3621 154.429C88.1295 153.377 86.4076 151.508 85.5668 149.224C84.71 146.921 84.7885 144.383 85.7859 142.135C86.7689 139.91 88.6103 138.157 90.9079 137.258C92.0431 136.845 93.251 136.658 94.461 136.708C95.671 136.758 96.8586 137.044 97.9543 137.549C99.05 138.055 100.032 138.77 100.842 139.652C101.652 140.534 102.275 141.566 102.673 142.687C103.529 144.99 103.451 147.527 102.454 149.775C101.471 151.999 99.6291 153.751 97.3318 154.648C96.3408 155.092 95.2631 155.319 94.1735 155.314ZM94.1735 137.814C93.2042 137.837 92.2462 138.023 91.3418 138.366C87.2039 139.916 85.0211 144.683 86.5465 149C87.2976 151.031 88.8202 152.698 90.7961 153.654C91.7624 154.1 92.8107 154.349 93.8778 154.387C94.9449 154.424 96.0088 154.25 97.0052 153.873C99.0452 153.072 100.687 151.524 101.581 149.556C102.47 147.554 102.549 145.296 101.801 143.239C101.284 141.657 100.265 140.278 98.8937 139.302C97.5219 138.326 95.8683 137.805 94.1735 137.814Z" fill="#1E120D"/>
<path d="M83.1733 147.703L85.4722 147.021L85.7472 147.977L83.4483 148.659L83.1733 147.703Z" fill="#1E120D"/>
<path d="M75.8034 154.158C76.3874 154.012 76.6988 153.271 76.4988 152.502C76.2987 151.733 75.6631 151.229 75.079 151.375C74.495 151.521 74.1836 152.262 74.3836 153.031C74.5837 153.799 75.2193 154.304 75.8034 154.158Z" fill="#1E120D"/>
<path d="M95.0963 148.489C95.6804 148.343 95.9918 147.602 95.7917 146.833C95.5917 146.064 94.9561 145.56 94.372 145.706C93.7879 145.852 93.4766 146.593 93.6766 147.362C93.8766 148.13 94.5123 148.635 95.0963 148.489Z" fill="#1E120D"/>
<path d="M65.4185 161.298C64.9472 161.298 64.4891 161.145 64.1148 160.864C63.7406 160.584 63.4709 160.19 63.3474 159.744C63.1918 159.193 63.2507 158.604 63.5127 158.093C63.7747 157.582 64.2212 157.184 64.7654 156.977L64.9889 157.773C64.661 157.896 64.3915 158.134 64.2327 158.44C64.0738 158.747 64.037 159.101 64.1295 159.432C64.2322 159.758 64.4594 160.033 64.7637 160.198C65.0679 160.364 65.4257 160.408 65.7623 160.321L65.9814 161.096C65.806 161.192 65.616 161.261 65.4185 161.298Z" fill="#1E120D"/>
<path d="M107.138 148.89L106.923 148.116C107.251 147.992 107.521 147.753 107.679 147.446C107.838 147.139 107.875 146.784 107.782 146.452C107.68 146.126 107.453 145.851 107.148 145.686C106.844 145.521 106.485 145.478 106.149 145.568L105.93 144.679C106.486 144.53 107.079 144.596 107.586 144.865C108.094 145.133 108.476 145.582 108.654 146.119C108.827 146.684 108.764 147.293 108.48 147.812C108.196 148.331 107.713 148.719 107.138 148.89Z" fill="#1E120D"/>
<path d="M256.937 267.747C249.09 270.514 241.137 273.172 233.303 276.052C230.906 276.941 229.488 276.718 228.074 274.279C222.192 263.75 216.09 253.221 209.881 242.823C208.463 240.384 208.901 238.944 210.641 237.061C224.26 222.329 237.841 207.486 251.385 192.532C253.129 190.649 254.547 190.097 256.945 191.091C269.789 196.099 282.752 200.951 295.733 205.605C298.458 206.603 298.784 207.82 298.024 210.477C294.083 225.1 290.147 239.609 286.456 254.219C285.696 257.1 284.278 258.54 281.554 259.315C273.278 261.75 265.225 265.296 256.937 267.739C256.937 268.08 256.825 267.414 256.937 267.747Z" fill="#390142"/>
<path d="M86.7659 383.167C74.1286 386.932 65.5219 389.37 57.0269 392.011C52.9964 393.228 50.487 392.432 48.8627 388.136C38.0775 361.106 29.0367 333.524 27.0731 304.173C26.5475 296.405 27.1713 288.603 28.925 281.009C34.8075 254.868 61.8266 244.453 83.2897 259.85C96.5801 269.377 106.493 281.894 114.447 296.07C125.232 315.119 135.257 334.505 141.466 355.774C143.099 361.531 142.665 364.968 136.236 366.518C117.923 371.092 101.036 380.176 86.7659 383.167Z" fill="#C6859C"/>
<path d="M226.759 187.991C217.607 166.39 206.603 140.581 195.615 114.772C182.437 83.758 169.142 52.7437 156.29 21.6156C149.844 6.10838 150.734 4.76908 167.29 4.22579C216.412 2.78541 265.505 1.38294 314.567 0.0183776C319.904 -0.0953362 325.352 0.346884 332.103 0.5701C296.481 64.1543 261.367 126.628 226.759 187.991Z" fill="#FBD061"/>
<path d="M369.688 402.889C361.627 405.766 353.566 408.428 345.625 411.527C342.033 412.858 339.962 412.193 338.11 408.76C332.335 398.231 326.345 387.702 320.024 377.409C317.957 373.977 318.499 371.985 321.004 369.213C335.278 353.929 349.329 338.532 363.384 323.024C365.67 320.476 367.741 320.144 370.792 321.251C383.756 326.234 396.832 331.22 409.894 335.874C413.491 337.201 414.69 338.641 413.491 342.739C409.349 357.48 405.537 372.22 401.941 387.05C400.961 391.261 398.563 393.367 394.752 394.47C386.253 396.905 377.865 399.453 369.477 402.001C369.483 402.308 369.555 402.611 369.688 402.889Z" fill="#312571"/>
<path d="M168.472 393.801C125.004 415.621 86.0053 423.598 44.8236 420.275C42.3185 420.052 39.7017 420.275 37.4157 419.5C34.7989 418.611 29.9004 419.386 30.227 415.402C30.5535 411.3 35.2372 412.854 37.9614 412.854C77.3986 412.188 113.892 401.554 146.244 378.403C177.727 355.808 200.063 326.01 211.282 288.017C214.006 278.71 215.97 277.716 225.23 280.264C225.771 280.373 226.317 280.596 226.863 280.685C244.291 285.116 247.999 282.012 240.918 306.376C228.612 349.162 199.302 376.743 168.472 393.801Z" fill="#0378EC"/>
</svg>
