<svg width="432" height="421" viewBox="0 0 432 421" fill="none" xmlns="http://www.w3.org/2000/svg">
<path d="M162.132 83.7427C190.224 66.18 218.606 49.005 246.305 30.7705C255.736 24.5602 262.267 23.785 271.387 31.6318C302.391 58.1222 333.982 84.0312 365.767 109.553C373.252 115.582 374.322 120.517 369.848 128.864C340.979 182.818 312.338 236.868 283.923 291.015C280.33 297.906 275.761 301.304 267.789 302.079C215.689 307.126 163.672 312.363 111.684 318.186C99.9245 319.547 96.2275 314.986 94.187 304.215C85.6324 258.508 76.6939 212.9 67.0695 167.379C64.8349 156.801 67.9323 150.785 76.6939 145.35C106.434 127.012 132.387 102.365 162.132 83.7298C160.868 81.8047 163.296 85.685 162.132 83.7427Z" fill="#FB6E41"/>
<path d="M146.191 5.44695C71.1501 12.7123 7.77817 80.056 0.875853 126.831C-3.0067 153.222 24.1065 213.968 49.6709 221.634C93.3109 234.735 155.328 162.344 192.575 108.683C229.882 55.0212 188.96 1.26516 146.191 5.44695Z" fill="#FFB74D"/>
<path d="M74.7476 146.043C75.2351 145.944 75.8175 145.849 76.3006 145.75C80.4808 154.096 85.8301 161.181 91.1751 164.674L99.5356 219.209L153.089 206.401L135.199 154.195C135.199 154.195 139.668 145.849 139.668 130.612L140.932 130.224C145.207 128.868 147.64 124.195 145.401 120.229C144.718 119.037 143.701 118.071 142.474 117.451C141.247 116.83 139.866 116.581 138.499 116.736C137.614 111.067 136.248 105.484 134.414 100.047C133.198 96.0661 131.362 92.3005 128.974 88.8889C121.209 78.5054 109.436 73.1695 96.4079 76.2746C78.4274 80.5425 69.6615 92.7692 68.5139 112.856C68.1257 119.165 69.1956 126.051 71.1368 132.666C68.803 133.446 67.2543 134.996 66.5684 136.939C64.8341 141.969 69.5967 146.818 74.7476 146.043Z" fill="white"/>
<path d="M164.465 102.378C159.973 99.5935 156.496 95.4436 154.543 90.5386C151.433 82.4851 145.117 71.3222 134.034 69.0913C129.759 68.2299 125.967 65.9862 123.634 62.3987C118.97 55.1204 109.734 44.9308 96.7102 49.7801C88.9451 52.6914 85.0625 56.0894 83.1989 59.1945C80.3819 63.9319 75.6193 67.3471 70.3692 69.2851C62.108 72.1964 52.682 80.2499 52.5828 101.31C52.5344 106.665 50.5681 111.827 47.0394 115.862C39.0715 125.276 27.1132 145.363 39.3605 172.146L86.5034 160.888C82.6208 157.012 78.8245 151.573 75.7185 145.363C75.1361 145.462 74.6486 145.556 74.1655 145.656C69.0146 146.517 64.2434 141.577 66.0984 136.612C66.7757 134.674 68.333 133.119 70.6669 132.344C68.7213 125.746 67.6471 118.855 68.0397 112.533C69.2088 92.4464 77.9618 80.125 95.938 75.9518C108.962 72.8467 120.821 78.1827 128.5 88.5661C131.028 91.865 132.68 95.7454 133.944 99.7248C135.705 105.184 137.069 110.762 138.025 116.417C139.391 116.262 140.773 116.511 142 117.131C143.227 117.752 144.245 118.718 144.927 119.91C147.162 123.786 144.828 128.524 140.454 129.906L139.19 130.294C139.232 136.63 138.348 142.938 136.567 149.019L184.974 137.473C185.069 137.309 181.281 113.05 164.465 102.378Z" fill="#1E120D"/>
<path d="M139.871 125.569C139.955 124.977 140.085 124.392 140.26 123.821C140.373 123.278 140.438 122.726 140.454 122.171C140.477 121.689 140.34 121.212 140.065 120.815C139.684 120.428 139.219 120.133 138.706 119.953C139.023 119.874 139.354 119.868 139.674 119.935C139.994 120.002 140.295 120.141 140.553 120.341C140.816 120.572 141.028 120.856 141.177 121.173C141.325 121.49 141.407 121.834 141.416 122.184C141.391 122.816 141.259 123.439 141.028 124.027C140.72 124.595 140.33 125.115 139.871 125.569Z" fill="#1E120D"/>
<path d="M75.235 140.995C74.6372 140.809 74.0777 140.517 73.5828 140.134C73.0866 139.719 72.6599 139.228 72.3188 138.678C72.1349 138.373 72.0296 138.028 72.0123 137.672C71.995 137.317 72.0662 136.963 72.2196 136.641C72.3808 136.348 72.6033 136.092 72.8719 135.891C73.1406 135.691 73.4492 135.55 73.7769 135.479C73.3844 135.965 72.9961 136.448 72.9961 136.934C72.9502 137.168 72.9525 137.409 73.0029 137.643C73.0534 137.876 73.1509 138.096 73.2895 138.291C73.5416 138.766 73.8301 139.221 74.1522 139.652C74.5534 140.026 74.8425 140.513 75.235 140.995Z" fill="#1E120D"/>
<path d="M99.0484 220.782L98.755 219.326C98.755 219.132 98.6601 219.037 98.6601 218.938L90.2997 164.769C85.2437 161.181 80.0929 154.678 75.9127 146.53L75.3303 146.625C73.816 146.864 72.2655 146.703 70.8328 146.158C69.4002 145.613 68.1353 144.704 67.164 143.52C66.2712 142.48 65.6742 141.22 65.4352 139.872C65.1961 138.524 65.3239 137.136 65.8051 135.854C66.5591 133.831 68.0528 132.169 69.9853 131.203C68.1389 124.407 67.3581 117.908 67.6514 112.085C68.9154 90.8317 78.3457 78.493 96.5204 74.238C109.462 71.2233 122.085 76.0813 130.54 87.438C132.874 90.5431 134.72 94.3287 136.273 98.9842C137.989 104.111 139.288 109.368 140.156 114.704C141.569 114.746 142.948 115.152 144.157 115.884C145.367 116.615 146.366 117.646 147.058 118.877C147.637 119.886 147.98 121.011 148.064 122.17C148.147 123.33 147.969 124.493 147.541 125.574C147.02 126.807 146.238 127.914 145.248 128.818C144.259 129.721 143.085 130.401 141.808 130.811L141.42 130.91C141.226 143.718 138.016 151.483 137.046 153.615L155.414 207.181L99.0484 220.782ZM77.5649 143.619L78.0524 144.48C82.2326 152.826 87.4827 159.618 92.4394 162.917L92.9226 163.21L101.283 217.358L152.024 205.234L134.233 153.416L134.526 152.934C134.526 152.835 138.801 144.682 138.901 130.031V129.049L141.135 128.369C142.021 128.094 142.836 127.631 143.524 127.011C144.212 126.39 144.757 125.628 145.121 124.777C145.412 124.076 145.537 123.317 145.486 122.559C145.435 121.802 145.21 121.066 144.828 120.41C144.272 119.46 143.454 118.69 142.472 118.192C141.49 117.693 140.385 117.487 139.289 117.598L138.025 117.697L137.831 116.435C136.918 110.876 135.586 105.394 133.845 100.035C132.63 96.2098 130.861 92.5825 128.595 89.2683C120.722 78.7859 109.35 74.3241 97.3961 77.1364C80.4811 81.1158 71.7324 92.662 70.5677 112.555C70.2743 118.377 71.15 125.074 73.0956 131.866L73.4839 133.128L72.2199 133.515C71.3777 133.777 70.6069 134.227 69.9667 134.833C69.3265 135.438 68.834 136.183 68.5272 137.008C68.2268 137.846 68.1585 138.749 68.3293 139.622C68.5002 140.495 68.9038 141.306 69.4978 141.969C70.1603 142.797 71.0323 143.433 72.0235 143.812C73.0148 144.19 74.0894 144.298 75.1361 144.123L77.5649 143.619Z" fill="#1E120D"/>
<path d="M91.3691 162.732C105.657 169.623 119.263 171.66 135.402 152.254C135.402 152.254 124.125 181.539 93.8971 178.451L91.3691 162.732Z" fill="#1E120D"/>
<path d="M98.3666 179.325C96.9085 179.325 95.3468 179.23 93.7981 179.131L93.3107 179.036L90.4937 161.568L91.6584 162.15C106.434 169.329 119.462 170.302 134.819 151.766L137.537 148.566L135.984 152.442C135.885 152.735 125.389 179.325 98.3666 179.325ZM94.4841 177.774C116.054 179.811 127.822 164.574 132.391 156.62C118.297 171.263 105.955 170.401 92.2494 163.993L94.4841 177.774Z" fill="#1E120D"/>
<path d="M65.417 94.8064C65.417 94.8064 88.7425 109.751 134.915 91.3137C135.014 91.4084 107.215 41.5327 65.417 94.8064Z" fill="#1E120D"/>
<path d="M132.098 125.47C132.96 128.575 130.64 131.973 126.848 133.136C123.056 134.299 119.363 132.748 118.487 129.643C117.611 126.538 119.945 123.14 123.737 121.977C127.434 120.814 131.123 122.464 132.098 125.47Z" fill="#FFC9C9"/>
<path d="M96.4211 135.561C96.9086 138.765 93.9924 141.59 90.1055 141.969C86.2186 142.348 82.6208 140.027 82.1333 136.823C81.6458 133.619 84.5664 130.793 88.4532 130.419C92.4393 130.13 96.0328 132.361 96.4211 135.561Z" fill="#FFC9C9"/>
<path d="M90.8818 137.116C88.5338 137.117 86.2328 136.458 84.242 135.215C82.2512 133.972 80.651 132.195 79.6244 130.087C78.5977 127.979 78.1861 125.624 78.4366 123.294C78.6871 120.963 79.5896 118.75 81.0409 116.907C82.4921 115.064 84.4336 113.666 86.6432 112.873C88.8528 112.08 91.2414 111.924 93.5358 112.422C95.8301 112.921 97.9377 114.054 99.6174 115.692C101.297 117.33 102.481 119.406 103.034 121.685C103.425 123.279 103.496 124.935 103.242 126.557C102.988 128.178 102.414 129.734 101.554 131.133C100.694 132.532 99.5641 133.747 98.2306 134.707C96.8972 135.667 95.3862 136.354 93.7851 136.728C92.8413 136.997 91.8633 137.128 90.8818 137.116ZM90.8818 113.05C89.967 113.056 89.0551 113.155 88.1597 113.343C86.6564 113.677 85.2349 114.308 83.9783 115.197C82.7216 116.086 81.6549 117.216 80.8404 118.522C80.0259 119.827 79.4799 121.281 79.2343 122.799C78.9887 124.317 79.0484 125.868 79.4099 127.363C79.7714 128.858 80.4275 130.266 81.3399 131.505C82.2522 132.744 83.4026 133.789 84.7239 134.579C86.0452 135.37 87.5109 135.889 89.0355 136.108C90.5601 136.327 92.1132 136.24 93.6039 135.854C95.0848 135.497 96.4808 134.852 97.7122 133.957C98.9436 133.061 99.9862 131.933 100.781 130.635C101.575 129.337 102.106 127.896 102.342 126.393C102.578 124.891 102.516 123.357 102.159 121.878C101.533 119.363 100.084 117.127 98.0412 115.528C95.9981 113.928 93.4783 113.056 90.8818 113.05Z" fill="#222A46"/>
<path d="M119.363 130.341C117.06 130.361 114.799 129.722 112.849 128.498C111.444 127.641 110.223 126.515 109.256 125.184C108.289 123.854 107.595 122.346 107.215 120.746C106.819 119.16 106.744 117.511 106.994 115.895C107.243 114.28 107.813 112.73 108.669 111.336C109.526 109.932 110.654 108.712 111.987 107.746C113.32 106.779 114.831 106.087 116.434 105.707C118.024 105.312 119.676 105.237 121.296 105.487C122.915 105.737 124.468 106.307 125.864 107.163C127.27 108.019 128.492 109.145 129.459 110.476C130.426 111.806 131.119 113.315 131.498 114.915C131.893 116.499 131.969 118.145 131.721 119.758C131.473 121.372 130.906 122.92 130.053 124.312C129.195 125.716 128.067 126.936 126.734 127.902C125.401 128.868 123.89 129.561 122.288 129.941C121.338 130.216 120.352 130.351 119.363 130.341ZM119.363 106.276C118.448 106.276 117.535 106.373 116.641 106.564C114.408 107.102 112.385 108.289 110.829 109.976C109.273 111.662 108.253 113.772 107.899 116.038C107.545 118.303 107.873 120.623 108.841 122.703C109.809 124.782 111.373 126.528 113.336 127.719C114.625 128.529 116.067 129.065 117.572 129.294C119.077 129.523 120.613 129.439 122.085 129.049C123.566 128.693 124.962 128.048 126.193 127.153C127.425 126.257 128.467 125.128 129.262 123.831C130.056 122.533 130.587 121.092 130.823 119.589C131.059 118.087 130.997 116.553 130.64 115.074C130.3 113.584 129.659 112.178 128.757 110.944C127.854 109.709 126.708 108.672 125.39 107.895C123.562 106.825 121.482 106.261 119.363 106.258V106.276Z" fill="#222A46"/>
<path d="M100.213 116.155L99.6309 115.475C99.7301 115.38 102.254 113.05 107.603 113.536L107.504 114.398C102.547 114.118 100.213 116.155 100.213 116.155Z" fill="#222A46"/>
<path d="M93.2159 125.569C93.6041 127.025 92.9225 128.481 91.8527 128.674C90.7871 128.963 89.618 127.994 89.2298 126.439C88.8415 124.984 89.5231 123.532 90.593 123.334C91.7578 123.14 92.9225 124.114 93.2159 125.569Z" fill="#222A46"/>
<path d="M121.697 118.773C122.085 120.229 121.404 121.684 120.334 121.878C119.264 122.171 118.099 121.202 117.711 119.647C117.323 118.192 118.004 116.736 119.07 116.542C120.135 116.348 121.309 117.317 121.697 118.773Z" fill="#222A46"/>
<path d="M102.158 139.346C103.468 140.273 104.909 140.999 106.433 141.5C107.859 141.937 109.382 141.937 110.808 141.5C112.266 141.013 113.435 140.139 114.69 139.17C115.277 138.588 115.76 138.007 116.342 137.447C116.83 136.861 117.412 136.185 117.999 135.6C117.701 136.371 117.343 137.118 116.929 137.835C116.442 138.511 116.066 139.191 115.471 139.872C114.302 141.134 112.943 142.297 111.192 142.783C109.459 143.271 107.613 143.168 105.946 142.49C104.434 141.783 103.13 140.701 102.158 139.346Z" fill="#FF3E3E"/>
<path d="M106.434 130.905C106.86 130.041 107.382 129.228 107.991 128.481C108.552 127.718 109.169 126.998 109.838 126.327L110.226 127.783C108.858 127.164 107.707 126.15 106.921 124.872C106.508 124.291 106.15 123.674 105.852 123.028C105.539 122.414 105.31 121.761 105.17 121.086C106.145 122.059 107.016 123.123 107.892 123.997C108.743 124.834 109.729 125.523 110.808 126.034L112.072 126.521L111.209 127.589C110.627 128.269 109.945 128.946 109.268 129.626C108.55 130.284 107.768 130.87 106.934 131.375C106.853 131.41 106.762 131.42 106.675 131.402C106.588 131.385 106.508 131.34 106.447 131.276L106.434 130.905Z" fill="#EB7D7A"/>
<path d="M78.9694 126.989L71.4692 131.675L71.9842 132.496L79.4844 127.81L78.9694 126.989Z" fill="#222A46"/>
<path d="M131.128 114.521L130.923 115.468L137.382 116.865L137.587 115.918L131.128 114.521Z" fill="#222A46"/>
<path d="M349.922 390.672C309.371 410.664 273.039 417.942 234.74 414.932C232.406 414.738 229.994 414.932 227.837 414.255C225.314 413.476 220.84 414.156 221.133 410.47C221.522 406.783 225.797 408.14 228.325 408.14C265.049 407.459 299.186 397.856 329.327 376.602C358.662 355.93 379.481 328.669 389.977 293.914C392.505 285.374 394.257 284.504 403.005 286.829C403.488 286.928 403.976 287.122 404.558 287.221C420.792 291.295 424.195 288.479 417.582 310.8C406.008 349.918 378.597 375.052 349.922 390.672Z" fill="#0378EC"/>
<path d="M218.506 115.474C201.207 115.573 188.861 105.965 185.267 89.858C181.57 73.9448 188.179 60.1634 203.053 52.8851C210.439 49.2976 218.118 46.7739 226.478 47.9367C239.308 49.78 248.251 57.0583 252.625 69.0912C257.293 81.8993 253.596 93.3507 244.946 103.248C237.656 111.391 228.713 115.668 218.506 115.474Z" fill="#FBD061"/>
<path d="M130.454 373.015C129.19 373.402 127.926 373.876 126.662 374.276L124.621 374.565L124.716 374.664C111.694 347.202 98.6368 319.772 85.5454 292.376C97.4994 271.997 109.553 251.618 121.317 231.144C123.452 227.457 125.298 227.845 128.508 229.421C147.364 238.543 166.221 247.565 185.275 256.299C188.968 258.048 189.745 260.278 189.55 264.051C188.092 293.94 186.764 323.893 185.564 353.91C185.37 358.277 184.594 360.607 179.443 361.576C166.501 364.001 153.779 367.493 140.949 370.504C140.213 370.702 139.467 370.863 138.715 370.986C136.868 372.054 135.022 372.928 132.882 372.541C131.998 372.722 131.222 372.916 130.454 373.015Z" fill="#390142"/>
<path d="M96.326 343.026C98.3665 342.738 99.3458 343.999 100.019 346.23C106.058 366.328 112.118 386.383 118.198 406.395C119.061 409.207 118.487 410.663 115.476 411.244C99.5356 414.349 83.6905 417.454 67.7504 420.852C63.9585 421.627 63.5702 419.203 63.0051 416.873C58.2166 399.893 53.5115 382.907 48.8898 365.916C47.9192 362.518 47.1427 359.125 46.0728 355.727C45.21 352.815 46.267 351.265 49.0926 350.778C64.351 348.155 79.7216 345.636 94.9715 343.112C95.4164 343.018 95.8727 342.989 96.326 343.026Z" fill="#FEE5BF"/>
<path d="M222.203 295.869C222.591 285.192 222.98 274.615 223.463 264.038C223.661 259.382 226.185 262.294 227.643 262.974C252.138 275.588 276.537 288.297 301.032 301.011C307.347 304.31 313.568 307.609 319.888 310.714C322.222 311.881 323.387 313.143 322.998 316.05C321.929 324.301 321.053 332.549 320.276 340.796C319.987 344.194 318.818 344.289 316.001 343.027C285.87 328.568 255.737 314.175 225.602 299.848C223.756 299.068 221.716 298.392 222.203 295.869Z" fill="#670742"/>
<path d="M319.405 0.00346421C330.488 0.00346421 337.002 5.14565 339.525 17.7599C340.694 23.7893 341.372 29.9866 342.152 36.0978C342.735 41.0505 345.358 42.7947 350.22 41.6319C355.858 40.271 361.496 38.7206 367.229 37.6525C378.877 35.3226 387.25 40.0772 391.53 51.1411C394.55 59.1946 394.834 67.6357 394.929 76.0768C394.929 76.7572 395.029 77.8253 394.64 78.1181C390.266 81.1328 385.503 78.2129 380.935 78.6005C378.019 78.7943 378.114 76.6625 378.114 74.6254C378.213 69.8881 377.919 65.1119 376.755 60.4564C375.003 53.6648 374.033 52.9843 367.13 54.6338C361.009 56.0894 354.982 58.4193 348.58 58.6132C337.015 59.0008 329.53 53.5657 326.419 42.4071C324.573 35.7102 324.375 28.8238 323.4 22.0279C322.705 17.0752 320.181 15.9167 315.807 16.4981C307.062 17.7256 298.486 19.942 290.243 23.1045C287.326 24.2716 286.157 23.5912 285.187 20.8737C280.036 6.11465 277.219 9.90023 293.06 4.58578C300.933 1.94147 309.194 -0.0955896 319.405 0.00346421Z" fill="#FB6E41"/>
<path d="M243.781 220.665V221.733C243.587 234.541 243.587 234.653 256.723 233.667C261.817 233.215 266.879 232.471 271.887 231.436C274.514 230.949 275.873 231.531 276.36 234.153C278.694 246.186 280.929 244.632 268.194 246.768C260.321 248.03 252.448 248.921 244.467 247.737C236.111 246.475 231.15 241.819 229.597 233.572C228.432 227.543 229.403 221.634 229.304 215.618C229.11 208.632 228.441 207.952 221.539 208.339C216.582 208.632 211.72 209.506 206.763 209.506C197.432 209.601 191.406 204.846 189.076 195.919C187.036 188.253 187.812 180.492 189.076 172.826C189.175 172.34 189.175 171.465 189.564 171.371C193.839 169.527 197.631 172.34 201.617 172.727C203.951 172.921 203.463 174.881 203.269 176.414C202.461 181.126 202.331 185.929 202.881 190.677C203.269 193.882 204.921 195.415 208.226 195.044C212.6 194.562 216.974 193.981 221.444 193.688C235.93 192.719 243.803 199.997 244.092 214.455C243.898 216.492 243.803 218.628 243.803 220.665H243.781Z" fill="#670742"/>
<path d="M0 342.252C1.06986 326.532 5.05595 311.674 12.6356 297.811C14.3206 294.709 16.4856 291.892 19.0504 289.465C27.3116 281.992 35.8748 284.611 38.2 295.576C39.6581 302.273 39.2699 308.871 38.2 315.567C36.1595 328.668 31.7852 340.895 22.6482 350.792C18.2739 355.529 13.4121 361.464 6.1215 358.458C-0.875732 355.74 0.603953 348.259 0 342.252Z" fill="#0009ED"/>
<path d="M27.7042 265.494C20.996 265.494 14.2878 265.399 7.57963 265.593C4.46928 265.692 3.59786 264.731 3.98611 261.613C5.2501 251.523 6.31996 241.333 7.2906 231.144C7.57963 228.038 8.84362 227.457 11.6649 227.556C25.5645 228.038 39.5589 228.525 53.4585 228.814C56.8622 228.913 57.1555 230.368 56.7673 233.086C55.4041 242.991 54.0452 252.978 52.7812 262.974C52.4879 265.593 51.129 265.989 48.8986 265.989C41.8065 265.894 34.805 265.989 27.7128 265.989L27.7042 265.494Z" fill="#312571"/>
<path d="M342.437 236.678C343.701 255.696 345.065 274.615 346.32 293.526C346.415 295.468 346.126 296.437 343.693 296.05C331.834 294.206 321.631 280.425 320.95 265.093C320.268 251.23 328.831 239.783 342.437 236.678Z" fill="#0009ED"/>
<path d="M282.564 342.932C289.949 344.483 290.436 345.65 285.381 352.342C267.4 376.507 227.548 374.371 213.648 348.466C211.215 343.906 207.717 338.182 210.827 333.824C213.549 329.948 219.287 333.337 223.661 334.017C242.905 336.916 262.15 339.827 282.564 342.932Z" fill="#C6859C"/>
<path d="M104.881 309.068C105.378 309.154 105.866 309.284 106.339 309.457C105.842 309.374 105.353 309.244 104.881 309.068Z" fill="#3A0342"/>
<path d="M110.127 310.132L111.586 310.425C111.085 310.421 110.59 310.322 110.127 310.132Z" fill="#3A0342"/>
<path d="M100.989 308.384C101.382 308.483 101.852 308.677 102.254 308.777C101.865 308.677 101.477 308.483 100.989 308.384Z" fill="#3A0342"/>
<path d="M341.272 79.5742C386.374 79.768 416.02 107.421 416.701 148.274C417.185 181.074 388.609 215.028 342.437 215.028C305.501 215.028 272.162 182.228 272.551 148.274C273.038 108.588 302.196 79.3804 341.272 79.5742ZM332.213 182.625C355.249 182.724 370.801 168.843 370.801 147.986C370.896 125.376 355.926 111.306 331.432 111.108C312.481 110.914 296.342 127.607 296.247 147.594C296.269 167.487 311.721 182.53 332.234 182.625H332.213Z" fill="#FEE5BF"/>
<path d="M332.234 182.624C311.722 182.529 296.17 167.391 296.269 147.593C296.364 127.701 312.502 110.913 331.454 111.107C355.948 111.4 370.918 125.375 370.823 147.981C370.823 168.847 355.366 182.723 332.234 182.624Z" fill="#FCB788"/>
<path d="M360.616 222.896H427.297C428.85 232.598 430.213 242.301 431.865 252.009C432.349 254.916 431.572 256.083 428.846 256.746C410.183 261.888 391.553 267.095 372.954 272.366C371.302 272.853 369.555 273.921 369.072 270.911C366.349 254.916 362.752 239.003 360.616 222.896Z" fill="#FE6206"/>
</svg>
