<svg width="475" height="377" viewBox="0 0 475 377" fill="none" xmlns="http://www.w3.org/2000/svg">
<g clip-path="url(#clip0)">
<g opacity="0.4">
<path opacity="0.4" d="M469.305 210.207C476.354 163.915 482.049 113.612 453.077 73.1311C444.397 60.9841 433.228 48.8094 419.378 42.9434C401.961 35.5833 383.439 33.7017 364.668 33.9231C329.863 34.3105 295.112 40.5085 262.27 52.1851C238.495 60.652 215.218 72.0796 190.061 73.8228C147.459 76.7835 103.946 51.5764 63.5009 65.3559C42.0205 72.6884 25.1017 90.4523 15.1218 110.983C5.16948 131.487 1.5756 154.591 0.690957 177.418C-1.99063 246.759 15.9788 320.194 55.9814 376.64H408.181C415.977 362.916 422.28 348.39 427.782 336.436C445.917 296.952 462.753 253.316 469.305 210.207Z" fill="#E5E5FF"/>
</g>
<path d="M233.989 264.938H205.543C204.437 264.938 203.524 264.025 203.524 262.918V253.787C203.524 252.68 204.437 251.767 205.543 251.767H233.989C235.095 251.767 236.008 252.68 236.008 253.787V262.918C236.035 264.025 235.123 264.938 233.989 264.938Z" fill="#E0E0FF"/>
<path d="M271.505 264.938H243.058C241.952 264.938 241.04 264.025 241.04 262.918V253.787C241.04 252.68 241.952 251.767 243.058 251.767H271.505C272.61 251.767 273.523 252.68 273.523 253.787V262.918C273.523 264.025 272.61 264.938 271.505 264.938Z" fill="#E0E0FF"/>
<path d="M288.478 282.01H260.031C258.925 282.01 258.013 281.097 258.013 279.99V270.859C258.013 269.752 258.925 268.839 260.031 268.839H288.478C289.584 268.839 290.496 269.752 290.496 270.859V279.99C290.496 281.097 289.612 282.01 288.478 282.01Z" fill="#E0E0FF"/>
<path d="M250.935 281.761H222.488C221.383 281.761 220.47 280.848 220.47 279.741V270.61C220.47 269.503 221.383 268.59 222.488 268.59H250.935C252.041 268.59 252.953 269.503 252.953 270.61V279.741C252.953 280.875 252.041 281.761 250.935 281.761Z" fill="#E0E0FF"/>
<path d="M234.128 298.612H205.681C204.575 298.612 203.663 297.699 203.663 296.592V287.461C203.663 286.354 204.575 285.441 205.681 285.441H234.128C235.233 285.441 236.146 286.354 236.146 287.461V296.592C236.146 297.699 235.233 298.612 234.128 298.612Z" fill="#E0E0FF"/>
<path d="M334.396 8.71597H96.0117V182.094H334.396V8.71597Z" fill="white"/>
<path d="M334.729 182.426H95.6528V8.35626H334.729V182.426ZM96.344 181.735H334.038V9.04801H96.344V181.735Z" fill="#5254CF"/>
<path opacity="0.6" d="M334.065 8.71597H96.3159V16.4912H334.065V8.71597Z" fill="#E0E0FF"/>
<path d="M344.791 0.359703H85.6167V9.71207H344.791V0.359703Z" fill="white"/>
<path d="M345.123 10.0441H85.2578V0H345.123V10.0441ZM85.9489 9.35237H344.432V0.691743H85.9489V9.35237Z" fill="#5254CF"/>
<path d="M229.344 102.655H202.445V93.4407C198.133 89.5946 195.672 84.116 195.672 78.333C195.672 67.1821 204.74 58.1064 215.881 58.1064C227.022 58.1064 236.09 67.1821 236.09 78.333C236.09 84.0883 233.629 89.5946 229.317 93.4407V102.655H229.344ZM203.137 101.963H228.653V93.1363L228.764 93.0256C232.993 89.3179 235.399 83.95 235.399 78.333C235.399 67.5695 226.635 58.7982 215.881 58.7982C205.127 58.7982 196.363 67.5695 196.363 78.333C196.363 83.95 198.796 89.2902 202.998 93.0256L203.109 93.1363V101.963H203.137Z" fill="#5254CF"/>
<path d="M229.344 110.928H202.445V106.528H229.344V110.928ZM203.136 110.236H228.653V107.22H203.136V110.236Z" fill="#5254CF"/>
<path d="M229.344 117.32H202.445V112.92H229.344V117.32ZM203.136 116.628H228.653V113.612H203.136V116.628Z" fill="#5254CF"/>
<path d="M217.955 102.655H213.836L212.426 74.5146H219.365L217.955 102.655ZM214.499 101.963H217.291L218.646 75.2063H213.145L214.499 101.963Z" fill="#5254CF"/>
<path d="M216.324 52.4065C217.088 52.4065 217.706 51.7871 217.706 51.023C217.706 50.2589 217.088 49.6395 216.324 49.6395C215.561 49.6395 214.942 50.2589 214.942 51.023C214.942 51.7871 215.561 52.4065 216.324 52.4065Z" fill="#CBCBFF"/>
<path d="M184.2 85.4441C184.963 85.4441 185.582 84.8247 185.582 84.0606C185.582 83.2965 184.963 82.6771 184.2 82.6771C183.436 82.6771 182.817 83.2965 182.817 84.0606C182.817 84.8247 183.436 85.4441 184.2 85.4441Z" fill="#CBCBFF"/>
<path d="M247.425 85.4441C248.188 85.4441 248.807 84.8247 248.807 84.0606C248.807 83.2965 248.188 82.6771 247.425 82.6771C246.661 82.6771 246.042 83.2965 246.042 84.0606C246.042 84.8247 246.661 85.4441 247.425 85.4441Z" fill="#CBCBFF"/>
<path d="M216.158 131.791C216.921 131.791 217.54 131.171 217.54 130.407C217.54 129.643 216.921 129.024 216.158 129.024C215.394 129.024 214.775 129.643 214.775 130.407C214.775 131.171 215.394 131.791 216.158 131.791Z" fill="#CBCBFF"/>
<path d="M188.845 62.2569C189.608 62.2569 190.227 61.6375 190.227 60.8734C190.227 60.1093 189.608 59.4899 188.845 59.4899C188.081 59.4899 187.462 60.1093 187.462 60.8734C187.462 61.6375 188.081 62.2569 188.845 62.2569Z" fill="#CBCBFF"/>
<path d="M188.541 61.0394L182.238 48.256H156.776V47.5643H182.68L189.149 60.7074L188.541 61.0394Z" fill="#CBCBFF"/>
<path d="M117.769 48.09H112.488V58.4661H117.769V48.09Z" fill="#CBCBFF"/>
<path d="M126.421 43.0264H121.141V58.4661H126.421V43.0264Z" fill="#CBCBFF"/>
<path d="M135.075 46.0424H129.794V58.4385H135.075V46.0424Z" fill="#CBCBFF"/>
<path d="M143.727 39.4294H138.447V58.4661H143.727V39.4294Z" fill="#CBCBFF"/>
<path d="M152.381 30.7687H147.101V58.4661H152.381V30.7687Z" fill="#CBCBFF"/>
<path d="M242.753 60.7074C243.516 60.7074 244.135 60.088 244.135 59.3239C244.135 58.5598 243.516 57.9404 242.753 57.9404C241.989 57.9404 241.371 58.5598 241.371 59.3239C241.371 60.088 241.989 60.7074 242.753 60.7074Z" fill="#CBCBFF"/>
<path d="M243.085 59.4622L242.449 59.1579L249.802 43.7458H273.163V44.4376H250.245L243.085 59.4622Z" fill="#CBCBFF"/>
<path d="M312.087 54.0943H279.825C277.835 54.0943 276.231 52.4618 276.231 50.4973V31.7649C276.231 29.7726 277.835 28.1678 279.825 28.1678H312.087C314.078 28.1678 315.681 29.8003 315.681 31.7649V50.4973C315.709 52.4895 314.078 54.0943 312.087 54.0943ZM279.853 28.8319C278.25 28.8319 276.95 30.1323 276.95 31.7372V50.4696C276.95 52.0744 278.25 53.3749 279.853 53.3749H312.115C313.718 53.3749 315.018 52.0744 315.018 50.4696V31.7372C315.018 30.1323 313.718 28.8319 312.115 28.8319H279.853Z" fill="#CBCBFF"/>
<path d="M309.793 33.6741H282.147V34.3658H309.793V33.6741Z" fill="#CBCBFF"/>
<path d="M302.08 38.4056H282.147V39.0973H302.08V38.4056Z" fill="#CBCBFF"/>
<path d="M306.448 43.1371H282.147V43.8288H306.448V43.1371Z" fill="#CBCBFF"/>
<path d="M309.793 47.8686H282.147V48.5604H309.793V47.8686Z" fill="#CBCBFF"/>
<path d="M242.311 121.11C243.074 121.11 243.693 120.491 243.693 119.727C243.693 118.963 243.074 118.343 242.311 118.343C241.547 118.343 240.928 118.963 240.928 119.727C240.928 120.491 241.547 121.11 242.311 121.11Z" fill="#CBCBFF"/>
<path d="M272.72 135.305H249.332L241.979 119.865L242.614 119.589L249.774 134.613H272.72V135.305Z" fill="#CBCBFF"/>
<path d="M300.532 148.171C297.878 148.171 295.224 147.646 292.681 146.567C282.507 142.25 277.752 130.435 282.065 120.253C286.378 110.07 298.182 105.311 308.356 109.627C313.663 111.869 317.755 116.324 319.552 121.802C321.072 126.423 320.879 131.431 318.971 135.914C317.921 138.376 316.456 140.535 314.576 142.416C310.733 146.179 305.674 148.171 300.532 148.171ZM300.56 108.714C293.012 108.714 285.852 113.142 282.728 120.502C278.554 130.324 283.171 141.724 292.985 145.902C300.2 148.974 308.494 147.397 314.106 141.89C315.93 140.092 317.368 137.989 318.363 135.637C320.215 131.321 320.409 126.478 318.916 121.996C317.174 116.683 313.221 112.422 308.107 110.236C305.619 109.212 303.075 108.714 300.56 108.714Z" fill="#CBCBFF"/>
<path d="M318.667 135.803C317.617 138.266 316.124 140.424 314.327 142.195L300.698 128.305L319.248 121.94C320.685 126.312 320.602 131.21 318.667 135.803Z" fill="#CBCBFF"/>
<path d="M188.568 120.944C189.332 120.944 189.951 120.325 189.951 119.561C189.951 118.797 189.332 118.177 188.568 118.177C187.805 118.177 187.186 118.797 187.186 119.561C187.186 120.325 187.805 120.944 188.568 120.944Z" fill="#CBCBFF"/>
<path d="M181.519 135.111H158.159V134.42H181.077L188.264 119.395L188.873 119.699L181.519 135.111Z" fill="#CBCBFF"/>
<path d="M151.026 118.509H116V97.0654H151.026V118.509ZM116.691 117.818H150.335V97.7571H116.691V117.818Z" fill="#CBCBFF"/>
<path d="M147.183 102.544H119.814V103.236H147.183V102.544Z" fill="#F5F5FF"/>
<path d="M147.183 107.442H119.814V108.133H147.183V107.442Z" fill="#F5F5FF"/>
<path d="M147.183 112.339H119.814V113.031H147.183V112.339Z" fill="#F5F5FF"/>
<path d="M122.855 114.525L120.423 109.821L118.93 114.165L118.294 113.944L120.284 108.078L122.855 113.058L128.246 102.848L131.674 111.592L134.411 105.117L139.636 110.707L145.193 101.077L145.773 101.437L139.774 111.869L134.632 106.362L131.647 113.418L128.163 104.509L122.855 114.525Z" fill="#CBCBFF"/>
<path d="M151.026 148.946H116V127.502H151.026V148.946ZM116.691 148.254H150.335V128.194H116.691V148.254Z" fill="#CBCBFF"/>
<path d="M147.183 132.981H119.814V133.672H147.183V132.981Z" fill="#F5F5FF"/>
<path d="M147.183 137.878H119.814V138.57H147.183V137.878Z" fill="#F5F5FF"/>
<path d="M147.183 142.776H119.814V143.468H147.183V142.776Z" fill="#F5F5FF"/>
<path d="M139.94 143.523L135.296 139.677L130.79 143.468L127.97 138.072L125.482 143.329L119.428 132.898L120.036 132.566L125.399 141.835L127.942 136.55L130.983 142.388L135.296 138.764L139.609 142.333L142.899 132.234L146.409 142.914L145.774 143.135L142.899 134.447L139.94 143.523Z" fill="#CBCBFF"/>
<path d="M23.526 185.47C23.526 185.47 17.6375 174.651 64.275 177.086L90.2062 261.147L46.3056 260.455L23.526 185.47Z" fill="#E0E0FF"/>
<path d="M39.173 376.668H32.4829L48.3789 262.309H57.1424L39.173 376.668Z" fill="#E0E0FF"/>
<path d="M117.022 376.668H123.712L107.816 262.309H99.0522L117.022 376.668Z" fill="#E0E0FF"/>
<path d="M116.552 257.439H49.8438V264.357H116.552V257.439Z" fill="#CBCBFF"/>
<path d="M49.844 257.439L29.9948 183.782C29.4695 181.873 27.3961 180.822 25.5439 181.541C23.9681 182.15 23.1111 183.838 23.4982 185.47L41.5505 257.771C42.4904 261.59 45.8908 264.274 49.8164 264.357V257.439H49.844Z" fill="#CBCBFF"/>
<path d="M423.359 376.668H429.607L414.761 262.281H406.578L423.359 376.668Z" fill="#E0E0FF"/>
<path d="M350.569 376.668H344.321L359.194 262.281H367.377L350.569 376.668Z" fill="#E0E0FF"/>
<path d="M340.54 264.342H433.4V257.425H340.54V264.342Z" fill="#CBCBFF"/>
<path d="M433.394 257.411H340.506C350.044 239.288 354.744 214.883 356.928 187.684C357.425 181.458 362.65 176.644 368.898 176.644H405.003C411.278 176.644 416.503 181.486 416.973 187.739C419.074 215.768 423.857 240.09 433.394 257.411Z" fill="#E0E0FF"/>
<path d="M83.8754 119.755C83.8754 119.755 57.5848 135.222 73.4808 145.598L87.5245 150.911L92.1413 128.996C90.7037 123.352 88.4092 119.367 83.8754 119.755Z" fill="#1B1B43"/>
<path d="M83.2395 121.525C81.8849 121.996 80.5856 122.577 79.3139 123.213C78.0422 123.85 76.7705 124.514 75.5818 125.289C73.1767 126.81 70.9098 128.581 69.1957 130.822C68.3387 131.929 67.62 133.174 67.1776 134.475C66.7077 135.803 66.5418 137.214 66.6247 138.598C66.7077 139.981 67.0118 141.392 67.5647 142.693C67.7858 143.357 68.1452 143.993 68.4493 144.63C68.7811 145.266 69.1681 145.847 69.5275 146.484L69.3063 146.65C67.6476 144.325 66.2377 141.614 66.0442 138.653C65.9336 137.186 66.0995 135.692 66.5694 134.281C67.0394 132.87 67.7858 131.57 68.6705 130.407C70.4674 128.083 72.8173 126.257 75.3053 124.79C77.7934 123.324 80.4474 122.134 83.2119 121.276L83.2395 121.525Z" fill="#1B1B43"/>
<path d="M177.482 359.706C175.851 358.323 174.275 356.939 172.754 355.418C171.455 354.117 170.183 352.789 168.967 351.433C168.58 351.018 167.668 350.326 167.474 349.773L153.043 354.615L158.075 376.64L160.839 376.668L161.088 366.347C165.511 368.533 170.128 370.553 175.021 371.466C178.035 372.019 181.933 372.269 184.808 371.023C191.968 367.952 179.417 361.339 177.482 359.706Z" fill="#1B1B43"/>
<path d="M164.323 340.808L151.026 345.844L153.044 354.643L167.475 349.773L164.323 340.808Z" fill="#FFBC96"/>
<path d="M106.434 215.132L139.691 226.145C145.192 227.971 149.809 231.789 152.629 236.853C154.067 239.426 155.007 242.248 155.366 245.181L168.276 344.516L148.233 347.974L120.92 246.98L83.9307 230.018L90.5102 211.673L106.434 215.132Z" fill="#393A8F"/>
<path d="M97.3385 371.079C92.2794 369.031 88.4091 355.473 88.4091 355.473L73.7018 351.405L65.27 372.075L67.5369 373.68L73.6742 365.379L88.6302 376.668H100.462C100.435 376.668 102.398 373.126 97.3385 371.079Z" fill="#1B1B43"/>
<path d="M90.9799 346.314L77.2126 342.773L73.7017 351.405L88.4089 355.473L90.9799 346.314Z" fill="#FFBC96"/>
<path d="M126.338 258.491L94.2423 349.469L90.4273 348.334L76.6323 344.211L74.863 343.686L92.1413 258.159C72.5684 263.001 61.7039 257.716 57.8059 248.917C56.7001 246.454 56.2025 243.577 56.1196 240.561C55.7602 228.441 61.9527 214.081 61.9527 214.081L80.5026 215.464L114.617 230.959C117.99 232.509 120.865 234.833 123.049 237.683C125.233 240.561 126.725 243.936 127.306 247.616C127.887 251.269 127.555 255.004 126.338 258.491Z" fill="#5254CF"/>
<path opacity="0.6" d="M92.1408 258.131C72.568 262.973 61.7035 257.688 57.8055 248.889C56.6997 246.427 56.2021 243.549 56.1191 240.533C66.3202 258.491 92.1408 258.131 92.1408 258.131Z" fill="#393A8F"/>
<path d="M79.6185 140.036L58.7463 188.32L64.2754 197.147C64.2754 197.147 58.6634 209.875 55.4565 218.757C55.4565 218.757 92.3629 229.188 124.155 221.247L118.875 194.048L116.635 152.377L103.393 140.341L79.6185 140.036Z" fill="#FFB147"/>
<path d="M111.493 201.878L108.452 202.266L102.315 178.58L104.748 177.889L111.493 201.878Z" fill="#1B1B43"/>
<path d="M144.944 190.7C139.608 189.897 134.77 188.154 134.77 188.154L126.808 156.528C125.288 150.523 120.837 145.736 114.949 143.8L104.775 140.894C104.278 140.756 103.808 140.562 103.365 140.341L112.737 203.455C112.737 203.455 128.771 205.06 140.299 205.365C140.023 199.858 142.124 193.522 144.944 190.7Z" fill="#FFB147"/>
<path d="M162.195 189.648C156.583 188.957 152.409 190.921 152.409 190.921C150.114 191.253 147.488 191.087 144.944 190.7C142.816 193.854 138.918 200.273 139.194 205.78C141.599 205.835 147.792 205.614 149.312 205.531C158.048 204.922 166.065 195.929 166.065 195.929C166.065 195.929 172.451 202.238 172.977 199.305C173.502 196.372 167.807 190.34 162.195 189.648Z" fill="#FFBC96"/>
<path d="M134.023 201.602H96.2876V204.784H134.023V201.602Z" fill="white"/>
<path d="M83.9861 204.59C83.9861 204.59 100.131 206.831 103.421 203.815C103.421 203.815 107.319 203.898 108.259 201.657C108.259 201.657 109.724 200.716 110.415 198.807C110.415 198.807 111.797 196.566 111.355 195.099L105.909 192.332C105.909 192.332 105.881 192.139 105.826 191.862C105.605 190.617 104.554 189.731 103.31 189.704L93.9108 189.565C93.0538 189.565 92.1968 189.704 91.3951 190.008L81.7192 193.605L83.9861 204.59Z" fill="#FFBC96"/>
<path d="M71.8774 165.492L62.2015 187.102L92.6113 189.537C83.6266 193.854 83.9583 204.59 83.9583 204.59L56.396 205.309C52.8298 205.392 49.4018 203.981 46.969 201.38C44.7298 199.028 43.541 195.901 43.541 192.775C43.541 191.447 43.7622 190.118 44.1769 188.846L55.4837 154.646C57.3083 149.14 61.7869 144.934 67.3988 143.495L78.4293 140.645C78.844 140.479 79.2586 140.285 79.618 140.092L71.8774 165.492Z" fill="#FFB147"/>
<path d="M110.33 198.918C109.003 198.364 107.732 197.7 106.488 197.036C105.244 196.344 104.027 195.625 102.866 194.767L103.004 194.518C104.331 195.072 105.603 195.708 106.847 196.4C108.091 197.091 109.308 197.839 110.469 198.669L110.33 198.918Z" fill="#D28572"/>
<path d="M108.203 201.768C106.959 201.436 105.77 200.993 104.581 200.523C103.392 200.052 102.231 199.526 101.125 198.89L101.236 198.641C102.48 198.945 103.669 199.388 104.858 199.886C106.046 200.384 107.207 200.882 108.313 201.519L108.203 201.768Z" fill="#D28572"/>
<path d="M103.337 203.926C102.701 203.787 102.093 203.538 101.512 203.262C100.932 202.985 100.379 202.681 99.8813 202.238L99.9919 201.989C100.655 202.127 101.236 202.349 101.817 202.653C102.397 202.957 102.95 203.262 103.448 203.677L103.337 203.926Z" fill="#D28572"/>
<path d="M61.0405 205.337C60.847 205.337 60.7088 205.199 60.6812 205.005C60.6812 204.811 60.8194 204.645 61.0129 204.645L83.599 204.258C83.5714 195.597 88.9899 191.308 91.3397 189.842L91.3674 189.427L91.3397 189.759L64.6344 187.075L71.4075 161.785C71.4628 161.591 71.6563 161.481 71.8222 161.536C72.0157 161.591 72.1263 161.785 72.071 161.951L65.5191 186.466L91.4226 189.067C91.7267 189.095 92.0032 189.316 92.0585 189.621C92.1414 189.925 92.0032 190.229 91.7267 190.395C89.4322 191.807 84.152 196.012 84.3178 204.562V204.922L61.0405 205.337Z" fill="#1B1B43"/>
<path d="M120.782 201.657C120.616 201.657 120.45 201.519 120.45 201.353L116.994 160.706C116.967 160.512 117.132 160.346 117.298 160.318C117.492 160.291 117.658 160.457 117.685 160.623L121.141 201.27C121.169 201.463 121.003 201.629 120.837 201.657C120.782 201.629 120.782 201.657 120.782 201.657Z" fill="#1B1B43"/>
<path d="M140.299 206.665C140.133 206.665 139.995 206.555 139.967 206.389C138.613 199.028 144.418 190.866 144.667 190.534C144.778 190.368 144.999 190.34 145.137 190.451C145.303 190.561 145.33 190.783 145.22 190.921C145.165 191.004 139.359 199.194 140.631 206.25C140.658 206.444 140.548 206.61 140.354 206.665C140.327 206.665 140.327 206.665 140.299 206.665Z" fill="#1B1B43"/>
<path d="M97.2835 159.793C98.337 159.793 99.191 158.938 99.191 157.883C99.191 156.829 98.337 155.974 97.2835 155.974C96.23 155.974 95.376 156.829 95.376 157.883C95.376 158.938 96.23 159.793 97.2835 159.793Z" fill="#1B1B43"/>
<path d="M103.393 140.341C102.564 145.377 99.1635 152.017 93.8833 149.417C90.013 147.507 83.544 142.499 79.646 140.036C90.3723 134.42 85.0921 119.755 84.9262 119.312L98.0301 124.154C98.0301 124.154 98.0301 124.237 98.0301 124.375C98.0577 125.427 98.2236 129.771 98.97 133.7C99.0806 134.198 99.1635 134.669 99.2741 135.139C99.8546 137.408 101.347 139.317 103.393 140.341Z" fill="#FFBC96"/>
<path d="M98.9695 133.7C91.2842 131.929 89.4043 123.96 89.4043 123.739L98.0296 124.403C98.0573 125.427 98.2231 129.771 98.9695 133.7Z" fill="#D28572"/>
<path d="M104.609 111.205C104.609 111.205 105.991 126.866 98.8311 128.166C91.7815 129.439 83.875 119.782 83.875 119.782L85.0914 105.339L93.1361 100.054C98.8311 102.35 102.536 105.588 104.609 111.205Z" fill="#FFBC96"/>
<path d="M84.2346 116.656C88.0496 115.355 89.4319 112.062 90.3718 107.58C91.837 100.662 101.789 106.196 104.637 111.205C104.637 111.205 106.185 97.2038 91.837 97.4528C91.837 97.4528 75.167 98.0615 80.1708 115.687L84.2346 116.656Z" fill="#1B1B43"/>
<path d="M86.0771 121.76C87.7964 120.595 87.9549 117.824 86.4311 115.572C84.9072 113.32 82.2782 112.439 80.5589 113.604C78.8396 114.769 78.6811 117.54 80.2049 119.792C81.7287 122.044 84.3578 122.925 86.0771 121.76Z" fill="#FFBC96"/>
<path d="M101.873 114.553C101.873 115.051 102.287 115.466 102.785 115.466C103.282 115.466 103.697 115.051 103.697 114.553C103.697 114.055 103.282 113.64 102.785 113.64C102.287 113.64 101.873 114.027 101.873 114.553Z" fill="#1B1B43"/>
<path d="M94.6304 114.746C94.6304 115.244 95.0451 115.659 95.5427 115.659C96.0403 115.659 96.455 115.244 96.455 114.746C96.455 114.248 96.0403 113.833 95.5427 113.833C95.0451 113.806 94.6304 114.221 94.6304 114.746Z" fill="#1B1B43"/>
<path d="M99.6341 120.446C99.4682 120.446 99.3024 120.308 99.3024 120.114C99.2747 119.921 99.4406 119.755 99.6064 119.755C99.8829 119.727 100.685 119.616 101.127 119.284C101.293 119.174 101.348 119.035 101.348 118.869C101.348 118.288 100.629 117.403 99.6894 116.766C99.5235 116.656 99.4959 116.434 99.6064 116.296C99.717 116.13 99.9382 116.102 100.076 116.213C101.044 116.849 102.012 117.928 102.039 118.869C102.039 119.284 101.873 119.616 101.542 119.865C100.823 120.336 99.6894 120.419 99.6341 120.446Z" fill="#D28572"/>
<path d="M104.472 112.533C104.168 112.45 103.892 112.394 103.615 112.339C103.339 112.311 103.09 112.284 102.813 112.311C102.565 112.339 102.288 112.394 102.012 112.477C101.735 112.56 101.459 112.643 101.127 112.726H101.099C100.989 112.754 100.878 112.671 100.851 112.56C100.851 112.505 100.851 112.45 100.878 112.394C101.072 112.09 101.321 111.813 101.652 111.62C101.956 111.426 102.343 111.315 102.73 111.26C103.117 111.232 103.532 111.288 103.864 111.454C104.223 111.62 104.527 111.841 104.721 112.173C104.776 112.284 104.749 112.394 104.666 112.45C104.61 112.477 104.555 112.477 104.5 112.477L104.472 112.533Z" fill="#1B1B43"/>
<path d="M93.1931 112.477C93.4419 112.118 93.7736 111.896 94.1607 111.703C94.5477 111.509 94.9624 111.398 95.4047 111.398C95.847 111.398 96.317 111.509 96.6764 111.758C97.0634 111.979 97.3399 112.311 97.5334 112.699C97.5887 112.809 97.5334 112.92 97.4505 112.976C97.3952 113.003 97.3399 113.003 97.2846 112.976H97.2569C96.8975 112.837 96.6211 112.671 96.317 112.588C96.0129 112.505 95.7365 112.45 95.4324 112.45C94.8242 112.422 94.1607 112.616 93.4695 112.809H93.4419C93.3313 112.837 93.2207 112.782 93.1931 112.671C93.1655 112.616 93.1655 112.533 93.1931 112.477Z" fill="#1B1B43"/>
<path opacity="0.4" d="M92.8054 120.861C94.0268 120.861 95.017 119.87 95.017 118.648C95.017 117.425 94.0268 116.434 92.8054 116.434C91.5839 116.434 90.5938 117.425 90.5938 118.648C90.5938 119.87 91.5839 120.861 92.8054 120.861Z" fill="#FE5B52"/>
<path d="M98.4732 123.158C97.1186 123.158 96.3445 122.466 96.3169 122.439C96.1787 122.3 96.1787 122.079 96.2892 121.94C96.4275 121.802 96.6486 121.802 96.7869 121.913C96.8421 121.968 97.8374 122.826 99.6619 122.273C99.8555 122.217 100.049 122.328 100.104 122.494C100.16 122.688 100.049 122.881 99.8831 122.937C99.3302 123.103 98.8879 123.158 98.4732 123.158Z" fill="#1B1B43"/>
<path d="M85.5345 118.98C85.3962 118.98 85.2857 118.897 85.2304 118.786C85.1751 118.648 83.7928 115.549 81.4983 116.49C81.3324 116.573 81.1112 116.49 81.056 116.296C80.973 116.13 81.0559 115.908 81.2495 115.853C83.5717 114.885 85.2857 117.181 85.8662 118.509C85.9491 118.675 85.8662 118.897 85.7003 118.952C85.6174 118.98 85.5621 118.98 85.5345 118.98Z" fill="#1B1B43"/>
<path d="M96.1781 150.357C95.3764 150.357 94.5471 150.164 93.7177 149.749C91.2573 148.531 87.8569 146.151 84.5948 143.855C82.6873 142.527 80.8903 141.254 79.4528 140.341C79.2869 140.23 79.2316 140.036 79.3422 139.87C79.4528 139.704 79.6463 139.649 79.8122 139.76C81.2774 140.673 83.0743 141.946 84.9818 143.274C88.2439 145.57 91.6167 147.922 94.0218 149.112C95.4317 149.804 96.814 149.832 98.058 149.195C100.712 147.839 102.454 143.744 103.034 140.286C103.062 140.092 103.228 139.953 103.421 140.009C103.615 140.036 103.725 140.23 103.698 140.396C103.089 144.021 101.21 148.31 98.3621 149.804C97.671 150.164 96.9522 150.357 96.1781 150.357Z" fill="#1B1B43"/>
<path d="M351.261 226.2C350.874 230.295 350.404 234.473 349.878 238.707C345.676 273.792 338.046 313.332 329.144 354.504C316.179 360.343 309.268 357.797 309.268 357.797C318.612 311.091 322.399 229.465 322.399 229.465L351.261 226.2Z" fill="#FFBC96"/>
<path d="M309.295 357.797C309.295 357.797 289.943 369.031 290.275 376.474H316.013L321.708 372.158L323.09 376.668H330.692C330.692 376.668 332.434 369.751 329.144 354.532C316.206 360.343 309.295 357.797 309.295 357.797Z" fill="#1B1B43"/>
<path d="M351.26 226.2C350.873 230.295 350.403 234.473 349.878 238.707C334.922 237.683 322.399 229.465 322.399 229.465L351.26 226.2Z" fill="#D28572"/>
<path d="M397.981 354.532L387.034 362.833L379.486 357.825C379.486 357.825 368.152 265.242 359.914 233.532C359.25 231.042 358.642 228.912 358.034 227.251L384.656 231.402C385.32 234.39 385.955 237.406 386.536 240.422C393.972 278.164 396.709 316.293 397.981 354.532Z" fill="#FFBC96"/>
<path d="M379.486 357.797C379.486 357.797 361.461 369.031 361.793 376.474H385.761L391.069 372.158L392.369 376.668H399.446C399.446 376.668 401.049 369.751 398.008 354.532C385.9 360.343 379.486 357.797 379.486 357.797Z" fill="#1B1B43"/>
<path d="M386.48 240.395C373.349 240.229 360.079 233.643 360.079 233.643L359.886 233.532C359.222 231.042 358.614 228.912 358.006 227.251L384.628 231.402C385.264 234.39 385.9 237.406 386.48 240.395Z" fill="#D28572"/>
<path d="M318.86 283.421C321.791 283.891 324.721 284.334 327.679 284.804C328.121 284.86 328.315 284.196 327.873 284.14C324.942 283.67 322.012 283.227 319.054 282.757C318.611 282.702 318.418 283.366 318.86 283.421Z" fill="#D28572"/>
<path d="M370.778 288.153C373.487 288.208 376.196 288.263 378.905 288.319C379.348 288.319 379.348 287.627 378.905 287.627C376.196 287.571 373.487 287.516 370.778 287.461C370.335 287.433 370.335 288.125 370.778 288.153Z" fill="#D28572"/>
<path d="M281.815 100.469C281.815 100.469 283.999 89.5669 300.89 85.4164L292.541 100.801L281.815 100.469Z" fill="#1B1B43"/>
<path d="M294.007 75.4277C293.759 77.5029 293.04 79.7441 291.879 79.7441C290.718 79.7441 290.358 77.8903 290.469 75.3447C290.635 71.1389 291.298 70.4195 292.459 70.4195C293.593 70.4195 294.533 71.3326 294.007 75.4277Z" fill="#FFBC96"/>
<path d="M281.871 65.3006L284.193 67.9845L307.995 77.5859C308.825 77.9179 309.792 77.5306 310.124 76.6728C310.456 75.8427 310.069 74.8743 309.212 74.5422L285.409 64.9408L281.871 65.3006Z" fill="#1B1B43"/>
<path d="M300.864 85.4441L297.408 93.413L287.622 98.8916C286.599 96.3183 285.88 93.7727 285.382 91.4484C283.972 85.1121 284.111 80.2699 284.111 80.2699L293.842 76.3408L294.063 71.2772C294.588 64.2768 297.408 67.0991 298.127 72.052C299.481 81.266 300.864 85.4441 300.864 85.4441Z" fill="#FFBC96"/>
<path d="M300.864 85.4441L297.408 93.413L287.622 98.8916C286.599 96.3183 285.88 93.7727 285.382 91.4484L300.864 85.4441Z" fill="#D28572"/>
<path d="M290.966 76.3408C290.662 78.416 289.86 80.6572 288.534 80.6572C287.234 80.6572 286.82 78.8034 286.93 76.2578C287.096 72.052 287.87 71.3325 289.197 71.3325C290.496 71.3325 291.547 72.2456 290.966 76.3408Z" fill="#FFBC96"/>
<path d="M287.843 78.333C287.511 80.4082 286.626 82.6495 285.189 82.6495C283.751 82.6495 283.309 80.7956 283.419 78.25C283.613 74.0442 284.47 73.3248 285.908 73.3248C287.345 73.3248 288.506 74.2379 287.843 78.333Z" fill="#FFBC96"/>
<path d="M290.968 80.8786C290.498 80.8232 289.972 80.2698 289.724 78.25C289.696 78.0563 289.806 77.8903 289.945 77.8349C290.111 77.8072 290.221 77.9179 290.249 78.1116C290.415 79.4674 290.719 80.2422 291.106 80.1592C291.963 79.9655 293.29 76.4791 293.041 73.6845C293.013 73.4908 293.124 73.3248 293.29 73.2971C293.456 73.2694 293.566 73.4078 293.594 73.5738C293.843 76.4791 292.516 80.5465 291.189 80.8232C291.106 80.8786 291.051 80.8786 290.968 80.8786Z" fill="#D28572"/>
<path d="M287.733 81.8747C287.567 81.847 287.18 81.764 286.848 81.349C286.24 80.5742 286.157 79.1077 286.599 77.0048C286.627 76.8111 286.82 76.7005 286.986 76.7281C287.152 76.7558 287.263 76.9495 287.235 77.1432C286.737 79.5781 287.097 80.5466 287.346 80.8786C287.567 81.183 287.816 81.183 287.816 81.183C288.23 81.183 288.562 81.017 288.838 80.7126C290.055 79.3291 289.889 75.5937 289.889 75.566C289.889 75.3723 290.027 75.2063 290.193 75.2063C290.359 75.2063 290.525 75.3447 290.525 75.5383C290.525 75.7044 290.718 79.6058 289.308 81.2106C288.894 81.681 288.396 81.9024 287.816 81.9024C287.788 81.8747 287.76 81.8747 287.733 81.8747Z" fill="#D28572"/>
<path d="M284.139 82.2898C284.083 82.2898 284.028 82.2898 284 82.2621C283.696 82.2068 283.447 82.0407 283.254 81.764C282.535 80.6573 282.978 78.001 283.033 77.7243C283.06 77.5306 283.254 77.4199 283.42 77.4476C283.586 77.4752 283.696 77.6689 283.669 77.8626C283.53 78.582 283.282 80.6573 283.779 81.3767C283.862 81.515 283.973 81.5704 284.083 81.598C285.079 81.764 285.77 81.1 286.35 79.4951C286.406 79.3291 286.599 79.2184 286.765 79.3014C286.931 79.3845 287.014 79.5781 286.958 79.7442C286.71 80.4359 285.963 82.4835 284.139 82.2898Z" fill="#D28572"/>
<path d="M389.466 116.573L366.133 93.0533L349.021 93.413L330.803 158.935L390.185 161.84C390.931 144.851 390.848 129.55 389.466 116.573Z" fill="white"/>
<path d="M330.803 158.907L326.214 175.343C326.214 196.095 322.399 229.299 322.399 229.299C346.257 237.96 384.601 231.374 384.601 231.374C387.089 206.333 389.245 182.786 390.157 161.813L330.803 158.907Z" fill="#FFB147"/>
<path d="M358.255 106.086C355.325 106.086 352.422 105.228 349.574 103.512C349.381 103.402 349.16 103.263 349.104 103.236C348.911 103.236 348.8 103.097 348.8 102.904C348.8 102.71 348.994 102.572 349.187 102.572C349.353 102.572 349.491 102.655 349.934 102.931C355.546 106.335 361.379 106.224 367.322 102.627C367.488 102.516 367.71 102.572 367.792 102.738C367.903 102.904 367.848 103.125 367.682 103.208C364.53 105.117 361.379 106.086 358.255 106.086Z" fill="#1B1B43"/>
<path d="M357.093 234.031C335.613 234.031 322.481 229.714 322.288 229.631C322.094 229.576 322.011 229.382 322.067 229.188C322.122 228.995 322.315 228.912 322.509 228.967C322.758 229.05 347.417 237.157 384.545 231.042C384.738 231.015 384.904 231.125 384.932 231.319C384.959 231.513 384.849 231.679 384.655 231.706C374.454 233.422 365.193 234.031 357.093 234.031Z" fill="#1B1B43"/>
<path d="M349.021 93.3853L339.594 93.4683C337.023 93.496 334.451 94.1047 332.157 95.2392L308.271 107.11L300.89 85.4441L281.815 100.496L293.26 124.237C295.168 128.166 299.01 130.767 303.378 131.072C305.562 131.21 307.719 130.767 309.681 129.771L327.789 120.557C327.789 120.557 329.005 160.512 320.187 183.865C320.187 183.865 338.515 189.399 351.287 183.699C351.26 183.672 359.913 117.956 349.021 93.3853Z" fill="#5254CF"/>
<path d="M414.899 168.453C412.466 144.934 404.615 121.276 400.827 110.928C399.555 107.442 397.371 104.343 394.496 101.963C391.981 99.8877 389.05 98.4212 385.871 97.6741L366.077 93.0256C363.368 120.197 366.519 151.907 370.39 184.17C370.39 184.17 400.108 182.786 409.618 176.893L414.899 168.453Z" fill="#5254CF"/>
<path d="M393.723 138.349C393.557 138.349 393.419 138.238 393.391 138.044L389.714 114.525C389.687 114.331 389.825 114.165 389.991 114.138C390.184 114.11 390.35 114.248 390.378 114.414L394.055 137.934C394.082 138.127 393.944 138.293 393.778 138.321C393.751 138.349 393.723 138.349 393.723 138.349Z" fill="#1B1B43"/>
<path d="M405.472 176.311L377.606 166.793L389.742 131.791L417.609 141.309L405.472 176.311Z" fill="white"/>
<path d="M405.693 176.754L377.163 167.014L377.274 166.682L389.52 131.348L418.05 141.088L417.94 141.42L405.693 176.754ZM378.048 166.572L405.278 175.869L417.193 141.503L389.963 132.206L378.048 166.572Z" fill="#1B1B43"/>
<path d="M408.928 148.835C408.9 148.835 408.845 148.835 408.817 148.808L394.414 144.076C394.22 144.021 394.137 143.827 394.193 143.634C394.248 143.44 394.441 143.357 394.635 143.412L409.038 148.144C409.232 148.199 409.315 148.393 409.259 148.586C409.204 148.752 409.066 148.835 408.928 148.835Z" fill="#1B1B43"/>
<path d="M404.588 152.183C404.56 152.183 404.505 152.183 404.477 152.156L395.023 149.167C394.829 149.112 394.746 148.918 394.801 148.725C394.857 148.531 395.05 148.448 395.244 148.503L404.698 151.492C404.892 151.547 404.975 151.741 404.92 151.934C404.892 152.1 404.754 152.183 404.588 152.183Z" fill="#1B1B43"/>
<path d="M409.872 135.915L401.478 133.036L399.892 137.669L408.287 140.548L409.872 135.915Z" fill="#1B1B43"/>
<path d="M319.662 124.873C319.551 124.873 319.413 124.818 319.357 124.707C319.275 124.541 319.33 124.32 319.496 124.237L335.392 115.41C335.557 115.327 335.779 115.383 335.862 115.549C335.944 115.715 335.889 115.936 335.723 116.019L319.827 124.846C319.772 124.846 319.717 124.873 319.662 124.873Z" fill="#1B1B43"/>
<path d="M415.95 176.173C415.95 176.173 420.096 165.437 405.362 157.385C405.362 157.385 401.795 156.002 404.449 161.425C404.449 161.425 398.81 154.978 400.192 162.477C400.192 162.477 395.686 157.966 398.008 166.516C398.008 166.516 393.502 164.081 396.266 174.236C399.003 184.363 410.061 188.375 415.95 176.173Z" fill="#FFBC96"/>
<path d="M409.619 168.094C409.509 168.094 409.398 168.038 409.343 167.928C407.546 165.216 404.228 161.674 404.201 161.619C404.063 161.481 404.09 161.259 404.228 161.121C404.367 160.982 404.588 161.01 404.726 161.148C404.754 161.176 408.099 164.773 409.951 167.54C410.062 167.706 410.006 167.928 409.868 168.011C409.73 168.066 409.674 168.094 409.619 168.094Z" fill="#D28572"/>
<path d="M404.421 169.477C404.283 169.477 404.145 169.394 404.09 169.256C402.735 165.797 400.026 162.836 399.998 162.781C399.86 162.643 399.888 162.421 400.026 162.283C400.164 162.145 400.385 162.172 400.523 162.311C400.634 162.449 403.343 165.41 404.725 168.979C404.808 169.145 404.698 169.366 404.532 169.422C404.504 169.477 404.477 169.477 404.421 169.477Z" fill="#D28572"/>
<path d="M400.053 171.663C399.86 171.663 399.722 171.525 399.722 171.331C399.611 169.588 397.731 166.682 397.704 166.655C397.593 166.489 397.648 166.267 397.814 166.184C397.98 166.074 398.173 166.129 398.284 166.295C398.367 166.433 400.302 169.394 400.413 171.303C400.413 171.497 400.247 171.663 400.053 171.663Z" fill="#D28572"/>
<path d="M373.321 140.202C373.155 140.202 372.989 140.064 372.989 139.898C372.768 137.934 372.519 135.831 372.243 133.672C371.331 126.257 370.391 118.592 370.667 112.975L370.695 112.892L373.515 104.287L368.179 95.4329C368.069 95.2669 368.124 95.0455 368.29 94.9625C368.456 94.8518 368.677 94.9072 368.76 95.0732L374.261 104.204L371.358 113.086C371.082 118.648 372.022 126.257 372.934 133.617C373.211 135.775 373.459 137.878 373.68 139.843C373.708 140.036 373.57 140.202 373.376 140.23C373.349 140.202 373.349 140.202 373.321 140.202Z" fill="#1B1B43"/>
<path d="M347.057 140.535C347.03 140.535 347.002 140.535 346.974 140.535C346.781 140.507 346.67 140.313 346.698 140.119C348.633 131.293 348.965 122.328 347.638 114.829L342.164 106.086L347.555 95.1839C347.638 95.0178 347.859 94.9348 348.025 95.0178C348.191 95.1008 348.274 95.3222 348.191 95.4882L342.966 106.03L348.329 114.636C349.684 122.217 349.352 131.321 347.417 140.258C347.361 140.424 347.223 140.535 347.057 140.535Z" fill="#1B1B43"/>
<path d="M366.133 93.0533C363.009 99.279 355.075 102.046 349.021 93.413C349.463 91.7251 349.961 90.0096 350.486 88.2387C351.426 84.863 352.338 81.349 352.394 77.6412C352.421 77.0048 352.394 76.3408 352.366 75.7044L365.276 76.9218L366.133 93.0533Z" fill="#FFBC96"/>
<path d="M362.373 79.0247C362.373 79.0247 359.387 85.6931 350.485 88.2111C351.425 84.8354 352.338 81.3213 352.393 77.6136L362.373 79.0247Z" fill="#D28572"/>
<path d="M369.063 63.5297L364.695 78.0563C364.695 78.0563 357.314 84.8907 350.071 81.4043C348.108 80.4636 347.334 77.6412 347.168 74.3485C347.113 73.4354 347.113 72.4947 347.168 71.5262C347.39 65.8263 348.799 59.8496 348.799 59.8496L359.609 54.4263L369.063 63.5297Z" fill="#FFBC96"/>
<path d="M368.04 72.1626C368.04 72.1626 357.093 65.6049 356.07 59.1302C356.07 59.1302 353.748 59.6836 348.44 61.6481C348.44 61.6481 349.214 52.0191 359.857 50.9123C369.754 49.9162 381.67 57.9127 384.296 79.3568L365.856 89.2072L364.944 73.0757L368.04 72.1626Z" fill="#1B1B43"/>
<path d="M368.365 73.7719C369.497 71.1483 368.824 68.3337 366.861 67.4855C364.899 66.6372 362.39 68.0764 361.258 70.7C360.126 73.3236 360.799 76.1381 362.762 76.9864C364.724 77.8347 367.233 76.3955 368.365 73.7719Z" fill="#FFBC96"/>
<path d="M363.257 72.9927C363.202 72.9927 363.147 72.9651 363.091 72.9374C362.926 72.8267 362.87 72.633 362.981 72.467C363.009 72.4393 364.695 69.7 367.376 70.4471C367.57 70.5025 367.653 70.6961 367.625 70.8622C367.57 71.0559 367.377 71.1665 367.211 71.1112C365.027 70.5025 363.589 72.7991 363.589 72.8267C363.506 72.9374 363.396 72.9927 363.257 72.9927Z" fill="#1B1B43"/>
<path d="M349.988 68.7869C349.988 69.285 349.573 69.7 349.076 69.7C348.578 69.7 348.164 69.285 348.164 68.7869C348.164 68.2889 348.578 67.8738 349.076 67.8738C349.573 67.8738 349.988 68.2889 349.988 68.7869Z" fill="#1B1B43"/>
<path d="M356.623 68.953C356.623 69.451 356.208 69.866 355.711 69.866C355.213 69.866 354.798 69.451 354.798 68.953C354.798 68.4549 355.213 68.0399 355.711 68.0399C356.208 68.0399 356.623 68.4272 356.623 68.953Z" fill="#1B1B43"/>
<path d="M352.089 74.7636H352.062C352.006 74.7636 350.873 74.6529 350.182 74.0995C349.85 73.8228 349.684 73.4631 349.684 73.0204C349.712 71.9966 350.707 70.7515 351.647 70.0597C351.785 69.9491 352.006 69.9767 352.144 70.1151C352.255 70.2811 352.227 70.4748 352.089 70.6131C351.149 71.3325 350.43 72.3563 350.403 73.0204C350.403 73.2418 350.458 73.4354 350.624 73.5738C351.149 73.9888 352.117 74.0995 352.117 74.0995C352.31 74.1272 352.449 74.2932 352.421 74.4869C352.421 74.6252 352.283 74.7636 352.089 74.7636Z" fill="#D28572"/>
<path d="M351.84 77.6136C351.674 77.6136 351.508 77.4752 351.508 77.3092C351.481 77.1155 351.619 76.9495 351.812 76.9218C351.84 76.9218 353.775 76.6728 354.992 75.2063C355.102 75.068 355.323 75.0403 355.489 75.151C355.628 75.2616 355.655 75.483 355.545 75.649C354.135 77.3645 352.006 77.6136 351.923 77.6136C351.868 77.6136 351.868 77.6136 351.84 77.6136Z" fill="#1B1B43"/>
<path d="M347.499 66.269C347.721 65.937 348.025 65.6879 348.356 65.5496C348.716 65.3836 349.103 65.3282 349.49 65.3559C349.877 65.3836 350.264 65.4943 350.568 65.7156C350.9 65.9093 351.149 66.1583 351.342 66.4904C351.397 66.601 351.37 66.7117 351.259 66.7947C351.204 66.8224 351.149 66.8224 351.093 66.8224H351.066C350.734 66.7394 350.457 66.6287 350.181 66.5734C349.905 66.4904 349.656 66.4627 349.379 66.4073C349.131 66.3797 348.854 66.3797 348.578 66.435C348.301 66.4627 348.025 66.5457 347.721 66.6287H347.665C347.555 66.6564 347.444 66.601 347.417 66.4904C347.472 66.352 347.472 66.2967 347.499 66.269Z" fill="#1B1B43"/>
<path d="M358.088 66.9607C357.397 66.7117 356.761 66.4627 356.153 66.435C355.849 66.4073 355.545 66.435 355.24 66.4904C354.936 66.5457 354.632 66.684 354.245 66.7947H354.218C354.107 66.8224 353.996 66.767 353.941 66.6564C353.913 66.601 353.941 66.518 353.969 66.4904C354.19 66.1306 354.494 65.8263 354.909 65.6326C355.296 65.4389 355.766 65.3559 356.208 65.3836C356.65 65.4389 357.065 65.5773 357.424 65.7986C357.784 66.02 358.088 66.2967 358.309 66.6564C358.364 66.767 358.337 66.8777 358.254 66.9331C358.254 66.9884 358.171 66.9884 358.088 66.9607Z" fill="#1B1B43"/>
<path opacity="0.4" d="M359.858 72.3563C359.858 73.1311 359.222 73.7675 358.42 73.7675C357.646 73.7675 356.982 73.1311 356.982 72.3563C356.982 71.5816 357.618 70.9452 358.42 70.9452C359.222 70.9175 359.858 71.5539 359.858 72.3563Z" fill="#FE5B52"/>
<path opacity="0.4" d="M348.578 72.9097C348.578 73.6845 347.943 74.3209 347.168 74.3209C347.113 73.4078 347.113 72.467 347.168 71.4986C347.943 71.5262 348.578 72.135 348.578 72.9097Z" fill="#FE5B52"/>
<path d="M356.015 57.0273C356.042 58.3001 356.153 59.5729 356.346 60.8457C356.567 62.0909 356.789 63.336 357.286 64.4981C357.756 65.6603 358.392 66.7394 359.387 67.4311C360.355 68.1782 361.627 68.3719 362.871 68.2889C362.953 68.2889 363.009 68.3442 363.009 68.4272C363.009 68.4826 362.953 68.5656 362.898 68.5656C362.262 68.7039 361.599 68.7316 360.908 68.6486C360.244 68.5379 359.581 68.2889 359 67.9292C357.839 67.1821 357.093 65.9646 356.595 64.7472C356.125 63.502 355.849 62.2015 355.71 60.9287C355.572 59.6283 355.572 58.3278 355.683 57.0273C355.683 56.9443 355.766 56.889 355.821 56.9166C355.959 56.9166 356.015 56.972 356.015 57.0273Z" fill="#1B1B43"/>
<path d="M364.668 51.2167C367.737 51.8254 370.585 53.2366 373.156 54.9521C375.754 56.6953 378.021 58.8535 380.039 61.2331L381.477 63.087C381.947 63.6957 382.334 64.3874 382.776 65.0238C383.661 66.2967 384.352 67.6801 385.098 69.0636C385.485 69.7277 385.762 70.4748 386.066 71.1665L386.978 73.2971C387.503 74.7636 387.973 76.2301 388.443 77.6966C388.471 77.7796 388.416 77.8349 388.36 77.8626C388.305 77.8903 388.222 77.8626 388.195 77.7796C387.642 76.3408 387.089 74.9019 386.536 73.4908L385.568 71.4156C385.237 70.7238 384.96 70.0044 384.545 69.3403C383.771 68.0122 383.108 66.6287 382.223 65.3836C381.781 64.7472 381.394 64.0831 380.924 63.502L379.514 61.7035C377.551 59.3516 375.34 57.2487 372.851 55.4778C372.216 55.0351 371.607 54.5924 370.944 54.2327C370.612 54.039 370.28 53.8453 369.949 53.6516L368.926 53.1259C367.571 52.4618 366.134 51.8531 364.641 51.521C364.558 51.4934 364.53 51.438 364.53 51.355C364.53 51.272 364.613 51.2167 364.668 51.2167Z" fill="#1B1B43"/>
<path d="M146.601 204.742H172.864V198.848H146.601V204.742Z" fill="#1B1B43"/>
<path d="M211.984 170.169L208.003 179.992L198.77 202.708C198.244 203.981 197.111 204.811 195.895 204.811H158.905L172.645 170.916C174.11 167.347 177.262 165.05 180.745 165.05H209.081C211.404 165.05 212.924 167.762 211.984 170.169Z" fill="#CBCBFF"/>
<path opacity="0.1" d="M207.975 179.964L198.769 202.708C198.244 203.981 197.111 204.811 195.894 204.811H171.732C189.895 198.752 201.175 188.708 207.975 179.964Z" fill="#1B1B43"/>
<path d="M310.4 198.89H284.137V204.784H310.4V198.89Z" fill="#1B1B43"/>
<path d="M298.071 204.811H261.109C259.865 204.811 258.732 203.981 258.206 202.708L249.774 181.928L245.019 170.169C244.052 167.762 245.6 165.05 247.922 165.05H276.259C279.714 165.05 282.893 167.347 284.331 170.916L298.071 204.811Z" fill="#CBCBFF"/>
<path opacity="0.1" d="M279.991 204.811H261.109C259.865 204.811 258.731 203.981 258.206 202.708L249.774 181.928C256.326 189.593 267.053 200.08 279.991 204.811Z" fill="#1B1B43"/>
<path d="M129.325 209.487H121.418V376.64H129.325V209.487Z" fill="white"/>
<path d="M129.684 377H121.086V209.155H129.684V377ZM121.777 376.308H128.992V209.847H121.777V376.308Z" fill="#1B1B43"/>
<path d="M309.489 209.487H301.583V376.64H309.489V209.487Z" fill="white"/>
<path d="M309.848 377H301.25V209.155H309.848V377ZM301.914 376.308H309.129V209.847H301.914V376.308Z" fill="#1B1B43"/>
<path d="M356.982 204.701H73.9507V211.286H356.982V204.701Z" fill="white"/>
<path d="M357.314 211.618H73.6187V204.341H357.341V211.618H357.314ZM74.3098 210.926H356.623V205.033H74.3098V210.926Z" fill="#1B1B43"/>
<path d="M460.293 376.308H0V377H460.293V376.308Z" fill="#1B1B43"/>
</g>
<defs>
<clipPath id="clip0">
<rect width="475" height="377" fill="white"/>
</clipPath>
</defs>
</svg>
