<svg xmlns="http://www.w3.org/2000/svg" xmlns:xlink="http://www.w3.org/1999/xlink" width="767" height="527" fill="none" xmlns:v="https://vecta.io/nano"><style><![CDATA[.B{fill:#ea227a}.C{fill:#fff}.D{stroke-miterlimit:10}.E{stroke:#ea227a}]]></style><path d="M675.968-41.49h-1.281c6.022 70.504 37.416 135.963 90.081 186.534 55.355 53.155 128.01 83.793 205.789 87.238v-1.231c-155.687-6.89-281.775-124.52-294.589-272.541zM268.362 588.124c19.477-84.531 98.154-147.898 191.95-147.898s172.474 63.367 191.951 147.898h1.281c-19.477-85.269-98.794-149.129-193.232-149.129-94.565 0-173.754 63.983-193.231 149.129h1.281z" class="B"/><path d="M824.081 301.869c12.294-17.12 7.807-40.568-10.022-52.373s-42.248-7.497-54.541 9.623-7.807 40.568 10.022 52.373 42.248 7.497 54.541-9.623z" class="D E"/><g class="B"><path d="M2.017 48.831c.849 0 1.538-.661 1.538-1.477s-.688-1.477-1.538-1.477S.48 46.539.48 47.354s.688 1.477 1.538 1.477z"/><use xlink:href="#B"/><use xlink:href="#C"/><use xlink:href="#D"/></g><use xlink:href="#E" class="C"/><g class="B"><use xlink:href="#C" x="49.462"/><use xlink:href="#F"/></g><path d="M3.555 64.826c0 .861-.641 1.477-1.538 1.477S.48 65.687.48 64.826s.641-1.476 1.538-1.476 1.538.615 1.538 1.476z" class="C"/><g class="B"><use xlink:href="#B" y="17.472"/><use xlink:href="#C" y="17.472"/><use xlink:href="#C" x="16.53" y="17.472"/><use xlink:href="#C" x="32.932" y="17.472"/><use xlink:href="#C" x="49.462" y="17.472"/><path d="M102.349 64.826c0 .861-.641 1.477-1.538 1.477s-1.537-.615-1.537-1.477.641-1.476 1.537-1.476 1.538.615 1.538 1.476zM2.017 83.774c.849 0 1.538-.661 1.538-1.477s-.688-1.477-1.538-1.477S.48 81.482.48 82.298s.688 1.477 1.538 1.477zm18.068-1.476c0 .861-.641 1.477-1.538 1.477s-1.538-.615-1.538-1.477.641-1.477 1.538-1.477c.769 0 1.538.615 1.538 1.477z"/></g><use xlink:href="#G" class="C"/><g class="B"><path d="M51.478 83.774c.849 0 1.538-.661 1.538-1.477s-.689-1.477-1.538-1.477-1.538.661-1.538 1.477.688 1.477 1.538 1.477zm16.402 0c.849 0 1.538-.661 1.538-1.477s-.688-1.477-1.538-1.477-1.538.661-1.538 1.477.689 1.477 1.538 1.477z"/><use xlink:href="#G" x="49.462"/><path d="M100.811 83.774c.85 0 1.538-.661 1.538-1.477s-.688-1.477-1.538-1.477-1.537.661-1.537 1.477.688 1.477 1.537 1.477zM3.555 99.77c0 .861-.641 1.476-1.538 1.476S.48 100.631.48 99.77s.641-1.477 1.538-1.477 1.538.738 1.538 1.477zm16.53 0c0 .861-.641 1.476-1.538 1.476s-1.538-.615-1.538-1.476.641-1.477 1.538-1.477c.769 0 1.538.738 1.538 1.477z"/><use xlink:href="#H"/><use xlink:href="#H" x="16.53"/></g><use xlink:href="#H" x="32.932" class="C"/><g class="B"><use xlink:href="#H" x="49.462"/><path d="M102.349 99.77c0 .861-.641 1.476-1.538 1.476s-1.537-.615-1.537-1.476.641-1.477 1.537-1.477 1.538.738 1.538 1.477zM2.017 118.719c.849 0 1.538-.661 1.538-1.477s-.688-1.476-1.538-1.476-1.538.661-1.538 1.476.688 1.477 1.538 1.477zm18.068-1.477c0 .861-.641 1.477-1.538 1.477s-1.538-.616-1.538-1.477.641-1.476 1.538-1.476c.769 0 1.538.738 1.538 1.476z"/><use xlink:href="#I"/><use xlink:href="#D" y="69.889"/><use xlink:href="#E" y="69.889"/><use xlink:href="#I" x="49.462"/><use xlink:href="#F" y="69.889"/><use xlink:href="#J"/><use xlink:href="#K"/><use xlink:href="#L"/></g><use xlink:href="#M" class="C"/><g class="B"><use xlink:href="#N"/><use xlink:href="#L" x="49.462"/><use xlink:href="#O"/><path d="M3.555 152.31c0 .861-.641 1.476-1.538 1.476S.48 153.171.48 152.31s.641-1.477 1.538-1.477 1.538.615 1.538 1.477z"/><use xlink:href="#K" y="17.472"/><use xlink:href="#L" y="17.472"/><use xlink:href="#L" x="16.53" y="17.472"/><use xlink:href="#L" x="32.932" y="17.472"/></g><use xlink:href="#L" x="49.462" y="17.472" class="C"/><g class="B"><path d="M102.349 152.31c0 .861-.641 1.476-1.538 1.476s-1.537-.615-1.537-1.476.641-1.477 1.537-1.477 1.538.615 1.538 1.477z"/><use xlink:href="#J" y="34.944"/></g><use xlink:href="#K" y="34.944" class="C"/><g class="B"><use xlink:href="#L" y="34.944"/><use xlink:href="#M" y="34.944"/><use xlink:href="#N" y="34.944"/><use xlink:href="#L" x="49.462" y="34.944"/><use xlink:href="#O" y="34.944"/><use xlink:href="#P"/><use xlink:href="#P" x="16.529"/><use xlink:href="#Q"/></g><use xlink:href="#R" class="C"/><g class="B"><use xlink:href="#R" x="16.53"/><use xlink:href="#S"/><use xlink:href="#T"/><use xlink:href="#T" x="16.53"/></g><path d="M768.74 431.859c0 .861-.64 1.476-1.537 1.476s-1.538-.615-1.538-1.476.641-1.477 1.538-1.477 1.537.739 1.537 1.477z" class="C"/><g class="B"><use xlink:href="#P" x="-0.001" y="52.54"/><use xlink:href="#P" x="16.529" y="52.54"/><path d="M768.74 449.454c0 .861-.64 1.477-1.537 1.477s-1.538-.616-1.538-1.477.641-1.476 1.538-1.476c.897-.123 1.537.615 1.537 1.476z"/><use xlink:href="#U"/><use xlink:href="#U" x="16.53"/><use xlink:href="#Q" y="70.012"/><use xlink:href="#R" y="70.012"/><use xlink:href="#R" x="16.53" y="70.012"/><use xlink:href="#S" y="70.012"/><use xlink:href="#R" y="87.484"/><use xlink:href="#R" x="16.53" y="87.484"/><use xlink:href="#S" y="87.484"/><use xlink:href="#H" x="699.323" y="419.573"/></g><use xlink:href="#H" x="715.853" y="419.573" class="C"/><path d="M768.74 519.343c0 .861-.64 1.476-1.537 1.476s-1.538-.615-1.538-1.476.641-1.477 1.538-1.477 1.537.738 1.537 1.477z" class="B"/><path d="M723.636 166.084c3.255 0 5.894-2.534 5.894-5.66s-2.639-5.66-5.894-5.66-5.895 2.534-5.895 5.66 2.639 5.66 5.895 5.66z" class="C"/><path d="M37.842 17.079c1.628 0 2.947-1.267 2.947-2.83s-1.319-2.83-2.947-2.83-2.947 1.267-2.947 2.83 1.319 2.83 2.947 2.83z" class="B"/><path d="M548.856 111.453c1.627 0 2.947-1.267 2.947-2.83s-1.32-2.83-2.947-2.83-2.947 1.267-2.947 2.83 1.319 2.83 2.947 2.83z" class="C"/><path d="M304.113 342.775c1.627 0 2.947-1.267 2.947-2.83s-1.32-2.83-2.947-2.83-2.948 1.267-2.948 2.83 1.32 2.83 2.948 2.83z" class="B"/><path d="M355.239 505.931c0 2.092-1.793 3.814-3.972 3.814s-3.972-1.722-3.972-3.814 1.794-3.814 3.972-3.814 3.972 1.722 3.972 3.814z" class="C"/><g class="B"><path d="M652.007-.394h-5.382v17.472h5.382V-.394z"/><path d="M658.453 10.857V5.689h-18.195v5.168h18.195z"/></g><g class="C"><path d="M686.476 504.208h-3.46v11.321h3.46v-11.321z"/><path d="M690.624 511.461v-3.322h-11.789v3.322h11.789zm-544.377-10.206h-6.279v20.549h6.279v-20.549z"/><path d="M153.79 514.523v-6.029h-21.399v6.029h21.399z"/></g><path d="M355.239-.394l-48.436 46.387m389.411 353.382l-49.589 47.495" class="D E"/><path d="M296.552 443.179l-48.179 46.141M678.916 65.804l-48.18 46.141" stroke="#fff" class="D"/><path d="M146.247 456.96c50.741 0 91.875-39.499 91.875-88.223s-41.134-88.222-91.875-88.222-91.875 39.499-91.875 88.222 41.134 88.223 91.875 88.223z" class="D E"/><defs ><path id="B" d="M20.085 47.354c0 .861-.641 1.477-1.538 1.477s-1.538-.615-1.538-1.477.641-1.476 1.538-1.476c.769 0 1.538.615 1.538 1.476z"/><path id="C" d="M36.486 47.354c0 .861-.641 1.477-1.538 1.477s-1.538-.615-1.538-1.477.641-1.476 1.538-1.476 1.538.615 1.538 1.476z"/><path id="D" d="M51.478 48.83c.849 0 1.538-.661 1.538-1.477s-.689-1.476-1.538-1.476-1.538.661-1.538 1.476.688 1.477 1.538 1.477z"/><path id="E" d="M67.88 48.83c.849 0 1.538-.661 1.538-1.477s-.688-1.476-1.538-1.476-1.538.661-1.538 1.476.689 1.477 1.538 1.477z"/><path id="F" d="M100.811 48.83c.85 0 1.538-.661 1.538-1.477s-.688-1.476-1.538-1.476-1.537.661-1.537 1.476.688 1.477 1.537 1.477z"/><path id="G" d="M36.486 82.298c0 .861-.641 1.477-1.538 1.477s-1.538-.615-1.538-1.477.641-1.477 1.538-1.477 1.538.615 1.538 1.477z"/><path id="H" d="M36.486 99.77c0 .861-.641 1.476-1.538 1.476s-1.538-.615-1.538-1.476.641-1.477 1.538-1.477 1.538.738 1.538 1.477z"/><path id="I" d="M36.486 117.242c0 .861-.641 1.477-1.538 1.477s-1.538-.616-1.538-1.477.641-1.476 1.538-1.476 1.538.738 1.538 1.476z"/><path id="J" d="M2.017 136.314c.849 0 1.538-.661 1.538-1.476s-.688-1.477-1.538-1.477-1.538.661-1.538 1.477.688 1.476 1.538 1.476z"/><path id="K" d="M20.085 134.838c0 .861-.641 1.476-1.538 1.476s-1.538-.615-1.538-1.476.641-1.477 1.538-1.477c.769 0 1.538.615 1.538 1.477z"/><path id="L" d="M36.486 134.838c0 .861-.641 1.476-1.538 1.476s-1.538-.615-1.538-1.476.641-1.477 1.538-1.477 1.538.615 1.538 1.477z"/><path id="M" d="M51.478 136.314c.849 0 1.538-.661 1.538-1.476s-.689-1.477-1.538-1.477-1.538.661-1.538 1.477.688 1.476 1.538 1.476z"/><path id="N" d="M67.88 136.314c.849 0 1.538-.661 1.538-1.476s-.688-1.477-1.538-1.477-1.538.661-1.538 1.477.689 1.476 1.538 1.476z"/><path id="O" d="M100.811 136.314c.85 0 1.538-.661 1.538-1.476s-.688-1.477-1.538-1.477-1.537.661-1.537 1.477.688 1.476 1.537 1.476z"/><path id="P" d="M734.272 398.391c.849 0 1.538-.661 1.538-1.477s-.689-1.476-1.538-1.476-1.538.661-1.538 1.476.689 1.477 1.538 1.477z"/><path id="Q" d="M768.74 396.914c0 .862-.64 1.477-1.537 1.477s-1.538-.615-1.538-1.477.641-1.476 1.538-1.476 1.537.615 1.537 1.476z"/><path id="R" d="M734.271 415.863c.849 0 1.538-.661 1.538-1.476s-.689-1.477-1.538-1.477-1.538.661-1.538 1.477.689 1.476 1.538 1.476z"/><path id="S" d="M768.74 414.387c0 .861-.64 1.476-1.537 1.476s-1.538-.615-1.538-1.476.641-1.477 1.538-1.477 1.537.615 1.537 1.477z"/><path id="T" d="M735.809 431.859c0 .861-.641 1.476-1.538 1.476s-1.538-.615-1.538-1.476.641-1.477 1.538-1.477 1.538.739 1.538 1.477z"/><path id="U" d="M735.809 466.926c0 .862-.641 1.477-1.538 1.477s-1.538-.615-1.538-1.477.641-1.476 1.538-1.476 1.538.615 1.538 1.476z"/></defs></svg>