<svg xmlns="http://www.w3.org/2000/svg" xmlns:xlink="http://www.w3.org/1999/xlink" width="1597" height="853" fill="none" xmlns:v="https://vecta.io/nano"><style><![CDATA[.B{fill:#ea227a}.C{fill:#fff}.D{stroke-miterlimit:10}.E{stroke:#ea227a}]]></style><path d="M1409.55-69.846h-2.67c12.56 147.041 78.03 283.561 187.87 389.031 115.45 110.858 266.97 174.756 429.19 181.941v-2.566c-324.7-14.371-587.67-259.696-614.39-568.406z" class="B"/><path d="M1718.45 646.254c25.64-35.705 16.28-84.608-20.9-109.228s-88.11-15.634-113.75 20.071-16.28 84.608 20.9 109.228 88.11 15.634 113.75-20.071z" class="D E"/><g class="B"><use xlink:href="#B"/><use xlink:href="#C"/><use xlink:href="#D"/><use xlink:href="#B" x="103.155"/></g><path d="M141.337 118.523c1.771 0 3.206-1.378 3.206-3.079s-1.435-3.08-3.206-3.08-3.207 1.379-3.207 3.08 1.435 3.079 3.207 3.079z" class="C"/><g class="B"><use xlink:href="#D" x="103.156"/><path d="M210.017 118.523c1.772 0 3.207-1.378 3.207-3.079s-1.435-3.08-3.207-3.08-3.206 1.379-3.206 3.08 1.435 3.079 3.206 3.079z"/></g><use xlink:href="#E" class="C"/><g class="B"><use xlink:href="#F"/><use xlink:href="#E" x="68.68"/><path d="M110.337 151.883c0 1.797-1.337 3.08-3.207 3.08s-3.207-1.283-3.207-3.08 1.336-3.079 3.207-3.079 3.207 1.283 3.207 3.079zm34.206 0c0 1.797-1.336 3.08-3.206 3.08s-3.207-1.283-3.207-3.08 1.336-3.079 3.207-3.079 3.206 1.283 3.206 3.079z"/><use xlink:href="#E" x="171.836"/><path d="M213.224 151.883c0 1.797-1.336 3.08-3.207 3.08s-3.206-1.283-3.206-3.08 1.336-3.079 3.206-3.079 3.207 1.283 3.207 3.079z"/><use xlink:href="#G"/><path d="M41.656 188.323c0 1.796-1.336 3.079-3.207 3.079s-3.207-1.283-3.207-3.079 1.336-3.079 3.207-3.079c1.604 0 3.207 1.283 3.207 3.079z"/></g><use xlink:href="#H" class="C"/><g class="B"><use xlink:href="#G" x="103.155"/><use xlink:href="#I"/><use xlink:href="#H" x="103.156"/><use xlink:href="#J"/><use xlink:href="#K"/><path d="M41.656 224.763c0 1.796-1.336 3.079-3.207 3.079s-3.207-1.283-3.207-3.079 1.336-3.08 3.207-3.08c1.604 0 3.207 1.54 3.207 3.08z"/><use xlink:href="#K" x="68.68"/><path d="M110.337 224.763c0 1.796-1.337 3.079-3.207 3.079s-3.207-1.283-3.207-3.079 1.336-3.08 3.207-3.08 3.207 1.54 3.207 3.08z"/></g><path d="M144.543 224.763c0 1.796-1.336 3.079-3.206 3.079s-3.207-1.283-3.207-3.079 1.336-3.08 3.207-3.08 3.206 1.54 3.206 3.08z" class="C"/><g class="B"><use xlink:href="#K" x="171.836"/><path d="M213.224 224.763c0 1.796-1.336 3.079-3.207 3.079s-3.206-1.283-3.206-3.079 1.336-3.08 3.206-3.08 3.207 1.54 3.207 3.08z"/><use xlink:href="#G" y="72.879"/><path d="M41.656 261.202c0 1.796-1.336 3.079-3.207 3.079s-3.207-1.283-3.207-3.079 1.336-3.079 3.207-3.079c1.604 0 3.207 1.539 3.207 3.079z"/><use xlink:href="#L"/><use xlink:href="#G" x="103.155" y="72.879"/><use xlink:href="#I" y="72.879"/><use xlink:href="#L" x="103.156"/><use xlink:href="#J" y="72.879"/><use xlink:href="#M"/><use xlink:href="#F" y="146.015"/><use xlink:href="#E" x="68.68" y="146.015"/></g><use xlink:href="#M" x="103.155" class="C"/><g class="B"><use xlink:href="#N"/><use xlink:href="#E" x="171.836" y="146.015"/><use xlink:href="#O"/><use xlink:href="#D" x="-68.68" y="218.894"/><use xlink:href="#C" y="218.894"/><use xlink:href="#D" y="218.894"/><path d="M110.337 334.338c0 1.796-1.337 3.079-3.207 3.079s-3.207-1.283-3.207-3.079 1.336-3.08 3.207-3.08 3.207 1.284 3.207 3.08zm34.206 0c0 1.796-1.336 3.079-3.206 3.079s-3.207-1.283-3.207-3.079 1.336-3.08 3.207-3.08 3.206 1.284 3.206 3.08z"/></g><use xlink:href="#D" x="103.156" y="218.894" class="C"/><g class="B"><path d="M213.224 334.338c0 1.796-1.336 3.079-3.207 3.079s-3.206-1.283-3.206-3.079 1.336-3.08 3.206-3.08 3.207 1.284 3.207 3.08z"/><use xlink:href="#M" y="72.879"/></g><use xlink:href="#F" y="218.894" class="C"/><g class="B"><use xlink:href="#E" x="68.68" y="218.894"/><use xlink:href="#M" x="103.155" y="72.879"/><use xlink:href="#N" y="72.879"/><use xlink:href="#E" x="171.836" y="218.894"/><use xlink:href="#O" y="72.879"/><path d="M1531.15 847.559c1.77 0 3.2-1.379 3.2-3.08s-1.43-3.079-3.2-3.079c-1.78 0-3.21 1.378-3.21 3.079s1.43 3.08 3.21 3.08zm34.47 0c1.77 0 3.21-1.379 3.21-3.08s-1.44-3.079-3.21-3.079-3.21 1.378-3.21 3.079 1.44 3.08 3.21 3.08zm37.41-3.08c0 1.797-1.33 3.08-3.2 3.08s-3.21-1.283-3.21-3.08 1.34-3.079 3.21-3.079 3.2 1.283 3.2 3.079z"/></g><path d="M355.216 13.857c3.985 0 7.215-3.102 7.215-6.929S359.201 0 355.216 0 348 3.102 348 6.929s3.23 6.929 7.216 6.929zM1508.96 363.066c6.79 0 12.3-5.285 12.3-11.804s-5.51-11.805-12.3-11.805-12.29 5.286-12.29 11.805 5.5 11.804 12.29 11.804z" class="C"/><path d="M78.69 52.303c3.395 0 6.147-2.643 6.147-5.902s-2.752-5.902-6.147-5.902-6.147 2.642-6.147 5.902 2.752 5.902 6.147 5.902z" class="B"/><path d="M1144.45 249.128c3.39 0 6.14-2.642 6.14-5.902s-2.75-5.902-6.14-5.902c-3.4 0-6.15 2.643-6.15 5.902s2.75 5.902 6.15 5.902z" class="C"/><g class="B"><path d="M634.017 731.568c3.395 0 6.147-2.643 6.147-5.902s-2.752-5.903-6.147-5.903-6.146 2.643-6.146 5.903 2.752 5.902 6.146 5.902zM1359.58 15.864h-11.23v36.44h11.23v-36.44z"/><path d="M1373.02 39.328V28.55h-37.95v10.778h37.95z"/></g><path d="M740.646 15.864l-101.017 96.744m812.141 737.004l-103.42 99.054" class="D E"/><path d="M1415.7 153.924l-100.49 96.231" stroke="#fff" class="D"/><path d="M304.776 969.708c105.825 0 191.612-82.377 191.612-183.994S410.601 601.72 304.776 601.72s-191.611 82.377-191.611 183.994 85.787 183.994 191.611 183.994z" class="D E"/><defs ><path id="B" d="M3.975 118.523c1.771 0 3.207-1.378 3.207-3.079s-1.436-3.08-3.207-3.08-3.207 1.379-3.207 3.08 1.436 3.079 3.207 3.079z"/><path id="C" d="M41.656 115.444c0 1.796-1.336 3.079-3.207 3.079s-3.207-1.283-3.207-3.079 1.336-3.08 3.207-3.08c1.604 0 3.207 1.284 3.207 3.08z"/><path id="D" d="M75.862 115.444c0 1.796-1.336 3.079-3.207 3.079s-3.207-1.283-3.207-3.079 1.336-3.08 3.207-3.08 3.207 1.284 3.207 3.08z"/><path id="E" d="M7.182 151.883c0 1.797-1.336 3.08-3.207 3.08s-3.207-1.283-3.207-3.08 1.336-3.079 3.207-3.079 3.207 1.283 3.207 3.079z"/><path id="F" d="M41.656 151.883c0 1.797-1.336 3.08-3.207 3.08s-3.207-1.283-3.207-3.08 1.336-3.079 3.207-3.079c1.604 0 3.207 1.283 3.207 3.079z"/><path id="G" d="M3.975 191.402c1.771 0 3.207-1.378 3.207-3.079s-1.436-3.079-3.207-3.079-3.207 1.378-3.207 3.079 1.436 3.079 3.207 3.079z"/><path id="H" d="M75.862 188.323c0 1.796-1.336 3.079-3.207 3.079s-3.207-1.283-3.207-3.079 1.336-3.079 3.207-3.079 3.207 1.283 3.207 3.079z"/><path id="I" d="M141.337 191.402c1.771 0 3.206-1.378 3.206-3.079s-1.435-3.079-3.206-3.079-3.207 1.378-3.207 3.079 1.435 3.079 3.207 3.079z"/><path id="J" d="M210.017 191.402c1.772 0 3.207-1.378 3.207-3.079s-1.435-3.079-3.207-3.079-3.206 1.378-3.206 3.079 1.435 3.079 3.206 3.079z"/><path id="K" d="M7.182 224.763c0 1.796-1.336 3.079-3.207 3.079s-3.207-1.283-3.207-3.079 1.336-3.08 3.207-3.08 3.207 1.54 3.207 3.08z"/><path id="L" d="M75.862 261.202c0 1.796-1.336 3.079-3.207 3.079s-3.207-1.283-3.207-3.079 1.336-3.079 3.207-3.079 3.207 1.539 3.207 3.079z"/><path id="M" d="M3.975 300.978c1.771 0 3.207-1.379 3.207-3.08s-1.436-3.079-3.207-3.079-3.207 1.379-3.207 3.079 1.436 3.08 3.207 3.08z"/><path id="N" d="M141.337 300.978c1.771 0 3.206-1.379 3.206-3.08s-1.435-3.079-3.206-3.079-3.207 1.379-3.207 3.079 1.435 3.08 3.207 3.08z"/><path id="O" d="M210.017 300.978c1.772 0 3.207-1.379 3.207-3.08s-1.435-3.079-3.207-3.079-3.206 1.379-3.206 3.079 1.435 3.08 3.206 3.08z"/></defs></svg>