<svg xmlns="http://www.w3.org/2000/svg" width="321" height="513" fill="none"  xmlns:v="https://vecta.io/nano"><path d="M299.287 0h-1.049c4.927 57.67 30.606 111.213 73.683 152.578 45.279 43.478 104.707 68.539 168.328 71.357v-1.007C412.903 217.292 309.768 121.076 299.287 0zM-34.119 515c15.931-69.143 80.286-120.975 157.008-120.975S263.965 445.857 279.896 515h1.048c-15.931-69.747-80.809-121.982-158.056-121.982-77.351 0-142.124 52.336-158.056 121.982h1.048z" fill="#ea227a"/><path d="M195.313 125.102c1.332 0 2.411-1.037 2.411-2.315s-1.079-2.315-2.411-2.315-2.41 1.036-2.41 2.315 1.079 2.315 2.41 2.315zm48.004 353.364c1.332 0 2.411-1.037 2.411-2.315s-1.079-2.315-2.411-2.315-2.41 1.037-2.41 2.315 1.079 2.315 2.41 2.315zM36.943 447.769c0 1.711-1.467 3.12-3.249 3.12s-3.249-1.409-3.249-3.12 1.467-3.12 3.249-3.12 3.249 1.409 3.249 3.12z" fill="#fff"/><g fill="#ea227a"><path d="M279.687 33.616h-4.402v14.292h4.402V33.616z"/><path d="M284.96 42.818v-4.227h-14.883v4.227h14.883z"/></g><g fill="#fff"><path d="M307.881 446.36h-2.83v9.26h2.83v-9.26z"/><path d="M311.274 452.293v-2.718h-9.642v2.718h9.642z"/></g><path d="M36.943 33.616L-2.676 71.559m318.523 289.052l-40.562 38.849" stroke="#ea227a" stroke-miterlimit="10"/><path d="M301.697 87.762l-39.409 37.742" stroke="#fff" stroke-miterlimit="10"/></svg>