<svg width="48" height="48" viewBox="0 0 48 48" fill="none" xmlns="http://www.w3.org/2000/svg">
<path d="M24 4C35 4 44 13 44 24C44 35 35 44 24 44C13 44 4 35 4 24C4 13 13 4 24 4ZM24 0C10.8 0 0 10.8 0 24C0 37.2 10.8 48 24 48C37.2 48 48 37.2 48 24C48 10.8 37.2 0 24 0ZM24 14.2C27.2 14.2 27.6 14.2 28.8 14.2C32 14.4 33.6 15.8 33.8 19.2C33.8 20.4 33.8 20.8 33.8 24C33.8 27.2 33.8 27.6 33.8 28.8C33.6 32 32.2 33.6 28.8 33.8C27.6 33.8 27.2 33.8 24 33.8C20.8 33.8 20.4 33.8 19.2 33.8C16 33.6 14.4 32.2 14.2 28.8C14.2 27.6 14.2 27.2 14.2 24C14.2 20.8 14.2 20.4 14.2 19.2C14.4 16 15.8 14.4 19.2 14.2C20.4 14.2 20.8 14.2 24 14.2ZM24 12C20.8 12 20.4 12 19 12C14.6 12.2 12.2 14.6 12 19C12 20.2 12 20.6 12 24C12 27.2 12 27.6 12 29C12.2 33.4 14.6 35.8 19 36C20.2 36 20.6 36 24 36C27.2 36 27.6 36 29 36C33.4 35.8 35.8 33.4 36 29C36 27.8 36 27.4 36 24C36 20.8 36 20.4 36 19C35.8 14.6 33.4 12.2 29 12C27.6 12 27.2 12 24 12ZM24 17.8C20.6 17.8 17.8 20.6 17.8 24C17.8 27.4 20.6 30.2 24 30.2C27.4 30.2 30.2 27.4 30.2 24C30.2 20.6 27.4 17.8 24 17.8ZM24 28C21.8 28 20 26.2 20 24C20 21.8 21.8 20 24 20C26.2 20 28 21.8 28 24C28 26.2 26.2 28 24 28ZM30.4 16.2C29.6 16.2 29 16.8 29 17.6C29 18.4 29.6 19 30.4 19C31.2 19 31.8 18.4 31.8 17.6C31.8 16.8 31.2 16.2 30.4 16.2Z" fill="white"/>
</svg>
