<svg width="391" height="377" viewBox="0 0 391 377" fill="none" xmlns="http://www.w3.org/2000/svg">
<path d="M0 119.646C0 119.646 54.9057 104.498 68.9652 79.6703C83.0246 54.8424 100.414 30.4578 123.427 43.9802C146.44 57.5025 177.889 -9.37029 214.517 1.12246C251.146 11.6152 276.971 42.5023 306.495 60.0149C336.094 77.5274 325.291 111.592 346.38 117.503C367.469 123.415 391 119.646 391 119.646C391 119.646 334.244 122.38 327.141 154.228C320.111 186.15 289.624 194.795 272.679 165.016C255.808 135.311 238.418 132.577 229.465 157.996C220.511 183.416 195.204 256.347 174.559 215.263C153.914 174.179 152.064 129.326 128.089 147.134C104.188 164.942 93.3842 248.219 72.221 208.17C51.1319 168.341 29.5988 109.375 0 119.646Z" fill="#E3B4FF"/>
<path d="M166.567 168.859C166.567 168.859 165.457 168.342 169.009 164.795C172.487 161.322 177.889 152.381 177.889 152.381L180.997 160.657L171.303 169.82L166.567 168.859Z" fill="#713045"/>
<path d="M258.323 258.195L219.179 228.638L190.616 242.161L255.734 282.949L306.496 244.673C304.942 242.382 301.316 236.84 299.392 234.919L258.323 258.195Z" fill="#495FD8"/>
<path d="M307.531 235.658L301.242 238.54C303.166 240.461 304.942 242.456 306.495 244.747L311.009 241.348L307.531 235.658Z" fill="#FC7575"/>
<path d="M378.347 171.741H271.939C271.051 171.741 270.311 171.002 270.311 170.115V98.6613C270.311 97.7746 271.051 97.0356 271.939 97.0356H378.347C379.235 97.0356 379.975 97.7746 379.975 98.6613V170.115C379.975 171.002 379.235 171.741 378.347 171.741Z" fill="#9DB6FE"/>
<path d="M336.834 109.967H281.707V125.854H289.624L285.702 134.351L295.396 125.854H336.834V109.967Z" fill="white"/>
<path d="M323.071 138.711H369.615V154.598H362.955L366.211 163.096L358.071 154.598H323.071V138.711Z" fill="white"/>
<path d="M222.435 292.26L218.143 251.914C218.143 251.914 219.623 249.476 223.101 243.712C226.653 237.949 212.963 228.638 212.963 228.638L190.616 237.653L202.086 309.551L273.123 316.349C273.419 313.245 274.159 306.743 274.603 303.639L222.435 292.26Z" fill="#6D7FE0"/>
<path d="M286.294 306.152L274.603 303.639C274.085 306.743 273.789 309.92 273.493 313.024L286.294 315.24V306.152Z" fill="#FC7575"/>
<path d="M293.102 374.059C293.102 375.685 263.651 376.941 227.245 376.941C190.912 376.941 161.387 375.611 161.387 374.059C161.387 372.433 190.838 371.177 227.245 371.177C263.651 371.177 293.102 372.507 293.102 374.059Z" fill="#235893"/>
<path d="M307.161 224.057C307.161 224.057 312.563 226.2 316.337 227.678C320.111 229.156 326.327 231.151 328.25 231.89C330.174 232.629 335.28 239.648 334.244 240.904C333.208 242.161 327.14 239.279 323.293 239.574C319.445 239.87 311.823 243.269 311.305 242.087C310.787 240.904 305.163 238.836 304.497 237.358C303.757 235.954 305.829 224.648 307.161 224.057Z" fill="#1AA5C2"/>
<path d="M325.957 234.032L306.125 226.126C306.495 224.944 306.865 224.205 307.161 224.057C307.161 224.057 312.563 226.2 316.337 227.678C320.111 229.156 326.327 231.151 328.251 231.89C330.175 232.629 335.28 239.648 334.244 240.904C333.948 241.274 333.06 241.274 331.95 241.052C331.062 239.427 328.547 235.067 325.957 234.032Z" fill="#C2D6FF"/>
<path d="M312.193 232.924C312.193 232.924 321.443 238.836 322.257 239.722C323.145 240.609 316.115 242.235 316.115 242.235C316.115 242.235 309.307 237.136 309.233 235.88C309.307 234.624 310.935 233.515 312.193 232.924Z" fill="#C2D6FF"/>
<path d="M309.307 235.88C309.159 234.328 311.305 233.22 312.193 232.702C314.117 233.885 319.963 237.505 322.257 239.796C321.221 239.057 316.781 236.471 312.119 233.22C311.083 233.663 309.455 234.624 309.307 235.88Z" fill="#0D5361"/>
<path d="M213.407 160.731C213.407 160.731 222.139 163.982 222.139 180.386C222.139 191.101 216.959 217.85 216.959 217.85L228.873 229.747C228.873 229.747 198.534 245.264 181.737 247.998C181.737 247.998 187.212 233.294 187.212 225.609C187.212 217.85 184.474 181.051 193.132 172.11C199.718 165.312 213.407 160.731 213.407 160.731Z" fill="#F57408"/>
<path d="M209.337 146.618C209.337 146.618 213.185 151.642 213.407 160.731C213.703 169.82 215.331 169.746 213.037 170.854C209.929 172.406 200.976 172.184 199.2 169.229C199.2 169.229 203.492 158.588 201.272 154.081L209.337 146.618Z" fill="#FC7575"/>
<path d="M209.337 146.618C209.337 146.618 210.965 148.76 212.149 152.751C208.967 156.741 204.898 158.588 201.864 158.514C202.012 156.815 201.864 155.189 201.272 154.007L209.337 146.618Z" fill="#FD5E5A"/>
<path d="M208.375 127.775C204.898 127.923 200.458 129.696 198.682 134.647C198.386 135.534 199.052 138.489 198.756 139.302C197.424 143.071 195.426 143.81 195.426 143.81L197.794 144.844C197.794 144.844 197.424 147.504 197.424 150.238C197.424 152.159 197.572 154.081 198.608 155.189C201.124 157.849 210.225 156.224 214.295 148.169C218.439 140.189 215.479 127.405 208.375 127.775Z" fill="#FC7575"/>
<path d="M210.891 123.933L211.113 123.341C212.149 123.933 213.185 125.189 213.333 126.519C213.555 127.997 212.889 128.957 212.075 130.14L211.927 129.992C212.001 129.918 212.667 128.957 212.815 128.366C213.185 127.332 213.037 126.075 212.149 125.041C211.705 124.45 211.039 124.08 210.965 124.006C210.965 124.006 210.817 123.933 210.891 123.933Z" fill="#052F43"/>
<path d="M200.384 138.933C200.458 139.45 200.828 139.746 201.198 139.672C201.568 139.598 201.864 139.154 201.79 138.711C201.716 138.194 201.346 137.898 200.976 137.972C200.606 137.972 200.31 138.415 200.384 138.933Z" fill="#052F43"/>
<path d="M204.306 137.233C204.306 137.233 202.826 136.051 201.494 135.977C200.088 135.903 199.644 136.051 199.644 136.051V135.238C199.57 135.238 202.974 134.943 204.306 137.233Z" fill="#052F43"/>
<path d="M209.855 123.933L199.644 125.189L200.162 127.405L198.238 125.41L194.76 126.888C194.76 126.888 199.348 130.066 200.236 131.987C200.236 131.987 206.748 131.765 207.561 133.612C208.449 135.386 206.082 141.297 208.005 141.962C209.929 142.627 210.965 143.292 211.409 144.253C211.853 145.214 211.853 151.864 211.853 151.864L212.149 152.825C212.149 152.825 218.513 143.218 219.105 138.711C219.697 134.204 217.625 125.706 217.625 125.706L213.999 124.45L212.889 126.223L209.855 123.933Z" fill="#052F43"/>
<path d="M209.781 141.445C209.781 141.445 212.149 137.381 213.111 139.376C214.073 141.445 212.075 145.066 211.187 144.77C210.299 144.475 208.819 144.031 209.781 141.445Z" fill="#FC7575"/>
<path d="M210.078 141.888C210.078 141.888 211.705 139.819 212.149 140.78C212.593 141.815 212.149 144.031 211.113 143.662C210.152 143.292 209.856 142.701 210.078 141.888Z" fill="#FD5E5A"/>
<path d="M206.748 143.588C206.748 144.253 205.49 144.77 203.936 144.77C202.382 144.77 201.124 144.253 201.124 143.588C201.124 142.923 202.382 142.406 203.936 142.406C205.49 142.406 206.748 142.923 206.748 143.588Z" fill="#FD5E5A"/>
<path d="M199.2 150.238C198.978 150.238 198.83 150.09 198.83 149.869C198.83 149.647 198.978 149.499 199.2 149.425C199.2 149.425 201.642 149.204 202.382 147.726C202.456 147.504 202.678 147.43 202.9 147.578C203.122 147.652 203.196 147.874 203.048 148.095C202.16 149.943 199.348 150.164 199.2 150.238C199.274 150.238 199.2 150.238 199.2 150.238Z" fill="#052F43"/>
<path d="M239.01 235.658C238.788 235.584 238.714 235.436 238.788 235.363C241.452 226.052 241.156 218.367 237.9 212.53C234.126 205.732 227.541 203.81 227.467 203.81C227.319 203.736 227.245 203.663 227.319 203.515C227.319 203.367 227.467 203.293 227.615 203.367C227.689 203.367 234.422 205.362 238.344 212.308C241.674 218.293 242.044 226.126 239.306 235.584C239.232 235.584 239.158 235.658 239.01 235.658Z" fill="#2846A6"/>
<path d="M295.84 300.906C295.84 300.906 297.246 306.522 298.208 310.512C299.17 314.428 301.168 320.635 301.686 322.63C302.204 324.625 299.466 332.827 297.838 332.754C296.284 332.68 295.026 326.103 292.51 323.074C289.994 320.118 282.816 315.906 283.482 314.798C284.148 313.689 282.52 307.926 283.408 306.522C284.222 305.044 294.656 300.167 295.84 300.906Z" fill="#1AA5C2"/>
<path d="M298.652 321.965L294.73 310.142C293.916 307.629 293.472 305.043 293.546 302.383V301.275C294.656 300.905 295.544 300.757 295.84 300.905C295.84 300.905 297.246 306.521 298.208 310.511C299.17 314.428 301.167 320.635 301.685 322.63C302.203 324.625 299.466 332.827 297.838 332.753C297.32 332.753 296.876 332.014 296.358 330.98C297.246 329.206 299.318 324.699 298.652 321.965Z" fill="#C2D6FF"/>
<path d="M291.548 310.142C291.548 310.142 292.066 321.078 291.844 322.26C291.622 323.442 286.294 318.713 286.294 318.713C286.294 318.713 286.516 310.216 287.478 309.477C288.514 308.738 290.364 309.403 291.548 310.142Z" fill="#C2D6FF"/>
<path d="M287.478 309.477C288.662 308.516 290.808 309.551 291.77 309.994C291.918 312.285 292.436 319.083 291.844 322.26C291.844 321.004 291.4 315.832 291.326 310.216C290.29 309.625 288.588 308.886 287.478 309.477Z" fill="#0D5361"/>
<path d="M301.241 311.694C299.466 306.521 296.95 299.945 295.766 300.831C293.694 302.457 296.95 308.147 297.616 309.846C299.096 313.615 300.058 317.531 300.576 321.521C301.019 325.29 298.652 327.137 297.616 330.536C297.394 331.201 297.32 332.014 297.838 332.457C298.504 332.901 299.392 332.31 299.91 331.645C301.093 330.167 301.833 328.467 302.573 326.768C303.313 325.068 304.053 323.369 304.053 321.595C304.053 320.191 303.609 318.787 303.165 317.457C303.017 317.014 302.277 314.575 301.241 311.694Z" fill="#0D5361"/>
<path d="M278.894 88.8335H167.603C166.641 88.8335 165.901 88.0946 165.901 87.134V12.3547C165.901 11.3941 166.641 10.6552 167.603 10.6552H278.894C279.856 10.6552 280.596 11.3941 280.596 12.3547V87.134C280.596 88.0207 279.782 88.8335 278.894 88.8335Z" fill="#7C9AFE"/>
<path d="M223.175 20.0395H181.663V77.3063H223.175V20.0395Z" fill="#ECF2FF"/>
<path d="M235.236 75.9023C238.936 75.9023 241.896 77.0107 241.896 78.4147C241.896 79.0797 241.156 79.7448 239.972 80.1881L240.564 82.5527L238.27 80.6315C237.382 80.7793 236.346 80.927 235.236 80.927C231.536 80.927 228.576 79.8186 228.576 78.4147C228.65 77.0107 231.61 75.9023 235.236 75.9023Z" fill="#ECF2FF"/>
<path d="M274.233 20.0395H228.65V22.6258H274.233V20.0395Z" fill="#ECF2FF"/>
<path d="M274.233 25.5815H228.65V28.1677H274.233V25.5815Z" fill="#ECF2FF"/>
<path d="M274.233 31.1234H228.65V33.7097H274.233V31.1234Z" fill="#ECF2FF"/>
<path d="M274.233 36.6654H228.65V39.2516H274.233V36.6654Z" fill="#ECF2FF"/>
<path d="M212.519 45.163C212.519 52.1828 207.857 57.9464 202.086 57.9464C196.314 57.9464 191.652 52.2567 191.652 45.163C191.652 38.1432 196.314 32.3796 202.086 32.3796C207.857 32.4535 212.519 38.1432 212.519 45.163Z" fill="#D7E0FE"/>
<path d="M191.43 45.163C191.43 44.4241 191.504 43.7591 191.578 43.094C190.394 43.4635 189.432 44.6458 189.432 46.1236C189.432 47.7493 190.542 49.0793 191.948 49.2271C191.578 47.9709 191.43 46.567 191.43 45.163Z" fill="#D7E0FE"/>
<path d="M212.593 43.094C212.667 43.7591 212.741 44.498 212.741 45.2369C212.741 46.6409 212.519 48.0448 212.223 49.301C213.703 49.2271 214.887 47.8232 214.887 46.1975C214.887 44.5719 213.925 43.3157 212.593 43.094Z" fill="#D7E0FE"/>
<path d="M202.086 58.242C201.42 58.242 200.754 58.1681 200.088 58.0203V69.9909H205.341V57.577C204.379 58.0203 203.27 58.242 202.086 58.242Z" fill="#D7E0FE"/>
<path d="M202.086 32.1579C207.191 32.1579 211.409 36.5176 212.519 42.3551C214.147 38.5866 208.375 28.685 208.375 28.685C208.375 28.685 208.005 31.0495 205.859 30.4584C203.788 29.7934 204.453 25.5815 204.453 25.5815L202.53 28.6111L201.124 24.9903L200.162 28.685L198.09 25.5815C198.09 25.5815 199.126 27.7983 198.09 29.4978C197.054 31.1973 193.428 32.1579 192.688 34.892C192.244 36.5915 192.614 37.9215 192.91 38.6605C194.76 34.7442 198.164 32.1579 202.086 32.1579Z" fill="#D7E0FE"/>
<path d="M217.995 76.6413H188.026V73.1683C188.026 69.7693 190.764 67.0352 194.168 67.0352H211.853C215.257 67.0352 217.995 69.7693 217.995 73.1683V76.6413Z" fill="#D7E0FE"/>
<path d="M133.046 99.9174C133.046 99.9174 133.12 107.159 134.378 107.676C135.636 108.193 135.414 99.3263 135.414 99.3263L133.046 99.9174Z" fill="#FD5E5A"/>
<path d="M172.561 147.504C165.975 134.647 146.144 114.992 146.144 114.992C146.144 114.992 145.182 107.75 144.368 105.385C143.554 103.021 140.668 97.5529 139.78 95.1883C138.966 92.8237 134.156 87.134 133.268 87.5035C132.38 87.799 136.82 93.1932 137.042 95.2622C137.338 97.2573 138.966 101.174 139.04 101.395C138.892 101.1 137.412 97.5529 136.45 97.1095C135.71 96.74 134.23 97.1834 134.082 98.0701C133.194 98.0701 132.38 99.1785 132.38 100.139C132.38 100.139 130.383 100.287 130.383 101.469C130.383 102.651 132.38 108.341 133.12 108.341C133.86 108.341 132.898 103.538 132.898 103.538L136.968 110.41C137.264 110.927 137.56 111.445 137.856 111.962C139.78 114.992 142.666 118.391 142.666 118.391C142.666 118.391 154.654 142.48 158.427 148.095C162.201 153.711 163.977 155.189 166.123 161.322C166.863 163.539 170.119 167.899 174.263 172.702C177.593 168.194 179.961 162.8 182.18 158.145C178.037 154.82 174.559 151.273 172.561 147.504Z" fill="#FC7575"/>
<path d="M202.382 172.184C200.532 167.012 187.582 160.435 177.815 152.455C177.075 161.322 171.747 167.012 166.567 168.859C174.041 177.505 187.878 185.411 192.096 185.263C199.496 185.042 204.972 179.426 202.382 172.184Z" fill="#FFCB57"/>
<path d="M274.159 71.5427C273.937 71.5427 273.715 71.4688 273.493 71.321C272.457 70.656 271.421 69.9909 270.311 69.3259C269.719 68.9564 269.497 68.2175 269.867 67.6264C270.237 67.0352 270.977 66.8136 271.569 67.183C272.679 67.848 273.789 68.5131 274.825 69.1781C275.417 69.5476 275.565 70.3604 275.195 70.9515C274.973 71.321 274.529 71.5427 274.159 71.5427Z" fill="#99D7FF"/>
<path d="M106.408 254.722C106.186 254.722 105.964 254.648 105.816 254.575C103.078 253.097 100.858 251.914 99.23 250.954C98.6381 250.584 98.4161 249.845 98.7861 249.254C99.156 248.663 99.896 248.442 100.488 248.811C102.116 249.772 104.336 250.954 107 252.358C107.592 252.653 107.814 253.466 107.518 254.057C107.296 254.501 106.852 254.722 106.408 254.722ZM90.8684 245.19C90.5724 245.19 90.3504 245.116 90.1284 244.969C88.1305 243.491 86.1326 241.939 84.2087 240.387C83.6907 239.944 83.6167 239.131 84.0607 238.614C84.5046 238.097 85.3186 238.023 85.8366 238.466C87.6865 240.018 89.6844 241.496 91.6824 242.973C92.2743 243.417 92.3483 244.156 91.9783 244.747C91.6084 244.969 91.2384 245.19 90.8684 245.19ZM76.957 233.441C76.661 233.441 76.291 233.294 76.069 233.072C74.2191 231.298 72.5171 229.525 70.8152 227.678C70.3712 227.16 70.3712 226.348 70.8892 225.904C71.4072 225.461 72.2211 225.461 72.6651 225.978C74.2931 227.752 76.069 229.525 77.8449 231.225C78.3629 231.742 78.3629 232.481 77.8449 232.998C77.6229 233.294 77.2529 233.441 76.957 233.441ZM64.7475 219.919C64.3775 219.919 64.0075 219.771 63.7115 219.402C62.1576 217.407 60.6776 215.338 59.2717 213.269C58.9017 212.678 59.0497 211.939 59.6417 211.495C60.2336 211.126 60.9736 211.274 61.4176 211.865C62.7495 213.86 64.2295 215.855 65.7094 217.85C66.1534 218.367 66.0054 219.18 65.4874 219.623C65.3394 219.845 65.0434 219.919 64.7475 219.919ZM54.8319 204.697C54.3879 204.697 53.9439 204.475 53.7219 204.032C52.538 201.815 51.428 199.525 50.392 197.234C50.0961 196.569 50.392 195.83 51.058 195.534C51.724 195.239 52.464 195.534 52.7599 196.199C53.7219 198.416 54.8319 200.633 56.0158 202.776C56.3118 203.367 56.0898 204.18 55.4978 204.475C55.2758 204.697 55.0539 204.697 54.8319 204.697ZM47.7282 187.997C47.2102 187.997 46.6922 187.628 46.5442 187.111C45.8042 184.746 45.0643 182.308 44.4723 179.869C44.3243 179.204 44.6943 178.539 45.4342 178.317C46.1002 178.17 46.7662 178.539 46.9882 179.278C47.5802 181.643 48.2461 184.007 48.9861 186.372C49.2081 187.037 48.8381 187.776 48.1721 187.924C47.9501 187.997 47.8761 187.997 47.7282 187.997ZM43.7323 170.263C43.1403 170.263 42.5484 169.82 42.4744 169.155C42.4004 168.564 42.3264 168.046 42.2524 167.455C42.0304 165.534 41.8824 163.613 41.7344 161.692C41.6604 161.027 42.2524 160.435 42.9183 160.362C43.5843 160.288 44.1763 160.879 44.2503 161.544C44.3983 163.391 44.5463 165.312 44.7683 167.16C44.8423 167.751 44.9163 168.268 44.9903 168.859C45.0643 169.524 44.6203 170.189 43.8803 170.263C43.8803 170.263 43.8063 170.263 43.7323 170.263ZM42.9183 152.086C42.1784 152.086 41.6604 151.494 41.6604 150.756C41.7344 148.243 41.9564 145.731 42.2524 143.218C42.3264 142.553 42.9183 142.036 43.6583 142.11C44.3243 142.184 44.8423 142.775 44.7683 143.514C44.4723 145.953 44.3243 148.391 44.2503 150.829C44.1763 151.568 43.5843 152.086 42.9183 152.086ZM45.1383 134.056C45.0643 134.056 44.9903 134.056 44.9163 134.056C44.2503 133.908 43.8063 133.243 43.9543 132.578C44.4723 130.139 45.0643 127.701 45.7302 125.263C45.9522 124.598 46.6182 124.228 47.2842 124.376C47.9501 124.598 48.3201 125.263 48.1721 125.928C47.5062 128.292 46.9142 130.731 46.4702 133.095C46.2482 133.686 45.7302 134.056 45.1383 134.056ZM50.2441 116.617C50.0961 116.617 49.9481 116.617 49.8001 116.543C49.1341 116.322 48.8381 115.583 49.0601 114.918C49.9481 112.553 50.91 110.262 51.946 107.972C52.242 107.307 52.9819 107.085 53.6479 107.381C54.3139 107.676 54.5359 108.415 54.2399 109.08C53.2039 111.297 52.242 113.588 51.428 115.878C51.206 116.322 50.762 116.617 50.2441 116.617ZM58.0137 100.213C57.7917 100.213 57.5697 100.139 57.4218 100.065C56.8298 99.6958 56.6078 98.9568 56.9778 98.3657C58.2357 96.2228 59.5677 94.0799 60.8996 91.937C61.2696 91.3459 62.0836 91.1981 62.6755 91.5676C63.2675 91.937 63.4155 92.7499 63.0455 93.341C61.7136 95.41 60.3816 97.479 59.1977 99.6219C58.9017 99.9913 58.4577 100.213 58.0137 100.213ZM68.2253 85.1389C67.9293 85.1389 67.7073 85.065 67.4113 84.8433C66.8934 84.4 66.7454 83.5872 67.1894 83.0699C68.7433 81.1487 70.3712 79.1536 72.0732 77.3063C72.5171 76.789 73.3311 76.7152 73.8491 77.2324C74.3671 77.6758 74.4411 78.4886 73.9231 79.0058C72.2951 80.7793 70.6672 82.7005 69.1873 84.6217C68.9653 84.9911 68.5953 85.1389 68.2253 85.1389ZM80.6568 71.8382C80.2868 71.8382 79.9908 71.6905 79.6948 71.3949C79.2509 70.8776 79.2509 70.0648 79.7688 69.6215C81.6188 67.9219 83.6167 66.2963 85.5406 64.8184C86.1326 64.3751 86.8725 64.5229 87.3165 65.0401C87.7605 65.5574 87.6125 66.3702 87.0945 66.8136C85.1706 68.2914 83.2467 69.8431 81.4708 71.5427C81.2488 71.7644 80.9528 71.8382 80.6568 71.8382ZM261.505 64.3751C261.283 64.3751 261.135 64.3012 260.913 64.2273C258.768 63.1189 256.474 62.0844 254.18 61.1238C253.514 60.8282 253.218 60.0893 253.514 59.4982C253.81 58.8332 254.55 58.5376 255.142 58.8331C257.436 59.8676 259.729 60.9021 261.949 62.0105C262.541 62.3061 262.837 63.045 262.541 63.7101C262.393 64.0795 261.949 64.3751 261.505 64.3751ZM95.3082 61.1238C94.8642 61.1238 94.4202 60.9021 94.1982 60.5327C93.8283 59.9415 94.0503 59.1287 94.6422 58.8331C96.7881 57.577 99.008 56.3947 101.302 55.2863C101.894 54.9907 102.708 55.2124 103.004 55.8774C103.3 56.4686 103.078 57.2814 102.412 57.577C100.192 58.6854 98.0461 59.7938 95.9002 61.0499C95.7522 61.0499 95.5302 61.1238 95.3082 61.1238ZM244.708 57.2814C244.56 57.2814 244.412 57.2814 244.264 57.2075C241.97 56.3947 239.602 55.5819 237.234 54.9168C236.568 54.6952 236.198 54.0301 236.42 53.3651C236.642 52.7001 237.308 52.3306 237.974 52.5523C240.342 53.2912 242.784 54.104 245.078 54.9168C245.744 55.1385 246.114 55.8774 245.818 56.5425C245.67 56.9858 245.226 57.2814 244.708 57.2814ZM111.81 53.439C111.292 53.439 110.774 53.1434 110.626 52.6262C110.404 51.9611 110.7 51.2222 111.366 51.0005C113.659 50.1877 116.101 49.3749 118.543 48.7099C119.209 48.4882 119.875 48.9315 120.097 49.5966C120.319 50.2616 119.875 50.9266 119.209 51.1483C116.841 51.8134 114.473 52.5523 112.18 53.3651C112.032 53.3651 111.958 53.439 111.81 53.439ZM227.245 52.1089C227.171 52.1089 227.023 52.1089 226.949 52.1089C224.581 51.5178 222.139 51.0005 219.697 50.4833C219.031 50.3355 218.587 49.6705 218.735 49.0054C218.883 48.3404 219.549 47.897 220.215 48.0448C222.657 48.5621 225.173 49.0793 227.541 49.6705C228.207 49.8183 228.651 50.4833 228.503 51.2222C228.355 51.7395 227.837 52.1089 227.245 52.1089ZM129.347 48.636C128.755 48.636 128.237 48.1926 128.089 47.6015C127.941 46.9364 128.385 46.2714 129.051 46.1236C131.419 45.6803 133.935 45.2369 136.451 44.8675C137.116 44.7936 137.782 45.2369 137.856 45.9019C137.93 46.567 137.486 47.232 136.82 47.3059C134.379 47.6754 131.863 48.0448 129.569 48.5621C129.495 48.636 129.421 48.636 129.347 48.636ZM209.338 48.636C209.264 48.636 209.19 48.636 209.116 48.636C206.674 48.2665 204.232 47.897 201.79 47.6015C201.124 47.5276 200.606 46.8626 200.68 46.1975C200.754 45.5325 201.42 45.0152 202.086 45.0891C204.602 45.3847 207.044 45.7542 209.486 46.1236C210.151 46.1975 210.669 46.8626 210.521 47.5276C210.521 48.1926 210.003 48.636 209.338 48.636ZM191.282 46.567H191.208C188.766 46.3453 186.324 46.1975 183.809 46.0497C183.143 45.9758 182.551 45.3847 182.625 44.7197C182.699 44.0546 183.217 43.5374 183.957 43.5374C186.472 43.6852 188.988 43.833 191.43 44.0546C192.096 44.1285 192.614 44.7197 192.614 45.3847C192.466 46.0497 191.948 46.567 191.282 46.567ZM147.402 46.2714C146.736 46.2714 146.218 45.7542 146.144 45.0891C146.07 44.4241 146.588 43.7591 147.328 43.7591C149.77 43.5374 152.286 43.3896 154.802 43.3157C155.468 43.2418 156.06 43.833 156.134 44.498C156.134 45.163 155.616 45.7542 154.95 45.8281C152.434 45.9019 149.918 46.1236 147.55 46.2714C147.476 46.2714 147.402 46.2714 147.402 46.2714ZM173.079 45.6064C170.637 45.5325 168.269 45.5325 166.049 45.5325H165.679C165.013 45.5325 164.421 44.9413 164.421 44.2763C164.421 43.6113 165.013 43.0201 165.679 43.0201H166.049C168.343 43.0201 170.711 43.0201 173.153 43.094C173.819 43.094 174.411 43.6852 174.411 44.3502C174.337 45.0891 173.745 45.6064 173.079 45.6064Z" fill="#99D7FF"/>
<path d="M323.071 90.607L289.18 63.4145L278.969 71.3949L323.071 90.607Z" fill="#0A4CFE"/>
<path d="M285.48 90.8287L288.366 73.6856L323.071 90.607L285.48 90.8287Z" fill="#DBF1FF"/>
<path d="M291.104 49.0793L323.071 90.607L289.18 63.4145L291.104 49.0793Z" fill="#DBF1FF"/>
<path d="M278.969 71.3949L288.366 73.6856L287.922 76.124L278.969 71.3949Z" fill="#0033BF"/>
<path d="M127.719 184.229H15.6133C14.6514 184.229 13.8374 183.416 13.8374 182.455V107.159C13.8374 106.198 14.6514 105.385 15.6133 105.385H127.719C128.681 105.385 129.495 106.198 129.495 107.159V182.455C129.495 183.416 128.681 184.229 127.719 184.229Z" fill="#91AAFE"/>
<path d="M127.719 112.923H15.6133C14.6514 112.923 13.8374 112.11 13.8374 111.149V107.159C13.8374 106.198 14.6514 105.385 15.6133 105.385H127.719C128.681 105.385 129.495 106.198 129.495 107.159V111.223C129.495 112.184 128.681 112.923 127.719 112.923Z" fill="#004D54"/>
<path d="M53.1297 120.533H24.4929V165.091H53.1297V120.533Z" fill="#698BFD"/>
<path d="M122.095 120.533H61.1956V123.046H122.095V120.533Z" fill="#698BFD"/>
<path d="M122.095 125.854H61.1956V128.736H122.095V125.854Z" fill="#698BFD"/>
<path d="M95.086 107.528H18.2031V111.666H95.086V107.528Z" fill="white"/>
<path d="M117.137 111.001C117.137 111.371 116.841 111.666 116.471 111.666C116.101 111.666 115.805 111.371 115.805 111.001C115.805 110.632 116.101 110.336 116.471 110.336C116.841 110.336 117.137 110.632 117.137 111.001Z" fill="white"/>
<path d="M118.691 111.001C118.691 111.371 118.395 111.666 118.025 111.666C117.655 111.666 117.359 111.371 117.359 111.001C117.359 110.632 117.655 110.336 118.025 110.336C118.395 110.336 118.691 110.632 118.691 111.001Z" fill="white"/>
<path d="M120.245 111.001C120.245 111.371 119.949 111.666 119.579 111.666C119.209 111.666 118.913 111.371 118.913 111.001C118.913 110.632 119.209 110.336 119.579 110.336C119.949 110.336 120.245 110.632 120.245 111.001Z" fill="white"/>
<path d="M94.0502 110.927L93.4583 109.893C93.6803 109.671 93.9022 109.376 93.9022 109.006C93.9022 108.415 93.4583 107.898 92.8663 107.898C92.2743 107.898 91.8303 108.415 91.8303 109.006C91.8303 109.597 92.2743 110.115 92.8663 110.115C93.0143 110.115 93.1623 110.115 93.2363 110.041L93.6803 111.149C93.7542 111.297 93.9022 111.297 93.9762 111.223C94.0502 111.149 94.1242 111.001 94.0502 110.927ZM91.9783 109.006C91.9783 108.563 92.3483 108.193 92.7923 108.193C93.2363 108.193 93.6063 108.563 93.6063 109.006C93.6063 109.45 93.2363 109.819 92.7923 109.819C92.3483 109.819 91.9783 109.45 91.9783 109.006Z" fill="#121841"/>
<path d="M104.706 107.528H98.1938V111.445H104.706V107.528Z" fill="#F57408"/>
<path d="M119.579 132.947H66.0793V180.756H119.579V132.947Z" fill="#E4EDFF"/>
<path d="M92.866 140.558H71.7029V160.805H92.866V140.558Z" fill="white"/>
<path d="M118.691 163.982H97.5278V180.756H118.691V163.982Z" fill="white"/>
<path d="M106.408 135.312H80.5088V137.455H106.408V135.312Z" fill="#F57408"/>
<path d="M118.691 140.558H96.5659V141.667H118.691V140.558Z" fill="#698BFD"/>
<path d="M118.691 142.48H96.5659V143.588H118.691V142.48Z" fill="#698BFD"/>
<path d="M118.691 144.327H96.5659V145.435H118.691V144.327Z" fill="#698BFD"/>
<path d="M118.691 146.248H96.5659V147.356H118.691V146.248Z" fill="#698BFD"/>
<path d="M118.691 148.095H96.5659V149.204H118.691V148.095Z" fill="#698BFD"/>
<path d="M118.691 150.017H96.5659V151.125H118.691V150.017Z" fill="#698BFD"/>
<path d="M118.691 151.864H96.5659V152.972H118.691V151.864Z" fill="#698BFD"/>
<path d="M118.691 153.785H96.5659V154.894H118.691V153.785Z" fill="#698BFD"/>
<path d="M118.691 155.632H96.5659V156.741H118.691V155.632Z" fill="#698BFD"/>
<path d="M118.691 157.554H96.5659V158.662H118.691V157.554Z" fill="#698BFD"/>
<path d="M118.691 159.401H96.5659V160.509H118.691V159.401Z" fill="#698BFD"/>
<path d="M126.313 79.7448H61.8614C61.3434 79.7448 60.8254 79.3014 60.8254 78.7103V35.4092C60.8254 34.892 61.2694 34.3747 61.8614 34.3747H126.313C126.831 34.3747 127.349 34.8181 127.349 35.4092V78.7103C127.349 79.3014 126.831 79.7448 126.313 79.7448Z" fill="#B0C2FE"/>
<path d="M113.067 71.321H74.2189C72.591 71.321 71.259 69.9909 71.259 68.3653V46.1236C71.259 44.498 72.591 43.1679 74.2189 43.1679H113.067C114.695 43.1679 116.027 44.498 116.027 46.1236V68.3653C116.027 69.9909 114.695 71.321 113.067 71.321Z" fill="#95A9FE"/>
<path d="M111.366 45.6803H76.439L93.6063 61.8627L111.366 45.6803Z" fill="white"/>
<path d="M93.6062 66.1485L73.479 47.232V68.8087H113.659V47.8232L93.6062 66.1485Z" fill="white"/>
<path d="M253.81 77.6019C253.81 77.6019 254.549 76.7152 256.103 76.7152C257.435 76.7152 258.397 77.6758 258.397 78.7841C258.397 80.0403 257.139 81.5921 253.81 82.9221C250.48 81.5921 249.222 80.1142 249.222 78.7841C249.222 77.6758 250.184 76.7152 251.516 76.7152C253.07 76.6413 253.81 77.6019 253.81 77.6019Z" fill="#ECF2FF"/>
</svg>
