<svg width="1705" height="1125" viewBox="0 0 1705 1125" fill="none" xmlns="http://www.w3.org/2000/svg">
<path d="M1687.93 944.134C1668.79 965.662 1651.01 988.068 1632.55 1010.25C1623.77 1021.02 1614.99 1032.22 1605.09 1042.11C1595.19 1051.99 1585.73 1062.1 1576.5 1072.64C1565.92 1084.28 1555.79 1096.36 1545.44 1108.23C1544.31 1109.54 1546.34 1111.52 1547.46 1110.2C1565.7 1089.12 1583.71 1067.81 1603.29 1047.82C1623.1 1027.83 1640.21 1005.2 1657.99 983.674C1668.34 970.934 1678.92 958.413 1689.73 946.111C1691.08 944.793 1689.05 942.816 1687.93 944.134Z" fill="url(#paint0_linear)"/>
<path d="M1186.63 0H1184.38C1194.96 125.87 1250.11 242.733 1342.62 333.017C1439.87 427.914 1567.5 482.611 1704.13 488.762V486.565C1430.64 474.264 1209.14 264.261 1186.63 0Z" fill="#EA227A"/>
<path d="M470.589 1124.04C504.804 973.131 643.015 860.001 807.788 860.001C972.561 860.001 1110.77 973.131 1144.99 1124.04H1147.24C1113.02 971.813 973.686 857.805 807.788 857.805C641.664 857.805 502.553 972.032 468.338 1124.04H470.589Z" fill="#EA227A"/>
<path d="M1446.82 612.994C1468.42 582.43 1460.53 540.568 1429.21 519.493C1397.89 498.418 1355 506.11 1333.4 536.674C1311.81 567.238 1319.69 609.1 1351.01 630.175C1382.33 651.25 1425.22 643.558 1446.82 612.994Z" stroke="#EA227A" stroke-miterlimit="10"/>
<path d="M2.70217 161.248C4.19399 161.248 5.40335 160.067 5.40335 158.612C5.40335 157.156 4.19399 155.976 2.70217 155.976C1.21035 155.976 0.000976562 157.156 0.000976562 158.612C0.000976562 160.067 1.21035 161.248 2.70217 161.248Z" fill="#EA227A"/>
<path d="M34.4405 158.611C34.4405 160.149 33.315 161.247 31.7393 161.247C30.1636 161.247 29.0381 160.149 29.0381 158.611C29.0381 157.073 30.1636 155.975 31.7393 155.975C33.0899 155.975 34.4405 157.073 34.4405 158.611Z" fill="#EA227A"/>
<path d="M63.253 158.611C63.253 160.149 62.1275 161.247 60.5518 161.247C58.9761 161.247 57.8506 160.149 57.8506 158.611C57.8506 157.073 58.9761 155.975 60.5518 155.975C62.1275 155.975 63.253 157.073 63.253 158.611Z" fill="#EA227A"/>
<path d="M89.5899 161.247C91.0817 161.247 92.291 160.067 92.291 158.611C92.291 157.155 91.0817 155.975 89.5899 155.975C88.098 155.975 86.8887 157.155 86.8887 158.611C86.8887 160.067 88.098 161.247 89.5899 161.247Z" fill="#EA227A"/>
<path d="M118.402 161.247C119.894 161.247 121.104 160.067 121.104 158.611C121.104 157.155 119.894 155.975 118.402 155.975C116.911 155.975 115.701 157.155 115.701 158.611C115.701 160.067 116.911 161.247 118.402 161.247Z" fill="white"/>
<path d="M150.142 158.611C150.142 160.149 149.016 161.247 147.44 161.247C145.865 161.247 144.739 160.149 144.739 158.611C144.739 157.073 145.865 155.975 147.44 155.975C149.016 155.975 150.142 157.073 150.142 158.611Z" fill="#EA227A"/>
<path d="M176.253 161.247C177.745 161.247 178.954 160.067 178.954 158.611C178.954 157.155 177.745 155.975 176.253 155.975C174.761 155.975 173.552 157.155 173.552 158.611C173.552 160.067 174.761 161.247 176.253 161.247Z" fill="#EA227A"/>
<path d="M5.40237 189.804C5.40237 191.342 4.27689 192.44 2.7012 192.44C1.1255 192.44 0 191.342 0 189.804C0 188.266 1.1255 187.168 2.7012 187.168C4.27689 187.168 5.40237 188.266 5.40237 189.804Z" fill="white"/>
<path d="M34.4405 189.804C34.4405 191.342 33.315 192.44 31.7393 192.44C30.1636 192.44 29.0381 191.342 29.0381 189.804C29.0381 188.266 30.1636 187.168 31.7393 187.168C33.0899 187.168 34.4405 188.266 34.4405 189.804Z" fill="#EA227A"/>
<path d="M63.253 189.804C63.253 191.342 62.1275 192.44 60.5518 192.44C58.9761 192.44 57.8506 191.342 57.8506 189.804C57.8506 188.266 58.9761 187.168 60.5518 187.168C62.1275 187.168 63.253 188.266 63.253 189.804Z" fill="#EA227A"/>
<path d="M92.291 189.804C92.291 191.342 91.1656 192.44 89.5899 192.44C88.0142 192.44 86.8887 191.342 86.8887 189.804C86.8887 188.266 88.0142 187.168 89.5899 187.168C91.1656 187.168 92.291 188.266 92.291 189.804Z" fill="#EA227A"/>
<path d="M121.104 189.804C121.104 191.342 119.978 192.44 118.402 192.44C116.827 192.44 115.701 191.342 115.701 189.804C115.701 188.266 116.827 187.168 118.402 187.168C119.978 187.168 121.104 188.266 121.104 189.804Z" fill="#EA227A"/>
<path d="M150.142 189.804C150.142 191.342 149.016 192.44 147.44 192.44C145.865 192.44 144.739 191.342 144.739 189.804C144.739 188.266 145.865 187.168 147.44 187.168C149.016 187.168 150.142 188.266 150.142 189.804Z" fill="#EA227A"/>
<path d="M178.954 189.804C178.954 191.342 177.829 192.44 176.253 192.44C174.677 192.44 173.552 191.342 173.552 189.804C173.552 188.266 174.677 187.168 176.253 187.168C177.829 187.168 178.954 188.266 178.954 189.804Z" fill="#EA227A"/>
<path d="M2.7012 223.633C4.19302 223.633 5.40237 222.453 5.40237 220.997C5.40237 219.541 4.19302 218.361 2.7012 218.361C1.20937 218.361 0 219.541 0 220.997C0 222.453 1.20937 223.633 2.7012 223.633Z" fill="#EA227A"/>
<path d="M34.4405 220.997C34.4405 222.535 33.315 223.633 31.7393 223.633C30.1636 223.633 29.0381 222.535 29.0381 220.997C29.0381 219.459 30.1636 218.361 31.7393 218.361C33.0899 218.361 34.4405 219.459 34.4405 220.997Z" fill="#EA227A"/>
<path d="M63.253 220.997C63.253 222.535 62.1275 223.633 60.5518 223.633C58.9761 223.633 57.8506 222.535 57.8506 220.997C57.8506 219.459 58.9761 218.361 60.5518 218.361C62.1275 218.361 63.253 219.459 63.253 220.997Z" fill="white"/>
<path d="M89.5899 223.633C91.0817 223.633 92.291 222.453 92.291 220.997C92.291 219.541 91.0817 218.361 89.5899 218.361C88.098 218.361 86.8887 219.541 86.8887 220.997C86.8887 222.453 88.098 223.633 89.5899 223.633Z" fill="#EA227A"/>
<path d="M118.402 223.633C119.894 223.633 121.104 222.453 121.104 220.997C121.104 219.541 119.894 218.361 118.402 218.361C116.911 218.361 115.701 219.541 115.701 220.997C115.701 222.453 116.911 223.633 118.402 223.633Z" fill="#EA227A"/>
<path d="M150.142 220.997C150.142 222.535 149.016 223.633 147.44 223.633C145.865 223.633 144.739 222.535 144.739 220.997C144.739 219.459 145.865 218.361 147.44 218.361C149.016 218.361 150.142 219.459 150.142 220.997Z" fill="#EA227A"/>
<path d="M176.253 223.633C177.745 223.633 178.954 222.453 178.954 220.997C178.954 219.541 177.745 218.361 176.253 218.361C174.761 218.361 173.552 219.541 173.552 220.997C173.552 222.453 174.761 223.633 176.253 223.633Z" fill="#EA227A"/>
<path d="M5.40237 252.19C5.40237 253.727 4.27689 254.826 2.7012 254.826C1.1255 254.826 0 253.727 0 252.19C0 250.652 1.1255 249.554 2.7012 249.554C4.27689 249.554 5.40237 250.872 5.40237 252.19Z" fill="#EA227A"/>
<path d="M34.4405 252.19C34.4405 253.727 33.315 254.826 31.7393 254.826C30.1636 254.826 29.0381 253.727 29.0381 252.19C29.0381 250.652 30.1636 249.554 31.7393 249.554C33.0899 249.554 34.4405 250.872 34.4405 252.19Z" fill="#EA227A"/>
<path d="M63.253 252.19C63.253 253.727 62.1275 254.826 60.5518 254.826C58.9761 254.826 57.8506 253.727 57.8506 252.19C57.8506 250.652 58.9761 249.554 60.5518 249.554C62.1275 249.554 63.253 250.872 63.253 252.19Z" fill="#EA227A"/>
<path d="M92.291 252.19C92.291 253.727 91.1656 254.826 89.5899 254.826C88.0142 254.826 86.8887 253.727 86.8887 252.19C86.8887 250.652 88.0142 249.554 89.5899 249.554C91.1656 249.554 92.291 250.872 92.291 252.19Z" fill="#EA227A"/>
<path d="M121.104 252.19C121.104 253.727 119.978 254.826 118.402 254.826C116.827 254.826 115.701 253.727 115.701 252.19C115.701 250.652 116.827 249.554 118.402 249.554C119.978 249.554 121.104 250.872 121.104 252.19Z" fill="white"/>
<path d="M150.142 252.19C150.142 253.727 149.016 254.826 147.44 254.826C145.865 254.826 144.739 253.727 144.739 252.19C144.739 250.652 145.865 249.554 147.44 249.554C149.016 249.554 150.142 250.872 150.142 252.19Z" fill="#EA227A"/>
<path d="M178.954 252.19C178.954 253.727 177.829 254.826 176.253 254.826C174.677 254.826 173.552 253.727 173.552 252.19C173.552 250.652 174.677 249.554 176.253 249.554C177.829 249.554 178.954 250.872 178.954 252.19Z" fill="#EA227A"/>
<path d="M2.7012 286.019C4.19302 286.019 5.40237 284.838 5.40237 283.383C5.40237 281.927 4.19302 280.747 2.7012 280.747C1.20937 280.747 0 281.927 0 283.383C0 284.838 1.20937 286.019 2.7012 286.019Z" fill="#EA227A"/>
<path d="M34.4405 283.383C34.4405 284.92 33.315 286.019 31.7393 286.019C30.1636 286.019 29.0381 284.92 29.0381 283.383C29.0381 281.845 30.1636 280.747 31.7393 280.747C33.0899 280.747 34.4405 282.065 34.4405 283.383Z" fill="#EA227A"/>
<path d="M63.253 283.383C63.253 284.92 62.1275 286.019 60.5518 286.019C58.9761 286.019 57.8506 284.92 57.8506 283.383C57.8506 281.845 58.9761 280.747 60.5518 280.747C62.1275 280.747 63.253 282.065 63.253 283.383Z" fill="#EA227A"/>
<path d="M89.5899 286.019C91.0817 286.019 92.291 284.838 92.291 283.383C92.291 281.927 91.0817 280.747 89.5899 280.747C88.098 280.747 86.8887 281.927 86.8887 283.383C86.8887 284.838 88.098 286.019 89.5899 286.019Z" fill="#EA227A"/>
<path d="M118.402 286.019C119.894 286.019 121.104 284.838 121.104 283.383C121.104 281.927 119.894 280.747 118.402 280.747C116.911 280.747 115.701 281.927 115.701 283.383C115.701 284.838 116.911 286.019 118.402 286.019Z" fill="#EA227A"/>
<path d="M150.142 283.383C150.142 284.92 149.016 286.019 147.44 286.019C145.865 286.019 144.739 284.92 144.739 283.383C144.739 281.845 145.865 280.747 147.44 280.747C149.016 280.747 150.142 282.065 150.142 283.383Z" fill="#EA227A"/>
<path d="M176.253 286.019C177.745 286.019 178.954 284.838 178.954 283.383C178.954 281.927 177.745 280.747 176.253 280.747C174.761 280.747 173.552 281.927 173.552 283.383C173.552 284.838 174.761 286.019 176.253 286.019Z" fill="#EA227A"/>
<path d="M2.7012 317.431C4.19302 317.431 5.40237 316.251 5.40237 314.795C5.40237 313.339 4.19302 312.159 2.7012 312.159C1.20937 312.159 0 313.339 0 314.795C0 316.251 1.20937 317.431 2.7012 317.431Z" fill="#EA227A"/>
<path d="M34.4405 314.795C34.4405 316.333 33.315 317.431 31.7393 317.431C30.1636 317.431 29.0381 316.333 29.0381 314.795C29.0381 313.258 30.1636 312.159 31.7393 312.159C33.0899 312.159 34.4405 313.258 34.4405 314.795Z" fill="#EA227A"/>
<path d="M63.253 314.795C63.253 316.333 62.1275 317.431 60.5518 317.431C58.9761 317.431 57.8506 316.333 57.8506 314.795C57.8506 313.258 58.9761 312.159 60.5518 312.159C62.1275 312.159 63.253 313.258 63.253 314.795Z" fill="#EA227A"/>
<path d="M89.5899 317.431C91.0817 317.431 92.291 316.251 92.291 314.795C92.291 313.339 91.0817 312.159 89.5899 312.159C88.098 312.159 86.8887 313.339 86.8887 314.795C86.8887 316.251 88.098 317.431 89.5899 317.431Z" fill="white"/>
<path d="M118.402 317.431C119.894 317.431 121.104 316.251 121.104 314.795C121.104 313.339 119.894 312.159 118.402 312.159C116.911 312.159 115.701 313.339 115.701 314.795C115.701 316.251 116.911 317.431 118.402 317.431Z" fill="#EA227A"/>
<path d="M150.142 314.795C150.142 316.333 149.016 317.431 147.44 317.431C145.865 317.431 144.739 316.333 144.739 314.795C144.739 313.258 145.865 312.159 147.44 312.159C149.016 312.159 150.142 313.258 150.142 314.795Z" fill="#EA227A"/>
<path d="M176.253 317.431C177.745 317.431 178.954 316.251 178.954 314.795C178.954 313.339 177.745 312.159 176.253 312.159C174.761 312.159 173.552 313.339 173.552 314.795C173.552 316.251 174.761 317.431 176.253 317.431Z" fill="#EA227A"/>
<path d="M5.40237 345.988C5.40237 347.526 4.27689 348.624 2.7012 348.624C1.1255 348.624 0 347.526 0 345.988C0 344.45 1.1255 343.352 2.7012 343.352C4.27689 343.352 5.40237 344.45 5.40237 345.988Z" fill="#EA227A"/>
<path d="M34.4405 345.988C34.4405 347.526 33.315 348.624 31.7393 348.624C30.1636 348.624 29.0381 347.526 29.0381 345.988C29.0381 344.45 30.1636 343.352 31.7393 343.352C33.0899 343.352 34.4405 344.45 34.4405 345.988Z" fill="#EA227A"/>
<path d="M63.253 345.988C63.253 347.526 62.1275 348.624 60.5518 348.624C58.9761 348.624 57.8506 347.526 57.8506 345.988C57.8506 344.45 58.9761 343.352 60.5518 343.352C62.1275 343.352 63.253 344.45 63.253 345.988Z" fill="#EA227A"/>
<path d="M92.291 345.988C92.291 347.526 91.1656 348.624 89.5899 348.624C88.0142 348.624 86.8887 347.526 86.8887 345.988C86.8887 344.45 88.0142 343.352 89.5899 343.352C91.1656 343.352 92.291 344.45 92.291 345.988Z" fill="#EA227A"/>
<path d="M121.104 345.988C121.104 347.526 119.978 348.624 118.402 348.624C116.827 348.624 115.701 347.526 115.701 345.988C115.701 344.45 116.827 343.352 118.402 343.352C119.978 343.352 121.104 344.45 121.104 345.988Z" fill="#EA227A"/>
<path d="M150.142 345.988C150.142 347.526 149.016 348.624 147.44 348.624C145.865 348.624 144.739 347.526 144.739 345.988C144.739 344.45 145.865 343.352 147.44 343.352C149.016 343.352 150.142 344.45 150.142 345.988Z" fill="white"/>
<path d="M178.954 345.988C178.954 347.526 177.829 348.624 176.253 348.624C174.677 348.624 173.552 347.526 173.552 345.988C173.552 344.45 174.677 343.352 176.253 343.352C177.829 343.352 178.954 344.45 178.954 345.988Z" fill="#EA227A"/>
<path d="M2.7012 379.817C4.19302 379.817 5.40237 378.637 5.40237 377.181C5.40237 375.725 4.19302 374.545 2.7012 374.545C1.20937 374.545 0 375.725 0 377.181C0 378.637 1.20937 379.817 2.7012 379.817Z" fill="#EA227A"/>
<path d="M34.4405 377.181C34.4405 378.719 33.315 379.817 31.7393 379.817C30.1636 379.817 29.0381 378.719 29.0381 377.181C29.0381 375.643 30.1636 374.545 31.7393 374.545C33.0899 374.545 34.4405 375.643 34.4405 377.181Z" fill="white"/>
<path d="M63.253 377.181C63.253 378.719 62.1275 379.817 60.5518 379.817C58.9761 379.817 57.8506 378.719 57.8506 377.181C57.8506 375.643 58.9761 374.545 60.5518 374.545C62.1275 374.545 63.253 375.643 63.253 377.181Z" fill="#EA227A"/>
<path d="M89.5899 379.817C91.0817 379.817 92.291 378.637 92.291 377.181C92.291 375.725 91.0817 374.545 89.5899 374.545C88.098 374.545 86.8887 375.725 86.8887 377.181C86.8887 378.637 88.098 379.817 89.5899 379.817Z" fill="#EA227A"/>
<path d="M118.402 379.817C119.894 379.817 121.104 378.637 121.104 377.181C121.104 375.725 119.894 374.545 118.402 374.545C116.911 374.545 115.701 375.725 115.701 377.181C115.701 378.637 116.911 379.817 118.402 379.817Z" fill="#EA227A"/>
<path d="M150.142 377.181C150.142 378.719 149.016 379.817 147.44 379.817C145.865 379.817 144.739 378.719 144.739 377.181C144.739 375.643 145.865 374.545 147.44 374.545C149.016 374.545 150.142 375.643 150.142 377.181Z" fill="#EA227A"/>
<path d="M176.253 379.817C177.745 379.817 178.954 378.637 178.954 377.181C178.954 375.725 177.745 374.545 176.253 374.545C174.761 374.545 173.552 375.725 173.552 377.181C173.552 378.637 174.761 379.817 176.253 379.817Z" fill="#EA227A"/>
<path d="M1289.05 785.315C1290.54 785.315 1291.75 784.134 1291.75 782.678C1291.75 781.223 1290.54 780.042 1289.05 780.042C1287.56 780.042 1286.35 781.223 1286.35 782.678C1286.35 784.134 1287.56 785.315 1289.05 785.315Z" fill="#EA227A"/>
<path d="M1318.09 785.314C1319.58 785.314 1320.79 784.134 1320.79 782.678C1320.79 781.222 1319.58 780.042 1318.09 780.042C1316.6 780.042 1315.39 781.222 1315.39 782.678C1315.39 784.134 1316.6 785.314 1318.09 785.314Z" fill="#EA227A"/>
<path d="M1349.6 782.678C1349.6 784.216 1348.48 785.314 1346.9 785.314C1345.33 785.314 1344.2 784.216 1344.2 782.678C1344.2 781.141 1345.33 780.042 1346.9 780.042C1348.48 780.042 1349.6 781.141 1349.6 782.678Z" fill="#EA227A"/>
<path d="M1378.64 782.678C1378.64 784.216 1377.52 785.314 1375.94 785.314C1374.36 785.314 1373.24 784.216 1373.24 782.678C1373.24 781.141 1374.36 780.042 1375.94 780.042C1377.52 780.042 1378.64 781.141 1378.64 782.678Z" fill="#EA227A"/>
<path d="M1407.68 782.678C1407.68 784.216 1406.55 785.314 1404.98 785.314C1403.4 785.314 1402.28 784.216 1402.28 782.678C1402.28 781.141 1403.4 780.042 1404.98 780.042C1406.33 780.042 1407.68 781.141 1407.68 782.678Z" fill="white"/>
<path d="M1433.79 785.314C1435.28 785.314 1436.49 784.134 1436.49 782.678C1436.49 781.222 1435.28 780.042 1433.79 780.042C1432.3 780.042 1431.09 781.222 1431.09 782.678C1431.09 784.134 1432.3 785.314 1433.79 785.314Z" fill="#EA227A"/>
<path d="M1465.53 782.678C1465.53 784.216 1464.4 785.314 1462.83 785.314C1461.25 785.314 1460.13 784.216 1460.13 782.678C1460.13 781.141 1461.25 780.042 1462.83 780.042C1464.18 780.042 1465.53 781.141 1465.53 782.678Z" fill="#EA227A"/>
<path d="M1289.05 816.507C1290.54 816.507 1291.75 815.327 1291.75 813.871C1291.75 812.415 1290.54 811.235 1289.05 811.235C1287.56 811.235 1286.35 812.415 1286.35 813.871C1286.35 815.327 1287.56 816.507 1289.05 816.507Z" fill="white"/>
<path d="M1318.09 816.507C1319.58 816.507 1320.79 815.327 1320.79 813.871C1320.79 812.415 1319.58 811.235 1318.09 811.235C1316.6 811.235 1315.39 812.415 1315.39 813.871C1315.39 815.327 1316.6 816.507 1318.09 816.507Z" fill="#EA227A"/>
<path d="M1349.6 813.871C1349.6 815.409 1348.48 816.507 1346.9 816.507C1345.33 816.507 1344.2 815.409 1344.2 813.871C1344.2 812.333 1345.33 811.235 1346.9 811.235C1348.48 811.235 1349.6 812.333 1349.6 813.871Z" fill="#EA227A"/>
<path d="M1378.64 813.871C1378.64 815.409 1377.52 816.507 1375.94 816.507C1374.36 816.507 1373.24 815.409 1373.24 813.871C1373.24 812.333 1374.36 811.235 1375.94 811.235C1377.52 811.235 1378.64 812.333 1378.64 813.871Z" fill="#EA227A"/>
<path d="M1407.68 813.871C1407.68 815.409 1406.55 816.507 1404.98 816.507C1403.4 816.507 1402.28 815.409 1402.28 813.871C1402.28 812.333 1403.4 811.235 1404.98 811.235C1406.33 811.235 1407.68 812.333 1407.68 813.871Z" fill="#EA227A"/>
<path d="M1433.79 816.507C1435.28 816.507 1436.49 815.327 1436.49 813.871C1436.49 812.415 1435.28 811.235 1433.79 811.235C1432.3 811.235 1431.09 812.415 1431.09 813.871C1431.09 815.327 1432.3 816.507 1433.79 816.507Z" fill="#EA227A"/>
<path d="M1465.53 813.871C1465.53 815.409 1464.4 816.507 1462.83 816.507C1461.25 816.507 1460.13 815.409 1460.13 813.871C1460.13 812.333 1461.25 811.235 1462.83 811.235C1464.18 811.235 1465.53 812.333 1465.53 813.871Z" fill="#EA227A"/>
<path d="M1291.75 845.064C1291.75 846.601 1290.63 847.7 1289.05 847.7C1287.48 847.7 1286.35 846.601 1286.35 845.064C1286.35 843.526 1287.48 842.428 1289.05 842.428C1290.63 842.428 1291.75 843.746 1291.75 845.064Z" fill="#EA227A"/>
<path d="M1320.79 845.064C1320.79 846.601 1319.66 847.7 1318.09 847.7C1316.51 847.7 1315.39 846.601 1315.39 845.064C1315.39 843.526 1316.51 842.428 1318.09 842.428C1319.66 842.428 1320.79 843.746 1320.79 845.064Z" fill="#EA227A"/>
<path d="M1349.6 845.064C1349.6 846.601 1348.48 847.7 1346.9 847.7C1345.33 847.7 1344.2 846.601 1344.2 845.064C1344.2 843.526 1345.33 842.428 1346.9 842.428C1348.48 842.428 1349.6 843.746 1349.6 845.064Z" fill="white"/>
<path d="M1378.64 845.064C1378.64 846.601 1377.52 847.7 1375.94 847.7C1374.36 847.7 1373.24 846.601 1373.24 845.064C1373.24 843.526 1374.36 842.428 1375.94 842.428C1377.52 842.428 1378.64 843.746 1378.64 845.064Z" fill="#EA227A"/>
<path d="M1407.68 845.064C1407.68 846.601 1406.55 847.7 1404.98 847.7C1403.4 847.7 1402.28 846.601 1402.28 845.064C1402.28 843.526 1403.4 842.428 1404.98 842.428C1406.33 842.428 1407.68 843.746 1407.68 845.064Z" fill="#EA227A"/>
<path d="M1436.49 845.064C1436.49 846.601 1435.37 847.7 1433.79 847.7C1432.21 847.7 1431.09 846.601 1431.09 845.064C1431.09 843.526 1432.21 842.428 1433.79 842.428C1435.37 842.428 1436.49 843.746 1436.49 845.064Z" fill="#EA227A"/>
<path d="M1465.53 845.064C1465.53 846.601 1464.4 847.7 1462.83 847.7C1461.25 847.7 1460.13 846.601 1460.13 845.064C1460.13 843.526 1461.25 842.428 1462.83 842.428C1464.18 842.428 1465.53 843.746 1465.53 845.064Z" fill="#EA227A"/>
<path d="M1289.05 879.112C1290.54 879.112 1291.75 877.932 1291.75 876.476C1291.75 875.021 1290.54 873.84 1289.05 873.84C1287.56 873.84 1286.35 875.021 1286.35 876.476C1286.35 877.932 1287.56 879.112 1289.05 879.112Z" fill="#EA227A"/>
<path d="M1318.09 879.112C1319.58 879.112 1320.79 877.932 1320.79 876.476C1320.79 875.021 1319.58 873.84 1318.09 873.84C1316.6 873.84 1315.39 875.021 1315.39 876.476C1315.39 877.932 1316.6 879.112 1318.09 879.112Z" fill="#EA227A"/>
<path d="M1349.6 876.476C1349.6 878.014 1348.48 879.113 1346.9 879.113C1345.33 879.113 1344.2 878.014 1344.2 876.476C1344.2 874.939 1345.33 873.84 1346.9 873.84C1348.48 873.621 1349.6 874.939 1349.6 876.476Z" fill="#EA227A"/>
<path d="M1378.64 876.476C1378.64 878.014 1377.52 879.113 1375.94 879.113C1374.36 879.113 1373.24 878.014 1373.24 876.476C1373.24 874.939 1374.36 873.84 1375.94 873.84C1377.52 873.621 1378.64 874.939 1378.64 876.476Z" fill="#EA227A"/>
<path d="M1407.68 876.476C1407.68 878.014 1406.55 879.113 1404.98 879.113C1403.4 879.113 1402.28 878.014 1402.28 876.476C1402.28 874.939 1403.4 873.84 1404.98 873.84C1406.33 873.621 1407.68 874.939 1407.68 876.476Z" fill="white"/>
<path d="M1433.79 879.112C1435.28 879.112 1436.49 877.932 1436.49 876.476C1436.49 875.021 1435.28 873.84 1433.79 873.84C1432.3 873.84 1431.09 875.021 1431.09 876.476C1431.09 877.932 1432.3 879.112 1433.79 879.112Z" fill="#EA227A"/>
<path d="M1465.53 876.476C1465.53 878.014 1464.4 879.113 1462.83 879.113C1461.25 879.113 1460.13 878.014 1460.13 876.476C1460.13 874.939 1461.25 873.84 1462.83 873.84C1464.18 873.621 1465.53 874.939 1465.53 876.476Z" fill="#EA227A"/>
<path d="M1291.75 907.669C1291.75 909.207 1290.63 910.305 1289.05 910.305C1287.48 910.305 1286.35 909.207 1286.35 907.669C1286.35 906.132 1287.48 905.033 1289.05 905.033C1290.63 905.033 1291.75 906.132 1291.75 907.669Z" fill="#EA227A"/>
<path d="M1320.79 907.669C1320.79 909.207 1319.66 910.305 1318.09 910.305C1316.51 910.305 1315.39 909.207 1315.39 907.669C1315.39 906.132 1316.51 905.033 1318.09 905.033C1319.66 905.033 1320.79 906.132 1320.79 907.669Z" fill="#EA227A"/>
<path d="M1349.6 907.669C1349.6 909.207 1348.48 910.305 1346.9 910.305C1345.33 910.305 1344.2 909.207 1344.2 907.669C1344.2 906.132 1345.33 905.033 1346.9 905.033C1348.48 905.033 1349.6 906.132 1349.6 907.669Z" fill="#EA227A"/>
<path d="M1378.64 907.669C1378.64 909.207 1377.52 910.305 1375.94 910.305C1374.36 910.305 1373.24 909.207 1373.24 907.669C1373.24 906.132 1374.36 905.033 1375.94 905.033C1377.52 905.033 1378.64 906.132 1378.64 907.669Z" fill="#EA227A"/>
<path d="M1407.68 907.669C1407.68 909.207 1406.55 910.305 1404.98 910.305C1403.4 910.305 1402.28 909.207 1402.28 907.669C1402.28 906.132 1403.4 905.033 1404.98 905.033C1406.33 905.033 1407.68 906.132 1407.68 907.669Z" fill="#EA227A"/>
<path d="M1436.49 907.669C1436.49 909.207 1435.37 910.305 1433.79 910.305C1432.21 910.305 1431.09 909.207 1431.09 907.669C1431.09 906.132 1432.21 905.033 1433.79 905.033C1435.37 905.033 1436.49 906.132 1436.49 907.669Z" fill="#EA227A"/>
<path d="M1465.53 907.669C1465.53 909.207 1464.4 910.305 1462.83 910.305C1461.25 910.305 1460.13 909.207 1460.13 907.669C1460.13 906.132 1461.25 905.033 1462.83 905.033C1464.18 905.033 1465.53 906.132 1465.53 907.669Z" fill="#EA227A"/>
<path d="M1289.05 941.498C1290.54 941.498 1291.75 940.318 1291.75 938.862C1291.75 937.406 1290.54 936.226 1289.05 936.226C1287.56 936.226 1286.35 937.406 1286.35 938.862C1286.35 940.318 1287.56 941.498 1289.05 941.498Z" fill="#EA227A"/>
<path d="M1318.09 941.498C1319.58 941.498 1320.79 940.318 1320.79 938.862C1320.79 937.406 1319.58 936.226 1318.09 936.226C1316.6 936.226 1315.39 937.406 1315.39 938.862C1315.39 940.318 1316.6 941.498 1318.09 941.498Z" fill="#EA227A"/>
<path d="M1349.6 938.862C1349.6 940.4 1348.48 941.498 1346.9 941.498C1345.33 941.498 1344.2 940.4 1344.2 938.862C1344.2 937.325 1345.33 936.226 1346.9 936.226C1348.48 936.226 1349.6 937.325 1349.6 938.862Z" fill="#EA227A"/>
<path d="M1378.64 938.862C1378.64 940.4 1377.52 941.498 1375.94 941.498C1374.36 941.498 1373.24 940.4 1373.24 938.862C1373.24 937.325 1374.36 936.226 1375.94 936.226C1377.52 936.226 1378.64 937.325 1378.64 938.862Z" fill="white"/>
<path d="M1407.68 938.862C1407.68 940.4 1406.55 941.498 1404.98 941.498C1403.4 941.498 1402.28 940.4 1402.28 938.862C1402.28 937.325 1403.4 936.226 1404.98 936.226C1406.33 936.226 1407.68 937.325 1407.68 938.862Z" fill="#EA227A"/>
<path d="M1433.79 941.498C1435.28 941.498 1436.49 940.318 1436.49 938.862C1436.49 937.406 1435.28 936.226 1433.79 936.226C1432.3 936.226 1431.09 937.406 1431.09 938.862C1431.09 940.318 1432.3 941.498 1433.79 941.498Z" fill="#EA227A"/>
<path d="M1465.53 938.862C1465.53 940.4 1464.4 941.498 1462.83 941.498C1461.25 941.498 1460.13 940.4 1460.13 938.862C1460.13 937.325 1461.25 936.226 1462.83 936.226C1464.18 936.226 1465.53 937.325 1465.53 938.862Z" fill="#EA227A"/>
<path d="M1289.05 972.691C1290.54 972.691 1291.75 971.511 1291.75 970.055C1291.75 968.599 1290.54 967.419 1289.05 967.419C1287.56 967.419 1286.35 968.599 1286.35 970.055C1286.35 971.511 1287.56 972.691 1289.05 972.691Z" fill="#EA227A"/>
<path d="M1318.09 972.691C1319.58 972.691 1320.79 971.511 1320.79 970.055C1320.79 968.599 1319.58 967.419 1318.09 967.419C1316.6 967.419 1315.39 968.599 1315.39 970.055C1315.39 971.511 1316.6 972.691 1318.09 972.691Z" fill="#EA227A"/>
<path d="M1349.6 970.055C1349.6 971.593 1348.48 972.691 1346.9 972.691C1345.33 972.691 1344.2 971.593 1344.2 970.055C1344.2 968.517 1345.33 967.419 1346.9 967.419C1348.48 967.419 1349.6 968.517 1349.6 970.055Z" fill="#EA227A"/>
<path d="M1378.64 970.055C1378.64 971.593 1377.52 972.691 1375.94 972.691C1374.36 972.691 1373.24 971.593 1373.24 970.055C1373.24 968.517 1374.36 967.419 1375.94 967.419C1377.52 967.419 1378.64 968.517 1378.64 970.055Z" fill="#EA227A"/>
<path d="M1407.68 970.055C1407.68 971.593 1406.55 972.691 1404.98 972.691C1403.4 972.691 1402.28 971.593 1402.28 970.055C1402.28 968.517 1403.4 967.419 1404.98 967.419C1406.33 967.419 1407.68 968.517 1407.68 970.055Z" fill="#EA227A"/>
<path d="M1433.79 972.691C1435.28 972.691 1436.49 971.511 1436.49 970.055C1436.49 968.599 1435.28 967.419 1433.79 967.419C1432.3 967.419 1431.09 968.599 1431.09 970.055C1431.09 971.511 1432.3 972.691 1433.79 972.691Z" fill="white"/>
<path d="M1465.53 970.055C1465.53 971.593 1464.4 972.691 1462.83 972.691C1461.25 972.691 1460.13 971.593 1460.13 970.055C1460.13 968.517 1461.25 967.419 1462.83 967.419C1464.18 967.419 1465.53 968.517 1465.53 970.055Z" fill="#EA227A"/>
<path d="M1291.75 1001.25C1291.75 1002.79 1290.63 1003.88 1289.05 1003.88C1287.48 1003.88 1286.35 1002.79 1286.35 1001.25C1286.35 999.71 1287.48 998.612 1289.05 998.612C1290.63 998.612 1291.75 999.93 1291.75 1001.25Z" fill="#EA227A"/>
<path d="M1320.79 1001.25C1320.79 1002.79 1319.66 1003.88 1318.09 1003.88C1316.51 1003.88 1315.39 1002.79 1315.39 1001.25C1315.39 999.71 1316.51 998.612 1318.09 998.612C1319.66 998.612 1320.79 999.93 1320.79 1001.25Z" fill="white"/>
<path d="M1349.6 1001.25C1349.6 1002.79 1348.48 1003.88 1346.9 1003.88C1345.33 1003.88 1344.2 1002.79 1344.2 1001.25C1344.2 999.71 1345.33 998.612 1346.9 998.612C1348.48 998.612 1349.6 999.93 1349.6 1001.25Z" fill="#EA227A"/>
<path d="M1378.64 1001.25C1378.64 1002.79 1377.52 1003.88 1375.94 1003.88C1374.36 1003.88 1373.24 1002.79 1373.24 1001.25C1373.24 999.71 1374.36 998.612 1375.94 998.612C1377.52 998.612 1378.64 999.93 1378.64 1001.25Z" fill="#EA227A"/>
<path d="M1407.68 1001.25C1407.68 1002.79 1406.55 1003.88 1404.98 1003.88C1403.4 1003.88 1402.28 1002.79 1402.28 1001.25C1402.28 999.71 1403.4 998.612 1404.98 998.612C1406.33 998.612 1407.68 999.93 1407.68 1001.25Z" fill="#EA227A"/>
<path d="M1436.49 1001.25C1436.49 1002.79 1435.37 1003.88 1433.79 1003.88C1432.21 1003.88 1431.09 1002.79 1431.09 1001.25C1431.09 999.71 1432.21 998.612 1433.79 998.612C1435.37 998.612 1436.49 999.93 1436.49 1001.25Z" fill="#EA227A"/>
<path d="M1465.53 1001.25C1465.53 1002.79 1464.4 1003.88 1462.83 1003.88C1461.25 1003.88 1460.13 1002.79 1460.13 1001.25C1460.13 999.71 1461.25 998.612 1462.83 998.612C1464.18 998.612 1465.53 999.93 1465.53 1001.25Z" fill="#EA227A"/>
<path d="M298.555 71.6515C301.911 71.6515 304.632 68.9961 304.632 65.7205C304.632 62.4448 301.911 59.7894 298.555 59.7894C295.198 59.7894 292.477 62.4448 292.477 65.7205C292.477 68.9961 295.198 71.6515 298.555 71.6515Z" fill="white"/>
<path d="M1270.37 370.58C1276.09 370.58 1280.72 366.056 1280.72 360.476C1280.72 354.895 1276.09 350.371 1270.37 350.371C1264.65 350.371 1260.01 354.895 1260.01 360.476C1260.01 366.056 1264.65 370.58 1270.37 370.58Z" fill="white"/>
<path d="M65.6348 104.562C68.4941 104.562 70.8121 102.3 70.8121 99.5098C70.8121 96.7194 68.4941 94.4574 65.6348 94.4574C62.7755 94.4574 60.4575 96.7194 60.4575 99.5098C60.4575 102.3 62.7755 104.562 65.6348 104.562Z" fill="#EA227A"/>
<path d="M1483.54 202.314C1483.54 205.17 1481.29 207.367 1478.36 207.367C1475.43 207.367 1473.18 205.17 1473.18 202.314C1473.18 199.459 1475.43 197.262 1478.36 197.262C1481.06 197.262 1483.54 199.459 1483.54 202.314Z" fill="#EA227A"/>
<path d="M963.332 273.047C966.191 273.047 968.509 270.785 968.509 267.995C968.509 265.205 966.191 262.943 963.332 262.943C960.472 262.943 958.154 265.205 958.154 267.995C958.154 270.785 960.472 273.047 963.332 273.047Z" fill="white"/>
<path d="M1066.43 1044.3C1069.29 1044.3 1071.6 1042.04 1071.6 1039.25C1071.6 1036.46 1069.29 1034.2 1066.43 1034.2C1063.57 1034.2 1061.25 1036.46 1061.25 1039.25C1061.25 1042.04 1063.57 1044.3 1066.43 1044.3Z" fill="white"/>
<path d="M533.391 686.024C536.251 686.024 538.568 683.762 538.568 680.972C538.568 678.181 536.251 675.919 533.391 675.919C530.532 675.919 528.214 678.181 528.214 680.972C528.214 683.762 530.532 686.024 533.391 686.024Z" fill="#EA227A"/>
<path d="M1607.34 829.467C1607.34 832.323 1605.09 834.52 1602.16 834.52C1599.24 834.52 1596.99 832.323 1596.99 829.467C1596.99 826.612 1599.24 824.415 1602.16 824.415C1605.09 824.415 1607.34 826.612 1607.34 829.467Z" fill="#EA227A"/>
<path d="M623.207 977.304C623.207 981.039 620.055 984.114 616.229 984.114C612.402 984.114 609.25 981.039 609.25 977.304C609.25 973.57 612.402 970.495 616.229 970.495C620.055 970.495 623.207 973.57 623.207 977.304Z" fill="white"/>
<path d="M1144.54 73.3694H1135.08V104.562H1144.54V73.3694Z" fill="#EA227A"/>
<path d="M1155.86 93.4546V84.2285H1123.9V93.4546H1155.86Z" fill="#EA227A"/>
<path d="M1205.09 974.229H1199.01V994.438H1205.09V974.229Z" fill="white"/>
<path d="M1212.38 987.178V981.247H1191.67V987.178H1212.38Z" fill="white"/>
<path d="M256.068 968.957H245.039V1005.64H256.068V968.957Z" fill="white"/>
<path d="M269.321 992.643V981.879H231.729V992.643H269.321Z" fill="white"/>
<path d="M623.206 73.3693L538.119 156.184" stroke="#EA227A" stroke-miterlimit="10"/>
<path d="M1222.2 787.071L1135.08 871.863" stroke="#EA227A" stroke-miterlimit="10"/>
<path d="M520.111 865.273L435.473 947.649" stroke="white" stroke-miterlimit="10"/>
<path d="M1191.81 191.551L1107.17 273.926" stroke="white" stroke-miterlimit="10"/>
<path d="M256.069 889.876C345.206 889.876 417.466 819.36 417.466 732.374C417.466 645.388 345.206 574.872 256.069 574.872C166.932 574.872 94.6729 645.388 94.6729 732.374C94.6729 819.36 166.932 889.876 256.069 889.876Z" stroke="#EA227A" stroke-miterlimit="10"/>
<defs>
<linearGradient id="paint0_linear" x1="1671.26" y1="935.272" x2="1568.08" y2="1121.15" gradientUnits="userSpaceOnUse">
<stop stop-opacity="0"/>
<stop offset="0.0181199" stop-color="#000205" stop-opacity="0.0181199"/>
<stop offset="0.1641" stop-color="#00142D" stop-opacity="0.1641"/>
<stop offset="0.3152" stop-color="#00224D" stop-opacity="0.3152"/>
<stop offset="0.4706" stop-color="#002E66" stop-opacity="0.4706"/>
<stop offset="0.6319" stop-color="#003678" stop-opacity="0.6319"/>
<stop offset="0.8029" stop-color="#003A83" stop-opacity="0.8029"/>
<stop offset="1" stop-color="#003C86"/>
</linearGradient>
</defs>
</svg>
