<svg width="481" height="349" viewBox="0 0 481 349" fill="none" xmlns="http://www.w3.org/2000/svg">
<g clip-path="url(#clip0)">
<path d="M368.393 73.6845C368.583 67.4013 364.025 62.0702 357.759 61.3086C351.113 60.547 342.947 64.9261 341.238 73.6845C339.719 81.11 338.77 94.0571 338.77 93.4859L368.203 95.1995L368.393 73.6845Z" fill="white"/>
<path d="M368.773 95.9611L344.276 93.6763C345.036 105.481 344.846 112.526 344.276 119.19C343.707 126.806 349.593 133.279 357.189 133.279C364.215 133.279 369.912 127.758 370.102 120.713L368.773 95.9611Z" fill="#FFC1B2"/>
<path d="M302.31 87.7734L355.1 111.573C360.417 114.62 362.316 121.474 358.898 126.805C355.67 132.136 348.454 133.469 343.517 129.851L298.322 96.9126L302.31 87.7734Z" fill="#FFC1B2"/>
<path d="M297.183 100.15C302.88 102.054 309.336 99.0071 311.235 93.1048C313.134 87.3928 310.096 80.9193 304.209 79.0153C298.322 77.1113 292.056 80.1577 290.157 86.06C288.258 91.9624 291.296 98.2455 297.183 100.15Z" fill="#FFC1B2"/>
<path d="M298.132 79.396C298.132 79.396 297.562 75.0168 303.259 76.54C308.956 78.0632 313.893 82.4424 311.235 93.1047L298.132 79.396Z" fill="#FFC1B2"/>
<path d="M314.842 62.6411L304.019 56.9292C303.449 56.5484 302.689 56.9292 302.499 57.5004L290.156 86.4409C289.777 87.2025 290.156 87.9641 290.726 88.1545L301.55 93.8664C302.12 94.2472 302.879 93.8664 303.069 93.2952L315.412 64.3547C315.602 63.7835 315.412 63.0219 314.842 62.6411Z" fill="#372C5F"/>
<path d="M316.931 63.7837L306.107 58.0717C305.537 57.6909 304.778 58.0717 304.588 58.6429L292.245 87.5835C291.865 88.3451 292.245 89.1067 292.814 89.2971L303.638 95.009C304.208 95.3898 304.968 95.009 305.157 94.4378L317.501 65.4973C317.69 64.9261 317.501 63.9741 316.931 63.7837Z" fill="#251641"/>
<path d="M315.601 66.4489L305.917 61.4985L295.853 84.9175L305.537 90.0583L315.601 66.4489Z" fill="#E7E7E7"/>
<path d="M305.917 61.4985L305.538 90.0583L315.602 66.4489L305.917 61.4985Z" fill="white"/>
<path d="M308.576 90.8204L305.917 81.3004C305.728 80.5388 305.917 79.9676 306.487 79.3965C307.247 78.6349 308.386 78.8253 309.146 79.5868L310.665 81.6812L308.576 90.8204Z" fill="#FFC1B2"/>
<path d="M307.626 82.8237C307.626 82.8237 303.069 90.0589 306.297 96.342L309.146 90.8205L307.626 82.8237Z" fill="#FFC1B2"/>
<path d="M323.388 332.816H340.479L344.087 309.397L326.996 309.587L323.388 332.816Z" fill="#FFC1B2"/>
<path d="M340.478 328.818C336.491 329.96 327.376 333.387 323.008 327.294L293.955 343.098L345.226 342.717L342.757 330.531C342.567 329.198 341.428 328.627 340.478 328.818Z" fill="black"/>
<path d="M293.857 346.976L345.128 346.638L345.099 342.259L293.828 342.597L293.857 346.976Z" fill="#FF5C35"/>
<path d="M323.198 333.768C323.008 333.768 323.008 333.577 322.819 333.577C320.92 330.912 319.021 329.769 319.021 329.769C318.641 329.579 318.641 329.008 318.831 328.627C319.021 328.246 319.59 328.246 319.97 328.437C319.97 328.437 322.059 329.96 324.148 332.625C324.338 333.006 324.338 333.577 323.958 333.768C323.768 333.768 323.578 333.768 323.198 333.768Z" fill="white"/>
<path d="M319.211 335.862C319.021 335.862 319.021 335.672 318.831 335.672C316.932 333.006 315.033 331.864 315.033 331.864C314.653 331.674 314.653 331.102 314.843 330.722C315.033 330.341 315.603 330.341 315.982 330.531C315.982 330.531 318.071 332.054 320.16 334.72C320.35 335.101 320.35 335.672 319.97 335.862C319.78 335.862 319.59 335.862 319.211 335.862Z" fill="white"/>
<path d="M315.413 337.957C315.223 337.957 315.223 337.766 315.033 337.766C313.134 335.101 311.235 333.958 311.235 333.958C310.855 333.768 310.855 333.197 311.045 332.816C311.235 332.435 311.805 332.435 312.184 332.626C312.184 332.626 314.273 334.149 316.362 336.814C316.552 337.195 316.552 337.766 316.172 337.957C315.982 337.957 315.603 337.957 315.413 337.957Z" fill="white"/>
<path d="M351.113 118.237C351.113 118.237 344.087 133.66 332.693 202.584C321.109 271.508 319.59 317.965 319.59 317.965H355.1L386.053 125.472L378.077 118.047L351.113 118.237Z" fill="#FF9184"/>
<path d="M398.731 309.554L381.641 309.626L381.738 332.855L398.829 332.782L398.731 309.554Z" fill="#FFC1B2"/>
<path d="M398.776 328.437C394.788 329.579 385.673 333.006 381.306 326.914L352.252 342.717L403.523 342.336L401.055 330.15C401.055 328.818 399.915 328.246 398.776 328.437Z" fill="black"/>
<path d="M352.343 346.976L403.614 346.638L403.585 342.259L352.314 342.596L352.343 346.976Z" fill="#FF5C35"/>
<path d="M381.686 333.768C381.496 333.768 381.496 333.577 381.306 333.577C379.407 330.912 377.508 329.769 377.508 329.769C377.128 329.579 377.128 329.008 377.318 328.627C377.508 328.246 378.078 328.246 378.457 328.437C378.457 328.437 380.546 329.96 382.635 332.625C382.825 333.006 382.825 333.577 382.445 333.768C382.255 333.768 381.876 333.768 381.686 333.768Z" fill="white"/>
<path d="M377.697 335.862C377.507 335.862 377.507 335.672 377.318 335.672C375.419 333.006 373.52 331.864 373.52 331.864C373.14 331.674 373.14 331.102 373.33 330.722C373.52 330.341 374.089 330.341 374.469 330.531C374.469 330.531 376.558 332.054 378.647 334.72C378.837 335.101 378.837 335.672 378.457 335.862C378.267 335.862 377.887 335.862 377.697 335.862Z" fill="white"/>
<path d="M373.71 337.957C373.52 337.957 373.52 337.766 373.33 337.766C371.431 335.101 369.532 333.958 369.532 333.958C369.153 333.768 369.153 333.197 369.343 332.816C369.532 332.435 370.102 332.435 370.482 332.626C370.482 332.626 372.571 334.149 374.66 336.814C374.849 337.195 374.849 337.766 374.47 337.957C374.28 337.957 373.9 337.957 373.71 337.957Z" fill="white"/>
<path d="M393.459 117.856C393.459 117.856 410.359 134.421 411.309 167.931C412.258 206.392 409.22 318.536 409.22 318.536L375.229 317.584L357.759 118.237L393.459 117.856Z" fill="#FF9184"/>
<path d="M368.203 235.903L362.126 173.833L353.201 163.361" stroke="#FF6C63" stroke-width="0.9969" stroke-miterlimit="10"/>
<path d="M396.118 58.262L375.04 57.1196L360.038 58.8332L350.923 62.6412C349.404 63.2124 348.455 64.7356 348.645 66.2587L348.834 71.5899C348.834 71.5899 341.998 94.8185 350.164 100.15L350.923 118.237L394.409 117.666L401.055 73.8747C401.245 71.2091 398.966 58.4524 396.118 58.262Z" fill="white"/>
<path d="M345.796 93.6763C345.796 93.6763 344.277 84.7276 347.125 79.0156" stroke="#E2E2E2" stroke-width="0.7601" stroke-miterlimit="10"/>
<path d="M414.727 82.2524L393.08 94.0571C398.207 104.719 402.194 110.241 404.093 116.715C406.372 123.95 411.879 129.662 418.905 126.996C425.361 124.521 428.59 117.095 426.311 110.622L414.727 82.2524Z" fill="#FFC1B2"/>
<path d="M408.84 65.4972C404.853 59.0236 398.776 57.1196 392.699 58.6428C386.243 60.3564 386.243 75.5883 388.332 82.2522C389.661 86.8218 389.281 86.0602 393.079 94.0569L417.196 81.681L408.84 65.4972Z" fill="white"/>
<path d="M392.889 94.2475L387.572 84.918" stroke="#E2E2E2" stroke-width="0.7601" stroke-miterlimit="10"/>
<path d="M388.332 162.22L406.752 110.622C409.6 105.29 416.626 103.387 421.753 106.623C427.07 109.86 428.589 116.905 424.981 122.046L397.827 169.455L388.332 162.22Z" fill="#FFC1B2"/>
<path d="M401.245 170.597C403.144 164.695 399.915 158.602 394.029 156.698C388.142 154.794 382.065 158.031 380.166 163.933C378.267 169.836 381.496 175.928 387.382 177.832C393.079 179.736 399.346 176.5 401.245 170.597Z" fill="#FFC1B2"/>
<path d="M380.546 169.836C380.546 169.836 376.178 170.407 377.508 164.885C378.837 159.174 383.204 154.033 394.028 156.698L380.546 169.836Z" fill="#FFC1B2"/>
<path d="M355.48 4.3792C355.48 4.3792 341.618 3.04641 341.428 19.6111C341.428 31.9869 338.2 46.2668 334.022 53.6923C342.377 54.2635 370.102 53.6923 360.417 53.8827C353.201 54.0731 372.95 58.4523 390.8 49.694C390.8 49.694 394.978 40.1741 394.028 28.179C393.269 16.1839 387.952 7.04478 381.495 3.04641C375.419 -1.33275 361.177 -1.14235 355.48 4.3792Z" fill="#CE5137"/>
<path d="M349.974 3.04672C349.974 3.04672 378.647 -6.09239 387.572 7.99708C394.029 18.2786 387.762 37.8896 374.47 43.7919C361.747 49.5039 363.456 7.04509 363.456 7.04509L349.974 3.04672Z" fill="#CE5137"/>
<path d="M355.86 31.606C356.239 35.0331 353.771 38.2699 350.353 38.6507C346.935 39.0315 343.706 36.5563 343.327 33.1291C342.947 29.702 345.415 26.4652 348.834 26.0844C352.252 25.5132 355.48 27.9884 355.86 31.606Z" fill="#F1998A"/>
<path d="M357.569 46.8379L359.278 60.5466C359.848 65.3066 363.076 67.5914 367.824 67.0202C371.811 66.449 375.419 63.9738 375.419 59.785L371.621 38.27L357.569 46.8379Z" fill="#FFC1B2"/>
<path d="M358.708 55.7865C358.708 55.7865 371.241 51.9786 373.71 40.5547L357.379 45.3146L358.708 55.7865Z" fill="#0B181B"/>
<path d="M361.937 48.9324C353.771 49.5036 346.745 43.4109 345.985 36.7469L344.656 21.1343C343.897 12.7568 349.783 5.33123 358.139 4.18884C366.684 3.04645 375.799 8.9488 376.938 17.3263L377.888 29.8926C378.647 39.7933 371.621 47.5996 361.937 48.9324Z" fill="#FFC1B2"/>
<path d="M387.951 28.5596C388.331 31.9867 385.863 35.2235 382.444 35.6043C379.026 35.9851 375.798 33.5099 375.418 30.0828C375.039 26.6556 377.507 23.4188 380.925 23.038C384.343 22.4668 387.572 24.942 387.951 28.5596Z" fill="#FFC1B2"/>
<path d="M353.391 34.4624V36.176H355.48" stroke="#1B142E" stroke-width="0.533" stroke-miterlimit="10" stroke-linecap="round" stroke-linejoin="round"/>
<path d="M362.886 23.4193C362.886 23.4193 359.278 23.2289 359.468 24.7521C359.468 24.7521 359.468 25.7041 362.506 25.8945C365.545 25.8945 366.304 25.7041 366.684 24.7521C366.874 23.6097 364.405 23.2289 362.886 23.4193Z" fill="#832311"/>
<path d="M348.074 23.9908C348.074 23.9908 350.923 23.61 351.302 24.9428C351.302 24.9428 351.492 25.8948 349.024 26.2756C346.555 26.6564 345.606 26.2756 345.416 25.514C345.036 24.562 346.745 23.9908 348.074 23.9908Z" fill="#832311"/>
<path d="M352.062 39.4131L361.367 39.2227C361.367 39.2227 361.367 42.0786 356.999 42.269C352.632 42.6498 352.062 39.4131 352.062 39.4131Z" fill="white"/>
<path d="M359.847 29.7025C359.847 29.7025 361.366 27.4177 364.215 29.7025" stroke="#1B172C" stroke-width="0.6522" stroke-miterlimit="10" stroke-linecap="round" stroke-linejoin="round"/>
<path d="M347.504 30.464C347.504 30.464 349.023 28.1792 350.922 30.2736" stroke="#1B172C" stroke-width="0.623" stroke-miterlimit="10" stroke-linecap="round" stroke-linejoin="round"/>
<path d="M349.973 3.04639C349.973 3.04639 336.87 6.85435 340.288 21.8958L381.685 19.4206L377.127 5.14077L349.973 3.04639Z" fill="#CE5137"/>
<path d="M371.051 18.088C371.051 18.088 374.849 36.1758 370.671 56.7388C370.671 56.7388 378.077 55.5965 385.103 51.9789C385.103 51.9789 383.014 25.5135 379.596 17.136C375.988 8.75848 371.241 13.8992 371.241 13.8992L371.051 18.088Z" fill="#CE5137"/>
<path d="M360.227 58.4524L355.48 60.7371C355.48 60.7371 348.454 72.3514 362.126 72.9226C378.647 73.4938 379.976 63.9739 382.635 57.5004L374.279 56.7388L360.227 58.4524Z" fill="#FFC1B2"/>
<path d="M31.1425 78.2535H105.771C109.189 78.2535 111.847 75.3975 111.847 72.1607V22.6572C111.847 19.23 108.999 16.5645 105.771 16.5645H31.1425C27.7244 16.5645 25.0659 19.4204 25.0659 22.6572V72.1607C25.0659 75.5879 27.7244 78.2535 31.1425 78.2535Z" fill="white"/>
<path d="M100.074 73.3032L93.4276 86.2503C92.6681 87.7735 90.3893 87.9639 89.4399 86.4407L81.4644 73.3032H100.074Z" fill="white"/>
<path d="M88.6799 33.8906H47.0933V59.9752H88.6799V33.8906Z" fill="#0086FF"/>
<path d="M47.0933 33.8906L67.222 47.2185L88.6799 33.8906" stroke="white" stroke-width="1.1455" stroke-miterlimit="10" stroke-linecap="round" stroke-linejoin="round"/>
<path d="M262.812 79.0149H225.403V59.9751C225.403 58.4519 226.733 57.1191 228.252 57.1191H262.812C264.331 57.1191 265.661 58.4519 265.661 59.9751V76.159C265.661 77.6822 264.521 79.0149 262.812 79.0149Z" fill="#0086FF"/>
<path d="M225.403 74.4453V84.1556L233.759 74.4453H225.403Z" fill="#0086FF"/>
<path d="M252.368 67.7814C252.368 68.7334 253.128 69.6854 254.267 69.6854C255.217 69.6854 256.166 68.9238 256.166 67.7814C256.166 66.8294 255.406 65.8774 254.267 65.8774C253.128 66.0678 252.368 66.8294 252.368 67.7814Z" fill="white"/>
<path d="M244.582 67.7814C244.582 68.7334 245.342 69.6854 246.481 69.6854C247.43 69.6854 248.38 68.9238 248.38 67.7814C248.38 66.8294 247.62 65.8774 246.481 65.8774C245.532 66.0678 244.582 66.8294 244.582 67.7814Z" fill="white"/>
<path d="M236.797 67.7814C236.797 68.7334 237.556 69.6854 238.696 69.6854C239.645 69.6854 240.595 68.9238 240.595 67.7814C240.595 66.8294 239.835 65.8774 238.696 65.8774C237.746 66.0678 236.797 66.8294 236.797 67.7814Z" fill="white"/>
<path d="M148.117 201.25C146.788 202.393 128.938 212.103 118.114 226.002L139.762 245.994L175.652 237.426L177.741 201.25H148.117Z" fill="#0B181B"/>
<path d="M142.42 331.673L138.623 311.301H151.725L153.244 331.673H142.42Z" fill="#F9B0A3"/>
<path d="M153.244 329.77H142.42C142.42 329.77 134.825 334.53 132.926 342.907H163.309C163.309 342.907 158.371 332.054 153.244 329.77Z" fill="black"/>
<path d="M163.309 342.907H132.926V346.715H163.309V342.907Z" fill="#FF5C35"/>
<path d="M142.041 334.91C142.041 334.91 148.497 331.483 153.244 334.91" stroke="white" stroke-width="0.9579" stroke-miterlimit="10" stroke-linecap="round" stroke-linejoin="round"/>
<path d="M146.598 233.238C150.775 263.13 158.181 319.488 158.181 319.488L132.926 320.059L115.455 238.95C113.556 230.191 119.253 221.623 127.988 219.91C136.913 218.387 145.269 224.289 146.598 233.238Z" fill="#0B181B"/>
<path d="M202.616 201.25C203.945 202.393 221.795 212.103 232.619 226.002L210.971 245.994L175.082 237.426L172.993 201.25H202.616Z" fill="#0B181B"/>
<path d="M206.794 331.674L210.592 311.301H197.489L195.97 331.674H206.794Z" fill="#F9B0A3"/>
<path d="M195.97 329.77H206.794C206.794 329.77 214.389 334.53 216.288 342.908H185.905C185.905 342.908 190.842 332.055 195.97 329.77Z" fill="black"/>
<path d="M185.814 346.495H216.197V342.687H185.814V346.495Z" fill="#FF5C35"/>
<path d="M207.174 334.911C207.174 334.911 200.718 331.484 195.97 334.911" stroke="white" stroke-width="0.9579" stroke-miterlimit="10" stroke-linecap="round" stroke-linejoin="round"/>
<path d="M204.135 233.238C199.957 263.13 190.652 319.488 190.652 319.488L215.908 319.869L235.277 238.759C237.176 230.001 231.479 221.433 222.744 219.719C213.819 218.386 205.464 224.289 204.135 233.238Z" fill="#0B181B"/>
<path d="M172.044 118.237C172.044 118.237 149.256 118.237 132.356 134.801V181.259C132.356 181.259 212.871 182.401 212.871 181.259C212.871 180.116 212.871 131.565 212.871 131.565C212.871 131.565 196.54 118.237 172.044 118.237Z" fill="#0086FF"/>
<path d="M138.052 178.784H115.075C108.999 178.784 104.062 183.735 104.062 189.827C104.062 195.92 108.999 200.87 115.075 200.87H142.04L138.052 178.784Z" fill="#E88E80"/>
<path d="M105.581 184.496L120.962 159.363L142.04 162.219L139.002 189.827L105.581 184.496Z" fill="#E88E80"/>
<path d="M132.356 178.784H118.684" stroke="#55382C" stroke-width="0.7184" stroke-miterlimit="10"/>
<path d="M135.773 131.755C135.773 131.755 123.43 141.846 110.328 163.933C110.328 163.933 113.176 176.689 137.482 178.784L135.773 131.755Z" fill="#0086FF"/>
<path d="M210.021 178.784H232.999C239.075 178.784 244.012 183.734 244.012 189.827C244.012 195.92 239.075 200.87 232.999 200.87H206.034L210.021 178.784Z" fill="#E88E80"/>
<path d="M242.494 184.305L223.125 154.793L205.844 162.219L209.072 189.827L242.494 184.305Z" fill="#E88E80"/>
<path d="M211.352 178.784H229.391" stroke="#55382C" stroke-width="0.7184" stroke-miterlimit="10"/>
<path d="M213.061 131.755C213.061 131.755 225.404 141.846 238.506 163.933C238.506 163.933 235.658 176.689 211.352 178.784L213.061 131.755Z" fill="#0086FF"/>
<path d="M209.263 200.679H135.964C133.875 200.679 132.356 198.966 132.356 197.062V150.604C132.356 148.51 134.065 146.987 135.964 146.987H209.263C211.352 146.987 212.871 148.7 212.871 150.604V197.062C212.871 198.966 211.352 200.679 209.263 200.679Z" fill="#EAC8CE"/>
<path d="M177.55 173.833C177.55 176.499 175.272 178.784 172.613 178.784C169.954 178.784 167.676 176.499 167.676 173.833C167.676 171.168 169.954 168.883 172.613 168.883C175.461 168.883 177.55 171.168 177.55 173.833Z" fill="white"/>
<path d="M175.272 126.234H169.955C166.537 126.234 163.688 123.378 163.688 119.951V108.527H181.349V119.951C181.538 123.378 178.69 126.234 175.272 126.234Z" fill="#E88E80"/>
<path d="M163.878 109.288C163.878 109.288 166.536 117.285 181.538 116.904V105.861C181.538 105.861 180.589 107.955 173.752 107.574C166.916 107.384 163.878 109.288 163.878 109.288Z" fill="#0B0B0B"/>
<path d="M172.424 101.292C184.589 101.292 194.451 91.1478 194.451 78.6344C194.451 66.1211 184.589 55.9771 172.424 55.9771C160.258 55.9771 150.396 66.1211 150.396 78.6344C150.396 91.1478 160.258 101.292 172.424 101.292Z" fill="#0B181B"/>
<path d="M191.413 86.8215C191.413 86.8215 192.932 84.3463 196.35 85.4887C199.578 86.8215 198.059 94.6278 193.312 95.7702C193.312 95.7702 191.603 96.151 190.274 95.0086C190.084 95.0086 191.223 89.1063 191.413 86.8215Z" fill="#E88E80"/>
<path d="M195.781 88.3447C195.781 88.3447 193.122 87.3927 191.033 91.391" stroke="#021833" stroke-width="0.4606" stroke-miterlimit="10" stroke-linecap="round" stroke-linejoin="round"/>
<path d="M154.004 86.8215C154.004 86.8215 152.485 84.3463 149.067 85.4887C145.648 86.6311 147.358 94.6278 152.105 95.7702C152.105 95.7702 153.814 96.151 155.143 95.0086C155.333 95.0086 154.194 89.1063 154.004 86.8215Z" fill="#E88E80"/>
<path d="M149.826 88.3447C149.826 88.3447 152.485 87.3927 154.574 91.391" stroke="#021833" stroke-width="0.4606" stroke-miterlimit="10" stroke-linecap="round" stroke-linejoin="round"/>
<path d="M191.793 79.9672C191.793 85.108 191.223 95.7703 187.995 102.053C184.957 107.956 179.83 111.193 172.994 111.383C166.347 111.573 161.22 109.098 157.232 101.482C153.245 93.8663 153.435 80.1576 153.435 80.1576C153.435 80.1576 153.435 61.8794 172.424 61.8794C192.363 61.8794 191.793 79.9672 191.793 79.9672Z" fill="#E88E80"/>
<path d="M154.004 86.8215C154.004 86.8215 161.22 70.2569 155.333 67.5913C155.333 67.7817 151.345 81.8712 154.004 86.8215Z" fill="#0B181B"/>
<path d="M191.413 86.8212C191.413 86.8212 187.425 77.8725 190.843 71.5894C191.033 71.5894 194.261 81.8709 191.413 86.8212Z" fill="#0B181B"/>
<path d="M165.967 91.0085C165.967 91.9605 165.208 92.7221 164.258 92.7221C163.309 92.7221 162.549 91.9605 162.549 91.0085C162.549 90.0565 163.309 89.2949 164.258 89.2949C165.208 89.2949 165.967 90.0565 165.967 91.0085Z" fill="#0B181B"/>
<path d="M182.109 91.0101C182.109 91.9621 181.349 92.7236 180.399 92.7236C179.45 92.7236 178.69 91.9621 178.69 91.0101C178.69 90.0581 179.45 89.2965 180.399 89.2965C181.349 89.1061 182.109 90.0581 182.109 91.0101Z" fill="#0B181B"/>
<path d="M171.474 94.6274V96.9122C171.474 97.4834 172.043 97.8642 172.613 97.8642L173.942 97.6738" stroke="#021833" stroke-width="0.4606" stroke-miterlimit="10" stroke-linecap="round" stroke-linejoin="round"/>
<path d="M169.385 85.4886L158.941 86.8214C158.941 86.8214 159.701 83.9654 164.068 83.5846C168.436 83.0134 169.385 85.4886 169.385 85.4886Z" fill="#0B181B"/>
<path d="M175.462 85.4886L185.906 86.8214C185.906 86.8214 185.146 83.9654 180.779 83.5846C176.601 83.0134 175.462 85.4886 175.462 85.4886Z" fill="#0B181B"/>
<path d="M167.107 100.72H177.741C177.741 100.72 177.931 104.719 172.424 104.528C166.917 104.147 167.107 100.72 167.107 100.72Z" fill="white"/>
<path d="M155.333 67.7818C155.333 67.7818 167.106 82.0616 192.172 77.3017C192.172 77.3017 194.451 64.3546 181.538 60.3562C168.625 56.3579 158.561 65.8778 155.333 67.7818Z" fill="#0B181B"/>
<path d="M155.333 67.7816C155.333 67.7816 155.143 55.9769 165.967 54.2633C176.791 52.5497 177.17 58.2616 184.956 58.8328C196.54 59.5944 201.667 70.8279 192.172 77.4919L176.221 67.972H155.333V67.7816Z" fill="#0B181B"/>
<path d="M155.903 64.3545C155.903 64.3545 144.129 65.8777 151.345 84.7271L155.903 64.3545Z" fill="#0B181B"/>
<path d="M163.878 116.333L172.424 126.234L165.967 132.898L157.802 120.331L163.878 116.333Z" fill="white"/>
<path d="M181.539 116.904L172.424 126.233L178.88 132.897L188.185 120.141L181.539 116.904Z" fill="white"/>
<path d="M297.373 200.68H45.5742V214.579H297.373V200.68Z" fill="#533278"/>
<path d="M93.6174 214.769H84.8823V347.096H93.6174V214.769Z" fill="#3F0B79"/>
<path d="M93.6174 214.769H84.8823V219.148H93.6174V214.769Z" fill="#232323"/>
<path d="M264.711 214.769H255.976V347.096H264.711V214.769Z" fill="#3F0B79"/>
<path d="M264.711 214.769H255.976V219.148H264.711V214.769Z" fill="#232323"/>
<path d="M481 347.857H0" stroke="#55382E" stroke-width="1.1466" stroke-miterlimit="10"/>
</g>
<defs>
<clipPath id="clip0">
<rect width="481" height="349" fill="white"/>
</clipPath>
</defs>
</svg>
