<svg width="465" height="377" viewBox="0 0 465 377" fill="none" xmlns="http://www.w3.org/2000/svg">
<g clip-path="url(#clip0)">
<path opacity="0.4" d="M458.196 266.691C467.262 257.608 467.262 242.882 458.196 233.8C449.129 224.717 434.43 224.717 425.363 233.8C416.297 242.882 416.297 257.608 425.363 266.691C434.43 275.773 449.129 275.773 458.196 266.691Z" fill="#E5E5FF"/>
<path opacity="0.4" d="M84.7872 113.009C98.6231 99.1484 98.6231 76.6759 84.7872 62.8153C70.9513 48.9547 48.5189 48.9547 34.683 62.8153C20.8471 76.6759 20.8471 99.1484 34.683 113.009C48.5189 126.87 70.9513 126.87 84.7872 113.009Z" fill="#E5E5FF"/>
<path opacity="0.4" d="M182.268 53.8169C192.463 53.8169 200.728 45.5371 200.728 35.3235C200.728 25.1099 192.463 16.8301 182.268 16.8301C172.073 16.8301 163.808 25.1099 163.808 35.3235C163.808 45.5371 172.073 53.8169 182.268 53.8169Z" fill="#E5E5FF"/>
<path d="M155.815 44.4574C154.662 44.4574 153.508 44.3728 152.382 44.1755L152.495 43.4707C153.592 43.6399 154.718 43.7244 155.815 43.7244H155.956V44.4292L155.815 44.4574ZM159.502 44.1473L159.389 43.4425C160.515 43.2452 161.641 42.9633 162.738 42.5968L162.963 43.2734C161.838 43.6399 160.684 43.95 159.502 44.1473ZM148.921 43.358C147.795 42.9915 146.67 42.5122 145.628 41.9766L145.938 41.3564C146.951 41.892 148.02 42.3431 149.118 42.6814L148.921 43.358ZM166.256 41.8356L165.918 41.2154C166.931 40.6798 167.916 40.0596 168.845 39.3548L169.267 39.9186C168.31 40.6234 167.297 41.2718 166.256 41.8356ZM142.589 40.0878C141.632 39.383 140.732 38.5937 139.888 37.7479L140.394 37.2687C141.21 38.0862 142.083 38.8474 143.011 39.5522L142.589 40.0878ZM171.912 37.5224L171.406 37.0431C172.193 36.1974 172.925 35.2953 173.572 34.3368L174.163 34.7315C173.488 35.7463 172.728 36.6767 171.912 37.5224ZM137.636 34.9852C136.961 33.9985 136.342 32.9836 135.835 31.9124L136.483 31.6023C136.989 32.6453 137.58 33.6602 138.227 34.5905L137.636 34.9852ZM175.936 31.6304L175.289 31.3203C175.767 30.2773 176.189 29.1778 176.499 28.0784L177.174 28.2757C176.865 29.4315 176.443 30.5592 175.936 31.6304ZM134.541 28.5576C134.203 27.4018 133.95 26.2459 133.781 25.0619L134.485 24.9773C134.625 26.105 134.879 27.2608 135.216 28.3603L134.541 28.5576ZM177.878 24.78L177.174 24.6954C177.259 23.8779 177.315 23.0322 177.315 22.1864C177.315 21.8763 177.315 21.538 177.287 21.2279L177.99 21.1997C178.019 21.538 178.019 21.8481 178.019 22.1864C178.047 23.0603 177.99 23.9343 177.878 24.78ZM134.316 21.5098L133.612 21.4816C133.64 20.2976 133.781 19.0854 134.006 17.9296L134.71 18.0705C134.485 19.1982 134.344 20.354 134.316 21.5098ZM176.865 17.8168C176.64 16.6891 176.302 15.5615 175.88 14.4902L176.527 14.2365C176.949 15.3642 177.287 16.52 177.54 17.6758L176.865 17.8168ZM135.638 14.744L134.991 14.4902C135.413 13.3626 135.92 12.2913 136.483 11.2483L137.102 11.5866C136.539 12.6014 136.032 13.6445 135.638 14.744ZM175.824 14.3211C175.402 13.2498 174.895 12.2068 174.304 11.2201L174.923 10.8536C175.514 11.8685 176.049 12.9679 176.499 14.0674L175.824 14.3211ZM139.044 8.71106L138.481 8.26C139.212 7.32969 140.057 6.45577 140.929 5.66642L141.407 6.20205C140.563 6.96321 139.747 7.80894 139.044 8.71106ZM172.334 8.37277C171.603 7.49884 170.786 6.65311 169.914 5.89195L170.364 5.35632C171.265 6.14567 172.109 6.9914 172.869 7.89352L172.334 8.37277ZM144.137 4.08771L143.743 3.4957C144.728 2.8473 145.797 2.28348 146.895 1.80423L147.176 2.45263C146.135 2.93188 145.122 3.46751 144.137 4.08771ZM167.128 3.86219C166.143 3.27017 165.102 2.73454 164.061 2.28348L164.342 1.63509C165.44 2.08614 166.509 2.64997 167.522 3.27017L167.128 3.86219ZM150.469 1.32498L150.3 0.648396C151.454 0.338294 152.636 0.140956 153.817 0.0281916L153.874 0.73297C152.72 0.845734 151.594 1.04307 150.469 1.32498ZM160.74 1.21222C159.614 0.958499 158.461 0.761161 157.335 0.676588L157.391 -0.0281906C158.573 0.0563828 159.755 0.22553 160.909 0.507441L160.74 1.21222Z" fill="#9192FF"/>
<path d="M377.453 290.763V290.059C378.607 290.03 379.789 290.002 380.943 289.918L380.999 290.622C379.817 290.679 378.635 290.735 377.453 290.763ZM373.936 290.735C372.754 290.707 371.572 290.651 370.418 290.538L370.475 289.833C371.628 289.918 372.81 289.974 373.964 290.002L373.936 290.735ZM384.517 290.312L384.432 289.607C385.586 289.467 386.768 289.326 387.894 289.128L388.006 289.833C386.853 290.03 385.671 290.171 384.517 290.312ZM366.872 290.2C365.719 290.059 364.537 289.889 363.383 289.692L363.496 288.987C364.649 289.185 365.803 289.354 366.957 289.495L366.872 290.2ZM391.496 289.185L391.355 288.508C392.509 288.283 393.634 288.001 394.76 287.719L394.929 288.395C393.803 288.677 392.65 288.959 391.496 289.185ZM359.922 289.015C358.768 288.762 357.614 288.48 356.489 288.17L356.685 287.493C357.811 287.803 358.937 288.085 360.091 288.339L359.922 289.015ZM398.334 287.437L398.137 286.76C399.235 286.422 400.36 286.055 401.458 285.633L401.711 286.309C400.585 286.704 399.46 287.07 398.334 287.437ZM353.112 287.155C351.986 286.788 350.86 286.394 349.763 285.999L350.016 285.351C351.114 285.773 352.211 286.14 353.337 286.506L353.112 287.155ZM404.947 285.012L404.666 284.364C405.735 283.913 406.804 283.434 407.846 282.954L408.155 283.603C407.114 284.082 406.045 284.589 404.947 285.012ZM346.47 284.674C345.401 284.195 344.304 283.716 343.262 283.208L343.572 282.588C344.613 283.095 345.682 283.603 346.752 284.054L346.47 284.674ZM411.335 281.996L410.997 281.376C412.01 280.84 413.052 280.248 414.037 279.656L414.402 280.276C413.389 280.868 412.376 281.46 411.335 281.996ZM340.11 281.573C339.069 281.009 338.056 280.417 337.043 279.797L337.409 279.205C338.394 279.825 339.435 280.417 340.448 280.953L340.11 281.573ZM417.385 278.387L416.991 277.795C417.976 277.147 418.933 276.47 419.862 275.794L420.284 276.358C419.355 277.062 418.37 277.739 417.385 278.387ZM334.088 277.88C333.132 277.232 332.147 276.527 331.218 275.822L331.64 275.258C332.569 275.963 333.526 276.64 334.482 277.288L334.088 277.88ZM423.098 274.243L422.648 273.708C423.548 272.975 424.449 272.214 425.321 271.452L425.799 271.988C424.927 272.721 424.027 273.51 423.098 274.243ZM328.432 273.623C327.532 272.862 326.631 272.101 325.759 271.311L326.237 270.776C327.109 271.565 327.982 272.326 328.882 273.059L328.432 273.623ZM428.388 269.564L427.91 269.056C428.754 268.239 429.57 267.393 430.358 266.547L430.865 267.026C430.077 267.872 429.233 268.718 428.388 269.564ZM323.198 268.859C322.354 268.041 321.538 267.167 320.75 266.293L321.256 265.814C322.044 266.66 322.86 267.534 323.676 268.351L323.198 268.859ZM433.229 264.376L432.694 263.925C433.454 263.051 434.185 262.121 434.917 261.219L435.48 261.642C434.748 262.572 433.988 263.502 433.229 264.376ZM318.414 263.643C317.654 262.741 316.922 261.811 316.219 260.881L316.782 260.458C317.485 261.388 318.217 262.318 318.949 263.192L318.414 263.643ZM437.562 258.795L437 258.4C437.675 257.441 438.322 256.455 438.941 255.496L439.532 255.863C438.913 256.849 438.238 257.836 437.562 258.795ZM314.165 258.005C313.489 257.047 312.842 256.032 312.251 255.045L312.842 254.679C313.461 255.665 314.08 256.652 314.756 257.611L314.165 258.005ZM441.361 252.818L440.742 252.48C441.305 251.465 441.868 250.422 442.403 249.379L443.022 249.689C442.515 250.76 441.924 251.803 441.361 252.818ZM310.45 252.001C309.887 250.986 309.324 249.914 308.818 248.871L309.437 248.561C309.943 249.604 310.506 250.647 311.069 251.662L310.45 252.001ZM444.569 246.503L443.922 246.221C444.401 245.15 444.851 244.079 445.301 242.979L445.948 243.233C445.526 244.333 445.048 245.432 444.569 246.503ZM307.326 245.658C306.848 244.586 306.398 243.487 306.004 242.387L306.651 242.134C307.073 243.205 307.495 244.304 307.974 245.376L307.326 245.658ZM447.187 239.907L446.511 239.681C446.877 238.582 447.243 237.454 447.552 236.326L448.228 236.524C447.918 237.651 447.552 238.807 447.187 239.907ZM304.822 239.061C304.456 237.933 304.118 236.805 303.809 235.678L304.484 235.481C304.794 236.608 305.131 237.736 305.497 238.835L304.822 239.061ZM449.128 233.112L448.453 232.943C448.734 231.816 448.959 230.66 449.185 229.504L449.888 229.645C449.663 230.801 449.41 231.985 449.128 233.112ZM302.936 232.239C302.683 231.111 302.43 229.927 302.233 228.771L302.936 228.658C303.133 229.814 303.387 230.97 303.64 232.098L302.936 232.239ZM450.451 226.149L449.747 226.065C449.916 224.909 450.057 223.753 450.141 222.569L450.845 222.625C450.76 223.809 450.62 224.993 450.451 226.149ZM301.698 225.275C301.557 224.119 301.417 222.935 301.332 221.751L302.036 221.695C302.12 222.851 302.261 224.035 302.402 225.191L301.698 225.275ZM451.098 219.101L450.395 219.073C450.451 217.917 450.479 216.733 450.479 215.578H451.183C451.183 216.762 451.154 217.946 451.098 219.101ZM301.135 218.228C301.107 217.354 301.079 216.451 301.079 215.578C301.079 215.267 301.079 214.986 301.079 214.675H301.783C301.783 214.957 301.783 215.267 301.783 215.549C301.783 216.423 301.811 217.297 301.839 218.171L301.135 218.228ZM450.479 213.858C450.451 212.702 450.395 211.518 450.31 210.362L451.014 210.306C451.098 211.462 451.154 212.674 451.183 213.83L450.479 213.858ZM301.895 211.18L301.192 211.152C301.248 209.968 301.361 208.784 301.473 207.628L302.177 207.712C302.064 208.84 301.98 210.024 301.895 211.18ZM449.973 206.838C449.832 205.682 449.663 204.527 449.494 203.371L450.198 203.258C450.395 204.414 450.563 205.598 450.676 206.754L449.973 206.838ZM302.627 204.217L301.923 204.104C302.092 202.948 302.317 201.764 302.542 200.608L303.246 200.749C303.021 201.905 302.824 203.061 302.627 204.217ZM448.847 199.931C448.594 198.804 448.34 197.648 448.031 196.52L448.706 196.351C449.016 197.479 449.269 198.635 449.522 199.791L448.847 199.931ZM304.034 197.338L303.359 197.169C303.64 196.041 303.949 194.885 304.315 193.758L304.991 193.955C304.625 195.083 304.315 196.21 304.034 197.338ZM447.074 193.166C446.736 192.066 446.342 190.939 445.948 189.839L446.596 189.585C446.99 190.685 447.384 191.812 447.749 192.94L447.074 193.166ZM306.06 190.628L305.385 190.403C305.779 189.303 306.201 188.176 306.651 187.076L307.298 187.33C306.876 188.43 306.454 189.529 306.06 190.628ZM444.654 186.597C444.204 185.526 443.725 184.455 443.219 183.411L443.866 183.101C444.372 184.173 444.851 185.244 445.329 186.315L444.654 186.597ZM308.705 184.116L308.058 183.806C308.565 182.735 309.071 181.664 309.634 180.621L310.253 180.959C309.718 182.03 309.212 183.073 308.705 184.116ZM441.615 180.282C441.08 179.267 440.489 178.253 439.898 177.238L440.489 176.871C441.108 177.886 441.671 178.901 442.234 179.944L441.615 180.282ZM311.97 177.914L311.351 177.548C311.941 176.533 312.561 175.518 313.208 174.531L313.799 174.926C313.18 175.913 312.561 176.899 311.97 177.914ZM438.013 174.278C437.365 173.319 436.69 172.361 436.015 171.402L436.577 170.979C437.281 171.938 437.956 172.896 438.604 173.883L438.013 174.278ZM315.797 172.05L315.234 171.628C315.909 170.669 316.641 169.739 317.373 168.808L317.935 169.26C317.176 170.162 316.472 171.092 315.797 172.05ZM433.876 168.639C433.144 167.737 432.384 166.835 431.596 165.961L432.131 165.482C432.919 166.356 433.679 167.258 434.411 168.188L433.876 168.639ZM320.159 166.553L319.624 166.102C320.384 165.228 321.2 164.326 322.016 163.48L322.522 163.96C321.706 164.805 320.918 165.679 320.159 166.553ZM429.205 163.424C428.388 162.578 427.544 161.761 426.7 160.971L427.178 160.464C428.023 161.253 428.895 162.099 429.711 162.945L429.205 163.424ZM324.999 161.507L324.52 161C325.365 160.182 326.265 159.393 327.138 158.631L327.588 159.167C326.715 159.9 325.843 160.689 324.999 161.507ZM424.083 158.631C423.211 157.87 422.282 157.137 421.353 156.433L421.775 155.869C422.704 156.574 423.633 157.335 424.533 158.096L424.083 158.631ZM330.317 156.912L329.895 156.348C330.824 155.615 331.781 154.91 332.738 154.234L333.132 154.797C332.147 155.502 331.218 156.207 330.317 156.912ZM418.539 154.375C417.582 153.698 416.597 153.05 415.613 152.429L415.978 151.837C416.963 152.458 417.976 153.106 418.933 153.783L418.539 154.375ZM336.002 152.852L335.608 152.26C336.593 151.612 337.606 151.02 338.619 150.428L338.985 151.048C337.972 151.612 336.987 152.232 336.002 152.852ZM412.601 150.653C411.588 150.09 410.547 149.526 409.506 148.99L409.815 148.37C410.857 148.906 411.926 149.469 412.939 150.033L412.601 150.653ZM342.052 149.357L341.743 148.736C342.784 148.201 343.853 147.665 344.923 147.186L345.204 147.834C344.135 148.314 343.093 148.821 342.052 149.357ZM406.326 147.496C405.257 147.017 404.187 146.566 403.09 146.143L403.343 145.494C404.441 145.917 405.538 146.368 406.607 146.848L406.326 147.496ZM348.412 146.453L348.159 145.805C349.256 145.353 350.354 144.959 351.479 144.564L351.705 145.241C350.579 145.607 349.481 146.002 348.412 146.453ZM399.797 144.931C398.7 144.564 397.574 144.226 396.449 143.888L396.646 143.211C397.771 143.521 398.897 143.888 400.022 144.254L399.797 144.931ZM354.997 144.141L354.8 143.465C355.926 143.126 357.079 142.816 358.205 142.534L358.374 143.211C357.248 143.493 356.123 143.803 354.997 144.141ZM393.072 143.042C391.946 142.788 390.792 142.534 389.638 142.337L389.779 141.632C390.933 141.858 392.087 142.083 393.241 142.365L393.072 143.042ZM361.807 142.478L361.666 141.773C362.82 141.548 364.002 141.35 365.156 141.181L365.268 141.886C364.115 142.055 362.933 142.252 361.807 142.478ZM386.177 141.773C385.023 141.604 383.87 141.491 382.688 141.379L382.744 140.674C383.926 140.786 385.08 140.899 386.262 141.068L386.177 141.773ZM368.73 141.463L368.673 140.758C369.827 140.646 371.009 140.561 372.191 140.505L372.219 141.209C371.065 141.238 369.884 141.35 368.73 141.463ZM379.226 141.153C378.213 141.125 377.172 141.097 376.131 141.097C375.99 141.097 375.849 141.097 375.709 141.097V140.392C375.849 140.392 375.99 140.392 376.131 140.392C377.172 140.392 378.213 140.42 379.254 140.448L379.226 141.153Z" fill="#9192FF"/>
<path d="M71.6185 208.304C70.4366 208.304 69.2547 208.248 68.0728 208.163L68.1291 207.458C69.2828 207.543 70.4648 207.599 71.6185 207.599V208.304ZM75.1643 208.22L75.108 207.515C76.2618 207.43 77.4437 207.318 78.5693 207.177L78.6538 207.881C77.5281 208.022 76.3462 208.135 75.1643 208.22ZM64.5552 207.769C63.4014 207.599 62.2195 207.374 61.0657 207.12L61.2064 206.444C62.332 206.697 63.4858 206.923 64.6396 207.092L64.5552 207.769ZM82.1714 207.233L82.0307 206.556C83.1563 206.331 84.3101 206.021 85.4076 205.711L85.6046 206.387C84.4789 206.726 83.3251 207.007 82.1714 207.233ZM57.6607 206.218C56.535 205.88 55.4094 205.485 54.3119 205.062L54.5652 204.414C55.6627 204.837 56.7601 205.203 57.8858 205.541L57.6607 206.218ZM88.9815 205.288L88.7282 204.639C89.8257 204.245 90.895 203.794 91.9644 203.314L92.2458 203.963C91.1764 204.414 90.079 204.865 88.9815 205.288ZM51.0475 203.681C49.9782 203.173 48.9088 202.638 47.8958 202.074L48.2335 201.454C49.2465 202.018 50.2877 202.553 51.3571 203.061L51.0475 203.681ZM95.4257 202.356L95.088 201.736C96.1011 201.172 97.1142 200.58 98.0991 199.96L98.4649 200.552C97.48 201.2 96.4388 201.792 95.4257 202.356ZM44.8566 200.242C43.8716 199.593 42.9148 198.917 41.958 198.184L42.3802 197.62C43.3088 198.325 44.2656 199.001 45.2224 199.65L44.8566 200.242ZM101.392 198.55L100.969 197.986C101.898 197.281 102.827 196.549 103.699 195.787L104.149 196.323C103.249 197.112 102.32 197.845 101.392 198.55ZM39.2284 195.928C38.356 195.139 37.4836 194.321 36.6676 193.476L37.1741 192.968C37.9902 193.786 38.8344 194.603 39.7068 195.365L39.2284 195.928ZM106.738 193.927L106.232 193.419C107.048 192.602 107.864 191.756 108.624 190.854L109.158 191.305C108.399 192.235 107.583 193.109 106.738 193.927ZM34.2756 190.882C33.5158 189.98 32.7841 189.05 32.0806 188.091L32.6434 187.668C33.3188 188.599 34.0505 189.529 34.8103 190.403L34.2756 190.882ZM111.382 188.57L110.819 188.148C111.522 187.217 112.198 186.259 112.817 185.272L113.408 185.667C112.789 186.653 112.113 187.64 111.382 188.57ZM30.0826 185.159C29.4635 184.173 28.8444 183.13 28.3097 182.086L28.9288 181.748C29.4635 182.763 30.0545 183.778 30.6736 184.765L30.0826 185.159ZM115.237 182.622L114.618 182.284C115.181 181.269 115.715 180.226 116.194 179.155L116.841 179.437C116.334 180.536 115.8 181.579 115.237 182.622ZM26.7338 178.929C26.2554 177.858 25.8052 176.758 25.4112 175.631L26.0866 175.405C26.4806 176.505 26.9308 177.576 27.3811 178.647L26.7338 178.929ZM118.192 176.166L117.544 175.913C117.938 174.813 118.332 173.714 118.642 172.586L119.317 172.783C118.98 173.939 118.614 175.067 118.192 176.166ZM24.3419 172.248C24.0323 171.12 23.7509 169.964 23.4976 168.808L24.173 168.667C24.3981 169.795 24.6795 170.951 24.9891 172.079L24.3419 172.248ZM120.19 169.372L119.514 169.231C119.768 168.104 119.965 166.948 120.133 165.792L120.837 165.905C120.668 167.061 120.443 168.216 120.19 169.372ZM22.9067 165.313C22.766 164.157 22.6534 162.973 22.569 161.789L23.2725 161.761C23.3288 162.917 23.4413 164.101 23.6102 165.228L22.9067 165.313ZM121.203 162.353L120.499 162.296C120.584 161.14 120.612 159.956 120.612 158.801H121.315C121.315 159.985 121.287 161.197 121.203 162.353ZM23.2162 158.237H22.5127C22.5127 157.053 22.569 155.869 22.6815 154.685L23.3851 154.741C23.2725 155.897 23.2162 157.081 23.2162 158.237ZM120.556 156.461C120.499 155.305 120.415 154.121 120.274 152.965L120.978 152.88C121.118 154.036 121.203 155.249 121.259 156.404L120.556 156.461ZM23.779 151.274L23.0755 151.161C23.2444 150.005 23.4695 148.821 23.7509 147.665L24.4263 147.834C24.173 148.962 23.9479 150.118 23.779 151.274ZM119.739 149.526C119.514 148.398 119.261 147.242 118.951 146.115L119.627 145.945C119.936 147.073 120.19 148.257 120.415 149.413L119.739 149.526ZM25.3268 144.451L24.6514 144.254C24.9891 143.126 25.3831 141.999 25.8052 140.899L26.4524 141.153C26.0584 142.224 25.6926 143.352 25.3268 144.451ZM117.938 142.788C117.544 141.689 117.122 140.589 116.672 139.546L117.319 139.264C117.798 140.335 118.22 141.463 118.614 142.563L117.938 142.788ZM27.8595 137.939L27.2122 137.629C27.7188 136.558 28.2534 135.515 28.8444 134.472L29.4635 134.81C28.9007 135.853 28.366 136.896 27.8595 137.939ZM115.181 136.36C114.646 135.317 114.083 134.303 113.464 133.316L114.055 132.949C114.674 133.964 115.265 134.979 115.8 136.022L115.181 136.36ZM31.2926 131.85L30.7017 131.455C31.3489 130.469 32.0525 129.51 32.756 128.58L33.3188 129.003C32.6153 129.933 31.9399 130.891 31.2926 131.85ZM111.522 130.412C110.847 129.482 110.115 128.552 109.384 127.649L109.918 127.198C110.678 128.1 111.41 129.059 112.085 130.017L111.522 130.412ZM35.5701 126.324L35.0354 125.845C35.8233 124.971 36.6394 124.097 37.4836 123.28L37.962 123.787C37.146 124.605 36.3299 125.451 35.5701 126.324ZM107.076 125.028C106.26 124.182 105.444 123.364 104.572 122.603L105.05 122.068C105.922 122.857 106.766 123.703 107.583 124.548L107.076 125.028ZM40.5791 121.447L40.1289 120.912C41.0294 120.151 41.958 119.418 42.9148 118.741L43.3369 119.305C42.3802 119.981 41.4515 120.714 40.5791 121.447ZM101.898 120.348C100.998 119.643 100.041 118.938 99.084 118.29L99.478 117.698C100.463 118.346 101.42 119.051 102.348 119.784L101.898 120.348ZM46.2355 117.331L45.8696 116.739C46.8546 116.119 47.8958 115.527 48.937 114.963L49.2747 115.584C48.2335 116.147 47.1922 116.739 46.2355 117.331ZM96.1011 116.458C95.088 115.866 94.0468 115.33 93.0056 114.822L93.3152 114.174C94.3845 114.681 95.4257 115.245 96.4388 115.837L96.1011 116.458ZM52.3983 114.089L52.1169 113.441C53.1863 112.962 54.3119 112.539 55.4094 112.144L55.6345 112.821C54.537 113.187 53.4395 113.638 52.3983 114.089ZM89.7975 113.413C88.7282 112.99 87.6026 112.595 86.5051 112.257L86.702 111.58C87.8277 111.947 88.9533 112.342 90.0508 112.765L89.7975 113.413ZM58.9551 111.75L58.7582 111.073C59.8838 110.763 61.0376 110.481 62.1913 110.255L62.332 110.96C61.2064 111.186 60.0808 111.44 58.9551 111.75ZM83.1563 111.327C82.0307 111.073 80.8769 110.819 79.7231 110.65L79.8357 109.945C80.9895 110.143 82.1714 110.368 83.297 110.622L83.1563 111.327ZM65.7934 110.396L65.709 109.692C66.8627 109.551 68.0728 109.438 69.2266 109.382L69.2547 110.086C68.1291 110.143 66.9471 110.255 65.7934 110.396ZM76.2618 110.199C75.108 110.086 73.9261 110.03 72.7723 110.002V109.297C73.9542 109.325 75.1361 109.382 76.3181 109.494L76.2618 110.199Z" fill="#9192FF"/>
<path d="M269.758 40.1442C263.201 40.1442 257.883 34.816 257.883 28.2475C257.883 21.679 263.201 16.3509 269.758 16.3509C276.315 16.3509 281.634 21.679 281.634 28.2475C281.634 34.816 276.315 40.1442 269.758 40.1442ZM269.758 16.8865C263.511 16.8865 258.417 21.9891 258.417 28.2475C258.417 34.5059 263.511 39.6085 269.758 39.6085C276.006 39.6085 281.099 34.5059 281.099 28.2475C281.127 21.9891 276.034 16.8865 269.758 16.8865Z" fill="#9192FF"/>
<path d="M393.296 82.8246V297.134C393.296 301.588 389.694 305.196 385.247 305.196H74.3469C69.9007 305.196 66.2705 301.588 66.2705 297.134V82.8246C66.2705 78.3704 69.8725 74.7338 74.3469 74.7338H385.219C389.666 74.762 393.296 78.3704 393.296 82.8246Z" fill="white"/>
<path d="M385.22 305.564H74.3477C69.7045 305.564 65.9336 301.786 65.9336 297.134V82.8255C65.9336 78.174 69.7045 74.3964 74.3477 74.3964H385.22C389.863 74.3964 393.634 78.174 393.634 82.8255V297.134C393.634 301.786 389.863 305.564 385.22 305.564ZM74.3477 75.1012C70.0984 75.1012 66.6371 78.5687 66.6371 82.8255V297.134C66.6371 301.391 70.0984 304.859 74.3477 304.859H385.22C389.469 304.859 392.931 301.391 392.931 297.134V82.8255C392.931 78.5687 389.469 75.1012 385.22 75.1012H74.3477Z" fill="#9192FF"/>
<path d="M393.296 82.8246V95.5389H66.2988V82.8246C66.2988 78.3704 69.9009 74.7338 74.3753 74.7338H385.248C389.666 74.762 393.296 78.3704 393.296 82.8246Z" fill="white"/>
<path d="M393.634 95.9062H65.9336V82.8255C65.9336 78.174 69.7045 74.3964 74.3477 74.3964H385.22C389.863 74.3964 393.634 78.174 393.634 82.8255V95.9062ZM66.6371 95.2015H392.931V82.8255C392.931 78.5687 389.469 75.1012 385.22 75.1012H74.3477C70.0984 75.1012 66.6371 78.5687 66.6371 82.8255V95.2015Z" fill="#9192FF"/>
<path d="M84.4507 88.9148C86.5178 88.9148 88.1935 87.2362 88.1935 85.1654C88.1935 83.0947 86.5178 81.416 84.4507 81.416C82.3837 81.416 80.708 83.0947 80.708 85.1654C80.708 87.2362 82.3837 88.9148 84.4507 88.9148Z" fill="#3335CF"/>
<path d="M98.7457 81.3878C96.6632 81.3878 95.0029 83.0793 95.0029 85.1372C95.0029 87.2234 96.6914 88.8866 98.7457 88.8866C100.828 88.8866 102.488 87.1952 102.488 85.1372C102.517 83.0793 100.828 81.3878 98.7457 81.3878Z" fill="#3335CF"/>
<path d="M113.07 88.9148C110.987 88.9148 109.327 87.2234 109.327 85.1654C109.327 83.0793 111.016 81.416 113.07 81.416C115.152 81.416 116.813 83.1075 116.813 85.1654C116.813 87.2234 115.124 88.9148 113.07 88.9148ZM113.07 82.0926C111.381 82.0926 110.031 83.4739 110.031 85.1372C110.031 86.8287 111.41 88.1819 113.07 88.1819C114.758 88.1819 116.109 86.8005 116.109 85.1372C116.109 83.4739 114.73 82.0926 113.07 82.0926Z" fill="#9192FF"/>
<path d="M205.372 89.3377H135.638C133.331 89.3377 131.474 87.4489 131.474 85.1654C131.474 82.8537 133.359 80.9931 135.638 80.9931H205.372C207.679 80.9931 209.536 82.8819 209.536 85.1654C209.565 87.4489 207.679 89.3377 205.372 89.3377ZM135.638 81.6697C133.725 81.6697 132.177 83.2202 132.177 85.1372C132.177 87.0542 133.725 88.6047 135.638 88.6047H205.372C207.285 88.6047 208.833 87.0542 208.833 85.1372C208.833 83.2202 207.285 81.6697 205.372 81.6697H135.638Z" fill="#9192FF"/>
<path d="M294.072 195.28C294.072 229.025 266.775 256.398 233.09 256.398C199.406 256.398 172.081 229.053 172.081 195.28C172.081 163.621 196.113 137.601 226.9 134.5L228.926 154.544C208.298 156.602 192.202 174.052 192.202 195.28C192.202 217.889 210.493 236.242 233.062 236.242C255.631 236.242 273.923 217.917 273.923 195.28C273.923 191.333 273.36 187.527 272.319 183.919L291.652 178.337C293.228 183.693 294.072 189.388 294.072 195.28Z" fill="#9192FF"/>
<path d="M233.063 244.614C260.261 244.614 282.309 222.527 282.309 195.28C282.309 168.033 260.261 145.946 233.063 145.946C205.865 145.946 183.816 168.033 183.816 195.28C183.816 222.527 205.865 244.614 233.063 244.614Z" fill="white"/>
<path opacity="0.5" d="M233.063 244.614C260.261 244.614 282.309 222.527 282.309 195.28C282.309 168.033 260.261 145.946 233.063 145.946C205.865 145.946 183.816 168.033 183.816 195.28C183.816 222.527 205.865 244.614 233.063 244.614Z" fill="#D1D1FF"/>
<path d="M233.063 230.237C252.334 230.237 267.957 214.586 267.957 195.28C267.957 175.974 252.334 160.323 233.063 160.323C213.791 160.323 198.168 175.974 198.168 195.28C198.168 214.586 213.791 230.237 233.063 230.237Z" fill="white"/>
<path d="M237.059 212.477V217.777H230.333V212.702C225.549 212.42 220.934 211.123 218.063 209.347L221.694 201.116C224.845 202.976 229.038 204.188 232.725 204.188C235.933 204.188 237.087 203.512 237.087 202.356C237.087 198.155 218.598 201.538 218.598 189.05C218.598 183.637 222.51 179.098 230.361 177.999V172.783H237.087V177.886C240.633 178.224 244.066 179.126 246.795 180.677L243.39 188.852C240.098 187.189 236.974 186.372 234.076 186.372C230.783 186.372 229.714 187.33 229.714 188.486C229.714 192.517 248.202 189.162 248.202 201.51C248.174 206.669 244.46 211.18 237.059 212.477Z" fill="#9192FF"/>
<path d="M450.198 32.9545H317.514V114.23H450.198V32.9545Z" fill="white"/>
<path d="M450.536 114.597H317.148V32.589H450.536V114.597ZM317.852 113.892H449.833V33.2937H317.852V113.892Z" fill="#9192FF"/>
<path d="M341.827 88.351H334.201V102.39H341.827V88.351Z" fill="#D1D1FF"/>
<path d="M357.109 81.9516H349.482V102.418H357.109V81.9516Z" fill="#D1D1FF"/>
<path d="M372.389 87.1952H364.763V102.418H372.389V87.1952Z" fill="#D1D1FF"/>
<path d="M387.669 76.4825H380.043V102.418H387.669V76.4825Z" fill="#D1D1FF"/>
<path d="M402.921 69.6321H395.295V102.418H402.921V69.6321Z" fill="#D1D1FF"/>
<path d="M418.201 59.8498H410.575V102.418H418.201V59.8498Z" fill="#D1D1FF"/>
<path d="M433.483 44.7675H425.856V102.39H433.483V44.7675Z" fill="#D1D1FF"/>
<path d="M340.28 51.618H334.201V58.4966H340.28V51.618Z" fill="#D1D1FF"/>
<path d="M390.764 54.8036H349.65V56.5796H390.764V54.8036Z" fill="#D1D1FF"/>
<path d="M330.796 155.446L322.382 132.188C312.898 135.628 306.116 144.733 306.116 155.446C306.116 169.09 317.176 180.169 330.796 180.169C344.416 180.169 355.475 169.09 355.475 155.446C355.475 151.33 354.462 147.468 352.689 144.057L330.796 155.446Z" fill="#EBEBFF"/>
<path d="M355.982 135.233C351.873 127.311 343.6 121.898 334.088 121.898C331.133 121.898 328.319 122.406 325.674 123.364L334.088 146.622L355.982 135.233Z" fill="#9192FF"/>
<path d="M365.747 234.691H307.354V290.369H365.747V234.691Z" fill="#EBEBFF"/>
<path d="M349.228 249.492H316.5V251.831H349.228V249.492Z" fill="white"/>
<path d="M349.228 256.539H316.5V258.879H349.228V256.539Z" fill="white"/>
<path d="M142.843 128.27H92.0771V214.253H142.843V128.27Z" fill="#EBEBFF"/>
<path d="M133.105 140.701H99.8145V171.232H133.105V140.701Z" fill="white"/>
<path d="M100.061 140.457L99.5859 140.977L132.88 171.513L133.355 170.993L100.061 140.457Z" fill="#EBEBFF"/>
<path d="M132.842 140.456L99.5527 170.992L100.028 171.512L133.317 140.976L132.842 140.456Z" fill="#EBEBFF"/>
<path d="M116.474 163.367H0.336914V240.018H116.474V163.367Z" fill="white"/>
<path d="M116.813 240.386H0V163.029H116.813V240.386ZM0.675381 239.709H116.137V163.706H0.675381V239.709Z" fill="#9192FF"/>
<path d="M12.5781 221.525L20.0636 207.43L35.5411 222.005L45.8688 191.925L65.089 213.068L77.7524 207.909L100.744 177.829" fill="white"/>
<path d="M35.7109 222.625L20.1771 207.994L12.8886 221.695L12.2695 221.357L19.9801 206.867L35.4013 221.357L45.729 191.249L65.2025 212.646L77.5564 207.599L100.463 177.604L101.026 178.055L77.9785 208.191L65.0056 213.491L64.8367 213.294L46.0105 192.602L35.7109 222.625Z" fill="#9192FF"/>
<path d="M20.1488 209.319C21.2211 209.319 22.0905 208.448 22.0905 207.374C22.0905 206.3 21.2211 205.429 20.1488 205.429C19.0764 205.429 18.207 206.3 18.207 207.374C18.207 208.448 19.0764 209.319 20.1488 209.319Z" fill="#9192FF"/>
<path d="M35.429 223.584C36.5014 223.584 37.3707 222.713 37.3707 221.639C37.3707 220.564 36.5014 219.693 35.429 219.693C34.3566 219.693 33.4873 220.564 33.4873 221.639C33.4873 222.713 34.3566 223.584 35.429 223.584Z" fill="#9192FF"/>
<path d="M45.9827 193.983C47.0551 193.983 47.9245 193.112 47.9245 192.038C47.9245 190.964 47.0551 190.093 45.9827 190.093C44.9104 190.093 44.041 190.964 44.041 192.038C44.041 193.112 44.9104 193.983 45.9827 193.983Z" fill="#9192FF"/>
<path d="M83.0151 175.603H33.7686V176.307H83.0151V175.603Z" fill="#9192FF"/>
<path d="M276.484 348.668C274.402 334.995 277.272 320.618 284.42 308.806C291.567 296.994 302.965 287.803 316.05 283.349C308.649 288.536 304.146 296.909 300.995 305.395C297.843 313.88 295.789 322.76 291.877 330.936C287.994 339.111 281.859 346.723 273.36 349.767L276.484 348.668Z" fill="#9192FF"/>
<path d="M274.43 348.781C274.148 332.994 271.081 317.235 265.425 302.491C263.427 297.247 261.007 292.032 257.095 288.001C253.183 283.997 247.499 281.347 241.983 282.334C248.85 287.493 252.396 295.95 254.422 304.295C256.42 312.64 257.208 321.322 260.022 329.442C262.836 337.561 268.239 345.37 276.315 348.273L274.43 348.781Z" fill="#9192FF"/>
<path d="M273.361 349.824C269.449 339.224 265.172 328.37 257.264 320.308C249.356 312.245 236.862 307.622 226.534 312.132C234.892 314.021 242.575 318.898 247.893 325.636C251.777 330.597 254.394 336.461 258.418 341.338C262.414 346.215 268.52 350.134 274.711 348.978L273.361 349.824Z" fill="#D1D1FF"/>
<path d="M272.094 349.091C270.49 337.476 268.886 325.664 270.574 314.049C272.263 302.434 277.75 290.848 287.571 284.449C282.14 289.777 280.311 297.868 280.311 305.507C280.311 313.119 281.859 320.702 281.971 328.314C282.084 335.926 280.592 344.045 275.442 349.655L272.094 349.091Z" fill="#D1D1FF"/>
<path d="M277.525 347.399C281.296 337.786 285.292 327.835 292.975 320.928C297.899 316.502 304.175 313.598 310.703 312.696C306.117 316.361 303.218 321.745 300.854 327.13C298.49 332.514 296.408 338.124 292.947 342.889C289.485 347.653 284.307 351.572 278.426 351.825L277.525 347.399Z" fill="#D1D1FF"/>
<path d="M296.631 376.633H254.364L247.863 344.072H303.16L296.631 376.633Z" fill="white"/>
<path d="M296.914 377H254.083L247.414 343.734H303.555L296.914 377ZM254.674 376.295H296.351L302.739 344.439H248.286L254.674 376.295Z" fill="#9192FF"/>
<path d="M372.303 357.041V376.634H346.948L358.542 367.161L359.161 355.208L372.303 357.041Z" fill="#D1D1FF"/>
<path d="M358.816 366.889L358.331 367.4L363.164 372.005L363.649 371.494L358.816 366.889Z" fill="#1B1B43"/>
<path d="M369.827 362.256H361.159V362.961H369.827V362.256Z" fill="#1B1B43"/>
<path d="M401.936 357.971L402.836 376.634H377.481L388.175 367.443V356.139L401.936 357.971Z" fill="#D1D1FF"/>
<path d="M388.421 367.157L387.955 367.685L391.899 371.175L392.365 370.646L388.421 367.157Z" fill="#1B1B43"/>
<path d="M399.628 362.594H391.073V363.299H399.628V362.594Z" fill="#1B1B43"/>
<path d="M374.864 244.473C375.286 283.49 378.523 321.915 384.714 359.662H406.072C401.626 330.795 399.628 295.725 402.105 249.266L386.683 236.608L374.864 244.473Z" fill="#FE5B52"/>
<path d="M357.952 249.632L348.271 292.709C345.935 303.055 345.795 313.767 347.793 324.198L354.575 359.381H375.934L369.461 313.203L384.91 242.81L357.952 249.632Z" fill="#FE5B52"/>
<path d="M376.299 290.904C376.243 290.03 375.033 270.212 374.892 267.703L369.32 265.673L369.574 265.025L375.596 267.224V267.477C375.596 267.9 376.524 282.983 377.003 290.876L376.299 290.904Z" fill="#BE443D"/>
<path d="M422.535 152.401L423.689 149.667C423.689 149.667 419.553 140.956 420.875 139.8C422.198 138.644 424.308 141.914 424.308 141.914C424.308 141.914 423.689 131.342 425.715 131.258C427.432 131.173 427.291 134.246 427.488 138.841C427.488 138.841 428.558 137.432 430.471 138.898C431.344 137.432 433.201 138.418 433.707 139.292C434.326 138.588 436.887 138.757 436.521 141.773C436.071 145.579 434.326 152.599 434.326 152.599L428.698 157.278L422.535 152.401Z" fill="#FFBC96"/>
<path d="M377.341 188.881L385.896 188.824C400.895 187.471 412.629 175.264 412.629 175.264L422.535 152.429L434.326 152.599L427.403 179.437C426.419 183.299 424.28 186.766 421.269 189.36L396.674 210.729L377.341 188.881Z" fill="#3335CF"/>
<path d="M353.899 208.304L357.952 249.632L402.077 249.238L400.557 199.452L377.341 188.881L361.272 195.675L353.899 208.304Z" fill="#3335CF"/>
<path d="M326.575 212.336C325.843 211.687 324.943 211.293 323.986 211.236C319.118 210.841 303.865 209.657 304.006 210.841C304.175 212.251 315.797 217.551 315.797 217.551C318.273 220.342 320.75 223.161 323.254 225.952L330.064 215.465L326.575 212.336Z" fill="#FFBC96"/>
<path d="M359.837 192.856C356.685 193.419 353.984 195.393 352.549 198.268L339.547 223.866L330.064 215.437L323.254 225.924C324.07 226.854 324.914 227.784 325.73 228.743C329.417 232.887 333.722 238.469 339.463 239.681C342.39 240.301 345.119 239.089 347.23 237.059C348.778 235.565 350.157 233.761 351.254 231.928L356.432 223.358L372.979 190.572L359.837 192.856Z" fill="#3335CF"/>
<path d="M354.239 208.274L353.539 208.342L356.008 233.763L356.708 233.695L354.239 208.274Z" fill="#D1D1FF"/>
<path d="M400.839 207.007L396.702 210.729L401.092 218.03L400.839 207.007Z" fill="#1B1B43"/>
<path d="M429.008 144.085C427.348 144.085 427.207 141.914 427.207 138.841H427.742C427.742 142.478 428.051 143.577 429.008 143.577C429.205 143.577 429.374 143.493 429.515 143.352C429.993 142.844 430.162 141.66 430.218 140.617C430.19 139.856 430.19 139.18 430.218 138.898H430.753C430.753 138.954 430.809 139.687 430.753 140.561C430.837 141.999 431.062 143.408 431.541 143.549C431.822 143.634 432.047 143.606 432.244 143.436C432.807 143.014 433.145 141.858 433.314 140.815C433.342 140.364 433.37 139.856 433.483 139.264L434.017 139.321C434.017 139.377 433.989 139.969 433.876 140.73C433.848 141.83 433.961 142.901 434.411 143.07C434.749 143.211 435.002 143.211 435.227 143.07C435.818 142.704 436.043 141.463 436.071 141.012L436.606 141.04C436.606 141.125 436.465 142.929 435.509 143.521C435.143 143.747 434.693 143.775 434.186 143.549C434.073 143.493 433.68 143.267 433.454 142.45C433.257 143.042 432.948 143.549 432.554 143.859C432.216 144.113 431.822 144.169 431.4 144.028C430.95 143.888 430.64 143.296 430.471 142.563C430.331 143.014 430.162 143.436 429.909 143.69C429.655 143.944 429.346 144.085 429.008 144.085Z" fill="#D28572"/>
<path d="M373.627 198.888C369.885 199.199 366.592 196.408 366.283 192.63L366.198 191.671L365.129 178.365L373.402 177.717L378.721 177.294L379.847 191.531C380.156 195.308 377.37 198.606 373.627 198.888Z" fill="#FFBC96"/>
<path d="M376.048 182.227C373.487 186.766 369.772 190.036 366.198 191.7L365.129 178.393L373.402 177.745L376.048 182.227Z" fill="#1B1B43"/>
<path d="M378.749 168.301L377.117 182.171C377.117 182.171 371.826 187.217 364.088 186.992C361.273 186.907 359.613 184.229 358.628 180.818C358.234 179.408 357.953 177.858 357.756 176.307C357.109 171.205 357.39 166.187 357.39 166.187L369.35 162.212L378.749 168.301Z" fill="#FFBC96"/>
<path d="M376.948 174.024C375.709 169.57 373.458 167.343 370.447 166.863C360.823 172.079 354.576 168.978 350.045 163.17C361.189 165.341 366.057 149.498 376.722 160.069C384.63 162.465 384.489 170.049 380.015 176.223L376.948 174.024Z" fill="#1B1B43"/>
<path d="M381.89 175.711C382.298 173.618 381.158 171.633 379.343 171.277C377.528 170.922 375.725 172.331 375.317 174.425C374.909 176.518 376.05 178.503 377.865 178.858C379.68 179.213 381.482 177.804 381.89 175.711Z" fill="#FFBC96"/>
<path d="M379.846 173.629C379.283 173.714 378.946 174.137 378.664 174.616C378.411 175.095 378.242 175.631 378.13 176.223H377.933C377.848 175.913 377.848 175.574 377.904 175.264C377.961 174.954 378.073 174.644 378.214 174.362C378.383 174.08 378.58 173.826 378.889 173.629C379.171 173.432 379.537 173.347 379.874 173.432L379.846 173.629Z" fill="#1B1B43"/>
<path d="M360.288 174.559C360.288 175.151 360.006 175.659 359.64 175.659C359.275 175.659 358.993 175.18 358.993 174.559C358.993 173.939 359.275 173.46 359.64 173.46C360.006 173.488 360.288 173.967 360.288 174.559Z" fill="#1B1B43"/>
<path d="M365.606 174.137C365.606 174.785 365.297 175.321 364.903 175.321C364.509 175.321 364.199 174.785 364.199 174.137C364.199 173.488 364.509 172.953 364.903 172.953C365.297 172.953 365.606 173.488 365.606 174.137Z" fill="#1B1B43"/>
<path d="M361.751 175.462C361.751 175.659 361.666 175.884 361.582 176.054C361.469 176.223 361.357 176.392 361.216 176.505C360.963 176.787 360.737 177.04 360.681 177.294C360.625 177.548 360.709 177.83 360.906 178.083C361.103 178.337 361.385 178.563 361.666 178.845L361.554 179.014C361.216 178.873 360.878 178.675 360.569 178.393C360.428 178.252 360.287 178.083 360.203 177.858C360.118 177.632 360.09 177.407 360.146 177.153C360.203 176.928 360.315 176.73 360.456 176.561C360.597 176.392 360.737 176.279 360.878 176.166C361.16 175.941 361.413 175.715 361.525 175.405L361.751 175.462Z" fill="#1B1B43"/>
<path d="M362.258 181.325C362.989 181.156 363.693 180.931 364.312 180.536C364.622 180.339 364.903 180.141 365.184 179.888C365.466 179.634 365.719 179.38 366.001 179.126L366.169 179.239C365.832 179.944 365.269 180.564 364.565 180.987C363.862 181.41 363.046 181.607 362.258 181.523V181.325Z" fill="#1B1B43"/>
<path d="M364.059 171.205C363.918 171.994 366.394 172.248 366.844 172.332C367.21 172.389 367.745 172.445 367.829 171.881C367.914 171.177 367.182 171.12 366.732 171.007C366.338 170.923 364.227 170.444 364.059 171.205Z" fill="#1B1B43"/>
<path d="M360.597 171.684C360.597 172.445 358.599 172.53 358.233 172.586C357.924 172.614 357.53 172.614 357.558 172.079C357.586 171.402 358.205 171.402 358.543 171.317C358.881 171.289 360.625 170.979 360.597 171.684Z" fill="#1B1B43"/>
<path opacity="0.2" d="M369.912 179.07C371.327 179.07 372.473 177.921 372.473 176.505C372.473 175.088 371.327 173.939 369.912 173.939C368.498 173.939 367.352 175.088 367.352 176.505C367.352 177.921 368.498 179.07 369.912 179.07Z" fill="#FE5B52"/>
<path opacity="0.2" d="M359.669 178.788C359.669 179.634 359.275 180.367 358.628 180.818C358.234 179.408 357.953 177.858 357.756 176.307C358.882 176.589 359.669 177.604 359.669 178.788Z" fill="#FE5B52"/>
<path d="M177.906 261.106H128.969V264.405H177.906V261.106Z" fill="#9192FF"/>
<path d="M177.906 261.106H136.567L152.214 222.879H193.553L177.906 261.106Z" fill="white"/>
<path d="M178.131 261.473H136.032L151.988 222.541H194.087L178.131 261.473ZM137.102 260.768H177.681L193.046 223.246H152.467L137.102 260.768Z" fill="#9192FF"/>
<path d="M174.332 257.892H141.857L154.155 227.841H186.63L174.332 257.892Z" fill="#EBEBFF"/>
<path d="M161.444 265.476H160.74V376.831H161.444V265.476Z" fill="#1B1B43"/>
<path d="M200.588 264.405H121.625V270.691H200.588V264.405Z" fill="#D1D1FF"/>
<path d="M57.9135 312.245H57.21V376.831H57.9135V312.245Z" fill="#1B1B43"/>
<path d="M76.8525 315.233H38.2432C39.0592 311.315 42.5206 308.496 46.5166 308.496H68.579C72.575 308.496 76.0364 311.315 76.8525 315.233Z" fill="#D1D1FF"/>
<path d="M67.5656 376.634H47.5293C47.5293 374.181 49.4992 372.207 51.9474 372.207H63.1756C65.5957 372.207 67.5656 374.181 67.5656 376.634Z" fill="#D1D1FF"/>
<path d="M87.3478 216.423C88.3328 217.833 89.7398 219.863 89.9086 221.61C90.1338 224.176 86.0534 222.372 85.9971 222.597L87.3478 216.423Z" fill="#D28572"/>
<path d="M81.1012 219.44H68.1846V238.412H81.1012V219.44Z" fill="#FFBC96"/>
<path d="M81.1021 222.682V236.213C77.0217 233.648 73.5041 229.842 70.4648 225.444L81.1021 222.682Z" fill="#1B1B43"/>
<path d="M88.3614 217.579C87.9674 224.119 85.4347 231.534 78.5683 229.729C73.1653 228.292 67.2275 223.753 67.2275 217.184C67.2275 210.616 71.7582 205.288 77.3583 205.288C80.8477 205.288 85.2659 206.979 87.3201 210.278C88.5865 212.223 88.5302 214.704 88.3614 217.579Z" fill="#FFBC96"/>
<path d="M76.9362 215.662C78.7654 210.813 82.9583 210.334 82.9583 210.334C82.9583 210.334 92.667 219.947 92.0479 210.024C91.5695 202.13 83.887 202.892 83.887 202.892C80.1161 197.986 74.094 199.903 71.899 202.751C69.704 205.598 70.4919 203.963 65.314 205.795C60.1361 207.656 62.8939 215.521 61.9934 216.113C55.0989 216.113 56.3933 222.935 56.3933 222.935L72.6869 228.264L76.5985 217.523L76.9362 215.662Z" fill="#1B1B43"/>
<path d="M78.0299 220.801C79.3758 220.022 79.6479 217.97 78.6377 216.217C77.6275 214.465 75.7175 213.675 74.3716 214.453C73.0257 215.232 72.7535 217.284 73.7637 219.037C74.7739 220.789 76.684 221.579 78.0299 220.801Z" fill="#FFBC96"/>
<path d="M76.5425 218.34C76.3174 217.889 76.1204 217.466 75.8108 217.156C75.6701 217.015 75.4731 216.874 75.2761 216.762C75.0792 216.649 74.854 216.564 74.6289 216.451L74.657 216.254C74.9103 216.226 75.1636 216.282 75.445 216.367C75.6983 216.451 75.9515 216.592 76.1485 216.818C76.3455 217.015 76.4862 217.269 76.5706 217.523C76.6551 217.776 76.7113 218.03 76.7113 218.284L76.5425 218.34Z" fill="#1B1B43"/>
<path d="M70.4644 206.582C73.4917 206.439 75.82 203.662 75.6648 200.38C75.5096 197.099 72.9296 194.555 69.9023 194.699C66.875 194.842 64.5467 197.619 64.7019 200.901C64.8571 204.182 67.4371 206.726 70.4644 206.582Z" fill="#1B1B43"/>
<path opacity="0.2" d="M82.7616 223.781C84.1292 223.781 85.2379 222.67 85.2379 221.3C85.2379 219.93 84.1292 218.82 82.7616 218.82C81.3939 218.82 80.2852 219.93 80.2852 221.3C80.2852 222.67 81.3939 223.781 82.7616 223.781Z" fill="#FE5B52"/>
<path d="M92.4138 285.069L51.0186 279.769L58.8136 238.553C59.3483 235.678 61.29 233.225 63.9352 232.013C66.1583 230.998 68.691 230.942 70.9704 231.844L85.069 238.13C87.7705 239.343 89.656 241.908 89.9937 244.84L90.7816 258.287L91.6821 273.539L92.4138 285.069Z" fill="#FFA121"/>
<path d="M130.291 255.468L141.238 252.254C142.026 252.029 142.87 252.141 143.574 252.593C146.585 254.594 154.549 260.232 152.551 262.544C151.538 263.7 142.392 260.993 142.392 260.993L129.138 264.715L130.291 255.468Z" fill="#FFBC96"/>
<path d="M91.7389 273.567C88.2775 269.169 86.2514 263.361 85.5479 256.173L90.8102 258.315L91.7389 273.567Z" fill="#1B1B43"/>
<path d="M83.8591 237.623L85.5195 238.328C88.9245 239.794 91.9637 241.964 94.4401 244.699L108.032 259.697L130.32 255.468L133.246 267.449L105.246 276.217C103.023 276.611 100.772 275.85 99.2522 274.187L79.0752 252.17L83.8591 237.623Z" fill="#FFA121"/>
<path d="M107.751 259.95C107.694 259.866 101.053 252.649 95.3124 246.193C89.628 239.822 80.9887 236.721 80.9043 236.693L81.1294 236.016C81.2138 236.044 90.0219 239.202 95.819 245.714C101.56 252.17 108.173 259.387 108.257 259.443L107.751 259.95Z" fill="#1B1B43"/>
<path d="M80.7221 254.501L80.2168 254.992L98.9944 274.409L99.4997 273.918L80.7221 254.501Z" fill="#1B1B43"/>
<path d="M90.9226 347.399L82.002 364.821L104.543 376.436L98.5488 362.679L103.445 351.769L90.9226 347.399Z" fill="#D1D1FF"/>
<path d="M98.4341 362.344L92.0361 364.231L92.2348 364.907L98.6327 363.02L98.4341 362.344Z" fill="#1B1B43"/>
<path d="M104.964 358.845L84.5342 351.205L98.5202 307.593C100.912 301.138 108.341 297.952 115.067 300.461C121.793 302.97 125.31 310.243 122.918 316.699L104.964 358.845Z" fill="#26289C"/>
<path d="M124.776 355.913L126.774 376.634H152.129L140.535 367.161L137.806 355.208L124.776 355.913Z" fill="#D1D1FF"/>
<path d="M140.362 366.824L134.349 370.145L134.688 370.762L140.701 367.441L140.362 366.824Z" fill="#1B1B43"/>
<path d="M143.068 358.366L120.893 361.889L105.725 317.178L102.967 309.031L65.2863 309.341C55.9717 309.567 48.5425 301.56 49.4711 292.257L51.047 279.797L88.3337 284.505L112.844 287.211C123.06 288.987 126.183 295.161 128.294 303.111L143.068 358.366Z" fill="#3335CF"/>
<path d="M105.753 317.178L102.995 309.031L108.089 308.862C108.539 311.935 107.329 315.374 105.753 317.178Z" fill="#1B1B43"/>
<path d="M442.065 376.295H15.0273V377H442.065V376.295Z" fill="#1B1B43"/>
</g>
<defs>
<clipPath id="clip0">
<rect width="465" height="377" fill="white"/>
</clipPath>
</defs>
</svg>
