<svg xmlns="http://www.w3.org/2000/svg" xmlns:xlink="http://www.w3.org/1999/xlink" width="151" height="164" fill="none" xmlns:v="https://vecta.io/nano"><path d="M76.293 161.786L8.882 94.573c-1.11-1.107-1.11-2.847 0-3.796l67.411-67.055c1.11-1.107 2.855-1.107 3.807 0l67.252 67.055c1.11 1.107 1.11 2.847 0 3.796L80.1 161.628c-1.11 1.107-2.855 1.107-3.807.158z" stroke="#ffaf00" stroke-width="1.771" stroke-miterlimit="10"/><g fill="#ff5c35"><path d="M79.624 3.163c.876 0 1.586-.708 1.586-1.581S80.5 0 79.624 0s-1.586.708-1.586 1.581.71 1.581 1.586 1.581zm18.558 16.922c-.634.633-1.586.633-2.221 0a1.52 1.52 0 0 1 0-2.214c.635-.632 1.586-.633 2.221 0s.634 1.582 0 2.214zm17.447 17.396c-.634.633-1.586.633-2.22 0a1.52 1.52 0 0 1 0-2.214c.634-.633 1.586-.633 2.22 0a1.52 1.52 0 0 1 0 2.214zm17.448 17.397c-.635.633-1.586.633-2.221 0s-.634-1.581 0-2.214 1.586-.633 2.221 0 .634 1.581 0 2.214zm16.337 17.87c.876 0 1.586-.708 1.586-1.582s-.71-1.581-1.586-1.581-1.586.708-1.586 1.581.71 1.582 1.586 1.582zM65.032 18.187c-.634.633-1.586.633-2.221 0s-.634-1.582 0-2.214 1.586-.633 2.221 0a1.52 1.52 0 0 1 0 2.214z"/><use xlink:href="#B"/><use xlink:href="#C"/><use xlink:href="#C" x="17.448" y="17.397"/><path d="M133.711 88.247c.876 0 1.586-.708 1.586-1.582s-.71-1.581-1.586-1.581-1.586.708-1.586 1.581.71 1.582 1.586 1.582zM49.487 33.844c-.634.633-1.586.633-2.221 0a1.52 1.52 0 0 1 0-2.214c.635-.633 1.586-.633 2.221 0 .634.474.634 1.581 0 2.214z"/><use xlink:href="#B" x="-15.544" y="15.657"/><use xlink:href="#B" x="1.903" y="33.053"/><path d="M100.72 86.507c.876 0 1.586-.708 1.586-1.581s-.71-1.582-1.586-1.582-1.587.708-1.587 1.582.71 1.581 1.587 1.581zm18.557 16.922c-.634.633-1.586.633-2.22 0a1.52 1.52 0 0 1 0-2.214c.634-.632 1.586-.632 2.22 0a1.52 1.52 0 0 1 0 2.214zM33.943 49.342c-.635.633-1.586.633-2.221 0s-.634-1.581 0-2.214 1.586-.633 2.221 0 .634 1.581 0 2.214zm17.448 17.397c-.634.633-1.586.633-2.221 0a1.52 1.52 0 0 1 0-2.214c.635-.633 1.586-.633 2.221 0s.634 1.582 0 2.214z"/><use xlink:href="#D"/><path d="M86.286 101.531c-.634.633-1.586.633-2.221 0a1.52 1.52 0 0 1 0-2.214c.635-.633 1.586-.633 2.221 0s.634 1.582 0 2.214zm17.447 17.397c-.634.632-1.586.632-2.22 0a1.52 1.52 0 0 1 0-2.214c.634-.633 1.586-.633 2.22 0a1.52 1.52 0 0 1 0 2.214zM18.241 64.841c-.634.633-1.586.633-2.221 0s-.634-1.582 0-2.214 1.586-.633 2.221 0 .634 1.581 0 2.214z"/><use xlink:href="#C" x="-64.238" y="29.258"/><use xlink:href="#D" x="-15.703" y="15.499"/><use xlink:href="#C" x="-29.343" y="64.05"/><path d="M88.031 134.585c-.635.632-1.586.632-2.221 0s-.635-1.582 0-2.215 1.586-.632 2.221 0c.634.475.634 1.582 0 2.215zM2.696 80.498c-.634.633-1.586.633-2.221 0s-.634-1.582 0-2.214 1.586-.633 2.221 0c.634.474.634 1.581 0 2.214z"/><use xlink:href="#B" x="-62.335" y="62.311"/><path d="M36.481 115.765c.876 0 1.586-.709 1.586-1.582s-.71-1.581-1.586-1.581-1.586.708-1.586 1.581.71 1.582 1.586 1.582z"/><use xlink:href="#C" x="-44.887" y="79.707"/><path d="M72.487 150.083c-.635.633-1.586.633-2.221 0s-.635-1.581 0-2.214 1.586-.633 2.221 0 .634 1.581 0 2.214z"/></g><defs ><path id="B" d="M81.369 36.058c.876 0 1.586-.708 1.586-1.581s-.71-1.581-1.586-1.581-1.586.708-1.586 1.581.71 1.581 1.586 1.581z"/><path id="C" d="M98.816 53.454c.876 0 1.586-.708 1.586-1.581s-.71-1.582-1.586-1.582-1.586.708-1.586 1.582.71 1.581 1.586 1.581z"/><path id="D" d="M67.728 84.609c.876 0 1.586-.708 1.586-1.582s-.71-1.582-1.586-1.582-1.586.708-1.586 1.582.71 1.582 1.586 1.582z"/></defs></svg>