<svg width="66" height="66" viewBox="0 0 66 66" fill="none" xmlns="http://www.w3.org/2000/svg">
<g clip-path="url(#clip0)">
<path d="M41.7999 65.0998C39.2999 65.0998 36.9 64.1998 35 62.2998C31.2 58.4998 31.2 52.4998 35 48.6998C40.0999 43.5998 40.0999 35.1998 35 30.0998C29.9 24.9998 21.5999 24.9998 16.4 30.0998C12.5999 33.8998 6.59995 33.8998 2.79995 30.0998C-1.00005 26.2998 -1.00005 20.2998 2.79995 16.4998C15.4 3.89981 35.8999 3.89981 48.5999 16.4998C61.2 29.0998 61.2 49.5998 48.5999 62.2998C46.6999 64.0998 44.2 65.0998 41.7999 65.0998Z" fill="#FFAF00"/>
<path d="M47.4999 59.3C44.9999 59.3 42.5999 58.4 40.6999 56.5C36.8999 52.7 36.8999 46.7 40.6999 42.9C45.7999 37.8 45.7999 29.4 40.6999 24.3C35.5999 19.2 27.2999 19.2 22.0999 24.3C18.2999 28.1 12.2999 28.1 8.4999 24.3C4.6999 20.5 4.6999 14.5 8.4999 10.7C21.0999 -1.9 41.5999 -1.9 54.2999 10.7C66.8999 23.3 66.8999 43.8 54.2999 56.5C52.4999 58.4 49.9999 59.3 47.4999 59.3Z" stroke="#010101" stroke-width="2.5624" stroke-miterlimit="10"/>
</g>
<defs>
<clipPath id="clip0">
<rect width="65.1" height="65.1" fill="white"/>
</clipPath>
</defs>
</svg>
