<svg xmlns="http://www.w3.org/2000/svg" width="138" height="145" fill="none"  xmlns:v="https://vecta.io/nano"><style><![CDATA[.B{stroke-width:1.153}.C{stroke-miterlimit:10}.D{stroke-linecap:round}.E{stroke-linejoin:round}.F{stroke:#fd0}.G{stroke:#ffaf00}]]></style><path d="M37.117 116.326l5.574 5.708m-24.88-25.005l10.333 10.464m7.206-9.105l38.885 38.866M15.5 78.548l7.886 7.882" class="B C D E F"/><path d="M63.222 110.075l34.262 34.246M11.693 58.435l36.438 36.42" class="G B C D E"/><path d="M40.244 70.801l60.503 60.338M15.228 45.797l12.78 12.774m62.134 45.796l14.548 14.541M.816 15.084l74.099 74.063" class="F B C D E"/><path d="M60.231 58.163l72.332 72.432M28.28 26.228l16.723 16.851" class="G B C D E"/><path d="M74.235 55.989l46.771 46.748M26.512 8.29l34.534 34.517" class="F B C D E"/><path d="M112.847 78.276l24.337 24.461M47.586 13.182l47.45 47.292" class="G B C D E"/><path d="M89.19 38.323l32.903 33.023M51.529.815l24.745 24.597" class="F B C D E"/><path d="M118.422 51.369l12.916 12.91M71.243 4.213l32.631 32.615" class="G B C D E"/><path d="M111.76 28.538l7.885 7.882M98.028 14.677l5.438 5.436" class="F B C D E"/></svg>