<svg width="547" height="377" viewBox="0 0 547 377" fill="none" xmlns="http://www.w3.org/2000/svg">
<g clip-path="url(#clip0)">
<path d="M86.9338 361.092C104.371 346.825 106.646 322.71 104.245 301.499C103.866 297.964 103.866 294.176 101.97 291.146C99.9486 288.116 95.7788 286.348 92.7463 288.116C90.2191 289.631 89.2082 292.787 87.9447 295.439C86.1757 298.974 83.5222 302.004 80.1105 304.15C77.9625 305.539 75.1826 306.423 72.7818 305.413C69.4965 304.024 68.8648 299.731 68.612 296.196C68.1066 289.631 67.6012 283.066 67.0957 276.374C66.843 272.839 66.5903 269.177 65.2004 266.021C63.8105 262.738 61.0306 259.835 57.619 259.203C54.081 258.572 50.0375 260.845 49.6585 264.38C49.5321 265.895 49.9112 267.284 49.9112 268.799C49.9112 270.314 49.4058 271.955 48.0158 272.46C46.6259 272.965 45.1096 272.081 43.9724 271.198C39.929 267.915 37.1491 263.496 34.3693 259.203C31.5894 254.784 28.9359 250.365 25.2715 246.704C21.6072 243.043 16.6793 240.391 11.4986 240.517C6.31798 240.644 1.13733 244.179 0.252833 249.355C-0.631666 254.406 2.77998 259.203 6.31798 262.991C11.625 268.546 17.6901 273.47 24.2607 277.258C25.3979 278.015 26.7878 278.773 27.2933 280.035C28.3041 282.308 26.156 284.833 23.8816 285.843C21.2281 286.98 18.3219 286.853 15.542 287.485C12.7622 287.99 9.85598 289.505 8.97147 292.156C7.83426 295.944 11.1195 299.479 14.4048 301.625C20.849 306.044 28.0514 309.453 35.6328 311.473C38.2863 312.231 41.1925 312.862 43.467 314.503C45.7414 316.145 47.2577 319.175 46.2468 321.826C45.1096 324.478 41.9507 325.488 39.1708 325.235C36.391 324.983 33.7375 323.72 31.084 322.962C26.0297 321.574 19.7118 322.331 16.8056 326.876C14.9103 329.78 15.0366 333.694 16.4265 336.851C17.6901 340.007 20.0909 342.658 22.618 345.184C31.2103 353.643 41.9507 360.208 53.7019 363.112C65.3268 366.016 75.9408 366.142 86.9338 361.092Z" fill="#EBEBEB"/>
<path d="M88.5764 376.874C87.0601 368.541 84.4066 358.693 80.3631 348.214C76.3197 337.734 70.8864 326.624 64.8212 315.135C63.3049 312.231 61.7887 309.453 60.2724 306.675C58.7561 303.898 57.2398 301.12 55.7235 298.595C52.5646 293.419 49.0266 288.621 45.6149 284.202C42.2033 279.783 38.6653 275.743 35.5064 271.955C32.2211 268.167 29.1885 264.632 26.1559 261.602C20.2172 255.542 14.9102 251.123 11.1194 248.219C9.22409 246.83 7.70781 245.694 6.69695 245.063C6.19152 244.684 5.81245 244.431 5.55974 244.305C5.30702 244.179 5.18066 244.053 5.18066 244.053C5.18066 244.053 5.30702 244.179 5.55974 244.305C5.81245 244.558 6.19152 244.81 6.69695 245.189C7.70781 245.946 9.22409 246.956 11.1194 248.472C14.9102 251.375 20.2172 255.794 26.0296 261.855C28.9358 264.885 32.0947 268.42 35.2537 272.208C38.5389 275.995 41.9506 280.035 45.3622 284.581C48.7739 289 52.3119 293.797 55.4708 298.974C57.1134 301.625 58.5034 304.277 60.0197 307.054C61.5359 309.832 63.0522 312.609 64.5685 315.513C70.6337 327.003 76.067 338.113 80.1104 348.466C84.1539 358.945 86.9337 368.667 88.45 377" fill="#E0E0E0"/>
<path d="M55.4707 298.595C55.4707 298.595 55.5971 298.09 55.7234 297.08C55.8498 296.07 55.9761 294.681 55.9761 292.914C56.2288 289.378 56.3552 284.454 56.4816 279.025C56.6079 273.596 56.8606 268.672 57.1133 265.137C57.2397 263.37 57.3661 261.981 57.4924 260.971C57.6188 259.961 57.6188 259.456 57.6188 259.456C57.6188 259.456 57.4924 259.961 57.3661 260.971C57.2397 261.981 56.987 263.37 56.8606 265.137C56.4816 268.672 56.2288 273.596 56.1025 279.025C55.9761 284.454 55.8498 289.252 55.8498 292.914C55.8498 294.681 55.7234 296.07 55.7234 297.08C55.4707 297.964 55.4707 298.595 55.4707 298.595Z" fill="#E0E0E0"/>
<path d="M8.71875 293.924C8.71875 293.924 8.84511 293.924 9.22418 293.924C9.60325 293.924 10.1087 293.924 10.6141 293.924C11.7513 293.924 13.5203 293.924 15.6684 293.924C19.9645 294.05 25.777 294.302 32.2212 295.06C38.6654 295.691 44.4778 296.575 48.774 297.333C50.922 297.711 52.5647 298.09 53.7019 298.216C54.2073 298.343 54.7127 298.343 55.0918 298.469C55.3445 298.469 55.5972 298.595 55.5972 298.469C55.5972 298.469 55.4709 298.343 55.0918 298.343C54.7127 298.216 54.3337 298.09 53.7019 297.964C52.5647 297.711 50.922 297.333 48.774 296.828C44.6042 295.944 38.7917 295.06 32.2212 294.429C25.777 293.797 19.8382 293.545 15.542 293.545C13.394 293.545 11.625 293.545 10.4878 293.671C9.98232 293.671 9.47689 293.797 9.09782 293.797C8.84511 293.797 8.71875 293.797 8.71875 293.924Z" fill="#E0E0E0"/>
<path d="M79.7314 347.456C79.7314 347.456 79.8578 347.204 79.9842 346.825C80.1105 346.32 80.3632 345.815 80.6159 345.057C81.1214 343.542 81.8795 341.396 82.764 338.744C84.533 333.315 86.8074 325.866 89.2082 317.533C91.609 309.201 93.7571 301.625 95.3997 296.196C96.2842 293.545 96.916 291.399 97.4214 289.757C97.6742 289 97.8005 288.495 97.9269 287.99C98.0532 287.611 98.0532 287.358 98.0532 287.358C98.0532 287.358 97.9269 287.611 97.8005 287.99C97.6742 288.495 97.4214 289 97.1687 289.757C96.6633 291.272 95.9052 293.419 95.0207 296.07C93.2517 301.499 90.9772 308.948 88.5764 317.281C86.1757 325.614 84.0276 333.189 82.3849 338.618C81.5004 341.27 80.8687 343.416 80.3632 345.057C80.1105 345.815 79.9842 346.32 79.8578 346.825C79.7314 347.204 79.7314 347.456 79.7314 347.456Z" fill="#E0E0E0"/>
<path d="M16.8057 333.063C16.8057 333.063 17.0584 333.189 17.4374 333.189C17.9429 333.315 18.5747 333.442 19.2064 333.568C20.8491 333.947 23.1235 334.452 25.9034 335.083C31.5894 336.346 39.4236 338.239 48.0159 340.386C56.6082 342.532 64.5687 344.3 70.2547 345.562C73.1609 346.194 75.4354 346.699 77.078 346.951C77.8362 347.077 78.4679 347.204 78.9734 347.33C79.3524 347.456 79.6052 347.456 79.6052 347.456C79.6052 347.456 79.3524 347.33 78.9734 347.33C78.4679 347.204 77.8362 347.077 77.2044 346.951C75.5617 346.572 73.2873 346.067 70.5074 345.436C64.8214 344.173 56.9872 342.28 48.3949 340.133C39.8027 337.987 31.8422 336.219 26.1561 334.957C23.2499 334.326 20.9754 333.821 19.3328 333.568C18.5747 333.442 17.9429 333.315 17.4374 333.189C17.0584 333.063 16.8057 332.937 16.8057 333.063Z" fill="#E0E0E0"/>
<path d="M253.067 0.367457L161.712 27.8301L180.241 89.3695L271.596 61.9069L253.067 0.367457Z" fill="white"/>
<path d="M271.541 61.8654C271.541 61.8654 271.415 61.4866 271.162 60.7291C270.909 59.9715 270.53 58.8352 270.151 57.4464C269.267 54.5425 268.003 50.3761 266.361 45.0733C263.075 34.3416 258.4 19.0646 252.714 0.378771L253.093 0.505026C227.822 8.08038 196.106 17.6758 161.737 28.0288L161.99 27.65C168.56 49.6186 174.878 70.4508 180.438 89.1366L180.059 88.8841C206.973 80.8038 229.717 74.1122 245.891 69.3145C253.978 66.9156 260.295 65.0218 264.718 63.7592C266.866 63.1279 268.635 62.6229 269.772 62.2441C270.278 62.1179 270.783 61.9916 271.036 61.8654C271.415 61.8654 271.541 61.8654 271.541 61.8654C271.541 61.8654 271.415 61.8654 271.162 61.9916C270.909 62.1179 270.404 62.2441 269.899 62.3704C268.761 62.7492 267.119 63.2542 264.971 63.8855C260.548 65.2743 254.23 67.1681 246.27 69.567C230.096 74.491 207.225 81.435 180.311 89.6417L180.059 89.7679L179.932 89.5154C174.246 70.8295 168.055 49.8711 161.358 28.0288L161.231 27.7763L161.484 27.65C195.853 17.2971 227.695 7.82787 252.84 0.252515L253.093 0.126259L253.219 0.378771C258.779 19.1909 263.454 34.5941 266.613 45.3259C268.13 50.6286 269.393 54.795 270.278 57.6989C270.657 59.0877 271.036 60.224 271.162 60.9816C271.415 61.4866 271.541 61.8654 271.541 61.8654Z" fill="#E0E0E0"/>
<path d="M252.967 0.378769C252.967 0.378769 252.967 0.505025 252.84 0.631281C252.714 0.883792 252.588 1.1363 252.461 1.38882C252.082 2.14635 251.45 3.1564 250.819 4.41896C249.302 7.07033 247.154 10.7317 244.501 15.4032C239.067 24.6199 231.486 37.498 223.146 51.6386L223.02 51.8912L222.767 51.7649C221.883 51.3861 220.872 51.0074 219.988 50.6286C203.94 44.3158 189.409 38.7606 178.795 34.5941C173.614 32.574 169.318 30.8064 166.412 29.6701C165.022 29.0388 163.885 28.6601 163 28.2813C162.621 28.1551 162.369 28.0288 162.116 27.9025C161.863 27.7763 161.863 27.7763 161.863 27.7763C161.863 27.7763 161.99 27.7763 162.116 27.9025C162.369 28.0288 162.621 28.0288 163 28.1551C163.885 28.4076 165.022 28.9126 166.412 29.4176C169.445 30.5539 173.741 32.1952 178.921 34.2153C189.535 38.2555 204.067 43.937 220.114 50.1236C221.125 50.5023 222.009 50.8811 222.894 51.2599L222.515 51.3861C230.981 37.2455 238.562 24.4936 244.122 15.1507C246.902 10.6055 249.05 6.94407 250.692 4.2927C251.45 3.03014 252.082 2.0201 252.461 1.38882C252.714 1.1363 252.84 0.883792 252.967 0.631281C252.967 0.378769 252.967 0.378769 252.967 0.378769Z" fill="#E0E0E0"/>
<path d="M518.822 246.073C518.822 246.073 512.883 240.265 501.385 254.911C489.886 269.556 484.832 278.268 484.832 278.268C484.832 278.268 481.926 281.298 480.031 278.52C478.135 275.869 476.114 268.799 471.944 269.177C467.521 269.556 465.247 273.849 464.741 280.793C464.236 287.737 462.341 302.888 462.214 304.277C462.088 305.665 460.951 307.433 459.308 305.792C457.665 304.15 449.452 290.262 443.134 294.555C436.816 298.848 438.333 318.417 438.459 320.564C438.585 322.71 438.08 323.468 436.943 323.846C435.932 324.099 433.531 319.175 431.004 315.387C428.477 311.473 424.939 307.433 421.401 310.337C417.989 313.115 414.325 326.876 423.043 352.001L427.845 363.364L440.228 365.132C466.889 367.278 479.272 360.334 481.041 356.294C482.937 352.254 478.009 349.729 473.713 348.34C469.417 346.951 463.983 345.815 463.983 344.805C463.983 343.668 464.615 342.911 466.763 342.532C468.911 342.153 488.244 338.744 490.771 331.548C493.298 324.351 477.756 319.806 475.861 318.67C473.839 317.533 475.355 316.018 476.619 315.513C477.883 315.008 492.161 309.453 498.731 307.181C505.302 304.908 508.966 301.625 508.208 297.333C507.45 293.166 500.248 293.04 497.215 291.904C494.183 290.767 496.331 287.232 496.331 287.232C496.331 287.232 503.533 280.162 514.905 265.39C526.151 250.492 518.822 246.199 518.822 246.199" fill="#EBEBEB"/>
<path d="M508.461 259.203C508.461 259.203 508.461 259.33 508.208 259.582C508.082 259.835 507.829 260.087 507.576 260.466C506.944 261.223 506.186 262.486 505.049 263.875C502.901 266.905 499.616 271.071 495.572 276.374C487.612 286.853 476.366 301.246 463.857 317.155C451.474 333.063 440.228 347.33 432.015 357.809C427.971 362.986 424.686 367.152 422.411 370.182C421.274 371.571 420.39 372.707 419.758 373.591C419.505 373.97 419.253 374.222 419 374.475C418.873 374.727 418.747 374.727 418.747 374.727C418.747 374.727 418.747 374.601 419 374.349C419.126 374.096 419.379 373.844 419.632 373.465C420.263 372.707 421.022 371.445 422.159 370.056C424.307 367.026 427.592 362.859 431.636 357.557C439.596 347.077 450.842 332.684 463.351 316.776C475.734 300.868 486.98 286.601 495.193 276.122C499.237 270.945 502.522 266.779 504.796 263.748C505.933 262.36 506.818 261.223 507.45 260.34C507.702 259.961 507.955 259.708 508.208 259.456C508.334 259.33 508.461 259.203 508.461 259.203Z" fill="#E0E0E0"/>
<path d="M474.218 279.152C474.344 279.152 474.471 280.414 474.723 282.434C474.85 284.454 475.102 287.358 475.229 290.515C475.355 293.545 475.355 296.323 475.481 298.595C475.481 300.615 475.608 301.878 475.481 301.878C475.355 301.878 475.229 300.615 474.976 298.595C474.85 296.575 474.723 293.671 474.597 290.515C474.471 287.485 474.344 284.833 474.344 282.434C474.091 280.414 474.091 279.152 474.218 279.152Z" fill="#E0E0E0"/>
<path d="M476.492 302.257C476.492 302.13 482.305 301.499 489.507 300.868C496.709 300.236 502.648 299.984 502.648 300.11C502.648 300.236 496.836 300.868 489.633 301.499C482.305 302.13 476.492 302.383 476.492 302.257Z" fill="#E0E0E0"/>
<path d="M455.518 326.624C455.518 326.498 456.781 326.75 458.929 327.129C460.951 327.508 463.857 328.013 467.016 328.518C470.175 329.023 473.081 329.402 475.103 329.654C477.125 329.907 478.515 330.159 478.515 330.159C478.515 330.285 477.251 330.285 475.103 330.033C472.955 329.907 470.049 329.528 466.89 329.023C463.731 328.518 460.825 327.886 458.803 327.381C456.655 327.003 455.518 326.624 455.518 326.624Z" fill="#E0E0E0"/>
<path d="M448.82 306.044C448.947 306.044 449.326 307.18 450.084 308.948C450.716 310.716 451.6 313.241 452.611 316.145C453.496 318.922 454.38 321.447 454.885 323.341C455.391 325.235 455.77 326.371 455.644 326.371C455.517 326.371 455.138 325.235 454.38 323.468C453.748 321.7 452.864 319.175 451.853 316.271C450.968 313.493 450.084 310.968 449.578 309.074C449.073 307.307 448.82 306.17 448.82 306.044Z" fill="#E0E0E0"/>
<path d="M427.593 325.235C427.719 325.235 428.224 326.624 429.109 329.023C429.993 331.295 431.131 334.578 432.394 338.113C433.658 341.648 434.795 344.931 435.553 347.33C436.311 349.729 436.69 351.118 436.69 351.244C436.564 351.244 436.059 349.855 435.174 347.456C434.29 345.184 433.152 341.901 431.889 338.366C430.625 334.831 429.488 331.548 428.73 329.149C427.972 326.75 427.466 325.235 427.593 325.235Z" fill="#E0E0E0"/>
<path d="M436.563 350.486C436.563 350.36 438.206 350.613 440.86 350.991C443.513 351.37 447.177 352.001 451.095 352.506C455.138 353.011 458.802 353.39 461.456 353.769C464.109 354.021 465.752 354.274 465.752 354.4C465.752 354.526 464.109 354.526 461.456 354.274C458.802 354.148 455.138 353.769 451.095 353.264C447.051 352.759 443.387 352.128 440.86 351.623C438.206 350.991 436.563 350.613 436.563 350.486Z" fill="#E0E0E0"/>
<path d="M463.091 121.962L460.099 219.888L531.707 222.072L534.7 124.147L463.091 121.962Z" fill="#F5F5F5"/>
<path d="M449.899 134.918L446.906 232.844L518.515 235.029L521.507 137.103L449.899 134.918Z" fill="white"/>
<path d="M518.443 235.088C518.443 235.088 518.443 234.962 518.443 234.583C518.443 234.205 518.443 233.826 518.443 233.195C518.443 231.932 518.569 230.164 518.569 227.892C518.696 223.22 518.822 216.403 519.075 207.817C519.58 190.646 520.212 166.153 521.097 137.24L521.349 137.493C499.742 136.861 475.482 136.104 449.705 135.346L450.084 134.968C448.947 171.582 447.936 205.418 447.051 232.816L446.799 232.563C468.406 233.321 486.348 233.826 498.858 234.331C505.049 234.583 509.977 234.71 513.262 234.836C514.905 234.962 516.169 234.962 517.053 234.962C518.064 234.962 518.443 235.088 518.443 235.088C518.443 235.088 518.064 235.088 517.179 235.088C516.295 235.088 515.031 235.088 513.389 234.962C510.104 234.836 505.176 234.71 498.984 234.583C486.475 234.205 468.532 233.7 446.799 233.195H446.546V232.942C447.43 205.418 448.441 171.582 449.452 134.968V134.589H449.831C475.482 135.346 499.869 136.104 521.476 136.861H521.728V137.114C520.844 166.153 519.959 190.646 519.454 207.943C519.201 216.529 518.949 223.347 518.822 228.018C518.696 230.291 518.696 232.058 518.569 233.321C518.569 233.952 518.569 234.331 518.569 234.71C518.443 234.836 518.443 235.088 518.443 235.088Z" fill="#E0E0E0"/>
<path d="M493.55 157.567C493.55 157.694 485.716 157.694 476.113 157.315C466.51 157.062 458.676 156.684 458.676 156.431C458.676 156.305 466.51 156.305 476.113 156.684C485.716 157.062 493.55 157.441 493.55 157.567Z" fill="#E0E0E0"/>
<path d="M512.125 166.658C512.125 166.784 500.121 166.658 485.338 166.153C470.554 165.648 458.55 165.143 458.55 165.016C458.55 164.89 470.554 165.016 485.338 165.521C500.121 166.026 512.125 166.531 512.125 166.658Z" fill="#E0E0E0"/>
<path d="M511.746 175.496C511.746 175.622 499.742 175.496 484.959 174.991C470.175 174.486 458.171 173.981 458.171 173.854C458.171 173.728 470.175 173.854 484.959 174.359C499.742 174.864 511.746 175.369 511.746 175.496Z" fill="#E0E0E0"/>
<path d="M511.493 184.46C511.493 184.586 499.489 184.46 484.706 183.955C469.922 183.45 457.918 182.945 457.918 182.818C457.918 182.692 469.922 182.818 484.706 183.323C499.489 183.702 511.493 184.207 511.493 184.46Z" fill="#E0E0E0"/>
<path d="M511.24 193.298C511.24 193.424 499.237 193.298 484.453 192.793C469.669 192.288 457.665 191.783 457.665 191.656C457.665 191.53 469.669 191.656 484.453 192.161C499.237 192.666 511.24 193.171 511.24 193.298Z" fill="#E0E0E0"/>
<path d="M510.988 202.136C510.988 202.262 498.984 202.136 484.2 201.631C469.416 201.126 457.412 200.621 457.412 200.494C457.412 200.368 469.416 200.494 484.2 200.999C498.984 201.504 510.988 202.009 510.988 202.136Z" fill="#E0E0E0"/>
<path d="M510.736 211.1C510.736 211.226 498.732 211.1 483.948 210.595C469.164 210.09 457.16 209.585 457.16 209.458C457.16 209.332 469.164 209.458 483.948 209.964C498.732 210.342 510.736 210.847 510.736 211.1Z" fill="#E0E0E0"/>
<path d="M485.59 219.18C485.59 219.306 479.145 219.306 471.185 219.054C463.224 218.801 456.78 218.423 456.78 218.296C456.78 218.17 463.224 218.17 471.185 218.423C479.145 218.675 485.59 219.054 485.59 219.18Z" fill="#E0E0E0"/>
<path d="M308.726 69.8287L286.338 126.017L356.777 154.039L379.165 97.8499L308.726 69.8287Z" fill="white"/>
<path d="M379.072 97.8483C379.072 97.8483 378.945 97.8483 378.693 97.722C378.44 97.5958 378.187 97.4695 377.682 97.3433C376.797 96.9645 375.534 96.4595 373.891 95.8282C370.606 94.5656 365.678 92.5455 359.486 90.1467C347.103 85.2227 329.54 78.2786 308.564 69.9457L308.691 69.8195C301.994 86.6115 294.412 105.802 286.326 126.003L286.199 125.877C312.229 136.23 336.489 145.952 356.58 153.906H356.454C363.277 136.988 368.837 122.973 372.754 113.125C374.776 108.201 376.292 104.414 377.303 101.762C377.808 100.5 378.187 99.4896 378.566 98.7321C378.945 98.2271 379.072 97.8483 379.072 97.8483C379.072 97.8483 378.945 98.2271 378.693 98.8583C378.44 99.4896 378.061 100.5 377.555 101.888C376.545 104.54 375.028 108.328 373.007 113.251C369.09 123.099 363.53 137.114 356.833 154.158V154.285H356.706C336.616 146.331 312.355 136.609 286.326 126.256H286.199V126.13C294.286 105.802 301.994 86.6115 308.564 69.9457V69.8195H308.691C329.666 78.1524 347.23 85.2227 359.613 90.1467C365.804 92.6718 370.606 94.5656 374.017 95.9545C375.66 96.5857 376.924 97.0908 377.808 97.4695C378.187 97.5958 378.566 97.722 378.819 97.8483C379.072 97.8483 379.072 97.8483 379.072 97.8483Z" fill="#E0E0E0"/>
<path d="M309.658 74.381L290.074 123.531L355.465 149.545L375.049 100.394L309.658 74.381Z" fill="#EBEBEB"/>
<path d="M290.369 123.731L325.37 102.267L331.941 127.013L345.587 120.574L355.822 149.739L290.369 123.731Z" fill="#E0E0E0"/>
<path d="M347.103 106.56C345.966 109.464 342.807 110.853 339.901 109.716C336.995 108.58 335.605 105.424 336.742 102.52C337.879 99.6159 341.038 98.2271 343.944 99.3634C346.85 100.5 348.24 103.656 347.103 106.56Z" fill="#E0E0E0"/>
<path d="M125.22 160.092C125.22 160.092 125.725 160.471 126.736 160.345C127.241 160.345 127.873 160.092 128.379 159.587C128.884 159.082 129.263 158.199 129.769 157.441C131.664 154.032 134.57 149.108 137.982 143.174C138.866 141.659 139.751 140.144 140.762 138.503C141.267 137.619 141.772 136.861 142.152 135.978C142.404 135.599 142.657 135.094 142.783 134.715C142.91 134.336 142.91 133.831 142.783 133.326C142.657 132.947 142.404 132.442 142.025 132.19C141.646 131.937 141.141 131.685 140.762 131.432C139.877 130.927 138.866 130.422 137.982 129.917C136.086 128.907 134.065 127.771 132.169 126.635C124.082 122.089 115.364 117.165 106.013 111.989C105.003 111.358 103.613 111.736 102.981 112.746C102.349 113.883 101.717 115.019 100.959 116.155C99.6956 118.428 98.432 120.574 97.1684 122.721C94.6413 127.013 92.2405 131.18 89.8397 135.22C89.587 135.725 89.2079 136.23 88.9552 136.735C88.7025 137.24 88.5761 137.619 88.5761 138.124C88.5761 138.629 88.8288 139.134 89.0816 139.513C89.3343 139.891 89.8397 140.144 90.3451 140.397C92.2405 141.407 94.1358 142.543 95.9048 143.553C99.4428 145.573 102.728 147.467 105.761 149.108C111.826 152.517 116.627 155.295 120.039 157.315C121.682 158.325 122.945 159.082 123.956 159.587C124.335 159.84 124.714 160.092 124.967 160.219C125.093 160.092 125.22 160.092 125.22 160.092C125.22 160.092 125.093 160.092 124.841 159.966C124.588 159.84 124.209 159.587 123.83 159.461C122.945 158.956 121.555 158.199 119.913 157.315C116.501 155.421 111.573 152.643 105.508 149.361C102.475 147.719 99.1901 145.826 95.5258 143.805C93.7568 142.795 91.8614 141.785 89.966 140.775C89.4606 140.523 88.9552 140.27 88.5761 139.765C88.1971 139.26 87.9443 138.629 87.9443 137.998C87.9443 137.366 88.0707 136.735 88.4498 136.23C88.7025 135.725 89.0815 135.22 89.3343 134.715C91.6087 130.675 94.0095 126.508 96.5366 122.216C97.8002 120.069 99.0638 117.797 100.327 115.65C100.959 114.514 101.591 113.378 102.349 112.241C103.107 110.979 105.003 110.474 106.266 111.231C115.49 116.408 124.335 121.458 132.296 125.877C134.317 127.013 136.213 128.15 138.108 129.16C139.119 129.665 140.003 130.17 140.888 130.801C141.393 131.054 141.772 131.306 142.278 131.685C142.783 132.064 143.036 132.569 143.162 133.074C143.289 133.579 143.289 134.21 143.162 134.715C143.036 135.22 142.657 135.599 142.404 136.104C141.899 136.988 141.393 137.745 140.888 138.629C139.877 140.27 138.993 141.785 138.108 143.3C134.57 149.234 131.79 154.158 129.769 157.441C129.263 158.199 128.884 159.082 128.379 159.587C127.873 160.092 127.115 160.345 126.61 160.345C126.104 160.345 125.725 160.219 125.472 160.219C125.22 160.219 125.22 160.092 125.22 160.092Z" fill="#E0E0E0"/>
<path d="M118.522 134.21L121.681 139.892L115.111 140.018L108.54 140.144L111.952 134.336L115.363 128.528L118.522 134.21Z" fill="#E0E0E0"/>
<path d="M547 374.98C547 375.232 426.202 375.359 277.101 375.359C128 375.359 7.20215 375.232 7.20215 374.98C7.20215 374.727 128 374.601 277.101 374.601C426.202 374.601 547 374.727 547 374.98Z" fill="#263238"/>
<path d="M140.761 294.681L102.602 256.426L121.808 221.2C141.014 196.707 181.575 198.222 181.575 198.222C181.575 198.222 209.247 195.57 241.468 201.883C273.689 208.196 271.162 229.533 271.162 229.533L275.458 308.569L280.133 372.834L161.231 375.232L140.761 294.681Z" fill="#E8505B"/>
<path d="M204.825 371.571L98.3058 372.834C72.6553 373.086 55.5971 346.572 66.5901 323.468L112.205 239.002L153.65 267.031L125.346 325.74L211.648 327.255L204.825 371.571Z" fill="#E8505B"/>
<path d="M267.372 216.655L352.916 348.592L303.005 351.875C303.005 351.875 273.184 304.908 273.943 305.918C275.08 307.686 267.372 216.655 267.372 216.655Z" fill="#E8505B"/>
<path d="M151.502 274.606C151.502 274.606 151.502 274.354 151.628 273.975C151.754 273.47 151.881 272.839 152.133 272.081C152.512 270.44 153.144 268.041 153.65 265.011C154.281 261.981 154.913 258.446 155.292 254.406C155.671 250.365 155.924 245.946 155.292 241.401C154.661 236.856 152.892 232.69 150.87 229.281C148.848 225.872 146.574 222.968 144.552 220.695C142.53 218.423 140.635 216.781 139.371 215.645C138.108 214.509 137.35 214.004 137.35 213.877C137.35 213.877 137.602 214.004 137.981 214.256C138.36 214.509 138.866 214.887 139.498 215.392C140.888 216.403 142.783 218.044 144.805 220.316C146.953 222.463 149.227 225.367 151.375 228.902C153.397 232.437 155.166 236.603 155.924 241.275C156.556 245.946 156.303 250.365 155.798 254.406C155.292 258.446 154.661 261.981 154.029 265.011C153.397 268.041 152.765 270.44 152.26 272.081C152.007 272.965 151.881 273.596 151.628 273.975C151.628 274.354 151.502 274.606 151.502 274.606Z" fill="#263238"/>
<path d="M148.09 279.152C148.09 279.152 147.838 279.909 147.332 281.046C146.827 282.308 146.069 283.949 145.058 286.096C143.162 290.388 140.383 296.323 137.224 302.762C134.065 309.201 131.032 315.008 128.884 319.175C127.747 321.195 126.862 322.963 126.231 324.099C125.599 325.235 125.22 325.866 125.22 325.866C125.22 325.866 125.472 325.235 126.104 323.973C126.736 322.71 127.621 321.069 128.631 319.049C130.779 314.756 133.686 308.948 136.845 302.635C140.004 296.196 142.783 290.388 144.805 286.096C145.816 284.076 146.574 282.434 147.206 281.046C147.711 279.783 148.09 279.152 148.09 279.152Z" fill="#263238"/>
<path d="M204.825 371.571C204.825 371.571 204.825 371.445 204.825 371.318C204.825 371.192 204.825 370.94 204.825 370.687C204.825 370.056 204.951 369.298 205.078 368.162C205.33 365.889 205.709 362.733 206.089 358.693C206.973 350.486 208.363 338.997 209.879 325.488L210.132 325.866C200.529 325.866 189.915 325.866 178.669 325.866C157.188 325.866 137.729 325.74 123.577 325.74C116.628 325.74 110.815 325.614 106.898 325.614C105.003 325.614 103.487 325.614 102.349 325.614C101.844 325.614 101.465 325.614 101.212 325.614C100.959 325.614 100.833 325.614 100.833 325.614C100.833 325.614 100.959 325.614 101.212 325.614C101.465 325.614 101.844 325.614 102.349 325.614C103.487 325.614 105.003 325.614 106.898 325.614C110.942 325.614 116.628 325.614 123.577 325.488C137.729 325.488 157.188 325.488 178.669 325.361C189.915 325.361 200.529 325.361 210.132 325.361H210.511V325.74C208.868 339.249 207.478 350.739 206.468 358.945C205.962 362.986 205.583 366.142 205.204 368.415C205.078 369.425 204.951 370.308 204.825 370.94C204.825 371.192 204.699 371.445 204.699 371.571C204.951 371.445 204.825 371.571 204.825 371.571Z" fill="#263238"/>
<path d="M126.105 326.624C125.978 326.624 125.347 325.614 123.957 323.973C122.693 322.331 120.671 320.185 118.271 318.165C115.87 316.145 113.343 314.503 111.574 313.493C109.805 312.483 108.541 311.978 108.541 311.852C108.541 311.726 109.805 312.104 111.7 313.115C113.595 313.998 116.122 315.513 118.65 317.66C121.177 319.806 123.072 321.952 124.336 323.72C125.599 325.361 126.105 326.624 126.105 326.624Z" fill="#263238"/>
<path d="M277.227 334.957C277.227 334.957 277.101 334.578 277.101 333.82C276.975 333.063 276.848 332.053 276.722 330.664C276.469 327.886 276.09 323.973 275.585 319.049C274.7 309.327 273.689 295.691 272.805 280.793C271.92 265.895 271.288 252.259 270.909 242.411C270.783 237.487 270.657 233.573 270.53 230.796C270.53 229.407 270.53 228.397 270.53 227.639C270.53 226.882 270.53 226.503 270.53 226.503C270.53 226.503 270.53 226.882 270.657 227.639C270.657 228.397 270.783 229.533 270.783 230.796C270.909 233.573 271.162 237.614 271.288 242.411C271.794 252.259 272.426 265.769 273.31 280.667C274.195 295.565 275.079 309.201 275.837 318.922C276.216 323.72 276.469 327.76 276.722 330.538C276.848 331.8 276.848 332.937 276.974 333.694C277.227 334.578 277.227 334.957 277.227 334.957Z" fill="#263238"/>
<path d="M182.081 263.243C182.081 263.243 182.081 262.612 182.207 261.476C182.333 260.213 182.586 258.698 182.839 256.678C183.344 252.512 184.102 246.83 184.987 240.139L185.492 240.391C182.965 242.159 180.185 244.053 177.279 246.073C174.373 248.093 171.593 250.113 168.939 251.88L168.308 252.259L168.434 251.502C169.445 244.936 170.329 239.255 170.961 235.215C171.34 233.321 171.593 231.68 171.719 230.543C171.972 229.407 171.972 228.902 172.098 228.902C172.098 228.902 172.098 229.533 171.972 230.669C171.846 231.806 171.593 233.447 171.34 235.467C170.708 239.634 169.95 245.315 169.066 251.88L168.56 251.628C171.087 249.86 173.994 247.84 176.9 245.82C179.806 243.8 182.586 241.906 185.113 240.139L185.745 239.76L185.619 240.517C184.608 247.083 183.85 252.764 183.218 256.931C182.965 258.951 182.712 260.466 182.46 261.728C182.333 262.612 182.207 263.243 182.081 263.243Z" fill="#E0E0E0"/>
<path d="M229.717 268.294C229.717 268.294 229.212 267.915 228.454 267.031C227.569 266.147 226.558 265.011 225.168 263.496C222.262 260.466 218.345 256.173 213.923 251.249L214.428 251.123C214.175 254.279 213.923 257.562 213.544 261.097C213.291 264.632 212.912 268.041 212.659 271.198V271.955L212.154 271.45C207.731 266.526 203.94 262.233 201.161 259.077C199.897 257.562 198.76 256.426 198.002 255.416C197.243 254.532 196.864 254.153 196.991 254.027C196.991 254.027 197.496 254.406 198.254 255.289C199.139 256.173 200.15 257.309 201.54 258.825C204.319 261.855 208.237 266.147 212.659 271.071L212.154 271.198C212.406 268.041 212.659 264.632 213.038 261.097C213.291 257.562 213.67 254.279 213.923 251.123V250.365L214.428 250.87C218.851 255.794 222.768 260.087 225.547 263.243C226.811 264.759 227.948 265.895 228.706 266.905C229.338 267.789 229.717 268.294 229.717 268.294Z" fill="#E0E0E0"/>
<path d="M253.599 266.652C253.599 266.652 253.346 267.157 252.714 268.167C252.082 269.177 251.198 270.566 250.187 272.208C247.912 275.743 244.754 280.541 241.216 286.222L240.963 285.717C243.995 285.212 247.407 284.581 250.819 284.076C254.357 283.444 257.642 282.939 260.801 282.434L261.559 282.308L261.18 282.939C257.516 288.495 254.23 293.166 251.956 296.701C250.819 298.343 249.934 299.605 249.302 300.615C248.671 301.499 248.292 302.004 248.292 302.004C248.292 302.004 248.544 301.499 249.176 300.489C249.808 299.479 250.692 298.09 251.703 296.449C253.978 292.914 257.137 288.116 260.675 282.561L260.927 283.066C257.768 283.571 254.483 284.202 250.945 284.833C247.533 285.465 244.122 285.97 241.089 286.475L240.331 286.601L240.71 285.97C244.374 280.414 247.533 275.617 249.934 272.081C251.071 270.44 251.956 269.051 252.588 268.167C253.219 267.157 253.599 266.652 253.599 266.652Z" fill="#E0E0E0"/>
<path d="M221.757 291.146C221.757 291.146 221.504 291.651 220.872 292.661C220.24 293.671 219.356 295.06 218.345 296.701C216.071 300.236 212.912 305.034 209.374 310.716L209.121 310.211C212.154 309.706 215.565 309.074 218.977 308.569C222.515 307.938 225.8 307.433 228.959 306.928L229.717 306.802L229.338 307.433C225.674 312.988 222.389 317.66 220.114 321.195C218.977 322.836 218.092 324.099 217.461 325.109C216.829 325.993 216.45 326.498 216.45 326.498C216.45 326.498 216.702 325.993 217.334 324.983C217.966 323.973 218.851 322.584 219.861 320.942C222.136 317.407 225.295 312.609 228.833 307.054L229.085 307.559C225.927 308.064 222.641 308.696 219.103 309.327C215.692 309.958 212.28 310.463 209.247 310.968L208.489 311.094L208.868 310.463C212.533 304.908 215.692 300.11 218.092 296.575C219.23 294.934 220.114 293.545 220.746 292.661C221.378 291.525 221.757 291.02 221.757 291.146Z" fill="#E0E0E0"/>
<path d="M290.495 266.274C290.495 266.274 290.242 266.779 289.611 267.789C288.979 268.799 288.094 270.188 287.083 271.829C284.809 275.364 281.65 280.162 278.112 285.843L277.859 285.338C280.892 284.833 284.304 284.202 287.715 283.697C291.253 283.066 294.538 282.561 297.697 282.056L298.456 281.929L298.076 282.561C294.412 288.116 291.127 292.787 288.852 296.323C287.715 297.964 286.831 299.226 286.199 300.236C285.567 301.12 285.188 301.625 285.188 301.625C285.188 301.625 285.441 301.12 286.073 300.11C286.704 299.1 287.589 297.711 288.6 296.07C290.874 292.535 294.033 287.737 297.571 282.182L297.824 282.687C294.665 283.192 291.38 283.823 287.842 284.454C284.43 285.086 281.018 285.591 277.986 286.096L277.228 286.222L277.607 285.591C281.271 280.035 284.43 275.238 286.831 271.703C287.968 270.061 288.852 268.672 289.484 267.789C290.116 266.779 290.495 266.274 290.495 266.274Z" fill="#E0E0E0"/>
<path d="M129.516 246.073C129.516 246.073 129.263 246.578 128.631 247.588C127.999 248.598 127.115 249.987 126.104 251.628C123.829 255.163 120.671 259.961 117.133 265.642L116.88 265.137C119.912 264.632 123.324 264.001 126.736 263.496C130.274 262.865 133.559 262.36 136.718 261.855L137.476 261.728L137.097 262.36C133.433 267.915 130.147 272.586 127.873 276.122C126.736 277.763 125.851 279.025 125.219 280.036C124.588 280.919 124.209 281.424 124.209 281.424C124.209 281.424 124.461 280.919 125.093 279.909C125.725 278.899 126.609 277.51 127.62 275.869C129.895 272.334 133.054 267.536 136.592 261.981L136.844 262.486C133.685 262.991 130.4 263.622 126.862 264.254C123.45 264.885 120.039 265.39 117.006 265.895L116.248 266.021L116.627 265.39C120.291 259.835 123.45 255.037 125.851 251.502C126.988 249.86 127.873 248.472 128.505 247.588C129.136 246.578 129.516 246.073 129.516 246.073Z" fill="#E0E0E0"/>
<path d="M79.6053 340.512C79.6053 340.512 79.9843 340.891 80.7425 341.775C81.5006 342.658 82.5115 343.921 83.7751 345.436C86.4286 348.719 90.0929 353.138 94.2627 358.314L93.7573 358.44C94.2627 355.41 94.6418 352.001 95.1472 348.592C95.6526 345.057 96.1581 341.648 96.6635 338.618L96.7898 337.861L97.2953 338.492C101.339 343.668 104.877 348.214 107.53 351.496C108.667 353.011 109.678 354.4 110.436 355.284C111.068 356.168 111.447 356.673 111.447 356.673C111.447 356.673 111.068 356.294 110.31 355.41C109.552 354.526 108.541 353.264 107.277 351.749C104.624 348.466 101.086 344.047 96.9162 338.871L97.4216 338.744C96.9162 341.901 96.4108 345.184 95.9053 348.719C95.3999 352.128 94.8945 355.536 94.389 358.567L94.2627 359.324L93.7573 358.819C89.5875 353.643 86.0495 349.097 83.396 345.815C82.1324 344.3 81.2479 342.911 80.4898 342.027C79.858 341.017 79.4789 340.512 79.6053 340.512Z" fill="#E0E0E0"/>
<path d="M193.706 279.404C193.706 279.404 193.074 279.53 191.936 279.657C190.673 279.783 189.157 279.909 187.135 280.035C182.965 280.288 177.153 280.793 170.582 281.298L170.835 280.793C173.109 282.939 175.51 285.212 178.164 287.611C180.691 290.01 183.218 292.409 185.492 294.555L185.998 295.06H185.24C178.669 295.439 172.857 295.691 168.687 295.944C166.665 296.07 165.149 296.07 163.885 296.196C162.748 296.196 162.116 296.196 162.116 296.196C162.116 296.196 162.748 296.07 163.885 295.944C165.149 295.817 166.665 295.691 168.687 295.565C172.857 295.312 178.543 294.934 185.24 294.429L184.987 294.934C182.712 292.787 180.185 290.388 177.658 287.99C175.131 285.591 172.604 283.318 170.456 281.172L169.95 280.667H170.709C177.405 280.288 183.091 279.909 187.261 279.657C189.283 279.53 190.799 279.53 192.063 279.404C193.074 279.278 193.706 279.278 193.706 279.404Z" fill="#E0E0E0"/>
<path d="M165.654 343.037C165.654 343.037 166.16 343.416 166.792 344.3C167.55 345.184 168.687 346.446 169.95 347.961C172.73 351.118 176.395 355.537 180.691 360.713L180.185 360.839C180.564 357.809 180.944 354.4 181.449 350.991C181.954 347.456 182.333 344.047 182.713 340.891L182.839 340.133L183.344 340.638C187.514 345.815 191.178 350.234 193.832 353.516C195.095 355.031 196.106 356.294 196.865 357.304C197.496 358.188 197.875 358.693 197.875 358.693C197.875 358.693 197.496 358.314 196.738 357.43C195.98 356.547 194.969 355.284 193.579 353.769C190.926 350.613 187.261 346.194 182.965 341.143L183.471 341.017C183.092 344.173 182.586 347.582 182.207 351.118C181.702 354.526 181.323 357.935 180.943 360.965L180.817 361.723L180.312 361.218C176.016 356.042 172.351 351.623 169.698 348.34C168.434 346.825 167.423 345.562 166.665 344.552C166.033 343.542 165.654 343.037 165.654 343.037Z" fill="#E0E0E0"/>
<path d="M115.617 296.323C115.617 296.323 114.985 296.449 113.848 296.575C112.584 296.701 111.068 296.828 109.046 296.954C104.876 297.206 99.0638 297.711 92.4933 298.216L92.746 297.711C95.0204 299.858 97.4212 302.13 100.075 304.529C102.602 306.928 105.129 309.327 107.403 311.473L107.909 311.978H107.151C100.58 312.357 94.7677 312.61 90.5979 312.862C88.5762 312.988 87.0599 312.988 85.7963 313.115C84.6591 313.115 84.0273 313.115 84.0273 313.115C84.0273 313.115 84.6591 312.988 85.7963 312.862C87.0599 312.736 88.5762 312.61 90.5979 312.483C94.7677 312.231 100.454 311.852 107.151 311.347L106.898 311.852C104.624 309.706 102.096 307.307 99.5693 304.908C97.0421 302.509 94.515 300.236 92.3669 298.09L91.8615 297.585H92.6196C99.3166 297.206 105.003 296.828 109.172 296.575C111.194 296.449 112.71 296.449 113.974 296.323C114.985 296.323 115.617 296.323 115.617 296.323Z" fill="#E0E0E0"/>
<path d="M158.578 341.522C158.578 341.522 157.946 341.648 156.809 341.775C155.545 341.901 154.029 342.027 152.007 342.153C147.837 342.406 142.025 342.911 135.454 343.416L135.707 342.911C137.981 345.057 140.382 347.33 143.036 349.729C145.563 352.128 148.09 354.526 150.364 356.673L150.87 357.178H150.112C143.541 357.557 137.729 357.809 133.559 358.062C131.537 358.188 130.021 358.188 128.757 358.314C127.62 358.314 126.988 358.314 126.988 358.314C126.988 358.314 127.62 358.188 128.757 358.062C130.021 357.935 131.537 357.809 133.559 357.683C137.729 357.43 143.415 357.052 150.112 356.547L149.859 357.052C147.584 354.905 145.057 352.506 142.53 350.107C140.003 347.709 137.476 345.436 135.328 343.29L134.822 342.785H135.581C142.277 342.406 147.964 342.027 152.133 341.775C154.155 341.648 155.671 341.648 156.935 341.522C157.946 341.522 158.578 341.522 158.578 341.522Z" fill="#E0E0E0"/>
<path d="M255.621 226.503C255.621 226.503 254.989 226.629 253.852 226.756C252.588 226.882 251.072 227.008 249.05 227.134C244.88 227.387 239.068 227.892 232.497 228.397L232.75 227.892C235.024 230.038 237.425 232.311 240.079 234.71C242.606 237.108 245.133 239.507 247.407 241.654L247.913 242.159H247.155C240.584 242.537 234.772 242.79 230.602 243.043C228.58 243.169 227.064 243.169 225.8 243.295C224.663 243.295 224.031 243.295 224.031 243.295C224.031 243.295 224.663 243.169 225.8 243.043C227.064 242.916 228.58 242.79 230.602 242.664C234.772 242.411 240.458 242.032 247.155 241.527L246.902 242.032C244.627 239.886 242.1 237.487 239.573 235.088C237.046 232.69 234.519 230.417 232.371 228.271L231.865 227.766H232.624C239.32 227.387 245.007 227.008 249.176 226.756C251.198 226.629 252.714 226.629 253.978 226.503C254.989 226.503 255.621 226.377 255.621 226.503Z" fill="#E0E0E0"/>
<path d="M208.489 341.522C208.489 341.522 229.717 335.462 236.793 333.568C239.573 332.81 251.324 338.997 259.411 344.173C259.411 344.173 270.53 350.739 269.646 352.885C268.635 355.158 264.591 354.653 258.021 351.623C258.021 351.623 260.295 358.314 255.873 358.188C255.873 358.188 258.147 365.384 253.851 366.142C249.681 366.899 248.67 357.683 244.88 357.178C241.215 356.673 233.508 356.168 233.508 356.168C233.508 356.168 227.063 366.773 222.135 367.531C217.207 368.288 205.709 366.9 205.709 366.9L208.489 341.522Z" fill="#FFBE9D"/>
<path d="M244.754 343.037C244.88 342.911 247.533 344.426 250.692 346.446C253.851 348.466 256.378 350.234 256.252 350.36C256.126 350.486 253.472 348.971 250.313 346.951C247.154 344.931 244.627 343.163 244.754 343.037Z" fill="#EB996E"/>
<path d="M243.489 347.077C243.616 346.951 246.774 348.214 250.565 349.981C254.356 351.749 257.388 353.264 257.388 353.516C257.262 353.643 254.103 352.38 250.312 350.613C246.395 348.845 243.363 347.33 243.489 347.077Z" fill="#EB996E"/>
<path d="M245.765 357.052C245.765 356.925 247.913 357.052 250.566 357.43C253.22 357.809 255.241 358.188 255.241 358.44C255.241 358.567 253.093 358.44 250.44 358.062C247.786 357.683 245.765 357.178 245.765 357.052Z" fill="#EB996E"/>
<path d="M180.817 122.468C181.322 124.11 180.691 126.003 179.427 127.14C178.164 128.276 176.142 128.402 174.626 127.645C171.719 126.13 171.34 122.216 171.972 119.059C172.477 115.903 173.615 112.494 172.225 109.59C171.214 107.317 168.939 105.929 167.297 104.161C164.264 101.131 162.748 96.5857 163.38 92.293C164.138 88.0003 167.297 84.2127 171.467 83.0764C175.636 81.9401 180.943 83.2026 184.102 80.1725C186.377 77.8999 186.503 74.3647 188.272 71.7133C191.052 67.5469 196.864 66.9156 201.666 67.6731C206.594 68.3044 211.522 69.9457 216.323 68.6832C220.367 67.6731 223.652 64.8955 227.316 63.1279C235.403 59.4665 245.891 61.3603 252.082 67.9257C258.274 74.3647 259.664 84.8439 255.62 92.7981C254.104 95.7019 251.83 98.2271 248.924 99.4896" fill="#263238"/>
<path d="M205.204 226.756C218.724 226.756 229.717 215.645 229.591 202.136L229.211 178.905C229.211 178.905 248.67 177.011 250.06 157.694C251.324 138.376 250.439 93.8081 250.439 93.8081C228.58 82.9501 202.55 84.8439 182.459 98.6058L179.427 100.626L180.943 202.767C180.943 216.024 191.81 226.756 205.204 226.756Z" fill="#FFBE9D"/>
<path d="M245.258 128.655C241.846 128.023 241.846 123.604 245.258 122.847C245.384 122.847 245.637 122.847 245.763 122.847C249.175 123.478 249.175 127.897 245.763 128.655C245.511 128.655 245.384 128.655 245.258 128.655Z" fill="#263238"/>
<path d="M249.049 122.468C248.67 122.847 246.901 121.206 244.248 121.079C241.594 120.827 239.572 122.216 239.32 121.837C239.193 121.711 239.572 121.079 240.457 120.448C241.341 119.817 242.731 119.312 244.374 119.438C246.017 119.564 247.406 120.322 248.165 120.953C248.923 121.711 249.175 122.342 249.049 122.468Z" fill="#263238"/>
<path d="M218.218 123.099C219.482 123.983 219.861 125.751 218.977 127.013C218.092 128.276 216.323 128.655 215.06 127.771C213.796 126.887 213.417 125.12 214.301 123.857C215.186 122.594 216.955 122.216 218.218 123.099Z" fill="#263238"/>
<path d="M219.988 123.226C219.609 123.604 217.84 121.963 215.186 121.837C212.533 121.584 210.511 122.973 210.258 122.594C210.132 122.468 210.511 121.837 211.395 121.206C212.28 120.574 213.67 120.069 215.312 120.196C216.955 120.322 218.345 121.079 219.103 121.711C219.861 122.468 220.114 123.099 219.988 123.226Z" fill="#263238"/>
<path d="M229.464 145.826C229.464 145.573 231.107 145.32 233.76 145.194C234.519 145.194 235.024 145.068 235.15 144.689C235.277 144.31 235.024 143.553 234.771 142.669C234.139 140.902 233.634 139.008 233.002 137.114C230.475 129.286 228.832 122.721 229.212 122.594C229.591 122.468 231.991 128.781 234.392 136.609C235.024 138.503 235.529 140.397 236.035 142.164C236.288 142.922 236.667 143.932 236.288 145.068C236.035 145.573 235.529 146.078 235.024 146.078C234.519 146.204 234.139 146.204 233.887 146.204C231.107 146.204 229.464 146.078 229.464 145.826Z" fill="#263238"/>
<path d="M220.62 148.351C224.031 149.992 228.075 151.886 233.508 152.896C233.508 152.896 230.096 157.694 224.663 155.295C218.977 152.77 220.62 148.351 220.62 148.351Z" fill="white"/>
<path d="M229.212 178.526C229.212 178.526 216.955 178.905 204.319 169.94C204.319 169.94 209.5 184.207 228.959 183.45L229.212 178.526Z" fill="#EB996E"/>
<path d="M250.44 98.6058C250.44 98.6058 238.815 104.54 223.273 97.217C213.164 92.4193 201.287 90.1467 198.76 92.293C196.232 94.3131 195.853 104.792 185.997 107.949C185.997 107.949 187.008 127.771 179.174 127.14C171.214 126.635 175.636 95.8282 175.636 95.8282L194.716 85.9802L215.691 81.5613L235.656 83.9601L251.071 87.8741L250.44 98.6058Z" fill="#263238"/>
<path d="M180.69 120.701C180.311 120.574 167.549 116.029 167.297 129.286C167.044 142.543 180.311 140.144 180.438 139.765C180.438 139.386 180.69 120.701 180.69 120.701Z" fill="#FFBE9D"/>
<path d="M176.394 134.589C176.394 134.589 176.141 134.715 175.762 134.968C175.383 135.094 174.751 135.22 173.993 134.968C172.603 134.462 171.466 132.19 171.466 129.791C171.466 128.528 171.719 127.392 172.224 126.508C172.603 125.498 173.235 124.867 173.993 124.741C174.751 124.615 175.13 124.993 175.383 125.372C175.51 125.751 175.51 126.003 175.51 126.003C175.51 126.003 175.762 125.751 175.762 125.246C175.762 124.993 175.51 124.615 175.257 124.362C175.004 124.11 174.499 123.983 173.993 123.983C172.982 123.983 171.972 124.993 171.593 126.003C171.087 127.013 170.708 128.276 170.708 129.665C170.708 132.316 172.098 134.841 173.993 135.473C174.878 135.725 175.762 135.473 176.141 135.22C176.394 134.968 176.52 134.589 176.394 134.589Z" fill="#EB996E"/>
<path d="M173.867 79.2887C173.741 79.1624 176.015 78.5311 178.416 79.4149C180.943 80.2987 182.207 82.1926 181.954 82.3188C181.828 82.4451 180.438 80.93 178.163 80.0462C176.015 79.1624 173.867 79.4149 173.867 79.2887Z" fill="#263238"/>
<path d="M181.828 71.3346C182.08 71.3346 181.701 74.1122 182.207 77.3948C182.712 80.6775 184.228 83.0764 184.102 83.2026C184.102 83.2026 183.597 82.6976 182.965 81.6875C182.46 80.6775 181.828 79.1624 181.575 77.5211C181.07 73.9859 181.701 71.3346 181.828 71.3346Z" fill="#263238"/>
<path d="M236.288 116.155C236.161 116.029 236.793 115.524 237.804 115.145C238.815 114.767 240.457 114.388 242.226 114.388C243.995 114.388 245.638 114.767 246.649 115.272C247.66 115.777 248.291 116.155 248.165 116.408C248.039 116.787 245.512 115.777 242.226 115.777C239.067 115.524 236.414 116.534 236.288 116.155Z" fill="#263238"/>
<path d="M206.72 113.378C206.594 113.252 207.226 112.746 208.236 112.368C209.247 111.989 210.89 111.61 212.659 111.61C214.428 111.61 216.071 111.989 217.081 112.494C218.092 112.999 218.724 113.378 218.598 113.63C218.471 114.009 215.944 112.999 212.659 112.999C209.5 112.746 206.846 113.757 206.72 113.378Z" fill="#263238"/>
<path d="M234.014 118.175C234.014 118.175 234.014 118.428 234.014 118.933C234.014 119.438 234.014 120.196 234.14 121.079C234.14 121.963 234.14 123.099 234.266 124.362C234.266 125.625 234.393 127.14 234.898 128.655C235.403 130.17 236.288 131.685 237.678 133.074C239.068 134.336 240.837 135.473 242.859 135.978C243.869 136.23 245.007 136.356 246.144 136.23C247.281 136.23 248.418 135.978 249.429 135.473C251.577 134.715 253.599 133.074 254.862 131.054C256.126 129.033 256.758 126.761 256.631 124.615C256.631 122.342 256.631 120.196 256.631 118.049L256.884 118.302C250.314 118.302 244.628 118.175 240.458 118.175C238.436 118.175 236.92 118.175 235.656 118.049C235.151 118.049 234.772 118.049 234.393 118.049C234.14 118.302 234.014 118.175 234.014 118.175C234.014 118.175 234.519 118.175 235.656 118.049C236.793 118.049 238.436 118.049 240.331 117.923C244.501 117.923 250.187 117.797 256.884 117.797H257.137V118.049C257.137 120.069 257.137 122.342 257.137 124.615C257.263 126.887 256.631 129.412 255.242 131.432C253.852 133.579 251.704 135.22 249.429 136.104C248.292 136.483 247.155 136.735 245.891 136.861C244.754 136.988 243.617 136.861 242.479 136.483C240.331 135.978 238.436 134.841 237.046 133.452C235.656 132.064 234.772 130.422 234.14 128.781C233.634 127.14 233.508 125.625 233.634 124.362C233.634 123.099 233.634 121.963 233.761 120.953C233.761 120.069 233.761 119.438 233.887 118.807C234.014 118.428 234.014 118.175 234.014 118.175Z" fill="#263238"/>
<path d="M203.056 117.544C203.056 117.544 203.056 117.797 203.056 118.302C203.056 118.807 203.056 119.564 203.183 120.448C203.183 121.332 203.183 122.468 203.309 123.731C203.309 124.993 203.436 126.508 203.941 128.023C204.446 129.539 205.331 131.054 206.721 132.442C208.111 133.705 209.88 134.841 211.901 135.346C212.912 135.599 214.05 135.725 215.187 135.599C216.324 135.599 217.461 135.346 218.472 134.841C220.62 134.084 222.642 132.442 223.905 130.422C225.169 128.402 225.801 126.13 225.674 123.983C225.674 121.711 225.674 119.564 225.674 117.418L225.927 117.67C219.357 117.67 213.67 117.544 209.501 117.544C207.479 117.544 205.963 117.544 204.699 117.418C204.194 117.418 203.815 117.418 203.436 117.418C203.183 117.544 203.056 117.544 203.056 117.544C203.056 117.544 203.562 117.544 204.699 117.418C205.836 117.418 207.479 117.418 209.374 117.292C213.544 117.292 219.23 117.165 225.927 117.165H226.18V117.418C226.18 119.438 226.18 121.711 226.18 123.983C226.306 126.256 225.674 128.781 224.284 130.801C222.895 132.947 220.746 134.589 218.472 135.473C217.335 135.851 216.198 136.104 214.934 136.23C213.797 136.356 212.66 136.23 211.522 135.851C209.374 135.346 207.479 134.21 206.089 132.821C204.699 131.432 203.815 129.791 203.183 128.15C202.677 126.508 202.551 124.993 202.677 123.731C202.677 122.468 202.677 121.332 202.804 120.322C202.804 119.438 202.804 118.807 202.93 118.175C203.056 117.797 203.056 117.544 203.056 117.544Z" fill="#263238"/>
<path d="M234.266 119.186C234.266 119.312 232.371 119.564 229.843 119.564C227.443 119.564 225.421 119.438 225.421 119.186C225.421 119.059 227.316 118.807 229.843 118.807C232.371 118.807 234.266 118.933 234.266 119.186Z" fill="#263238"/>
<path d="M178.922 119.312C178.922 119.186 184.355 118.933 191.052 118.933C197.749 118.933 203.182 119.059 203.182 119.186C203.182 119.312 197.749 119.564 191.052 119.564C184.229 119.691 178.922 119.438 178.922 119.312Z" fill="#263238"/>
<path d="M421.654 134.968L384 121.458L346.724 134.715C341.923 136.988 337.753 138.25 337.753 142.669V164.764C337.753 180.041 341.796 195.192 350.01 208.575C356.959 219.811 367.7 231.427 384.252 238.876C399.415 233.952 410.787 220.821 417.737 209.458C425.95 196.075 429.994 180.925 429.994 165.648V145.826C430.246 139.639 426.835 136.483 421.654 134.968Z" fill="#E8505B"/>
<g opacity="0.3">
<path opacity="0.3" d="M384.379 226.25C371.238 220.443 362.772 211.1 357.212 202.136C350.641 191.53 347.482 179.536 347.482 167.415V152.012C347.482 148.477 349.631 145.194 353.8 143.3L384 132.064V121.711L346.724 134.968C342.807 136.735 337.753 138.503 337.753 142.922V165.016C337.753 180.293 341.796 195.444 350.01 208.827C356.959 220.064 367.7 231.679 384.252 239.129V226.25H384.379Z" fill="black"/>
</g>
<g opacity="0.4">
<path opacity="0.4" d="M384.379 239.002C387.032 238.119 389.433 237.108 391.707 235.846C397.899 232.437 403.332 227.766 407.375 223.599C411.924 218.928 415.336 213.751 418.242 208.953C426.455 195.57 430.499 180.42 430.12 164.638V146.457C430.12 137.366 425.445 136.735 421.528 134.968L383.873 121.458V131.811L414.325 143.3C418.495 145.32 420.643 148.477 420.643 152.012V167.415C420.643 179.536 417.484 191.53 410.914 202.136C405.354 211.1 397.267 220.19 384.126 226.124V239.002H384.379Z" fill="black"/>
</g>
<path opacity="0.5" d="M393.982 166.405V163.375C393.982 157.946 389.559 153.653 384.252 153.653C378.819 153.653 374.523 158.072 374.523 163.375V166.405C371.869 166.784 369.848 169.057 369.848 171.834V189.384C369.848 192.414 372.248 194.813 375.281 194.813H393.476C396.509 194.813 398.91 192.414 398.91 189.384V171.834C399.036 168.93 396.762 166.658 393.982 166.405ZM386.906 184.965H382.104L382.862 181.556C381.978 181.051 381.472 180.167 381.472 179.031C381.472 177.389 382.736 176.127 384.379 176.127C386.021 176.127 387.285 177.389 387.285 179.031C387.285 180.041 386.78 180.925 386.021 181.43C386.4 182.818 386.906 184.965 386.906 184.965ZM391.96 166.405H376.545V163.501C376.545 159.335 379.956 155.8 384.252 155.8C388.422 155.8 391.96 159.209 391.96 163.501V166.405Z" fill="white"/>
<path d="M353.674 166.153C353.548 166.153 353.295 165.016 353.169 163.123C352.916 161.229 352.789 158.577 352.916 155.673C352.916 154.158 353.042 152.77 353.169 151.507C353.295 150.244 353.548 149.108 354.053 148.224C354.558 147.341 355.19 146.836 355.696 146.583C356.201 146.331 356.58 146.331 356.58 146.331C356.707 146.457 355.317 146.709 354.558 148.351C354.179 149.234 354.053 150.244 353.927 151.507C353.8 152.77 353.8 154.158 353.674 155.547C353.548 158.451 353.674 161.102 353.8 162.996C353.674 165.016 353.8 166.153 353.674 166.153Z" fill="white"/>
<path d="M354.18 175.748C354.053 175.748 353.801 174.864 353.801 173.728C353.801 172.592 353.927 171.708 354.054 171.708C354.18 171.708 354.433 172.592 354.433 173.728C354.559 174.864 354.433 175.748 354.18 175.748Z" fill="white"/>
<path d="M314.503 266.652L272.553 370.308H196.991V374.98H422.286L468.28 266.652H314.503Z" fill="#263238"/>
<path d="M378.692 327.886C377.176 333.063 372.754 336.346 368.837 335.209C364.919 334.073 362.898 328.897 364.414 323.72C365.93 318.544 370.353 315.261 374.27 316.397C378.187 317.407 380.209 322.584 378.692 327.886Z" fill="#FAFAFA"/>
</g>
<defs>
<clipPath id="clip0">
<rect width="547" height="377" fill="white"/>
</clipPath>
</defs>
</svg>
