<svg width="451" height="387" viewBox="0 0 451 387" fill="none" xmlns="http://www.w3.org/2000/svg">
<path d="M306.685 108.385C157.249 127.924 37.4169 161.57 27.749 237.885C23.9224 267.691 82.0289 315.021 110.23 325.392C167.341 346.436 301.655 304.547 350.693 288.438C452.195 255.207 456.12 88.851 306.685 108.385Z" fill="#81C784"/>
<path d="M301.145 194.08C325.416 186.328 349.782 178.878 373.769 170.499C382.026 167.682 386.961 168.385 392.298 175.835C410.309 201.424 428.772 226.739 447.687 251.781C452.117 257.641 451.914 261.652 447.083 266.989C415.334 301.73 383.773 336.573 352.4 371.519C348.376 375.95 344.346 377.658 338.306 376.752C298.643 370.607 258.934 364.733 219.177 359.129C210.217 357.921 208.301 353.792 208.811 345.436C211.127 309.787 213.08 274.107 214.67 238.395C215.071 230.034 218.497 226.226 226.046 223.792C251.525 215.737 275.49 202.342 301.167 194.085C300.541 192.368 301.654 195.793 301.145 194.08Z" fill="#FB6E41"/>
<path d="M370.714 265.488L376.573 226.014C376.786 225.898 376.988 225.763 377.177 225.613C394.9 229.94 409.3 227.925 409.3 227.925C409.3 227.925 410.508 191.575 404.567 169.332C403.26 164.401 401.043 160.169 398.122 156.946C393.356 151.871 387.186 148.331 380.4 146.778L374.541 145.367C369.604 144.094 364.448 143.922 359.437 144.862C353.799 145.971 347.556 148.793 343.211 154.328C329.82 171.04 311.792 204.069 311.792 204.069C311.792 204.069 322.158 211.524 338.078 216.053L334.954 228.741L326.309 254.513C311.706 253.404 292.474 257.835 275.252 280.592L400.813 311.606C400.723 311.304 398.812 277.572 370.714 265.488ZM395.891 191.778C395.99 191.273 396.089 190.768 396.193 190.268C396.14 190.779 396.039 191.285 395.891 191.778ZM394.985 195.302C395.084 194.897 395.184 194.496 395.287 194.094C395.208 194.498 395.107 194.896 394.985 195.289V195.302ZM396.788 187.847C396.773 187.706 396.808 187.564 396.887 187.446C396.821 187.569 396.79 187.708 396.797 187.847H396.788ZM331.948 195.099C331.404 194.709 330.927 194.233 330.537 193.689C330.981 194.185 331.452 194.656 331.948 195.099ZM378.971 224.018C378.773 224.22 378.57 224.32 378.471 224.522C378.57 224.301 378.773 224.202 378.971 224V224.018ZM384.713 217.257C383.027 219.694 381.104 221.959 378.971 224.018C381.054 221.911 382.973 219.649 384.713 217.252V217.257ZM390.573 210.009L389.365 209.806C388.959 210.51 388.657 211.113 388.256 211.821C388.657 211.217 388.959 210.51 389.365 209.806L390.573 210.009C394.296 210.613 397.924 207.995 397.82 204.15C397.838 203.305 397.629 202.471 397.216 201.734C397.606 202.48 397.813 203.308 397.82 204.15C397.906 207.99 394.381 210.613 390.555 210.005L390.573 210.009ZM384.812 217.153C385.114 216.648 385.52 216.144 385.822 215.643C385.416 216.247 385.114 216.747 384.812 217.153ZM386.02 215.35C386.311 214.927 386.581 214.489 386.827 214.039C386.58 214.486 386.311 214.921 386.02 215.341V215.35ZM387.129 213.638C387.431 213.236 387.634 212.736 387.936 212.326C387.645 212.746 387.376 213.181 387.129 213.629V213.638ZM329.527 188.564C329.396 189.125 329.362 189.704 329.428 190.277C329.364 189.701 329.397 189.119 329.527 188.555V188.564ZM333.76 196.014C334.161 196.114 334.566 196.316 335.067 196.416C334.642 196.247 334.205 196.11 333.76 196.005V196.014Z" fill="white"/>
<path d="M402.233 313.421L272.633 281.397L273.945 279.684C291.973 255.796 312.409 251.992 326.309 253.002L326.106 255.819C313.216 254.814 294.488 258.235 277.568 279.585L399.01 309.693C398.108 302.441 393.151 276.967 370.011 266.997L371.119 264.378C399.718 276.665 402.034 311.104 402.034 311.505L402.233 313.421Z" fill="#1E120D"/>
<path d="M351.784 287.036C344.734 287.036 336.274 285.233 327.819 279.081C325.161 277.119 323.201 274.359 322.223 271.204C321.246 268.049 321.304 264.664 322.388 261.543L337.392 217.031C334.967 212.415 333.656 205.37 333.656 197.618L333.349 197.514C332.045 197.091 330.879 196.323 329.976 195.292C329.072 194.26 328.464 193.004 328.216 191.655C327.979 190.619 327.981 189.543 328.222 188.508C328.462 187.473 328.936 186.506 329.605 185.681C330.275 184.856 331.124 184.194 332.087 183.745C333.05 183.296 334.103 183.073 335.166 183.091C336.244 177.683 338.181 172.482 340.903 167.686C350.269 151.875 362.452 146.137 378.164 150.063C389.238 152.884 397.094 161.642 399.109 173.73C399.638 177.408 399.569 181.148 398.906 184.804C398.188 189.339 397.145 193.815 395.783 198.2C396.825 198.836 397.692 199.72 398.307 200.775C398.922 201.829 399.266 203.019 399.307 204.239C399.369 205.278 399.193 206.316 398.792 207.276C398.391 208.236 397.777 209.092 396.995 209.778C396.085 210.544 395.018 211.102 393.87 211.414C392.722 211.725 391.52 211.782 390.347 211.581H390.248C385.11 221.046 379.773 225.68 378.079 226.987L370.917 275.353C370.508 277.967 369.317 280.395 367.501 282.319C365.685 284.242 363.329 285.571 360.744 286.13C357.791 286.702 354.792 287.005 351.784 287.036ZM335.067 185.935C333.91 185.923 332.794 186.356 331.948 187.143C331.415 187.631 331.022 188.252 330.81 188.942C330.598 189.632 330.573 190.367 330.74 191.069C330.933 191.921 331.339 192.709 331.92 193.361C332.501 194.013 333.238 194.507 334.061 194.797L336.378 195.5V196.509C336.274 204.465 337.586 211.613 339.984 216.143L340.286 216.647L324.961 262.265C324.101 264.827 324.065 267.594 324.86 270.178C325.655 272.761 327.24 275.03 329.392 276.665C340.872 285.021 352.252 284.823 359.802 283.309C361.831 282.877 363.68 281.836 365.102 280.325C366.524 278.814 367.45 276.905 367.757 274.853L375.108 225.31L375.613 225.008C375.712 225.008 382.058 220.375 387.9 209.296L388.4 208.395L390.618 208.796C391.36 208.927 392.122 208.896 392.852 208.705C393.582 208.515 394.261 208.169 394.845 207.692C395.292 207.282 395.648 206.784 395.891 206.229C396.134 205.674 396.258 205.075 396.256 204.469C396.21 203.561 395.9 202.687 395.363 201.953C394.827 201.22 394.087 200.659 393.236 200.34L392.028 199.836L392.429 198.529C393.947 193.928 395.092 189.214 395.855 184.43C396.459 180.5 396.558 177.178 396.053 174.257C394.25 163.282 387.395 155.426 377.227 152.911C362.925 149.283 351.748 154.624 343.089 169.223C340.57 173.451 338.659 178.891 337.446 184.93L337.144 186.242L335.837 186.039C335.671 186.035 335.369 185.935 335.067 185.935Z" fill="#1E120D"/>
<path d="M338.19 214.935C346.348 225.811 355.511 234.37 375.446 225.915C375.446 225.915 354.713 242.528 334.882 228.732L338.19 214.935Z" fill="#1E120D"/>
<path d="M351.986 234.874C345.693 234.908 339.554 232.933 334.462 229.236L334.061 228.934L337.987 213.226L338.888 214.434C346.744 224.904 355.403 233.666 375.243 225.206L379.976 223.191L375.946 226.414C375.748 226.518 365.174 234.874 351.986 234.874ZM335.67 228.33C348.741 237.191 362.357 232.557 369.708 228.632C353.798 233.139 345.541 225.409 338.609 216.462L335.67 228.33Z" fill="#1E120D"/>
<path d="M334.967 196.608C334.566 196.509 334.066 196.306 333.66 196.207C329.428 194.797 327.715 189.158 331.041 186.138C331.725 185.511 332.543 185.048 333.433 184.786C334.322 184.523 335.26 184.468 336.175 184.624C337.284 178.787 339.195 173.144 342.034 168.515C350.796 153.61 362.375 147.669 377.682 151.496C388.756 154.318 395.607 162.877 397.513 173.649C398.018 176.818 398.018 180.048 397.513 183.218C396.72 188.517 395.475 193.739 393.79 198.826C394.875 199.251 395.814 199.981 396.493 200.928C397.172 201.875 397.562 202.998 397.617 204.162C397.815 208.088 394.191 210.707 390.365 210.022L389.157 209.819C384.122 219.487 378.682 224.319 376.987 225.63C394.714 229.957 409.115 227.942 409.115 227.942C409.115 227.942 410.323 191.592 404.378 169.349C403.071 164.418 400.853 160.186 397.937 156.963C393.169 151.888 386.998 148.348 380.21 146.795L374.351 145.384C369.413 144.111 364.255 143.939 359.243 144.879C353.604 145.988 347.362 148.81 343.017 154.345C329.626 171.057 311.602 204.086 311.602 204.086C311.602 204.086 322.176 211.64 338.388 216.17C336.076 211.311 334.868 204.262 334.967 196.608Z" fill="#1E120D"/>
<path d="M391.348 206.978C391.952 206.077 392.659 205.369 392.961 204.562C393.173 204.234 393.246 203.835 393.164 203.454C393.088 202.999 392.876 202.577 392.556 202.246C392.852 202.298 393.132 202.415 393.376 202.59C393.62 202.765 393.822 202.992 393.967 203.255C394.1 203.541 394.16 203.855 394.143 204.169C394.125 204.484 394.031 204.789 393.867 205.058C393.58 205.529 393.203 205.939 392.759 206.266C392.371 206.64 391.879 206.888 391.348 206.978Z" fill="#1E120D"/>
<path d="M336.076 193.386C335.684 192.996 335.345 192.556 335.066 192.079C334.829 191.572 334.693 191.024 334.665 190.465C334.654 190.159 334.719 189.855 334.854 189.58C334.989 189.305 335.19 189.068 335.439 188.889C335.688 188.711 335.977 188.597 336.281 188.557C336.585 188.517 336.894 188.554 337.18 188.662C336.762 188.855 336.387 189.13 336.076 189.469C335.87 189.802 335.765 190.187 335.774 190.578C335.67 191.371 335.972 192.277 336.076 193.386Z" fill="#1E120D"/>
<path d="M384.307 203.054C383.807 205.759 380.584 207.485 377.262 206.881C373.94 206.277 371.723 203.658 372.223 200.94C372.724 198.223 375.951 196.51 379.272 197.114C382.594 197.718 384.812 200.336 384.307 203.054Z" fill="#FFC9C9"/>
<path d="M353.194 196.708C352.293 199.327 348.962 200.336 345.843 199.025C342.724 197.713 340.908 194.594 341.814 191.975C342.72 189.357 346.046 188.37 349.165 189.663C352.388 190.97 354.1 194.193 353.194 196.708Z" fill="#FFC9C9"/>
<path d="M354.704 187.847C354.402 189.159 353.397 189.966 352.486 189.763C351.576 189.56 351.08 188.352 351.382 187.058C351.684 185.765 352.689 184.94 353.595 185.143C354.501 185.431 355.006 186.639 354.704 187.847Z" fill="#222A46"/>
<path d="M379.074 193.89C378.772 195.197 377.763 196.004 376.857 195.801C375.951 195.598 375.446 194.395 375.748 193.097C376.05 191.799 377.06 190.983 377.966 191.186C378.872 191.388 379.376 192.583 379.074 193.89Z" fill="#222A46"/>
<path d="M356.115 201.846C356.781 203.044 357.63 204.131 358.63 205.068C359.552 205.947 360.706 206.541 361.957 206.781C363.235 206.911 364.526 206.843 365.783 206.578L367.694 205.974C368.343 205.679 369.017 205.442 369.709 205.267C369.204 205.771 368.6 206.168 368.095 206.677C367.492 207.074 366.852 207.412 366.184 207.687C364.776 208.235 363.258 208.442 361.754 208.291C360.211 207.95 358.828 207.099 357.828 205.875C356.849 204.744 356.25 203.335 356.115 201.846Z" fill="#FF3E3E"/>
<path d="M362.66 197.114C363.277 196.549 363.993 196.104 364.773 195.802C365.476 195.418 366.22 195.115 366.991 194.901L366.585 196.411C365.762 195.379 365.272 194.122 365.179 192.805C365.077 192.208 365.077 191.599 365.179 191.002C365.23 190.394 365.331 189.791 365.481 189.199C365.882 190.308 366.184 191.412 366.585 192.521C366.991 193.531 367.392 194.536 367.996 195.14L369.001 196.145L367.694 196.65C366.958 196.99 366.178 197.228 365.377 197.357C364.587 197.555 363.776 197.657 362.962 197.659C362.759 197.659 362.66 197.456 362.66 197.254C362.56 197.213 362.56 197.213 362.66 197.114Z" fill="#EB7D7A"/>
<path d="M346.749 161.163L337.585 172.539L401.714 188.977L399.194 174.68C397.179 163.097 388.719 153.533 377.442 150.612C376.541 150.409 375.64 150.211 374.625 150.008C364.07 148.174 353.397 152.802 346.749 161.163Z" fill="#1E120D"/>
<path d="M304.67 25.9119C312.828 25.1097 317.961 30.3425 317.258 38.5997C317.012 42.2668 316.301 45.8879 315.144 49.3763C307.892 69.3161 296.516 86.0287 276.576 95.4983C271.542 97.8105 266.102 99.9289 261.171 95.9986C256.335 92.0728 257.565 86.3307 258.854 81.2962C262.077 69.3161 268.319 58.8414 275.67 49.0744C281.913 40.8172 288.457 32.8485 298.026 28.0258C300.14 26.9216 302.353 25.9119 304.67 25.9119Z" fill="#C6859C"/>
<path d="M229.35 84.1188C224.717 78.9806 222.702 72.639 221.093 66.1937C216.662 48.3543 216.469 30.7492 224.816 13.8293C226.039 11.2677 227.673 8.9231 229.652 6.8882C235.795 0.947736 241.434 1.65086 245.964 9.00207C248.379 12.8287 249.79 17.0564 250.795 21.487C254.924 38.6142 256.033 55.8272 251.904 73.0446C250.899 77.4752 249.087 81.5046 245.662 84.7272C239.518 90.3612 235.088 90.3612 229.35 84.1188Z" fill="#C6859C"/>
<path d="M115.86 16.4473C168.526 16.4473 203.367 44.1394 212.633 93.484C222.702 146.669 199.441 187.031 147.076 207.371C97.2316 226.707 51.3124 215.227 24.2243 176.759C-9.2055 129.131 8.61589 59.3466 61.7871 29.6398C81.3212 18.8631 91.0883 16.4473 115.86 16.4473Z" fill="#FB6E41"/>
<path d="M190.953 100.186C192.06 103.41 192.935 106.709 193.572 110.057L190.953 100.186L175.949 52.1624C176.736 51.9176 177.467 51.5203 178.1 50.993C178.733 50.4658 179.257 49.8189 179.64 49.0894C180.024 48.3599 180.259 47.5621 180.334 46.7414C180.41 45.9207 180.322 45.0933 180.077 44.3064C179.833 43.5194 179.435 42.7884 178.908 42.1551C178.381 41.5217 177.734 40.9984 177.004 40.615C176.275 40.2317 175.477 39.9957 174.656 39.9207C173.836 39.8457 173.008 39.933 172.221 40.1778L168.692 28.5988C167.904 26.0941 166.751 23.719 165.271 21.5496C165.5 21.2682 165.702 20.9665 165.875 20.6482L170.707 32.6328C175.44 28.4005 173.93 17.3083 171.113 13.4998C164.87 4.73331 146.648 -2.21676 126.505 1.92984C112.709 4.74683 115.733 18.6425 115.733 18.6425C109.689 18.0385 106.466 23.8798 106.466 23.8798C99.7054 39.389 123.688 54.8937 123.688 54.8937C121.367 47.1279 117.761 39.6775 119.564 33.9308C119.304 37.0883 119.645 40.2663 120.569 43.2967L124.071 54.8802C122.482 55.3745 121.154 56.4799 120.38 57.9532C119.606 59.4264 119.448 61.147 119.943 62.7362C120.437 64.3255 121.542 65.6533 123.016 66.4275C124.489 67.2018 126.209 67.3591 127.799 66.8648L145.521 123.655C144.265 120.736 143.189 117.742 142.298 114.69C142.298 114.591 142.195 114.591 142.195 114.69C140.081 116.205 98.9977 148.125 118.23 211.144L266.967 165.928C247.446 101.507 191.458 100.186 190.953 100.186Z" fill="white"/>
<path d="M267.283 165.346C247.646 100.699 191.157 99.2842 191.157 99.2842C191.157 99.2842 205.652 138.361 179.375 146.317C153.896 154.069 143.223 116.308 142.718 114.194C142.718 114.09 142.619 114.09 142.619 114.194C140.505 115.704 99.4179 147.624 118.65 210.648L267.283 165.346Z" fill="#1E120D"/>
<path d="M118.046 211.568L117.847 210.766C98.5116 147.12 140.298 114.799 142.101 113.388L142.403 113.086L142.907 113.185C143.047 113.215 143.172 113.291 143.264 113.401C143.355 113.51 143.407 113.647 143.412 113.789C143.61 114.691 149.655 136.447 163.149 143.902C168.08 146.606 173.416 147.109 179.159 145.412C184.896 143.699 189.025 140.274 191.544 135.239C198.391 121.343 190.539 99.6909 190.436 99.4926L190.034 98.3838H191.242C191.341 98.3838 205.742 98.7849 222.256 107.245C237.581 114.997 257.904 131.313 268.076 165.045L268.275 165.852L118.046 211.568ZM142.101 115.403C136.061 120.338 101.82 151.654 119.042 209.553L266.264 164.847C256.092 132.219 236.355 116.408 221.553 108.858C207.959 101.908 195.975 100.498 192.256 100.196C193.548 104.064 194.492 108.04 195.078 112.077C196.187 118.837 196.687 128.595 192.86 136.145C190.156 141.585 185.712 145.308 179.569 147.12C173.425 148.932 167.688 148.432 162.351 145.511C149.763 138.462 143.624 120.338 142.101 115.403Z" fill="#1E120D"/>
<path d="M154.5 69.0865C153.734 69.092 152.979 68.9 152.309 68.5289C151.639 68.1579 151.075 67.6203 150.673 66.9681L152.183 66.1659C152.287 66.3642 153.193 67.8741 155.812 67.0673C158.43 66.2605 158.327 64.4486 158.327 64.2458L160.039 64.043C160.242 65.2554 159.638 67.6712 156.312 68.6763C155.749 68.9551 155.128 69.0957 154.5 69.0865Z" fill="#1E120D"/>
<path d="M166.182 20.0397C166.182 20.0397 161.147 29.1037 148.658 29.7076C136.169 30.3116 136.777 21.5496 125.802 27.0033C114.827 32.457 120.664 43.112 124.089 54.1906C124.089 54.1906 100.125 38.5823 106.867 23.1767C106.867 23.1767 110.09 17.2318 116.134 17.9394C116.134 17.9394 113.114 4.14291 126.911 1.22225C146.95 -2.90632 165.276 4.04375 171.532 12.8012C174.353 16.7315 175.863 27.7065 171.131 31.9342L166.182 20.0397Z" fill="#1E120D"/>
<path d="M158.127 60.9249L149.667 59.717L149.767 58.4054L156.113 59.3114L149.365 41.6928L150.573 41.188L158.127 60.9249Z" fill="#1E120D"/>
<path d="M141.713 114.294L127.411 67.2839C125.694 67.5885 123.926 67.2518 122.441 66.3378C120.956 65.4237 119.858 63.9961 119.357 62.326C118.837 60.6658 118.95 58.8718 119.675 57.2902C120.4 55.7087 121.685 54.4518 123.283 53.7624L119.961 42.8866C115.832 29.1892 123.567 14.5905 137.282 10.4619C143.886 8.45614 151.015 9.1431 157.114 12.373C160.133 13.9714 162.803 16.1579 164.965 18.8036C167.127 21.4493 168.737 24.5008 169.702 27.7785L173.024 38.6543C174.604 38.3753 176.232 38.624 177.657 39.362C178.488 39.7934 179.22 40.3916 179.809 41.119C180.397 41.8465 180.83 42.6876 181.078 43.5897C181.622 45.398 181.443 47.3467 180.578 49.0254C179.831 50.4306 178.621 51.5341 177.153 52.1488L192.058 99.8799L190.444 100.385L175.043 51.0581L175.85 50.8598C176.537 50.6651 177.177 50.3325 177.731 49.8822C178.285 49.432 178.741 48.8736 179.073 48.2411C179.409 47.6137 179.618 46.9257 179.687 46.217C179.756 45.5083 179.683 44.793 179.474 44.1125C179.282 43.4243 178.95 42.783 178.5 42.2285C178.049 41.6741 177.489 41.2184 176.855 40.8899C176.228 40.5513 175.54 40.341 174.832 40.2714C174.123 40.2017 173.407 40.2741 172.726 40.4842L171.92 40.6871L168.093 28.3013C167.175 25.2415 165.661 22.3931 163.639 19.9199C161.617 17.4468 159.126 15.3974 156.309 13.8897C153.493 12.382 150.406 11.4456 147.227 11.1342C144.047 10.8229 140.838 11.1428 137.782 12.0755C124.995 16.0012 117.644 29.5994 121.556 42.3863L125.383 54.772L124.581 54.9748C121.759 55.8763 120.047 58.9006 120.952 61.7356C121.858 64.5706 124.883 66.2428 127.713 65.3414L128.52 65.1385L143.322 113.708L141.713 114.294Z" fill="#1E120D"/>
<path d="M135.169 45.7182C135.471 46.6196 135.065 47.4309 134.362 47.6337C133.659 47.8365 132.951 47.3317 132.649 46.4258C132.347 45.5198 132.748 44.7131 133.456 44.5102C134.164 44.3074 134.889 44.9114 135.169 45.7182Z" fill="#1E120D"/>
<path d="M162.455 37.4596C162.757 38.361 162.356 39.1723 161.648 39.3751C160.941 39.5779 160.242 39.0731 159.94 38.1672C159.638 37.2612 160.039 36.4544 160.742 36.2516C160.935 36.2128 161.133 36.2137 161.325 36.2541C161.517 36.2945 161.698 36.3737 161.859 36.4868C162.019 36.5999 162.155 36.7444 162.257 36.9117C162.36 37.079 162.427 37.2654 162.455 37.4596Z" fill="#1E120D"/>
<path d="M136.087 57.3723C137.79 56.8546 138.803 55.2263 138.35 53.7354C137.896 52.2445 136.148 51.4556 134.446 51.9733C132.743 52.491 131.73 54.1193 132.183 55.6102C132.636 57.101 134.384 57.89 136.087 57.3723Z" fill="#574A45"/>
<path d="M166.891 45.1123C167.296 46.6222 166.287 48.2358 164.574 48.7181C162.861 49.2003 161.049 48.5198 160.648 47.0099C160.247 45.5 161.252 43.8864 162.965 43.3816C164.678 42.8768 166.485 43.6024 166.891 45.1123Z" fill="#574A45"/>
<path d="M125.699 62.9393C125.278 62.9328 124.865 62.8295 124.491 62.6373C124.193 62.4875 123.93 62.275 123.722 62.0144C123.513 61.7538 123.364 61.4512 123.283 61.1274C123.095 60.4871 123.168 59.7986 123.486 59.2118C123.636 58.9136 123.848 58.6513 124.109 58.4428C124.369 58.2343 124.672 58.0846 124.996 58.0039L125.198 58.707C124.984 58.7649 124.783 58.8664 124.61 59.0052C124.436 59.1441 124.293 59.3172 124.189 59.5138C124.073 59.7094 124.004 59.9291 123.986 60.1558C123.969 60.3825 124.005 60.6101 124.09 60.8209C124.146 61.0363 124.247 61.2374 124.386 61.4113C124.525 61.5852 124.699 61.728 124.896 61.8305C125.092 61.9474 125.311 62.0172 125.538 62.0344C125.765 62.0517 125.993 62.0158 126.204 61.9297L126.406 62.6373C126.204 62.9393 126.001 62.9393 125.699 62.9393Z" fill="#1E120D"/>
<path d="M175.647 47.9341L175.454 47.2265C175.668 47.1704 175.869 47.07 176.043 46.9319C176.217 46.7937 176.36 46.6208 176.463 46.4242C176.579 46.2277 176.648 46.0073 176.665 45.7799C176.682 45.5526 176.647 45.3243 176.562 45.1126C176.5 44.8988 176.395 44.6998 176.254 44.5274C176.112 44.355 175.938 44.2129 175.741 44.1094C175.543 44.0059 175.327 43.9432 175.105 43.9251C174.883 43.907 174.66 43.9338 174.448 44.0039L174.246 43.3007C174.873 43.1021 175.554 43.1598 176.139 43.4613C176.724 43.7628 177.166 44.2835 177.369 44.9098C177.552 45.5505 177.479 46.237 177.166 46.8253C177 47.102 176.779 47.3426 176.519 47.533C176.258 47.7234 175.962 47.8598 175.647 47.9341Z" fill="#1E120D"/>
<path d="M64.6039 146.65C39.5305 155.412 11.8428 142.219 3.18005 117.245C-5.58191 92.0724 6.50184 67.4001 31.6744 58.8409C54.0256 51.2869 81.5193 66.7961 90.9844 92.3743C98.9441 114.126 86.9595 138.897 64.6039 146.65Z" fill="#0378EC"/>
<path d="M343.743 52.2979C358.166 73.0309 370.831 94.3904 364.183 121.073C360.054 137.587 348.777 148.265 332.263 152.172C307.794 158.032 286.141 149.252 264.894 138.074C274.26 135.153 283.626 133.242 292.992 130.926C316.88 124.985 330.55 109.575 337.095 86.5164C340.218 75.4602 341.827 63.9805 343.743 52.2979Z" fill="#0378EC"/>
<path d="M58.6636 324.283C70.0442 315.827 83.737 305.753 97.3307 295.784C113.746 283.698 130.194 271.649 146.675 259.636C154.932 253.696 155.838 254.097 158.358 263.864C166.02 292.967 173.561 322.169 181.115 351.272C181.921 354.494 182.422 357.816 183.229 361.845C141.035 349.159 99.5136 336.638 58.6636 324.283Z" fill="#FCB788"/>
<path d="M137.21 216.435C131.973 221.168 125.73 222.782 118.78 222.48C114.152 222.277 109.518 222.277 104.885 222.178C100.454 222.074 98.6423 224.291 98.9443 228.519C99.3454 234.158 99.9494 239.697 100.152 245.335C100.553 259.758 94.8157 266.884 80.7172 268.701C71.153 269.909 61.3814 269.503 51.8172 268.394C48.2926 267.993 46.075 266.686 47.1838 262.454C47.6581 260.507 47.9285 258.516 47.9906 256.513C48.1934 252.989 49.7033 251.682 53.4263 252.182C61.1831 253.291 69.0346 252.989 76.8906 252.79C82.0288 252.687 84.7467 250.987 84.039 245.128C83.2504 239.149 82.814 233.129 82.7319 227.099C82.6328 214.313 90.4843 206.366 103.172 205.956C108.207 205.753 113.241 206.055 118.28 206.258C124.721 206.56 126.636 204.847 126.434 198.303C126.371 194.271 125.898 190.255 125.023 186.318C124.32 182.893 125.126 181.18 128.547 179.972C139.527 175.947 139.928 176.146 141.74 187.526C143.151 196.387 143.854 205.149 139.225 213.407C138.72 214.524 137.913 215.43 137.21 216.435Z" fill="#FEE5BF"/>
<path d="M308.699 342.411C321.991 320.456 341.426 303.739 372.138 296.888C379.8 295.176 387.85 294.184 396.711 295.176C414.636 297.19 424.601 307.16 421.28 320.254C418.26 332.035 411.31 341.6 402.751 350.362C390.063 363.432 375.361 374.727 356.53 382.363C349.079 385.387 340.921 387.501 331.357 386.897C313.734 385.788 302.457 375.922 302.556 361.922C302.66 354.594 305.477 348.45 308.699 342.411Z" fill="#390142"/>
<path fill-rule="evenodd" clip-rule="evenodd" d="M325.615 351.777C324.005 354.089 317.258 362.851 316.654 364.059C317.258 364.262 319.174 363.757 319.976 363.658C327.228 362.549 335.386 361.544 342.535 360.638C350.49 359.629 354.316 359.529 361.366 356.708C363.403 355.906 365.206 355.293 367.306 354.391C369.109 353.589 371.133 352.588 373.044 351.574C374.975 350.653 376.827 349.575 378.583 348.352C383.419 344.926 384.627 343.921 388.756 339.391L403.066 323.58C404.076 322.571 407.298 319.348 407.798 318.442C406.694 317.234 407.699 317.338 404.779 317.64C401.173 317.942 391.586 318.244 387.962 318.343C385.749 318.343 383.433 318.244 381.202 318.343C367.405 318.442 354.717 320.962 344.346 329.016C340.317 332.239 333.471 340.496 329.923 345.242C328.414 347.459 327.106 349.672 325.592 351.791L325.615 351.777Z" fill="#E1B2BD"/>
<path fill-rule="evenodd" clip-rule="evenodd" d="M349.481 343.015C348.98 343.719 346.776 346.621 346.564 347.04C346.763 347.144 347.367 346.941 347.669 346.941C349.985 346.54 352.703 346.238 355.02 345.936C357.639 345.634 358.847 345.634 361.163 344.624C361.778 344.33 362.42 344.095 363.079 343.921C363.699 343.66 364.301 343.359 364.882 343.02C365.504 342.723 366.106 342.386 366.685 342.01C367.931 341.207 369.05 340.223 370.006 339.09L374.671 333.951C374.973 333.65 376.082 332.541 376.181 332.239C375.78 331.838 376.181 331.838 375.176 331.937C373.968 332.04 370.944 332.14 369.736 332.14H367.523C363.092 332.14 358.959 332.946 355.538 335.664C354.231 336.669 352.014 339.387 350.905 340.902C350.405 341.605 350.003 342.308 349.494 343.015H349.481Z" fill="#E5DFCC"/>
<path d="M260.463 356.407C237.101 350.668 219.211 337.51 206.792 316.933C194.313 296.395 190.957 274.444 196.723 251.078C202.489 227.713 215.647 209.788 236.197 197.303C256.74 184.917 278.692 181.594 302.051 187.333L302.556 187.437L296.313 213.011L295.795 212.912C279.484 208.882 264.276 211.199 249.98 219.862C235.683 228.524 226.515 241.009 222.486 257.321C218.456 273.632 220.89 288.939 229.54 303.136C238.202 317.439 250.656 326.604 266.9 330.63L267.404 330.729L261.058 356.42L260.463 356.407Z" fill="#FED160"/>
</svg>
