<svg width="48" height="48" viewBox="0 0 48 48" fill="none" xmlns="http://www.w3.org/2000/svg">
<path d="M24 48C37.2375 48 48 37.2375 48 24C48 10.7625 37.2375 0 24 0C10.7625 0 0 10.7625 0 24C0 37.2375 10.7625 48 24 48ZM24 3C35.575 3 45 12.425 45 24C45 35.575 35.575 45 24 45C12.425 45 3 35.575 3 24C3 12.425 12.425 3 24 3Z" fill="white"/>
<path d="M15.7875 28.3131L18.925 26.9506L18.05 27.8381C17.7625 28.1256 17.6125 28.5006 17.6125 28.9006V34.7756C17.6125 36.1256 19.2375 36.7756 20.175 35.8381L23.325 32.6881L30.1875 36.1131C31.075 36.5631 32.15 36.0256 32.3375 35.0381L36.2375 13.5006C36.4375 12.3381 35.3 11.4006 34.2125 11.8381L8.77498 21.8006C7.63748 22.2381 7.48748 23.8006 8.51248 24.4631L14.375 28.2131C14.8125 28.4631 15.3375 28.5131 15.7875 28.3131ZM32.8 15.6131L29.725 32.5256L23.6875 29.5131C23.1 29.2256 22.4125 29.3381 21.9625 29.8006L20.6125 31.1506V29.5256L26.625 23.5006C27.7875 22.3381 26.475 20.4131 24.9625 21.0631L15.325 25.2506L12.625 23.5131L32.8 15.6131Z" fill="white"/>
</svg>
