<svg width="48" height="48" viewBox="0 0 48 48" fill="none" xmlns="http://www.w3.org/2000/svg">
<path d="M24 4C35 4 44 13 44 24C44 35 35 44 24 44C13 44 4 35 4 24C4 13 13 4 24 4ZM24 0C10.8 0 0 10.8 0 24C0 37.2 10.8 48 24 48C37.2 48 48 37.2 48 24C48 10.8 37.2 0 24 0ZM25.2 32C25.8 32 26 31.6 26 31C26 29 26.8 28 28 29.4C29.4 30.8 29.8 32 31.6 32C32.2 32 34.2 32 34.8 32C35.6 32 36 31.8 36 31.4C36 30.6 34.6 29 33.4 27.8C31.8 26.2 31.6 26.2 33 24.4C34.8 22 37.2 19 35 19C34.6 19 34.8 19 31 19C30.2 19 30.2 19.4 29.8 20C28.8 22.4 27 25.4 26.2 25C25.4 24.6 25.8 22.6 25.8 19.8C25.8 19 25.8 18.6 24.6 18.2C24.4 18 23.8 18 23.2 18C21 18 19.4 19 20.2 19.2C21.8 19.4 21.6 22.8 21.2 24.4C20.6 27 18.2 22.4 17.2 20C17 19.4 17 19 16 19C15.6 19 13.4 19 12.8 19C12.2 19 12 19.2 12 19.6C12 20.2 15 26.4 17.8 29.4C20.6 32.2 23.2 32 25.2 32Z" fill="white"/>
</svg>
