<svg width="168" height="162" xmlns="http://www.w3.org/2000/svg" fill="none" viewBox="0 0 168 162"><path fill="#FBD061" d="M58.216 98.92c-4.307-9.288-9.485-20.39-14.62-31.497-6.178-13.336-12.401-26.673-18.491-40.05-3.046-6.688-2.568-7.255 5.177-7.459 23.061-.648 46.107-1.255 69.139-1.823 2.525-.08 5.051.162 8.223.243A69203.136 69203.136 0 0 1 58.216 98.92z"/><path fill="#FF8A65" d="M28.236 59.56c-29.716 7.013-25.453 43.657-5.829 58.25 34.46 25.58 78.928 23.151 93.722 7.337 8.311-8.917 11.835-43.09 2.694-55.819-15.705-21.727-60.868-16.782-90.587-9.769z"/><path fill="#fff" d="M71.922 55.957c.007.056.021.11.044.162l-.044-.162-3.917-21.084a2.48 2.48 0 0 0 .912-.31c.278-.162.52-.375.712-.629.19-.253.326-.541.398-.847.073-.305.08-.62.022-.929a2.465 2.465 0 0 0-.958-1.457c.143-1.621.07-3.253-.217-4.857-.956-5.189-4.04-9.364-7.962-11.472a8.732 8.732 0 0 0 1.52-3.227 8.557 8.557 0 0 0 .09-3.542c-.911-4.957-6.003-8.281-11.31-7.43-5.308.852-8.877 5.596-7.963 10.54a8.609 8.609 0 0 0 1.353 3.31 8.983 8.983 0 0 0 2.606 2.527c-2.915 3.202-4.307 8.107-3.351 13.296.29 1.599.803 3.153 1.524 4.62a2.242 2.242 0 0 0-.392 1.663c.217 1.296 1.565 2.149 2.916 1.906l3.792 21.118c-1.132.609-18.798 10.582-14.312 34.74l61.558-9.928c-4.526-24.893-27.021-28.008-27.021-28.008z"/><path fill="#1E120D" d="M37.157 94.34l-.044-.324c-4.568-24.566 13.75-34.659 14.533-35.065l.168-.081.169.08c.13.041.168.163.217.245.044.364 1.392 8.715 6.353 12.08 1.827 1.215 3.914 1.662 6.265 1.295 2.35-.368 4.177-1.457 5.438-3.203 3.439-4.823 1.347-13.254 1.347-13.335l-.13-.447.479.08c.044 0 5.787.852 11.965 4.745 5.7 3.607 13.01 10.62 15.447 23.591l.043.324-62.25 10.015zm14.445-34.619c-2.741 1.62-17.84 11.634-13.835 33.889l60.906-9.806c-2.436-12.567-9.528-19.378-15.096-22.864-5.004-3.161-9.704-4.256-11.184-4.533.392 1.906 1.61 8.918-1.515 13.378-1.347 1.904-3.307 3.076-5.875 3.486-2.526.404-4.829-.081-6.787-1.419-4.7-3.213-6.265-10.185-6.614-12.13z"/><path fill="#1E120D" d="M51.865 59.357l4.916 30.848c0 .121-.168.202-.217.08l-5.134-8.714a10.89 10.89 0 0 1-1.523-4.963c-.098-1.745.23-3.489.958-5.091a4.998 4.998 0 0 1-2.123-2.77 4.802 4.802 0 0 1 .252-3.432l2.782-5.958c0-.081.089-.04.089 0z"/><path fill="#1E120D" d="M56.65 90.65a.497.497 0 0 1-.254-.062.472.472 0 0 1-.182-.181l-5.134-8.708a11.186 11.186 0 0 1-.695-10.094 5.28 5.28 0 0 1-2.06-2.926 5.096 5.096 0 0 1 .319-3.52l2.784-5.964a.468.468 0 0 1 .181-.182.493.493 0 0 1 .254-.063c.083.018.16.058.221.115.062.057.106.13.127.21l4.917 30.842a.424.424 0 0 1-.06.297.453.453 0 0 1-.245.189c-.044.047-.087.047-.173.047zm-4.954-30.24l-2.357 5.02a4.552 4.552 0 0 0-.219 3.2 4.735 4.735 0 0 0 1.96 2.597l.217.162-.13.243a10.506 10.506 0 0 0 .566 9.77l4.48 7.62-4.517-28.611zM71.922 56.195l6.482 30.523c.01.026.027.049.05.065a.141.141 0 0 0 .211-.065l1.697-9.811c.3-1.728.178-3.5-.358-5.174a11.188 11.188 0 0 0-2.73-4.474 4.82 4.82 0 0 0 .985-3.287 4.874 4.874 0 0 0-1.464-3.117l-4.7-4.661c-.086-.12-.217-.075-.173.001z"/><path fill="#1E120D" d="M78.491 87.124a.517.517 0 0 1-.302-.105.484.484 0 0 1-.176-.26L71.53 56.237a.393.393 0 0 1 .03-.26.414.414 0 0 1 .189-.187.493.493 0 0 1 .522.08l4.7 4.663a5.167 5.167 0 0 1 1.551 3.191 5.096 5.096 0 0 1-.895 3.416 11.446 11.446 0 0 1 2.671 4.53c.52 1.687.634 3.465.331 5.199l-1.697 9.81a.386.386 0 0 1-.11.32.417.417 0 0 1-.325.126h-.005zm-6.048-30.077l6.005 28.376 1.48-8.594c.61-3.4-.522-6.81-3.002-9.364l-.218-.203.169-.202a4.535 4.535 0 0 0 .926-3.076 4.582 4.582 0 0 0-1.356-2.925l-4.004-4.012z"/><path fill="#574A45" d="M52.864 35.558c.087.568-.391 1.133-1.088 1.256-.74.122-1.391-.243-1.479-.81-.087-.566.391-1.133 1.088-1.257.697-.125 1.393.248 1.479.81zM64.742 33.656c.088.568-.39 1.133-1.088 1.258-.739.12-1.392-.245-1.478-.81-.086-.565.39-1.133 1.088-1.256.697-.123 1.348.24 1.478.808z"/><path fill="#1E120D" d="M50.863 33.13h-.478c0-.04.042-1.296.912-1.419.697-.123 1.132.648 1.263 1.095l-.436.121s-.26-.851-.74-.77c-.391.001-.521.73-.521.973zM62.304 31.264h-.478c0-.04.044-1.295.912-1.418.697-.122 1.132.647 1.263 1.094l-.436.122s-.261-.852-.74-.77c-.388.04-.521.732-.521.972zM58.042 36.898l-.087-.688 1.436-.243-1.524-2.108.61-.406 2.131 3-2.566.445zM58.347 41.885c-1.045 0-1.567-.607-1.74-.971l.695-.243-.347.121.347-.121c.044.08.305.69 1.392.528 1.088-.162 1.132-.852 1.132-.933h.739c0 .445-.347 1.378-1.74 1.58a2.1 2.1 0 0 1-.478.04z"/><path fill="#1E120D" d="M43.857 29.892c.29 1.598.803 3.152 1.524 4.62.195-.276.446-.513.737-.694.291-.182.618-.306.96-.365l-.827-4.499c-.958-5.148 2.741-10.054 8.266-10.944 5.526-.892 10.791 2.553 11.75 7.701l.826 4.504a2.68 2.68 0 0 1 1.025.033c.336.077.653.217.931.414a18.44 18.44 0 0 0-.217-4.857c-.956-5.189-4.04-9.364-7.962-11.472a8.734 8.734 0 0 0 1.52-3.235 8.559 8.559 0 0 0 .083-3.548C61.567 2.605 56.475-.718 51.168.133c-5.307.852-8.877 5.594-7.963 10.54a8.608 8.608 0 0 0 1.354 3.31 8.984 8.984 0 0 0 2.605 2.526c-2.827 3.283-4.263 8.189-3.307 13.383z"/><path fill="#1E120D" d="M51.472 59.276L47.643 38.48a2.98 2.98 0 0 1-1.934-.576 2.775 2.775 0 0 1-1.07-1.653 2.586 2.586 0 0 1 .028-1.06c.083-.348.236-.677.452-.967.378-.487.91-.843 1.516-1.013l-.783-4.176a9.063 9.063 0 0 1 .096-3.848 9.258 9.258 0 0 1 1.689-3.49c1.624-2.145 4.063-3.587 6.787-4.012a10.955 10.955 0 0 1 7.88 1.662 9.877 9.877 0 0 1 2.822 2.741 9.47 9.47 0 0 1 1.485 3.583l.784 4.175a2.761 2.761 0 0 1 1.784.486c.31.197.575.454.777.754.203.3.34.637.401.99.064.35.055.71-.026 1.058a2.64 2.64 0 0 1-.45.967c-.378.486-.91.842-1.516 1.013l3.817 21.005-.695.121-3.964-21.653.349-.04a2.174 2.174 0 0 0 1.392-.81c.172-.21.292-.452.352-.712.06-.26.058-.529-.005-.788a1.95 1.95 0 0 0-.299-.731 2.033 2.033 0 0 0-.57-.564 2.078 2.078 0 0 0-1.611-.324l-.347.043-.914-4.825a8.91 8.91 0 0 0-1.38-3.347 9.29 9.29 0 0 0-2.622-2.572 10.283 10.283 0 0 0-7.31-1.543c-2.542.396-4.822 1.732-6.352 3.724a8.686 8.686 0 0 0-1.56 3.247 8.506 8.506 0 0 0-.092 3.575l.914 4.823-.348.04a2.18 2.18 0 0 0-1.391.81c-.164.213-.28.456-.34.715a1.82 1.82 0 0 0-.009.786c.218 1.094 1.347 1.823 2.526 1.66l.347-.04 3.915 21.439-.696.123z"/><path fill="#1E120D" d="M47.339 36.777a1.037 1.037 0 0 1-.644-.212.967.967 0 0 1-.358-.557.793.793 0 0 1 .168-.69c.162-.196.395-.326.652-.364l.044.324a.748.748 0 0 0-.435.243.816.816 0 0 0-.131.485c.044.324.436.567.783.527l.044.323c-.037-.079-.081-.079-.123-.079zM67.961 33.453l-.042-.324a.678.678 0 0 0 .439-.253.629.629 0 0 0 .127-.477.682.682 0 0 0-.263-.405.976.976 0 0 0-.522-.121l-.042-.324a.962.962 0 0 1 .74.162c.16.113.282.27.35.45.069.18.08.374.034.56a.965.965 0 0 1-.295.486c-.146.13-.33.215-.526.246zM46.903 32.602s7.962-2.998 7.745-13.174c0 0 2.176 8.026 12.487 10.783 0 0-.696-15.607-12.835-13.661-12.14 1.946-7.397 16.052-7.397 16.052z"/><path fill="#190242" d="M9.658 115.374c-6.959-1.252-9.616-6.766-6.353-12.036 1.915-3.076 4.7-5.39 7.746-7.499 3.829-2.634 7.962-4.782 12.183-6.81 1.261-.608 1.783-.405 2.479.689a1483.481 1483.481 0 0 0 10.4 16.094c.39.607 1.179 1.216-.087 1.864-7.565 3.77-15.186 7.374-24.019 7.743-1 .081-2-.045-2.349-.045z"/><path fill="#FE6206" d="M38.732 104.027c-1.61-3.04 2.087-3.723 4.177-4.946 21.616-12.728 43.372-25.376 64.996-38.063 9.573-5.635 9.573-5.675 14.794 4.047 8.441 15.688 16.669 31.497 25.453 47.023 2.393 4.21 1.219 5.958-2.653 8.106a8228.858 8228.858 0 0 0-72.49 40.383c-2.828 1.58-4.655 2.553-6.438-1.014-9.094-18.324-18.32-36.565-27.84-55.536z"/><path fill="#FEE5BF" fill-rule="evenodd" d="M99.852 153.075a.495.495 0 0 1 .391.096.459.459 0 0 1 .174.35.45.45 0 0 1-.276.489.51.51 0 0 1-.202.038.495.495 0 0 1-.39-.097.453.453 0 0 1-.176-.349.47.47 0 0 1 .123-.361.508.508 0 0 1 .356-.166zm-8.61-75.033a.52.52 0 0 1 .283.067c.085.05.153.121.196.207a.47.47 0 0 1-.075.53.524.524 0 0 1-.776-.017.476.476 0 0 1-.107-.26.555.555 0 0 1 .145-.344.595.595 0 0 1 .335-.183zm4.525-.446a.495.495 0 0 1 .39.096.462.462 0 0 1 .176.35.438.438 0 0 1-.11.371.472.472 0 0 1-.369.156.497.497 0 0 1-.39-.097.461.461 0 0 1-.175-.35.467.467 0 0 1 .123-.36.503.503 0 0 1 .355-.166zm4.526-.447a.521.521 0 0 1 .282.068c.085.05.153.12.196.207a.472.472 0 0 1-.075.53.526.526 0 0 1-.537.142.504.504 0 0 1-.238-.16.475.475 0 0 1-.108-.259.485.485 0 0 1 .127-.359.523.523 0 0 1 .353-.169zm4.48-.445a.5.5 0 0 1 .391.096.456.456 0 0 1 .175.35.442.442 0 0 1-.11.372.489.489 0 0 1-.368.155.498.498 0 0 1-.391-.096.461.461 0 0 1-.175-.35.515.515 0 0 1 .135-.351.553.553 0 0 1 .343-.176zm4.526-.447a.498.498 0 0 1 .391.097.462.462 0 0 1 .175.35.44.44 0 0 1-.11.372.48.48 0 0 1-.368.154.502.502 0 0 1-.391-.096.448.448 0 0 1-.175-.35.483.483 0 0 1 .126-.358.52.52 0 0 1 .352-.169zm4.482-.445a.496.496 0 0 1 .39.096.471.471 0 0 1 .128.156c.03.06.046.127.046.193a.445.445 0 0 1-.109.372.48.48 0 0 1-.369.156.493.493 0 0 1-.39-.096.46.46 0 0 1-.176-.35.558.558 0 0 1 .145-.343.593.593 0 0 1 .335-.184zm4.525-.445a.497.497 0 0 1 .39.096.46.46 0 0 1 .175.35.441.441 0 0 1-.11.371.474.474 0 0 1-.368.156.499.499 0 0 1-.391-.097.45.45 0 0 1-.175-.35.484.484 0 0 1 .283-.478.526.526 0 0 1 .196-.048zm4.526-.447a.494.494 0 0 1 .39.097.459.459 0 0 1 .174.35.44.44 0 0 1-.111.371.484.484 0 0 1-.368.155.496.496 0 0 1-.39-.096.46.46 0 0 1-.175-.35.481.481 0 0 1 .285-.477.533.533 0 0 1 .195-.05zm4.48-.445a.495.495 0 0 1 .39.096.46.46 0 0 1 .176.35.44.44 0 0 1-.111.37.468.468 0 0 1-.367.157.498.498 0 0 1-.392-.097.45.45 0 0 1-.174-.35.553.553 0 0 1 .144-.343.593.593 0 0 1 .334-.183zm4.531-.447a.498.498 0 0 1 .391.097.46.46 0 0 1 .175.35.494.494 0 0 1-.135.35.542.542 0 0 1-.72.056.501.501 0 0 1-.191-.325.484.484 0 0 1 .127-.36.525.525 0 0 1 .353-.168zm4.524-.445a.5.5 0 0 1 .391.096.456.456 0 0 1 .175.349.442.442 0 0 1-.11.372.489.489 0 0 1-.368.155.498.498 0 0 1-.391-.096.461.461 0 0 1-.175-.35.466.466 0 0 1 .123-.36.509.509 0 0 1 .355-.166zm4.482-.445a.522.522 0 0 1 .283.067c.085.048.154.12.197.206a.472.472 0 0 1-.074.531.525.525 0 0 1-.777-.018.484.484 0 0 1-.107-.26.515.515 0 0 1 .135-.35.556.556 0 0 1 .343-.176zm4.525-.447a.493.493 0 0 1 .391.096.459.459 0 0 1 .174.35.443.443 0 0 1-.11.371.47.47 0 0 1-.368.156.497.497 0 0 1-.39-.096.46.46 0 0 1-.176-.35.468.468 0 0 1 .123-.361.496.496 0 0 1 .356-.166zm4.485-.445a.496.496 0 0 1 .391.096.456.456 0 0 1 .175.349.44.44 0 0 1-.11.372.482.482 0 0 1-.368.156.498.498 0 0 1-.391-.097.462.462 0 0 1-.175-.35c0-.243.217-.526.478-.526zm4.526-.447a.498.498 0 0 1 .391.096.47.47 0 0 1 .127.157c.03.06.046.126.046.194a.44.44 0 0 1-.11.37.47.47 0 0 1-.368.156.53.53 0 0 1-.37-.113.479.479 0 0 1 .094-.806.523.523 0 0 1 .19-.053V71.8zm4.524-.446a.5.5 0 0 1 .391.097.448.448 0 0 1 .175.349.428.428 0 0 1-.011.198.457.457 0 0 1-.265.291.484.484 0 0 1-.202.038.498.498 0 0 1-.391-.096.461.461 0 0 1-.175-.35.44.44 0 0 1 .11-.372.48.48 0 0 1 .368-.154zM91.85 83.069a.497.497 0 0 1 .39.097.462.462 0 0 1 .176.349.436.436 0 0 1-.11.372.47.47 0 0 1-.368.155.497.497 0 0 1-.391-.096.463.463 0 0 1-.175-.35.436.436 0 0 1 .11-.372.47.47 0 0 1 .368-.155zm4.483-.446a.497.497 0 0 1 .39.096.464.464 0 0 1 .175.35.436.436 0 0 1-.11.372.47.47 0 0 1-.368.155.498.498 0 0 1-.39-.097.464.464 0 0 1-.176-.349c0-.283.169-.527.479-.527zm4.529-.438a.521.521 0 0 1 .282.068c.085.05.153.12.196.207a.471.471 0 0 1-.075.53.522.522 0 0 1-.775-.017.475.475 0 0 1-.108-.26.454.454 0 0 1 .278-.488.502.502 0 0 1 .202-.04zm4.48-.445a.5.5 0 0 1 .394.094.45.45 0 0 1 .177.351.441.441 0 0 1-.11.372.473.473 0 0 1-.368.156.498.498 0 0 1-.391-.097.461.461 0 0 1-.175-.35.495.495 0 0 1 .129-.355.53.53 0 0 1 .349-.17h-.005zm4.526-.447a.498.498 0 0 1 .391.097.461.461 0 0 1 .175.35c.011.1-.008.2-.057.289a.513.513 0 0 1-.214.209.544.544 0 0 1-.582-.054.506.506 0 0 1-.169-.244.483.483 0 0 1 .001-.294.505.505 0 0 1 .172-.243.536.536 0 0 1 .283-.11zm4.525-.485a.496.496 0 0 1 .39.096.448.448 0 0 1 .175.349.44.44 0 0 1-.11.372.473.473 0 0 1-.368.156.498.498 0 0 1-.391-.097.461.461 0 0 1-.175-.35.484.484 0 0 1 .283-.478.524.524 0 0 1 .196-.048zm4.485-.455a.498.498 0 0 1 .391.096.462.462 0 0 1 .175.35.44.44 0 0 1-.11.372.48.48 0 0 1-.368.155.502.502 0 0 1-.391-.096.448.448 0 0 1-.175-.35.555.555 0 0 1 .144-.343.595.595 0 0 1 .334-.184zm4.524-.446a.502.502 0 0 1 .391.097.448.448 0 0 1 .175.35.442.442 0 0 1-.109.371.475.475 0 0 1-.369.155.498.498 0 0 1-.391-.096.462.462 0 0 1-.175-.35.479.479 0 0 1 .126-.359.527.527 0 0 1 .352-.168zm4.482-.446a.498.498 0 0 1 .392.096.45.45 0 0 1 .174.35.44.44 0 0 1-.11.372.47.47 0 0 1-.368.155.495.495 0 0 1-.39-.097.46.46 0 0 1-.176-.349.555.555 0 0 1 .145-.343.594.594 0 0 1 .333-.184zm4.526-.445a.52.52 0 0 1 .282.067c.085.05.154.121.197.207a.476.476 0 0 1-.075.53.525.525 0 0 1-.776-.017.474.474 0 0 1-.107-.26.513.513 0 0 1 .135-.351.557.557 0 0 1 .344-.177zm4.525-.446a.494.494 0 0 1 .39.096.46.46 0 0 1 .175.35.444.444 0 0 1-.11.372.471.471 0 0 1-.368.155.493.493 0 0 1-.391-.097.45.45 0 0 1-.175-.35.483.483 0 0 1 .284-.478.517.517 0 0 1 .195-.048zm4.482-.447a.499.499 0 0 1 .391.097.45.45 0 0 1 .175.35.492.492 0 0 1-.124.367.538.538 0 0 1-.738.057.495.495 0 0 1-.182-.343.55.55 0 0 1 .144-.343.595.595 0 0 1 .334-.185zm4.524-.445a.495.495 0 0 1 .391.096.468.468 0 0 1 .175.35.442.442 0 0 1-.11.372.489.489 0 0 1-.368.155.498.498 0 0 1-.391-.096.461.461 0 0 1-.175-.35.466.466 0 0 1 .123-.361.521.521 0 0 1 .355-.165zm4.526-.447a.498.498 0 0 1 .391.097.461.461 0 0 1 .175.35.491.491 0 0 1-.123.367.539.539 0 0 1-.739.057.481.481 0 0 1-.057-.703.528.528 0 0 1 .353-.168zm4.48-.445a.5.5 0 0 1 .391.096.448.448 0 0 1 .175.35.428.428 0 0 1-.011.197.458.458 0 0 1-.265.292.483.483 0 0 1-.202.038.5.5 0 0 1-.391-.097.46.46 0 0 1-.175-.35.52.52 0 0 1 .136-.35.556.556 0 0 1 .342-.176zm4.526-.445a.502.502 0 0 1 .391.096.448.448 0 0 1 .175.349.44.44 0 0 1-.11.371.47.47 0 0 1-.368.155.496.496 0 0 1-.391-.095.46.46 0 0 1-.175-.35.488.488 0 0 1 .283-.478.526.526 0 0 1 .195-.048zM92.416 88.055a.498.498 0 0 1 .39.095.462.462 0 0 1 .176.348.44.44 0 0 1-.11.372.474.474 0 0 1-.368.156.497.497 0 0 1-.391-.096.464.464 0 0 1-.175-.35.466.466 0 0 1 .123-.361.505.505 0 0 1 .355-.166v.002zm4.482-.447a.497.497 0 0 1 .391.097.462.462 0 0 1 .175.35.438.438 0 0 1-.11.371.471.471 0 0 1-.368.155.496.496 0 0 1-.39-.096.463.463 0 0 1-.176-.35.555.555 0 0 1 .144-.343.595.595 0 0 1 .334-.184zm4.526-.445a.52.52 0 0 1 .282.068.49.49 0 0 1 .197.206.47.47 0 0 1-.076.53.524.524 0 0 1-.776-.02.483.483 0 0 1-.107-.258.49.49 0 0 1 .286-.476.533.533 0 0 1 .194-.05zm4.524-.445a.498.498 0 0 1 .392.096.458.458 0 0 1 .174.35.44.44 0 0 1-.11.372.47.47 0 0 1-.368.155.497.497 0 0 1-.39-.097.46.46 0 0 1-.176-.349.488.488 0 0 1 .284-.478.534.534 0 0 1 .194-.05zm4.483-.446a.52.52 0 0 1 .282.068c.085.05.153.121.196.207a.473.473 0 0 1-.075.53.525.525 0 0 1-.538.141.503.503 0 0 1-.238-.16.469.469 0 0 1-.107-.26.516.516 0 0 1 .136-.35.555.555 0 0 1 .344-.176zm4.524-.445a.493.493 0 0 1 .391.096.46.46 0 0 1 .175.35.44.44 0 0 1-.111.37.484.484 0 0 1-.368.155.496.496 0 0 1-.39-.096.448.448 0 0 1-.175-.349.466.466 0 0 1 .123-.36.498.498 0 0 1 .355-.166zm4.482-.447a.498.498 0 0 1 .391.097.461.461 0 0 1 .175.35.44.44 0 0 1-.11.371.478.478 0 0 1-.368.155.5.5 0 0 1-.391-.096.448.448 0 0 1-.175-.349.555.555 0 0 1 .144-.343.595.595 0 0 1 .334-.185zm4.524-.443a.5.5 0 0 1 .391.096.448.448 0 0 1 .175.349.44.44 0 0 1-.11.372.473.473 0 0 1-.368.156.498.498 0 0 1-.391-.097.461.461 0 0 1-.175-.35.466.466 0 0 1 .123-.36.507.507 0 0 1 .355-.166zm4.526-.447a.498.498 0 0 1 .391.097.462.462 0 0 1 .175.35.44.44 0 0 1-.11.371.48.48 0 0 1-.368.155.496.496 0 0 1-.391-.096.456.456 0 0 1-.175-.35.465.465 0 0 1 .118-.366.489.489 0 0 1 .36-.161zm4.482-.445a.495.495 0 0 1 .39.096.46.46 0 0 1 .128.156c.03.06.046.126.046.193a.445.445 0 0 1-.109.372.48.48 0 0 1-.369.156.493.493 0 0 1-.391-.097.459.459 0 0 1-.174-.35.49.49 0 0 1 .129-.356.535.535 0 0 1 .35-.17zm4.525-.447a.493.493 0 0 1 .391.097.458.458 0 0 1 .174.35.443.443 0 0 1-.11.371.47.47 0 0 1-.368.155.495.495 0 0 1-.39-.096.46.46 0 0 1-.176-.35.44.44 0 0 1 .111-.371.486.486 0 0 1 .368-.156zm4.526-.442a.496.496 0 0 1 .39.096.448.448 0 0 1 .174.349.437.437 0 0 1-.108.368.47.47 0 0 1-.362.158.498.498 0 0 1-.391-.096.461.461 0 0 1-.175-.35.441.441 0 0 1 .112-.372.492.492 0 0 1 .368-.155l-.008.002zm4.48-.445a.495.495 0 0 1 .391.096.468.468 0 0 1 .175.349.44.44 0 0 1-.11.371.48.48 0 0 1-.368.155.498.498 0 0 1-.391-.096.46.46 0 0 1-.175-.35c0-.282.168-.525.478-.525zm4.526-.447a.498.498 0 0 1 .391.097.462.462 0 0 1 .175.35.44.44 0 0 1-.112.37.469.469 0 0 1-.368.156.53.53 0 0 1-.37-.113.48.48 0 0 1-.156-.52.477.477 0 0 1 .25-.286.521.521 0 0 1 .19-.053v-.001zm4.48-.445a.5.5 0 0 1 .391.096.448.448 0 0 1 .175.35.44.44 0 0 1-.11.37.471.471 0 0 1-.368.157.495.495 0 0 1-.39-.097.46.46 0 0 1-.176-.349.495.495 0 0 1 .129-.356.53.53 0 0 1 .349-.17v-.001zm4.526-.486a.498.498 0 0 1 .392.097.45.45 0 0 1 .174.35.44.44 0 0 1-.11.371.47.47 0 0 1-.368.155.497.497 0 0 1-.391-.096.468.468 0 0 1-.175-.35.48.48 0 0 1 .125-.359.524.524 0 0 1 .353-.168zM92.982 93.04a.497.497 0 0 1 .391.096.462.462 0 0 1 .175.35.437.437 0 0 1-.11.372.47.47 0 0 1-.369.155.498.498 0 0 1-.39-.097.463.463 0 0 1-.175-.349.478.478 0 0 1 .125-.359.513.513 0 0 1 .353-.168zm4.482-.446a.495.495 0 0 1 .39.097.464.464 0 0 1 .176.349.436.436 0 0 1-.11.372.471.471 0 0 1-.368.155.497.497 0 0 1-.392-.096.462.462 0 0 1-.174-.35.553.553 0 0 1 .144-.343.593.593 0 0 1 .334-.184zm4.524-.445a.498.498 0 0 1 .391.096.46.46 0 0 1 .175.35.44.44 0 0 1-.11.37.48.48 0 0 1-.368.156.495.495 0 0 1-.391-.097.456.456 0 0 1-.175-.349.479.479 0 0 1 .126-.358.527.527 0 0 1 .352-.168zm4.526-.447a.498.498 0 0 1 .391.097.461.461 0 0 1 .175.35.44.44 0 0 1-.11.371.478.478 0 0 1-.368.155.5.5 0 0 1-.391-.096.456.456 0 0 1-.175-.349.468.468 0 0 1 .122-.362.513.513 0 0 1 .356-.166zm4.482-.451a.524.524 0 0 1 .283.068c.085.049.153.12.196.206a.476.476 0 0 1-.075.53.525.525 0 0 1-.538.141.503.503 0 0 1-.238-.159.468.468 0 0 1-.107-.26.554.554 0 0 1 .145-.343.596.596 0 0 1 .334-.183zm4.525-.447a.493.493 0 0 1 .391.097.459.459 0 0 1 .174.35.443.443 0 0 1-.11.371.47.47 0 0 1-.368.155.497.497 0 0 1-.39-.096.46.46 0 0 1-.176-.35.482.482 0 0 1 .125-.359.518.518 0 0 1 .354-.168zm4.526-.445a.52.52 0 0 1 .282.068c.085.048.153.12.196.206a.473.473 0 0 1-.075.531.525.525 0 0 1-.538.141.503.503 0 0 1-.238-.16.469.469 0 0 1-.107-.26.486.486 0 0 1 .126-.359.524.524 0 0 1 .354-.167zm4.48-.447a.498.498 0 0 1 .391.096.461.461 0 0 1 .175.35.44.44 0 0 1-.11.372.48.48 0 0 1-.368.155.5.5 0 0 1-.391-.096.448.448 0 0 1-.175-.349.517.517 0 0 1 .135-.352.555.555 0 0 1 .343-.176zm4.526-.442a.497.497 0 0 1 .39.096.46.46 0 0 1 .176.349.45.45 0 0 1-.109.368.467.467 0 0 1-.361.158.498.498 0 0 1-.391-.097.461.461 0 0 1-.175-.35.487.487 0 0 1 .283-.478.526.526 0 0 1 .195-.048l-.008.002zm4.474-.442a.493.493 0 0 1 .393.092.46.46 0 0 1 .179.35.44.44 0 0 1-.11.371.47.47 0 0 1-.368.155.497.497 0 0 1-.391-.096.46.46 0 0 1-.175-.35.554.554 0 0 1 .145-.342.59.59 0 0 1 .333-.183l-.006.003zm4.526-.447a.493.493 0 0 1 .391.097.458.458 0 0 1 .174.35.443.443 0 0 1-.11.371.47.47 0 0 1-.368.155.495.495 0 0 1-.39-.096.46.46 0 0 1-.176-.35.468.468 0 0 1 .123-.36.52.52 0 0 1 .356-.166zm4.524-.445a.495.495 0 0 1 .39.096.46.46 0 0 1 .176.349.44.44 0 0 1-.111.372.47.47 0 0 1-.368.156.494.494 0 0 1-.381-.104.46.46 0 0 1-.169-.345.471.471 0 0 1 .126-.358.509.509 0 0 1 .352-.168l-.015.002zm4.489-.447a.499.499 0 0 1 .391.097.45.45 0 0 1 .175.35.44.44 0 0 1-.111.371.484.484 0 0 1-.368.155.497.497 0 0 1-.39-.096.46.46 0 0 1-.175-.35.55.55 0 0 1 .144-.343.595.595 0 0 1 .334-.184zm4.526-.445a.52.52 0 0 1 .282.068c.085.049.153.12.196.206a.473.473 0 0 1-.075.531.525.525 0 0 1-.538.141.503.503 0 0 1-.238-.16.469.469 0 0 1-.107-.26.483.483 0 0 1 .127-.359.524.524 0 0 1 .353-.167zm4.524-.447a.498.498 0 0 1 .391.097.461.461 0 0 1 .175.35.44.44 0 0 1-.111.371.465.465 0 0 1-.367.155.5.5 0 0 1-.391-.096.448.448 0 0 1-.175-.349.48.48 0 0 1 .125-.36.528.528 0 0 1 .353-.168zm4.482-.445a.495.495 0 0 1 .391.096.456.456 0 0 1 .175.349.44.44 0 0 1-.11.372.48.48 0 0 1-.368.156.5.5 0 0 1-.391-.097.448.448 0 0 1-.175-.349.509.509 0 0 1 .135-.351.553.553 0 0 1 .343-.176zm-67.05 11.715a.497.497 0 0 1 .39.096.464.464 0 0 1 .175.35.437.437 0 0 1-.11.372.47.47 0 0 1-.368.155.496.496 0 0 1-.39-.097.462.462 0 0 1-.176-.349.47.47 0 0 1 .123-.361.505.505 0 0 1 .356-.166zm4.526-.446a.52.52 0 0 1 .282.068c.086.048.154.12.197.206a.47.47 0 0 1-.074.531.524.524 0 0 1-.776-.018.475.475 0 0 1 .175-.739.52.52 0 0 1 .196-.048zm4.48-.447a.498.498 0 0 1 .391.097.46.46 0 0 1 .175.35.44.44 0 0 1-.111.372.467.467 0 0 1-.367.154.498.498 0 0 1-.391-.096.448.448 0 0 1-.175-.349.489.489 0 0 1 .127-.357.534.534 0 0 1 .351-.17zm4.526-.445a.497.497 0 0 1 .39.097.46.46 0 0 1 .176.349.442.442 0 0 1-.11.372.471.471 0 0 1-.368.155.498.498 0 0 1-.392-.096.45.45 0 0 1-.174-.35.44.44 0 0 1 .11-.372.47.47 0 0 1 .368-.155zm4.482-.447a.502.502 0 0 1 .391.098.47.47 0 0 1 .175.35.494.494 0 0 1-.135.35.538.538 0 0 1-.719.056.503.503 0 0 1-.192-.326.498.498 0 0 1 .13-.356.534.534 0 0 1 .35-.171zm4.524-.445a.5.5 0 0 1 .391.096.448.448 0 0 1 .175.349.428.428 0 0 1-.011.199.458.458 0 0 1-.265.291.483.483 0 0 1-.202.038.498.498 0 0 1-.391-.096.461.461 0 0 1-.175-.35.44.44 0 0 1 .11-.372.48.48 0 0 1 .368-.155zm4.526-.445a.502.502 0 0 1 .391.096.448.448 0 0 1 .175.35.49.49 0 0 1-.055.29.515.515 0 0 1-.215.21.543.543 0 0 1-.585-.052.51.51 0 0 1-.17-.245.48.48 0 0 1 .002-.295.507.507 0 0 1 .172-.244.54.54 0 0 1 .285-.11zm4.481-.447a.493.493 0 0 1 .391.097.45.45 0 0 1 .175.35.44.44 0 0 1-.111.371.484.484 0 0 1-.368.155.495.495 0 0 1-.39-.096.46.46 0 0 1-.175-.349.489.489 0 0 1 .128-.357.53.53 0 0 1 .35-.17zm4.526-.445a.518.518 0 0 1 .282.067c.086.049.154.12.197.206a.477.477 0 0 1-.074.531.524.524 0 0 1-.776-.018.468.468 0 0 1-.107-.26.444.444 0 0 1 .11-.371.47.47 0 0 1 .368-.155zm4.524-.486a.498.498 0 0 1 .391.097.461.461 0 0 1 .175.35.44.44 0 0 1-.111.371.483.483 0 0 1-.367.155.5.5 0 0 1-.391-.096.448.448 0 0 1-.175-.349.48.48 0 0 1 .125-.36.528.528 0 0 1 .353-.168zm4.482-.445a.495.495 0 0 1 .391.096.468.468 0 0 1 .175.35.447.447 0 0 1-.11.372.487.487 0 0 1-.368.155.498.498 0 0 1-.391-.097.461.461 0 0 1-.175-.35.515.515 0 0 1 .135-.35.553.553 0 0 1 .343-.176zm4.524-.447a.498.498 0 0 1 .392.097.45.45 0 0 1 .174.35.44.44 0 0 1-.11.371.47.47 0 0 1-.368.155.493.493 0 0 1-.391-.096.469.469 0 0 1-.175-.349.484.484 0 0 1 .126-.359.52.52 0 0 1 .352-.169zm4.483-.445a.497.497 0 0 1 .39.096.448.448 0 0 1 .175.349.429.429 0 0 1-.011.198.459.459 0 0 1-.264.292.49.49 0 0 1-.203.038.495.495 0 0 1-.39-.096.46.46 0 0 1-.176-.35.556.556 0 0 1 .145-.343.592.592 0 0 1 .334-.184zm4.525-.445a.523.523 0 0 1 .283.068c.085.049.153.12.196.206a.476.476 0 0 1-.075.53.525.525 0 0 1-.538.141.503.503 0 0 1-.238-.159.468.468 0 0 1-.107-.26.482.482 0 0 1 .126-.358.523.523 0 0 1 .353-.168zm4.525-.447a.493.493 0 0 1 .391.097.459.459 0 0 1 .174.35.43.43 0 0 1-.113.373.47.47 0 0 1-.371.151.5.5 0 0 1-.391-.096.448.448 0 0 1-.175-.35.468.468 0 0 1 .122-.36.507.507 0 0 1 .356-.167l.007.002zm4.482-.445a.524.524 0 0 1 .283.067.5.5 0 0 1 .197.206.472.472 0 0 1-.075.531.524.524 0 0 1-.776-.018.469.469 0 0 1-.107-.26.548.548 0 0 1 .144-.343.594.594 0 0 1 .334-.183zm-67.05 11.713a.495.495 0 0 1 .39.096.443.443 0 0 1 .175.349.435.435 0 0 1-.11.373.478.478 0 0 1-.368.155.497.497 0 0 1-.391-.097.46.46 0 0 1-.175-.35.466.466 0 0 1 .123-.36.525.525 0 0 1 .355-.166zm4.525-.447a.497.497 0 0 1 .391.097.448.448 0 0 1 .175.35.493.493 0 0 1-.135.35.536.536 0 0 1-.72.056.501.501 0 0 1-.19-.325.485.485 0 0 1 .126-.359.524.524 0 0 1 .353-.169zm4.481-.445a.493.493 0 0 1 .39.096.462.462 0 0 1 .176.349.442.442 0 0 1-.11.373.477.477 0 0 1-.369.155.493.493 0 0 1-.391-.097.456.456 0 0 1-.174-.35.55.55 0 0 1 .144-.343.593.593 0 0 1 .334-.183zm4.526-.445a.51.51 0 0 1 .206.006c.067.017.13.048.184.09a.458.458 0 0 1 .175.349.489.489 0 0 1-.123.367.54.54 0 0 1-.738.057.496.496 0 0 1-.159-.535.489.489 0 0 1 .26-.286.504.504 0 0 1 .195-.048zm4.524-.447a.498.498 0 0 1 .391.097.458.458 0 0 1 .175.35.437.437 0 0 1-.111.371.477.477 0 0 1-.367.155.498.498 0 0 1-.391-.096.446.446 0 0 1-.175-.349.469.469 0 0 1 .122-.362.52.52 0 0 1 .356-.166zm4.482-.445a.493.493 0 0 1 .391.096.467.467 0 0 1 .175.349.443.443 0 0 1-.11.372.486.486 0 0 1-.368.156.498.498 0 0 1-.391-.097.454.454 0 0 1-.175-.35.516.516 0 0 1 .135-.351.551.551 0 0 1 .343-.175zm4.526-.447a.498.498 0 0 1 .391.097.44.44 0 0 1 .173.35.437.437 0 0 1-.11.371.486.486 0 0 1-.368.155.493.493 0 0 1-.391-.096.477.477 0 0 1-.127-.156.434.434 0 0 1-.048-.193.483.483 0 0 1 .126-.36.52.52 0 0 1 .354-.168zm4.481-.445a.494.494 0 0 1 .39.096.46.46 0 0 1 .175.349.429.429 0 0 1-.011.198.456.456 0 0 1-.264.292.486.486 0 0 1-.203.038.499.499 0 0 1-.391-.097.446.446 0 0 1-.175-.35.555.555 0 0 1 .145-.343.592.592 0 0 1 .334-.183zm4.525-.447a.498.498 0 0 1 .392.097.45.45 0 0 1 .174.35.494.494 0 0 1-.135.35.54.54 0 0 1-.719.056.5.5 0 0 1-.191-.325.484.484 0 0 1 .126-.36.525.525 0 0 1 .353-.168zm4.521-.445a.5.5 0 0 1 .391.096.448.448 0 0 1 .175.349.428.428 0 0 1-.011.198.457.457 0 0 1-.265.292.491.491 0 0 1-.202.038.493.493 0 0 1-.391-.097.468.468 0 0 1-.175-.349.468.468 0 0 1 .122-.361.513.513 0 0 1 .356-.166zm4.483-.446a.518.518 0 0 1 .282.068c.085.048.154.12.197.206a.472.472 0 0 1-.074.531.524.524 0 0 1-.538.142.502.502 0 0 1-.238-.16.477.477 0 0 1-.108-.26.554.554 0 0 1 .145-.343.59.59 0 0 1 .334-.184zm4.524-.447a.495.495 0 0 1 .391.097.45.45 0 0 1 .175.35.44.44 0 0 1-.111.372.484.484 0 0 1-.368.155.493.493 0 0 1-.39-.097.46.46 0 0 1-.175-.349.467.467 0 0 1 .122-.361.507.507 0 0 1 .356-.166zm4.526-.445a.519.519 0 0 1 .282.068c.086.048.154.12.197.206a.477.477 0 0 1-.074.531.508.508 0 0 1-.246.149.528.528 0 0 1-.292-.007.502.502 0 0 1-.238-.16.469.469 0 0 1-.107-.26.458.458 0 0 1 .117-.366.492.492 0 0 1 .361-.16zm4.484-.447a.493.493 0 0 1 .39.097.459.459 0 0 1 .174.35.44.44 0 0 1-.111.372.484.484 0 0 1-.368.155.496.496 0 0 1-.39-.097.46.46 0 0 1-.175-.349c0-.283.168-.528.48-.528zm4.524-.445a.495.495 0 0 1 .39.096.46.46 0 0 1 .176.35.442.442 0 0 1-.11.372.469.469 0 0 1-.369.155.493.493 0 0 1-.391-.096.458.458 0 0 1-.174-.35.443.443 0 0 1 .11-.371.47.47 0 0 1 .368-.156zm4.482-.447a.498.498 0 0 1 .391.097.46.46 0 0 1 .175.35.494.494 0 0 1-.135.35.542.542 0 0 1-.72.056.501.501 0 0 1-.191-.325.493.493 0 0 1 .13-.356.534.534 0 0 1 .35-.172zm-67.049 11.725a.495.495 0 0 1 .39.096.444.444 0 0 1 .175.349.443.443 0 0 1-.11.371.476.476 0 0 1-.367.155.497.497 0 0 1-.391-.096.463.463 0 0 1-.175-.35c0-.284.168-.527.478-.527v.002zm4.526-.447a.522.522 0 0 1 .282.068.499.499 0 0 1 .196.206.471.471 0 0 1-.074.531.512.512 0 0 1-.537.142.505.505 0 0 1-.239-.159.477.477 0 0 1-.108-.26.44.44 0 0 1 .113-.371.496.496 0 0 1 .367-.157zm4.481-.445a.494.494 0 0 1 .39.096.446.446 0 0 1 .175.349.442.442 0 0 1-.11.372.479.479 0 0 1-.368.156.498.498 0 0 1-.391-.097.458.458 0 0 1-.175-.35.496.496 0 0 1 .129-.356.53.53 0 0 1 .35-.17zm4.525-.447a.498.498 0 0 1 .392.097.454.454 0 0 1 .174.35.48.48 0 0 1-.057.289.52.52 0 0 1-.513.267.546.546 0 0 1-.283-.112.488.488 0 0 1 .004-.781.538.538 0 0 1 .283-.11zm4.525-.486a.493.493 0 0 1 .39.097.45.45 0 0 1 .175.349.443.443 0 0 1-.109.372.476.476 0 0 1-.369.155.493.493 0 0 1-.391-.096.459.459 0 0 1-.174-.35.469.469 0 0 1 .122-.361.524.524 0 0 1 .356-.166zm4.482-.446a.499.499 0 0 1 .391.096.446.446 0 0 1 .175.35.442.442 0 0 1-.111.372.494.494 0 0 1-.368.155.494.494 0 0 1-.39-.097.455.455 0 0 1-.175-.349.55.55 0 0 1 .144-.343.588.588 0 0 1 .334-.184zm4.522-.454a.498.498 0 0 1 .391.097.454.454 0 0 1 .175.349.429.429 0 0 1-.011.198.456.456 0 0 1-.265.291.478.478 0 0 1-.202.038.493.493 0 0 1-.39-.096.45.45 0 0 1-.176-.349.482.482 0 0 1 .284-.477.547.547 0 0 1 .194-.051zm4.526-.445a.498.498 0 0 1 .391.096.446.446 0 0 1 .175.349.442.442 0 0 1-.11.372.467.467 0 0 1-.368.156.498.498 0 0 1-.391-.097.458.458 0 0 1-.175-.35.464.464 0 0 1 .123-.36.52.52 0 0 1 .355-.166zm4.483-.447a.536.536 0 0 1 .282.068.498.498 0 0 1 .196.206.477.477 0 0 1-.075.531.513.513 0 0 1-.537.142.508.508 0 0 1-.239-.159.476.476 0 0 1-.107-.26.52.52 0 0 1 .135-.352.562.562 0 0 1 .345-.176zm4.524-.445a.493.493 0 0 1 .39.096.462.462 0 0 1 .176.349.442.442 0 0 1-.111.372.47.47 0 0 1-.368.156.493.493 0 0 1-.391-.097.456.456 0 0 1-.174-.35.464.464 0 0 1 .123-.36.523.523 0 0 1 .355-.166zm4.484-.447a.493.493 0 0 1 .391.097.465.465 0 0 1 .174.35.489.489 0 0 1-.123.367.53.53 0 0 1-.357.175.534.534 0 0 1-.381-.118.501.501 0 0 1-.183-.343.553.553 0 0 1 .145-.343.592.592 0 0 1 .334-.185zm4.524-.445a.493.493 0 0 1 .39.096.448.448 0 0 1 .176.349.442.442 0 0 1-.11.373.477.477 0 0 1-.369.155.493.493 0 0 1-.391-.097.456.456 0 0 1-.174-.35.464.464 0 0 1 .123-.361.523.523 0 0 1 .355-.165zm4.526-.447a.499.499 0 0 1 .391.097.454.454 0 0 1 .175.35.493.493 0 0 1-.124.367.535.535 0 0 1-.738.057.483.483 0 0 1-.057-.702.524.524 0 0 1 .353-.169zm4.48-.445a.498.498 0 0 1 .391.096.446.446 0 0 1 .175.349.442.442 0 0 1-.11.373.481.481 0 0 1-.368.155.493.493 0 0 1-.391-.096.465.465 0 0 1-.175-.349.562.562 0 0 1 .144-.344.603.603 0 0 1 .334-.184zm4.526-.445a.498.498 0 0 1 .391.096.456.456 0 0 1 .175.349.443.443 0 0 1-.11.372.486.486 0 0 1-.368.156.498.498 0 0 1-.391-.097.454.454 0 0 1-.175-.35.462.462 0 0 1 .123-.361.501.501 0 0 1 .355-.165zm4.524-.447a.498.498 0 0 1 .392.097.454.454 0 0 1 .174.35.437.437 0 0 1-.11.371.477.477 0 0 1-.368.155.493.493 0 0 1-.39-.096.448.448 0 0 1-.176-.349.485.485 0 0 1 .284-.478.525.525 0 0 1 .194-.05zm-67.092 11.715a.496.496 0 0 1 .391.097.451.451 0 0 1 .175.35.433.433 0 0 1-.11.371.477.477 0 0 1-.369.155.495.495 0 0 1-.39-.096.446.446 0 0 1-.175-.349.557.557 0 0 1 .144-.344.594.594 0 0 1 .334-.184zm4.526-.444a.523.523 0 0 1 .282.068.495.495 0 0 1 .196.207.472.472 0 0 1-.075.531.523.523 0 0 1-.776-.019.479.479 0 0 1-.107-.261.47.47 0 0 1 .126-.359.53.53 0 0 1 .354-.167zm4.524-.447a.498.498 0 0 1 .391.097.462.462 0 0 1 .175.35.442.442 0 0 1-.111.372.484.484 0 0 1-.367.154.498.498 0 0 1-.391-.096.46.46 0 0 1-.175-.349.487.487 0 0 1 .125-.359.524.524 0 0 1 .353-.169zm4.481-.446a.518.518 0 0 1 .282.068c.085.048.153.12.196.206a.473.473 0 0 1-.075.53.524.524 0 0 1-.776-.017.476.476 0 0 1-.107-.26.547.547 0 0 1 .145-.344.595.595 0 0 1 .335-.183zm4.524-.446a.493.493 0 0 1 .39.096.468.468 0 0 1 .128.156.47.47 0 0 1 .048.194.438.438 0 0 1-.111.371.478.478 0 0 1-.368.156.498.498 0 0 1-.393-.093.473.473 0 0 1-.129-.156.441.441 0 0 1-.048-.194.469.469 0 0 1 .122-.361.505.505 0 0 1 .356-.165l.005-.004zm4.484-.442a.493.493 0 0 1 .391.097.459.459 0 0 1 .174.35.442.442 0 0 1-.279.488.5.5 0 0 1-.202.037.498.498 0 0 1-.391-.096.465.465 0 0 1-.175-.35.559.559 0 0 1 .146-.343.598.598 0 0 1 .336-.183zm4.524-.445a.493.493 0 0 1 .39.096.448.448 0 0 1 .176.349.442.442 0 0 1-.111.372.478.478 0 0 1-.368.156.493.493 0 0 1-.391-.097.456.456 0 0 1-.174-.35.516.516 0 0 1 .135-.35.557.557 0 0 1 .343-.176zm4.526-.447a.493.493 0 0 1 .519.253c.03.061.046.127.047.194a.443.443 0 0 1-.277.488.478.478 0 0 1-.202.038.494.494 0 0 1-.39-.096.458.458 0 0 1-.175-.349.46.46 0 0 1 .28-.483.516.516 0 0 1 .198-.045zm4.482-.445a.51.51 0 0 1 .476.277.468.468 0 0 1-.077.529.503.503 0 0 1-.246.148.533.533 0 0 1-.291-.007.507.507 0 0 1-.238-.16.47.47 0 0 1-.107-.259.492.492 0 0 1 .13-.356.53.53 0 0 1 .35-.17l.003-.002zm4.524-.444a.487.487 0 0 1 .519.252c.03.061.046.127.047.194a.437.437 0 0 1-.11.371.486.486 0 0 1-.368.155.498.498 0 0 1-.391-.096.465.465 0 0 1-.175-.349.442.442 0 0 1 .11-.372.486.486 0 0 1 .368-.155zm4.526-.446a.503.503 0 0 1 .394.095.453.453 0 0 1 .175.351.488.488 0 0 1-.056.29.509.509 0 0 1-.215.211.538.538 0 0 1-.584-.054.487.487 0 0 1-.168-.54.503.503 0 0 1 .173-.244.529.529 0 0 1 .285-.109h-.004zm4.481-.446a.494.494 0 0 1 .39.097.455.455 0 0 1 .175.349.436.436 0 0 1-.11.371.467.467 0 0 1-.368.156.499.499 0 0 1-.391-.096.446.446 0 0 1-.175-.35c0-.284.169-.527.479-.527zm4.526-.446a.493.493 0 0 1 .391.096.459.459 0 0 1 .174.35.442.442 0 0 1-.111.372.486.486 0 0 1-.369.155.52.52 0 0 1-.493-.262.484.484 0 0 1 .218-.657.538.538 0 0 1 .19-.053v-.001zm4.48-.446a.493.493 0 0 1 .39.097.455.455 0 0 1 .176.349.443.443 0 0 1-.11.372.484.484 0 0 1-.368.155.498.498 0 0 1-.392-.096.447.447 0 0 1-.174-.351.485.485 0 0 1 .129-.355.53.53 0 0 1 .349-.171zm4.526-.485a.498.498 0 0 1 .391.096.462.462 0 0 1 .175.35.442.442 0 0 1-.111.372.493.493 0 0 1-.367.155.498.498 0 0 1-.391-.097.454.454 0 0 1-.175-.349.478.478 0 0 1 .125-.359.504.504 0 0 1 .353-.168zm4.524-.446a.498.498 0 0 1 .391.097.446.446 0 0 1 .127.156c.031.06.047.126.048.193a.442.442 0 0 1-.276.489.484.484 0 0 1-.202.038.498.498 0 0 1-.391-.096.462.462 0 0 1-.175-.35.477.477 0 0 1 .126-.359.536.536 0 0 1 .352-.168zm-67.049 11.707a.495.495 0 0 1 .39.096.45.45 0 0 1 .175.349.438.438 0 0 1-.11.372.467.467 0 0 1-.367.156.495.495 0 0 1-.39-.096.463.463 0 0 1-.176-.349.469.469 0 0 1 .123-.362.515.515 0 0 1 .355-.166zm4.483-.445a.51.51 0 0 1 .476.279.467.467 0 0 1-.082.531.523.523 0 0 1-.539.135.506.506 0 0 1-.237-.164.47.47 0 0 1-.103-.261c-.001-.129.047-.254.136-.351a.552.552 0 0 1 .343-.175l.006.006zm4.524-.452a.493.493 0 0 1 .391.097.446.446 0 0 1 .175.35.443.443 0 0 1-.277.488.478.478 0 0 1-.202.038.493.493 0 0 1-.39-.096.45.45 0 0 1-.175-.349.468.468 0 0 1 .122-.362.52.52 0 0 1 .356-.166zm4.482-.445a.522.522 0 0 1 .282.068.497.497 0 0 1 .197.207.47.47 0 0 1-.076.531.51.51 0 0 1-.247.148.53.53 0 0 1-.29-.007.507.507 0 0 1-.239-.161.473.473 0 0 1-.107-.26.557.557 0 0 1 .145-.343.595.595 0 0 1 .335-.183zm4.524-.447a.498.498 0 0 1 .391.097.454.454 0 0 1 .175.35.443.443 0 0 1-.11.371.484.484 0 0 1-.368.155.498.498 0 0 1-.391-.096.456.456 0 0 1-.175-.349.482.482 0 0 1 .284-.477.547.547 0 0 1 .194-.051zm4.526-.445a.522.522 0 0 1 .282.068.497.497 0 0 1 .197.207.469.469 0 0 1-.076.53.505.505 0 0 1-.246.149.512.512 0 0 1-.53-.168.48.48 0 0 1-.107-.26.48.48 0 0 1 .127-.358.523.523 0 0 1 .353-.168zm4.481-.444a.493.493 0 0 1 .391.097.459.459 0 0 1 .174.35.45.45 0 0 1-.276.489.493.493 0 0 1-.202.037.493.493 0 0 1-.39-.096.45.45 0 0 1-.176-.349.525.525 0 0 1 .137-.349.564.564 0 0 1 .342-.179zm4.526-.445a.498.498 0 0 1 .393.094.454.454 0 0 1 .177.351.442.442 0 0 1-.11.372.467.467 0 0 1-.368.156.493.493 0 0 1-.39-.096.458.458 0 0 1-.176-.349.469.469 0 0 1 .123-.362.508.508 0 0 1 .356-.166h-.005zm4.524-.445a.493.493 0 0 1 .39.096.448.448 0 0 1 .176.349.442.442 0 0 1-.111.372.479.479 0 0 1-.368.156.493.493 0 0 1-.391-.097.456.456 0 0 1-.174-.35.464.464 0 0 1 .123-.36.523.523 0 0 1 .355-.166zm4.482-.447a.498.498 0 0 1 .391.097.458.458 0 0 1 .175.35.443.443 0 0 1-.277.488.477.477 0 0 1-.201.038.515.515 0 0 1-.207-.006.47.47 0 0 1-.312-.246.446.446 0 0 1-.047-.193.51.51 0 0 1 .134-.351.554.554 0 0 1 .344-.177zm4.529-.443a.493.493 0 0 1 .39.096.446.446 0 0 1 .174.349.429.429 0 0 1-.011.198.456.456 0 0 1-.264.292.52.52 0 0 1-.203.038.499.499 0 0 1-.391-.097.446.446 0 0 1-.175-.35.502.502 0 0 1 .026-.192.495.495 0 0 1 .26-.285.544.544 0 0 1 .194-.049zm4.481-.447a.486.486 0 0 1 .523.252c.031.06.047.127.048.195a.438.438 0 0 1-.111.371.478.478 0 0 1-.368.155.493.493 0 0 1-.39-.096.453.453 0 0 1-.175-.349.551.551 0 0 1 .144-.344.594.594 0 0 1 .334-.184h-.005zm4.526-.445a.513.513 0 0 1 .478.274.472.472 0 0 1-.075.531.524.524 0 0 1-.776-.019.469.469 0 0 1-.107-.26.484.484 0 0 1 .127-.359.522.522 0 0 1 .353-.167zm4.524-.446a.493.493 0 0 1 .39.096.455.455 0 0 1 .176.35.438.438 0 0 1-.111.371.478.478 0 0 1-.368.155.498.498 0 0 1-.392-.094.452.452 0 0 1-.177-.35.482.482 0 0 1 .283-.478.51.51 0 0 1 .196-.048l.003-.002zm4.485-.443a.498.498 0 0 1 .392.096.447.447 0 0 1 .174.351.438.438 0 0 1-.11.371.477.477 0 0 1-.368.155.493.493 0 0 1-.39-.096.468.468 0 0 1-.128-.156.441.441 0 0 1-.048-.194.562.562 0 0 1 .144-.343.591.591 0 0 1 .334-.184zm4.525-.446a.493.493 0 0 1 .39.097.45.45 0 0 1 .175.349c0 .283-.168.527-.478.527a.493.493 0 0 1-.391-.096.474.474 0 0 1-.128-.157.432.432 0 0 1-.046-.193.482.482 0 0 1 .127-.357.523.523 0 0 1 .351-.17zM96.42 123.078a.5.5 0 0 1 .48.273.47.47 0 0 1-.074.532.513.513 0 0 1-.538.142.513.513 0 0 1-.239-.16.479.479 0 0 1-.084-.453.48.48 0 0 1 .1-.168.515.515 0 0 1 .355-.166zm4.481-.447a.493.493 0 0 1 .391.097.459.459 0 0 1 .174.35.44.44 0 0 1-.11.371.478.478 0 0 1-.368.155.493.493 0 0 1-.39-.096.45.45 0 0 1-.176-.349.553.553 0 0 1 .145-.343.592.592 0 0 1 .334-.185zm4.526-.445a.494.494 0 0 1 .39.096.446.446 0 0 1 .175.349.428.428 0 0 1-.011.198.46.46 0 0 1-.264.292.486.486 0 0 1-.203.038.498.498 0 0 1-.391-.097.458.458 0 0 1-.175-.35.437.437 0 0 1 .111-.371.478.478 0 0 1 .368-.155zm4.527-.445a.482.482 0 0 1 .519.252c.03.06.046.126.047.193a.443.443 0 0 1-.11.371.484.484 0 0 1-.368.155.498.498 0 0 1-.391-.096.446.446 0 0 1-.175-.349.437.437 0 0 1 .11-.371.473.473 0 0 1 .368-.155zm4.482-.447a.498.498 0 0 1 .391.097.458.458 0 0 1 .175.35.437.437 0 0 1-.11.371.486.486 0 0 1-.368.155.493.493 0 0 1-.391-.096.477.477 0 0 1-.127-.156.434.434 0 0 1-.048-.193c0-.285.168-.528.478-.528zm4.526-.445a.513.513 0 0 1 .479.274.466.466 0 0 1-.076.531.513.513 0 0 1-.537.141.484.484 0 0 1-.346-.42.454.454 0 0 1 .114-.37.482.482 0 0 1 .366-.156zm4.481-.447a.493.493 0 0 1 .391.097.456.456 0 0 1 .174.35.436.436 0 0 1-.11.371.477.477 0 0 1-.368.155.493.493 0 0 1-.39-.096.446.446 0 0 1-.175-.349.483.483 0 0 1 .128-.357.526.526 0 0 1 .35-.171zm4.527-.445a.516.516 0 0 1 .283.067.474.474 0 0 1 .123.737.524.524 0 0 1-.777-.018.484.484 0 0 1-.107-.26.443.443 0 0 1 .11-.371.484.484 0 0 1 .368-.155zm4.525-.447a.493.493 0 0 1 .391.097.456.456 0 0 1 .174.35.443.443 0 0 1-.11.371.477.477 0 0 1-.368.155.493.493 0 0 1-.39-.096.448.448 0 0 1-.176-.349.442.442 0 0 1 .111-.372.47.47 0 0 1 .368-.156zm4.482-.486a.493.493 0 0 1 .39.096.453.453 0 0 1 .175.349.447.447 0 0 1-.275.49.486.486 0 0 1-.203.038.493.493 0 0 1-.391-.096.459.459 0 0 1-.174-.351.546.546 0 0 1 .144-.342.594.594 0 0 1 .334-.184zm4.524-.445a.499.499 0 0 1 .391.096.45.45 0 0 1 .175.349.442.442 0 0 1-.111.372.473.473 0 0 1-.367.154.498.498 0 0 1-.391-.096.46.46 0 0 1-.175-.349.48.48 0 0 1 .125-.358.527.527 0 0 1 .353-.168zm4.521-.453a.499.499 0 0 1 .391.096.447.447 0 0 1 .175.351.438.438 0 0 1-.111.371.478.478 0 0 1-.368.155.494.494 0 0 1-.39-.096.454.454 0 0 1-.175-.35.463.463 0 0 1 .122-.361.504.504 0 0 1 .356-.166zm4.482-.446a.523.523 0 0 1 .282.069.471.471 0 0 1 .121.737.524.524 0 0 1-.776-.019.484.484 0 0 1-.107-.26c0-.129.048-.254.136-.351a.562.562 0 0 1 .344-.176zm4.524-.446a.498.498 0 0 1 .391.096.462.462 0 0 1 .175.35.442.442 0 0 1-.11.372.486.486 0 0 1-.368.155.493.493 0 0 1-.391-.097.452.452 0 0 1-.175-.349.478.478 0 0 1 .125-.359.527.527 0 0 1 .353-.168zm4.482-.446a.526.526 0 0 1 .283.068c.085.048.154.12.197.206a.472.472 0 0 1-.074.531.524.524 0 0 1-.777-.018.484.484 0 0 1-.107-.26.553.553 0 0 1 .145-.343.591.591 0 0 1 .333-.184zm4.525-.443a.493.493 0 0 1 .391.097.456.456 0 0 1 .174.35.443.443 0 0 1-.11.371.477.477 0 0 1-.368.155.493.493 0 0 1-.39-.096.45.45 0 0 1-.175-.349.472.472 0 0 1 .125-.36.504.504 0 0 1 .353-.168zm-67.046 11.72a.514.514 0 0 1 .479.274.469.469 0 0 1-.076.531.523.523 0 0 1-.776-.019.474.474 0 0 1-.107-.26.485.485 0 0 1 .127-.359.522.522 0 0 1 .353-.167zm4.481-.447a.493.493 0 0 1 .391.096.459.459 0 0 1 .174.351.443.443 0 0 1-.11.371.477.477 0 0 1-.368.155.493.493 0 0 1-.39-.096.453.453 0 0 1-.175-.349.551.551 0 0 1 .144-.344.59.59 0 0 1 .334-.184zm4.526-.445a.513.513 0 0 1 .479.273.476.476 0 0 1-.074.531.524.524 0 0 1-.538.142.502.502 0 0 1-.238-.16.477.477 0 0 1-.108-.26.487.487 0 0 1 .123-.361.504.504 0 0 1 .356-.165zm4.524-.447a.499.499 0 0 1 .391.096.447.447 0 0 1 .175.351.438.438 0 0 1-.111.371.478.478 0 0 1-.368.155.494.494 0 0 1-.39-.096.453.453 0 0 1-.175-.349.481.481 0 0 1 .125-.359.524.524 0 0 1 .353-.169zm4.485-.446a.498.498 0 0 1 .391.097.46.46 0 0 1 .175.349.429.429 0 0 1-.011.198.456.456 0 0 1-.265.292.511.511 0 0 1-.202.038.498.498 0 0 1-.391-.097.462.462 0 0 1-.175-.35.553.553 0 0 1 .145-.343.597.597 0 0 1 .333-.184zm4.526-.446a.498.498 0 0 1 .391.097.453.453 0 0 1 .175.349.495.495 0 0 1-.135.351.54.54 0 0 1-.719.055.5.5 0 0 1-.192-.325.494.494 0 0 1 .286-.477.525.525 0 0 1 .194-.05zm4.525-.446a.494.494 0 0 1 .39.097.45.45 0 0 1 .175.349.443.443 0 0 1-.109.372.486.486 0 0 1-.369.155.499.499 0 0 1-.391-.096.446.446 0 0 1-.175-.35.487.487 0 0 1 .283-.479.553.553 0 0 1 .196-.048zm4.482-.445a.493.493 0 0 1 .39.096.453.453 0 0 1 .175.349.442.442 0 0 1-.111.372.486.486 0 0 1-.368.155.498.498 0 0 1-.391-.097.454.454 0 0 1-.175-.349.515.515 0 0 1 .136-.35.555.555 0 0 1 .344-.176zm4.524-.447a.498.498 0 0 1 .391.097.462.462 0 0 1 .175.35.442.442 0 0 1-.111.372.473.473 0 0 1-.367.154.498.498 0 0 1-.391-.096.46.46 0 0 1-.175-.349.469.469 0 0 1 .122-.362.534.534 0 0 1 .356-.166zm4.482-.445a.5.5 0 0 1 .48.273.474.474 0 0 1-.074.532.516.516 0 0 1-.777-.018.479.479 0 0 1-.107-.261.557.557 0 0 1 .144-.342.597.597 0 0 1 .334-.184zm4.524-.447a.498.498 0 0 1 .392.097.446.446 0 0 1 .174.35.443.443 0 0 1-.11.371.484.484 0 0 1-.368.155.493.493 0 0 1-.39-.096.45.45 0 0 1-.176-.349.483.483 0 0 1 .126-.359.52.52 0 0 1 .352-.169zm4.526-.445a.498.498 0 0 1 .391.096.446.446 0 0 1 .175.349.442.442 0 0 1-.11.372.467.467 0 0 1-.368.156.498.498 0 0 1-.391-.097.458.458 0 0 1-.175-.35.464.464 0 0 1 .123-.36.52.52 0 0 1 .355-.166zm4.483-.447a.494.494 0 0 1 .518.254c.03.06.046.126.047.193a.494.494 0 0 1-.135.35.54.54 0 0 1-.719.056.498.498 0 0 1-.191-.325c0-.243.219-.528.48-.528zm4.524-.445a.493.493 0 0 1 .39.096.462.462 0 0 1 .176.349.442.442 0 0 1-.11.373.486.486 0 0 1-.369.155.493.493 0 0 1-.39-.096.446.446 0 0 1-.175-.349.447.447 0 0 1 .275-.49.486.486 0 0 1 .203-.038zm4.526-.445a.513.513 0 0 1 .478.274.474.474 0 0 1-.075.531.511.511 0 0 1-.538.141.495.495 0 0 1-.345-.42.452.452 0 0 1 .278-.488.478.478 0 0 1 .202-.038zm4.48-.447a.498.498 0 0 1 .391.097.458.458 0 0 1 .175.35.437.437 0 0 1-.11.371.486.486 0 0 1-.368.155.498.498 0 0 1-.391-.096.465.465 0 0 1-.175-.349c0-.285.168-.528.478-.528zM97.552 133.09a.522.522 0 0 1 .282.068c.085.049.153.12.196.206a.47.47 0 0 1-.075.531.522.522 0 0 1-.776-.018.472.472 0 0 1-.107-.259.447.447 0 0 1 .113-.371.479.479 0 0 1 .367-.157zm4.524-.445a.493.493 0 0 1 .39.096.45.45 0 0 1 .176.349.442.442 0 0 1-.11.372.467.467 0 0 1-.369.156.493.493 0 0 1-.391-.097.465.465 0 0 1-.174-.35.44.44 0 0 1 .11-.371.478.478 0 0 1 .368-.155zm4.482-.447a.498.498 0 0 1 .391.097.458.458 0 0 1 .175.35.437.437 0 0 1-.111.371.473.473 0 0 1-.367.155.498.498 0 0 1-.391-.096.45.45 0 0 1-.175-.349c0-.284.168-.528.478-.528zm4.524-.486a.498.498 0 0 1 .391.096.465.465 0 0 1 .175.349.442.442 0 0 1-.11.373.481.481 0 0 1-.368.155.498.498 0 0 1-.391-.097.458.458 0 0 1-.175-.35.464.464 0 0 1 .123-.36.52.52 0 0 1 .355-.166zm4.482-.445a.482.482 0 0 1 .519.252c.03.06.046.126.047.193a.443.443 0 0 1-.11.371.484.484 0 0 1-.368.155.493.493 0 0 1-.391-.096.458.458 0 0 1-.175-.349.557.557 0 0 1 .145-.343.59.59 0 0 1 .333-.183zm4.526-.447a.498.498 0 0 1 .391.097.456.456 0 0 1 .173.35.436.436 0 0 1-.11.371.478.478 0 0 1-.368.155.494.494 0 0 1-.39-.096.458.458 0 0 1-.176-.349.49.49 0 0 1 .127-.36.504.504 0 0 1 .353-.168zm4.525-.445a.511.511 0 0 1 .206.006c.067.017.13.048.184.09a.458.458 0 0 1 .175.349.442.442 0 0 1-.11.372.477.477 0 0 1-.368.156.499.499 0 0 1-.391-.097.454.454 0 0 1-.175-.35.482.482 0 0 1 .283-.478.514.514 0 0 1 .196-.048zm4.482-.447a.522.522 0 0 1 .282.068.498.498 0 0 1 .196.206.472.472 0 0 1-.075.531.508.508 0 0 1-.537.142.502.502 0 0 1-.238-.16.471.471 0 0 1-.108-.259.558.558 0 0 1 .145-.344.603.603 0 0 1 .335-.184zm4.524-.445a.487.487 0 0 1 .518.252c.031.06.047.126.048.193a.442.442 0 0 1-.11.372.484.484 0 0 1-.368.156.498.498 0 0 1-.392-.097.454.454 0 0 1-.174-.35.464.464 0 0 1 .123-.361.504.504 0 0 1 .355-.165zm4.526-.447a.498.498 0 0 1 .391.097.458.458 0 0 1 .175.35.494.494 0 0 1-.135.35.532.532 0 0 1-.348.165.537.537 0 0 1-.372-.109.502.502 0 0 1-.191-.325.484.484 0 0 1 .127-.359.524.524 0 0 1 .353-.169zm4.48-.445a.515.515 0 0 1 .207.006.47.47 0 0 1 .312.246c.03.06.046.126.047.193a.428.428 0 0 1-.011.198.456.456 0 0 1-.265.292.478.478 0 0 1-.202.038.493.493 0 0 1-.39-.096.468.468 0 0 1-.128-.156.437.437 0 0 1-.048-.193.519.519 0 0 1 .135-.352.552.552 0 0 1 .343-.176zm4.526-.445a.516.516 0 0 1 .283.067c.085.048.154.12.197.206a.472.472 0 0 1-.074.531.524.524 0 0 1-.777-.018.484.484 0 0 1-.084-.453.503.503 0 0 1 .455-.333zm4.483-.447a.494.494 0 0 1 .39.096.469.469 0 0 1 .174.351.438.438 0 0 1-.111.371.478.478 0 0 1-.368.155.494.494 0 0 1-.39-.096.453.453 0 0 1-.175-.349.551.551 0 0 1 .144-.345.595.595 0 0 1 .336-.183zm4.524-.445a.477.477 0 0 1 .39.096.45.45 0 0 1 .176.349.437.437 0 0 1-.111.372.495.495 0 0 1-.368.156.499.499 0 0 1-.391-.097.459.459 0 0 1-.174-.35.469.469 0 0 1 .123-.361.504.504 0 0 1 .355-.165zm4.526-.447a.493.493 0 0 1 .39.096.459.459 0 0 1 .174.351.438.438 0 0 1-.111.371.473.473 0 0 1-.367.155.498.498 0 0 1-.391-.097.454.454 0 0 1-.175-.349.472.472 0 0 1 .126-.359.527.527 0 0 1 .354-.168zm4.48-.446a.493.493 0 0 1 .391.097.446.446 0 0 1 .127.156c.031.06.047.126.048.193a.442.442 0 0 1-.276.489.484.484 0 0 1-.202.038.498.498 0 0 1-.391-.096.462.462 0 0 1-.175-.35.557.557 0 0 1 .144-.343.603.603 0 0 1 .334-.184zm-67.049 11.715a.532.532 0 0 1 .283.068.495.495 0 0 1 .196.207.469.469 0 0 1-.075.531.512.512 0 0 1-.538.141.512.512 0 0 1-.239-.16.478.478 0 0 1-.106-.26.485.485 0 0 1 .126-.359.523.523 0 0 1 .353-.168zm4.525-.445a.494.494 0 0 1 .39.096.45.45 0 0 1 .175.349.45.45 0 0 1-.276.489.511.511 0 0 1-.202.038.499.499 0 0 1-.391-.096.454.454 0 0 1-.175-.35.482.482 0 0 1 .283-.478.528.528 0 0 1 .196-.048zm4.482-.447a.493.493 0 0 1 .519.253.44.44 0 0 1 .046.194.489.489 0 0 1-.123.367.54.54 0 0 1-.738.057.494.494 0 0 1-.182-.343.546.546 0 0 1 .144-.343.592.592 0 0 1 .334-.185zm4.524-.44a.493.493 0 0 1 .39.096.448.448 0 0 1 .176.349.442.442 0 0 1-.111.372.473.473 0 0 1-.367.156.498.498 0 0 1-.392-.097.454.454 0 0 1-.174-.35.464.464 0 0 1 .123-.361.523.523 0 0 1 .355-.165zm4.526-.447a.498.498 0 0 1 .391.097.458.458 0 0 1 .175.35.493.493 0 0 1-.123.367.54.54 0 0 1-.739.057.482.482 0 0 1-.057-.703.504.504 0 0 1 .353-.168zm4.48-.445a.515.515 0 0 1 .207.006.47.47 0 0 1 .312.246c.03.06.046.126.047.193a.428.428 0 0 1-.011.198.46.46 0 0 1-.265.292.478.478 0 0 1-.202.038.498.498 0 0 1-.391-.097.458.458 0 0 1-.175-.35.52.52 0 0 1 .136-.35.552.552 0 0 1 .342-.176zm4.526-.447a.498.498 0 0 1 .391.097.458.458 0 0 1 .175.35.437.437 0 0 1-.11.371.486.486 0 0 1-.368.155.493.493 0 0 1-.391-.096.477.477 0 0 1-.127-.156.434.434 0 0 1-.048-.193.468.468 0 0 1 .118-.366.487.487 0 0 1 .36-.162zm4.483-.442a.526.526 0 0 1 .282.068.498.498 0 0 1 .196.206.476.476 0 0 1-.075.531.513.513 0 0 1-.537.142.51.51 0 0 1-.239-.16.47.47 0 0 1-.107-.259.488.488 0 0 1 .129-.357.528.528 0 0 1 .351-.171zm4.524-.445a.51.51 0 0 1 .206.006c.067.017.13.048.184.09a.458.458 0 0 1 .176.349.45.45 0 0 1-.277.489.495.495 0 0 1-.202.039.493.493 0 0 1-.391-.097.456.456 0 0 1-.174-.35.436.436 0 0 1 .11-.371.478.478 0 0 1 .368-.155zm4.526-.447a.525.525 0 0 1 .285.064c.086.048.156.12.2.206a.467.467 0 0 1-.072.534.513.513 0 0 1-.78-.021.478.478 0 0 1-.105-.263.457.457 0 0 1 .113-.371.494.494 0 0 1 .367-.157l-.008.008zm4.48-.445a.499.499 0 0 1 .391.096.456.456 0 0 1 .175.349.443.443 0 0 1-.11.372.486.486 0 0 1-.368.156.498.498 0 0 1-.391-.097.458.458 0 0 1-.175-.35.491.491 0 0 1 .129-.356.53.53 0 0 1 .349-.17zm4.526-.447a.498.498 0 0 1 .391.097.458.458 0 0 1 .175.35.49.49 0 0 1-.057.288.508.508 0 0 1-.214.209.546.546 0 0 1-.582-.053.509.509 0 0 1-.169-.245.484.484 0 0 1 .173-.536.535.535 0 0 1 .283-.11zm4.524-.445a.498.498 0 0 1 .391.096.446.446 0 0 1 .175.349.428.428 0 0 1-.011.198.456.456 0 0 1-.265.292.481.481 0 0 1-.202.038.498.498 0 0 1-.391-.097.454.454 0 0 1-.175-.35.443.443 0 0 1 .11-.371.484.484 0 0 1 .368-.155zm4.483-.486a.493.493 0 0 1 .391.097.456.456 0 0 1 .174.35.437.437 0 0 1-.11.371.477.477 0 0 1-.368.155.493.493 0 0 1-.39-.096.448.448 0 0 1-.176-.349.516.516 0 0 1 .135-.351.561.561 0 0 1 .344-.177zm4.524-.445a.494.494 0 0 1 .39.096.458.458 0 0 1 .176.349.442.442 0 0 1-.11.372.467.467 0 0 1-.369.156.493.493 0 0 1-.39-.096.45.45 0 0 1-.175-.349.472.472 0 0 1 .125-.36.504.504 0 0 1 .353-.168zm4.482-.445a.493.493 0 0 1 .39.096.45.45 0 0 1 .176.349.443.443 0 0 1-.111.372.473.473 0 0 1-.368.156.493.493 0 0 1-.391-.097.459.459 0 0 1-.174-.35.554.554 0 0 1 .144-.343.593.593 0 0 1 .334-.183zm-67.049 11.7a.523.523 0 0 1 .282.068.499.499 0 0 1 .197.206.47.47 0 0 1-.076.531.506.506 0 0 1-.246.149.507.507 0 0 1-.53-.168.473.473 0 0 1-.107-.26.552.552 0 0 1 .145-.343.596.596 0 0 1 .335-.183zm4.524-.447a.498.498 0 0 1 .391.097.458.458 0 0 1 .175.35.437.437 0 0 1-.11.371.473.473 0 0 1-.368.155.499.499 0 0 1-.391-.096.467.467 0 0 1-.175-.349.482.482 0 0 1 .125-.36.527.527 0 0 1 .353-.168zm4.482-.445a.517.517 0 0 1 .283.068.498.498 0 0 1 .196.206.473.473 0 0 1-.075.531.508.508 0 0 1-.538.141.495.495 0 0 1-.345-.42.555.555 0 0 1 .145-.343.596.596 0 0 1 .334-.183zm4.525-.447a.493.493 0 0 1 .391.097.456.456 0 0 1 .174.35.424.424 0 0 1-.011.197.468.468 0 0 1-.265.291.478.478 0 0 1-.202.038.493.493 0 0 1-.39-.096.446.446 0 0 1-.175-.349.507.507 0 0 1 .135-.351.559.559 0 0 1 .343-.177zm4.526-.442a.522.522 0 0 1 .282.068.498.498 0 0 1 .196.206.472.472 0 0 1-.075.531.513.513 0 0 1-.537.142.502.502 0 0 1-.238-.16.464.464 0 0 1 .018-.619.527.527 0 0 1 .354-.168zm4.48-.445a.499.499 0 0 1 .391.096.456.456 0 0 1 .175.349c0 .283-.168.528-.478.528a.498.498 0 0 1-.391-.097.458.458 0 0 1-.175-.35.56.56 0 0 1 .144-.343.596.596 0 0 1 .334-.183zm4.526-.447a.498.498 0 0 1 .391.097.458.458 0 0 1 .175.35.437.437 0 0 1-.11.371.486.486 0 0 1-.368.155.498.498 0 0 1-.391-.096.446.446 0 0 1-.175-.349.469.469 0 0 1 .122-.362.512.512 0 0 1 .356-.166zm4.524-.445a.493.493 0 0 1 .389.098.456.456 0 0 1 .174.349.437.437 0 0 1-.111.371.463.463 0 0 1-.367.156.498.498 0 0 1-.392-.096.446.446 0 0 1-.174-.35.469.469 0 0 1 .123-.361.508.508 0 0 1 .355-.166l.003-.001zm4.483-.444a.493.493 0 0 1 .391.097.456.456 0 0 1 .174.35.437.437 0 0 1-.111.37.473.473 0 0 1-.367.155.493.493 0 0 1-.39-.097.45.45 0 0 1-.176-.349.518.518 0 0 1 .135-.351.555.555 0 0 1 .344-.176v.001zm4.525-.445a.493.493 0 0 1 .39.096.468.468 0 0 1 .128.156c.03.06.046.126.046.193a.447.447 0 0 1-.275.49.486.486 0 0 1-.203.038.493.493 0 0 1-.391-.097.456.456 0 0 1-.174-.35.475.475 0 0 1 .126-.359.525.525 0 0 1 .353-.167zm4.481-.447a.499.499 0 0 1 .391.097.454.454 0 0 1 .175.35.437.437 0 0 1-.111.371.478.478 0 0 1-.368.155.511.511 0 0 1-.206-.006.47.47 0 0 1-.312-.246.446.446 0 0 1-.047-.193.557.557 0 0 1 .144-.343.595.595 0 0 1 .334-.185zm4.526-.445a.522.522 0 0 1 .282.068c.085.049.153.12.196.206a.472.472 0 0 1-.075.531.52.52 0 0 1-.775-.018.471.471 0 0 1-.108-.259.487.487 0 0 1 .286-.478.515.515 0 0 1 .194-.05zm4.524-.444a.493.493 0 0 1 .391.097.464.464 0 0 1 .175.349.442.442 0 0 1-.113.373.478.478 0 0 1-.372.153.498.498 0 0 1-.391-.097.454.454 0 0 1-.175-.35.462.462 0 0 1 .123-.361.501.501 0 0 1 .355-.165l.007.001zm4.482-.447a.498.498 0 0 1 .391.097.462.462 0 0 1 .175.35c0 .284-.168.526-.478.526a.477.477 0 0 1-.391-.096.446.446 0 0 1-.127-.156.434.434 0 0 1-.048-.193.562.562 0 0 1 .144-.343.599.599 0 0 1 .334-.185zm4.523-.448a.493.493 0 0 1 .39.096.448.448 0 0 1 .176.349.442.442 0 0 1-.111.372.47.47 0 0 1-.368.156.493.493 0 0 1-.391-.097.456.456 0 0 1-.174-.35.464.464 0 0 1 .123-.36.523.523 0 0 1 .355-.166zm4.526-.447a.493.493 0 0 1 .519.253c.03.061.046.127.047.194a.443.443 0 0 1-.277.488.478.478 0 0 1-.202.038.51.51 0 0 1-.206-.006.502.502 0 0 1-.184-.09.458.458 0 0 1-.175-.349.465.465 0 0 1 .125-.359.536.536 0 0 1 .353-.169zm-67.093 11.715a.497.497 0 0 1 .391.097.46.46 0 0 1 .175.35.433.433 0 0 1-.11.371.482.482 0 0 1-.368.155.499.499 0 0 1-.39-.096.461.461 0 0 1-.176-.349.554.554 0 0 1 .144-.343.595.595 0 0 1 .334-.185zm4.526-.445a.499.499 0 0 1 .391.096.467.467 0 0 1 .175.349.442.442 0 0 1-.11.373.484.484 0 0 1-.368.155.498.498 0 0 1-.391-.096.446.446 0 0 1-.175-.349.46.46 0 0 1 .117-.366.501.501 0 0 1 .361-.162zm4.524-.445a.498.498 0 0 1 .391.096.46.46 0 0 1 .175.349.443.443 0 0 1-.11.372.477.477 0 0 1-.368.156.498.498 0 0 1-.391-.097.462.462 0 0 1-.175-.35.443.443 0 0 1 .11-.371.484.484 0 0 1 .368-.155zm4.482-.447a.498.498 0 0 1 .392.097.456.456 0 0 1 .174.35.437.437 0 0 1-.11.371.477.477 0 0 1-.368.155.493.493 0 0 1-.39-.096.451.451 0 0 1-.176-.349.491.491 0 0 1 .128-.357.53.53 0 0 1 .35-.171zm4.526-.445a.517.517 0 0 1 .283.068c.085.048.153.12.196.206a.476.476 0 0 1-.075.531.524.524 0 0 1-.776-.019.469.469 0 0 1-.107-.26.453.453 0 0 1 .278-.487.497.497 0 0 1 .201-.039zm4.525-.447a.493.493 0 0 1 .391.096.459.459 0 0 1 .174.351.443.443 0 0 1-.11.371.477.477 0 0 1-.368.155.493.493 0 0 1-.39-.096.466.466 0 0 1-.176-.349.442.442 0 0 1 .111-.372.478.478 0 0 1 .368-.156zm4.482-.445a.493.493 0 0 1 .39.096.45.45 0 0 1 .176.349.443.443 0 0 1-.111.372.495.495 0 0 1-.368.156.493.493 0 0 1-.391-.097.459.459 0 0 1-.174-.35c0-.284.168-.526.478-.526zm4.521-.446a.484.484 0 0 1 .519.252c.03.06.046.127.046.194a.443.443 0 0 1-.11.371.477.477 0 0 1-.368.155.493.493 0 0 1-.39-.096.453.453 0 0 1-.175-.349.428.428 0 0 1 .11-.372.494.494 0 0 1 .368-.155zm4.482-.485a.493.493 0 0 1 .39.096.45.45 0 0 1 .176.349.443.443 0 0 1-.11.372.467.467 0 0 1-.369.156.494.494 0 0 1-.39-.097.455.455 0 0 1-.175-.349.55.55 0 0 1 .144-.343.588.588 0 0 1 .334-.184zm4.527-.454a.498.498 0 0 1 .391.097.454.454 0 0 1 .175.349.437.437 0 0 1-.11.371.467.467 0 0 1-.368.156.498.498 0 0 1-.391-.096.462.462 0 0 1-.175-.35.483.483 0 0 1 .126-.359.504.504 0 0 1 .352-.168zm4.526-.447a.499.499 0 0 1 .392.097.446.446 0 0 1 .174.35.442.442 0 0 1-.11.372.477.477 0 0 1-.368.155.493.493 0 0 1-.39-.097.45.45 0 0 1-.176-.349.47.47 0 0 1 .123-.361.529.529 0 0 1 .355-.167zm4.481-.438a.513.513 0 0 1 .478.274.474.474 0 0 1-.075.531.502.502 0 0 1-.247.148.511.511 0 0 1-.529-.167.476.476 0 0 1-.107-.26.555.555 0 0 1 .145-.343.595.595 0 0 1 .335-.183zm4.524-.447a.498.498 0 0 1 .391.097.458.458 0 0 1 .175.35.437.437 0 0 1-.11.371.486.486 0 0 1-.368.155.487.487 0 0 1-.525-.254.444.444 0 0 1-.046-.196.482.482 0 0 1 .125-.36.504.504 0 0 1 .353-.168l.005.005zm4.484-.449a.493.493 0 0 1 .39.097.45.45 0 0 1 .176.349.443.443 0 0 1-.112.372.486.486 0 0 1-.37.154.499.499 0 0 1-.391-.097.454.454 0 0 1-.175-.35.557.557 0 0 1 .147-.343.594.594 0 0 1 .335-.182zm4.524-.445a.487.487 0 0 1 .519.252c.03.06.046.126.047.193a.442.442 0 0 1-.11.372.486.486 0 0 1-.368.155.493.493 0 0 1-.391-.097.452.452 0 0 1-.175-.349.516.516 0 0 1 .135-.35.552.552 0 0 1 .343-.176zm-58.042 10.826a.522.522 0 0 1 .282.068c.086.048.154.12.198.206a.47.47 0 0 1-.075.531.524.524 0 0 1-.776-.018.469.469 0 0 1-.107-.26.516.516 0 0 1 .135-.351.557.557 0 0 1 .343-.176zm4.524-.446a.498.498 0 0 1 .391.096.462.462 0 0 1 .175.35.442.442 0 0 1-.11.372.486.486 0 0 1-.368.155.498.498 0 0 1-.391-.097.46.46 0 0 1-.175-.349.487.487 0 0 1 .125-.359.523.523 0 0 1 .353-.168zm4.482-.446a.498.498 0 0 1 .391.096.465.465 0 0 1 .175.35.443.443 0 0 1-.276.489.484.484 0 0 1-.202.038.498.498 0 0 1-.391-.096.462.462 0 0 1-.175-.351.557.557 0 0 1 .144-.342.597.597 0 0 1 .334-.184zm4.523-.447a.494.494 0 0 1 .518.254c.03.06.046.126.048.193a.492.492 0 0 1-.135.35.543.543 0 0 1-.72.056.502.502 0 0 1-.191-.325.484.484 0 0 1 .127-.359.529.529 0 0 1 .353-.169zm4.524-.445a.493.493 0 0 1 .391.096.477.477 0 0 1 .127.156.44.44 0 0 1 .048.193.442.442 0 0 1-.11.373.484.484 0 0 1-.368.155.515.515 0 0 1-.207-.006.47.47 0 0 1-.312-.246.446.446 0 0 1-.047-.193.469.469 0 0 1 .122-.362.52.52 0 0 1 .356-.166zm4.482-.445a.5.5 0 0 1 .48.273.474.474 0 0 1-.074.532.523.523 0 0 1-.538.142.512.512 0 0 1-.239-.161.473.473 0 0 1-.107-.26.562.562 0 0 1 .144-.343.596.596 0 0 1 .334-.183zm4.524-.447a.498.498 0 0 1 .392.097.454.454 0 0 1 .174.35.443.443 0 0 1-.11.371.484.484 0 0 1-.368.155.487.487 0 0 1-.518-.252.448.448 0 0 1-.048-.193.469.469 0 0 1 .123-.362.508.508 0 0 1 .355-.166zm4.526-.445a.525.525 0 0 1 .283.067.474.474 0 0 1 .123.738.524.524 0 0 1-.538.142.512.512 0 0 1-.239-.161.48.48 0 0 1-.107-.26.498.498 0 0 1 .283-.478.528.528 0 0 1 .195-.048zm4.481-.447a.499.499 0 0 1 .391.097.454.454 0 0 1 .175.35.437.437 0 0 1-.111.371.478.478 0 0 1-.368.155.511.511 0 0 1-.206-.006.502.502 0 0 1-.184-.09.458.458 0 0 1-.175-.349.516.516 0 0 1 .135-.351.559.559 0 0 1 .343-.177zm4.526-.445a.494.494 0 0 1 .39.096.458.458 0 0 1 .176.349.442.442 0 0 1-.11.373.477.477 0 0 1-.369.155.493.493 0 0 1-.391-.097.456.456 0 0 1-.174-.35.464.464 0 0 1 .123-.361.504.504 0 0 1 .355-.165zm4.482-.445a.513.513 0 0 1 .479.274.473.473 0 0 1-.076.531.52.52 0 0 1-.776-.019.476.476 0 0 1-.107-.26c0-.243.219-.526.48-.526zm4.524-.447a.498.498 0 0 1 .391.097.458.458 0 0 1 .175.35.437.437 0 0 1-.11.371.486.486 0 0 1-.368.155.498.498 0 0 1-.391-.096.465.465 0 0 1-.175-.349.442.442 0 0 1 .11-.373.484.484 0 0 1 .368-.155zm4.526-.445a.513.513 0 0 1 .479.274.471.471 0 0 1-.076.531.524.524 0 0 1-.776-.019.484.484 0 0 1-.107-.26.442.442 0 0 1 .112-.372.484.484 0 0 1 .368-.154zm4.481-.447a.493.493 0 0 1 .391.097.446.446 0 0 1 .174.35.443.443 0 0 1-.11.371.477.477 0 0 1-.368.155.493.493 0 0 1-.39-.096.451.451 0 0 1-.176-.349.498.498 0 0 1 .129-.357.53.53 0 0 1 .35-.171zm4.526-.445a.513.513 0 0 1 .479.273.476.476 0 0 1-.074.531.524.524 0 0 1-.538.142.502.502 0 0 1-.238-.16.477.477 0 0 1-.108-.26.442.442 0 0 1 .111-.372.468.468 0 0 1 .368-.154zm-.566-5.019a.499.499 0 0 1 .391.096.45.45 0 0 1 .175.351.438.438 0 0 1-.111.371.478.478 0 0 1-.368.155.494.494 0 0 1-.39-.096.453.453 0 0 1-.175-.349.466.466 0 0 1 .122-.362.504.504 0 0 1 .356-.166z" clip-rule="evenodd"/><path fill="#96286B" d="M61.35 157.698c-1.525.122-1.915-.851-2.439-1.541-4.656-6.079-9.136-12.201-13.835-18.241-1.741-2.229-.218-3.647.914-5.27a36521.891 36521.891 0 0 0 38.593-53.912c4.7-6.566 9.485-13.092 14.097-19.782 1.784-2.59 3.046-3.202 4.96-.121a779.823 779.823 0 0 0 13.793 21.532c1.305 1.985 1.219 3.445-.261 5.35a24631.592 24631.592 0 0 0-54.04 69.999 24.256 24.256 0 0 1-1.783 1.986z"/><path fill="#390142" fill-rule="evenodd" d="M20.84 61.261c-.13-.364-.086-.445-.478-.526l-.261.283-.261.203c-.697.285-.915.285-1.044.932.086 1.216 0 2.474.13 3.69.168 1.337.348 2.634.478 4.013.168 1.823.087 6.08.697 7.661-.305.526.087.365-.132.892-.522-.04-.39 0-.478-.568-.348-2.23-.434-5.027-.522-7.297a36.29 36.29 0 0 0-.392-3.81c-.169-1.012-.086-3.04-.261-3.723.168-.445.131-.485 0-.932l-2.218.406-.13.405c-.262.515-.393 2.791-.472 3.52-.132 1.053-.393 2.392-.61 3.446-.392 1.943-.566 5.31-.61 7.338l-.521.121v-.528c-.13-.892.392-5.917.61-7.012.26-1.339 1.13-5.757.955-6.851l.132-.405c-.393-.204-.653-.162-1.044-.285-.522-.202-.741-.445-1.044.162-.349.203-4.177 5.019-4.7 5.715-.696.933-1.61 1.987-2.262 2.96-.61.809-1.566 2.229-2.358 2.914l-.39.04-.132-.366c.741-.607 1.568-1.66 2.176-2.428.348-.445 1.653-2.267 2.046-2.59l.26-.324.218-.324.875-1.056.479-.528c.13-.485 2.694-3.485 3.306-4.209l.261-.324-1.832-1.75c-.434.204-.392.123-.609.447-.74.203-2.132 1.133-2.829 1.58-.347.204-2.525 1.62-2.653 1.663-.566.283-1.437.607-1.74 1.054l-1.09.69c-.477.162-.912.323-1.178.769l-.168.04c-.478.204-.608.447-1.044.366 0-.69.088-.204.61-.73l1.304-.69.566-.405a30.751 30.751 0 0 0 2.745-1.54c.958-.648 1.523-1.055 2.525-1.62.479-.202 1.088-.528 1.393-.932.522-.122 2.175-.771 1.653-1.5l-.739-1.942v-.123c-1.436.121-6.048 1.215-7.962 1.701-.792.2-.743.403-1.139-.124l8.963-1.987h.088l-.044-.324c.217-.243.26-1.175.217-1.54.217-.284.168.081.131-.485-.348-.324-3.307-.567-3.916-.567-.958-.406-2.785-.162-3.307-1.094l.392-.162c.391.244.218.244.696.366 1.305.364 3.35.647 4.7.769.87.082 1.435.447 1.696-.364.169-.203.347-.81.261-1.054l.261-.324c-.348-1.014-5.7-1.703-6.18-3.076l.437-.122c.695.648.347.446 1.305.852.958.406 3.957 1.653 4.7 1.734l.216-.364.827-.933c.696-.609-.217-1.175-.653-1.744-.436-.568-.913-1.133-1.305-1.701-.522-.73-2.436-2.717-2.436-3.488.478-.161.695.447.958.852.262.405.564.852.868 1.095.169.406 1.568 2.188 1.873 2.35.086.366 1.13 1.62 1.515 1.825l.349-.364.58-.365 1.088-.647c-.087-.569-.26-1.457-.74-1.825.087-.647-.74-2.752-.957-3.562-.217-.69-1.305-3.04-.697-3.485l.392.405-.348-.041v.445l.305-.364c.26 1.337.739 2.914 1.131 4.21.305 1.053 1.088 2.878 1.22 3.81a4.406 4.406 0 0 0 1.782-.204c.392-1.418.044-4.337.088-5.957 0-.972-.088-1.987-.044-2.96.088-.73.217-2.267.044-2.914.434-.364.168-.162.522-.202l.13.608c-.13.607-.087 1.823-.169 2.553-.088.972.044 1.744 0 2.717-.044 1.619-.044 3.886.088 5.472-.132.364-.132.486 0 .933.478.162.607.243 1.087.162l.13-.285L23.987 33.7c.434-.324.044-.121.61-.242l.041.485c-.826 1.014-2.044 5.27-2.48 6.648-.434 1.337-.608 2.067-1.217 3.4-.305.69-1.088 2.838-1.088 3.445l-.168.406c.303.324 1 .567 1.434.648l.522-.688c.48-.162 1.612-2.105 2.002-2.636l.305-.364c1.261-1.744 2.48-3.4 3.785-5.108.392-.526 3.785-4.865 3.829-5.068l.522-.121v.405c-1.478 1.58-2.862 3.647-4.176 5.31-1.313 1.663-2.785 3.688-4.04 5.472l-.29.368-1.698 2.35-.26.324c.168.445.697.971 1.218 1.095l.305-.407c.566-.162 1-.688 1.516-.971l.826-.729c1.263-.932 6.005-5.229 7.092-5.514l.827-.769.74-.609c.435-.162.567-.121.74-.526.349-.121 2.873-2.148 2.958-2.428.349-.162.305-.243.741-.203.042.447-.131.203-.436.77-.61.163-8.745 6.487-10.572 8.068-.87.77-2.48 2.23-3.35 2.796-.437.243-.74.366-1.001.73v.122c-.48.445 0 .69.303 1.175.741-.243 1.872-.647 2.307-1.256.478.121 2.872-1.337 3.48-1.703.392-.122.48-.04.654-.364l3.436-1.781c.522-.162 1.347-.486 1.568-.892l1.178-.608c.48-.162.436-.121.697-.406.87-.243 3.48-1.823 4.439-2.35l.783-.203v.364c-.654.245-1.829.972-2.48 1.34-.827.485-1.827.932-2.694 1.377-.827.445-4.7 2.674-5.22 2.716l-2.176 1.216c-1.914.933-3.743 2.149-5.743 2.958l.042.892.088.648c1.436-.122 3.785-.892 5.22-1.295 1.87-.528 3.655-.852 5.526-1.295 1.826-.446 9.31-2.59 10.439-2.635.087.365.168.243-.088.486l-13.445 3.238c-.565.122-1.958.445-1.697.486l-.086.08c-.74.041-2.045.529-2.828.73-1 .284-2.046.406-3.046.73v-.041c-.13.486-.435 1.177-.349 1.619.305.283.741.243 1.088.283l3.611.366c1.568.283 3.395.162 4.831.486l8.363.93c.61 0 .654-.04 1.132.284-.044.486.087.202-.168.447l-1.915-.162-3.872-.405c-.566-.445-2.046-.324-2.83-.404-.956-.122-1.957-.285-2.914-.324l-5.962-.567c-.652-.04-1.13-.121-1.783 0-.044.526-.478 1.054-.478 1.58.347.892 6.221 3.562 7.309 4.175.61.324 1.178.81 1.785 1.095.739.366 1.13.528 1.827 1.013.653.447 1.26.569 1.914.892l1.914 1.054v.486c.044-.647 0-.285-.217-.406.086.406.13.202-.087.528l-3.568-2.027c-1.132-.69-2.263-1.296-3.48-1.987-1.568-.932-6.23-2.96-7.136-3.932l-.697-.243-.261.324c-.261.323-.522.73-.827 1.094-.478.609-.086.609.168 1.216.261.485.696 1.295 1.132 1.582h-.044c.39.851 1.261 2.026 1.74 2.914 1.306 2.31 2.693 5.31 3.916 7.499l.697 1.256c.086.364.042.202-.044.405-.697-.324-1.653-2.59-2.002-3.4-.61-1.295-1.219-2.35-1.827-3.562-.653-1.216-1.219-2.31-1.914-3.447-.702-1.024-1.527-2.158-2.093-3.168zM15.358 48.29v-.081c-.261.364-.435.364-.871.568-.434.122-.303.122-.478.405-1.044.568-2.044 2.027-2.526 3-.39.81-1.131 3.202-.956 4.013-.697 1.296 1.436 6.526 6.134 5.756.653-.122 1.178-.162 1.515-.607 1.436-.083 2.915-2.267 3.524-3.285.396-.702.73-1.434 1-2.189.48-1.175.437-2.189.698-2.553l-.132-.445-.13-.569c-.087-1.377-1.515-2.797-2.694-3.485a5.958 5.958 0 0 0-2.084-.69c-.74-.121-2.044-.486-2.526.121l-.478.04h.004z" clip-rule="evenodd"/><path fill="#390142" d="M91.11 9.978c10.399-2.797 20.668 1.54 23.104 9.729 2.654 9.04-2.175 17.025-11.879 19.62-8.745 2.35-19.622-3-22.146-10.865-2.563-7.94 2.305-16.169 10.92-18.484z"/></svg>