<svg width="168" height="162" xmlns="http://www.w3.org/2000/svg" fill="none" viewBox="0 0 168 162"><path fill="#0378EC" fill-rule="evenodd" d="M12.925 156.341a.768.768 0 0 1 .696 1.236.766.766 0 0 1-.815.262.771.771 0 0 1-.53-.948.763.763 0 0 1 .65-.55zM.677 39.911a.758.758 0 0 1 .817.967.758.758 0 0 1-.649.55.761.761 0 0 1-.751-.388.76.76 0 0 1 .583-1.127v-.002zm6.438-.669a.773.773 0 0 1 .764.386.764.764 0 0 1-.435 1.104.772.772 0 0 1-.844-1.208.755.755 0 0 1 .515-.282zm6.438-.72a.772.772 0 0 1 .764.386.764.764 0 0 1-.435 1.105.773.773 0 0 1-.823-.234.764.764 0 0 1-.177-.41.754.754 0 0 1 .671-.846zm6.439-.677a.773.773 0 0 1 .763.386.764.764 0 0 1-.435 1.104.773.773 0 0 1-.823-.234.764.764 0 0 1-.177-.41.752.752 0 0 1 .386-.756.763.763 0 0 1 .286-.09zm6.438-.72a.772.772 0 0 1 .764.386.763.763 0 0 1-.435 1.105.772.772 0 0 1-1.001-.644.813.813 0 0 1 .672-.846zm6.44-.677a.772.772 0 0 1 .764.386.763.763 0 0 1-.435 1.104.773.773 0 0 1-.824-.234.765.765 0 0 1 .495-1.256zm6.438-.67a.758.758 0 0 1 .68 1.232.767.767 0 0 1-.512.285.772.772 0 0 1-.823-.68.764.764 0 0 1 .655-.843v.007zm6.438-.719a.76.76 0 0 1 .752.387.75.75 0 0 1 .007.712.756.756 0 0 1-.738.403.758.758 0 0 1-.656-.523.752.752 0 0 1 .635-.979zm6.438-.669a.772.772 0 0 1 .764.386.764.764 0 0 1-.435 1.104.771.771 0 0 1-.843-1.207.76.76 0 0 1 .514-.283zm6.44-.743a.773.773 0 0 1 .764.386.764.764 0 0 1-.435 1.104.772.772 0 0 1-1-.643.785.785 0 0 1 .671-.847zm6.44-.67a.773.773 0 0 1 .764.387.764.764 0 0 1-.435 1.104.772.772 0 0 1-.98-.941.754.754 0 0 1 .651-.55zm6.479-.685a.772.772 0 0 1 .763.386.764.764 0 0 1-.434 1.104.773.773 0 0 1-.824-.234.765.765 0 0 1-.177-.41.729.729 0 0 1 .381-.763.736.736 0 0 1 .29-.083zm6.438-.72a.772.772 0 0 1 .764.386.764.764 0 0 1-.435 1.105.773.773 0 0 1-.824-.235.765.765 0 0 1-.177-.409.73.73 0 0 1 .382-.763.739.739 0 0 1 .29-.084zm6.438-.669a.773.773 0 0 1 .764.386.764.764 0 0 1-.435 1.104.772.772 0 0 1-1-.643.73.73 0 0 1 .671-.847zm6.439-.72a.772.772 0 0 1 .763.387.764.764 0 0 1-.435 1.104.772.772 0 0 1-1-.644.732.732 0 0 1 .671-.846zm6.44-.677a.772.772 0 0 1 .763.386.764.764 0 0 1-.435 1.104.773.773 0 0 1-.823-.234.765.765 0 0 1-.178-.41.732.732 0 0 1 .672-.846zM1.511 47.698a.773.773 0 0 1 .764.386.764.764 0 0 1-.435 1.104.772.772 0 0 1-.98-.94.756.756 0 0 1 .651-.55zm6.438-.72a.772.772 0 0 1 .764.387.764.764 0 0 1-.435 1.104.773.773 0 0 1-.823-.234.765.765 0 0 1-.178-.41.753.753 0 0 1 .672-.846zm6.44-.669a.772.772 0 0 1 .764.386.764.764 0 0 1-.435 1.105.772.772 0 0 1-.98-.942.754.754 0 0 1 .651-.548zm6.438-.719a.772.772 0 0 1 .764.386.764.764 0 0 1-.435 1.104.773.773 0 0 1-.823-.234.765.765 0 0 1-.178-.41.752.752 0 0 1 .387-.756.76.76 0 0 1 .285-.09zm6.439-.678a.773.773 0 0 1 .763.386.764.764 0 0 1-.435 1.105.773.773 0 0 1-.823-.235.765.765 0 0 1-.177-.409.754.754 0 0 1 .672-.847zm6.438-.719a.772.772 0 0 1 .764.386.764.764 0 0 1-.436 1.104.772.772 0 0 1-1-.643.813.813 0 0 1 .672-.847zm6.438-.691a.76.76 0 0 1 .752.387.75.75 0 0 1 .006.712.757.757 0 0 1-1.145.24.754.754 0 0 1 .387-1.339zm6.44-.67a.76.76 0 0 1 .754.393.752.752 0 0 1 .086.285.758.758 0 0 1-.672.847.772.772 0 0 1-.85-.678.763.763 0 0 1 .165-.564.771.771 0 0 1 .517-.282zm6.438-.719a.772.772 0 0 1 .764.386.764.764 0 0 1-.435 1.104.773.773 0 0 1-.824-.234.765.765 0 0 1-.177-.41.754.754 0 0 1 .672-.846zm6.444-.679a.772.772 0 0 1 .763.386.764.764 0 0 1-.435 1.104.773.773 0 0 1-.823-.234.765.765 0 0 1-.178-.41.754.754 0 0 1 .672-.846zm6.438-.72a.772.772 0 0 1 .763.386.764.764 0 0 1-.435 1.105.772.772 0 0 1-1-.644.786.786 0 0 1 .672-.846zm6.44-.677a.772.772 0 0 1 .763.386.764.764 0 0 1-.435 1.104.773.773 0 0 1-.823-.234.765.765 0 0 1 .495-1.256zm6.438-.67a.757.757 0 0 1 .817.967.759.759 0 0 1-.65.55.757.757 0 0 1-.816-.967.76.76 0 0 1 .649-.55zm6.438-.719a.758.758 0 0 1 .817.966.758.758 0 0 1-.649.55.771.771 0 0 1-.823-.68.764.764 0 0 1 .655-.843v.007zm6.438-.67a.772.772 0 0 1 .764.387.764.764 0 0 1-.435 1.104.772.772 0 0 1-.979-.941.753.753 0 0 1 .65-.55zm6.438-.719a.773.773 0 0 1 .764.386.763.763 0 0 1-.435 1.104.773.773 0 0 1-.823-.234.764.764 0 0 1-.178-.409.754.754 0 0 1 .672-.847zM2.307 55.443a.772.772 0 0 1 .763.386.764.764 0 0 1-.435 1.104.772.772 0 0 1-.978-.94.755.755 0 0 1 .65-.55zm6.438-.677a.773.773 0 0 1 .764.385.764.764 0 0 1-.435 1.105.772.772 0 0 1-.98-.941.756.756 0 0 1 .651-.55zm6.438-.723a.773.773 0 0 1 .764.386.764.764 0 0 1-.435 1.104.773.773 0 0 1-.824-.234.765.765 0 0 1-.177-.41.753.753 0 0 1 .672-.846zm6.44-.67a.755.755 0 0 1 .758 1.098.754.754 0 0 1-.736.4.758.758 0 0 1-.654-.521.75.75 0 0 1 .632-.976zm6.438-.719a.758.758 0 0 1 .817.966.763.763 0 0 1-.649.55.771.771 0 0 1-.823-.68.764.764 0 0 1 .655-.843v.007zm6.48-.678a.772.772 0 0 1 .764.386.764.764 0 0 1-.435 1.105.771.771 0 0 1-1-.644.73.73 0 0 1 .381-.763.739.739 0 0 1 .29-.084zm6.439-.719a.773.773 0 0 1 .764.386.764.764 0 0 1-.436 1.104.772.772 0 0 1-1-.643c-.084-.382.25-.763.672-.847zm6.438-.678a.772.772 0 0 1 .764.386.764.764 0 0 1-.435 1.104.772.772 0 0 1-1.001-.643.732.732 0 0 1 .672-.847zm6.44-.669a.773.773 0 0 1 .764.386.764.764 0 0 1-.435 1.104.772.772 0 0 1-1.001-.643.735.735 0 0 1 .672-.847zm6.438-.72a.772.772 0 0 1 .764.387.764.764 0 0 1-.435 1.104.773.773 0 0 1-1-.644.73.73 0 0 1 .38-.763.739.739 0 0 1 .291-.083zm6.438-.669a.76.76 0 0 1 .752.387.751.751 0 0 1 .063.577.756.756 0 0 1-.647.542.767.767 0 0 1-.75-.387.755.755 0 0 1-.09-.282.73.73 0 0 1 .382-.761.737.737 0 0 1 .29-.084v.008zm6.439-.719a.773.773 0 0 1 .764.386.764.764 0 0 1-.436 1.104.772.772 0 0 1-1-.645c-.085-.423.25-.761.671-.845zm6.438-.67a.773.773 0 0 1 .763.387.764.764 0 0 1-.435 1.104.772.772 0 0 1-1-.644.732.732 0 0 1 .672-.846zm6.44-.677a.772.772 0 0 1 .763.386.764.764 0 0 1-.435 1.104.771.771 0 0 1-1-.643.73.73 0 0 1 .381-.763.739.739 0 0 1 .29-.084zm6.438-.72a.763.763 0 0 1 .753.394.752.752 0 0 1 .087.284.757.757 0 0 1-.388.755.77.77 0 0 1-.582.067.76.76 0 0 1-.542-.653.73.73 0 0 1 .381-.763.74.74 0 0 1 .29-.083zm6.438-.677a.772.772 0 0 1 .764.386.764.764 0 0 1-.435 1.104.772.772 0 0 1-1-.643.73.73 0 0 1 .38-.764.739.739 0 0 1 .291-.083zM3.143 63.188a.76.76 0 0 1 .752.387.751.751 0 0 1 .089.282.759.759 0 0 1-.673.847.773.773 0 0 1-.849-.678.765.765 0 0 1 .681-.846v.008zm6.439-.677a.773.773 0 0 1 .763.386A.764.764 0 0 1 9.91 64a.772.772 0 0 1-.978-.941.754.754 0 0 1 .65-.55zm6.438-.67a.772.772 0 0 1 .764.386.764.764 0 0 1-.435 1.105.772.772 0 0 1-.845-1.209.758.758 0 0 1 .516-.282zm6.438-.72a.772.772 0 0 1 .764.387.764.764 0 0 1-.436 1.104.772.772 0 0 1-1-.645.76.76 0 0 1 .672-.845zm6.44-.668a.772.772 0 0 1 .764.386.764.764 0 0 1-.435 1.104.773.773 0 0 1-.824-.234.765.765 0 0 1 .495-1.256zm6.438-.72a.773.773 0 0 1 .764.386.764.764 0 0 1-.435 1.104.773.773 0 0 1-.823-.234.765.765 0 0 1-.178-.41.75.75 0 0 1 .386-.757.757.757 0 0 1 .286-.089zm6.439-.677a.772.772 0 0 1 .763.385.764.764 0 0 1-.435 1.105.771.771 0 0 1-.843-1.207.76.76 0 0 1 .515-.283zm6.438-.72a.773.773 0 0 1 .763.386.764.764 0 0 1-.435 1.104.772.772 0 0 1-1-.643.811.811 0 0 1 .672-.847zm6.438-.678a.773.773 0 0 1 .764.386.764.764 0 0 1-.435 1.105.773.773 0 0 1-.824-.235.764.764 0 0 1-.177-.409.753.753 0 0 1 .672-.847zm6.44-.669a.76.76 0 0 1 .751.387.752.752 0 0 1-.3 1.025.761.761 0 0 1-1.087-.433.752.752 0 0 1 .636-.979zm6.438-.72a.758.758 0 0 1 .816.967.763.763 0 0 1-.648.55.772.772 0 0 1-.823-.68.764.764 0 0 1 .655-.843v.007zm6.438-.677a.772.772 0 0 1 .764.386.764.764 0 0 1-.435 1.104.773.773 0 0 1-.824-.234.765.765 0 0 1-.177-.41.754.754 0 0 1 .672-.846zm6.439-.72a.773.773 0 0 1 .763.386.764.764 0 0 1-.435 1.105.772.772 0 0 1-1-.644.782.782 0 0 1 .672-.846zm6.444-.699a.773.773 0 0 1 .764.386.764.764 0 0 1-.435 1.104.772.772 0 0 1-.979-.94.757.757 0 0 1 .65-.55zm6.44-.669a.772.772 0 0 1 .764.386.764.764 0 0 1-.435 1.104.773.773 0 0 1-.823-.234.765.765 0 0 1-.178-.41.753.753 0 0 1 .672-.846zm6.438-.72a.772.772 0 0 1 .764.386.76.76 0 0 1-.067.85.773.773 0 0 1-1.191.02.765.765 0 0 1-.177-.409.753.753 0 0 1 .671-.846zM3.978 70.976a.773.773 0 0 1 .764.386.764.764 0 0 1-.435 1.104.772.772 0 0 1-1-.643.733.733 0 0 1 .382-.762.742.742 0 0 1 .29-.085zm6.44-.72a.772.772 0 0 1 .764.386.764.764 0 0 1-.435 1.105.773.773 0 0 1-.823-.234.765.765 0 0 1-.178-.41.733.733 0 0 1 .672-.846zm6.439-.669a.758.758 0 0 1 .816.966.763.763 0 0 1-1.4.164.75.75 0 0 1-.088-.283.73.73 0 0 1 .381-.763.738.738 0 0 1 .29-.084zm6.438-.719a.758.758 0 0 1 .817.966.76.76 0 0 1-.65.55.76.76 0 0 1-.75-.387.75.75 0 0 1-.09-.282c-.083-.382.251-.763.673-.847zm6.431-.684a.773.773 0 0 1 .764.385.764.764 0 0 1-.435 1.105.773.773 0 0 1-.823-.235.765.765 0 0 1-.178-.409.73.73 0 0 1 .382-.763.738.738 0 0 1 .29-.083zm6.439-.678a.773.773 0 0 1 .763.386.764.764 0 0 1-.435 1.104.773.773 0 0 1-.823-.234.765.765 0 0 1-.178-.41.732.732 0 0 1 .673-.846zm6.44-.72a.772.772 0 0 1 .763.386.764.764 0 0 1-.435 1.105.773.773 0 0 1-.823-.235.765.765 0 0 1-.178-.409.73.73 0 0 1 .672-.846zm6.443-.677a.772.772 0 0 1 .763.386.764.764 0 0 1-.435 1.104.773.773 0 0 1-.823-.234.764.764 0 0 1-.177-.41.73.73 0 0 1 .672-.846zm6.438-.72a.772.772 0 0 1 .764.386.764.764 0 0 1-.435 1.105.773.773 0 0 1-.824-.235.765.765 0 0 1-.177-.409c-.084-.423.25-.761.672-.847zm6.438-.669a.773.773 0 0 1 .764.386.764.764 0 0 1-.435 1.104.773.773 0 0 1-.824-.234.765.765 0 0 1-.177-.41.73.73 0 0 1 .382-.762.737.737 0 0 1 .29-.084zm6.44-.67a.773.773 0 0 1 .764.387.763.763 0 0 1-.435 1.104.773.773 0 0 1-.824-.234.765.765 0 0 1-.177-.41.732.732 0 0 1 .672-.846zm6.438-.719a.76.76 0 0 1 .754.393.75.75 0 0 1 .086.285.758.758 0 0 1-.387.756.768.768 0 0 1-.845-.07.754.754 0 0 1-.28-.508.73.73 0 0 1 .672-.847v-.008zm6.438-.677a.772.772 0 0 1 .764.386.764.764 0 0 1-.435 1.104.773.773 0 0 1-.823-.234.765.765 0 0 1-.178-.41.73.73 0 0 1 .672-.846zm6.439-.72a.773.773 0 0 1 .763.386.764.764 0 0 1-.435 1.104.772.772 0 0 1-1-.643.73.73 0 0 1 .672-.847zm6.44-.696a.772.772 0 0 1 .763.386.764.764 0 0 1-.435 1.105.773.773 0 0 1-.823-.235.764.764 0 0 1-.177-.409.73.73 0 0 1 .382-.763.74.74 0 0 1 .29-.084zm6.44-.669a.77.77 0 0 1 .859.821.768.768 0 0 1-1.354.435.762.762 0 0 1-.177-.41.73.73 0 0 1 .381-.762.743.743 0 0 1 .291-.084zM4.773 78.72a.773.773 0 0 1 .764.386.764.764 0 0 1-.435 1.104.772.772 0 0 1-.979-.94.754.754 0 0 1 .65-.55zm6.438-.67a.772.772 0 0 1 .764.387.764.764 0 0 1-.435 1.104.773.773 0 0 1-.823-.234.765.765 0 0 1-.178-.41.75.75 0 0 1 .386-.757.76.76 0 0 1 .286-.09zm6.44-.719a.76.76 0 0 1 .752.387.752.752 0 0 1 .088.283.757.757 0 0 1-.672.846.757.757 0 0 1-.817-.966.759.759 0 0 1 .65-.55zm6.439-.669a.762.762 0 1 1 .168 1.516.772.772 0 0 1-.85-.678.765.765 0 0 1 .681-.846v.008zm6.438-.72a.773.773 0 0 1 .764.387.764.764 0 0 1-.436 1.104.773.773 0 0 1-.823-.235.765.765 0 0 1-.177-.409.81.81 0 0 1 .672-.846zm6.438-.677a.772.772 0 0 1 .764.386.764.764 0 0 1-.435 1.104.771.771 0 0 1-.843-1.207.76.76 0 0 1 .514-.283zm6.438-.67a.772.772 0 0 1 .764.387.764.764 0 0 1-.436 1.104.772.772 0 0 1-.843-1.209.755.755 0 0 1 .515-.281zm6.44-.719a.755.755 0 0 1 .758 1.098.755.755 0 0 1-1.142.238.753.753 0 0 1 .384-1.336zm6.438-.677a.763.763 0 0 1 .754.392.76.76 0 0 1-.585 1.121.758.758 0 0 1-.818-.966.758.758 0 0 1 .65-.549v.002zm6.439-.72a.772.772 0 0 1 .763.386.764.764 0 0 1-.435 1.104.772.772 0 0 1-1-.643.782.782 0 0 1 .672-.847zm6.438-.7a.773.773 0 0 1 .763.385.763.763 0 0 1-.435 1.104.773.773 0 0 1-.823-.234.765.765 0 0 1-.177-.41.754.754 0 0 1 .672-.846zm6.435-.67a.772.772 0 0 1 .763.386.764.764 0 0 1-.435 1.104.773.773 0 0 1-.823-.234.764.764 0 0 1 .495-1.256zm6.438-.72a.773.773 0 0 1 .764.386.764.764 0 0 1-.436 1.105.773.773 0 0 1-.823-.235.765.765 0 0 1 .495-1.255zm6.438-.669a.758.758 0 0 1 .84.67.752.752 0 0 1-.39.742.76.76 0 0 1-1.085-.433.751.751 0 0 1 .232-.805.759.759 0 0 1 .403-.174zm6.438-.72a.773.773 0 0 1 .764.387.764.764 0 0 1-.436 1.104.772.772 0 0 1-.843-1.209.756.756 0 0 1 .515-.281zm6.438-.677a.772.772 0 0 1 .764.386.76.76 0 0 1-.067.85.774.774 0 0 1-1.191.02.769.769 0 0 1 .209-1.166.756.756 0 0 1 .285-.09zM5.61 86.502a.772.772 0 0 1 .764.386.764.764 0 0 1-.435 1.104.773.773 0 0 1-.824-.234.765.765 0 0 1-.177-.41.73.73 0 0 1 .672-.846zm6.438-.72a.772.772 0 0 1 .764.386.764.764 0 0 1-.435 1.105.773.773 0 0 1-.824-.235.765.765 0 0 1-.177-.409.73.73 0 0 1 .672-.847zm6.438-.677a.772.772 0 0 1 .764.386.764.764 0 0 1-.435 1.104.773.773 0 0 1-1-.644.732.732 0 0 1 .671-.846zm6.44-.72a.773.773 0 0 1 .764.386.764.764 0 0 1-.435 1.105.773.773 0 0 1-.823-.235.765.765 0 0 1-.178-.409.73.73 0 0 1 .382-.763.74.74 0 0 1 .29-.084zm6.439-.677a.773.773 0 0 1 .763.386.764.764 0 0 1-.435 1.104.773.773 0 0 1-.823-.234.765.765 0 0 1-.178-.41.73.73 0 0 1 .382-.763.738.738 0 0 1 .29-.083zm6.438-.72a.772.772 0 0 1 .763.386.764.764 0 0 1-.435 1.104.772.772 0 0 1-1-.643c-.084-.38.25-.761.672-.847zm6.438-.669a.772.772 0 0 1 .764.386.764.764 0 0 1-.436 1.104.771.771 0 0 1-1-.643.73.73 0 0 1 .381-.763.739.739 0 0 1 .29-.084zm6.438-.67a.773.773 0 0 1 .764.387.764.764 0 0 1-.435 1.104.773.773 0 0 1-.824-.234.764.764 0 0 1-.177-.41.73.73 0 0 1 .382-.762.74.74 0 0 1 .29-.084zm6.44-.719a.772.772 0 0 1 .764.386.764.764 0 0 1-.435 1.105.773.773 0 0 1-.824-.235.764.764 0 0 1-.177-.409.73.73 0 0 1 .382-.763.739.739 0 0 1 .29-.084zm6.438-.669a.764.764 0 0 1 .75.387.76.76 0 0 1-.583 1.129.76.76 0 0 1-.839-.67.73.73 0 0 1 .672-.846zm6.438-.72a.772.772 0 0 1 .764.386.764.764 0 0 1-.435 1.105.773.773 0 0 1-.823-.234.765.765 0 0 1-.178-.41c-.084-.423.25-.761.672-.846zm6.439-.694a.772.772 0 0 1 .763.386.764.764 0 0 1-.435 1.104.772.772 0 0 1-1-.643.73.73 0 0 1 .381-.763.739.739 0 0 1 .29-.084zm6.438-.669a.773.773 0 0 1 .764.386.764.764 0 0 1-.435 1.104.772.772 0 0 1-1.001-.643.758.758 0 0 1 .672-.847zm6.44-.72a.758.758 0 0 1 .817.967.76.76 0 0 1-.65.55.76.76 0 0 1-.751-.387.75.75 0 0 1-.088-.283.757.757 0 0 1 .672-.846zm6.443-.684a.76.76 0 0 1 .84.678.76.76 0 0 1-.971.82.77.77 0 0 1-.55-.652.764.764 0 0 1 .681-.846zm6.438-.72a.773.773 0 0 1 .764.387.76.76 0 0 1-.067.85.773.773 0 0 1-1.191.02.761.761 0 0 1-.178-.41.766.766 0 0 1 .158-.563.754.754 0 0 1 .514-.283zm-95.788 18.2a.758.758 0 0 1 .816.966.76.76 0 0 1-.648.55.773.773 0 0 1-.85-.679.764.764 0 0 1 .682-.846v.009zm6.438-.678a.772.772 0 0 1 .764.386.764.764 0 0 1-.435 1.104.773.773 0 0 1-.824-.234.765.765 0 0 1-.177-.41.754.754 0 0 1 .672-.846zm6.438-.72a.772.772 0 0 1 .764.386.764.764 0 0 1-.435 1.105.772.772 0 0 1-.98-.941.753.753 0 0 1 .651-.55zm6.438-.677a.772.772 0 0 1 .764.386.764.764 0 0 1-.435 1.104.773.773 0 0 1-.823-.234.765.765 0 0 1-.178-.41.754.754 0 0 1 .672-.846zm6.44-.72a.772.772 0 0 1 .764.386.764.764 0 0 1-.435 1.105.773.773 0 0 1-.824-.235.765.765 0 0 1 .495-1.255zm6.438-.669a.757.757 0 0 1 .752.387.747.747 0 0 1 .088.282.757.757 0 0 1-.672.847.755.755 0 0 1-.84-.67.756.756 0 0 1 .387-.755.765.765 0 0 1 .285-.09zm6.439-.72a.758.758 0 0 1 .816.967.76.76 0 0 1-.648.55.76.76 0 0 1-.752-.387.752.752 0 0 1-.088-.283.81.81 0 0 1 .672-.846zm6.438-.668a.773.773 0 0 1 .764.385.764.764 0 0 1-.436 1.105.772.772 0 0 1-.978-.941.756.756 0 0 1 .65-.55zm6.438-.67a.772.772 0 0 1 .764.386.764.764 0 0 1-.435 1.104.773.773 0 0 1-.824-.234.765.765 0 0 1-.177-.41.754.754 0 0 1 .672-.846zm6.44-.72a.773.773 0 0 1 .764.387.764.764 0 0 1-.435 1.104.773.773 0 0 1-.824-.234.765.765 0 0 1 .495-1.256zm6.438-.668a.772.772 0 0 1 .764.385.764.764 0 0 1-.435 1.105.773.773 0 0 1-.824-.235.765.765 0 0 1-.177-.409.754.754 0 0 1 .672-.846zm6.438-.72a.773.773 0 0 1 .764.386.764.764 0 0 1-.435 1.104.772.772 0 0 1-.979-.94.755.755 0 0 1 .65-.55zm6.439-.67a.773.773 0 0 1 .763.387.764.764 0 0 1-.435 1.104.772.772 0 0 1-.844-1.208.754.754 0 0 1 .516-.282zm6.438-.677a.773.773 0 0 1 .763.386.764.764 0 0 1-.435 1.104.772.772 0 0 1-.978-.94.757.757 0 0 1 .65-.55zm6.44-.72a.772.772 0 0 1 .763.387.764.764 0 0 1-.435 1.104.773.773 0 0 1-.823-.234.764.764 0 0 1-.177-.41.75.75 0 0 1 .386-.757.759.759 0 0 1 .286-.09zm6.438-.669a.774.774 0 0 1 .764.386.769.769 0 0 1-.068.85.766.766 0 0 1-.815.262.767.767 0 0 1-.531-.949.747.747 0 0 1 .364-.459.763.763 0 0 1 .286-.09zM7.24 102a.764.764 0 0 1 .763.386.76.76 0 0 1-.067.85.773.773 0 0 1-1.191.02.767.767 0 0 1-.177-.41.73.73 0 0 1 .381-.762.721.721 0 0 1 .29-.084zm6.44-.67a.772.772 0 0 1 .86.822.763.763 0 0 1-.532.669.775.775 0 0 1-.823-.235.764.764 0 0 1-.178-.409.732.732 0 0 1 .383-.762.738.738 0 0 1 .29-.085zm6.438-.719a.768.768 0 0 1 .696 1.236.766.766 0 0 1-.815.262.771.771 0 0 1-.553-.651c-.084-.382.25-.762.672-.847zm6.438-.67a.774.774 0 0 1 .764.387.762.762 0 0 1-.068.85.773.773 0 0 1-1.19.02.767.767 0 0 1-.178-.41.726.726 0 0 1 .15-.57.735.735 0 0 1 .522-.276zm6.438-.668a.772.772 0 0 1 .764.385.764.764 0 0 1-.435 1.105.775.775 0 0 1-.824-.235.764.764 0 0 1-.177-.409.73.73 0 0 1 .672-.846zm6.438-.72a.773.773 0 0 1 .764.386.764.764 0 0 1-.435 1.104.775.775 0 0 1-.823-.234.765.765 0 0 1-.178-.41.732.732 0 0 1 .672-.846zm6.44-.67a.772.772 0 0 1 .764.387.764.764 0 0 1-.435 1.104.772.772 0 0 1-.98-.942.754.754 0 0 1 .651-.548zm6.438-.719a.762.762 0 0 1 .817.975.76.76 0 0 1-.649.55.761.761 0 0 1-.75-.387.751.751 0 0 1-.09-.283.784.784 0 0 1 .672-.846v-.009zm6.439-.669a.773.773 0 0 1 .763.386.764.764 0 0 1-.435 1.104.773.773 0 0 1-.823-.234.765.765 0 0 1-.177-.41.754.754 0 0 1 .672-.846zm6.438-.67a.772.772 0 0 1 .766.388.764.764 0 0 1-.442 1.105.773.773 0 0 1-.823-.243.765.765 0 0 1-.173-.413.748.748 0 0 1 .388-.748.759.759 0 0 1 .284-.088zm6.44-.719a.76.76 0 0 1 .751.387.75.75 0 0 1 .007.712.756.756 0 0 1-.737.403.76.76 0 0 1-.657-.523.75.75 0 0 1 .233-.805.76.76 0 0 1 .403-.174zm6.438-.669a.757.757 0 0 1 .752.386.747.747 0 0 1 .088.283.756.756 0 0 1-.387.755.766.766 0 0 1-1.037-.296.749.749 0 0 1-.088-.283.755.755 0 0 1 .387-.756.765.765 0 0 1 .285-.09v.001zm6.438-.72a.773.773 0 0 1 .764.386.764.764 0 0 1-.435 1.105.772.772 0 0 1-.98-.942.753.753 0 0 1 .651-.548zm6.439-.669a.773.773 0 0 1 .763.386.764.764 0 0 1-.435 1.104.772.772 0 0 1-.979-.94.756.756 0 0 1 .65-.55zm6.438-.669a.772.772 0 0 1 .763.386.764.764 0 0 1-.435 1.104.773.773 0 0 1-.823-.234.764.764 0 0 1-.177-.41.754.754 0 0 1 .672-.846zm6.44-.72a.771.771 0 0 1 .859.822.768.768 0 0 1-1.531.025.762.762 0 0 1 .672-.846zM8.034 109.787a.764.764 0 0 1 .764.385.766.766 0 0 1-.883 1.112.772.772 0 0 1-.395-1.215.757.757 0 0 1 .514-.282zm6.438-.72a.768.768 0 0 1 .696 1.236.766.766 0 0 1-.814.262.771.771 0 0 1-.396-1.215.76.76 0 0 1 .514-.283zm6.44-.669c.1-.012.2-.004.297.024a.754.754 0 0 1 .544.645.753.753 0 0 1-.16.563.762.762 0 0 1-.81.26.743.743 0 0 1-.543-.646.758.758 0 0 1 .672-.836v-.01zm6.439-.72a.772.772 0 0 1 .752.387.75.75 0 0 1 .088.283.757.757 0 0 1-.16.562.777.777 0 0 1-.512.284.759.759 0 0 1-.84-.669.81.81 0 0 1 .672-.845v-.002zm6.438-.669a.774.774 0 0 1 .86.821.762.762 0 0 1-.532.669.775.775 0 0 1-.823-.234.764.764 0 0 1-.177-.409.755.755 0 0 1 .672-.847zm6.438-.678a.772.772 0 0 1 .86.822.768.768 0 0 1-1.354.434.764.764 0 0 1-.178-.409.755.755 0 0 1 .672-.847zm6.438-.719a.768.768 0 0 1 .696 1.236.766.766 0 0 1-.815.262.772.772 0 0 1-.395-1.215.763.763 0 0 1 .514-.283zm6.44-.669a.772.772 0 0 1 .764.386.763.763 0 0 1-.435 1.104.775.775 0 0 1-.824-.234.766.766 0 0 1 .495-1.256zm6.438-.72a.772.772 0 0 1 .86.821.763.763 0 0 1-.53.669.767.767 0 0 1-1.002-.643.788.788 0 0 1 .672-.847zm6.439-.669a.76.76 0 0 1 .751.387.745.745 0 0 1 .007.712.752.752 0 0 1-.737.402.752.752 0 0 1-.424-1.327.762.762 0 0 1 .403-.174zm6.438-.678a.772.772 0 0 1 .86.822.775.775 0 0 1-.979.676.771.771 0 0 1-.395-1.215.776.776 0 0 1 .514-.283zm6.44-.719a.768.768 0 0 1 .696 1.236.766.766 0 0 1-.815.262.772.772 0 0 1-.396-1.216.776.776 0 0 1 .229-.193.777.777 0 0 1 .286-.089zm6.438-.669c.1-.012.2-.004.296.024a.754.754 0 0 1 .544.645.758.758 0 0 1-.387.755.775.775 0 0 1-.285.092.77.77 0 0 1-.85-.679.763.763 0 0 1 .165-.563.773.773 0 0 1 .517-.283v.009zm6.438-.72a.772.772 0 0 1 .86.821.762.762 0 0 1-.531.669.767.767 0 0 1-1-.643.755.755 0 0 1 .671-.847zm6.438-.669a.768.768 0 0 1 .696 1.236.766.766 0 0 1-.814.262.771.771 0 0 1-.396-1.215.749.749 0 0 1 .514-.283zm6.439-.67a.771.771 0 0 1 .859.822.77.77 0 1 1-1.144-.73.77.77 0 0 1 .285-.091zM8.871 117.532a.764.764 0 0 1 .764.385.766.766 0 0 1-.883 1.112.772.772 0 0 1-.395-1.215.757.757 0 0 1 .514-.282zm6.438-.67a.773.773 0 0 1 .764.386.764.764 0 0 1-.435 1.104.767.767 0 0 1-1-.643.75.75 0 0 1 .385-.758.779.779 0 0 1 .286-.089zm6.438-.719a.772.772 0 0 1 .764.386.764.764 0 0 1-.435 1.104.767.767 0 0 1-.823-.234.767.767 0 0 1-.178-.41.75.75 0 0 1 .672-.846zm6.44-.678a.773.773 0 0 1 .86.821.763.763 0 0 1-.531.669.775.775 0 0 1-.823-.234.764.764 0 0 1 .494-1.256zm6.439-.719c.099-.012.2-.004.296.024a.754.754 0 0 1 .544.645.757.757 0 0 1-.388.755.775.775 0 0 1-.58.068.757.757 0 0 1-.544-.646.808.808 0 0 1 .672-.846zm6.438-.669a.764.764 0 0 1 .764.385.766.766 0 0 1-.883 1.112.772.772 0 0 1-.396-1.215.757.757 0 0 1 .514-.282zm6.438-.678a.768.768 0 0 1 .696 1.236.773.773 0 0 1-1.19.02.766.766 0 0 1-.178-.41.751.751 0 0 1 .386-.756.758.758 0 0 1 .286-.09zm6.438-.72a.772.772 0 0 1 .86.822.763.763 0 0 1-.531.669.775.775 0 0 1-.823-.235.764.764 0 0 1-.178-.409.753.753 0 0 1 .386-.757.777.777 0 0 1 .286-.09zm6.44-.669a.772.772 0 0 1 .56.16.745.745 0 0 1 .28.509.751.751 0 0 1-.389.743.761.761 0 0 1-1.086-.433.754.754 0 0 1 .635-.979zm6.438-.719a.761.761 0 0 1 .561.159.743.743 0 0 1 .28.51.753.753 0 0 1-.16.563.762.762 0 0 1-.81.26.743.743 0 0 1-.544-.646.783.783 0 0 1 .672-.846zm6.439-.67a.772.772 0 0 1 .86.822.763.763 0 0 1-.532.669.775.775 0 0 1-.823-.235.764.764 0 0 1-.177-.409.755.755 0 0 1 .672-.847zm6.438-.677a.772.772 0 0 1 .764.386.763.763 0 0 1-.436 1.104.775.775 0 0 1-.823-.234.767.767 0 0 1-.177-.41.751.751 0 0 1 .386-.756.758.758 0 0 1 .286-.09zm6.438-.72a.772.772 0 0 1 .86.821.762.762 0 0 1-.531.669.767.767 0 0 1-1.001-.643.755.755 0 0 1 .672-.847zm6.44-.669a.774.774 0 0 1 .86.821.762.762 0 0 1-.532.669.775.775 0 0 1-.823-.234.764.764 0 0 1 .495-1.256zm6.438-.719a.763.763 0 0 1 .764.385.766.766 0 0 1-.883 1.112.771.771 0 0 1-.395-1.214.749.749 0 0 1 .514-.283zm6.438-.67a.771.771 0 0 1 .752.387.742.742 0 0 1 .088.283.765.765 0 0 1-.159.562.757.757 0 0 1-.513.284.769.769 0 0 1-.823-.68.764.764 0 0 1 .655-.842v.006zM9.666 125.276a.763.763 0 0 1 .763.385.766.766 0 0 1-.882 1.112.772.772 0 0 1-.553-.651.813.813 0 0 1 .672-.846zm6.438-.67a.772.772 0 0 1 .56.16.757.757 0 0 1 .28.51.76.76 0 0 1-.672.846c-.1.012-.2.004-.296-.024a.754.754 0 0 1-.544-.645.754.754 0 0 1 .387-.756.775.775 0 0 1 .285-.091zm6.438-.677a.764.764 0 0 1 .764.386.76.76 0 0 1-.068.85.773.773 0 0 1-1.19.02.767.767 0 0 1-.178-.41.75.75 0 0 1 .386-.756.74.74 0 0 1 .286-.09zm6.438-.72a.772.772 0 0 1 .86.821.762.762 0 0 1-.531.669.767.767 0 0 1-1-.643.755.755 0 0 1 .671-.847zm6.44-.677a.764.764 0 0 1 .764.385.766.766 0 0 1-.883 1.112.772.772 0 0 1-.529-.948.77.77 0 0 1 .364-.458.753.753 0 0 1 .284-.091zm6.438-.72a.774.774 0 0 1 .86.821.762.762 0 0 1-.53.669.775.775 0 0 1-.824-.234.764.764 0 0 1-.178-.409.812.812 0 0 1 .672-.847zm6.439-.669a.768.768 0 0 1 .696 1.236.773.773 0 0 1-1.191.02.767.767 0 0 1-.155-.707.756.756 0 0 1 .65-.549zm6.438-.669a.763.763 0 0 1 .764.385.766.766 0 0 1-.883 1.112.771.771 0 0 1-.396-1.215.762.762 0 0 1 .515-.282zm6.438-.72a.773.773 0 0 1 .764.386.763.763 0 0 1-.435 1.104.775.775 0 0 1-.824-.234.764.764 0 0 1-.177-.409.751.751 0 0 1 .386-.757.76.76 0 0 1 .286-.09zm6.44-.677a.764.764 0 0 1 .764.385.766.766 0 0 1-.883 1.112.771.771 0 0 1-.53-.948.768.768 0 0 1 .649-.549zm6.438-.72a.758.758 0 0 1 .84.669.76.76 0 0 1-.672.847.774.774 0 0 1-.566-.164.764.764 0 0 1 .398-1.36v.008zm6.439-.669a.772.772 0 0 1 .763.386.763.763 0 0 1-.435 1.104.766.766 0 0 1-.447.007.763.763 0 0 1-.554-.651.751.751 0 0 1 .387-.756.758.758 0 0 1 .286-.09zm6.438-.669a.764.764 0 0 1 .764.386.762.762 0 0 1-.068.85.768.768 0 0 1-.816.261.772.772 0 0 1-.395-1.216.762.762 0 0 1 .515-.281zm6.438-.72a.769.769 0 0 1 .86.824.773.773 0 0 1-1.36.425.763.763 0 0 1-.172-.412.749.749 0 0 1 .388-.749.766.766 0 0 1 .284-.088zm6.44-.669a.776.776 0 0 1 .764.386.768.768 0 0 1-.068.85.767.767 0 0 1-.815.261.762.762 0 0 1-.553-.651.753.753 0 0 1 .16-.561.765.765 0 0 1 .512-.285zm6.438-.72a.76.76 0 0 1 .816.966.747.747 0 0 1-.136.266.756.756 0 0 1-.808.26.758.758 0 0 1-.456-.362.766.766 0 0 1-.088-.283.762.762 0 0 1 .672-.847zm-95.743 18.154a.774.774 0 0 1 .86.821.763.763 0 0 1-.532.669.775.775 0 0 1-.823-.234.764.764 0 0 1-.177-.409.755.755 0 0 1 .672-.847zm6.44-.718a.772.772 0 0 1 .86.821.763.763 0 0 1-.532.669.767.767 0 0 1-1-.643.811.811 0 0 1 .672-.847zm6.438-.669a.758.758 0 0 1 .84.669.76.76 0 0 1-.672.847.774.774 0 0 1-.566-.164.764.764 0 0 1 .398-1.36v.008zm6.438-.678a.772.772 0 0 1 .86.822.775.775 0 0 1-.979.676.772.772 0 0 1-.395-1.215.777.777 0 0 1 .514-.283zm6.438-.719a.768.768 0 0 1 .696 1.236.766.766 0 0 1-.815.262.772.772 0 0 1-.395-1.215.749.749 0 0 1 .514-.283zm6.438-.669a.764.764 0 0 1 .765.386.761.761 0 0 1-.069.85.768.768 0 0 1-.815.261.765.765 0 0 1-.552-.652.759.759 0 0 1 .672-.845zm6.44-.72c.1-.012.2-.004.297.024a.744.744 0 0 1 .544.646.755.755 0 0 1-.673.836.777.777 0 0 1-.559-.161.758.758 0 0 1-.28-.508.783.783 0 0 1 .671-.837zm6.439-.669a.768.768 0 0 1 .696 1.236.766.766 0 0 1-.815.262.771.771 0 0 1-.396-1.215.747.747 0 0 1 .515-.283zm6.438-.678a.773.773 0 0 1 .764.386.764.764 0 0 1-.435 1.104.767.767 0 0 1-1.001-.643.753.753 0 0 1 .386-.757.776.776 0 0 1 .286-.09zm6.438-.719a.768.768 0 0 1 .696 1.236.773.773 0 0 1-1.19.02.767.767 0 0 1-.156-.707.754.754 0 0 1 .65-.549zm6.44-.678a.773.773 0 0 1 .86.821.763.763 0 0 1-.531.669.767.767 0 0 1-1.001-.643.751.751 0 0 1 .386-.757.76.76 0 0 1 .286-.09zm6.438-.719a.772.772 0 0 1 .764.386.763.763 0 0 1-.435 1.104.766.766 0 0 1-.448.007.763.763 0 0 1-.553-.651.76.76 0 0 1 .672-.846zm6.438-.669a.752.752 0 0 1 .84.669.758.758 0 0 1-.672.846.771.771 0 0 1-.823-.68.764.764 0 0 1 .655-.842v.007zm6.439-.678a.768.768 0 0 1 .696 1.236.773.773 0 0 1-1.191.02.767.767 0 0 1-.177-.409.755.755 0 0 1 .672-.847zm6.438-.719a.765.765 0 0 1 .764.385.76.76 0 0 1-.068.85.762.762 0 0 1-.815.262.772.772 0 0 1-.396-1.215.758.758 0 0 1 .515-.282zm6.44-.678a.764.764 0 0 1 .328 1.49.765.765 0 0 1-.447.007.759.759 0 0 1-.553-.651.758.758 0 0 1 .672-.846zm-95.786 18.125a.774.774 0 0 1 .86.821.763.763 0 0 1-.53.669.775.775 0 0 1-.824-.234.764.764 0 0 1-.178-.409.753.753 0 0 1 .387-.757.758.758 0 0 1 .285-.09zm6.439-.677a.764.764 0 0 1 .763.385.765.765 0 0 1-.882 1.112.771.771 0 0 1-.396-1.215.757.757 0 0 1 .514-.282zm6.44-.72a.768.768 0 0 1 .696 1.236.766.766 0 0 1-.815.262.771.771 0 0 1-.553-.651.814.814 0 0 1 .672-.847zm6.438-.678a.772.772 0 0 1 .86.822.775.775 0 0 1-.979.676.772.772 0 0 1-.396-1.215.776.776 0 0 1 .514-.283zm6.438-.669a.771.771 0 0 1 .752.387.745.745 0 0 1 .088.282.757.757 0 0 1-.387.756.755.755 0 0 1-.285.091.771.771 0 0 1-.823-.68.763.763 0 0 1 .156-.553.774.774 0 0 1 .499-.29v.007zm6.438-.719a.764.764 0 0 1 .764.386.76.76 0 0 1-.068.85.773.773 0 0 1-1.19.02.767.767 0 0 1-.178-.41.75.75 0 0 1 .672-.846zm6.438-.678a.768.768 0 0 1 .696 1.236.766.766 0 0 1-.814.262.771.771 0 0 1-.396-1.215.761.761 0 0 1 .514-.283zm6.44-.719a.763.763 0 0 1 .764.385.766.766 0 0 1-.883 1.112.771.771 0 0 1-.553-.651.784.784 0 0 1 .672-.846zm6.438-.67a.773.773 0 0 1 .764.386.764.764 0 0 1-.435 1.104.767.767 0 0 1-1-.643.755.755 0 0 1 .671-.847zm6.439-.677a.764.764 0 0 1 .763.386.761.761 0 0 1-.067.85.773.773 0 0 1-1.191.02.767.767 0 0 1-.177-.41.75.75 0 0 1 .386-.756.758.758 0 0 1 .286-.09zm6.438-.72a.772.772 0 0 1 .86.821.762.762 0 0 1-.531.669.767.767 0 0 1-1.001-.643.755.755 0 0 1 .672-.847zm6.44-.669a.76.76 0 0 1 .751.387.745.745 0 0 1 .007.712.752.752 0 0 1-.737.402.753.753 0 0 1-.021-1.501zm6.48-.719a.752.752 0 0 1 .815.963.758.758 0 0 1-.943.517.77.77 0 0 1-.454-.362.756.756 0 0 1-.09-.282.73.73 0 0 1 .382-.762.721.721 0 0 1 .29-.084v.01zm6.438-.67a.778.778 0 0 1 .56.161.748.748 0 0 1 .28.509.757.757 0 0 1-.16.562.776.776 0 0 1-.512.284.76.76 0 0 1-.84-.669.731.731 0 0 1 .672-.847zm6.439-.677a.768.768 0 0 1 .696 1.236.777.777 0 0 1-.815.261.765.765 0 0 1-.554-.651.723.723 0 0 1 .15-.57.733.733 0 0 1 .523-.276zm6.438-.72a.77.77 0 0 1 .859.821.759.759 0 0 1-.531.669.773.773 0 0 1-.823-.234.76.76 0 0 1-.177-.409.734.734 0 0 1 .672-.847zm-95.784 18.169a.768.768 0 0 1 .696 1.236.773.773 0 0 1-1.19.02.767.767 0 0 1-.156-.707.753.753 0 0 1 .65-.549zm6.438-.719a.764.764 0 0 1 .764.385.765.765 0 0 1-.883 1.112.771.771 0 0 1-.395-1.215.757.757 0 0 1 .514-.282zm6.439-.678a.768.768 0 0 1 .696 1.236.773.773 0 0 1-1.191.02.767.767 0 0 1-.156-.707.754.754 0 0 1 .65-.549zm6.44-.72a.772.772 0 0 1 .86.822.768.768 0 0 1-1.354.434.764.764 0 0 1-.179-.409.816.816 0 0 1 .672-.847zm6.438-.669a.753.753 0 0 1 .84.669.76.76 0 0 1-.969.824.768.768 0 0 1-.456-.363.753.753 0 0 1-.087-.283.755.755 0 0 1 .386-.756.757.757 0 0 1 .286-.091zm6.438-.669a.768.768 0 0 1 .696 1.236.773.773 0 0 1-1.19.02.767.767 0 0 1-.156-.707.756.756 0 0 1 .65-.549zm6.438-.72a.772.772 0 0 1 .86.822.763.763 0 0 1-.531.669.775.775 0 0 1-.824-.235.764.764 0 0 1-.177-.409.755.755 0 0 1 .672-.847zm6.438-.697a.764.764 0 0 1 .764.386.76.76 0 0 1-.067.85.773.773 0 0 1-1.191.02.767.767 0 0 1-.178-.41.75.75 0 0 1 .387-.756.758.758 0 0 1 .285-.09zm6.44-.72a.773.773 0 0 1 .764.386.764.764 0 0 1-.435 1.104.767.767 0 0 1-1-.643.785.785 0 0 1 .671-.847zm6.438-.677a.764.764 0 0 1 .764.385.765.765 0 0 1-.882 1.112.764.764 0 0 1-.554-.651.761.761 0 0 1 .672-.846zm6.439-.67a.772.772 0 0 1 .86.822.775.775 0 0 1-.978.676.772.772 0 0 1-.397-1.215.747.747 0 0 1 .515-.283zm6.438-.719a.768.768 0 0 1 .696 1.236.773.773 0 0 1-1.19.02.767.767 0 0 1-.178-.409.753.753 0 0 1 .672-.847zm6.438-.678a.772.772 0 0 1 .86.821.763.763 0 0 1-.531.669.767.767 0 0 1-1-.643.755.755 0 0 1 .671-.847zm6.44-.719a.768.768 0 0 1 .696 1.236.773.773 0 0 1-1.19.02.768.768 0 0 1 .21-1.165.79.79 0 0 1 .284-.091zm6.438-.669a.764.764 0 0 1 .764.385.763.763 0 0 1-.068.851.77.77 0 0 1-1.368-.39.763.763 0 0 1 .158-.563.743.743 0 0 1 .514-.283zm-82.907 16.793a.76.76 0 0 1 .752.387.745.745 0 0 1 .006.712.752.752 0 0 1-.737.402.752.752 0 0 1-.424-1.327.762.762 0 0 1 .403-.174zm6.438-.719a.768.768 0 0 1 .695 1.239.771.771 0 0 1-1.206-.961.754.754 0 0 1 .511-.278zm6.443-.681a.763.763 0 0 1 .764.385.766.766 0 0 1-.882 1.112.771.771 0 0 1-.396-1.214.747.747 0 0 1 .514-.283zm6.44-.72a.774.774 0 0 1 .86.821.763.763 0 0 1-.53.669.775.775 0 0 1-.824-.234.764.764 0 0 1-.178-.409.785.785 0 0 1 .672-.847zm6.48-.677a.764.764 0 0 1 .764.385.766.766 0 0 1-.882 1.112.771.771 0 0 1-.553-.651.707.707 0 0 1 .672-.846zm6.439-.67a.772.772 0 0 1 .86.821.763.763 0 0 1-.532.669.767.767 0 0 1-1-.643.731.731 0 0 1 .672-.847zm6.438-.719a.772.772 0 0 1 .764.386.763.763 0 0 1-.435 1.104.775.775 0 0 1-.824-.234.767.767 0 0 1-.177-.41.726.726 0 0 1 .15-.57.738.738 0 0 1 .523-.276zm6.438-.669a.764.764 0 0 1 .764.386.761.761 0 0 1-.068.85.768.768 0 0 1-.816.261.772.772 0 0 1-.552-.652.734.734 0 0 1 .672-.845zm6.439-.72a.776.776 0 0 1 .765.387.764.764 0 0 1-.441 1.105.772.772 0 0 1-.996-.655.732.732 0 0 1 .672-.837zm6.44-.678a.772.772 0 0 1 .86.822.763.763 0 0 1-.532.669.775.775 0 0 1-.823-.235.763.763 0 0 1-.178-.409.732.732 0 0 1 .672-.847zm6.438-.669a.778.778 0 0 1 .56.161.756.756 0 0 1 .256.805.752.752 0 0 1-.364.458.772.772 0 0 1-.58.068.77.77 0 0 1-.456-.363.75.75 0 0 1-.088-.282.73.73 0 0 1 .381-.763.74.74 0 0 1 .29-.084zm6.438-.719a.764.764 0 0 1 .763.386.76.76 0 0 1-.067.85.773.773 0 0 1-1.19.02.767.767 0 0 1-.178-.41.726.726 0 0 1 .15-.57.738.738 0 0 1 .523-.276zm6.438-.678a.774.774 0 0 1 .86.821.762.762 0 0 1-.531.669.775.775 0 0 1-.824-.234.764.764 0 0 1-.177-.409.731.731 0 0 1 .672-.847zm6.44-.719a.765.765 0 0 1 .764.385.77.77 0 0 1-.068.851.77.77 0 0 1-1.368-.39.723.723 0 0 1 .151-.569.743.743 0 0 1 .521-.277zm6.438-.67c.1-.011.2-.003.297.024a.746.746 0 0 1 .543.646.746.746 0 0 1-.159.563.771.771 0 0 1-.809.26.746.746 0 0 1-.544-.646.728.728 0 0 1 .382-.763.74.74 0 0 1 .29-.084zm-.84-7.745a.777.777 0 0 1 .561.16.742.742 0 0 1 .279.51.759.759 0 0 1-1.475.309.75.75 0 0 1 .635-.979z" clip-rule="evenodd"/><path fill="#390142" d="M141.53 137.127c2.05-18.114 4.348-36.102 6.69-54.088.753-5.758.672-9.184-3.345-12.613-21.825-18.622-43.523-37.71-65.18-56.873-3.051-2.71-5.267-2.626-8.065 0a2525.393 2525.393 0 0 1-49.672 45.446c-3.972 3.513-4.307 6.644-1.966 13.887 8.027 24.763 15.679 49.771 23.288 74.868l98.25-10.627z"/><path fill="#FEE5BF" d="M163.146 135.053a31.224 31.224 0 0 0-4.139-9.988c-4.641-7.28-10.286-11.935-16.348-15.321-13.587-7.53-27.468-11.378-41.724-9.735-12.084.086-23.707 3.639-34.995 8.93-10.326 4.867-20.278 11.21-28.226 22.601a34.462 34.462 0 0 0-6.104 17.692l131.536-14.179z"/><path fill="#0378EC" d="M56.825 130.314c-6.02 1.691-13.127 6.348-16.723 18.113l54.94-5.924s-5.685-13.417-18.73-14.222"/><path fill="#fff" d="M78.282 99.375a2.545 2.545 0 0 0-2.352-1.61 40.1 40.1 0 0 0-.672-6.305c-.293-1.523-.711-3.012-1.462-4.35-2.342-4.183-6.356-6.73-11.247-6.221-6.732.669-10.494 4.823-11.833 12.145-.418 2.329-.376 4.867 0 7.407a2.525 2.525 0 0 0-1.836 1.345c-.877 1.737.586 3.768 2.508 3.681h.586c1.13 3.301 2.76 6.137 4.515 7.697l.455 20.534c.042 2.667 1.798 5.036 4.306 5.756 6.104 1.778 10.87-.084 13.671-1.862a5.058 5.058 0 0 0 1.95-2.273 5.032 5.032 0 0 0 .315-2.973l-4.222-20.951s2.006-2.836 2.759-8.466l.504-.084c1.586-.296 2.673-1.904 2.055-3.47z"/><path fill="#1E120D" d="M39.303 149.147l.25-.847c3.764-12.358 11.373-16.887 17.1-18.537l.337 1.143c-5.31 1.523-12.334 5.67-16.055 16.844l53.222-5.756c-1.418-2.788-7.103-12.492-17.891-13.119l.082-1.187c13.255.805 19.19 14.433 19.233 14.557l.335.761-56.613 6.141zM75.93 101.575c.124-.465.292-.846.335-1.228a.728.728 0 0 0-.084-.502c-.084-.167-.25-.254-.46-.423a.693.693 0 0 1 .672.21.87.87 0 0 1 .209.757c-.04.237-.126.464-.252.669a.81.81 0 0 1-.42.517zM51.766 104.199a1.74 1.74 0 0 1-.585-.38 1.795 1.795 0 0 1-.376-.592.917.917 0 0 1 .084-.805.736.736 0 0 1 .627-.335 1.197 1.197 0 0 0-.336.502.715.715 0 0 0 .042.502c.085.347.336.685.544 1.108z"/><path fill="#FFC9C9" d="M72.17 99.332c.168 1.186-.84 2.329-2.258 2.582-1.418.252-2.719-.507-2.887-1.692-.168-1.185.84-2.33 2.258-2.582 1.418-.252 2.719.507 2.887 1.692zM58.792 101.321c0 1.186-1.176 2.117-2.592 2.031-1.417-.085-2.635-1.057-2.635-2.242 0-1.184 1.177-2.116 2.593-2.03 1.416.085 2.59 1.057 2.634 2.241z"/><path fill="#222A46" d="M58.08 97.513c.042.549-.209 1.057-.627 1.1-.418.041-.795-.38-.84-.931-.045-.55.209-1.06.627-1.101.376-.04.798.34.84.932zM68.74 96.374c.043.55-.208 1.057-.626 1.099-.419.042-.795-.38-.84-.93-.046-.55.208-1.06.626-1.101.382-.046.758.336.84.932z"/><path fill="#FF3E3E" d="M60.672 102.972c.441.379.934.692 1.464.931a2.92 2.92 0 0 0 1.587.212c.545-.085 1.008-.334 1.513-.669l.71-.55c.21-.211.46-.38.672-.593-.137.277-.29.546-.458.805-.21.253-.377.465-.629.719a3.52 3.52 0 0 1-1.714.889 2.636 2.636 0 0 1-1.881-.382 2.997 2.997 0 0 1-1.264-1.362z"/><path fill="#EB7D7A" d="M62.595 100.095a3.29 3.29 0 0 1 .672-.847c.25-.254.504-.465.752-.669l.083.67c-.543-.297-.84-.806-1.087-1.27a5.38 5.38 0 0 1-.293-.72 2.418 2.418 0 0 1-.126-.761c.284.412.592.807.921 1.184.255.349.583.638.961.847l.504.254-.46.422c-.261.236-.542.448-.84.636a3.894 3.894 0 0 1-.92.501c-.083.044-.167 0-.167-.083v-.164z"/><path fill="#1E120D" d="M66.15 140.809a17.313 17.313 0 0 1-5.059-.766c-2.718-.805-4.683-3.387-4.767-6.306l-.46-20.274c-1.63-1.566-3.219-4.183-4.348-7.362h-.126a3.26 3.26 0 0 1-2.925-1.566 2.97 2.97 0 0 1-.126-3.011 3.2 3.2 0 0 1 1.714-1.525c-.336-2.54-.336-4.994.084-7.11 1.463-7.787 5.477-11.935 12.375-12.654 4.85-.502 9.281 1.947 11.832 6.525.71 1.268 1.213 2.75 1.547 4.527.368 1.957.593 3.938.672 5.927a3.198 3.198 0 0 1 2.3 1.904 3.096 3.096 0 0 1-.126 2.581 3.337 3.337 0 0 1-2.387 1.702h-.084c-.672 4.613-2.174 7.322-2.635 8.083l4.182 20.695a5.635 5.635 0 0 1-.34 3.328 5.665 5.665 0 0 1-2.168 2.555c-2.216 1.392-5.31 2.747-9.155 2.747zm-13.755-35.932l.124.423c1.13 3.259 2.677 5.968 4.348 7.449l.21.167.504 20.824a5.566 5.566 0 0 0 1.107 3.223 5.595 5.595 0 0 0 2.783 1.982c5.852 1.694 10.417-.041 13.169-1.82a4.427 4.427 0 0 0 1.7-2.002c.35-.823.442-1.733.262-2.609l-4.264-21.204.168-.213c0-.041 1.924-2.834 2.634-8.21l.042-.423.92-.167a2.234 2.234 0 0 0 1.547-1.101 1.864 1.864 0 0 0 .084-1.566 1.86 1.86 0 0 0-1.798-1.227h-.544v-.55a39.851 39.851 0 0 0-.672-6.221c-.337-1.693-.753-3.049-1.422-4.183-2.342-4.231-6.23-6.348-10.662-5.924-6.268.627-9.99 4.475-11.327 11.67-.377 2.115-.377 4.613 0 7.236l.082.592-.543.128a1.965 1.965 0 0 0-1.421 1.057 1.806 1.806 0 0 0 .084 1.779 2.156 2.156 0 0 0 1.88 1.015l1.005-.125z"/><path fill="#1E120D" d="M56.408 112.791c4.849 3.217 9.7 4.612 16.465-1.777 0 0-6.314 10.241-16.305 7.576l-.16-5.799z"/><path fill="#1E120D" d="M59.878 119.309a12.12 12.12 0 0 1-3.387-.465l-.209-.044-.21-6.56.46.298c5.018 3.346 9.7 4.316 16.14-1.737l1.63-1.523-1.177 1.904c-.037.082-5.092 8.127-13.247 8.127zm-3.011-.974c6.606 1.651 11.581-2.496 14.047-5.249-5.433 4.106-9.699 3.133-14.213.255l.166 4.994zM78.45 84.815c.376-2.581.96-9.31-7.694-8.379-8.696.93-6.314 3.977-10.327 1.777-4.014-2.2-6.73-3.012-8.737-.502-2.008 2.54 1.464 6.773-.126 6.942-1.59.169-2.855-2.123-4.941.544-2.092 2.623 1.587 3.385.504 4.782-1.087 1.355-1.588 7.787 3.261 10.622.126-.041.21-.083.336-.127-.376-2.538-.459-5.12 0-7.405 1.38-7.362 5.1-11.47 11.833-12.147 4.89-.502 8.905 2.031 11.247 6.22.75 1.356 1.176 2.837 1.462 4.36.388 2.082.612 4.19.672 6.307.431.01.851.142 1.21.38.293-.084.505-.167.545-.253.795-1.016 3.72-4.191 3.428-7.027-.257-2.834-3.058-3.512-2.673-6.094z"/><path fill="#1E120D" d="M55.07 82.953c-3.889 3.26-7.394 10.116-5.56 14.306a10.859 10.859 0 0 1 1.755 3.632s-.418-6.73 1.464-8.422c1.797-1.65 2.298-3.385 2.926-6.39 0 0 4.515-2.371 8.737 1.057 6.146 4.995 10.034 1.948 10.034 1.948s-.545 8.041 2.174 9.098c1.423-20.434-15.803-19.969-21.53-15.229z"/><path fill="#FCB788" d="M112.474 124.346c-6.022 1.693-13.129 6.347-16.72 18.113l54.941-5.93s-5.686-13.417-18.73-14.221"/><path fill="#fff" d="M133.754 93.407a2.523 2.523 0 0 0-.923-1.162 2.542 2.542 0 0 0-1.419-.446 40.1 40.1 0 0 0-.672-6.306c-.292-1.524-.71-3.012-1.463-4.36-2.341-4.183-6.354-6.73-11.247-6.221-6.73.67-10.494 4.825-11.831 12.147-.419 2.327-.377 4.867 0 7.406a2.527 2.527 0 0 0-1.84 1.355c-.879 1.735.585 3.766 2.508 3.68h.587c1.127 3.302 2.759 6.136 4.514 7.697l.461 20.528c.042 2.665 1.797 5.036 4.306 5.756 6.104 1.777 10.87-.086 13.671-1.863a5.054 5.054 0 0 0 2.258-5.248l-4.219-20.943s2.006-2.844 2.759-8.465l.504-.085c1.586-.336 2.673-1.946 2.046-3.47z"/><path fill="#1E120D" d="M94.83 143.178l.251-.846c3.762-12.358 11.371-16.886 17.099-18.537l.336 1.143c-5.311 1.524-12.334 5.672-16.056 16.845l53.227-5.756c-1.422-2.792-7.109-12.485-17.895-13.119l.084-1.184c13.253.803 19.19 14.431 19.232 14.556l.336.763-56.615 6.135zM109.337 103.776a23.378 23.378 0 0 1-1.88-4.274h-.587c-1.923.042-3.387-1.99-2.508-3.68a2.516 2.516 0 0 1 1.84-1.356c-.377-2.538-.461-5.12 0-7.405 1.379-7.362 5.101-11.47 11.831-12.147 4.893-.502 8.905 2.03 11.247 6.22.753 1.356 1.176 2.836 1.463 4.36.388 2.082.613 4.19.672 6.307a2.541 2.541 0 0 1 2.342 1.608c.627 1.566-.46 3.179-2.09 3.47l-.504.085a25.48 25.48 0 0 1-1.302 5.458c3.972-2.582 7.273-7.067 7.692-14.39.795-14.812-10.118-19.383-18.186-21.118-.042-1.862-.71-13.887-12.71-13.586-13.002.335-6.146 20.654-6.146 20.654-5.388 18.197.758 26.574 8.826 29.794z"/><path fill="#1E120D" d="M105.994 81.514s7.775 6.603 25.418 2.031c0 .042-7.733-19.63-25.418-2.03z"/><path fill="#FFC9C9" d="M127.775 94.55c.168 1.184-.84 2.327-2.257 2.582-1.416.254-2.718-.502-2.884-1.694-.167-1.19.84-2.327 2.256-2.581 1.416-.255 2.719.505 2.885 1.693zM114.404 96.54c0 1.185-1.176 2.117-2.592 2.032-1.462-.042-2.633-1.057-2.633-2.244 0-1.186 1.176-2.114 2.593-2.03 1.413.04 2.632 1.057 2.632 2.243z"/><path fill="#222A46" d="M113.685 92.73c.042.55-.208 1.059-.626 1.1-.419.042-.795-.381-.84-.931-.046-.551.21-1.058.628-1.1.418-.042.796.38.838.93zM124.347 91.587c.042.55-.21 1.059-.626 1.1-.417.042-.795-.381-.84-.931-.046-.551.208-1.058.626-1.1.38-.043.756.338.84.93z"/><path fill="#FF3E3E" d="M116.278 98.189c.44.378.933.692 1.463.932.5.217 1.05.29 1.59.21.542-.083 1.008-.334 1.512-.669l.71-.55c.209-.213.459-.382.672-.593a7.828 7.828 0 0 1-.46.804c-.196.25-.405.49-.627.72a3.506 3.506 0 0 1-1.715.887 2.64 2.64 0 0 1-1.89-.378 3.012 3.012 0 0 1-1.255-1.363z"/><path fill="#EB7D7A" d="M118.243 95.311c.176-.317.404-.603.672-.847.251-.252.505-.465.753-.669l.084.67c-.544-.297-.84-.804-1.087-1.269a5.212 5.212 0 0 1-.294-.72 2.461 2.461 0 0 1-.124-.762c.282.413.589.808.919 1.184.254.35.583.64.963.847l.504.254-.461.424a6.189 6.189 0 0 1-.84.635 3.95 3.95 0 0 1-.921.502c-.084.042-.168 0-.168-.085-.042-.078-.042-.12 0-.164z"/><path fill="#1E120D" d="M121.629 134.799a17.312 17.312 0 0 1-5.059-.761c-2.717-.805-4.682-3.386-4.766-6.306l-.459-20.274c-1.632-1.566-3.219-4.183-4.348-7.361h-.168a3.322 3.322 0 0 1-2.927-1.567 2.98 2.98 0 0 1-.124-3.011 3.201 3.201 0 0 1 1.713-1.525c-.336-2.54-.336-4.994.084-7.109 1.464-7.788 5.478-11.936 12.376-12.655 4.849-.502 9.281 1.947 11.832 6.525.71 1.27 1.211 2.75 1.547 4.527.368 1.957.593 3.938.672 5.927a3.18 3.18 0 0 1 2.295 1.902 3.099 3.099 0 0 1-.124 2.582 3.328 3.328 0 0 1-2.384 1.693h-.079c-.672 4.613-2.174 7.322-2.635 8.083l4.18 20.697a5.634 5.634 0 0 1-.34 3.328 5.66 5.66 0 0 1-2.168 2.555 16.448 16.448 0 0 1-9.118 2.75zm-13.755-35.89l.126.423c1.129 3.259 2.676 5.968 4.348 7.449l.208.167.504 20.822a5.567 5.567 0 0 0 1.106 3.224 5.605 5.605 0 0 0 2.782 1.982c5.854 1.693 10.417-.042 13.171-1.819a4.427 4.427 0 0 0 1.702-2.003 4.405 4.405 0 0 0 .262-2.612l-4.266-21.2.168-.211c0-.042 1.922-2.844 2.634-8.21l.041-.423.92-.168a2.253 2.253 0 0 0 1.548-1.099 1.857 1.857 0 0 0 .082-1.566 1.865 1.865 0 0 0-1.798-1.228h-.542v-.55a39.865 39.865 0 0 0-.673-6.221c-.336-1.694-.752-3.047-1.421-4.183-2.342-4.233-6.23-6.35-10.662-5.927-6.272.636-9.992 4.488-11.331 11.682-.376 2.117-.376 4.613 0 7.237l.084.594-.542.125a1.962 1.962 0 0 0-1.422 1.06 1.803 1.803 0 0 0 .083 1.777 2.16 2.16 0 0 0 1.881 1.016l1.007-.138z"/><path fill="#1E120D" d="M111.803 106.612c4.767 3.179 9.745 4.656 16.266-1.312-1.381 1.904-7.317 9.607-16.014 7.238l-.252-5.926z"/><path fill="#1E120D" d="M115.317 113.299a13.988 13.988 0 0 1-3.303-.423l-.21-.042-.336-6.773.504.335c4.348 2.877 9.281 4.74 15.887-1.27.042-.042.168-.168.292-.127l.168.041.042.168a.418.418 0 0 1-.084.334c-4.598 6.233-9.407 7.757-12.96 7.757zm-2.969-.974c6.02 1.525 10.702-1.82 13.671-4.994-5.601 3.893-9.992 2.371-13.921-.167l.25 5.161zM131.412 95.397c.126-.466.294-.847.336-1.229a.738.738 0 0 0-.082-.501c-.084-.168-.252-.255-.46-.424a.694.694 0 0 1 .672.211.875.875 0 0 1 .208.763 1.85 1.85 0 0 1-.25.67.987.987 0 0 1-.424.51zM107.205 98.02a1.732 1.732 0 0 1-.585-.38 1.799 1.799 0 0 1-.376-.594.916.916 0 0 1 .084-.803.726.726 0 0 1 .627-.335 1.187 1.187 0 0 0-.336.502.709.709 0 0 0 .042.502c.126.346.336.684.544 1.108z"/><path fill="#190242" d="M105.241 2.581c5.56-.381 11.163-.127 16.722.086 2.426.083 3.303 1.184 3.429 4.148.419 12.695 1.045 25.393 1.63 38.132.084 1.65.042 2.836-1.756 2.751-12.792-.502-25.502-1.48-37.586-7.787a26.828 26.828 0 0 1-4.18-2.794c-10.327-8.21-10.117-21.918.419-28.778 4.598-2.963 9.652-4.156 14.8-5.038 2.174-.338 4.348-.457 6.522-.72z"/><path fill="#FCB788" d="M65.355 73.77l-12.794 1.903c-.543.085-.672-.083-.753-.592-.25-1.82-.542-3.681-.84-5.587 1.512.762 2.759 1.694 4.054 2.582.419.296.629.254.963-.127 1.008-1.227 2.09-2.37 3.093-3.556.336-.38.504-.38.879-.041.919.804 1.882 1.566 2.8 2.412.505.465.711.335 1.088-.167 1.008-1.482 2.09-2.963 3.135-4.402.126-.167.168-.423.586-.502.209 2.075.418 4.106.627 6.137.168 1.524.168 1.524-1.296 1.779-.504.041-1.046.083-1.547.167l.005-.007z"/><path fill="#FE6206" d="M49.468 160.023a13.13 13.13 0 0 1-4.827 1.807 13.137 13.137 0 0 1-9.834-2.339 13.08 13.08 0 0 1-3.485-3.784c-3.805-6.265-2.048-13.672 4.223-17.48 5.56-3.386 13.797-.805 17.809 5.545 3.43 5.416 1.633 12.823-3.886 16.251z"/><path fill="#FBD061" d="M156.911 146.819c-4.558 2.878-9.365 2.327-12.96-1.397-3.555-3.681-4.056-8.423-1.344-12.823 1.381-2.16 2.969-4.148 5.393-5.163 3.679-1.61 7.233-1.143 10.37 1.395 3.303 2.667 4.18 6.358 3.511 10.412-.532 3.31-2.206 5.925-4.97 7.576zM103.359 0c5.101 8.802 9.533 17.776 6.104 28.357-2.132 6.56-6.941 10.495-13.63 11.596-9.912 1.608-18.312-2.582-26.377-7.661 3.804-.889 7.608-1.396 11.371-2.073 9.7-1.693 15.595-7.49 18.856-16.591C101.27 9.184 102.272 4.613 103.36 0z"/><path fill="#FCB788" d="M120.249 67.845l-12.792 1.904c-.544.083-.672-.086-.753-.593-.252-1.82-.544-3.68-.84-5.586 1.512.761 2.759 1.693 4.056 2.581.418.297.627.255.961-.127 1.008-1.228 2.09-2.37 3.093-3.555.336-.382.504-.382.879-.042.921.803 1.882 1.566 2.801 2.413.504.465.71.334 1.087-.168 1.008-1.48 2.091-2.961 3.136-4.4.125-.167.168-.423.585-.502.209 2.075.419 4.106.627 6.137.168 1.524.168 1.524-1.296 1.777-.504.044-1.008.085-1.547.167l.003-.006z"/><path fill="#0378EC" d="M138.897 147.876c-16.682 8.338-31.65 11.378-47.453 10.116-.963-.085-1.966 0-2.843-.296-1.008-.335-2.885-.043-2.76-1.566.126-1.566 1.924-.974 2.969-.974 15.134-.254 29.141-4.317 41.557-13.163 12.084-8.633 20.654-20.02 24.96-34.535 1.045-3.555 1.798-3.935 5.351-2.963.21.043.419.127.629.167 6.688 1.692 8.11.502 5.393 9.818-4.725 16.382-16.005 26.879-27.803 33.396z"/></svg>