<svg width="168" height="162" viewBox="0 0 168 162" fill="none" xmlns="http://www.w3.org/2000/svg">
<path d="M56.9247 138.426C52.277 138.641 50.4718 135.91 49.7944 132.154C43.0241 94.3876 36.3442 56.6212 29.4903 18.9033C28.5417 13.6554 30.8894 12.418 35.7641 12.1179C64.9645 10.2401 94.15 8.25043 123.321 6.14889C130.226 5.63749 131.354 9.99006 132.347 14.8605C137.352 40.251 142.376 65.642 147.421 91.0336C149.361 100.805 151.346 110.62 153.333 120.395C154.552 126.498 153.605 130.124 145.345 130.72C115.827 132.922 86.3998 135.824 56.9247 138.426Z" fill="#FEE5BF"/>
<path d="M73.4923 140.944C112.08 118.243 110.772 52.0539 71.4158 46.5511C30.6166 40.8321 3.34937 84.1029 10.3074 120.035C14.4586 141.541 40.4547 160.403 73.4923 140.944Z" fill="#0378EC"/>
<path d="M104.859 107.147C99.1725 69.7659 81.165 67.1201 81.165 67.1201L88.8431 109.323L104.859 107.147Z" fill="white"/>
<path d="M66.3618 64.218H66.2714L64.5652 53.1655L92.3664 49.3679C92.3664 49.3679 89.8839 35.8827 80.7641 29.4394C66.4966 19.3243 66.7219 18.3434 63.8793 13.3552C55.3499 -1.67065 41.2684 0.287842 41.2684 0.287842C41.2684 0.287842 26.9156 2.25601 23.1687 18.9419C21.9061 24.4883 22.4862 25.3853 11.7967 38.8705C4.98037 47.4901 6.60641 61.0592 6.60641 61.0592L34.9485 57.2197L36.6206 68.2721L24.7504 74.8009C24.7504 74.8009 8.27509 82.1413 13.9619 119.522L29.9851 117.346L88.5223 109.367L81.1651 67.1202L66.3618 64.2163V64.218Z" fill="white"/>
<path d="M29.6696 117.559L24.3359 74.459L36.9279 67.5461L36.974 68.0592C36.974 68.1866 38.4635 81.0314 45.819 86.4503C48.4824 88.4136 51.6424 89.1815 55.1623 88.6701C58.6823 88.2007 61.4361 86.6213 63.3761 84.0611C68.6569 76.9337 65.9934 64.2599 65.9491 64.1325L65.8586 63.6211L81.5201 66.6508L81.5645 66.8637L89.0121 109.454L88.6504 109.496L29.6696 117.559ZM25.1106 74.8429L30.3077 116.834L88.1147 108.939L80.8495 67.2477L66.722 64.5165C67.1273 66.8022 67.339 69.1149 67.355 71.4325C67.355 75.2736 66.8124 80.6071 63.9238 84.4902C61.8934 87.2214 58.9604 88.8863 55.2596 89.3977C51.5059 89.9107 48.218 89.0993 45.3754 87.0085C41.4033 84.1046 39.146 79.1148 37.9738 75.4447C37.2466 73.2288 36.718 70.959 36.3938 68.6593L25.1106 74.8429Z" fill="#1E120D"/>
<path d="M13.6462 119.736L13.6018 119.394C11.9758 108.684 11.2131 93.6628 16.8966 82.8233C20.3261 76.2944 24.433 74.4166 24.6138 74.3311L25.0643 74.1182L30.3911 117.431L13.6462 119.736ZM24.433 75.1845C23.3051 75.8669 20.1452 78.0884 17.4835 83.2072C14.4123 89.0537 11.3906 100.021 14.2417 118.967L29.5875 116.869L24.433 75.1845Z" fill="#1E120D"/>
<path d="M88.5223 109.537L80.7129 66.5649L81.2094 66.6504C81.3903 66.6924 85.9032 67.3748 91.1396 72.7518C99.8039 81.6247 103.595 96.265 105.221 106.975L105.265 107.317L88.5223 109.537ZM81.5711 67.4184L89.1075 108.811L104.453 106.714C102.822 96.1795 99.0821 81.9264 90.6431 73.2648C86.5362 69.0397 82.8798 67.7588 81.5711 67.4184Z" fill="#1E120D"/>
<path d="M50.2499 114.183C50.1506 114.186 50.0524 114.163 49.9652 114.118C49.878 114.073 49.805 114.007 49.7534 113.927L33.6859 91.6138C33.436 91.262 33.2987 90.8494 33.2906 90.4257C33.2824 90.0019 33.4036 89.5849 33.6398 89.2246L37.431 83.5056L32.6024 83.1217C32.2355 83.1066 31.8793 83 31.5701 82.8127C31.2608 82.6254 31.0095 82.3641 30.8416 82.0553C30.6543 81.7622 30.5443 81.4309 30.5209 81.0892C30.4974 80.7475 30.5612 80.4055 30.7068 80.092L36.3032 68.0151L36.9345 68.2716L31.3313 80.3485C31.2228 80.5646 31.1742 80.8032 31.19 81.0419C31.2058 81.2807 31.2855 81.5117 31.4217 81.7133C31.5493 81.917 31.7263 82.0891 31.9381 82.2153C32.15 82.3415 32.3905 82.4183 32.6399 82.4393L38.6424 82.9087L34.2318 89.565C34.0727 89.8105 33.9924 90.0943 34.0006 90.3821C34.0088 90.6699 34.1051 90.9493 34.2779 91.1863L50.1646 113.288L50.5707 88.9649H51.2941L50.888 113.588C50.8851 113.714 50.8396 113.835 50.7582 113.935C50.6768 114.035 50.5639 114.107 50.4359 114.141C50.3816 114.177 50.3153 114.192 50.2499 114.183Z" fill="#1E120D"/>
<path d="M66.8583 111.925C66.725 111.923 66.596 111.88 66.4903 111.803C66.3846 111.726 66.3079 111.619 66.2714 111.498L58.5081 88.028L59.1905 87.8151L66.8208 111.073L75.4867 85.6404C75.5746 85.3635 75.5788 85.0688 75.4989 84.7897C75.419 84.5106 75.2582 84.2582 75.0346 84.061L68.8529 78.8115L74.4493 76.7643C74.6837 76.6796 74.8925 76.542 75.0576 76.3634C75.2226 76.1849 75.3389 75.9708 75.3963 75.7399C75.4605 75.5116 75.4653 75.2721 75.4103 75.0418C75.3554 74.8114 75.2422 74.597 75.0806 74.417L66.0991 64.3035L66.6399 63.876L75.6215 73.9895C75.8524 74.2559 76.0131 74.5702 76.0905 74.9068C76.168 75.2433 76.1599 75.5924 76.067 75.9254C75.9741 76.2584 75.7989 76.5658 75.556 76.8224C75.3131 77.079 75.0092 77.2775 74.6694 77.4015L70.1565 79.0664L75.4816 83.5464C75.8186 83.8274 76.0623 84.1946 76.1834 84.6036C76.3045 85.0127 76.2978 85.4462 76.1641 85.8518L67.3992 111.543C67.368 111.655 67.2976 111.754 67.1993 111.823C67.1011 111.893 66.9809 111.929 66.8583 111.925Z" fill="#1E120D"/>
<path d="M60.0346 92.2693L50.7866 93.5278L50.8894 94.2033L60.1374 92.9448L60.0346 92.2693Z" fill="#1E120D"/>
<path d="M61.3343 96.2574L50.5242 97.7285L50.627 98.404L61.4371 96.9329L61.3343 96.2574Z" fill="#1E120D"/>
<path d="M62.1473 100.301L51.1125 101.802L51.2154 102.478L62.2501 100.976L62.1473 100.301Z" fill="#1E120D"/>
<path d="M63.5833 104.27L50.7617 106.015L50.8645 106.69L63.6861 104.945L63.5833 104.27Z" fill="#1E120D"/>
<path d="M65.0619 108.208L50.4536 110.196L50.5564 110.872L65.1648 108.884L65.0619 108.208Z" fill="#1E120D"/>
<path d="M32.0137 37.7152C31.5277 37.7859 31.0318 37.7646 30.5546 37.6526C30.0774 37.5406 29.6284 37.3402 29.2338 37.0629C28.8392 36.7856 28.5067 36.437 28.2556 36.0373C28.0045 35.6376 27.8399 35.1947 27.7712 34.7344C27.7026 34.2741 27.7312 33.8054 27.8556 33.3557C27.98 32.9059 28.1975 32.484 28.4957 32.1143C28.7938 31.7446 29.1666 31.4346 29.5924 31.2022C30.0183 30.9698 30.4887 30.8197 30.9763 30.7605L29.9372 24.0171C29.6552 22.1817 29.7584 20.3117 30.241 18.5141C30.7236 16.7164 31.576 15.0263 32.7497 13.5403C33.9233 12.0542 35.3952 10.8014 37.0811 9.85341C38.767 8.90538 40.6339 8.28074 42.5752 8.01517C44.5169 7.74833 46.4951 7.84593 48.3969 8.30241C50.2986 8.75888 52.0866 9.56528 53.6585 10.6755C55.2304 11.7857 56.5555 13.178 57.558 14.7727C58.5605 16.3674 59.2207 18.1333 59.501 19.9694L60.5401 26.7128C61.0261 26.6422 61.522 26.6635 61.9992 26.7754C62.4764 26.8874 62.9254 27.0878 63.32 27.3651C63.7147 27.6424 64.0471 27.991 64.2982 28.3907C64.5493 28.7904 64.7139 29.2333 64.7826 29.6936C64.8512 30.1539 64.8226 30.6226 64.6982 31.0724C64.5739 31.5221 64.3563 31.9441 64.0582 32.3137C63.76 32.6834 63.3872 32.9934 62.9614 33.2258C62.5355 33.4582 62.0652 33.6084 61.5775 33.6676L64.5105 52.9992L92.3578 49.2016C92.3578 49.2016 89.8752 35.7164 80.7555 29.273C66.4965 19.1628 66.7218 18.1722 63.8792 13.1808C55.3037 -1.84021 41.2273 0.0795612 41.2273 0.0795612C41.2273 0.0795612 26.8711 2.0429 23.1243 18.7272C21.86 24.2752 22.4418 25.1802 11.7506 38.6557C4.93591 47.3189 6.6063 60.8896 6.6063 60.8896L34.9945 57.0065L32.0137 37.7152Z" fill="#1E120D"/>
<path d="M36.3937 69.2528L31.6998 38.1008C30.7439 38.1504 29.8004 37.8784 29.0364 37.3329C28.1731 36.71 27.6052 35.7897 27.4564 34.7726C27.307 33.8155 27.5448 32.8403 28.1223 32.0416C28.6997 31.2429 29.5745 30.6794 30.572 30.4636L29.579 24.0622C28.9925 20.2596 30.0277 16.3924 32.4568 13.3115C34.886 10.2305 38.51 8.18814 42.5318 7.63363C46.5536 7.07912 50.6436 8.05791 53.9021 10.3547C57.1606 12.6514 59.3207 16.078 59.9072 19.8807L60.9002 26.2805C61.8559 26.2323 62.7989 26.5042 63.5636 27.0484C64.4267 27.6721 64.9945 28.5928 65.1436 29.6102C65.293 30.5674 65.0553 31.5426 64.4778 32.3413C63.9003 33.14 63.0255 33.7035 62.028 33.9192L66.6775 63.9613L65.9097 64.0468L61.1715 33.3223L61.5315 33.2788C62.4079 33.1529 63.1969 32.7068 63.7289 32.0364C64.2609 31.366 64.4931 30.5248 64.3758 29.6941C64.3161 29.2798 64.1696 28.881 63.9449 28.5208C63.7202 28.1607 63.4217 27.8466 63.0671 27.5969C62.7174 27.344 62.3171 27.1607 61.8904 27.0581C61.4638 26.9555 61.0195 26.9358 60.5845 27L60.2228 27.0419L59.1428 19.9694C58.734 17.2762 57.4894 14.7582 55.5664 12.7342C53.6434 10.7101 51.1286 9.27099 48.3402 8.59892C45.5518 7.92685 42.6152 8.05207 39.9021 8.95872C37.189 9.86538 34.8214 11.5127 33.0989 13.6922C30.796 16.6162 29.8063 20.2813 30.3451 23.8912L31.4285 30.975L31.0685 31.017C30.1924 31.1432 29.4035 31.5894 28.8717 32.2598C28.3398 32.9301 28.1073 33.771 28.2242 34.6016C28.2841 35.0159 28.4307 35.4147 28.6554 35.7748C28.8801 36.1348 29.1784 36.449 29.5329 36.6989C29.8826 36.9518 30.2829 37.135 30.7096 37.2376C31.1363 37.3402 31.5805 37.36 32.0155 37.2958L32.3772 37.2522L37.2058 69.0866L36.3937 69.2528Z" fill="#1E120D"/>
<path d="M32.512 11.5581C32.512 11.5581 34.0015 19.2404 48.5795 17.277C57.9211 15.9961 60.088 27.2631 60.088 27.2631C60.088 27.2631 62.7514 -3.33392 32.512 11.5581Z" fill="#1E120D"/>
<path d="M32.5119 11.5581C32.5119 11.5581 38.1084 14.4184 32.6024 21.3312C29.7581 24.9159 31.6998 31.2318 31.6998 31.2318C31.6998 31.2318 25.7007 18.0886 32.5119 11.5581Z" fill="#1E120D"/>
<path d="M31.113 35.5842C30.8075 35.5835 30.5096 35.494 30.2599 35.3277C30.1055 35.2254 29.977 35.092 29.8835 34.9372C29.79 34.7825 29.7338 34.61 29.719 34.4324C29.6735 34.0841 29.7705 33.7326 29.9903 33.4499C30.0985 33.3039 30.2396 33.1824 30.4033 33.094C30.567 33.0056 30.7493 32.9525 30.9372 32.9385L30.9833 33.2789C30.8473 33.2938 30.7163 33.3357 30.5986 33.4018C30.481 33.468 30.3795 33.557 30.3008 33.6628C30.2172 33.7644 30.1578 33.8819 30.1266 34.0072C30.0954 34.1324 30.0931 34.2626 30.1199 34.3888C30.1357 34.5173 30.18 34.6413 30.25 34.7525C30.32 34.8637 30.4141 34.9597 30.526 35.0341C30.6334 35.1132 30.7576 35.1694 30.8902 35.1989C31.0227 35.2285 31.1604 35.2306 31.2938 35.2051L31.3382 35.5455C31.2478 35.5407 31.2034 35.5842 31.113 35.5842Z" fill="#1E120D"/>
<path d="M61.5316 31.4444L61.4872 31.1024C61.7684 31.0628 62.0215 30.9192 62.1908 30.7032C62.3601 30.4872 62.4317 30.2164 62.3898 29.9505C62.3479 29.6846 62.1961 29.4453 61.9676 29.2853C61.7391 29.1252 61.4528 29.0575 61.1716 29.0971L61.1255 28.7567C61.3068 28.7265 61.4927 28.7316 61.6719 28.7716C61.8511 28.8116 62.0198 28.8858 62.1676 28.9895C62.3155 29.0932 62.4394 29.2244 62.5319 29.3749C62.6244 29.5254 62.6834 29.6922 62.7055 29.865C62.7417 30.0419 62.7398 30.2239 62.6999 30.4001C62.6601 30.5763 62.583 30.7431 62.4735 30.8906C62.3639 31.038 62.224 31.163 62.0622 31.2582C61.9003 31.3533 61.7199 31.4167 61.5316 31.4444Z" fill="#1E120D"/>
<path d="M47.4056 36.0957L46.9091 35.5843L49.0299 33.8339L46.4126 30.2073L47.0439 29.7798L50.023 33.963L47.4056 36.0957Z" fill="#1E120D"/>
<path d="M46.9995 42.6681C45.4639 42.6681 44.7421 41.7712 44.563 41.2162L45.2847 41.0033L44.923 41.1323L45.2847 41.0033C45.2847 41.0468 45.7352 42.1551 47.5028 41.9422C49.2636 41.6857 49.3524 40.5338 49.3524 40.4902H50.1202C50.1202 41.1355 49.5793 42.3681 47.6376 42.623C47.4271 42.6586 47.2133 42.6738 46.9995 42.6681Z" fill="#1E120D"/>
<path d="M38.7858 30.1637C38.8763 30.6767 38.605 31.1462 38.1528 31.1881C37.7467 31.2317 37.3407 30.8897 37.2502 30.3815C37.1598 29.8733 37.4311 29.399 37.8832 29.3571C38.3354 29.3151 38.7398 29.6491 38.7858 30.1637Z" fill="#1E120D"/>
<path d="M54.9504 28.8747C55.3702 28.8175 55.647 28.3551 55.5688 27.8419C55.4905 27.3286 55.0869 26.9589 54.6672 27.0161C54.2475 27.0733 53.9706 27.5357 54.0489 28.0489C54.1271 28.5622 54.5307 28.9319 54.9504 28.8747Z" fill="#1E120D"/>
<path d="M39.9596 34.858C40.0944 35.7114 39.3266 36.5229 38.2892 36.6503C37.2519 36.7777 36.2571 36.2244 36.1223 35.371C35.9875 34.5176 36.7536 33.7061 37.7927 33.5787C38.8762 33.4496 39.8231 34.0046 39.9596 34.858Z" fill="#574A45"/>
<path d="M57.4707 32.469C57.6055 33.3224 56.8377 34.1323 55.8003 34.2614C54.7629 34.3904 53.7699 33.8338 53.6334 32.9804C53.4969 32.127 54.2664 31.3172 55.3038 31.1881C56.3872 31.0607 57.3342 31.6156 57.4707 32.469Z" fill="#574A45"/>
<path d="M168 63.2355C166.963 64.6438 166.33 66.3507 164.758 67.4606C161.687 69.5949 157.763 69.8934 154.243 68.0591C150.723 66.2248 148.783 62.4676 148.872 59.0539C149.008 51.5861 158.215 48.2999 163.676 52.0556C165.663 53.422 166.565 55.4692 167.647 57.4326C167.775 59.3104 167.865 61.2689 168 63.2355Z" fill="#DD7197"/>
<path d="M115.33 68.7545C115.15 65.8103 115.015 62.9081 114.788 59.9639C114.699 58.8975 114.969 58.1715 115.917 57.4891C120.384 54.4159 124.762 51.3007 129.141 48.1016C130.134 47.3756 130.676 47.4176 131.488 48.3145C134.872 51.9847 138.347 55.6113 141.867 59.2379C142.5 59.8832 142.55 60.3478 142.185 61.1157C138.89 67.6446 135.686 74.217 132.435 80.7458C132.029 81.5992 131.582 81.8122 130.54 81.6847C126.208 81.0023 121.829 80.4474 117.451 79.8505C116.323 79.7214 115.827 79.2519 115.781 78.1001C115.737 74.9817 115.511 71.8697 115.33 68.7545Z" fill="#390142"/>
<path d="M117.723 147.771C107.704 148.284 100.797 143.632 98.4952 134.841C96.0143 125.368 100.031 117.902 109.778 113.719C119.076 109.75 127.922 111.371 133.473 118.028C140.334 126.265 137.67 139.024 127.832 144.871C124.266 147.003 122.461 147.558 117.723 147.771Z" fill="#C6859C"/>
<path d="M142.139 72.539C146.336 73.1843 150.579 73.7344 154.777 74.5023C156.13 74.7572 155.046 75.6542 154.686 76.0801C151.345 80.7746 147.96 85.4692 144.577 90.1154C140.379 95.9231 136.136 101.723 131.985 107.526C131.302 108.508 130.63 108.763 129.456 108.465C126.385 107.697 123.314 107.056 120.205 106.417C119.076 106.161 118.896 105.862 119.523 104.88C126.609 94.3825 133.604 83.885 140.644 73.3875C141.011 72.9229 141.371 72.4535 142.139 72.539Z" fill="#96286B"/>
<path d="M117.542 32.3915C114.382 34.3113 111.674 36.1891 108.785 37.7685C106.89 38.7929 106.305 39.6883 107.477 41.6935C109.147 44.4683 110.321 47.4545 111.811 50.3567C112.351 51.3811 112.126 51.8087 111.087 52.2765C108.335 53.4719 105.672 54.7948 102.919 56.0322C101.746 56.5452 101.611 57.0566 102.286 58.081C104.859 62.0496 107.342 66.1037 110.135 70.5837C105.216 69.1318 100.751 67.8525 96.3248 66.5296C94.9701 66.1037 93.0745 66.1892 92.3527 65.1212C91.631 64.0129 93.0352 62.6901 93.2997 61.4108C94.6988 55.1384 96.7309 48.9887 98.49 42.8051C99.71 38.538 100.973 34.2709 102.191 30.0039C102.372 29.3199 102.462 28.5519 103.59 28.8504C108.154 29.9506 112.667 31.1009 117.542 32.3915Z" fill="#FB6E41"/>
<path d="M137.31 111.67C141.234 107.19 144.893 102.959 148.593 98.7836C150.849 96.2233 153.151 93.705 155.364 91.1448C156.217 90.1639 156.717 89.9929 157.258 91.3578C159.786 97.8866 162.404 104.415 164.977 110.944C165.383 111.969 165.383 112.524 163.983 112.482C155.498 112.267 147.058 112.098 138.573 111.883C138.257 111.841 138.032 111.799 137.31 111.67Z" fill="#FBD061"/>
<path d="M96.2838 151.698C96.3299 152.295 96.3742 152.85 96.3742 153.447C96.5107 156.606 96.9612 157.032 100.391 156.648C102.779 156.349 105.168 155.924 107.477 155.411C108.606 155.154 109.103 155.283 109.372 156.393C110.59 161 111.358 159.942 106.393 161.129C104.187 161.625 101.935 161.911 99.6689 161.983C93.576 162.238 90.7334 159.678 90.7334 153.875C90.7334 152.381 90.6874 150.887 90.5526 149.393C90.4178 148.07 89.5596 147.473 88.1161 147.686C86.3996 147.986 84.7309 148.241 83.0145 148.493C78.3667 149.219 75.1658 147.17 74.2598 142.817C73.7633 140.514 73.8077 138.166 73.9885 135.819C74.079 134.709 74.6198 134.453 75.7494 134.582C79.5406 135.008 79.5406 134.966 79.4945 138.55V138.934C79.5406 143.29 80.0815 143.671 84.5501 142.817C85.8256 142.539 87.1245 142.368 88.4317 142.304C92.8543 142.177 95.6064 144.439 96.1098 148.578C96.2463 149.603 96.2463 150.676 96.2906 151.694L96.2838 151.698Z" fill="#96286B"/>
<path fill-rule="evenodd" clip-rule="evenodd" d="M131.443 27.3904C131.804 27.1775 131.895 27.2194 131.895 26.8354L131.577 26.6225L131.316 26.4095C130.91 25.811 130.864 25.6416 130.142 25.6416C128.878 25.9401 127.569 26.1111 126.351 26.4483L122.273 27.6034C120.378 28.1164 116.001 28.7988 114.425 29.6102C113.793 29.4392 114.063 29.7377 113.476 29.6522C113.432 29.1827 113.386 29.3102 113.972 29.0972C116.23 28.3713 119.118 27.8179 121.42 27.3049C122.638 27.0484 124.082 26.6225 125.302 26.2385C126.339 25.8965 128.46 25.5932 129.137 25.2996C129.634 25.3851 129.68 25.3416 130.13 25.1286L129.318 23.1653L128.866 23.1233C128.281 22.9959 125.889 23.2943 125.121 23.3363C123.993 23.3798 122.548 23.4218 121.42 23.4218C119.344 23.4218 115.824 23.8493 113.703 24.1897L113.522 23.7638L114.109 23.6783C115.012 23.3798 120.337 22.9959 121.511 22.9959C122.954 22.9959 127.694 22.9959 128.822 22.6539L129.272 22.6958C129.409 22.3119 129.318 22.0989 129.409 21.715C129.499 21.2036 129.724 20.9471 129.047 20.7761C128.776 20.5195 123.091 17.8722 122.277 17.5334C121.149 17.0639 119.931 16.4235 118.803 15.996C117.858 15.6136 116.233 14.9683 115.375 14.3747L115.278 14.0343L115.639 13.8197C116.407 14.4182 117.626 14.9732 118.528 15.3571C119.069 15.612 121.192 16.4654 121.599 16.7655L121.959 16.9784L122.365 17.1059L123.638 17.7109L124.27 18.0513C124.812 18.0513 128.376 19.8871 129.235 20.3098L129.641 20.4808L131.13 18.4755C130.859 18.1335 130.905 18.1755 130.543 17.9625C130.228 17.3172 128.963 16.2138 128.422 15.6588C128.151 15.3603 126.302 13.61 126.256 13.5245C125.85 13.055 125.402 12.3307 124.856 12.1161L123.954 11.2207C123.683 10.7932 123.457 10.4528 122.961 10.2818L122.87 10.1108C122.551 9.72363 122.273 9.64458 122.273 9.21223C122.956 9.08317 122.5 9.25417 123.176 9.63813L124.125 10.7045L124.621 11.132C124.944 11.516 126.298 13.0098 126.709 13.3551C127.563 14.1246 128.109 14.5505 128.83 15.4039C129.146 15.7879 129.598 16.3009 130.049 16.5138C130.274 16.9397 131.267 18.3481 131.9 17.7512L133.749 16.7268L133.884 16.6848C133.524 15.362 131.538 11.3498 130.726 9.72847C130.364 9.04606 130.183 9.13157 130.68 8.66211L134.336 16.5138L134.381 16.5993L134.698 16.5138C134.968 16.6848 135.961 16.5558 136.322 16.4283C136.638 16.5993 136.276 16.5993 136.863 16.4703C137.134 16.0863 136.863 13.3551 136.728 12.8017C136.954 11.8628 136.413 10.1979 137.269 9.60102L137.496 9.94142C137.315 10.3689 137.269 10.1979 137.225 10.6254C137.044 11.8628 137.179 13.8245 137.269 15.0635C137.315 15.8701 137.044 16.4703 137.952 16.5558C138.31 16.6903 138.703 16.7201 139.08 16.6413L139.441 16.8123C140.434 16.3009 140.209 11.2643 141.562 10.6254L141.743 10.9658C141.202 11.7337 141.337 11.3498 141.061 12.2887C140.791 13.2712 140.023 16.2154 140.114 16.8978L140.52 17.0252L141.603 17.6237C142.369 18.1352 142.775 17.2398 143.309 16.7268C143.806 16.2154 144.302 15.7024 144.845 15.191C145.527 14.5457 147.234 12.4597 148.005 12.3323C148.276 12.7162 147.689 13.0566 147.322 13.3551C146.958 13.6483 146.626 13.9759 146.331 14.3327C145.925 14.5892 144.301 16.167 144.21 16.4654C143.848 16.5945 142.721 17.7883 142.586 18.1739L143.036 18.4288L143.488 18.8563L144.342 19.7516C144.929 19.5806 145.787 19.2402 146.102 18.7272C146.785 18.6853 148.855 17.5754 149.622 17.1914C150.305 16.8929 152.511 15.4426 153.098 15.954L152.736 16.3815V16.0815L152.286 16.167L152.736 16.3815C151.383 16.8494 149.848 17.5754 148.539 18.1739C147.502 18.6417 145.741 19.6661 144.785 20.0081C144.785 20.5195 145.056 21.16 145.326 21.5875C146.862 21.715 149.839 20.8196 151.509 20.5631C152.549 20.3921 153.54 20.0936 154.581 20.0081C155.348 19.9226 156.969 19.7952 157.604 19.5387C158.101 19.8807 157.785 19.6661 157.92 20.0081L157.288 20.2646C156.657 20.2646 155.393 20.4776 154.625 20.5631C153.588 20.6486 152.82 20.9035 151.827 21.0745C150.158 21.331 147.766 21.7198 146.14 22.1425C145.734 22.0989 145.599 22.1425 145.193 22.3119C145.103 22.7813 145.058 22.9104 145.193 23.3363L145.509 23.4218L160.689 25.2932C161.095 25.6352 160.824 25.2932 161.049 25.8046L160.552 25.9336C159.38 25.3787 154.731 24.9947 153.197 24.8657C151.752 24.7043 150.94 24.6527 149.443 24.3962C148.677 24.2688 146.285 23.8848 145.698 24.0122L145.246 23.9267C144.976 24.2688 144.84 24.9512 144.84 25.3351L145.652 25.6771C145.923 26.0611 148.135 26.787 148.723 27.0419L149.129 27.2565C151.161 28.1099 153.146 28.9198 155.132 29.8167C155.765 30.0732 160.865 32.4189 161.044 32.4189L161.271 32.8884L160.865 32.9739C158.969 31.9075 156.577 31.0105 154.591 30.1152C152.649 29.2182 150.303 28.1954 148.182 27.3839L147.73 27.2129L144.978 26.1046L144.625 25.9385C144.219 26.1934 143.722 26.7451 143.722 27.2613L144.219 27.4743C144.444 27.9437 145.121 28.2809 145.527 28.7117L146.43 29.357C147.648 30.3378 152.929 33.8741 153.426 34.8614L154.374 35.4583L155.14 36.0568C155.412 36.4408 155.412 36.5682 155.823 36.6537C156.004 36.9102 158.577 38.8736 158.846 38.9574C159.118 39.2575 159.117 39.214 159.208 39.6028C158.756 39.7318 158.937 39.5172 158.355 39.3479C158.085 38.8348 150.051 32.5189 148.117 31.1541C147.169 30.4717 145.364 29.3182 144.642 28.5939C144.326 28.2519 144.145 27.9954 143.695 27.826H143.605C143.062 27.484 142.922 27.9534 142.475 28.2954C142.881 28.9407 143.468 29.9168 144.19 30.1717C144.145 30.6411 146.085 32.5625 146.578 33.032C146.759 33.3724 146.715 33.4579 147.075 33.5869L149.558 36.4021C149.829 36.8715 150.279 37.512 150.731 37.683L151.585 38.6638C151.854 39.0478 151.755 39.0478 152.125 39.2188C152.531 39.9867 154.652 42.0775 155.33 42.847L155.691 43.5294L155.285 43.6149C154.879 43.06 153.931 42.121 153.434 41.608C152.803 40.9256 152.125 40.0722 151.494 39.3898C150.907 38.7074 147.884 35.5486 147.74 35.0792L146.116 33.3304C144.807 31.751 143.227 30.2572 142.009 28.5939L141.061 28.8068L140.378 29.0198C140.784 30.3007 141.956 32.3479 142.634 33.5869C143.536 35.2002 144.169 36.786 144.935 38.4089C145.703 39.9867 149.314 46.4752 149.542 47.4545C149.182 47.6255 149.317 47.6255 149.046 47.4545L143.26 35.7116C143.035 35.2002 142.448 33.9628 142.448 34.2177L142.357 34.1322C142.187 33.4498 141.455 32.3399 141.095 31.701C140.598 30.8476 140.327 29.9087 139.83 29.0553C139.289 29.0117 138.522 28.8843 138.071 29.0553C137.844 29.3537 137.935 29.7796 137.981 30.0797L138.206 33.4498C138.16 34.9437 138.612 36.6085 138.566 37.9314L139.109 45.7396C139.199 46.2945 139.289 46.3381 139.018 46.8495C138.522 46.8914 138.837 46.935 138.522 46.764L138.341 45.0152L138.071 41.387C138.431 40.7901 138.025 39.4672 137.981 38.7413C137.935 37.8024 137.935 36.907 137.8 36.01L137.303 30.4637C137.213 29.8651 137.213 29.3957 136.988 28.7988C136.445 28.8407 135.814 28.5423 135.282 28.6278C134.428 29.0972 132.662 34.9437 132.256 36.0487C132.031 36.6457 131.625 37.2426 131.444 37.8411C131.257 38.4841 131.015 39.112 130.722 39.7189C130.407 40.4013 130.361 40.9982 130.136 41.6387L129.368 43.602L128.871 43.6875C129.554 43.644 129.143 43.644 129.233 43.431C128.827 43.5585 129.052 43.602 128.692 43.473L130.136 39.8464C130.632 38.6945 131.083 37.5426 131.579 36.2972C132.302 34.7194 133.521 30.0684 134.377 29.0375L134.514 28.3535L134.15 28.197C133.744 28.026 133.338 27.855 132.888 27.6421C132.164 27.3001 132.255 27.684 131.623 28.026C131.171 28.3664 130.405 28.9214 130.224 29.3489V29.3053C129.412 29.8184 128.329 30.7992 127.47 31.4397C125.305 33.061 122.417 34.8533 120.384 36.3891L119.212 37.2426C118.851 37.3716 118.985 37.3281 118.806 37.2861C119.031 36.5602 121.195 35.3228 121.964 34.8114C123.183 34.0435 124.183 33.2739 125.35 32.4641C126.477 31.6575 127.517 30.9283 128.6 30.0749C129.431 29.0764 130.385 28.1752 131.443 27.3904ZM143.942 20.0501H144.033C143.627 19.8888 143.582 19.7516 143.265 19.3677C143.094 18.9837 143.094 19.1112 142.768 19.0273C142.002 18.1723 140.332 17.4898 139.204 17.235C138.302 17.0204 135.684 16.7655 134.826 17.0639C133.336 16.68 128.327 19.5387 129.951 23.7202C130.177 24.3188 130.313 24.7882 130.854 25.0012C131.17 26.2805 133.698 27.2597 134.916 27.6469C135.712 27.8822 136.527 28.0533 137.353 28.1583C138.662 28.3713 139.701 28.1583 140.107 28.3293L140.557 28.1164L141.144 27.9018C142.543 27.5614 143.808 25.982 144.304 24.8366C144.575 24.2397 144.62 23.5137 144.62 22.7878C144.62 22.0618 144.754 20.8244 144.079 20.4841L143.942 20.0565V20.0501Z" fill="#390142"/>
<path d="M42.5771 108.684C53.4969 113.249 62.9767 121.996 64.8262 136.464C65.7749 143.885 63.2906 150.461 56.7029 154.941C51.3778 158.611 45.2848 160.103 39.1919 156.946C33.459 154.002 32.4677 148.412 32.2407 142.822C32.1964 141.37 32.4216 139.878 32.4216 138.426C32.4216 132.068 28.1339 129.295 21.7253 131.471C18.7923 132.452 15.948 133.73 12.9689 134.415C8.9081 135.311 4.80122 135.78 2.00301 131.726C-0.745723 127.715 -0.660412 122.935 2.22823 118.967C10.3072 108.085 26.4635 103.263 42.5771 108.684Z" fill="#81C784"/>
</svg>
