<svg width="168" height="162" xmlns="http://www.w3.org/2000/svg" fill="none" viewBox="0 0 168 162"><path fill="#0378EC" d="M30.956 32.973c-51.342 19.194-17.904 70.513 11.159 92.132 28.582 21.296 68.892 34.507 93.41 1.132C198.669 40.409 119.068.081 30.955 32.973z"/><path fill="#FEE5BF" fill-rule="evenodd" d="M38.557 121.102a.727.727 0 0 1 .718.374.734.734 0 0 1-.416 1.052.733.733 0 0 1-.777-.227.736.736 0 0 1 .205-1.113.702.702 0 0 1 .27-.086zM26.795 9.937a.723.723 0 0 1 .718.374.737.737 0 0 1-.417 1.052.722.722 0 0 1-.776-.226.735.735 0 0 1 .475-1.2zm6.182-.687a.724.724 0 0 1 .718.374.737.737 0 0 1-.417 1.052.723.723 0 0 1-.776-.226.735.735 0 0 1 .475-1.2zm6.182-.646a.723.723 0 0 1 .718.374.736.736 0 0 1-.417 1.052.722.722 0 0 1-.776-.226.734.734 0 0 1 .475-1.2zm6.178-.687a.723.723 0 0 1 .719.375.737.737 0 0 1-.418 1.052.723.723 0 0 1-.777-.228.735.735 0 0 1 .476-1.199zm6.182-.647a.723.723 0 0 1 .722.37.736.736 0 0 1-.413 1.054.723.723 0 0 1-.779-.225.735.735 0 0 1 .475-1.2h-.005zm6.182-.647a.723.723 0 0 1 .718.374.737.737 0 0 1-.417 1.052.723.723 0 0 1-.776-.226.735.735 0 0 1 .475-1.2zm6.182-.686a.724.724 0 0 1 .718.374.736.736 0 0 1-.417 1.052.723.723 0 0 1-.776-.227.734.734 0 0 1 .475-1.2zm6.185-.648a.724.724 0 0 1 .719.374.737.737 0 0 1-.418 1.052.723.723 0 0 1-.776-.227.735.735 0 0 1 .475-1.2zm6.187-.677a.723.723 0 0 1 .718.374.737.737 0 0 1-.416 1.052.723.723 0 0 1-.777-.226.735.735 0 0 1 .475-1.2zm6.182-.648a.723.723 0 0 1 .718.374.736.736 0 0 1-.417 1.052.723.723 0 0 1-.776-.226.734.734 0 0 1 .475-1.2zm6.182-.646a.723.723 0 0 1 .718.374.735.735 0 0 1-.417 1.052.723.723 0 0 1-.777-.226.735.735 0 0 1 .476-1.2zm6.182-.687a.723.723 0 0 1 .717.38.737.737 0 0 1-.428 1.05.723.723 0 0 1-.776-.238.735.735 0 0 1-.16-.395.733.733 0 0 1 .37-.723.72.72 0 0 1 .272-.085l.005.011zm6.182-.646a.722.722 0 0 1 .718.374.733.733 0 0 1-.417 1.052.725.725 0 0 1-.943-.617.74.74 0 0 1 .153-.539.73.73 0 0 1 .489-.27zm6.181-.686a.725.725 0 0 1 .719.374.74.74 0 0 1-.069.811.728.728 0 0 1-.771.246.73.73 0 0 1-.52-.623.74.74 0 0 1 .153-.539.73.73 0 0 1 .488-.27zm6.182-.647a.725.725 0 0 1 .719.375.74.74 0 0 1-.069.811.73.73 0 0 1-.772.245.73.73 0 0 1-.496-.908.735.735 0 0 1 .348-.437.72.72 0 0 1 .27-.086zm6.182-.647a.725.725 0 0 1 .718.374.732.732 0 0 1-.416 1.052.725.725 0 0 1-.777-.227.734.734 0 0 1 .475-1.2zm-91.97 17.327a.723.723 0 0 1 .718.374.737.737 0 0 1-.417 1.052.723.723 0 0 1-.776-.226.735.735 0 0 1 .475-1.2zm6.185-.646a.725.725 0 0 1 .718.374.737.737 0 0 1-.416 1.052.723.723 0 0 1-.777-.226.735.735 0 0 1 .475-1.2zm6.182-.687a.724.724 0 0 1 .719.374.737.737 0 0 1-.418 1.052.724.724 0 0 1-.777-.227.735.735 0 0 1 .476-1.199zm6.182-.648a.724.724 0 0 1 .718.374.736.736 0 0 1-.417 1.052.723.723 0 0 1-.776-.226.734.734 0 0 1 .475-1.2zm6.182-.686a.723.723 0 0 1 .718.374.737.737 0 0 1-.417 1.052.723.723 0 0 1-.777-.227.735.735 0 0 1 .476-1.2zm6.182-.646a.724.724 0 0 1 .718.373.737.737 0 0 1-.417 1.053.723.723 0 0 1-.777-.227.734.734 0 0 1 .476-1.2zm6.182-.647a.723.723 0 0 1 .718.374.735.735 0 0 1-.417 1.052.723.723 0 0 1-.777-.226.734.734 0 0 1 .475-1.2zm6.181-.686a.722.722 0 0 1 .719.374.737.737 0 0 1-.418 1.052.722.722 0 0 1-.777-.228.735.735 0 0 1 .476-1.198zm6.218-.648a.723.723 0 0 1 .718.374.736.736 0 0 1-.417 1.052.723.723 0 0 1-.777-.227.734.734 0 0 1-.166-.39.707.707 0 0 1 .365-.73.694.694 0 0 1 .277-.08zm6.181-.687a.723.723 0 0 1 .719.374.735.735 0 0 1-.417 1.052.723.723 0 0 1-.777-.226.736.736 0 0 1-.166-.391.707.707 0 0 1 .365-.73.695.695 0 0 1 .276-.079zm6.184-.65a.724.724 0 0 1 .718.374.737.737 0 0 1-.417 1.053.723.723 0 0 1-.776-.227.735.735 0 0 1-.167-.39.705.705 0 0 1 .366-.731.691.691 0 0 1 .276-.078zm6.182-.646a.723.723 0 0 1 .717.373.736.736 0 0 1-.413 1.052.723.723 0 0 1-.777-.22.735.735 0 0 1-.169-.39.707.707 0 0 1 .366-.73.695.695 0 0 1 .276-.078v-.007zm6.182-.686a.72.72 0 0 1 .718.374.736.736 0 0 1-.418 1.052.72.72 0 0 1-.776-.228.728.728 0 0 1-.166-.392.696.696 0 0 1 .366-.729.694.694 0 0 1 .276-.077zm6.182-.648a.722.722 0 0 1 .718.374.733.733 0 0 1-.417 1.052.725.725 0 0 1-.943-.618.702.702 0 0 1 .642-.808zm6.181-.687a.723.723 0 0 1 .719.374.736.736 0 0 1-.418 1.052.724.724 0 0 1-.942-.62.702.702 0 0 1 .641-.808v.002zm6.182-.646a.725.725 0 0 1 .719.374.74.74 0 0 1-.069.811.728.728 0 0 1-.771.246.73.73 0 0 1-.521-.623.72.72 0 0 1 .145-.546.69.69 0 0 1 .497-.262zm-91.96 17.34a.723.723 0 0 1 .718.373.737.737 0 0 1-.416 1.052.723.723 0 0 1-.777-.226.736.736 0 0 1 .475-1.2zm6.182-.647a.724.724 0 0 1 .719.374.737.737 0 0 1-.418 1.052.723.723 0 0 1-.777-.227.735.735 0 0 1 .476-1.199zm6.182-.648a.723.723 0 0 1 .718.374.735.735 0 0 1-.417 1.052.723.723 0 0 1-.776-.226.734.734 0 0 1 .475-1.2zm6.182-.686a.724.724 0 0 1 .718.374.737.737 0 0 1-.417 1.052.723.723 0 0 1-.777-.227.735.735 0 0 1 .476-1.2zm6.182-.646a.723.723 0 0 1 .718.373.737.737 0 0 1-.417 1.052.723.723 0 0 1-.777-.226.734.734 0 0 1 .476-1.2zm6.181-.687a.724.724 0 0 1 .719.374.736.736 0 0 1-.417 1.052.723.723 0 0 1-.777-.227.734.734 0 0 1-.013-.93.726.726 0 0 1 .489-.27zm6.182-.646a.724.724 0 0 1 .719.374.737.737 0 0 1-.418 1.052.723.723 0 0 1-.777-.228.736.736 0 0 1 .206-1.113.72.72 0 0 1 .27-.085zm6.182-.648a.724.724 0 0 1 .719.374.737.737 0 0 1-.417 1.052.723.723 0 0 1-.777-.227.734.734 0 0 1 .475-1.2zm6.182-.687a.723.723 0 0 1 .718.374.736.736 0 0 1-.416 1.052.723.723 0 0 1-.777-.227.734.734 0 0 1 .475-1.199zm6.182-.646a.723.723 0 0 1 .718.374.737.737 0 0 1-.417 1.052.723.723 0 0 1-.776-.227.735.735 0 0 1 .475-1.2zm6.182-.687a.723.723 0 0 1 .718.374.737.737 0 0 1-.417 1.052.723.723 0 0 1-.776-.226.735.735 0 0 1 .475-1.2zm6.182-.646a.723.723 0 0 1 .718.374.736.736 0 0 1-.418 1.052.724.724 0 0 1-.776-.228.735.735 0 0 1 .476-1.198zm6.182-.648a.723.723 0 0 1 .718.374.733.733 0 0 1-.417 1.052.725.725 0 0 1-.943-.617.72.72 0 0 1 .024-.285.717.717 0 0 1 .347-.438.727.727 0 0 1 .271-.086zm6.176-.692a.725.725 0 0 1 .719.374.74.74 0 0 1-.069.811.729.729 0 0 1-.771.247.73.73 0 0 1-.52-.623.74.74 0 0 1 .154-.538.715.715 0 0 1 .487-.27zm6.177-.64a.727.727 0 0 1 .806.79.732.732 0 0 1-.504.635.725.725 0 0 1-.944-.617.722.722 0 0 1 .024-.285.717.717 0 0 1 .347-.438.724.724 0 0 1 .271-.086zm6.182-.688a.725.725 0 0 1 .718.375.732.732 0 0 1-.417 1.052.72.72 0 0 1-.776-.227.734.734 0 0 1 .475-1.2zm-91.96 17.375a.723.723 0 0 1 .718.374.736.736 0 0 1-.417 1.052.723.723 0 0 1-.776-.226.735.735 0 0 1 .475-1.2zm6.182-.686a.723.723 0 0 1 .718.374.737.737 0 0 1-.417 1.052.724.724 0 0 1-.776-.227.735.735 0 0 1 .475-1.2zm6.217-.646a.723.723 0 0 1 .718.374.736.736 0 0 1-.417 1.052.723.723 0 0 1-.776-.227.735.735 0 0 1-.167-.39.707.707 0 0 1 .366-.731.694.694 0 0 1 .276-.078zm6.182-.647a.724.724 0 0 1 .72.37.737.737 0 0 1-.408 1.054.723.723 0 0 1-.778-.218.735.735 0 0 1-.17-.389.707.707 0 0 1 .365-.73.694.694 0 0 1 .276-.078l-.005-.009zm6.182-.686a.724.724 0 0 1 .718.374.736.736 0 0 1-.418 1.052.723.723 0 0 1-.776-.228.735.735 0 0 1-.166-.392.708.708 0 0 1 .366-.728.693.693 0 0 1 .276-.078zm6.182-.648a.724.724 0 0 1 .718.374.736.736 0 0 1-.417 1.052.723.723 0 0 1-.777-.227.734.734 0 0 1-.166-.39.707.707 0 0 1 .365-.73.691.691 0 0 1 .277-.08zm6.181-.687a.723.723 0 0 1 .719.374.737.737 0 0 1-.417 1.052.722.722 0 0 1-.777-.226.735.735 0 0 1-.166-.391.707.707 0 0 1 .365-.73.695.695 0 0 1 .276-.079zm6.182-.646a.724.724 0 0 1 .719.374.737.737 0 0 1-.417 1.052.723.723 0 0 1-.777-.227.735.735 0 0 1-.166-.39.705.705 0 0 1 .365-.73.691.691 0 0 1 .276-.079zm6.182-.646a.723.723 0 0 1 .718.374.736.736 0 0 1-.416 1.052.722.722 0 0 1-.777-.227.734.734 0 0 1-.167-.39.707.707 0 0 1 .366-.73.694.694 0 0 1 .276-.08zm6.182-.687a.723.723 0 0 1 .717.375.737.737 0 0 1-.418 1.051.723.723 0 0 1-.776-.227.734.734 0 0 1-.166-.39.707.707 0 0 1 .365-.73.692.692 0 0 1 .276-.079h.002zm6.182-.646a.724.724 0 0 1 .719.374.736.736 0 0 1-.418 1.052.722.722 0 0 1-.777-.228.735.735 0 0 1-.166-.391.704.704 0 0 1 .366-.73.694.694 0 0 1 .276-.077zm6.182-.689a.723.723 0 0 1 .718.374.736.736 0 0 1-.417 1.052.723.723 0 0 1-.776-.226.734.734 0 0 1-.167-.391.707.707 0 0 1 .366-.73.694.694 0 0 1 .276-.078zm6.182-.646a.722.722 0 0 1 .718.374.735.735 0 0 1-.417 1.052.722.722 0 0 1-.777-.226.74.74 0 0 1-.166-.391.702.702 0 0 1 .642-.809zm6.183-.644a.726.726 0 0 1 .806.79.731.731 0 0 1-.504.636.725.725 0 0 1-.944-.618.698.698 0 0 1 .642-.809zm6.182-.687a.725.725 0 0 1 .718.374.732.732 0 0 1-.417 1.052.722.722 0 0 1-.776-.226.734.734 0 0 1-.167-.391.702.702 0 0 1 .642-.809zm6.182-.646a.724.724 0 0 1 .719.374.735.735 0 0 1-.418 1.052.724.724 0 0 1-.777-.228.735.735 0 0 1-.166-.391.7.7 0 0 1 .642-.807zM29.927 39.557a.724.724 0 0 1 .718.374.737.737 0 0 1-.416 1.052.723.723 0 0 1-.777-.227.735.735 0 0 1 .475-1.2zm6.182-.647a.723.723 0 0 1 .718.375.737.737 0 0 1-.417 1.051.723.723 0 0 1-.776-.226.735.735 0 0 1 .475-1.2zm6.182-.686a.724.724 0 0 1 .718.374.736.736 0 0 1-.417 1.052.723.723 0 0 1-.776-.227.734.734 0 0 1-.013-.93.726.726 0 0 1 .488-.27zm6.182-.646a.724.724 0 0 1 .718.374.736.736 0 0 1-.418 1.052.722.722 0 0 1-.776-.228.736.736 0 0 1 .476-1.198zm6.182-.648a.723.723 0 0 1 .718.374.737.737 0 0 1-.417 1.052.723.723 0 0 1-.777-.227.735.735 0 0 1 .476-1.2zm6.181-.687a.724.724 0 0 1 .719.374.736.736 0 0 1-.417 1.052.723.723 0 0 1-.777-.226.734.734 0 0 1 .476-1.2zm6.177-.646a.723.723 0 0 1 .719.374.737.737 0 0 1-.417 1.052.723.723 0 0 1-.777-.227.736.736 0 0 1 .475-1.2zm6.182-.687a.723.723 0 0 1 .722.37.736.736 0 0 1-.413 1.055.723.723 0 0 1-.778-.225.735.735 0 0 1 .476-1.2h-.007zm6.182-.646a.723.723 0 0 1 .718.375.737.737 0 0 1-.42 1.052.723.723 0 0 1-.776-.229.735.735 0 0 1 .478-1.198zm6.182-.648a.723.723 0 0 1 .717.376.736.736 0 0 1-.418 1.05.723.723 0 0 1-.776-.227.734.734 0 0 1 .477-1.199zm6.182-.687a.724.724 0 0 1 .717.376.737.737 0 0 1-.418 1.05.723.723 0 0 1-.776-.226.735.735 0 0 1 .477-1.2zm6.19-.646a.723.723 0 0 1 .717.376.737.737 0 0 1-.418 1.05.723.723 0 0 1-.776-.226.734.734 0 0 1-.143-.677.729.729 0 0 1 .62-.523zm6.182-.687a.724.724 0 0 1 .717.376.731.731 0 0 1-.418 1.051.722.722 0 0 1-.776-.227.734.734 0 0 1 .477-1.2zm6.182-.646a.723.723 0 0 1 .717.376.734.734 0 0 1-.418 1.05.722.722 0 0 1-.776-.226.734.734 0 0 1 .477-1.2zm6.182-.648a.724.724 0 0 1 .717.376.734.734 0 0 1-.418 1.05.726.726 0 0 1-.943-.617.724.724 0 0 1 .154-.54.727.727 0 0 1 .49-.269zm6.182-.686a.723.723 0 0 1 .717.375.742.742 0 0 1-.07.81.727.727 0 0 1-1.291-.377.743.743 0 0 1 .154-.54.727.727 0 0 1 .49-.268zM30.73 46.992a.724.724 0 0 1 .718.376.737.737 0 0 1-.419 1.05.723.723 0 0 1-.776-.226.735.735 0 0 1-.166-.391.712.712 0 0 1 .367-.73.7.7 0 0 1 .276-.079zm6.182-.686a.724.724 0 0 1 .718.375.736.736 0 0 1-.419 1.051.723.723 0 0 1-.776-.227.735.735 0 0 1-.166-.39.71.71 0 0 1 .367-.73.698.698 0 0 1 .276-.08zm6.182-.646a.724.724 0 0 1 .718.375.736.736 0 0 1-.42 1.051.724.724 0 0 1-.776-.228.735.735 0 0 1-.165-.392.706.706 0 0 1 .367-.729.691.691 0 0 1 .276-.077zm6.182-.689a.724.724 0 0 1 .717.375.737.737 0 0 1-.418 1.052.723.723 0 0 1-.776-.228.736.736 0 0 1-.167-.39.71.71 0 0 1 .368-.73.698.698 0 0 1 .276-.079zm6.182-.646a.723.723 0 0 1 .717.375.736.736 0 0 1-.418 1.051.723.723 0 0 1-.776-.227.734.734 0 0 1-.167-.39.71.71 0 0 1 .368-.73.697.697 0 0 1 .276-.079zm6.178-.64a.723.723 0 0 1 .718.376.736.736 0 0 1-.419 1.05.723.723 0 0 1-.776-.226.735.735 0 0 1-.166-.39.71.71 0 0 1 .367-.73.696.696 0 0 1 .276-.08zM67.818 43a.724.724 0 0 1 .718.375.737.737 0 0 1-.419 1.051.723.723 0 0 1-.776-.227.735.735 0 0 1-.166-.39.71.71 0 0 1 .367-.73.7.7 0 0 1 .276-.08zM74 42.353a.723.723 0 0 1 .718.375.737.737 0 0 1-.42 1.051.723.723 0 0 1-.776-.228.735.735 0 0 1-.166-.392.708.708 0 0 1 .368-.728.694.694 0 0 1 .276-.078zm6.185-.697a.724.724 0 0 1 .718.375.737.737 0 0 1-.419 1.051.723.723 0 0 1-.776-.227.735.735 0 0 1-.166-.39.708.708 0 0 1 .643-.81zm6.182-.646a.723.723 0 0 1 .718.375.737.737 0 0 1-.07.81.727.727 0 0 1-1.125.014.735.735 0 0 1-.166-.39.71.71 0 0 1 .367-.73.696.696 0 0 1 .276-.08zm6.187-.645a.722.722 0 0 1 .717.375.737.737 0 0 1-.418 1.051.723.723 0 0 1-.776-.226.735.735 0 0 1-.166-.391.708.708 0 0 1 .367-.73.696.696 0 0 1 .276-.079zm6.18-.687a.724.724 0 0 1 .719.374.737.737 0 0 1-.417 1.052.723.723 0 0 1-.777-.226.735.735 0 0 1-.167-.391.71.71 0 0 1 .367-.73.695.695 0 0 1 .275-.078zm6.182-.646a.725.725 0 0 1 .719.375.74.74 0 0 1-.069.811.724.724 0 0 1-1.126.013.743.743 0 0 1-.166-.392.716.716 0 0 1 .146-.545.69.69 0 0 1 .496-.262zm6.182-.686a.724.724 0 0 1 .719.374.735.735 0 0 1-.418 1.052.724.724 0 0 1-.777-.228.735.735 0 0 1-.166-.392.717.717 0 0 1 .145-.545.702.702 0 0 1 .497-.261zm6.182-.648a.72.72 0 0 1 .718.374.734.734 0 0 1-.417 1.052.72.72 0 0 1-.776-.227.734.734 0 0 1-.167-.39.701.701 0 0 1 .145-.547.702.702 0 0 1 .497-.262zm6.182-.646a.722.722 0 0 1 .718.373.735.735 0 0 1-.417 1.053.722.722 0 0 1-.777-.227.74.74 0 0 1-.166-.39.7.7 0 0 1 .145-.547.69.69 0 0 1 .497-.262zm-91.97 17.336a.724.724 0 0 1 .718.374.736.736 0 0 1-.418 1.052.722.722 0 0 1-.777-.228.734.734 0 0 1 .477-1.198zm6.181-.648a.723.723 0 0 1 .719.374.736.736 0 0 1-.417 1.052.723.723 0 0 1-.777-.227.734.734 0 0 1 .475-1.2zm6.182-.687a.724.724 0 0 1 .719.374.737.737 0 0 1-.417 1.052.723.723 0 0 1-.777-.227.735.735 0 0 1 .475-1.199zm6.187-.646a.723.723 0 0 1 .718.374.735.735 0 0 1-.416 1.052.723.723 0 0 1-.777-.227.735.735 0 0 1 .475-1.2zm6.182-.687a.724.724 0 0 1 .718.374.737.737 0 0 1-.416 1.052.724.724 0 0 1-.777-.226.735.735 0 0 1 .475-1.2zm6.182-.646a.723.723 0 0 1 .718.374.736.736 0 0 1-.417 1.052.722.722 0 0 1-.776-.227.734.734 0 0 1 .475-1.199zm6.182-.648a.724.724 0 0 1 .718.374.736.736 0 0 1-.417 1.052.723.723 0 0 1-.777-.226.735.735 0 0 1 .476-1.2zm6.182-.687a.723.723 0 0 1 .718.374.737.737 0 0 1-.417 1.052.723.723 0 0 1-.777-.226.735.735 0 0 1 .476-1.2zm6.177-.64a.724.724 0 0 1 .718.373.736.736 0 0 1-.417 1.052.723.723 0 0 1-.777-.226.735.735 0 0 1 .475-1.2zm6.181-.687a.723.723 0 0 1 .719.374.737.737 0 0 1-.417 1.051.722.722 0 0 1-.777-.226.735.735 0 0 1 .475-1.2zm6.182-.646a.724.724 0 0 1 .718.373.736.736 0 0 1-.416 1.052.723.723 0 0 1-.777-.226.734.734 0 0 1 .475-1.2zm6.182-.647a.724.724 0 0 1 .719.374.735.735 0 0 1-.418 1.052.722.722 0 0 1-.777-.227.735.735 0 0 1 .476-1.199zm6.182-.688a.725.725 0 0 1 .718.374.735.735 0 0 1-.417 1.052.722.722 0 0 1-.776-.227.734.734 0 0 1 .475-1.2zm6.182-.646a.72.72 0 0 1 .718.374.734.734 0 0 1-.417 1.052.722.722 0 0 1-.777-.227.74.74 0 0 1-.012-.93.74.74 0 0 1 .488-.27zm6.182-.687a.722.722 0 0 1 .718.374.734.734 0 0 1-.417 1.052.722.722 0 0 1-.777-.227.74.74 0 0 1-.012-.93.713.713 0 0 1 .488-.269zm6.182-.646a.722.722 0 0 1 .718.374.733.733 0 0 1-.417 1.052.725.725 0 0 1-.943-.618.74.74 0 0 1 .153-.538.73.73 0 0 1 .489-.27zM32.295 61.785a.723.723 0 0 1 .718.373.737.737 0 0 1-.417 1.052.723.723 0 0 1-.777-.226.734.734 0 0 1-.166-.391.705.705 0 0 1 .642-.809zm6.182-.647a.724.724 0 0 1 .718.374.736.736 0 0 1-.417 1.052.723.723 0 0 1-.777-.226.734.734 0 0 1-.166-.391.707.707 0 0 1 .365-.73.692.692 0 0 1 .277-.079zm6.188-.65a.724.724 0 0 1 .718.375.735.735 0 0 1-.416 1.052.723.723 0 0 1-.777-.227.735.735 0 0 1-.167-.39.707.707 0 0 1 .366-.73.695.695 0 0 1 .276-.08zm6.182-.686a.723.723 0 0 1 .718.374.737.737 0 0 1-.416 1.052.723.723 0 0 1-.777-.226.736.736 0 0 1-.167-.391.705.705 0 0 1 .642-.809zm6.182-.646a.724.724 0 0 1 .719.374.737.737 0 0 1-.418 1.052.723.723 0 0 1-.777-.228.735.735 0 0 1-.166-.391.707.707 0 0 1 .366-.729.695.695 0 0 1 .276-.078zm6.182-.687a.724.724 0 0 1 .718.374.736.736 0 0 1-.418 1.052.723.723 0 0 1-.776-.228.735.735 0 0 1-.166-.391.706.706 0 0 1 .366-.729.692.692 0 0 1 .276-.078zm6.182-.648a.724.724 0 0 1 .718.374.737.737 0 0 1-.417 1.052.723.723 0 0 1-.777-.226.735.735 0 0 1-.166-.391.705.705 0 0 1 .365-.73.691.691 0 0 1 .277-.079zm6.182-.646a.723.723 0 0 1 .718.374.737.737 0 0 1-.417 1.052.722.722 0 0 1-.777-.226.734.734 0 0 1-.166-.391.705.705 0 0 1 .642-.809zm6.181-.686a.724.724 0 0 1 .719.373.736.736 0 0 1-.417 1.052.723.723 0 0 1-.777-.226.734.734 0 0 1-.166-.391.707.707 0 0 1 .365-.73.692.692 0 0 1 .276-.078zm6.182-.647a.724.724 0 0 1 .719.375.737.737 0 0 1-.418 1.052.722.722 0 0 1-.777-.228.735.735 0 0 1-.166-.392.708.708 0 0 1 .367-.728.694.694 0 0 1 .275-.079zm6.182-.686a.722.722 0 0 1 .719.374.737.737 0 0 1-.418 1.052.724.724 0 0 1-.777-.228.735.735 0 0 1 .476-1.198zm6.175-.645a.725.725 0 0 1 .719.374.74.74 0 0 1-.069.811.728.728 0 0 1-.771.246.73.73 0 0 1-.52-.622.737.737 0 0 1 .371-.723.715.715 0 0 1 .27-.086zm6.182-.646a.726.726 0 0 1 .806.79.731.731 0 0 1-.504.636.725.725 0 0 1-.944-.617.722.722 0 0 1 .024-.285.717.717 0 0 1 .347-.438.722.722 0 0 1 .271-.086zm6.182-.687a.725.725 0 0 1 .718.374.734.734 0 0 1-.417 1.052.722.722 0 0 1-.776-.226.734.734 0 0 1 .475-1.2zm6.182-.646a.72.72 0 0 1 .718.374.735.735 0 0 1-.417 1.052.722.722 0 0 1-.776-.227.734.734 0 0 1 .475-1.199zm6.182-.687a.725.725 0 0 1 .718.374.736.736 0 0 1-.418 1.053.72.72 0 0 1-.776-.228.728.728 0 0 1-.142-.676.733.733 0 0 1 .347-.437.724.724 0 0 1 .271-.086zM33.058 69.217a.723.723 0 0 1 .718.374.735.735 0 0 1-.417 1.052.723.723 0 0 1-.777-.227.736.736 0 0 1 .205-1.113.721.721 0 0 1 .27-.086zm6.181-.687a.723.723 0 0 1 .719.374.737.737 0 0 1-.417 1.052.723.723 0 0 1-.777-.226.735.735 0 0 1 .475-1.2zm6.182-.646a.723.723 0 0 1 .719.374.736.736 0 0 1-.417 1.052.723.723 0 0 1-.777-.227.734.734 0 0 1 .475-1.199zm6.182-.646a.722.722 0 0 1 .719.374.736.736 0 0 1-.418 1.052.723.723 0 0 1-.777-.228.735.735 0 0 1 .476-1.198zm6.182-.689a.725.725 0 0 1 .718.374.737.737 0 0 1-.416 1.052.723.723 0 0 1-.777-.226.735.735 0 0 1 .475-1.2zm6.182-.646a.723.723 0 0 1 .718.374.736.736 0 0 1-.417 1.052.723.723 0 0 1-.776-.226.734.734 0 0 1 .475-1.2zm6.182-.686a.724.724 0 0 1 .718.374.736.736 0 0 1-.417 1.052.723.723 0 0 1-.776-.227.734.734 0 0 1-.013-.93.726.726 0 0 1 .488-.27zm6.182-.647a.723.723 0 0 1 .718.374.737.737 0 0 1-.417 1.052.723.723 0 0 1-.777-.226.735.735 0 0 1 .476-1.2zm6.182-.646a.723.723 0 0 1 .718.374.737.737 0 0 1-.418 1.052.723.723 0 0 1-.777-.227.735.735 0 0 1 .477-1.199zm6.176-.688a.723.723 0 0 1 .719.374.737.737 0 0 1-.417 1.052.723.723 0 0 1-.777-.227.735.735 0 0 1 .475-1.2zm6.182-.646a.724.724 0 0 1 .719.374.736.736 0 0 1-.417 1.052.723.723 0 0 1-.777-.227.734.734 0 0 1 .475-1.2zm6.182-.687a.725.725 0 0 1 .718.374.732.732 0 0 1-.417 1.052.722.722 0 0 1-.776-.227.734.734 0 0 1 .475-1.2zm6.182-.646a.726.726 0 0 1 .806.79.731.731 0 0 1-.505.636.722.722 0 0 1-.776-.227.734.734 0 0 1 .475-1.2zm6.182-.646a.725.725 0 0 1 .718.374.733.733 0 0 1-.418 1.052.72.72 0 0 1-.776-.228.735.735 0 0 1 .476-1.198zm6.19-.687a.723.723 0 0 1 .719.374.735.735 0 0 1-.418 1.052.724.724 0 0 1-.777-.228.735.735 0 0 1 .476-1.198zm6.182-.648a.723.723 0 0 1 .72.369.74.74 0 0 1-.062.81.728.728 0 0 1-1.295-.362.74.74 0 0 1 .371-.722.725.725 0 0 1 .271-.087l-.005-.008zM33.861 76.612a.723.723 0 0 1 .718.374.736.736 0 0 1-.417 1.052.722.722 0 0 1-.777-.226.735.735 0 0 1-.166-.391.707.707 0 0 1 .366-.73.695.695 0 0 1 .276-.079zm6.182-.646a.723.723 0 0 1 .718.374.736.736 0 0 1-.418 1.052.723.723 0 0 1-.776-.228.734.734 0 0 1-.166-.391.708.708 0 0 1 .366-.729.694.694 0 0 1 .276-.078zm6.182-.687a.724.724 0 0 1 .718.374.737.737 0 0 1-.418 1.052.723.723 0 0 1-.777-.227.735.735 0 0 1-.165-.392.704.704 0 0 1 .366-.729.693.693 0 0 1 .276-.078zm6.181-.64a.723.723 0 0 1 .719.375.735.735 0 0 1-.417 1.052.723.723 0 0 1-.777-.227.735.735 0 0 1-.166-.39.707.707 0 0 1 .365-.73.695.695 0 0 1 .276-.08zm6.182-.645a.723.723 0 0 1 .719.374.737.737 0 0 1-.417 1.052.724.724 0 0 1-.777-.227.736.736 0 0 1 .475-1.2zm6.182-.687a.724.724 0 0 1 .718.374.736.736 0 0 1-.416 1.052.723.723 0 0 1-.777-.227.734.734 0 0 1 .475-1.2zm6.182-.646a.723.723 0 0 1 .718.374.735.735 0 0 1-.417 1.052.723.723 0 0 1-.776-.227.736.736 0 0 1 .475-1.2zm6.182-.687a.724.724 0 0 1 .719.374.736.736 0 0 1-.418 1.052.723.723 0 0 1-.777-.228.735.735 0 0 1 .476-1.198zm6.178-.656a.725.725 0 0 1 .719.374.737.737 0 0 1-.417 1.052.723.723 0 0 1-.777-.227.735.735 0 0 1 .475-1.2zm6.182-.646a.723.723 0 0 1 .719.374.736.736 0 0 1-.417 1.051.723.723 0 0 1-.777-.226.734.734 0 0 1 .475-1.2zm6.182-.687a.724.724 0 0 1 .718.374.736.736 0 0 1-.416 1.052.723.723 0 0 1-.777-.227.734.734 0 0 1-.013-.93.726.726 0 0 1 .488-.27zm6.182-.646a.725.725 0 0 1 .718.374.734.734 0 0 1-.417 1.052.72.72 0 0 1-.776-.227.734.734 0 0 1 .475-1.2zm6.182-.687a.724.724 0 0 1 .718.374.733.733 0 0 1-.418 1.052.72.72 0 0 1-.776-.228.735.735 0 0 1 .476-1.198zm6.19-.648a.725.725 0 0 1 .718.374.732.732 0 0 1-.416 1.052.724.724 0 0 1-.777-.226.734.734 0 0 1 .475-1.2zm6.177-.638a.72.72 0 0 1 .718.374.735.735 0 0 1-.417 1.052.722.722 0 0 1-.776-.226.734.734 0 0 1 .475-1.2zm6.182-.686a.722.722 0 0 1 .718.374.734.734 0 0 1-.417 1.052.72.72 0 0 1-.777-.227.741.741 0 0 1-.012-.93.713.713 0 0 1 .488-.27zM34.624 84.048a.724.724 0 0 1 .718.374.736.736 0 0 1-.418 1.052.723.723 0 0 1-.776-.228.734.734 0 0 1-.142-.676.73.73 0 0 1 .618-.522zm6.176-.689a.724.724 0 0 1 .719.374.737.737 0 0 1-.417 1.052.723.723 0 0 1-.777-.226.735.735 0 0 1 .475-1.2zm6.182-.646a.723.723 0 0 1 .719.374.737.737 0 0 1-.417 1.052.722.722 0 0 1-.777-.226.735.735 0 0 1 .475-1.2zm6.182-.686a.724.724 0 0 1 .718.373.736.736 0 0 1-.416 1.052.723.723 0 0 1-.777-.226.734.734 0 0 1-.013-.93.726.726 0 0 1 .488-.27zm6.182-.647a.723.723 0 0 1 .718.374.737.737 0 0 1-.416 1.052.722.722 0 0 1-.777-.226.735.735 0 0 1 .475-1.2zm6.187-.65a.724.724 0 0 1 .719.373.736.736 0 0 1-.418 1.052.723.723 0 0 1-.777-.228.735.735 0 0 1 .476-1.198zm6.185-.677a.724.724 0 0 1 .719.374.736.736 0 0 1-.418 1.052.724.724 0 0 1-.777-.228.735.735 0 0 1 .476-1.198zm6.182-.648a.724.724 0 0 1 .718.374.736.736 0 0 1-.416 1.052.723.723 0 0 1-.777-.227.735.735 0 0 1 .475-1.2zm6.182-.687a.723.723 0 0 1 .718.374.737.737 0 0 1-.417 1.052.722.722 0 0 1-.776-.227.735.735 0 0 1 .475-1.199zm6.182-.646a.724.724 0 0 1 .718.374.736.736 0 0 1-.417 1.052.723.723 0 0 1-.776-.227.734.734 0 0 1 .475-1.2zm6.182-.646a.723.723 0 0 1 .718.374.736.736 0 0 1-.417 1.052.722.722 0 0 1-.777-.227.735.735 0 0 1 .476-1.2zm6.182-.687a.72.72 0 0 1 .718.374.735.735 0 0 1-.418 1.052.724.724 0 0 1-.942-.62.72.72 0 0 1 .154-.537.725.725 0 0 1 .488-.269zm6.181-.648a.725.725 0 0 1 .719.374.74.74 0 0 1-.069.811.729.729 0 0 1-.771.246.729.729 0 0 1-.52-.622.74.74 0 0 1 .154-.539.715.715 0 0 1 .487-.27zm6.182-.687a.725.725 0 0 1 .719.374.743.743 0 0 1-.069.811.728.728 0 0 1-.771.247.73.73 0 0 1-.521-.623.737.737 0 0 1 .372-.722.716.716 0 0 1 .27-.087zm6.182-.646a.726.726 0 0 1 .806.79.732.732 0 0 1-.504.636.725.725 0 0 1-.944-.617.722.722 0 0 1 .024-.285.719.719 0 0 1 .347-.438.723.723 0 0 1 .271-.086zm6.182-.646a.725.725 0 0 1 .718.374.734.734 0 0 1-.417 1.052.72.72 0 0 1-.776-.226.735.735 0 0 1 .475-1.2zm-91.931 17.33a.723.723 0 0 1 .717.375.737.737 0 0 1-.419 1.05.723.723 0 0 1-.776-.226.736.736 0 0 1 .477-1.2zm6.181-.647a.724.724 0 0 1 .718.376.736.736 0 0 1-.419 1.05.723.723 0 0 1-.776-.226.735.735 0 0 1-.143-.677.73.73 0 0 1 .349-.438.72.72 0 0 1 .271-.085zm6.182-.686a.724.724 0 0 1 .718.375.737.737 0 0 1-.419 1.05.723.723 0 0 1-.776-.226.735.735 0 0 1-.143-.676.729.729 0 0 1 .62-.523zm6.182-.647a.724.724 0 0 1 .717.376.737.737 0 0 1-.418 1.05.723.723 0 0 1-.776-.226.735.735 0 0 1-.143-.677.729.729 0 0 1 .62-.523zm6.182-.686a.723.723 0 0 1 .717.375.737.737 0 0 1-.419 1.051.723.723 0 0 1-.776-.228.734.734 0 0 1-.142-.677.729.729 0 0 1 .62-.521zm6.19-.648a.723.723 0 0 1 .718.375.737.737 0 0 1-.419 1.051.723.723 0 0 1-.776-.227.734.734 0 0 1 .477-1.2zm6.182-.646a.724.724 0 0 1 .717.375.737.737 0 0 1-.418 1.051.723.723 0 0 1-.776-.227.735.735 0 0 1-.143-.676.73.73 0 0 1 .62-.523zm6.182-.687a.723.723 0 0 1 .717.375.736.736 0 0 1-.418 1.051.723.723 0 0 1-.776-.227.734.734 0 0 1-.144-.676.73.73 0 0 1 .621-.523zm6.177-.653a.723.723 0 0 1 .717.375.737.737 0 0 1-.418 1.051.723.723 0 0 1-.776-.227.734.734 0 0 1-.143-.676.73.73 0 0 1 .62-.523zm6.182-.677a.723.723 0 0 1 .717.376.736.736 0 0 1-.418 1.05.723.723 0 0 1-.777-.226.734.734 0 0 1 .478-1.2zm6.182-.646a.723.723 0 0 1 .717.376.736.736 0 0 1-.42 1.05.723.723 0 0 1-.776-.228.735.735 0 0 1 .479-1.198zm6.181-.648a.726.726 0 0 1 .805.792.726.726 0 0 1-1.448.017.742.742 0 0 1 .154-.54.727.727 0 0 1 .489-.269zm6.182-.686a.722.722 0 0 1 .718.375.742.742 0 0 1-.07.81.73.73 0 0 1-.771.246.73.73 0 0 1-.52-.623.742.742 0 0 1 .154-.54.727.727 0 0 1 .489-.268zm6.182-.647a.721.721 0 0 1 .717.376.735.735 0 0 1-.418 1.05.722.722 0 0 1-.776-.226.742.742 0 0 1-.012-.93.729.729 0 0 1 .489-.27zm6.182-.686a.722.722 0 0 1 .717.375.731.731 0 0 1-.418 1.051.722.722 0 0 1-.776-.227.734.734 0 0 1 .477-1.2zm6.182-.646a.721.721 0 0 1 .717.375.731.731 0 0 1-.419 1.051.722.722 0 0 1-.776-.228.735.735 0 0 1 .478-1.198zM36.19 98.836a.723.723 0 0 1 .717.376.737.737 0 0 1-.418 1.051.723.723 0 0 1-.776-.227.735.735 0 0 1 .477-1.2zm6.182-.646a.724.724 0 0 1 .717.376.737.737 0 0 1-.418 1.05.723.723 0 0 1-.777-.226.736.736 0 0 1 .478-1.2zm6.181-.646a.723.723 0 0 1 .718.376.736.736 0 0 1-.419 1.05.723.723 0 0 1-.776-.226.735.735 0 0 1 .477-1.2zm6.182-.686a.723.723 0 0 1 .718.375.736.736 0 0 1-.42 1.051.722.722 0 0 1-.776-.228.735.735 0 0 1 .478-1.198zm6.182-.648a.724.724 0 0 1 .717.375.737.737 0 0 1-.418 1.051.723.723 0 0 1-.776-.227.736.736 0 0 1 .477-1.2zm6.182-.687a.723.723 0 0 1 .717.375.736.736 0 0 1-.418 1.051.723.723 0 0 1-.776-.227.735.735 0 0 1 .477-1.199zm6.182-.646a.724.724 0 0 1 .717.375.737.737 0 0 1-.418 1.051.723.723 0 0 1-.776-.227.735.735 0 0 1 .477-1.2zm6.182-.646a.723.723 0 0 1 .717.375.737.737 0 0 1-.418 1.051.723.723 0 0 1-.776-.227.735.735 0 0 1 .477-1.2zm6.18-.687a.724.724 0 0 1 .719.374.736.736 0 0 1-.418 1.052.723.723 0 0 1-.777-.228.735.735 0 0 1 .476-1.198zm6.182-.648a.724.724 0 0 1 .718.374.736.736 0 0 1-.417 1.052.723.723 0 0 1-.776-.227.734.734 0 0 1 .475-1.199zm6.182-.687a.723.723 0 0 1 .718.374.735.735 0 0 1-.417 1.052.723.723 0 0 1-.777-.226.736.736 0 0 1 .205-1.114.72.72 0 0 1 .27-.086zm6.182-.646a.722.722 0 0 1 .718.374.733.733 0 0 1-.417 1.052.725.725 0 0 1-.943-.617.74.74 0 0 1 .153-.54.73.73 0 0 1 .489-.269zm6.176-.646a.725.725 0 0 1 .719.374.74.74 0 0 1-.069.811.729.729 0 0 1-.771.246.73.73 0 0 1-.52-.622.721.721 0 0 1 .153-.54.729.729 0 0 1 .488-.269zm6.182-.687a.724.724 0 0 1 .72.37.74.74 0 0 1-.062.81.728.728 0 0 1-.767.253.728.728 0 0 1 .114-1.424l-.005-.009zm6.182-.648a.726.726 0 0 1 .806.79.732.732 0 0 1-.504.636.725.725 0 0 1-.944-.617.739.739 0 0 1 .155-.538.726.726 0 0 1 .487-.27zm6.182-.686a.725.725 0 0 1 .718.374.734.734 0 0 1-.417 1.052.72.72 0 0 1-.776-.227.734.734 0 0 1 .475-1.2zm-91.92 17.375a.732.732 0 0 1 .806.79.737.737 0 0 1-.504.636.732.732 0 0 1-.777-.227.735.735 0 0 1 .475-1.199zm6.182-.677a.73.73 0 0 1 .806.79.735.735 0 0 1-.505.636.73.73 0 0 1-.92-.902.723.723 0 0 1 .62-.524zm6.182-.646a.73.73 0 0 1 .65 1.186.73.73 0 0 1-.772.245.732.732 0 0 1-.496-.909.731.731 0 0 1 .618-.522zm6.182-.648a.73.73 0 0 1 .806.79.737.737 0 0 1-.505.636.73.73 0 0 1-.92-.902.736.736 0 0 1 .348-.438.737.737 0 0 1 .27-.086zm6.182-.687a.724.724 0 0 1 .806.79.732.732 0 0 1-.927.642.731.731 0 0 1-.498-.908.732.732 0 0 1 .619-.524zm6.182-.646a.73.73 0 0 1 .65 1.185.73.73 0 0 1-.772.247.731.731 0 0 1-.497-.908.725.725 0 0 1 .619-.524zm6.181-.687a.722.722 0 0 1 .719.374.737.737 0 0 1-.417 1.052.724.724 0 0 1-.943-.617.733.733 0 0 1 .37-.723.74.74 0 0 1 .271-.086zm6.182-.646a.723.723 0 0 1 .719.374.738.738 0 0 1-.418 1.053.725.725 0 0 1-.777-.228.737.737 0 0 1 .206-1.113.737.737 0 0 1 .27-.086zm6.182-.648a.73.73 0 0 1 .806.79.738.738 0 0 1-.156.396.721.721 0 0 1-.771.246.731.731 0 0 1-.497-.908.733.733 0 0 1 .618-.524zm6.182-.686a.721.721 0 0 1 .718.374.735.735 0 0 1-.417 1.052.732.732 0 0 1-.776-.227.735.735 0 0 1 .475-1.199zm6.182-.646a.724.724 0 0 1 .718.374.734.734 0 0 1-.417 1.051.724.724 0 0 1-.943-.617.737.737 0 0 1 .154-.539.725.725 0 0 1 .488-.27zm6.178-.696a.726.726 0 0 1 .719.374.739.739 0 0 1-.417 1.052.726.726 0 0 1-.943-.617.721.721 0 0 1 .153-.539.73.73 0 0 1 .488-.27zm6.186-.637a.72.72 0 0 1 .718.374.735.735 0 0 1-.418 1.052.72.72 0 0 1-.776-.228.727.727 0 0 1-.166-.392.72.72 0 0 1 .154-.537.726.726 0 0 1 .488-.27zm6.182-.648a.722.722 0 0 1 .718.374.733.733 0 0 1-.417 1.052.725.725 0 0 1-.943-.618.734.734 0 0 1 .642-.808zm6.181-.687a.725.725 0 0 1 .719.374.743.743 0 0 1-.069.811.728.728 0 0 1-.771.246.73.73 0 0 1-.52-.622.739.739 0 0 1 .154-.539.716.716 0 0 1 .487-.27zm6.182-.646a.726.726 0 0 1 .806.79.732.732 0 0 1-.504.636.725.725 0 0 1-.944-.618.722.722 0 0 1 .024-.284.717.717 0 0 1 .347-.438.723.723 0 0 1 .271-.086zm-91.965 17.328a.726.726 0 0 1 .719.374.737.737 0 0 1-.418 1.052.733.733 0 0 1-.423.005.731.731 0 0 1-.496-.909.731.731 0 0 1 .618-.522zm6.182-.648a.721.721 0 0 1 .718.374.736.736 0 0 1-.417 1.052.732.732 0 0 1-.776-.227.735.735 0 0 1 .475-1.199zm6.182-.687a.73.73 0 0 1 .806.79.737.737 0 0 1-.505.636.724.724 0 0 1-.777-.227.729.729 0 0 1-.142-.675.727.727 0 0 1 .618-.524zm6.182-.65a.73.73 0 0 1 .806.79.738.738 0 0 1-.157.396.721.721 0 0 1-.77.246.731.731 0 0 1-.498-.908.732.732 0 0 1 .619-.524zm6.177-.642a.732.732 0 0 1 .806.79.736.736 0 0 1-.505.636.732.732 0 0 1-.777-.227.737.737 0 0 1 .205-1.114.72.72 0 0 1 .27-.085zm6.181-.687a.73.73 0 0 1 .65 1.185.73.73 0 0 1-.77.246.724.724 0 0 1-.522-.623.73.73 0 0 1 .642-.808zm6.182-.648a.73.73 0 0 1 .65 1.185.73.73 0 0 1-.77.246.73.73 0 0 1-.522-.622.735.735 0 0 1 .642-.809zm6.182-.687a.724.724 0 0 1 .718.374.736.736 0 0 1-.417 1.052.724.724 0 0 1-.943-.617.736.736 0 0 1 .372-.723.737.737 0 0 1 .27-.086zm6.182-.646a.73.73 0 0 1 .65 1.185.73.73 0 0 1-.771.247.731.731 0 0 1-.498-.908.723.723 0 0 1 .619-.524zm6.217-.646a.73.73 0 0 1 .65 1.185.73.73 0 0 1-.771.246.73.73 0 0 1-.52-.622.683.683 0 0 1 .36-.739.688.688 0 0 1 .281-.07zm6.19-.687a.726.726 0 0 1 .807.79.738.738 0 0 1-.505.636.724.724 0 0 1-.944-.617.71.71 0 0 1 .145-.547.696.696 0 0 1 .497-.262zm6.182-.646a.725.725 0 0 1 .722.37.738.738 0 0 1-.066.813.722.722 0 0 1-.771.248.738.738 0 0 1-.522-.624.718.718 0 0 1 .145-.546.697.697 0 0 1 .497-.261h-.005zm6.182-.688a.723.723 0 0 1 .718.374.732.732 0 0 1-.416 1.052.722.722 0 0 1-.777-.227.735.735 0 0 1-.167-.391.699.699 0 0 1 .642-.808zm6.182-.646a.726.726 0 0 1 .718.374.732.732 0 0 1-.839 1.057.735.735 0 0 1-.521-.623.7.7 0 0 1 .642-.808zm6.184-.65a.728.728 0 0 1 .806.79.733.733 0 0 1-.505.636.731.731 0 0 1-.943-.617.704.704 0 0 1 .642-.809zm-79.602 16.002a.73.73 0 0 1 .806.79.722.722 0 0 1-.927.641.735.735 0 0 1 .121-1.431zm6.182-.647a.724.724 0 0 1 .718.374.736.736 0 0 1-.417 1.052.724.724 0 0 1-.943-.617.735.735 0 0 1 .371-.723.74.74 0 0 1 .271-.086zm6.178-.683a.73.73 0 0 1 .807.79.736.736 0 0 1-.505.636.724.724 0 0 1-.777-.227.73.73 0 0 1-.143-.675.727.727 0 0 1 .618-.524zm6.182-.646a.73.73 0 0 1 .65 1.185.725.725 0 0 1-1.291-.378.738.738 0 0 1 .154-.538.718.718 0 0 1 .488-.269zm6.182-.648a.73.73 0 0 1 .65 1.185.73.73 0 0 1-.77.246.725.725 0 0 1-.522-.622.735.735 0 0 1 .642-.809zm6.186-.692a.73.73 0 0 1 .65 1.185.73.73 0 0 1-.772.247.731.731 0 0 1-.497-.908.737.737 0 0 1 .348-.438.738.738 0 0 1 .27-.086zm6.181-.646a.73.73 0 0 1 .65 1.185.73.73 0 0 1-.77.246.73.73 0 0 1-.498-.907.725.725 0 0 1 .618-.524zm6.187-.682a.725.725 0 0 1 .806.79.732.732 0 0 1-.927.642.731.731 0 0 1-.497-.908.734.734 0 0 1 .347-.438.74.74 0 0 1 .271-.086zm6.182-.646a.723.723 0 0 1 .719.374.738.738 0 0 1-.07.812.723.723 0 0 1-.771.245.723.723 0 0 1-.52-.624.73.73 0 0 1 .642-.807zm6.182-.648a.724.724 0 0 1 .718.374.735.735 0 0 1-.417 1.052.723.723 0 0 1-.776-.226.736.736 0 0 1 .475-1.2zm6.182-.686a.723.723 0 0 1 .718.374.732.732 0 0 1-.839 1.057.725.725 0 0 1-.521-.623.73.73 0 0 1 .642-.808zm6.182-.646a.732.732 0 1 1-.121 1.431.725.725 0 0 1-.521-.623.741.741 0 0 1 .154-.539.726.726 0 0 1 .488-.269zm6.182-.687a.72.72 0 0 1 .718.374.742.742 0 0 1-.069.811.726.726 0 0 1-1.291-.377.743.743 0 0 1 .153-.539.721.721 0 0 1 .489-.269zm6.181-.646a.729.729 0 0 1 .807.79.731.731 0 0 1-.505.636.726.726 0 0 1-.943-.618.743.743 0 0 1 .153-.539.711.711 0 0 1 .488-.269zm6.182-.687a.731.731 0 0 1 .719.374.744.744 0 0 1-.069.812.732.732 0 0 1-.772.245.735.735 0 0 1-.52-.624.778.778 0 0 1 .642-.807zm-.761-7.389a.724.724 0 0 1 .718.374.735.735 0 0 1-.068.812.722.722 0 0 1-.771.246.729.729 0 0 1-.521-.623.691.691 0 0 1 .145-.546.689.689 0 0 1 .497-.263z" clip-rule="evenodd"/><path fill="#C6859C" d="M20.6 57.905c9.994 0 16.578 5.293 18.344 14.716 1.927 10.15-2.489 17.86-12.445 21.74-9.433 3.676-18.147 1.495-23.282-5.86-6.342-9.092-2.97-22.428 7.146-28.079 3.694-2.072 5.539-2.517 10.237-2.517z"/><path fill="#312571" d="M143.353 90.92c-1.364 9.496-2.73 18.871-4.054 28.248-.281 1.9-1.726 2.182-3.092 2.538-12.771 3.354-25.569 6.627-38.335 10.103-2.329.646-3.612.242-4.858-1.861-3.812-6.627-7.707-13.214-11.762-19.64-1.366-2.182-1.008-3.433.763-5.091 8.43-7.755 16.78-15.565 25.05-23.43 1.726-1.657 3.411-1.692 5.46-1.212a5557.36 5557.36 0 0 0 27.414 6.707c1.969.445 4.137.809 3.414 3.638z"/><path fill="#FE6206" d="M90.927 126.519c-3.532 18.186-23.482 29.989-43.473 25.741-16.467-3.516-27.779-21.013-24.287-37.62 3.734-17.942 23.693-31.074 41.788-27.56 18.666 3.597 29.706 20.375 25.972 39.439zm-10.517-5.373c1.726-9.82-4.898-18.911-14.811-20.407-9.676-1.454-20.393 6.142-21.677 15.393-1.203 8.405 5.546 17.617 13.93 19.114 9.954 1.781 20.992-5.09 22.558-14.1z"/><path fill="#FCB788" d="M80.41 121.146c-1.566 8.965-12.602 15.881-22.56 14.102-8.39-1.495-15.132-10.707-13.93-19.114 1.326-9.254 12.003-16.85 21.677-15.392 9.915 1.493 16.499 10.626 14.813 20.404z"/><path fill="#fff" d="M116.137 98.88c-1.043-1.94-3.091-3.193-5.58-3.03a91.678 91.678 0 0 0-1.124-6.627c1.364 4.162 2.93 6.304 2.93 6.304l-1.927-13.578c-.723-4.929-2.247-9.778-4.816-14.063-1.806-3.03-3.528-4.807-4.777-5.778 1.124-4.484 1.203-10.91-7.106-11.671-11.841-1.091-34.722-1.173-45.4 22.992-1.926 4.398-2.328 9.658-1.124 14.669l5.459 20.286s1.326-1.496 1.205-5.778c.28 1.691.682 3.433 1.124 5.131a5.824 5.824 0 0 0-2.302 1.273 5.864 5.864 0 0 0-1.512 2.161c-1.605 4.001 2.207 8.163 6.464 7.597.4-.039.84-.12 1.283-.169 3.252 6.95 7.468 12.809 11.682 15.879v.122c.345.127.669.305.963.526 3.814 2.828 8.47 4.082 13.247 4.161.321-.04.642-.04.923-.079 5.058-.608 9.675-1.536 13.89-4.486a33.814 33.814 0 0 0 1.886-1.414 39.668 39.668 0 0 0 5.619-6.022l-.168-.524s3.821-6.79 4.183-19.395l1.083-.325c3.613-1.05 5.621-4.848 3.895-8.161zm-62.902-7.557a40.488 40.488 0 0 0 .04 6.628v-.041c-1.164-5.413-1.806-11.475 1.645-16.162a48.366 48.366 0 0 0-1.685 9.575zm50.056-18.628a29.425 29.425 0 0 0-3.211-3.838c3.697 2.263 6.142 4.398 7.867 14.506 0 .081.041.122.041.203-.168-.526-.281-1.015-.442-1.536-.963-3.273-2.287-6.505-4.255-9.335z"/><path fill="#FFC9C9" d="M103.98 101.426c.642 2.587-1.324 5.374-4.416 6.259-3.091.885-6.141-.486-6.823-3.031-.642-2.587 1.324-5.374 4.415-6.259 3.127-.888 6.176.445 6.824 3.031zM74.59 109.023c.28 2.626-2.087 4.93-5.298 5.132-3.211.201-6.103-1.778-6.385-4.398-.283-2.62 2.087-4.929 5.3-5.132 3.212-.203 6.102 1.771 6.383 4.398z"/><path fill="#222A46" d="M72.142 100.699c.24 1.211-.242 2.383-1.165 2.546-.883.201-1.848-.646-2.087-1.861-.238-1.214.24-2.385 1.163-2.537.924-.21 1.847.64 2.089 1.852zM95.624 95.648c.24 1.21-.24 2.383-1.165 2.537-.882.201-1.848-.648-2.087-1.86-.238-1.214.24-2.386 1.165-2.538.882-.203 1.806.643 2.087 1.86z"/><path fill="#FF3E3E" d="M79.206 112.255a12.616 12.616 0 0 0 3.453 1.9c1.203.404 2.488.485 3.653.122 1.203-.323 2.287-1.051 3.251-1.9.965-.849 1.848-1.899 2.729-2.909a11.977 11.977 0 0 1-2.168 3.474 9.985 9.985 0 0 1-1.564 1.375 7.139 7.139 0 0 1-1.928.929 6.062 6.062 0 0 1-4.215-.364 7.982 7.982 0 0 1-3.211-2.627z"/><path fill="#EB7D7A" d="M82.94 105.425a13.13 13.13 0 0 1 1.364-1.941 15.557 15.557 0 0 1 1.566-1.691l.24 1.05a5.36 5.36 0 0 1-1.526-1.05 7.38 7.38 0 0 1-1.122-1.374c-.32-.475-.6-.975-.84-1.495a7.774 7.774 0 0 1-.563-1.617c.722.89 1.406 1.737 2.129 2.505.722.768 1.524 1.496 2.407 1.778l.884.323-.684.727c-.517.57-1.067 1.11-1.645 1.617a11.053 11.053 0 0 1-1.887 1.415.21.21 0 0 1-.18.034.22.22 0 0 1-.14-.116c-.044.004-.044-.083-.004-.165z"/><path fill="#1E120D" d="M51.95 107.488c.241.808.84 1.172 1.68 1.131 2.728-.122 3.41-4.768 2.528-9.01-1.766-8.365-5.377-19.074 7.058-23.681 12.434-4.608 30.388 5.012 38.376-10.183 0 0 7.908-15.719-5.78-16.97-12.485-1.132-36.57-1.254-47.81 24.243-2.047 4.649-2.448 10.15-1.164 15.437l5.111 19.033z"/><path fill="#1E120D" d="M84.867 139.855c-5.26-.081-9.956-1.577-13.611-4.285a3.234 3.234 0 0 0-.722-.402l-.322-.122-.04-.169c-4.095-2.989-8.309-8.688-11.594-15.679l-.884.122a6.59 6.59 0 0 1-3.408-.44 6.64 6.64 0 0 1-2.732-2.099c-1.364-1.737-1.68-3.839-.882-5.818a6.323 6.323 0 0 1 1.447-2.19 6.277 6.277 0 0 1 2.206-1.407c-1.445-5.739-2.048-11.275-1.647-16.123 1.405-17.214 9.274-27.114 24.005-30.227 10.558-2.222 20.433 1.9 27.053 11.355 1.766 2.546 3.211 5.658 4.369 9.496a85.635 85.635 0 0 1 2.932 13.417 6.219 6.219 0 0 1 3.257.889 6.27 6.27 0 0 1 2.322 2.464 5.963 5.963 0 0 1 .244 5.096 6.805 6.805 0 0 1-1.769 2.447 6.74 6.74 0 0 1-2.647 1.432l-.682.201c-.402 12.366-4.055 18.992-4.216 19.283l-.041.079c-.28.364-.561.768-.882 1.173-1.445 1.94-2.89 3.959-4.656 5.455-.682.526-1.285 1.015-1.927 1.454-4.215 2.91-8.711 3.921-14.17 4.567-.202.041-.442.041-.642.082l-.361-.051zm-13.653-5.618c.25.133.491.282.722.445 3.454 2.538 7.87 3.96 12.887 4.041l.28-.04c.216-.01.43-.037.642-.082 5.3-.605 9.635-1.615 13.65-4.364.601-.404 1.203-.888 1.848-1.373 1.645-1.414 3.09-3.395 4.495-5.254.282-.404.563-.768.84-1.131.28-.484 3.774-7.233 4.095-19.114v-.405l1.485-.444a5.682 5.682 0 0 0 2.211-1.196 5.727 5.727 0 0 0 1.486-2.037 4.785 4.785 0 0 0-.2-4.117c-1.008-1.86-2.857-2.875-5.018-2.706l-.522.04-.081-.524a88.912 88.912 0 0 0-2.969-13.78c-1.124-3.722-2.49-6.707-4.216-9.135-6.341-9.05-15.775-13.01-25.892-10.87-14.208 2.991-21.756 12.569-23.12 29.216-.402 4.85.2 10.467 1.725 16.239l.168.524-.523.169a5.216 5.216 0 0 0-2.086 1.15 5.256 5.256 0 0 0-1.365 1.961c-.642 1.576-.361 3.313.722 4.689a5.483 5.483 0 0 0 2.268 1.742 5.437 5.437 0 0 0 2.83.358l1.726-.242.168.364c3.292 7.104 7.547 12.855 11.594 15.719l.15.157z"/><path fill="#1E120D" d="M97.872 61.907c-1.124 2.747-1.647 2.342-2.81 5.091 6.061 4.242 9.634 3.637 11.931 17.052.642 3.799 1.645 6.708 2.569 8.728.402.97 2.89 3.961 2.89 2.95l-.121-8.161c3.052-3.194-2.006-15.76-6.141-20.772-4.344-5.293-8.158-5.293-8.318-4.888zM111.6 104.255l.361-1.415c.123-.433.191-.881.202-1.332a1.912 1.912 0 0 0-.321-1.173c-.242-.323-.684-.526-1.164-.727.48-.04 1.043-.04 1.525.364.481.363.642 1.015.602 1.536a4.549 4.549 0 0 1-.361 1.493c-.196.47-.483.896-.844 1.254zM58.333 115.731a3.763 3.763 0 0 1-1.286-.768 3.554 3.554 0 0 1-.962-1.213 1.985 1.985 0 0 1-.081-1.656c.24-.526.763-.808 1.245-.97-.32.404-.644.727-.763 1.131-.075.402-.004.818.2 1.172.188.409.432.79.723 1.132l.924 1.172z"/><path fill="#FCB788" d="M118.022 129.146c-.28 3.96-.561 8.687-.922 13.375-.402 5.658-.763 11.355-1.205 17.013-.2 2.828-.44 2.95-3.009 1.737a8915.286 8915.286 0 0 1-22.56-10.91c-.84-.405-1.606-.89-2.61-1.455a70770.726 70770.726 0 0 1 30.306-19.76z"/><path fill="#FEE5BF" d="M157.604 40.166c-.803 2.706-2.89 4.526-5.742 5.778-1.925.846-3.772 1.78-5.659 2.627-1.806.846-1.968 1.98-.682 3.435 1.68 1.9 3.492 3.759 5.098 5.697 4.134 5.012 3.734 8.69-1.445 12.123-3.529 2.344-7.546 4.122-11.722 5.658-1.526.565-2.769.524-3.492-1.172a11.833 11.833 0 0 0-1.325-2.263c-.883-1.293-.642-2.06 1.008-2.627 3.411-1.172 6.543-2.828 9.633-4.445 2.047-1.092 2.689-2.223.803-4.12a77.464 77.464 0 0 1-5.459-6.104c-3.529-4.484-2.569-8.848 2.448-11.556 1.968-1.05 4.055-1.98 6.142-2.876 2.688-1.172 3.011-2.141 1.124-4.445a32.084 32.084 0 0 0-3.813-3.96c-1.245-1.05-1.326-1.818-.322-2.909 3.291-3.596 3.528-3.637 7.393.04 2.966 2.836 5.654 5.826 6.051 9.623.04.486-.039.971-.039 1.496z"/><path fill="#FED160" d="M151.221 143.492c-9.314-2.304-16.446-7.584-21.396-15.841-4.977-8.243-6.315-17.053-4.014-26.428s7.546-16.568 15.736-21.578c8.188-4.97 16.939-6.303 26.253-4l.2.04-2.488 10.264-.202-.04c-6.503-1.616-12.564-.687-18.263 2.789-5.7 3.476-9.355 8.484-10.959 15.035-1.605 6.551-.642 12.686 2.809 18.385 3.454 5.74 8.418 9.417 14.893 11.032l.201.041-2.52 10.304-.25-.003z"/></svg>