<svg width="66" height="41" viewBox="0 0 66 41" fill="none" xmlns="http://www.w3.org/2000/svg">
<path d="M41.7396 4.34863H23.9648V36.3207H41.7396V4.34863Z" fill="#FF5F00"/>
<path d="M25.1088 20.3333C25.106 17.2542 25.803 14.2147 27.1473 11.4451C28.4915 8.67551 30.4476 6.24831 32.8675 4.34727C29.8708 1.98953 26.2718 0.523288 22.4819 0.116129C18.692 -0.29103 14.8641 0.377308 11.4358 2.04478C8.0074 3.71226 5.11689 6.31159 3.09465 9.54565C1.0724 12.7797 0 16.518 0 20.3333C0 24.1486 1.0724 27.8869 3.09465 31.121C5.11689 34.355 8.0074 36.9543 11.4358 38.6218C14.8641 40.2893 18.692 40.9576 22.4819 40.5505C26.2718 40.1433 29.8708 38.6771 32.8675 36.3193C30.4476 34.4183 28.4915 31.9911 27.1473 29.2215C25.8031 26.4519 25.106 23.4124 25.1088 20.3333Z" fill="#EB001B"/>
<path d="M65.7191 20.3333C65.7192 24.1485 64.6469 27.8868 62.6248 31.1209C60.6026 34.3549 57.7122 36.9543 54.2839 38.6218C50.8557 40.2893 47.0278 40.9576 43.238 40.5505C39.4481 40.1433 35.8492 38.6771 32.8525 36.3193C35.2703 34.4164 37.2249 31.9888 38.5689 29.2196C39.9129 26.4504 40.6113 23.4119 40.6113 20.3333C40.6113 17.2546 39.9129 14.2162 38.5689 11.447C37.2249 8.67782 35.2703 6.25023 32.8525 4.34726C35.8492 1.98952 39.4481 0.523278 43.238 0.116124C47.0278 -0.29103 50.8557 0.377337 54.2839 2.04483C57.7122 3.71232 60.6026 6.31165 62.6248 9.54571C64.6469 12.7798 65.7192 16.5181 65.7191 20.3333Z" fill="#F79E1B"/>
<path d="M63.8092 32.9372V32.2826H64.0729V32.1492H63.4014V32.2826H63.6652V32.9372H63.8092ZM65.113 32.9372V32.1479H64.9072L64.6704 32.6908L64.4336 32.1479H64.2276V32.9372H64.3729V32.3418L64.595 32.8551H64.7457L64.9678 32.3406V32.9372H65.113Z" fill="#F79E1B"/>
</svg>
