<svg width="112" height="33" viewBox="0 0 112 33" fill="none" xmlns="http://www.w3.org/2000/svg">
<path d="M62.3621 3.38308L55.2934 18.9055H54.5865V0H44.5332V32H53.0549C55.2934 32 57.3354 30.6866 58.2779 28.6169L65.3467 13.0945H66.0535V32H76.1068V0H67.5851C65.3074 0 63.3046 1.31343 62.3621 3.38308Z" fill="#20AA4D"/>
<path d="M24.662 4.21891L20.46 18.9453H19.7532L15.5512 4.21891C14.8443 1.71144 12.6059 0 10.0533 0H0V32H10.0533V13.0945H10.7602L16.4937 32H23.6802L29.4137 13.0945H30.1206V32H40.1739V0H30.1599C27.6073 0 25.3689 1.71144 24.662 4.21891Z" fill="#20AA4D"/>
<path d="M80.3867 14.5671V32.0398H90.4007V21.8109H101.2C105.873 21.8109 109.879 18.7861 111.332 14.5273H80.3867V14.5671Z" fill="#20AA4D"/>
<path d="M101.24 0H78.9736C80.3088 7.44279 86.7492 13.0945 94.4855 13.0945H111.765C111.922 12.3781 111.961 11.6617 111.961 10.9055C112 4.89552 107.17 0 101.24 0Z" fill="url(#paint0_linear)"/>
<defs>
<linearGradient id="paint0_linear" x1="78.9659" y1="6.5489" x2="111.989" y2="6.5489" gradientUnits="userSpaceOnUse">
<stop offset="0.00985222" stop-color="#00A7E3"/>
<stop offset="0.3366" stop-color="#009EDC"/>
<stop offset="0.8748" stop-color="#0085C9"/>
<stop offset="1" stop-color="#007EC4"/>
</linearGradient>
</defs>
</svg>
