<svg width="95" height="31" viewBox="0 0 95 31" fill="none" xmlns="http://www.w3.org/2000/svg">
<path d="M41.1834 30.4833H33.4316L38.2764 0.535131H46.029L41.1834 30.4833ZM26.9103 0.535131L19.5201 21.1337L18.6456 16.698L18.6464 16.6996L16.038 3.23162C16.038 3.23162 15.7226 0.535131 12.3608 0.535131H0.14336L0 1.04222C0 1.04222 3.73613 1.82409 8.10861 4.46531L14.8434 30.4841H22.9201L35.2531 0.535131H26.9103ZM87.8822 30.4833H95L88.7941 0.534331H82.5627C79.6852 0.534331 78.9843 2.76618 78.9843 2.76618L67.4231 30.4833H75.5038L77.1198 26.0348H86.9742L87.8822 30.4833ZM79.3522 19.8896L83.4253 8.68227L85.7166 19.8896H79.3522ZM68.0292 7.73698L69.1354 1.30578C69.1354 1.30578 65.7219 0 62.1634 0C58.3165 0 49.1813 1.69111 49.1813 9.91436C49.1813 17.6513 59.903 17.7475 59.903 21.8114C59.903 25.8754 50.286 25.1472 47.1121 22.5845L45.9597 29.3089C45.9597 29.3089 49.421 31 54.7094 31C59.9994 31 67.9798 28.245 67.9798 20.7468C67.9798 12.9601 57.1617 12.2351 57.1617 8.8497C57.1625 5.46347 64.712 5.89847 68.0292 7.73698Z" fill="#2566AF"/>
<path d="M18.6464 16.6988L16.038 3.23079C16.038 3.23079 15.7226 0.534302 12.3608 0.534302H0.14336L0 1.04139C0 1.04139 5.87219 2.26547 11.5046 6.85173C16.8902 11.2353 18.6464 16.6988 18.6464 16.6988Z" fill="#E6A540"/>
</svg>
