<svg width="273" height="244" viewBox="0 0 273 244" fill="none" xmlns="http://www.w3.org/2000/svg">
<path d="M236.396 108.922C224.02 146.164 188.484 170.849 156.908 164.139C125.331 157.428 109.807 121.892 122.183 84.6505C134.559 47.4086 170.095 22.7234 201.671 29.4337C233.248 36.144 248.772 71.6798 236.396 108.922ZM149.057 90.3614C142.474 110.171 150.644 128.874 167.44 132.443C184.236 136.013 202.939 123.02 209.522 103.211C216.105 83.4013 207.935 64.6983 191.139 61.129C174.343 57.5597 155.64 70.5519 149.057 90.3614Z" fill="#533278"/>
<path d="M149.893 158.863C137.518 196.106 101.982 220.791 70.4051 214.08C38.8287 207.37 23.3049 171.834 35.6808 134.592C48.0567 97.3501 83.5927 72.6649 115.169 79.3752C146.746 86.0855 162.269 121.621 149.893 158.863ZM62.5544 140.303C55.9714 160.113 64.1419 178.816 80.9378 182.385C97.7338 185.954 116.437 172.962 123.02 153.153C129.603 133.343 121.432 114.64 104.636 111.071C87.8404 107.501 69.1373 120.493 62.5544 140.303Z" stroke="#FFDD00" stroke-width="2" stroke-miterlimit="10"/>
</svg>
