<svg width="40" height="40" viewBox="0 0 40 40" fill="none" xmlns="http://www.w3.org/2000/svg">
<path d="M32.5 40H7.5C3.35417 40 0 36.6458 0 32.5V7.5C0 3.35417 3.35417 0 7.5 0H32.5C36.6458 0 40 3.35417 40 7.5V32.5C40 36.6458 36.6458 40 32.5 40Z" fill="#FFE6E2"/>
<path d="M27.5 23.125C27.1562 23.125 26.875 22.8438 26.875 22.5V21.25H13.125V22.5C13.125 22.8438 12.8438 23.125 12.5 23.125C12.1562 23.125 11.875 22.8438 11.875 22.5V20.625C11.875 20.2812 12.1562 20 12.5 20H27.5C27.8438 20 28.125 20.2812 28.125 20.625V22.5C28.125 22.8438 27.8438 23.125 27.5 23.125Z" fill="#FD907E"/>
<path d="M20 23.3333C19.6562 23.3333 19.375 23.0521 19.375 22.7083V18.9583C19.375 18.6146 19.6562 18.3333 20 18.3333C20.3438 18.3333 20.625 18.6146 20.625 18.9583V22.7083C20.625 23.0521 20.3438 23.3333 20 23.3333Z" fill="#FD907E"/>
<path d="M13.75 25.4167C13.75 26.1042 13.1875 26.6667 12.5 26.6667C11.8125 26.6667 11.25 26.1042 11.25 25.4167C11.25 24.7292 11.8125 24.1667 12.5 24.1667C13.1875 24.1667 13.75 24.7292 13.75 25.4167Z" fill="#FC573B"/>
<path d="M13.125 27.5H11.875C10.8438 27.5 10 28.3438 10 29.375C10 29.7188 10.2812 30 10.625 30H14.375C14.7188 30 15 29.7188 15 29.375C15 28.3438 14.1562 27.5 13.125 27.5Z" fill="#FC573B"/>
<path d="M21.25 25.4167C21.25 26.1042 20.6875 26.6667 20 26.6667C19.3125 26.6667 18.75 26.1042 18.75 25.4167C18.75 24.7292 19.3125 24.1667 20 24.1667C20.6875 24.1667 21.25 24.7292 21.25 25.4167Z" fill="#FC573B"/>
<path d="M20.625 27.5H19.375C18.3438 27.5 17.5 28.3438 17.5 29.375C17.5 29.7188 17.7812 30 18.125 30H21.875C22.2188 30 22.5 29.7188 22.5 29.375C22.5 28.3438 21.6562 27.5 20.625 27.5Z" fill="#FC573B"/>
<path d="M28.75 25.4167C28.75 26.1042 28.1875 26.6667 27.5 26.6667C26.8125 26.6667 26.25 26.1042 26.25 25.4167C26.25 24.7292 26.8125 24.1667 27.5 24.1667C28.1875 24.1667 28.75 24.7292 28.75 25.4167Z" fill="#FC573B"/>
<path d="M28.125 27.5H26.875C25.8438 27.5 25 28.3438 25 29.375C25 29.7188 25.2812 30 25.625 30H29.375C29.7188 30 30 29.7188 30 29.375C30 28.3438 29.1562 27.5 28.125 27.5Z" fill="#FC573B"/>
<path d="M21.6668 11.6667C21.6668 12.5833 20.9168 13.3333 20.0002 13.3333C19.0835 13.3333 18.3335 12.5833 18.3335 11.6667C18.3335 10.75 19.0835 10 20.0002 10C20.9168 10 21.6668 10.75 21.6668 11.6667Z" fill="#FC573B"/>
<path d="M21.0415 14.1667H18.9582C17.6978 14.1667 16.6665 15.1979 16.6665 16.4584V16.875C16.6665 17.2188 16.9478 17.5 17.2915 17.5H22.7082C23.0519 17.5 23.3332 17.2188 23.3332 16.875V16.4584C23.3332 15.1979 22.3019 14.1667 21.0415 14.1667Z" fill="#FC573B"/>
</svg>
