<svg width="40" height="40" viewBox="0 0 40 40" fill="none" xmlns="http://www.w3.org/2000/svg">
<path d="M32.5 40H7.5C3.35417 40 0 36.6458 0 32.5V7.5C0 3.35417 3.35417 0 7.5 0H32.5C36.6458 0 40 3.35417 40 7.5V32.5C40 36.6458 36.6458 40 32.5 40Z" fill="#F5E6FE"/>
<path d="M21.875 10H12.2917C11.0208 10 10 11.0208 10 12.2917V25.2083C10 26.4792 11.0208 27.5 12.2917 27.5H17.5V22.5C17.5 22.2083 17.5417 21.9271 17.6042 21.6562C17.5729 21.6667 17.5417 21.6667 17.5 21.6667H13.3333C12.875 21.6667 12.5 21.2917 12.5 20.8333C12.5 20.375 12.875 20 13.3333 20H17.5104C17.8229 20 18.0938 20.1771 18.2396 20.4271C18.8438 19.6562 19.7812 19.1667 20.8438 19.1667H24.1771V12.2917C24.1667 11.0208 23.1458 10 21.875 10ZM13.3333 13.3333H16.6667C17.125 13.3333 17.5 13.7083 17.5 14.1667C17.5 14.625 17.125 15 16.6667 15H13.3333C12.875 15 12.5 14.625 12.5 14.1667C12.5 13.7083 12.875 13.3333 13.3333 13.3333ZM20.8333 18.3333H13.3333C12.875 18.3333 12.5 17.9583 12.5 17.5C12.5 17.0417 12.875 16.6667 13.3333 16.6667H20.8333C21.2917 16.6667 21.6667 17.0417 21.6667 17.5C21.6667 17.9583 21.2917 18.3333 20.8333 18.3333Z" fill="#BE63F9"/>
<path d="M28.3332 20.8334H20.8332C19.9165 20.8334 19.1665 21.5834 19.1665 22.5V28.3334C19.1665 29.25 19.9165 30 20.8332 30H28.3332C29.2498 30 29.9998 29.25 29.9998 28.3334V22.5C29.9998 21.5834 29.2498 20.8334 28.3332 20.8334ZM27.4998 28.3334H21.6665C21.2082 28.3334 20.8332 27.9584 20.8332 27.5V24.1667H28.3332V27.5C28.3332 27.9584 27.9582 28.3334 27.4998 28.3334Z" fill="#D9A4FC"/>
</svg>
