<svg width="40" height="40" viewBox="0 0 40 40" fill="none" xmlns="http://www.w3.org/2000/svg">
<path d="M32.5 40H7.5C3.35417 40 0 36.6458 0 32.5V7.5C0 3.35417 3.35417 0 7.5 0H32.5C36.6458 0 40 3.35417 40 7.5V32.5C40 36.6458 36.6458 40 32.5 40Z" fill="#E3F8FA"/>
<path d="M23.9481 16.1979L23.0314 17.1146C23.1772 17.4062 23.3127 17.7083 23.4168 18.0104C23.7918 17.9479 24.1877 17.9062 24.5835 17.9062H24.6877C24.5106 17.3125 24.2606 16.7292 23.9481 16.1979ZM9.98975 20C9.98975 24.1354 13.3543 27.5 17.4897 27.5C17.8439 27.5 18.2085 27.4792 18.5522 27.4271C18.3647 27.0417 18.2189 26.6458 18.1147 26.2187C17.9064 26.2396 17.6981 26.25 17.4897 26.25C14.0418 26.25 11.2397 23.4479 11.2397 20C11.2397 16.5521 14.0418 13.75 17.4897 13.75C18.5314 13.75 19.5106 14.0104 20.3856 14.4687L21.3022 13.5521C20.1877 12.8854 18.8856 12.5 17.4897 12.5C13.3543 12.5 9.98975 15.8646 9.98975 20Z" fill="#8CE1EB"/>
<path d="M12.9062 20C12.9062 22.5208 14.9687 24.5833 17.4896 24.5833C17.6354 24.5833 17.7708 24.5729 17.9167 24.5625C17.9167 24.125 17.9583 23.7083 18.0417 23.2916C17.8646 23.3229 17.6875 23.3437 17.4896 23.3437C15.6458 23.3437 14.1562 21.8541 14.1562 20.0104C14.1562 18.1666 15.6458 16.677 17.4896 16.677C17.7083 16.677 17.9167 16.6979 18.1146 16.7395L19.125 15.7291C18.6146 15.5312 18.0625 15.4166 17.4896 15.4166C14.9687 15.4166 12.9062 17.4791 12.9062 20Z" fill="#8CE1EB"/>
<path d="M17.4899 18.3334C16.5732 18.3334 15.8232 19.0834 15.8232 20C15.8232 20.9167 16.5732 21.6667 17.4899 21.6667C18.4066 21.6667 19.1566 20.9167 19.1566 20C19.1566 19.0834 18.4066 18.3334 17.4899 18.3334ZM17.4899 20.4167C17.2607 20.4167 17.0732 20.2292 17.0732 20C17.0732 19.7709 17.2607 19.5834 17.4899 19.5834C17.7191 19.5834 17.9066 19.7709 17.9066 20C17.9066 20.2292 17.7191 20.4167 17.4899 20.4167Z" fill="#8CE1EB"/>
<path d="M17.4997 20.625C17.3434 20.625 17.1768 20.5625 17.0518 20.4375C16.8122 20.1979 16.8122 19.8021 17.0518 19.5521L22.4684 14.1354C22.708 13.8958 23.1038 13.8958 23.3538 14.1354C23.5934 14.375 23.5934 14.7708 23.3538 15.0208L17.9372 20.4375C17.8122 20.5625 17.6559 20.625 17.4997 20.625Z" fill="#26C6DA"/>
<path d="M25.2083 15H23.125C22.7813 15 22.5 14.7187 22.5 14.375V12.2916C22.5 12.125 22.5625 11.9687 22.6875 11.8437L24.3542 10.1771C24.5313 9.99998 24.8021 9.9479 25.0313 10.0416C25.2604 10.1354 25.4167 10.3646 25.4167 10.6146V12.0729H26.875C27.125 12.0729 27.3542 12.2291 27.4479 12.4583C27.5417 12.6875 27.4896 12.9583 27.3125 13.1354L25.6458 14.8021C25.5313 14.9375 25.375 15 25.2083 15Z" fill="#26C6DA"/>
<path d="M24.5832 19.1666C21.5936 19.1666 19.1665 21.5937 19.1665 24.5833C19.1665 27.5729 21.5936 30 24.5832 30C27.5728 30 29.9998 27.5729 29.9998 24.5833C29.9998 21.5937 27.5623 19.1666 24.5832 19.1666ZM26.9165 23.552L24.2082 26.4687C24.0832 26.6041 23.9165 26.6666 23.7498 26.6666C23.604 26.6666 23.4582 26.6145 23.3436 26.5208L21.8853 25.2708C21.6248 25.0416 21.5936 24.6562 21.8228 24.3854C22.0519 24.125 22.4373 24.0937 22.7082 24.3229L23.7082 25.177L26.0103 22.6979C26.2498 22.4479 26.6457 22.427 26.8957 22.6666C27.1353 22.9062 27.1457 23.302 26.9165 23.552Z" fill="#26C6DA"/>
</svg>
