<svg width="40" height="40" viewBox="0 0 40 40" fill="none" xmlns="http://www.w3.org/2000/svg">
<path d="M32.5 40H7.5C3.35417 40 0 36.6458 0 32.5V7.5C0 3.35417 3.35417 0 7.5 0H32.5C36.6458 0 40 3.35417 40 7.5V32.5C40 36.6458 36.6458 40 32.5 40Z" fill="#F5E6FE"/>
<path d="M22.0832 12.0833C22.0832 13.2292 21.1457 14.1667 19.9998 14.1667C18.854 14.1667 17.9165 13.2292 17.9165 12.0833C17.9165 10.9375 18.854 10 19.9998 10C21.1457 10 22.0832 10.9375 22.0832 12.0833Z" fill="#BE63F9"/>
<path d="M27.9167 23.75C27.9167 24.8959 26.9792 25.8334 25.8333 25.8334C24.6875 25.8334 23.75 24.8959 23.75 23.75C23.75 22.6042 24.6875 21.6667 25.8333 21.6667C26.9792 21.6667 27.9167 22.6042 27.9167 23.75Z" fill="#BE63F9"/>
<path d="M16.2502 23.75C16.2502 24.8959 15.3127 25.8334 14.1668 25.8334C13.021 25.8334 12.0835 24.8959 12.0835 23.75C12.0835 22.6042 13.021 21.6667 14.1668 21.6667C15.3127 21.6667 16.2502 22.6042 16.2502 23.75Z" fill="#BE63F9"/>
<path d="M23.5418 18.3333H16.4585C16.1147 18.3333 15.8335 18.0521 15.8335 17.7083V17.2917C15.8335 16.0313 16.8647 15 18.1252 15H21.8752C23.1356 15 24.1668 16.0313 24.1668 17.2917V17.7083C24.1668 18.0521 23.8856 18.3333 23.5418 18.3333Z" fill="#BE63F9"/>
<path d="M29.3748 30H22.2915C21.9478 30 21.6665 29.7188 21.6665 29.375V28.9584C21.6665 27.6979 22.6978 26.6667 23.9582 26.6667H27.7082C28.9686 26.6667 29.9998 27.6979 29.9998 28.9584V29.375C29.9998 29.7188 29.7186 30 29.3748 30Z" fill="#BE63F9"/>
<path d="M17.7083 30H10.625C10.2813 30 10 29.7188 10 29.375V28.9584C10 27.6979 11.0312 26.6667 12.2917 26.6667H16.0417C17.3021 26.6667 18.3333 27.6979 18.3333 28.9584V29.375C18.3333 29.7188 18.0521 30 17.7083 30Z" fill="#BE63F9"/>
<path d="M12.2915 20.6354C11.9478 20.6354 11.6665 20.3541 11.6665 20.0104C11.6665 16.7812 13.5623 13.8125 16.4894 12.4479C16.8019 12.3021 17.1769 12.4375 17.3228 12.75C17.4686 13.0625 17.3332 13.4375 17.0207 13.5833C14.5311 14.7396 12.9165 17.2604 12.9165 20.0104C12.9165 20.3541 12.6353 20.6354 12.2915 20.6354Z" fill="#D9A4FC"/>
<path d="M27.7086 20.6354C27.3648 20.6354 27.0836 20.3541 27.0836 20.0104C27.0836 17.2604 25.4794 14.7396 22.9794 13.5833C22.6669 13.4375 22.5315 13.0625 22.6773 12.75C22.8232 12.4375 23.1982 12.3021 23.5107 12.4479C26.4377 13.8125 28.3336 16.7812 28.3336 20.0104C28.3336 20.3541 28.0523 20.6354 27.7086 20.6354Z" fill="#D9A4FC"/>
<path d="M20 28.3438C19.7083 28.3438 19.4166 28.3334 19.125 28.3021C18.7812 28.2709 18.5312 27.9584 18.5729 27.6146C18.6041 27.2709 18.9166 27.0313 19.2604 27.0625C19.7604 27.1146 20.2916 27.1146 20.7916 27.0625C21.1354 27.0209 21.4479 27.2709 21.4791 27.6146C21.5208 27.9584 21.2708 28.2709 20.9271 28.3021C20.625 28.3229 20.3125 28.3438 20 28.3438Z" fill="#D9A4FC"/>
</svg>
