<svg width="146" height="147" fill="none" xmlns="http://www.w3.org/2000/svg"><path d="M94.5 146.178c-5.645 0-11.064-2.033-15.355-6.323-8.58-8.581-8.58-22.129 0-30.71 11.516-11.516 11.516-30.484 0-42-11.516-11.516-30.258-11.516-42 0-8.58 8.581-22.129 8.581-30.71 0-8.58-8.58-8.58-22.129 0-30.71 28.452-28.451 74.742-28.451 103.42 0 28.451 28.452 28.451 74.743 0 103.42-4.29 4.065-9.936 6.323-15.355 6.323z" fill="#533278"/><path d="M107.371 133.081c-5.645 0-11.065-2.033-15.355-6.323-8.58-8.581-8.58-22.129 0-30.71 11.516-11.516 11.516-30.484 0-42-11.516-11.516-30.258-11.516-42 0-8.58 8.581-22.129 8.581-30.71 0-8.58-8.58-8.58-22.129 0-30.71 28.452-28.45 74.742-28.45 103.42 0 28.451 28.452 28.451 74.743 0 103.42-4.065 4.29-9.71 6.323-15.355 6.323z" stroke="#FF5C35" stroke-width="2.562" stroke-miterlimit="10"/></svg>