<svg width="164" height="164" fill="none" xmlns="http://www.w3.org/2000/svg"><path d="M95.235 164C133.213 164 164 133.213 164 95.236c0-37.978-30.787-68.765-68.765-68.765-37.977 0-68.764 30.787-68.764 68.764C26.47 133.214 57.258 164 95.235 164z" fill="#FD0"/><path d="M70.384 139.148c37.977 0 68.764-30.787 68.764-68.764 0-37.978-30.787-68.765-68.764-68.765-37.978 0-68.765 30.787-68.765 68.765 0 37.977 30.787 68.764 68.765 68.764z" stroke="#385CAD" stroke-width="3" stroke-miterlimit="10" stroke-linecap="round" stroke-linejoin="round"/><path d="M70.383 103.68c18.39 0 33.297-14.907 33.297-33.296 0-18.39-14.907-33.297-33.297-33.297-18.389 0-33.296 14.907-33.296 33.297 0 18.389 14.907 33.296 33.296 33.296z" stroke="#385CAD" stroke-width="3" stroke-miterlimit="10" stroke-linecap="round" stroke-linejoin="round"/></svg>