<svg width="165" height="164" fill="none" xmlns="http://www.w3.org/2000/svg"><path d="M150.678 117.926c-2.738-1.097-3.833-4.388-2.738-6.856 1.095-2.742 4.38-3.839 6.844-2.742 2.738 1.097 3.833 4.388 2.738 6.856 0 .274-.273.274-.273.548-1.096 2.469-4.107 3.291-6.571 2.194z" fill="#FF5C35"/><path d="M133.977 146.997c-2.191 1.92-5.476 1.371-7.393-.823-1.916-2.194-1.369-5.485.822-7.405 2.19-1.919 5.475-1.371 7.392.823 1.369 1.646 1.643 4.114.548 6.034-.548.274-.822.822-1.369 1.371zm25.188-65.271c-3.011.274-5.476-1.92-5.749-4.937-.274-3.016 1.916-5.484 4.928-5.759 3.012-.274 5.476 1.92 5.749 4.937 0 1.097-.273 2.194-.821 3.016-.821 1.646-2.19 2.743-4.107 2.743zm-61.055 82c-2.738.548-5.75-1.372-6.297-4.114-.548-2.743 1.369-5.759 4.107-6.308 2.738-.548 5.749 1.371 6.297 4.114.274 1.371 0 2.742-.548 3.565-.821 1.646-1.916 2.468-3.559 2.743zM149.856 45.8c-2.464 1.645-5.749.822-7.392-1.646-1.643-2.468-.821-5.76 1.643-7.405 2.464-1.645 5.749-.823 7.392 1.646a4.99 4.99 0 010 5.485c-.274.822-.821 1.645-1.643 1.92z" fill="#533278"/><path d="M58.684 162.08c-2.738-.822-4.38-3.839-3.56-6.582.822-2.742 3.834-4.388 6.572-3.565s4.38 3.84 3.559 6.582c0 .549-.274.823-.548 1.097-1.095 2.194-3.559 3.291-6.023 2.468zm59.139-141.786s-.274-.274 0 0c-2.738-1.645-3.559-4.936-2.19-7.405 1.369-2.468 4.654-3.29 7.118-1.92h.548c2.464 1.372 3.285 4.663 1.916 7.131-1.642 2.743-4.928 3.565-7.392 2.194z" fill="#FF5C35"/><path d="M31.853 142.334c-1.917 2.194-5.476 2.194-7.393.275-2.19-1.92-2.19-5.485-.273-7.405 1.916-2.194 5.475-2.194 7.392-.274 1.916 1.645 2.19 4.388.821 6.582 0 0-.273.274-.547.822z" fill="#533278"/><path d="M84.42 10.421c-3.011 0-5.201-2.468-4.928-5.485C79.492 2.194 81.957 0 84.968 0c3.012 0 5.202 2.468 5.202 5.485 0 .823-.274 1.645-.821 2.468-1.095 1.646-2.738 2.743-4.928 2.468z" fill="#FF5C35"/><path d="M9.95 112.167c-2.738.823-5.75-.548-6.571-3.291-.822-2.742.547-5.759 3.285-6.581 2.738-.823 5.75.548 6.571 3.29.548 1.372.548 3.017-.274 4.388-.547 1.097-1.642 1.92-3.011 2.194zm40.795-94.615c-2.738 1.371-5.75.274-7.12-2.468-1.368-2.743 0-5.76 2.465-7.13 2.738-1.372 5.75-.275 7.119 2.468.82 1.645.547 3.565-.274 4.936-.274.823-1.095 1.645-2.19 2.194zM4.474 75.418c-3.012-.548-4.928-3.29-4.38-6.033.547-3.017 3.285-4.937 6.023-4.388 3.011.548 4.928 3.29 4.38 6.033 0 .549-.274 1.371-.547 1.92-1.095 1.92-3.286 3.017-5.476 2.468z" fill="#533278"/><path d="M24.187 39.492c-1.643 2.194-4.928 2.742-7.393 1.097-2.19-1.646-2.737-4.937-1.095-7.405 1.643-2.468 4.929-2.742 7.393-1.097 2.19 1.645 2.738 4.662 1.369 6.856-.274 0-.274.274-.274.549z" fill="#FF5C35"/><path d="M138.083 111.619c-2.19-.823-3.285-3.566-2.19-5.76.821-2.194 3.559-3.291 5.75-2.194 2.19.823 3.285 3.566 2.19 5.76 0 .274-.274.274-.274.548-1.095 1.646-3.285 2.468-5.476 1.646zm-13.689 23.585c-1.917 1.646-4.655 1.097-6.024-.548-1.643-1.92-1.369-4.663.548-6.034 1.916-1.645 4.654-1.097 6.023.549 1.095 1.371 1.369 3.291.274 4.936 0 .274-.274.823-.821 1.097zM145.202 82c-2.465.274-4.381-1.645-4.655-3.84-.274-2.468 1.643-4.387 3.833-4.662 2.464-.274 4.381 1.646 4.655 3.84 0 .823-.274 1.645-.548 2.468-.548 1.371-1.916 2.194-3.285 2.194zm-50.104 66.916c-2.464.549-4.654-1.097-5.202-3.291-.547-2.468 1.095-4.662 3.286-5.211 2.464-.548 4.654 1.097 5.202 3.291.273 1.097 0 2.194-.548 3.017-.274 1.371-1.369 2.194-2.738 2.194z" fill="#533278"/><path d="M137.536 52.655c-1.917 1.372-4.655.549-6.024-1.37-1.369-1.92-.547-4.663 1.369-6.034 1.917-1.371 4.655-.549 6.024 1.371a4.216 4.216 0 010 4.388c-.274.548-.822 1.097-1.369 1.645z" fill="#FF5C35"/><path d="M62.791 147.819c-2.19-.548-3.56-3.016-3.012-5.485.548-2.194 3.012-3.565 5.476-3.016 2.19.548 3.56 3.016 3.012 5.485 0 .274-.274.548-.548 1.097-.821 1.645-3.011 2.468-4.928 1.919zm48.461-116.281c-2.19-1.37-3.012-3.839-1.916-6.033 1.095-2.194 3.833-2.742 6.023-1.645 2.19 1.096 2.738 3.839 1.643 6.033-1.096 2.194-3.56 3.017-5.75 1.645zm-70.364 99.826c-1.643 1.646-4.38 1.92-6.024 0-1.642-1.645-1.642-4.387 0-6.033 1.643-1.645 4.381-1.645 6.024 0 1.369 1.371 1.643 3.565.821 5.211l-.821.822zM84.146 23.585c-2.464 0-4.106-2.194-4.106-4.388 0-2.468 2.19-4.113 4.38-4.113 2.464 0 4.38 2.194 4.107 4.387 0 .823-.274 1.372-.548 1.92-.82 1.371-2.19 2.468-3.833 2.194z" fill="#533278"/><path d="M23.092 106.957c-2.19.823-4.655-.549-5.476-2.743-.821-2.194.547-4.662 2.738-5.485 2.19-.822 4.654.549 5.476 2.743.273 1.097.273 2.468-.274 3.565-.548.823-1.37 1.371-2.464 1.92z" fill="#FF5C35"/><path d="M56.494 29.345c-2.19 1.097-4.655 0-5.75-2.194-1.095-2.194 0-4.663 1.917-5.76 2.19-1.097 4.654 0 5.75 1.92.547 1.371.547 2.743-.275 4.114-.273.822-.82 1.645-1.642 1.92zM18.437 76.79c-2.464-.275-3.833-2.469-3.56-4.937.275-2.468 2.465-3.84 4.929-3.565 2.464.274 3.833 2.468 3.56 4.936 0 .549-.274 1.097-.548 1.371-.822 1.646-2.464 2.469-4.38 2.195zM34.59 47.17c-1.368 1.92-4.106 2.194-6.023.823-1.916-1.371-2.464-4.114-.82-6.033 1.368-1.92 4.106-2.194 6.023-.823 1.642 1.371 2.19 3.84 1.095 5.76l-.274.273zm92.815 58.964c-1.642-.823-2.464-2.743-1.916-4.663.821-1.645 2.738-2.742 4.654-1.92 1.643.824 2.464 2.743 1.917 4.663 0 0 0 .274-.274.274-.821 1.646-2.738 2.194-4.381 1.646zm-10.951 19.197c-1.369 1.097-3.833 1.097-4.929-.548a3.528 3.528 0 01.548-4.937c1.369-1.097 3.833-1.097 4.928.549.822 1.097 1.095 2.742.274 3.839-.274.274-.548.823-.821 1.097zm16.701-43.056c-1.917.274-3.559-1.372-3.833-3.291-.274-1.92 1.369-3.566 3.285-3.84 1.917-.274 3.56 1.371 3.833 3.291 0 .823 0 1.371-.547 1.92-.548 1.097-1.643 1.645-2.738 1.92z" fill="#533278"/><path d="M92.634 136.575c-1.916.275-3.833-.822-4.106-2.742-.274-1.92.82-3.84 2.737-4.114 1.917-.274 3.833.823 4.107 2.743.274.822 0 1.645-.274 2.468-.547.548-1.368 1.371-2.464 1.645z" fill="#FF5C35"/><path d="M126.858 58.415c-1.643 1.097-3.833.548-4.928-1.097-1.096-1.646-.548-3.84 1.095-4.937 1.643-1.097 3.833-.548 4.928 1.097.821 1.097.821 2.468 0 3.566 0 .548-.548.822-1.095 1.37zM66.35 135.478c-1.916-.548-3.011-2.468-2.464-4.388.548-1.919 2.464-3.016 4.38-2.468 1.917.549 3.012 2.468 2.465 4.388 0 .274-.274.549-.274.823-.821 1.371-2.464 1.92-4.107 1.645z" fill="#533278"/><path d="M105.776 41.411c-.274-.274-.274-.274 0 0-1.916-1.097-2.464-3.29-1.369-4.936.822-1.646 3.012-2.194 4.655-1.371 1.642 1.097 2.19 3.016 1.369 4.662-.822 1.92-3.012 2.468-4.655 1.645zM48.828 122.04a3.467 3.467 0 01-4.928 0 3.48 3.48 0 010-4.936 3.465 3.465 0 014.928 0c1.095 1.097 1.369 3.016.547 4.388l-.547.548z" fill="#FF5C35"/><path d="M83.6 34.83c-1.917 0-3.56-1.646-3.286-3.566 0-1.92 1.642-3.565 3.559-3.29 1.916 0 3.56 1.645 3.285 3.564 0 .549-.273 1.097-.547 1.646-.548 1.097-1.643 1.645-3.012 1.645zm-49.283 67.464c-1.917.549-3.833-.274-4.38-2.194-.549-1.92.273-3.84 2.19-4.388 1.916-.548 3.832.275 4.38 2.194.274 1.097.274 1.92-.274 2.743-.547.822-1.095 1.371-1.916 1.645zm26.831-62.802c-1.642.823-3.833 0-4.654-1.646-.821-1.645 0-3.84 1.643-4.662 1.643-.823 3.833 0 4.654 1.646.548 1.097.548 2.194 0 3.29-.547.549-.821 1.098-1.642 1.372zM30.484 77.887c-1.917-.275-3.285-2.194-3.012-4.114.274-1.92 2.19-3.291 4.107-3.017 1.917.274 3.286 2.194 3.012 4.114 0 .548-.274.823-.548 1.097-.547 1.371-1.916 2.194-3.559 1.92zm13.142-23.861c-1.095 1.646-3.286 1.92-4.928.823-1.643-1.097-1.917-3.29-.822-4.936 1.096-1.646 3.286-1.92 4.928-.823 1.37 1.097 1.917 3.017.822 4.662v.274z" fill="#533278"/></svg>