<svg width="194" height="194" fill="none" xmlns="http://www.w3.org/2000/svg"><path d="M189.872 99.814l-90.058 90.058c-1.5 1.501-3.752 1.501-5.253 0L4.128 99.814c-1.501-1.5-1.501-3.752 0-5.253L94.56 4.128c1.5-1.501 3.752-1.501 5.253 0l90.434 90.433c1.125 1.501 1.125 3.752-.376 5.253z" stroke="#FD0" stroke-width="1.663" stroke-miterlimit="10"/><path d="M143.718 105.068l-38.65 38.65c-4.503 4.503-11.633 4.503-15.76 0l-39.026-38.65c-4.502-4.503-4.502-11.632 0-15.76l38.65-38.65c4.503-4.503 11.633-4.503 15.761 0l38.649 38.65c4.879 4.127 4.879 11.257.376 15.76z" fill="#385CAD"/></svg>