<svg width="251" height="165" viewBox="0 0 251 165" fill="none" xmlns="http://www.w3.org/2000/svg">
<g clip-path="url(#clip0)">
<path d="M120.619 80.1689H14.1429C12.9568 80.1689 11.9531 79.1634 11.9531 77.975V3.29083C11.9531 2.10246 12.9568 1.09692 14.1429 1.09692H120.619C121.806 1.09692 122.809 2.10246 122.809 3.29083V77.975C122.809 79.1634 121.806 80.1689 120.619 80.1689Z" fill="#F4F1F1"/>
<path d="M12.002 28L123.002 28" stroke="#FDEEEA" stroke-width="1.9597" stroke-miterlimit="10"/>
<path d="M12.002 52L123.002 52" stroke="#FDEEEA" stroke-width="1.9597" stroke-miterlimit="10"/>
<path d="M30.4749 22.7618C34.1534 22.7618 37.1354 19.7741 37.1354 16.0887C37.1354 12.4032 34.1534 9.41553 30.4749 9.41553C26.7965 9.41553 23.8145 12.4032 23.8145 16.0887C23.8145 19.7741 26.7965 22.7618 30.4749 22.7618Z" fill="#7393FF"/>
<path d="M36.9601 41.314C37.7775 37.7206 35.5326 34.1438 31.9461 33.3249C28.3596 32.506 24.7895 34.7551 23.9721 38.3484C23.1548 41.9418 25.3996 45.5186 28.9862 46.3375C32.5727 47.1564 36.1427 44.9073 36.9601 41.314Z" fill="#7393FF"/>
<path d="M30.4749 71.1191C34.1534 71.1191 37.1354 68.1314 37.1354 64.446C37.1354 60.7605 34.1534 57.7728 30.4749 57.7728C26.7965 57.7728 23.8145 60.7605 23.8145 64.446C23.8145 68.1314 26.7965 71.1191 30.4749 71.1191Z" fill="#7393FF"/>
<path d="M41.2402 13.1635H101.093" stroke="#FD4F25" stroke-miterlimit="10" stroke-linecap="round" stroke-linejoin="round"/>
<path d="M41.2402 17.9169H50.0905" stroke="#FD4F25" stroke-miterlimit="10" stroke-linecap="round" stroke-linejoin="round"/>
<path d="M41.2402 37.205H101.093" stroke="#FD4F25" stroke-miterlimit="10" stroke-linecap="round" stroke-linejoin="round"/>
<path d="M41.2402 41.8669H72.9916" stroke="#FD4F25" stroke-miterlimit="10" stroke-linecap="round" stroke-linejoin="round"/>
<path d="M41.2402 62.0692H54.2875" stroke="#FD4F25" stroke-miterlimit="10" stroke-linecap="round" stroke-linejoin="round"/>
<path d="M41.2402 66.7313H101.093" stroke="#FD4F25" stroke-miterlimit="10" stroke-linecap="round" stroke-linejoin="round"/>
<path d="M27.7383 16.8199L29.6543 18.0997L33.1214 14.0775" stroke="white" stroke-width="1.2199" stroke-miterlimit="10" stroke-linecap="round" stroke-linejoin="round"/>
<path d="M27.7383 40.4958L29.6543 41.7756L33.1214 37.7534" stroke="white" stroke-width="1.2199" stroke-miterlimit="10" stroke-linecap="round" stroke-linejoin="round"/>
<path d="M27.7383 65.1772L29.6543 66.457L33.1214 62.5262" stroke="white" stroke-width="1.2199" stroke-miterlimit="10" stroke-linecap="round" stroke-linejoin="round"/>
<path d="M205.381 28.0637C212.99 28.0637 219.158 21.8837 219.158 14.2604C219.158 6.63699 212.99 0.457031 205.381 0.457031C197.772 0.457031 191.604 6.63699 191.604 14.2604C191.604 21.8837 197.772 28.0637 205.381 28.0637Z" stroke="#F1D5CE" stroke-width="0.9798" stroke-miterlimit="10" stroke-linecap="round" stroke-linejoin="round"/>
<path d="M205.381 8.31848V14.2603H214.687" stroke="#F1D5CE" stroke-width="0.9798" stroke-miterlimit="10" stroke-linecap="round" stroke-linejoin="round"/>
<path d="M230.745 52.3794H247.077C249.267 52.3794 251 50.6426 251 48.4487C251 46.2548 249.267 44.5179 247.077 44.5179H230.745C228.555 44.5179 226.822 46.2548 226.822 48.4487C226.73 50.6426 228.555 52.3794 230.745 52.3794Z" fill="#7393FF"/>
<path d="M242.332 48.4486C242.332 48.9971 242.788 49.5456 243.427 49.5456C243.974 49.5456 244.522 49.0885 244.522 48.4486C244.522 47.9002 244.066 47.3517 243.427 47.3517C242.879 47.4431 242.332 47.9002 242.332 48.4486Z" fill="white"/>
<path d="M237.861 48.4486C237.861 48.9971 238.318 49.5456 238.956 49.5456C239.504 49.5456 240.051 49.0885 240.051 48.4486C240.051 47.9002 239.595 47.3517 238.956 47.3517C238.318 47.3517 237.861 47.9002 237.861 48.4486Z" fill="white"/>
<path d="M233.299 48.4486C233.299 48.9971 233.755 49.5456 234.394 49.5456C234.941 49.5456 235.489 49.0885 235.489 48.4486C235.489 47.9002 235.032 47.3517 234.394 47.3517C233.755 47.3517 233.299 47.8087 233.299 48.4486Z" fill="white"/>
<path d="M159.76 119.659H180.38C191.967 119.659 200.088 112.163 202.004 100.737L207.113 70.2964" stroke="#1B172C" stroke-width="5.4628" stroke-miterlimit="10" stroke-linecap="round" stroke-linejoin="round"/>
<path d="M160.033 164.451L169.248 121.487C170.343 116.551 174.723 113.078 179.741 113.078C184.85 113.078 189.23 116.734 190.233 121.762L198.628 164.543" stroke="white" stroke-width="1.8791" stroke-miterlimit="10"/>
<path d="M118.611 158.327L123.356 143.061L131.02 142.695L126.184 158.967L118.885 159.058L118.611 158.327Z" fill="#FFBD9A"/>
<path d="M127.281 155.859C127.281 155.859 120.985 158.418 118.065 154.396L105.109 162.258L129.197 162.075L127.281 155.859Z" fill="black"/>
<path d="M129.191 162.092L105.104 162.247L105.118 164.441L129.205 164.286L129.191 162.092Z" fill="#F03C11"/>
<path d="M118.156 157.778C118.065 157.778 118.065 157.687 117.973 157.687C116.97 156.407 115.966 155.767 115.966 155.767C115.784 155.676 115.692 155.402 115.875 155.219C115.966 155.036 116.24 154.945 116.422 155.127C116.514 155.127 117.517 155.859 118.612 157.23C118.795 157.413 118.703 157.687 118.521 157.778C118.521 157.87 118.338 157.87 118.156 157.778Z" fill="white"/>
<path d="M116.148 158.784C116.057 158.784 116.057 158.693 115.966 158.693C114.962 157.413 113.958 156.773 113.958 156.773C113.776 156.681 113.685 156.407 113.867 156.224C113.958 156.042 114.232 155.95 114.414 156.133C114.506 156.133 115.509 156.864 116.604 158.235C116.787 158.418 116.695 158.693 116.513 158.784C116.422 158.875 116.239 158.875 116.148 158.784Z" fill="white"/>
<path d="M114.05 159.881C113.959 159.881 113.959 159.789 113.868 159.789C112.864 158.51 111.861 157.87 111.861 157.87C111.678 157.778 111.587 157.504 111.769 157.321C111.861 157.138 112.134 157.047 112.317 157.23C112.408 157.23 113.412 157.961 114.507 159.332C114.689 159.515 114.598 159.789 114.415 159.881C114.324 159.881 114.142 159.881 114.05 159.881Z" fill="white"/>
<path d="M145.345 99L138.775 99.4571C134.122 99.7313 130.199 102.931 128.921 107.501L118.611 147.449L132.936 146.078L144.523 110.975L145.345 99Z" fill="#007BDE"/>
<path d="M134.031 149.277H116.695L117.881 142.878H135.217L134.031 149.277Z" fill="#0086FF"/>
<path d="M146.35 158.327L146.532 143.244L154.105 142.878L153.922 158.967L146.623 159.058L146.35 158.327Z" fill="#FFBD9A"/>
<path d="M155.017 155.859C155.017 155.859 148.721 158.418 145.802 154.396L132.846 162.258L156.933 162.075L155.017 155.859Z" fill="black"/>
<path d="M156.929 162.092L132.842 162.247L132.856 164.441L156.943 164.286L156.929 162.092Z" fill="#FF5C35"/>
<path d="M145.892 157.778C145.801 157.778 145.801 157.687 145.71 157.687C144.706 156.407 143.702 155.767 143.702 155.767C143.52 155.676 143.429 155.402 143.611 155.219C143.702 155.036 143.976 154.945 144.159 155.127C144.25 155.127 145.253 155.859 146.348 157.23C146.531 157.413 146.44 157.687 146.257 157.778C146.166 157.87 146.075 157.87 145.892 157.778Z" fill="white"/>
<path d="M143.795 158.784C143.703 158.784 143.703 158.693 143.612 158.693C142.608 157.413 141.605 156.773 141.605 156.773C141.422 156.681 141.331 156.407 141.514 156.224C141.605 156.042 141.878 155.95 142.061 156.133C142.152 156.133 143.156 156.864 144.251 158.235C144.433 158.418 144.342 158.693 144.159 158.784C144.159 158.875 143.977 158.875 143.795 158.784Z" fill="white"/>
<path d="M141.787 159.881C141.695 159.881 141.695 159.789 141.604 159.789C140.601 158.51 139.597 157.87 139.597 157.87C139.414 157.778 139.323 157.504 139.506 157.321C139.597 157.138 139.871 157.047 140.053 157.23C140.144 157.23 141.148 157.961 142.243 159.332C142.425 159.515 142.334 159.789 142.152 159.881C142.06 159.881 141.878 159.881 141.787 159.881Z" fill="white"/>
<path d="M186.038 98.3601L165.327 99.1828L149.907 99.4571C145.436 99.4571 141.696 102.199 141.696 106.679C141.513 120.573 142.517 149.368 143.247 149.277C144.159 149.094 156.75 149.277 156.75 149.277L158.027 117.74L167.881 118.837C170.345 118.837 177.461 119.294 179.651 118.197C184.213 115.911 189.961 110.609 186.038 98.3601Z" fill="#0086FF"/>
<path d="M158.21 142.878H140.875V149.277H158.21V142.878Z" fill="#00B1FF"/>
<path d="M158.028 117.74L157.754 110.701" stroke="#55382C" stroke-width="0.8439" stroke-miterlimit="10"/>
<path d="M126.094 73.6786L117.791 69.4737C117.791 69.4737 111.039 69.0166 106.933 69.8393C106.477 69.9307 106.204 70.3878 106.295 70.7534C106.386 71.1191 106.751 71.3933 107.116 71.3019L110.948 70.8448L108.941 72.216C108.393 72.5817 108.485 73.4044 109.032 73.6786C109.306 73.7701 109.579 73.7701 109.853 73.6786C110.948 73.0388 114.598 71.3933 118.065 73.4044L114.78 74.867C114.141 75.1412 113.959 75.964 114.415 76.5124C114.598 76.7867 114.963 76.8781 115.328 76.8781L118.338 76.5124C118.338 76.5124 121.897 77.975 125.181 76.421L126.094 73.6786Z" fill="#FFC9BD"/>
<path d="M153.192 62.9834C150.546 69.4737 146.805 82.2715 146.805 82.2715L126.003 72.4903L123.266 79.6205L140.875 91.687L160.126 90.8643L161.586 75.7812L153.192 62.9834Z" fill="#FF9184"/>
<path d="M156.659 58.7784C155.29 59.8753 153.921 61.2465 153.191 62.9833L151.914 99.0914C151.914 99.0914 173.994 103.753 186.038 98.3601C186.038 98.3601 185.673 68.1025 178.83 60.1496C178.83 60.1496 176.64 55.9446 165.691 55.8531C162.498 55.8531 159.213 56.7673 156.659 58.7784Z" fill="#FF9184"/>
<path d="M154.65 69.3822L156.293 94.7035" stroke="#FF6C63" stroke-width="0.7349" stroke-miterlimit="10"/>
<path d="M133.301 90.3157L133.027 84.0996C133.027 84.0996 130.837 79.4376 128.739 79.3462C127.279 79.2548 125.363 80.3517 124.359 81.3572C123.903 81.8143 123.994 82.637 124.633 82.9113C125.637 83.3683 127.097 84.2825 127.826 85.3794C127.826 85.3794 126.823 90.4071 128.465 92.4182C129.286 93.4237 134.304 94.6121 134.304 94.6121L133.301 90.3157Z" fill="#FFC9BD"/>
<path d="M167.06 61.7949L163.046 87.1163L133.119 88.396V98.9999L165.327 98.1772C166.513 98.2686 167.516 97.8116 168.155 97.1717L168.52 97.3545C168.52 97.3545 177.279 97.5373 179.651 67.6453L167.06 61.7949Z" fill="#FF9184"/>
<path d="M135.947 88.3046L163.137 87.0248L166.33 66.5483" stroke="#FF6C63" stroke-width="0.7349" stroke-miterlimit="10"/>
<path d="M163.137 87.0248L167.243 88.3046" stroke="#FF6C63" stroke-width="0.7349" stroke-miterlimit="10"/>
<path d="M179.104 75.6897L176.093 89.2188C175.363 92.6011 173.538 95.7091 170.892 97.903L169.523 99" stroke="#FF6C63" stroke-width="0.7349" stroke-miterlimit="10"/>
<path d="M151.276 32.7257C151.276 32.7257 152.006 36.2908 151.276 38.4847C150.546 40.6786 148.174 41.6842 149.177 47.3518C150.272 53.0194 149.086 53.2022 148.812 54.7562C148.812 54.7562 171.531 56.8587 182.936 51.0083C182.936 51.0083 181.02 47.7174 178.83 44.0609C176.732 40.4044 175.911 34.3712 175.911 34.3712L167.152 30.9889L151.276 32.7257Z" fill="#954B55"/>
<path d="M156.66 28.5208C156.386 28.4294 157.39 26.9668 157.664 26.8753C161.678 25.5956 170.346 23.8587 174.726 30.9889C177.919 36.1994 174.726 46.072 167.883 49.0886C161.405 51.9224 162.499 30.4404 162.499 30.4404L156.66 28.5208Z" fill="#954B55"/>
<path d="M158.302 41.8671C158.484 43.6039 157.298 45.2493 155.473 45.4322C153.74 45.615 152.097 44.4266 151.915 42.5984C151.732 40.8615 152.919 39.2161 154.743 39.0333C156.477 38.8504 158.119 40.1302 158.302 41.8671Z" fill="#FFB1A7"/>
<path d="M159.396 50.4599L160.218 57.4072C160.491 59.8754 162.134 60.9723 164.506 60.6981C166.513 60.4239 168.338 59.1441 168.338 57.133L166.604 46.2549L159.396 50.4599Z" fill="#FFC9BD"/>
<path d="M159.852 54.7562C164.688 54.2992 167.243 47.3518 167.243 47.3518L159.305 49.7285L159.852 54.7562Z" fill="#1B172C"/>
<path d="M161.587 51.4654C157.481 51.6483 153.923 48.6316 153.649 45.2494L153.01 37.2965C152.645 33.0915 155.656 29.3436 159.853 28.7951C164.142 28.2466 168.795 31.2632 169.342 35.5596L169.798 41.9585C170.072 46.9862 166.879 51.0998 161.587 51.4654Z" fill="#FFC9BD"/>
<path d="M165.966 34.5541C164.05 37.4793 167.243 41.5928 167.243 41.5928L173.265 34.2798C173.174 34.3712 167.061 32.8172 165.966 34.5541Z" fill="#954B55"/>
<path d="M173.538 40.8614C173.721 42.5983 172.534 44.2437 170.71 44.4265C168.976 44.6094 167.334 43.421 167.151 41.5927C166.969 39.8559 168.155 38.2105 169.98 38.0276C171.713 37.8448 173.356 39.1246 173.538 40.8614Z" fill="#FFC9BD"/>
<path d="M169.34 42.324C169.34 42.324 169.067 40.0387 171.348 40.1301" stroke="#1B172C" stroke-width="0.5621" stroke-miterlimit="10" stroke-linecap="round" stroke-linejoin="round"/>
<path d="M157.48 44.0609V44.975H158.393" stroke="#1B172C" stroke-width="0.5621" stroke-miterlimit="10" stroke-linecap="round" stroke-linejoin="round"/>
<path d="M162.133 38.3019C162.133 38.3019 160.309 38.2105 160.309 38.8504C160.309 38.8504 160.309 39.216 161.86 39.3074C163.411 39.3074 163.776 39.216 163.958 38.8504C164.141 38.3933 162.955 38.2105 162.133 38.3019Z" fill="#793641"/>
<path d="M155.017 38.4847C155.017 38.4847 156.477 38.3019 156.66 38.8503C156.66 38.8503 156.751 39.216 155.474 39.3074C154.196 39.3988 153.74 39.3074 153.649 39.0332C153.466 38.7589 154.287 38.4847 155.017 38.4847Z" fill="#793641"/>
<path d="M160.492 42.0498C160.492 42.0498 161.313 40.9528 162.773 42.0498" stroke="#1B172C" stroke-width="0.7051" stroke-miterlimit="10" stroke-linecap="round" stroke-linejoin="round"/>
<path d="M154.379 42.2327C154.379 42.2327 155.109 41.1358 156.112 42.1413" stroke="#1B172C" stroke-width="0.7051" stroke-miterlimit="10" stroke-linecap="round" stroke-linejoin="round"/>
<path d="M159.031 46.7119C159.031 46.7119 160.217 46.9861 161.221 45.7977" stroke="#1B172C" stroke-width="0.7051" stroke-miterlimit="10" stroke-linecap="round" stroke-linejoin="round"/>
<path d="M157.663 26.8754C157.663 26.8754 148.904 30.0748 150.729 33.3657C152.097 35.8338 160.947 37.3878 169.341 35.651C169.341 35.651 173.174 32.5429 168.429 29.2521C168.338 29.2521 165.783 25.5956 157.663 26.8754Z" fill="#954B55"/>
<path d="M157.754 57.9556C157.754 57.9556 160.309 56.3102 163.958 55.8531C163.958 55.8531 168.338 55.5789 172.079 56.493C172.079 56.493 171.805 60.4238 164.414 61.3379C162.955 61.5207 161.495 61.4293 160.035 61.0637C158.575 60.6066 158.301 59.6011 157.754 57.9556Z" fill="#FFC9BD"/>
<path d="M132.935 97.2631H107.662V94.4293H132.844C133.665 94.4293 134.304 95.0692 134.304 95.8919C134.304 96.6232 133.665 97.2631 132.935 97.2631Z" fill="#061418"/>
<path d="M111.038 97.2631H74.8156C72.8996 97.2631 71.166 95.9834 70.7098 94.1551L63.5931 68.4681C63.3194 67.554 64.0494 66.5485 65.053 66.5485H101.64C102.461 66.5485 103.1 67.0969 103.374 67.8282L111.038 97.2631Z" fill="#1C2E34"/>
<path d="M88.502 82.5456C88.502 84.2825 87.0422 85.7451 85.3086 85.7451C83.5751 85.7451 82.1152 84.2825 82.1152 82.5456C82.1152 80.8088 83.5751 79.3462 85.3086 79.3462C87.1334 79.3462 88.502 80.7174 88.502 82.5456Z" fill="white"/>
<path d="M101.641 100.645V164.451" stroke="#55382E" stroke-width="1.1466" stroke-miterlimit="10"/>
<path d="M154.103 97.2631H46.5312V104.028H154.103V97.2631Z" fill="#533278"/>
<path d="M241.876 164.451H0" stroke="#55382E" stroke-width="1.1466" stroke-miterlimit="10"/>
</g>
<defs>
<clipPath id="clip0">
<rect width="251" height="165" fill="white"/>
</clipPath>
</defs>
</svg>
