<svg width="244" height="167" viewBox="0 0 244 167" fill="none" xmlns="http://www.w3.org/2000/svg">
<g clip-path="url(#clip0)">
<path d="M33.315 0H0V39.2568H33.315V0Z" fill="#F4F1F1"/>
<path d="M33.315 42.7942H0V83H33.315V42.7942Z" fill="#F4F1F1"/>
<path d="M70.2584 0H36.9434V39.2568H70.2584V0Z" fill="#F4F1F1"/>
<path d="M70.2603 42.7942H36.9453V83H70.2603V42.7942Z" fill="#F4F1F1"/>
<path d="M86.7296 127.624H83.1934V140.004H86.7296V127.624Z" fill="white"/>
<path d="M94.0819 126.227H76.1216C74.2604 126.227 72.7715 124.738 72.7715 122.876C72.7715 121.014 74.2604 119.525 76.1216 119.525H94.175C96.0362 119.525 97.5251 121.014 97.5251 122.876C97.4321 124.738 95.9431 126.227 94.0819 126.227Z" fill="#1C2E34"/>
<path d="M88.3117 124.645H81.8906V129.02H88.3117V124.645Z" fill="#1C2E34"/>
<path d="M88.3117 137.956H81.8906V157.133H88.3117V137.956Z" fill="#1C2E34"/>
<path d="M102.736 154.805H66.6289V157.505H102.736V154.805Z" fill="#1C2E34"/>
<path d="M68.7693 154.805H66.6289V163.09H68.7693V154.805Z" fill="#1C2E34"/>
<path d="M70.8174 163.09C70.8174 164.952 69.3285 166.441 67.4673 166.441C65.6061 166.441 64.1172 164.952 64.1172 163.09C64.1172 161.229 65.6061 159.739 67.4673 159.739C69.3285 159.832 70.8174 161.322 70.8174 163.09Z" fill="#1C2E34"/>
<path d="M102.83 154.805H100.689V163.09H102.83V154.805Z" fill="#1C2E34"/>
<path d="M104.876 163.09C104.876 164.952 103.387 166.441 101.526 166.441C99.6647 166.441 98.1758 164.952 98.1758 163.09C98.1758 161.229 99.6647 159.739 101.526 159.739C103.387 159.832 104.876 161.322 104.876 163.09Z" fill="#1C2E34"/>
<path d="M107.483 123.342C93.8038 123.342 82.6367 112.171 82.6367 98.4872V68.1405C82.6367 66.3718 84.0326 64.9755 85.8007 64.9755C87.5688 64.9755 88.9647 66.3718 88.9647 68.1405V98.5803C88.9647 108.82 97.2469 117.105 107.483 117.105C109.252 117.105 110.647 118.501 110.647 120.27C110.554 121.945 109.158 123.342 107.483 123.342Z" fill="#FF6E65"/>
<path d="M85.8 64.9755H52.2988L54.3461 89.5507L53.4155 107.982L70.073 118.687L73.9815 123.342H107.483L98.3629 117.57L91.5696 109.937L88.8709 108.261L86.6375 93.3673L86.4514 75.4013L85.8 64.9755Z" fill="#FF6E65"/>
<path d="M73.9814 123.342C60.3018 123.342 49.1348 112.171 49.1348 98.4872V68.1405C49.1348 66.3718 50.5306 64.9755 52.2988 64.9755C54.0669 64.9755 55.4628 66.3718 55.4628 68.1405V98.5803C55.4628 108.82 63.745 117.105 73.9814 117.105C75.7496 117.105 77.1454 118.501 77.1454 120.27C77.1454 121.945 75.7496 123.342 73.9814 123.342Z" fill="#FF9184"/>
<path d="M127.769 159.088L127.583 141.122L118.463 140.656L118.649 159.925L127.49 160.018L127.769 159.088Z" fill="#FFB0A0"/>
<path d="M117.438 156.109C117.438 156.109 124.976 159.181 128.512 154.34L144.053 163.742L115.111 163.556L117.438 156.109Z" fill="#0B181B"/>
<path d="M115.041 163.53L115.023 166.23L143.965 166.416L143.982 163.717L115.041 163.53Z" fill="#F03C11"/>
<path d="M128.326 158.529C128.419 158.529 128.512 158.436 128.512 158.343C129.722 156.76 130.838 156.016 130.931 156.016C131.211 155.829 131.211 155.55 131.118 155.364C130.931 155.178 130.652 155.085 130.373 155.271C130.28 155.271 129.07 156.109 127.767 157.877C127.581 158.064 127.674 158.436 127.861 158.529C127.954 158.529 128.14 158.529 128.326 158.529Z" fill="white"/>
<path d="M130.746 159.739C130.839 159.739 130.932 159.646 130.932 159.553C132.142 157.971 133.258 157.226 133.351 157.226C133.631 157.04 133.631 156.76 133.538 156.574C133.351 156.388 133.072 156.295 132.793 156.481C132.7 156.481 131.49 157.319 130.187 159.088C130.001 159.274 130.094 159.646 130.28 159.739C130.467 159.739 130.653 159.832 130.746 159.739Z" fill="white"/>
<path d="M133.259 160.949C133.352 160.949 133.446 160.856 133.446 160.763C134.655 159.181 135.865 158.436 135.865 158.436C136.144 158.25 136.144 157.971 136.051 157.784C135.865 157.598 135.586 157.505 135.307 157.691C135.214 157.691 134.004 158.529 132.701 160.298C132.515 160.484 132.608 160.856 132.794 160.949C132.887 161.042 133.073 161.042 133.259 160.949Z" fill="white"/>
<path d="M94.5469 99.418L98.8276 102.955C97.6178 110.589 93.4302 117.57 101.247 117.57H115.02V149.127L130.468 149.313L131.305 110.589C131.398 104.445 126.466 99.418 120.324 99.325L94.5469 99.418Z" fill="#007BDE"/>
<path d="M114.024 149.316H131.705V143.359H114.024V149.316Z" fill="#0086FF"/>
<path d="M103.11 159.088L102.831 141.122L93.7109 140.656L93.9901 159.925L102.831 160.018L103.11 159.088Z" fill="#FFB0A0"/>
<path d="M92.6878 156.109C92.6878 156.109 100.226 159.181 103.762 154.34L119.303 163.742L90.3613 163.556L92.6878 156.109Z" fill="#0B181B"/>
<path d="M90.3631 163.605L90.3457 166.305L119.287 166.491L119.304 163.792L90.3631 163.605Z" fill="#FF5C35"/>
<path d="M103.574 158.529C103.667 158.529 103.76 158.436 103.76 158.343C104.97 156.76 106.086 156.016 106.18 156.016C106.459 155.829 106.459 155.55 106.366 155.364C106.18 155.178 105.9 155.085 105.621 155.271C105.528 155.271 104.318 156.109 103.016 157.877C102.829 158.064 102.922 158.436 103.109 158.529C103.295 158.529 103.481 158.529 103.574 158.529Z" fill="white"/>
<path d="M106.088 159.739C106.181 159.739 106.274 159.646 106.274 159.553C107.483 157.971 108.6 157.226 108.693 157.226C108.972 157.04 108.972 156.76 108.879 156.574C108.693 156.388 108.414 156.295 108.135 156.481C108.042 156.481 106.832 157.319 105.529 159.088C105.343 159.274 105.436 159.646 105.622 159.739C105.715 159.739 105.994 159.832 106.088 159.739Z" fill="white"/>
<path d="M108.599 160.949C108.692 160.949 108.785 160.856 108.785 160.763C109.995 159.181 111.205 158.436 111.205 158.436C111.484 158.25 111.484 157.971 111.391 157.784C111.205 157.598 110.926 157.505 110.647 157.691C110.553 157.691 109.344 158.529 108.041 160.298C107.855 160.484 107.948 160.856 108.134 160.949C108.227 161.042 108.413 161.042 108.599 160.949Z" fill="white"/>
<path d="M75.1916 99.418L74.6332 102.955C73.4235 110.589 79.2862 117.57 87.01 117.57H90.7324V149.127L106.18 149.313L107.018 110.589C107.111 104.445 102.179 99.418 96.0367 99.325L75.1916 99.418Z" fill="#0086FF"/>
<path d="M89.729 149.316H107.41V143.359H89.729V149.316Z" fill="#00B1FF"/>
<path d="M113.439 85.8273L134.191 90.1093L135.308 94.2983L108.134 94.6706L105.994 83.407L113.439 85.8273Z" fill="#F9A498"/>
<path d="M131.12 89.9232C131.12 89.9232 135.4 87.3168 139.588 88.4338C142.38 89.1785 145.079 91.785 144.892 94.6707L128.049 94.4845L131.12 89.9232Z" fill="#F9A498"/>
<path d="M114.648 70.7469L117.068 88.5268C117.068 88.5268 106.738 94.019 106.924 93.3674C107.11 92.7157 104.598 70.7469 104.598 70.7469H114.648Z" fill="#F9A498"/>
<path d="M105.436 56.0391C105.436 56.0391 113.066 57.2492 114.741 63.7654C116.975 72.2364 117.905 73.4465 117.905 73.4465L106.366 75.1221L105.436 56.0391Z" fill="#0B181B"/>
<path d="M90.7315 53.8981L105.342 56.0391C106.831 56.2253 107.947 57.5285 107.947 59.0179L108.32 93.7398L75.656 93.8329L73.5156 63.5792L74.7254 59.4834C75.2837 57.5285 76.9588 56.1322 78.913 55.8529L90.7315 53.8981Z" fill="#0B181B"/>
<path d="M81.1463 73.3536L75.0975 89.1786L65.6055 80.9868L69.3278 69.537L81.1463 73.3536Z" fill="#FFB0A0"/>
<path d="M87.1025 55.1083C87.1025 55.1083 75.7493 55.0152 72.9576 58.3664C69.3283 62.6484 65.1406 73.4466 65.1406 73.4466L83.6593 77.5425L87.1025 55.1083Z" fill="#0B181B"/>
<path d="M76.1221 86.479L97.4326 91.2265L96.595 95.974L71.3761 96.1602C71.3761 96.1602 60.116 93.9261 65.6065 80.9868L76.1221 86.479Z" fill="#FFB0A0"/>
<path d="M97.4316 91.2265C97.4316 91.2265 102.457 89.2717 106.551 90.0164C109.343 90.5749 111.297 93.2744 111.018 96.0671L94.2676 95.8809L97.4316 91.2265Z" fill="#FFB0A0"/>
<path d="M76.1227 86.479L70.8184 85.8274" stroke="#E98980" stroke-width="0.5" stroke-miterlimit="10"/>
<path d="M100.504 28.0195C100.504 28.0195 106.274 33.5117 100.597 35.4666L100.504 28.0195Z" fill="#0B181B"/>
<path d="M97.0602 37.7938C96.9671 40.0279 98.7352 41.8897 100.876 41.8897C103.016 41.9828 104.784 40.2141 104.877 37.98C104.97 35.7459 103.202 33.8841 101.062 33.8841C98.9213 33.791 97.1532 35.5597 97.0602 37.7938Z" fill="#0077C9"/>
<path d="M96.0374 46.3579L96.3166 54.0842C96.4096 56.7838 94.8276 58.2732 92.315 58.3663C90.0816 58.4594 87.6621 57.4354 87.6621 55.0151V42.8206L96.0374 46.3579Z" fill="#FFB0A0"/>
<path d="M96.2229 51.4777C96.2229 51.4777 89.988 52.2224 87.7546 45.2408C87.0101 43.0067 96.0368 45.5201 96.0368 45.5201L96.2229 51.4777Z" fill="#0B181B"/>
<path d="M93.8024 48.6851C98.1762 48.4989 101.712 44.7754 101.712 41.0518L101.619 33.2325C101.619 28.578 97.9901 24.7614 93.4302 24.5753C88.7772 24.3891 84.1243 28.2057 84.0312 32.9532L84.1243 39.0039C84.3104 44.4961 88.4981 48.4989 93.8024 48.6851Z" fill="#FFB0A0"/>
<path d="M97.0595 38.9109L97.2456 40.4003L96.1289 40.4934" stroke="#0B181B" stroke-width="0.5266" stroke-miterlimit="10" stroke-linecap="round" stroke-linejoin="round"/>
<path d="M92.1284 34.3495C92.1284 34.3495 93.8965 34.1634 93.9896 34.9081C93.9896 34.9081 93.9896 35.4666 92.4076 35.5597C90.8256 35.7459 90.4533 35.6528 90.2672 35.1873C90.0811 34.7219 91.2909 34.4426 92.1284 34.3495Z" fill="#0B181B"/>
<path d="M99.4798 34.0703C99.4798 34.0703 97.9908 33.9772 97.8978 34.7219C97.8978 34.7219 97.8047 35.1873 99.2006 35.2804C100.503 35.3735 100.969 35.1873 101.062 34.7219C101.062 34.2564 100.131 34.0703 99.4798 34.0703Z" fill="#0B181B"/>
<path d="M98.457 37.3284C98.457 37.7938 98.8293 38.0731 99.2015 38.0731C99.6668 38.0731 99.946 37.7008 99.946 37.3284C99.946 36.863 99.5737 36.5837 99.2015 36.5837C98.8293 36.4906 98.457 36.863 98.457 37.3284Z" fill="#0B181B"/>
<path d="M91.8496 37.3283C91.8496 37.7938 92.2218 38.073 92.5941 38.073C93.0594 38.073 93.3386 37.7007 93.3386 37.3283C93.3386 36.8629 92.9663 36.5836 92.5941 36.5836C92.1288 36.5836 91.8496 36.956 91.8496 37.3283Z" fill="#0B181B"/>
<path d="M95.3848 43.0998L97.339 42.8206" stroke="#0B181B" stroke-width="0.5266" stroke-miterlimit="10" stroke-linecap="round" stroke-linejoin="round"/>
<path d="M106.272 25.413L102.922 24.9476C103.946 24.296 104.876 23.7374 104.876 23.7374C104.876 23.7374 102.55 22.9927 99.572 22.9927C97.6178 21.8757 95.0121 21.2241 92.4065 21.131C88.498 21.0379 85.1479 23.1789 84.0312 25.5061C84.0312 25.5061 80.7742 25.3199 80.4019 28.9504C79.8436 33.6979 85.5202 41.5173 85.5202 41.5173L86.1716 35.2804C89.7078 35.0011 89.8939 31.9292 89.6147 29.8813C91.1967 29.9743 96.6872 30.3467 100.968 29.4158C101.433 29.3227 102.085 29.2296 102.643 28.9504C104.504 28.2988 105.993 27.1817 106.272 25.413Z" fill="#0B181B"/>
<path d="M80.1235 39.0039C80.0305 40.7726 81.4264 42.262 83.1014 42.3551C84.7765 42.4482 86.2654 41.0519 86.2654 39.2832C86.3585 37.5145 84.9626 36.0251 83.2875 35.932C81.5194 35.8389 80.1235 37.2352 80.1235 39.0039Z" fill="#FFBA99"/>
<path d="M84.2185 39.9348C84.2185 39.9348 84.3115 37.6076 82.0781 37.8869" stroke="#312220" stroke-width="0.5575" stroke-miterlimit="10" stroke-linecap="round" stroke-linejoin="round"/>
<path d="M95.2923 20.9448L95.3853 21.4102C95.3853 21.4102 89.8018 21.9688 87.1961 25.413C84.3113 29.2296 84.3113 34.3495 84.3113 34.3495L83.1016 34.4426L83.1946 26.3439L85.6141 23.8305L89.5226 21.5033L92.2213 20.6655L95.2923 20.9448Z" fill="#0077C9"/>
<path d="M87.6619 37.3283C88.2202 40.0279 86.5452 42.6344 83.102 43.3791C80.6825 43.9376 79.5658 41.8897 78.9144 39.1901C78.356 36.4905 79.8449 33.8841 82.1714 33.4186C84.684 32.8601 87.1035 34.6288 87.6619 37.3283Z" fill="#0077C9"/>
<path d="M86.4516 37.6076C87.01 40.3072 85.521 42.9137 83.1946 43.3791C80.775 43.9376 78.3555 42.169 77.7972 39.4694C77.2388 36.7698 78.7278 34.1634 81.0542 33.6979C83.3807 33.1394 85.8002 34.9081 86.4516 37.6076Z" fill="#0086FF"/>
<path d="M81.3331 34.2564C81.3331 34.2564 80.8678 31.2776 81.6122 28.0195C82.5428 23.9237 85.7999 20.9449 89.8945 20.2001C90.1736 20.1071 90.5459 20.1071 90.9181 20.014C92.1279 19.8278 93.4307 19.9209 94.5474 20.3863C94.8266 20.4794 95.1058 20.6656 95.2919 20.8518C95.2919 20.8518 89.8014 21.0379 87.1958 24.0168C84.2179 27.2748 83.4734 31.7431 83.6595 34.6288L81.3331 34.2564Z" fill="#0086FF"/>
<path d="M84.5898 54.922L90.7317 53.8981L98.9209 55.1082C98.9209 55.1082 99.3862 59.8557 92.4998 60.0419C85.6135 60.2281 84.5898 54.922 84.5898 54.922Z" fill="#FFB0A0"/>
<path d="M121.814 78.5663L124.699 80.7073L145.265 63.2998L195.424 35.5596L192.725 33.6047L158.293 44.2168L121.814 78.5663Z" fill="#CB9DA8"/>
<path d="M128.886 35.1872L120.697 75.7736C120.325 77.5423 121.721 79.1248 123.489 79.1248H182.302C183.605 79.1248 184.722 78.1939 185.001 76.8907L193.655 36.3043C194.028 34.5356 192.725 32.9531 190.957 32.9531H131.678C130.282 32.9531 129.166 33.884 128.886 35.1872Z" fill="#CB9DA8"/>
<path d="M131.492 37.1421L123.303 77.7285C122.93 79.4972 124.326 81.0796 126.094 81.0796H184.908C186.21 81.0796 187.327 80.1488 187.606 78.8455L196.261 38.2591C196.633 36.4905 195.33 34.908 193.562 34.908H134.284C132.981 34.908 131.771 35.8388 131.492 37.1421Z" fill="#EAC8CE"/>
<path d="M152.895 70.3745L151.871 81.0796H156.617L152.895 70.3745Z" fill="#CB9DA8"/>
<path d="M152.895 70.0952L157.827 94.1119H175.508L167.226 70.0952H152.895Z" fill="#F6DAE0"/>
<path d="M162.293 55.5735C164.452 55.5735 166.202 53.8231 166.202 51.6638C166.202 49.5046 164.452 47.7542 162.293 47.7542C160.135 47.7542 158.385 49.5046 158.385 51.6638C158.385 53.8231 160.135 55.5735 162.293 55.5735Z" fill="white"/>
<path d="M186.024 91.8779H144.148C143.497 91.8779 143.031 92.4365 143.031 92.995C143.031 93.6466 143.59 94.112 144.148 94.112H186.024C186.676 94.112 187.141 93.5535 187.141 92.995C187.234 92.4365 186.676 91.8779 186.024 91.8779Z" fill="#EAC8CE"/>
<path d="M133.911 91.8779H111.763C111.112 91.8779 110.646 92.4365 110.646 92.995C110.646 93.6466 111.205 94.112 111.763 94.112H133.911C134.563 94.112 135.028 93.5535 135.028 92.995C135.028 92.4365 134.563 91.8779 133.911 91.8779Z" fill="#EAC8CE"/>
<path d="M106.551 97.9286V166.441" stroke="#55382E" stroke-width="1.1607" stroke-miterlimit="10"/>
<path d="M63.0938 97.9286V166.441" stroke="#55382E" stroke-width="1.1607" stroke-miterlimit="10"/>
<path d="M211.895 97.9286V166.441" stroke="#55382E" stroke-width="1.1607" stroke-miterlimit="10"/>
<path d="M168.436 97.9286V166.441" stroke="#55382E" stroke-width="1.1607" stroke-miterlimit="10"/>
<path d="M94.0819 94.1119H53.043V99.6041H94.0819V94.1119Z" fill="#3F0B79"/>
<path d="M223.061 94.1119H93.9883V99.6041H223.061V94.1119Z" fill="#533278"/>
<path d="M244 166.441H15.541" stroke="#55382E" stroke-width="1.1607" stroke-miterlimit="10"/>
</g>
<defs>
<clipPath id="clip0">
<rect width="244" height="167" fill="white"/>
</clipPath>
</defs>
</svg>
