<svg width="281" height="166" viewBox="0 0 281 166" fill="none" xmlns="http://www.w3.org/2000/svg">
<path d="M201.262 123.056H171.865C170.136 123.056 168.791 121.708 168.791 119.975C168.791 118.241 170.136 116.893 171.865 116.893H201.262C202.991 116.893 204.336 118.241 204.336 119.975C204.336 121.611 202.991 123.056 201.262 123.056Z" fill="#C56E81"/>
<path d="M221.436 123.056H186.755C184.353 123.056 182.72 120.745 183.392 118.434L199.916 61.2389C200.397 59.6983 201.742 58.6392 203.279 58.6392H237.959C240.361 58.6392 241.994 60.9501 241.322 63.261L224.798 120.456C224.414 121.996 223.069 123.056 221.436 123.056Z" fill="#C56E81"/>
<path d="M216.729 123.056H186.563C184.162 123.056 182.529 120.745 183.201 118.434L199.725 61.2389C200.205 59.6983 201.55 58.6392 203.087 58.6392H233.253C235.654 58.6392 237.288 60.9501 236.615 63.261L220.091 120.456C219.707 121.996 218.266 123.056 216.729 123.056Z" fill="white"/>
<path d="M221.436 123.056H184.738C183.009 123.056 181.664 121.708 181.664 119.975C181.664 118.241 183.009 116.893 184.738 116.893H221.436C223.166 116.893 224.511 118.241 224.511 119.975C224.607 121.611 223.166 123.056 221.436 123.056Z" fill="#C56E81"/>
<path d="M177.534 55.8469C177.534 55.8469 169.368 67.1126 163.508 80.4966C162.835 82.0372 163.028 83.7704 163.892 85.1184C165.91 88.1996 171.193 87.5256 173.211 84.6369C173.211 84.6369 188.678 63.0685 188.101 62.2019C188.005 62.0093 177.534 55.8469 177.534 55.8469Z" fill="#EAC8CE"/>
<path d="M167.927 76.645L147.657 68.3643L145.928 79.0522L166.39 86.8515C167.159 87.1403 167.927 87.2366 168.696 87.0441C171.386 86.4663 173.211 83.8666 172.731 80.9779C172.25 78.5707 170.329 76.8376 167.927 76.645Z" fill="#EAC8CE"/>
<path d="M193.385 53.2471L179.359 55.0765C177.918 55.2691 176.862 56.5209 177.054 57.9652L186.18 97.4431L216.346 97.3468L212.119 58.0615C212.311 56.6171 211.254 55.2691 209.717 55.0765L193.385 53.2471Z" fill="#EAC8CE"/>
<path d="M180.992 74.4303C180.992 73.9488 178.494 64.3201 178.494 64.3201" stroke="#D5B2BA" stroke-width="0.8439" stroke-miterlimit="10"/>
<path d="M188.1 92.7247H163.795V89.9324H188.1C188.869 89.9324 189.445 90.5101 189.445 91.2804C189.445 92.147 188.869 92.7247 188.1 92.7247Z" fill="#061418"/>
<path d="M166.966 92.7247H131.997C130.172 92.7247 128.539 91.473 128.058 89.6435L121.814 67.0159C121.237 64.9939 122.774 63.0681 124.792 63.0681H157.071C158.32 63.0681 159.377 63.9347 159.665 65.0902L166.966 92.7247Z" fill="#1C2E34"/>
<path d="M146.023 79.1481C146.023 80.8813 144.678 82.2293 142.949 82.2293C141.22 82.2293 139.875 80.8813 139.875 79.1481C139.875 77.4149 141.22 76.0669 142.949 76.0669C144.582 76.1632 146.023 77.5112 146.023 79.1481Z" fill="white"/>
<path d="M200.014 62.7794C200.014 62.7794 207.699 77.9928 216.345 90.2214C217.306 91.5694 219.612 92.2434 221.245 92.2434C224.991 92.0509 226.625 88.0068 225.184 84.6367C225.184 84.6367 213.079 56.5207 211.35 56.1355C211.158 56.0393 200.014 62.7794 200.014 62.7794Z" fill="#EAC8CE"/>
<path d="M191.271 86.7551L197.9 86.2737L197.612 92.9175H191.944L191.271 86.7551Z" fill="#C35F54"/>
<path d="M191.751 86.7552C191.751 86.7552 176.668 80.8816 178.301 92.8213H192.808L191.751 86.7552Z" fill="#C35F54"/>
<path d="M219.611 81.9407L195.979 82.711L196.459 93.3026L221.052 92.8212C224.511 92.3398 226.72 88.6808 225.375 85.407C224.511 83.0961 222.109 81.6518 219.611 81.9407Z" fill="#EAC8CE"/>
<path d="M204.625 68.6531L210.869 82.2296L195.979 82.7111V86.2737" stroke="#D5B2BA" stroke-width="0.8439" stroke-miterlimit="10"/>
<path d="M210.869 82.2297L214.135 83.8666" stroke="#D5B2BA" stroke-width="0.8439" stroke-miterlimit="10"/>
<path d="M183.682 37.3597C183.97 39.0929 182.818 40.6335 181.184 40.9224C179.551 41.2113 178.014 40.0558 177.726 38.3226C177.438 36.5894 178.591 35.0488 180.224 34.76C181.953 34.5674 183.49 35.7229 183.682 37.3597Z" fill="#0B181B"/>
<path d="M187.908 45.6403L188.581 53.9211C188.773 56.8097 190.694 58.254 193.48 57.9651C195.882 57.7726 198.284 56.3282 197.995 53.8248L196.266 40.8259L187.908 45.6403Z" fill="#C35F54"/>
<path d="M189.83 48.2401C185.123 48.6252 180.896 45.1589 180.415 41.2111L179.455 32.9304C178.878 27.9234 182.144 23.3979 186.948 22.6276C191.847 21.8573 197.323 25.2273 198.092 30.3306L198.764 36.7819C199.437 42.5591 195.498 47.3735 189.83 48.2401Z" fill="#C35F54"/>
<path d="M185.123 38.0337V39.9594L186.276 39.8632" stroke="#312220" stroke-width="0.5778" stroke-miterlimit="10" stroke-linecap="round" stroke-linejoin="round"/>
<path d="M189.83 33.0266C189.83 33.0266 187.908 33.0266 187.908 33.7969C187.908 33.7969 187.908 34.3746 189.637 34.2784C191.367 34.2784 191.751 34.0858 191.847 33.5081C192.039 33.1229 190.79 33.0266 189.83 33.0266Z" fill="#0B181B"/>
<path d="M181.953 33.5081C181.953 33.5081 183.49 33.2193 183.682 33.9896C183.682 33.9896 183.778 34.471 182.433 34.7599C181.088 34.9525 180.608 34.8562 180.415 34.471C180.223 33.8933 181.184 33.6044 181.953 33.5081Z" fill="#0B181B"/>
<path d="M188.197 36.6855C188.197 36.6855 189.446 35.7226 190.695 36.6855" stroke="#312220" stroke-width="0.5778" stroke-miterlimit="10" stroke-linecap="round" stroke-linejoin="round"/>
<path d="M183.488 37.1669C183.488 37.1669 182.624 36.204 181.375 37.3595" stroke="#312220" stroke-width="0.5778" stroke-miterlimit="10" stroke-linecap="round" stroke-linejoin="round"/>
<path d="M193.384 26.0939C193.384 26.0939 191.175 28.9826 195.594 32.4489C195.594 32.4489 194.825 39.5742 193.864 41.4037C193.864 41.4037 184.93 39.5742 180.703 42.4628C180.703 42.4628 180.895 48.7215 188.196 49.0104C197.995 49.3956 198.956 39.4779 198.956 39.4779L196.939 34.6635L200.301 35.145C200.301 35.145 207.026 24.9385 196.554 24.9385L193.384 26.0939Z" fill="#0B181B"/>
<path d="M202.415 35.9154C202.703 37.6486 201.55 39.1892 199.917 39.4781C198.284 39.7669 196.747 38.6115 196.458 36.8783C196.17 35.1451 197.323 33.6045 198.956 33.3156C200.685 33.1231 202.126 34.2785 202.415 35.9154Z" fill="#C35F54"/>
<path d="M198.571 37.2634C198.571 37.2634 198.283 35.0488 200.3 35.0488" stroke="#312220" stroke-width="0.5189" stroke-miterlimit="10" stroke-linecap="round" stroke-linejoin="round"/>
<path d="M193.864 26.5753C193.864 26.5753 185.698 27.0568 180.799 26.6716C180.799 26.6716 175.9 24.8422 177.917 21.8572C179.55 19.5463 183.393 21.4721 183.393 21.4721C183.393 21.4721 183.297 19.0649 185.026 18.3909C187.043 17.6206 193 16.9466 198.091 25.0347L193.864 26.5753Z" fill="#0B181B"/>
<path d="M188.484 53.9212L185.89 54.21C185.89 54.21 184.738 58.543 190.79 59.0244C197.13 59.5059 199.532 57.0987 200.781 54.0175L193.864 52.6694L188.484 53.9212Z" fill="#C35F54"/>
<path d="M163.874 157.522L172.809 157.484L172.758 145.448L163.824 145.486L163.874 157.522Z" fill="#C35F54"/>
<path d="M193.002 97.4431L193.674 101.295C195.019 109.479 188.679 116.99 180.417 116.99H176.478V150.883L159.954 151.075L158.993 109.575C158.897 102.932 164.181 97.5394 170.714 97.5394L193.002 97.4431Z" fill="#0086FF"/>
<path d="M172.922 155.793C170.808 156.371 166.005 157.815 163.795 154.638L148.809 162.822L175.323 162.63L174.171 156.66C174.075 155.986 173.498 155.601 172.922 155.793Z" fill="#0B181B"/>
<path d="M148.813 165.093L175.328 164.919L175.313 162.608L148.798 162.783L148.813 165.093Z" fill="white"/>
<path d="M163.988 158.201C163.892 158.201 163.892 158.104 163.796 158.104C162.835 156.756 161.875 156.082 161.875 156.082C161.682 155.986 161.586 155.697 161.779 155.504C161.875 155.312 162.163 155.216 162.355 155.408C162.355 155.408 163.412 156.178 164.565 157.623C164.661 157.815 164.661 158.104 164.468 158.201C164.276 158.201 164.084 158.201 163.988 158.201Z" fill="white"/>
<path d="M161.971 159.26C161.874 159.26 161.874 159.164 161.778 159.164C160.818 157.816 159.857 157.142 159.857 157.142C159.665 157.045 159.569 156.756 159.761 156.564C159.857 156.371 160.145 156.275 160.337 156.468C160.337 156.468 161.394 157.238 162.547 158.682C162.643 158.875 162.643 159.164 162.451 159.26C162.259 159.26 162.067 159.26 161.971 159.26Z" fill="white"/>
<path d="M159.857 160.319C159.761 160.319 159.761 160.223 159.665 160.223C158.704 158.875 157.744 158.201 157.744 158.201C157.552 158.104 157.456 157.815 157.648 157.623C157.744 157.43 158.032 157.334 158.224 157.527C158.224 157.527 159.281 158.297 160.434 159.741C160.53 159.934 160.53 160.223 160.338 160.319C160.145 160.319 160.049 160.415 159.857 160.319Z" fill="white"/>
<path d="M187.179 157.522L196.113 157.484L196.063 145.448L187.128 145.486L187.179 157.522Z" fill="#C35F54"/>
<path d="M196.076 155.312C193.962 155.89 189.255 157.719 187.045 154.446L172.059 162.63L198.573 162.437L197.325 156.082C197.228 155.505 196.652 155.12 196.076 155.312Z" fill="#0B181B"/>
<path d="M172.046 164.878L198.561 164.703L198.545 162.392L172.031 162.567L172.046 164.878Z" fill="white"/>
<path d="M187.142 158.008C187.046 158.008 187.046 157.912 186.95 157.912C185.99 156.564 185.029 155.89 185.029 155.89C184.837 155.794 184.741 155.505 184.933 155.312C185.029 155.12 185.317 155.023 185.509 155.216C185.509 155.216 186.566 155.986 187.719 157.43C187.815 157.623 187.815 157.912 187.623 158.008C187.431 158.008 187.335 158.104 187.142 158.008Z" fill="white"/>
<path d="M185.125 159.067C185.029 159.067 185.029 158.971 184.933 158.971C183.972 157.623 183.011 156.949 183.011 156.949C182.819 156.853 182.723 156.564 182.915 156.371C183.011 156.179 183.3 156.083 183.492 156.275C183.492 156.275 184.548 157.045 185.701 158.49C185.797 158.682 185.797 158.971 185.605 159.067C185.413 159.164 185.221 159.164 185.125 159.067Z" fill="white"/>
<path d="M183.107 160.127C183.011 160.127 183.011 160.03 182.915 160.03C181.954 158.682 180.994 158.008 180.994 158.008C180.802 157.912 180.706 157.623 180.898 157.431C180.994 157.238 181.282 157.142 181.474 157.334C181.474 157.334 182.531 158.105 183.684 159.549C183.78 159.741 183.78 160.03 183.588 160.127C183.395 160.223 183.203 160.223 183.107 160.127Z" fill="white"/>
<path d="M216.347 97.4431L217.02 101.295C218.365 109.479 212.024 116.99 203.762 116.99H199.824V150.883L183.3 151.075L182.339 109.575C182.243 102.932 187.527 97.5394 194.06 97.5394L216.347 97.4431Z" fill="#0086FF"/>
<path d="M182.146 116.797V108.901C182.146 102.45 187.334 97.1543 193.771 97.1543H196.749" stroke="#55382C" stroke-width="0.8439" stroke-miterlimit="10"/>
<path d="M144.198 165.808L120.469 95.325L101.447 164.941" stroke="#55382E" stroke-width="1.1466" stroke-miterlimit="10"/>
<path d="M243.629 165.808L219.996 95.325L200.975 164.941" stroke="#55382E" stroke-width="1.1466" stroke-miterlimit="10"/>
<path d="M254.004 92.7251H85.8848V97.5395H254.004V92.7251Z" fill="#533278"/>
<path d="M112.015 30.5232H151.788C152.941 30.5232 153.805 29.6566 153.805 28.5012V15.2134C153.805 14.058 152.941 13.1914 151.788 13.1914H112.015C110.863 13.1914 109.998 14.058 109.998 15.2134V28.5012C109.998 29.5603 110.863 30.5232 112.015 30.5232Z" fill="#F4F1F1"/>
<path d="M146.12 19.8352H117.012" stroke="#FD4F25" stroke-miterlimit="10" stroke-linecap="round" stroke-linejoin="round"/>
<path d="M127.002 24.457H117.107" stroke="#FD4F25" stroke-miterlimit="10" stroke-linecap="round" stroke-linejoin="round"/>
<path d="M147.657 28.2122V36.0115L137.666 28.2122H147.657Z" fill="#F4F1F1"/>
<path d="M78.9669 41.5002L85.1153 65.6685L97.0278 86.3703L92.8969 89.8367L75.9888 68.6534L69.168 49.0107L78.9669 41.5002Z" fill="#F9B0A3"/>
<path d="M97.0274 86.3704L107.595 89.5479C108.556 89.8367 109.516 90.2219 109.901 91.281C110.093 91.7625 109.997 92.3402 109.708 92.8216C109.324 93.6882 108.267 94.266 107.307 94.0734L98.4685 92.9179L99.8134 95.2288C100.102 95.614 100.102 96.1917 99.8134 96.5769C99.4291 97.0583 98.7567 97.1546 98.2763 96.8657L95.1061 94.6511C94.2414 94.0734 93.665 93.2068 93.4729 92.2439L92.8965 89.933L94.1454 86.4667H97.0274V86.3704Z" fill="#F9B0A3"/>
<path d="M80.0238 37.1672L84.1548 51.9955L71.1855 57.9654L75.2204 45.8331L80.0238 37.1672Z" fill="#FF9184"/>
<path d="M64.2687 29.8493C64.2687 29.8493 51.7798 25.2275 44.5747 38.4189C37.3696 51.6103 31.6055 80.2078 31.6055 80.2078L63.7884 82.9038L76.3733 46.0256C78.0065 42.6556 81.9453 38.2263 79.0632 35.7228C77.8144 34.5674 76.0851 33.6045 73.5873 32.8342C64.2687 29.8493 64.2687 29.8493 64.2687 29.8493Z" fill="#FF9184"/>
<path d="M72.5312 57.2912L76.1818 46.6033" stroke="#FF6C63" stroke-width="1.0197" stroke-miterlimit="10"/>
<path d="M69.7446 63.0684L56.6793 35.2412L46.4961 50.2621L60.8103 69.9048C62.0592 71.638 64.1727 72.6971 66.3822 72.6008L93.6657 71.3491L97.2202 66.631L69.7446 63.0684Z" fill="#FFC1B2"/>
<path d="M97.2196 66.6309L109.036 67.3049L113.839 68.9418C114.416 69.1343 114.704 69.7121 114.512 70.1935C114.32 70.7712 113.743 71.0601 113.263 70.9638L108.556 69.7121L105.193 69.4232L106.634 70.7712C107.307 71.349 107.787 72.2156 108.075 73.0821L108.267 73.8524C108.556 74.9116 107.883 76.0671 106.826 76.3559L104.521 77.0299C103.56 77.3188 102.503 76.8374 102.023 75.8745L101.255 74.045L99.0449 72.8896C99.0449 72.8896 95.8747 73.8524 92.9926 71.4452C90.4948 69.3269 93.2808 68.7492 93.569 68.6529C93.6651 68.4603 97.2196 66.6309 97.2196 66.6309Z" fill="#FFC1B2"/>
<path d="M58.0241 33.2192L69.1681 52.4768L51.7797 64.8016L42.9414 45.7366L58.0241 33.2192Z" fill="#FF9184"/>
<path d="M46.9766 55.269L52.2603 64.5127L55.3345 62.298" stroke="#FF6C63" stroke-width="1.0197" stroke-miterlimit="10"/>
<path d="M65.7087 54.884L58.5996 41.5" stroke="#FF6C63" stroke-width="1.0197" stroke-miterlimit="10"/>
<path d="M82.521 157.238L81.4643 135.862L71.8574 137.499L74.5473 159.645L82.8092 158.008L82.521 157.238Z" fill="#FFC1B2"/>
<path d="M73.2991 155.408C73.2991 155.408 80.1199 158.297 83.3862 153.675L100.102 162.437L71.1855 162.534L73.2991 155.408Z" fill="black"/>
<path d="M100.102 164.845L71.1855 164.941V162.437L100.102 162.341V164.845Z" fill="#FF5C35"/>
<path d="M83.2905 157.527C83.3866 157.527 83.3866 157.431 83.4827 157.334C84.5394 155.89 85.6922 155.12 85.6922 155.12C85.8844 155.023 85.9804 154.734 85.7883 154.446C85.6922 154.253 85.3079 154.157 85.1158 154.349C85.0197 154.349 83.8669 155.216 82.7141 156.757C82.522 156.949 82.618 157.238 82.8102 157.431C82.9062 157.527 83.0984 157.527 83.2905 157.527Z" fill="#FF5C35"/>
<path d="M85.4995 158.682C85.5956 158.682 85.5956 158.586 85.6916 158.49C86.7484 157.045 87.9012 156.275 87.9012 156.275C88.0933 156.179 88.1894 155.89 87.9973 155.601C87.9012 155.409 87.5169 155.312 87.3248 155.505C87.2287 155.505 86.0759 156.371 84.9231 157.912C84.731 158.105 84.827 158.394 85.0192 158.586C85.2113 158.682 85.4034 158.682 85.4995 158.682Z" fill="#FF5C35"/>
<path d="M87.8061 159.838C87.9022 159.838 87.9022 159.741 87.9983 159.645C89.055 158.201 90.2079 157.43 90.2079 157.43C90.4 157.334 90.4961 157.045 90.3039 156.756C90.2079 156.564 89.8236 156.468 89.6314 156.66C89.5354 156.66 88.3826 157.527 87.2297 159.067C87.0376 159.26 87.1337 159.549 87.3258 159.741C87.4219 159.838 87.614 159.838 87.8061 159.838Z" fill="#FF5C35"/>
<path d="M63.7889 82.9037L81.7537 109.672C83.675 112.946 83.4829 114.101 83.7711 117.952L85.5964 150.305L69.7451 151.364L65.8063 119.3L46.3044 87.6218L45.3438 81.2668L63.7889 82.9037Z" fill="#FD4F25"/>
<path d="M39.1955 158.682L44.8635 136.536L35.2567 138.269L30.9336 158.682L38.8112 159.645L39.1955 158.682Z" fill="#FFC1B2"/>
<path d="M30.549 155.408C30.549 155.408 37.3699 158.297 40.6362 153.675L57.3521 162.437L28.4355 162.534L30.549 155.408Z" fill="black"/>
<path d="M57.3521 164.845L28.4355 164.941V162.437L57.3521 162.341V164.845Z" fill="white"/>
<path d="M40.5405 157.527C40.6366 157.527 40.6366 157.431 40.7327 157.334C41.7894 155.89 42.9422 155.12 42.9422 155.12C43.1344 155.023 43.2304 154.734 43.0383 154.446C42.9422 154.253 42.558 154.157 42.3658 154.349C42.2697 154.349 41.1169 155.216 39.9641 156.757C39.772 156.949 39.868 157.238 40.0602 157.431C40.1562 157.527 40.3484 157.527 40.5405 157.527Z" fill="white"/>
<path d="M42.7495 158.682C42.8456 158.682 42.8456 158.586 42.9416 158.49C43.9984 157.045 45.1512 156.275 45.1512 156.275C45.3433 156.179 45.4394 155.89 45.2473 155.601C45.1512 155.409 44.7669 155.312 44.5748 155.505C44.4787 155.505 43.3259 156.371 42.1731 157.912C41.981 158.105 42.077 158.394 42.2692 158.586C42.4613 158.682 42.6534 158.682 42.7495 158.682Z" fill="white"/>
<path d="M45.0561 159.838C45.1522 159.838 45.1522 159.741 45.2483 159.645C46.305 158.201 47.4578 157.43 47.4578 157.43C47.65 157.334 47.7461 157.045 47.5539 156.756C47.4578 156.564 47.0736 156.468 46.8814 156.66C46.7854 156.66 45.6325 157.527 44.4797 159.067C44.2876 159.26 44.3837 159.549 44.5758 159.741C44.7679 159.838 44.864 159.838 45.0561 159.838Z" fill="white"/>
<path d="M32.5662 80.304C32.5662 80.304 28.3392 89.355 33.7191 101.68C33.9112 102.161 34.1033 102.546 34.2955 102.932L36.5051 121.611L29.0117 151.846L45.4394 152.038L54.2777 125.463C54.662 124.115 54.8541 122.767 54.9502 121.419L54.758 87.1404L58.6008 82.5186L32.5662 80.304Z" fill="#FF5C35"/>
<path d="M86.268 10.5918C86.268 10.5918 89.8226 18.0059 83.5781 17.8134L86.268 10.5918Z" fill="#0B181B"/>
<path d="M79.2549 19.6428C78.5824 21.376 79.2549 23.3018 80.9842 23.9758C82.6173 24.6498 84.5387 23.8795 85.3072 22.1463C85.9797 20.4131 85.3072 18.4874 83.578 17.8134C81.9448 17.0431 80.0235 17.9097 79.2549 19.6428Z" fill="#F1998A"/>
<path d="M75.1252 26.5753L72.5313 34.182C71.6667 36.8781 69.5532 37.7447 67.0555 36.7818C64.9419 36.0115 62.9245 34.182 63.7891 31.8711L68.4004 20.124L75.1252 26.5753Z" fill="#FFC1B2"/>
<path d="M73.394 31.5823C73.394 31.5823 67.0534 29.9455 67.5338 22.3387C67.7259 19.9315 75.4114 25.7088 75.4114 25.7088L73.394 31.5823Z" fill="#0B181B"/>
<path d="M72.0494 27.9235C76.3725 29.3679 81.1759 27.1532 82.5208 23.4943L85.3068 15.8876C87.0361 11.362 85.0186 6.35509 80.6955 4.52562C76.2764 2.69615 70.4162 4.52562 68.4949 9.05114L66.3813 15.021C64.46 20.4131 67.0538 25.8052 72.0494 27.9235Z" fill="#FFC1B2"/>
<path d="M78.8707 19.6428L78.4864 21.2797L77.4297 20.9908" stroke="#0B181B" stroke-width="0.5271" stroke-miterlimit="10" stroke-linecap="round" stroke-linejoin="round"/>
<path d="M76.6613 11.8435C76.6613 11.8435 78.4866 12.3249 78.2945 13.0952C78.2945 13.0952 78.1024 13.5767 76.5653 13.1915C75.0282 12.8064 74.6439 12.5175 74.6439 11.9398C74.5478 11.4584 75.7967 11.5546 76.6613 11.8435Z" fill="#0B181B"/>
<path d="M83.7711 14.7322C83.7711 14.7322 82.3301 14.0582 82.0419 14.7322C82.0419 14.7322 81.8497 15.2136 83.0986 15.6951C84.3475 16.2728 84.8279 16.1765 85.02 15.8876C85.3082 15.5025 84.4436 14.9248 83.7711 14.7322Z" fill="#0B181B"/>
<path d="M80.8881 18.7764C80.6959 19.1615 80.8881 19.643 81.3684 19.8355C81.7527 20.0281 82.233 19.7393 82.4252 19.3541C82.6173 18.969 82.4252 18.4875 81.9448 18.2949C81.4645 18.1024 80.9841 18.3912 80.8881 18.7764Z" fill="#0B181B"/>
<path d="M74.4525 16.2728C74.2604 16.658 74.4525 17.1394 74.9329 17.332C75.3172 17.5246 75.7975 17.2357 75.9896 16.8505C76.1818 16.4654 75.9896 15.984 75.5093 15.7914C75.0289 15.6951 74.5486 15.8877 74.4525 16.2728Z" fill="#0B181B"/>
<path d="M79.736 18.2947C78.9675 20.2204 79.9281 22.3388 81.8495 23.1091C83.7709 23.8794 85.8844 22.9165 86.6529 20.9907C87.4215 19.065 86.4608 16.9467 84.5394 16.1764C82.6181 15.5023 80.5046 16.4652 79.736 18.2947Z" stroke="white" stroke-width="0.4899" stroke-miterlimit="10"/>
<path d="M73.7802 13.1914C71.9549 14.058 71.0903 16.1763 71.8588 18.1021C72.7235 19.9316 74.837 20.7982 76.7583 20.0279C78.5836 19.1613 79.4482 17.0429 78.6797 15.1172C77.8151 13.1914 75.6055 12.4211 73.7802 13.1914Z" stroke="white" stroke-width="0.4899" stroke-miterlimit="10"/>
<path d="M71.762 15.2134L68.5918 13.9617" stroke="white" stroke-width="0.4899" stroke-miterlimit="10"/>
<path d="M78.3906 18.5835L79.4474 18.9686" stroke="white" stroke-width="0.4899" stroke-miterlimit="10"/>
<path d="M74.3555 21.761C74.3555 21.761 75.124 23.3016 78.1021 23.3016" stroke="#0B181B" stroke-width="0.5271" stroke-miterlimit="10" stroke-linecap="round" stroke-linejoin="round"/>
<path d="M66.3827 3.85154C68.208 0.481472 71.1862 1.92579 71.1862 1.92579C73.2036 0.0963216 77.2385 -0.67398 80.8891 0.866623C85.9807 2.88866 89.5352 7.41419 89.3431 10.3991C89.1509 13.384 85.2121 11.8434 85.2121 11.8434C85.2121 11.8434 79.448 10.1102 74.9328 8.0882C74.4525 10.2065 73.2036 13.2877 69.553 12.1323L66.6709 17.9095C66.6709 17.9095 64.0771 8.18449 66.3827 3.85154Z" fill="#0B181B"/>
<path d="M62.4421 13.5768C61.7696 15.3099 62.4421 17.2357 64.0753 17.9097C65.7084 18.5837 67.6298 17.8134 68.3023 16.0802C68.9748 14.3471 68.3023 12.4213 66.6691 11.7473C65.036 11.0733 63.1146 11.8436 62.4421 13.5768Z" fill="#FFC1B2"/>
<path d="M66.0926 15.9839C66.0926 15.9839 67.0533 13.7693 64.8438 13.2878" stroke="#312220" stroke-width="0.5581" stroke-miterlimit="10" stroke-linecap="round" stroke-linejoin="round"/>
<path d="M61.7707 29.2715L69.5523 31.101L74.9321 33.2193C74.9321 33.2193 73.395 38.5151 68.5916 37.6485C59.6572 36.0116 61.7707 29.2715 61.7707 29.2715Z" fill="#FFC1B2"/>
<path d="M281 165.422H0" stroke="#55382E" stroke-width="1.1466" stroke-miterlimit="10"/>
</svg>
