<svg width="493" height="377" viewBox="0 0 493 377" fill="none" xmlns="http://www.w3.org/2000/svg">
<path d="M493 332.496H0V332.792H493V332.496Z" fill="#EBEBEB"/>
<path d="M233.683 288.584H43.2862C40.2296 288.584 37.666 286.024 37.666 282.972V15.7535C37.666 12.7012 40.2296 10.1413 43.2862 10.1413H233.683C236.739 10.1413 239.303 12.7012 239.303 15.7535V282.972C239.303 286.122 236.838 288.584 233.683 288.584ZM43.2862 10.3382C40.3282 10.3382 37.8632 12.7012 37.8632 15.7535V282.972C37.8632 285.925 40.2296 288.387 43.2862 288.387H233.683C236.641 288.387 239.106 286.024 239.106 282.972V15.7535C239.106 12.7997 236.739 10.3382 233.683 10.3382H43.2862Z" fill="#EBEBEB"/>
<path d="M446.954 288.584H256.558C253.501 288.584 250.938 286.024 250.938 282.972V15.7535C250.938 12.7012 253.501 10.1413 256.558 10.1413H446.954C450.011 10.1413 452.574 12.7012 452.574 15.7535V282.972C452.574 286.122 450.109 288.584 446.954 288.584ZM256.558 10.3382C253.6 10.3382 251.135 12.7012 251.135 15.7535V282.972C251.135 285.925 253.501 288.387 256.558 288.387H446.954C449.912 288.387 452.377 286.024 452.377 282.972V15.7535C452.377 12.7997 450.011 10.3382 446.954 10.3382H256.558Z" fill="#EBEBEB"/>
<path d="M197.595 341.85H171.959V342.145H197.595V341.85Z" fill="#EBEBEB"/>
<path d="M105.108 339.192H51.7656V339.487H105.108V339.192Z" fill="#EBEBEB"/>
<path d="M170.973 351.007H145.041V351.302H170.973V351.007Z" fill="#EBEBEB"/>
<path d="M292.843 349.333H254.586V349.628H292.843V349.333Z" fill="#EBEBEB"/>
<path d="M312.267 349.333H301.717V349.628H312.267V349.333Z" fill="#EBEBEB"/>
<path d="M443.601 345.198H389.766V345.493H443.601V345.198Z" fill="#EBEBEB"/>
<path d="M153.422 35.8391H65.0762V226.653H153.422V35.8391Z" fill="#E6E6E6"/>
<path d="M156.773 35.8391H68.4277V226.653H156.773V35.8391Z" fill="#F5F5F5"/>
<path d="M150.748 221L150.748 41.5092L74.5303 41.5092L74.5303 221H150.748Z" fill="white"/>
<path d="M150.703 220.947L150.703 41.456H148.14L148.14 220.947H150.703Z" fill="#E6E6E6"/>
<path d="M154.309 197.706H70.9922V205.287H154.309V197.706Z" fill="#F5F5F5"/>
<path d="M154.309 177.719H70.9922V185.3H154.309V177.719Z" fill="#F5F5F5"/>
<path d="M274.996 35.8391H186.65V226.653H274.996V35.8391Z" fill="#E6E6E6"/>
<path d="M278.349 35.8391H190.004V226.653H278.349V35.8391Z" fill="#F5F5F5"/>
<path d="M272.293 220.929L272.293 41.4383L196.075 41.4383L196.075 220.929H272.293Z" fill="white"/>
<path d="M272.248 220.974L272.248 41.4835H269.684L269.684 220.974H272.248Z" fill="#E6E6E6"/>
<path d="M275.786 197.706H192.469V205.287H275.786V197.706Z" fill="#F5F5F5"/>
<path d="M275.786 177.719H192.469V185.3H275.786V177.719Z" fill="#F5F5F5"/>
<path d="M341.551 172.402C354.664 175.848 368.863 186.679 373.004 197.411C374.187 187.958 375.666 178.605 377.638 169.251C376.652 170.433 375.568 171.516 374.187 172.599C355.946 188.057 345.396 153.202 352.692 126.815C365.215 131.837 378.033 144.44 380.695 155.565C382.963 146.31 385.723 137.154 388.78 128.095C387.695 129.08 386.414 130.065 384.935 131.049C364.82 144.243 358.806 108.207 369.454 82.7057C381.286 89.204 392.33 103.382 393.611 114.902C396.865 106.631 400.415 98.3607 404.26 90.287C390.456 89.9916 396.175 63.9 408.599 49.5249C418.163 62.5215 424.177 86.1517 408.5 89.7947C407.021 92.847 405.542 95.9977 404.162 99.0499C413.331 91.6655 431.178 92.1578 443.404 97.7699C432.361 115.689 408.106 137.744 399.725 116.576C399.133 114.902 398.739 113.425 398.64 111.948C395.09 120.809 391.935 129.671 389.174 138.729C397.358 130.36 415.008 128.686 427.924 132.723C419.346 151.627 398.048 176.439 387.005 156.55C386.216 154.975 385.625 153.498 385.329 152.119C382.963 161.276 380.892 170.433 379.314 179.688C386.315 170.334 403.669 166.593 416.98 169.054C410.866 188.746 392.823 215.921 379.413 197.607C378.427 196.229 377.737 194.752 377.244 193.374C375.962 202.727 375.173 212.081 374.68 221.435C380.498 211.293 397.26 205.386 410.768 206.173C407.12 226.456 392.625 255.698 377.047 239.157C375.469 237.385 372.708 237.385 371.229 239.256L370.736 239.846C370.736 230.296 371.032 220.844 371.821 211.392C371.032 212.672 370.046 213.853 368.764 215.133C352.397 232.659 337.607 199.38 341.551 172.402Z" fill="#F5F5F5"/>
<path d="M391.245 193.964C382.569 196.721 373.399 204.598 370.934 212.081C369.948 205.681 368.666 199.38 367.187 193.078C367.877 193.866 368.666 194.555 369.553 195.244C382.076 205.189 388.189 181.066 382.667 163.344C374.385 167.184 366.201 176.143 364.722 183.922C362.947 177.719 360.975 171.516 358.609 165.51C359.398 166.199 360.186 166.79 361.271 167.381C374.976 175.75 378.132 150.938 370.342 133.904C362.651 138.729 355.552 148.772 355.059 156.648C352.693 151.135 350.129 145.621 347.368 140.206C356.538 139.615 352.101 121.991 343.424 112.539C337.311 121.695 333.959 138.04 344.509 140.009C345.594 142.077 346.678 144.144 347.664 146.212C341.354 141.486 329.522 142.372 321.535 146.606C329.325 158.421 345.988 172.697 351.115 157.928C351.51 156.845 351.707 155.762 351.707 154.679C354.27 160.587 356.637 166.593 358.707 172.599C353.087 167.184 341.255 166.593 332.776 169.744C338.987 182.346 353.777 198.592 360.581 184.611C361.074 183.528 361.37 182.543 361.567 181.559C363.44 187.663 365.018 193.866 366.3 200.167C361.37 194.063 349.735 191.995 340.959 194.161C345.594 207.355 358.214 225.274 366.694 212.376C367.286 211.392 367.779 210.407 368.074 209.423C369.159 215.724 369.948 222.124 370.539 228.524C366.398 221.828 355.059 218.382 346.185 219.367C349.143 233.053 359.496 252.548 369.455 240.733C370.441 239.453 372.314 239.354 373.3 240.634L373.596 241.028C373.399 234.53 372.906 228.031 372.216 221.632C372.807 222.419 373.497 223.305 374.286 224.093C385.625 235.416 394.598 212.278 391.245 193.964Z" fill="#EBEBEB"/>
<path d="M413.431 226.062C413.431 226.062 412.543 332.496 377.146 332.496C341.847 332.496 340.861 226.062 340.861 226.062H413.431Z" fill="#F0F0F0"/>
<path d="M96.2629 305.422H287.547V240.439L96.2629 240.439V305.422Z" fill="#F5F5F5"/>
<path d="M282.209 300.188V245.74L101.475 245.74V300.188L282.209 300.188Z" fill="#EBEBEB"/>
<path d="M221.67 300.186V245.738L101.477 245.738L101.477 300.186H221.67Z" fill="#E6E6E6"/>
<path d="M221.729 300.128V245.68L140.285 245.68V300.128H221.729Z" fill="#E0E0E0"/>
<path d="M276 282.069V263.756H274.324V282.069H276Z" fill="#E0E0E0"/>
<path d="M282.221 249.888V245.655L101.487 245.655V249.888L282.221 249.888Z" fill="#E0E0E0"/>
<path d="M96.332 240.437H69.8086V305.42H96.332V240.437Z" fill="#E6E6E6"/>
<path d="M98.798 332.496H96.2344V305.42H100.671L98.798 332.496Z" fill="#F5F5F5"/>
<path d="M284.953 332.496H287.517V305.42H283.08L284.953 332.496Z" fill="#F5F5F5"/>
<path d="M72.3722 332.496H69.8086V305.42H74.2456L72.3722 332.496Z" fill="#E6E6E6"/>
<path d="M258.43 332.496H260.994V305.42H256.557L258.43 332.496Z" fill="#E6E6E6"/>
<path d="M246.5 377C352.089 377 437.685 372.019 437.685 365.874C437.685 359.729 352.089 354.748 246.5 354.748C140.911 354.748 55.3145 359.729 55.3145 365.874C55.3145 372.019 140.911 377 246.5 377Z" fill="#F5F5F5"/>
<path d="M269.672 86.5456C281.8 79.8503 290.476 67.2476 291.561 52.3803C293.237 28.947 275.588 8.56594 252.121 6.79368C228.654 5.02142 208.244 22.7441 206.469 46.1773C205.089 65.2784 216.625 82.4103 233.683 89.007C229.049 96.8838 221.555 99.936 221.555 99.936C221.555 99.936 235.655 98.0653 240.683 90.9762C242.36 91.2716 244.134 91.567 245.909 91.6654C252.022 92.1577 257.938 91.1731 263.46 89.3024C267.7 96.3915 279.137 100.724 279.137 100.724C279.137 100.724 272.137 95.8007 269.672 86.5456Z" fill="white"/>
<path opacity="0.3" d="M269.672 86.5456C281.8 79.8503 290.476 67.2476 291.561 52.3803C293.237 28.947 275.588 8.56594 252.121 6.79368C228.654 5.02142 208.244 22.7441 206.469 46.1773C205.089 65.2784 216.625 82.4103 233.683 89.007C229.049 96.8838 221.555 99.936 221.555 99.936C221.555 99.936 235.655 98.0653 240.683 90.9762C242.36 91.2716 244.134 91.567 245.909 91.6654C252.022 92.1577 257.938 91.1731 263.46 89.3024C267.7 96.3915 279.137 100.724 279.137 100.724C279.137 100.724 272.137 95.8007 269.672 86.5456Z" fill="#407BFF"/>
<path d="M293.828 70.2998L284.856 70.989C285.447 72.3675 285.743 73.8443 285.644 75.4197C285.349 80.3426 281.306 84.4779 276.376 84.7733C270.953 85.1671 266.319 81.1303 265.826 75.7151C265.727 74.632 265.826 73.549 266.122 72.4659L250.937 73.8443L249.655 58.6816C251.825 59.2724 254.388 59.1739 256.755 57.7955C260.206 55.8263 262.375 52.0849 261.98 48.1465C261.389 42.8297 256.656 38.8914 251.332 39.2852C250.247 39.3836 249.162 39.679 248.176 40.0729L246.895 24.9102L262.079 23.6302C261.487 22.3502 261.192 20.8733 261.29 19.298C261.487 14.375 265.431 10.2397 270.361 9.84591C275.883 9.35362 280.714 13.3904 281.109 18.9042C281.207 19.9872 281.109 21.0703 280.813 22.1533L289.786 21.4641C293.237 21.1687 296.195 23.7286 296.49 27.1747L299.448 63.8015C299.843 67.0507 297.279 70.0044 293.828 70.2998Z" fill="#263238"/>
<path d="M252.515 39.1867C250.937 39.0883 249.557 39.4821 248.177 39.9744L246.895 24.8117L231.71 26.0917C232.203 27.1747 232.401 28.2578 232.499 29.5377C232.795 34.5592 229.048 39.1867 223.921 39.8759C218.202 40.6636 213.174 36.5283 212.681 30.9162C212.582 29.8331 212.681 28.7501 212.976 27.667L204.004 28.3562C200.553 28.6516 197.989 31.6054 198.285 35.0514L201.243 71.6783C201.539 75.1243 204.497 77.6843 207.948 77.3889L216.92 76.6997C216.427 78.4719 216.526 80.5396 217.216 82.5088C218.498 86.1518 221.949 88.7117 225.794 88.9086C232.006 89.3025 236.936 84.1826 236.443 78.275C236.345 77.192 236.049 76.1089 235.654 75.1243L250.839 73.8444L249.557 58.6816C250.543 58.977 251.628 59.0755 252.811 58.977C258.234 58.4847 262.375 53.7587 261.882 48.3434C261.586 43.322 257.445 39.3837 252.515 39.1867Z" fill="#407BFF"/>
<path d="M233.485 8.66441C232.499 7.77827 231.612 6.9906 230.725 6.30139L231.415 5.3168C232.401 6.00601 233.387 6.79368 234.373 7.77827L233.485 8.66441Z" fill="#263238"/>
<path d="M241.077 19.1011C240.387 17.2303 238.809 14.6704 236.738 12.2089L237.724 11.4213C239.894 13.9812 241.57 16.6396 242.26 18.7072L241.077 19.1011Z" fill="#407BFF"/>
<path d="M249.458 16.4427H248.176C248.274 11.2243 249.951 6.59676 253.204 2.75685L254.19 3.54452C251.134 7.18751 249.556 11.5197 249.458 16.4427Z" fill="#263238"/>
<path d="M243.443 10.6336C243.443 10.5351 242.161 4.43066 239.598 0.689214L240.682 0C243.246 3.83991 244.626 10.0428 244.626 10.3382L243.443 10.6336Z" fill="#407BFF"/>
<path d="M260.897 90.7793C260.009 89.9916 259.122 89.1055 258.234 88.0225L259.22 87.2348C260.108 88.2194 260.897 89.1055 261.784 89.8932L260.897 90.7793Z" fill="#263238"/>
<path d="M256.458 86.0533C254.191 83.0011 252.514 79.3581 252.021 77.2904L253.205 76.995C253.698 78.9642 255.275 82.4103 257.444 85.2656L256.458 86.0533Z" fill="#407BFF"/>
<path d="M248.079 85.0687C247.191 81.1303 248.966 77.5858 248.966 77.3889L250.051 77.9796C250.051 77.9796 248.473 81.2288 249.262 84.7733L248.079 85.0687Z" fill="#407BFF"/>
<path d="M180.537 275.193C174.227 239.846 171.564 197.214 171.564 197.214L205.384 196.721C205.384 196.721 202.525 254.123 201.144 278.147C199.665 303.156 198.679 351.302 198.679 351.302H187.045C186.946 351.302 176.987 306.109 180.537 275.193Z" fill="#263238"/>
<path opacity="0.2" d="M187.341 206.863C187.341 206.863 182.707 241.126 178.96 266.332C175.607 245.163 173.537 223.01 172.354 209.619L187.341 206.863Z" fill="black"/>
<path d="M214.258 363.117C214.258 363.117 198.581 359.474 197.891 354.158L187.932 355.437L186.848 365.776H190.989L191.679 364.496L193.059 365.776C207.061 365.776 212.286 365.579 214.85 364.791C214.949 363.61 214.258 363.117 214.258 363.117Z" fill="#263238"/>
<path d="M186.452 357.308C190.199 357.505 197.692 357.013 199.171 356.225C200.65 355.536 199.763 349.727 199.763 349.727C199.763 349.727 186.649 348.447 185.564 349.136C184.381 349.924 186.452 357.308 186.452 357.308Z" fill="#407BFF"/>
<path opacity="0.3" d="M186.452 357.308C190.199 357.505 197.692 357.013 199.171 356.225C200.65 355.536 199.763 349.727 199.763 349.727C199.763 349.727 186.649 348.447 185.564 349.136C184.381 349.924 186.452 357.308 186.452 357.308Z" fill="white"/>
<path d="M149.181 274.209C154.9 238.665 154.801 214.936 160.52 197.411L193.551 196.918C193.551 196.918 177.578 253.335 170.282 276.769C162.985 300.3 149.773 351.302 149.773 351.302H139.025C139.025 351.302 139.518 301.679 149.181 274.209Z" fill="#263238"/>
<path d="M161.013 363.117C161.013 363.117 149.181 359.474 148.49 354.158L138.532 355.437L137.447 365.776H140.011L140.701 364.496L142.081 365.776C156.083 365.776 158.942 365.579 161.604 364.791C161.703 363.61 161.013 363.117 161.013 363.117Z" fill="#263238"/>
<path d="M137.449 357.111C139.717 357.604 148.492 357.013 149.971 356.324C151.549 355.634 151.056 349.53 151.056 349.53C151.056 349.53 139.224 348.151 137.942 348.841C136.66 349.53 137.449 357.111 137.449 357.111Z" fill="#407BFF"/>
<path opacity="0.3" d="M137.449 357.111C139.717 357.604 148.492 357.013 149.971 356.324C151.549 355.634 151.056 349.53 151.056 349.53C151.056 349.53 139.224 348.151 137.942 348.841C136.66 349.53 137.449 357.111 137.449 357.111Z" fill="white"/>
<path d="M205.186 134.692L208.045 137.154L211.003 139.615C212.975 141.289 214.947 142.864 216.919 144.341C217.905 145.129 218.891 145.818 219.877 146.507C220.863 147.196 221.849 147.886 222.737 148.476C223.723 149.067 224.61 149.658 225.497 150.15C226.385 150.642 227.174 150.938 227.568 151.135L226.188 151.036C225.99 151.135 226.483 151.135 227.075 151.036C227.667 150.938 228.455 150.642 229.244 150.249C230.822 149.559 232.597 148.575 234.273 147.59C236.048 146.606 237.822 145.424 239.499 144.243L244.823 140.698L244.922 140.6C246.696 139.418 249.161 139.91 250.345 141.683C251.232 143.061 251.232 144.735 250.345 146.015C249.063 148.083 247.682 149.855 246.203 151.627C244.724 153.399 243.147 155.172 241.372 156.845C239.597 158.519 237.822 160.095 235.555 161.571C234.47 162.359 233.287 163.048 231.808 163.738C230.329 164.427 228.653 165.017 226.286 165.214C225.99 165.214 225.695 165.214 225.399 165.214L224.906 165.116C222.638 164.821 220.962 164.23 219.384 163.639C217.807 163.048 216.426 162.359 215.046 161.571C212.285 160.193 209.82 158.618 207.552 156.944C205.186 155.368 202.918 153.596 200.749 151.824C199.664 150.938 198.58 150.052 197.495 149.067C196.41 148.083 195.424 147.196 194.34 146.113C191.283 143.16 191.185 138.237 194.143 135.086C197.002 132.132 201.735 131.935 204.791 134.594L205.186 134.692Z" fill="#CF7A64"/>
<path d="M246.302 147.787L255.077 147.689L252.021 137.646C252.021 137.646 244.133 138.63 243.936 142.963L246.302 147.787Z" fill="#CE7A63"/>
<path d="M261.488 141.289L259.812 137.941C259.122 136.661 257.643 135.972 256.262 136.366L252.121 137.646L255.178 147.689L260.206 145.326C261.587 144.636 262.178 142.766 261.488 141.289Z" fill="#CE7A63"/>
<path d="M197.101 129.375C190.495 134.2 188.721 143.357 192.862 150.347C193.453 151.43 194.143 152.316 194.834 153.005C198.285 156.255 206.863 159.208 212.483 161.571C219.681 159.012 223.329 151.43 222.244 147.196C216.821 140.009 206.863 129.375 201.637 127.997C200.158 127.702 198.679 128.292 197.101 129.375Z" fill="#263238"/>
<path d="M165.549 126.52C174.423 125.437 186.353 125.338 195.917 126.323C204.496 127.209 211.102 134.495 211.003 143.16C211.003 158.716 208.44 175.848 205.876 199.675C198.481 207.256 159.041 199.38 159.041 199.38C159.14 192.98 160.421 183.134 162.196 173.682C160.816 163.836 157.463 152.612 155.491 139.517C154.703 133.117 159.238 127.308 165.549 126.52Z" fill="#407BFF"/>
<g opacity="0.2">
<path opacity="0.2" d="M163.874 143.061C163.775 143.061 163.578 142.963 163.578 142.766C163.578 142.667 163.677 142.47 163.874 142.47C165.846 142.372 167.719 141.584 169.198 140.304C168.903 140.206 168.705 140.009 168.41 139.714C168.114 139.418 168.015 138.926 167.917 138.63C167.325 136.464 167.818 133.708 169.987 132.624C170.677 132.231 171.762 132.132 172.255 132.821C172.452 133.117 172.551 133.412 172.649 133.708C172.945 135.283 172.452 136.661 171.959 137.646C171.565 138.532 170.875 139.418 170.184 140.107C170.283 140.107 170.283 140.107 170.382 140.107C171.861 140.206 173.438 139.517 174.523 138.335C175.509 137.252 176.1 135.775 176.298 134.101C176.298 134.003 176.396 133.806 176.593 133.904C176.692 133.904 176.889 134.003 176.791 134.2C176.692 135.972 176.002 137.646 174.917 138.827C173.734 140.107 172.058 140.895 170.382 140.698C170.184 140.698 169.987 140.698 169.79 140.6C168.212 141.978 166.043 142.963 163.874 143.061ZM171.17 132.821C170.875 132.821 170.48 132.92 170.184 133.117C168.311 134.101 167.917 136.661 168.41 138.532C168.508 138.827 168.607 139.221 168.804 139.418C169.001 139.714 169.297 139.812 169.593 139.91C170.382 139.221 171.072 138.335 171.466 137.35C171.861 136.464 172.354 135.086 172.058 133.708C172.058 133.511 171.959 133.215 171.762 133.018C171.762 132.92 171.466 132.821 171.17 132.821Z" fill="white"/>
<path opacity="0.2" d="M185.96 152.809C184.186 152.119 182.805 151.036 182.016 149.756C181.129 148.279 180.833 146.409 181.425 144.833C181.523 144.636 181.622 144.44 181.721 144.243C180.833 142.273 180.537 140.009 181.03 137.941C181.03 137.843 181.228 137.744 181.326 137.744C181.425 137.744 181.523 137.941 181.523 138.04C181.03 139.91 181.326 141.978 182.115 143.75C182.312 143.553 182.608 143.356 182.904 143.16C183.298 142.963 183.791 142.963 184.087 142.963C186.256 142.963 188.82 144.243 189.313 146.606C189.51 147.393 189.313 148.378 188.524 148.772C188.228 148.969 187.834 148.87 187.538 148.87C185.96 148.673 184.679 147.787 183.988 147.098C183.2 146.409 182.608 145.621 182.115 144.735C182.115 144.833 182.115 144.833 182.016 144.932C181.523 146.31 181.721 147.984 182.509 149.362C183.298 150.642 184.58 151.627 186.158 152.218C186.256 152.316 186.355 152.415 186.355 152.513C186.158 152.71 186.059 152.809 185.96 152.809ZM182.312 144.341C182.805 145.326 183.495 146.212 184.284 146.901C184.974 147.59 186.158 148.378 187.637 148.476C187.834 148.476 188.13 148.476 188.327 148.378C188.82 148.181 188.918 147.393 188.82 146.803C188.327 144.735 186.059 143.553 184.087 143.553C183.791 143.553 183.397 143.553 183.101 143.652C182.707 143.849 182.509 144.046 182.312 144.341Z" fill="white"/>
<path opacity="0.2" d="M206.174 146.409C205.779 146.409 205.385 146.31 205.089 145.916C204.892 145.621 204.793 145.326 204.695 145.03C204.498 143.849 204.695 142.47 205.286 141.092C205.681 140.206 206.272 139.32 206.963 138.532C206.864 138.532 206.864 138.532 206.765 138.532C205.286 138.434 203.709 139.123 202.723 140.403C201.737 141.486 201.145 143.061 201.047 144.735C201.047 144.833 200.948 145.03 200.751 145.03C200.652 145.03 200.455 144.932 200.455 144.735C200.554 142.963 201.145 141.289 202.23 140.107C203.413 138.729 205.089 138.04 206.765 138.138C206.963 138.138 207.16 138.138 207.357 138.237C208.935 136.76 211.005 135.775 213.174 135.677C213.372 135.677 213.47 135.775 213.47 135.874C213.47 135.972 213.372 136.169 213.273 136.169C211.301 136.267 209.428 137.154 207.949 138.434C208.244 138.532 208.54 138.729 208.737 139.024C209.033 139.32 209.132 139.812 209.23 140.107C209.822 142.175 209.428 145.03 207.357 146.212C207.061 146.212 206.568 146.409 206.174 146.409ZM207.554 138.729C206.765 139.517 206.174 140.403 205.681 141.289C205.286 142.175 204.892 143.553 205.188 144.932C205.188 145.129 205.286 145.424 205.484 145.621C205.878 146.015 206.568 145.916 207.16 145.621C209.033 144.538 209.428 141.978 208.836 140.107C208.737 139.812 208.639 139.517 208.442 139.221C208.146 138.926 207.85 138.729 207.554 138.729Z" fill="white"/>
<path opacity="0.2" d="M196.018 141.19C195.821 141.19 195.722 140.993 195.722 140.895C196.117 139.024 195.821 136.957 195.032 135.184C194.835 135.381 194.638 135.578 194.243 135.775C193.849 135.972 193.356 135.972 193.06 135.972C190.891 135.972 188.327 134.791 187.736 132.428C187.539 131.64 187.637 130.655 188.426 130.261C188.722 130.065 189.116 130.065 189.412 130.163C190.99 130.261 192.271 131.148 193.06 131.837C193.849 132.526 194.441 133.314 195.032 134.2C195.032 134.101 195.032 134.101 195.131 134.003C195.624 132.624 195.427 130.951 194.539 129.572C193.75 128.292 192.469 127.308 190.891 126.815C190.792 126.815 190.694 126.618 190.694 126.52C190.694 126.422 190.891 126.323 190.99 126.323C192.666 126.914 194.046 127.997 194.934 129.277C195.92 130.754 196.117 132.624 195.624 134.2C195.525 134.397 195.525 134.594 195.427 134.791C196.413 136.76 196.708 139.024 196.314 141.092C196.215 141.092 196.117 141.19 196.018 141.19ZM189.215 130.655C189.018 130.655 188.919 130.655 188.722 130.754C188.229 130.951 188.13 131.738 188.229 132.329C188.722 134.397 191.088 135.48 193.06 135.48C193.356 135.48 193.75 135.48 194.046 135.283C194.342 135.184 194.539 134.889 194.736 134.692C194.243 133.707 193.553 132.92 192.764 132.231C191.976 131.64 190.792 130.852 189.412 130.655C189.412 130.655 189.313 130.655 189.215 130.655Z" fill="white"/>
<path opacity="0.2" d="M168.212 169.645C168.113 169.645 167.916 169.547 167.916 169.35C167.916 169.251 168.015 169.054 168.212 169.054C170.184 168.956 172.057 168.168 173.536 166.888C173.24 166.79 173.043 166.593 172.747 166.297C172.452 166.002 172.353 165.51 172.254 165.214C171.663 163.048 172.156 160.291 174.325 159.208C175.015 158.815 176.1 158.716 176.593 159.405C176.79 159.701 176.889 159.996 176.987 160.291C177.283 161.867 176.79 163.245 176.297 164.23C175.903 165.116 175.212 166.002 174.522 166.691C174.621 166.691 174.621 166.691 174.719 166.691C176.198 166.79 177.776 166.101 178.861 164.919C179.847 163.836 180.438 162.359 180.635 160.685C180.635 160.587 180.734 160.39 180.931 160.488C181.03 160.488 181.227 160.587 181.128 160.784C181.03 162.556 180.34 164.23 179.255 165.411C178.072 166.691 176.396 167.479 174.719 167.282C174.522 167.282 174.325 167.282 174.128 167.184C172.452 168.66 170.282 169.547 168.212 169.645ZM175.508 159.504C175.212 159.504 174.818 159.602 174.522 159.799C172.649 160.784 172.254 163.344 172.747 165.214C172.846 165.51 172.945 165.904 173.142 166.101C173.339 166.396 173.635 166.494 173.931 166.593C174.719 165.904 175.41 165.018 175.804 164.033C176.198 163.147 176.691 161.768 176.396 160.39C176.396 160.193 176.297 159.898 176.1 159.701C176.001 159.602 175.804 159.504 175.508 159.504Z" fill="white"/>
<path opacity="0.2" d="M190.792 180.476C189.018 179.786 187.637 178.703 186.848 177.423C185.961 175.848 185.665 174.076 186.257 172.5C186.355 172.303 186.454 172.107 186.553 171.91C185.665 169.94 185.369 167.676 185.862 165.608C185.862 165.51 186.06 165.411 186.158 165.411C186.257 165.411 186.355 165.608 186.355 165.707C185.862 167.577 186.158 169.645 186.947 171.417C187.144 171.22 187.44 171.024 187.736 170.827C188.13 170.63 188.623 170.63 188.919 170.63C191.088 170.63 193.652 171.91 194.145 174.273C194.342 175.06 194.145 176.045 193.356 176.439C193.06 176.636 192.666 176.537 192.37 176.537C191.187 176.439 189.905 175.848 188.82 174.765C188.032 174.076 187.44 173.288 186.947 172.402C186.947 172.5 186.947 172.5 186.848 172.599C186.355 173.977 186.553 175.651 187.341 177.03C188.13 178.309 189.412 179.294 190.99 179.885C191.088 179.983 191.187 180.082 191.187 180.18C191.088 180.476 190.99 180.476 190.792 180.476ZM187.144 172.008C187.637 172.993 188.327 173.879 189.116 174.568C189.806 175.257 190.99 176.045 192.469 176.143C192.666 176.143 192.962 176.143 193.159 176.045C193.652 175.848 193.75 175.06 193.652 174.47C193.159 172.402 190.891 171.22 188.919 171.22C188.623 171.22 188.229 171.22 187.933 171.319C187.539 171.516 187.341 171.713 187.144 172.008Z" fill="white"/>
<path opacity="0.2" d="M172.157 185.3C172.058 185.3 171.959 185.202 171.959 185.103C171.269 183.429 171.171 181.657 171.664 180.18C172.157 178.506 173.438 177.128 174.917 176.537C175.115 176.439 175.312 176.439 175.509 176.34C176.396 174.371 177.875 172.599 179.749 171.614C179.847 171.516 180.045 171.614 180.143 171.713C180.242 171.811 180.143 172.008 180.045 172.107C178.368 172.993 176.988 174.568 176.101 176.34C176.396 176.34 176.692 176.439 176.988 176.537C177.382 176.734 177.678 177.03 177.974 177.325C179.453 178.999 180.143 181.657 178.763 183.626C178.27 184.315 177.382 184.808 176.594 184.512C176.298 184.315 176.002 184.119 175.903 183.823C175.016 182.543 174.819 181.066 174.819 179.983C174.819 178.999 175.016 177.916 175.312 177.03C175.213 177.03 175.213 177.03 175.115 177.128C173.734 177.62 172.551 178.9 172.157 180.476C171.762 181.854 171.861 183.528 172.452 185.103C172.452 185.103 172.354 185.202 172.157 185.3ZM175.805 176.833C175.41 177.817 175.213 178.9 175.213 179.983C175.213 180.968 175.41 182.346 176.199 183.528C176.298 183.725 176.495 183.922 176.692 184.02C177.185 184.217 177.875 183.823 178.171 183.331C179.354 181.657 178.763 179.097 177.481 177.62C177.284 177.423 176.988 177.128 176.692 176.931C176.495 176.833 176.199 176.833 175.805 176.833Z" fill="white"/>
<path opacity="0.2" d="M170.875 202.629C169.1 202.53 167.424 201.841 166.241 200.758C164.86 199.577 164.17 197.903 164.269 196.229C164.269 196.032 164.269 195.835 164.367 195.638C162.888 194.063 162.001 191.897 161.902 189.731C161.902 189.632 162.001 189.435 162.1 189.435C162.198 189.435 162.395 189.534 162.395 189.632C162.494 191.601 163.283 193.472 164.565 194.949C164.663 194.654 164.86 194.457 165.156 194.161C165.551 193.866 165.945 193.768 166.241 193.669C168.41 193.078 171.171 193.571 172.354 195.638C172.748 196.328 172.847 197.411 172.255 197.903C171.96 198.1 171.664 198.198 171.368 198.297C169.79 198.592 168.41 198.1 167.424 197.607C166.537 197.214 165.649 196.524 164.959 195.835C164.959 195.934 164.959 195.934 164.959 196.032C164.86 197.509 165.551 199.084 166.734 200.167C167.818 201.152 169.396 201.743 170.974 201.841C171.072 201.841 171.269 201.94 171.171 202.137C171.171 202.53 171.072 202.629 170.875 202.629ZM165.058 195.54C165.846 196.328 166.635 196.918 167.621 197.411C168.509 197.804 169.889 198.297 171.269 198.001C171.467 198.001 171.762 197.903 171.96 197.706C172.354 197.312 172.255 196.623 171.96 196.032C170.875 194.161 168.41 193.768 166.537 194.26C166.241 194.358 165.846 194.457 165.649 194.654C165.255 194.949 165.156 195.244 165.058 195.54Z" fill="white"/>
<path opacity="0.2" d="M162.789 179.983C162.789 179.983 162.69 179.983 162.789 179.983C161.014 179.885 159.338 179.196 158.155 178.113C156.774 176.931 156.084 175.257 156.183 173.583C156.183 173.387 156.183 173.19 156.281 172.993C154.802 171.417 153.915 169.251 153.816 167.085C153.816 166.987 153.915 166.79 154.014 166.79C154.112 166.79 154.309 166.888 154.309 166.987C154.408 168.956 155.197 170.827 156.479 172.303C156.577 172.008 156.774 171.811 157.07 171.516C157.366 171.22 157.859 171.122 158.155 171.024C160.225 170.433 163.085 170.925 164.268 172.993C164.662 173.682 164.761 174.765 164.169 175.257C163.874 175.454 163.578 175.553 163.282 175.651C161.704 175.946 160.324 175.454 159.338 174.962C158.451 174.568 157.563 173.879 156.873 173.19C156.873 173.288 156.873 173.288 156.873 173.387C156.774 174.863 157.465 176.439 158.648 177.522C159.732 178.506 161.31 179.097 162.888 179.196C162.986 179.196 163.183 179.294 163.085 179.491C162.986 179.885 162.888 179.983 162.789 179.983ZM156.873 172.894C157.662 173.682 158.451 174.273 159.437 174.765C160.324 175.159 161.704 175.651 163.085 175.356C163.282 175.356 163.578 175.257 163.775 175.06C164.169 174.667 164.071 173.977 163.775 173.387C162.69 171.516 160.225 171.122 158.352 171.614C158.056 171.713 157.662 171.811 157.465 172.008C157.169 172.303 156.972 172.599 156.873 172.894Z" fill="white"/>
<path opacity="0.2" d="M210.412 170.531C210.018 170.531 209.623 170.433 209.328 170.039C209.13 169.744 209.032 169.448 208.933 169.153C208.637 167.577 209.032 166.199 209.525 165.214C209.919 164.328 210.511 163.442 211.201 162.654C211.102 162.654 211.102 162.654 211.004 162.654C209.525 162.556 207.947 163.245 206.961 164.525C205.975 165.608 205.384 167.184 205.285 168.857C205.285 168.956 205.186 169.153 204.989 169.153C204.891 169.153 204.693 169.054 204.693 168.857C204.792 167.085 205.384 165.411 206.468 164.23C207.651 162.851 209.328 162.162 211.004 162.261C211.201 162.261 211.398 162.261 211.595 162.359C213.173 160.882 215.244 159.898 217.413 159.799C217.61 159.799 217.709 159.898 217.709 159.996C217.709 160.095 217.61 160.291 217.511 160.291C215.539 160.39 213.666 161.276 212.187 162.556C212.483 162.654 212.779 162.851 212.976 163.147C213.272 163.442 213.37 163.934 213.469 164.23C214.06 166.297 213.666 169.153 211.595 170.334C211.3 170.334 210.807 170.531 210.412 170.531ZM211.793 162.851C211.004 163.639 210.412 164.525 209.919 165.411C209.525 166.297 209.13 167.676 209.426 169.054C209.426 169.251 209.525 169.547 209.722 169.744C210.116 170.137 210.807 170.039 211.398 169.744C213.272 168.66 213.666 166.101 213.074 164.23C212.976 163.934 212.877 163.639 212.68 163.344C212.384 163.048 212.088 162.95 211.793 162.851Z" fill="white"/>
<path opacity="0.2" d="M209.229 188.451C209.13 188.451 208.933 188.352 208.933 188.254C208.834 186.285 207.947 184.414 206.665 182.937C206.567 183.232 206.369 183.528 206.074 183.725C205.778 184.02 205.285 184.119 204.989 184.217C202.918 184.808 200.059 184.414 198.876 182.248C198.481 181.559 198.284 180.476 198.974 179.983C199.27 179.786 199.566 179.688 199.862 179.589C201.045 179.393 202.425 179.589 203.806 180.18C204.693 180.574 205.581 181.165 206.271 181.854C206.271 181.756 206.271 181.756 206.271 181.657C206.369 180.18 205.679 178.605 204.496 177.522C203.411 176.537 201.834 175.946 200.158 175.848C200.059 175.848 199.862 175.75 199.96 175.553C199.96 175.454 200.059 175.356 200.256 175.356C202.031 175.454 203.707 176.045 204.89 177.128C206.271 178.309 206.961 179.983 206.862 181.657C206.862 181.854 206.862 182.051 206.764 182.248C208.243 183.823 209.229 185.891 209.327 188.057C209.426 188.352 209.327 188.451 209.229 188.451ZM200.946 179.983C200.651 179.983 200.355 179.983 200.059 180.082C199.862 180.082 199.566 180.18 199.369 180.377C198.974 180.771 199.073 181.46 199.369 182.051C200.453 183.922 203.017 184.315 204.89 183.725C205.186 183.626 205.482 183.528 205.778 183.331C206.074 183.134 206.172 182.839 206.271 182.543C205.482 181.756 204.595 181.165 203.707 180.672C203.017 180.377 202.031 179.983 200.946 179.983Z" fill="white"/>
<path opacity="0.2" d="M201.539 202.629C201.145 202.629 200.849 202.53 200.553 202.235C200.257 201.94 200.159 201.644 200.06 201.349C199.666 199.872 199.962 198.395 200.356 197.411C200.75 196.426 201.243 195.54 201.835 194.752C201.736 194.752 201.736 194.752 201.638 194.752C200.159 194.752 198.68 195.54 197.694 196.82C196.806 198.001 196.313 199.577 196.412 201.25C196.412 201.349 196.313 201.546 196.116 201.546C196.018 201.546 195.82 201.447 195.82 201.25C195.82 199.478 196.313 197.804 197.299 196.524C198.384 195.048 199.962 194.26 201.638 194.26C201.835 194.26 202.032 194.26 202.229 194.26C203.708 192.685 205.68 191.601 207.85 191.306C208.047 191.306 208.145 191.405 208.145 191.503C208.145 191.601 208.047 191.798 207.948 191.798C205.976 192.094 204.201 193.078 202.821 194.457C203.117 194.555 203.413 194.752 203.61 194.949C203.906 195.244 204.103 195.638 204.201 196.032C204.99 198.1 204.694 200.857 202.722 202.235C202.525 202.432 202.032 202.629 201.539 202.629ZM202.525 194.851C201.835 195.638 201.243 196.623 200.849 197.607C200.553 198.494 200.159 199.872 200.553 201.25C200.652 201.447 200.652 201.743 200.849 201.94C201.243 202.334 202.032 202.137 202.525 201.841C204.3 200.66 204.497 198.1 203.807 196.229C203.708 195.934 203.511 195.638 203.314 195.343C203.117 195.048 202.821 194.949 202.525 194.851Z" fill="white"/>
<path opacity="0.2" d="M181.029 205.977C180.93 205.977 180.832 205.878 180.832 205.78C180.733 205.681 180.832 205.484 180.93 205.484C182.705 204.795 184.283 203.417 185.269 201.743C184.973 201.743 184.677 201.644 184.381 201.447C183.987 201.25 183.691 200.857 183.494 200.561C182.311 198.691 181.916 195.934 183.494 194.161C184.086 193.571 184.973 193.078 185.762 193.571C186.058 193.768 186.255 194.063 186.452 194.358C187.241 195.737 187.241 197.214 187.044 198.297C186.945 199.281 186.649 200.266 186.156 201.25C186.255 201.25 186.255 201.25 186.353 201.25C187.734 200.857 189.016 199.774 189.706 198.297C190.297 196.918 190.396 195.343 190.002 193.669C190.002 193.571 190.002 193.374 190.199 193.374C190.297 193.374 190.495 193.374 190.495 193.571C190.988 195.343 190.79 197.017 190.199 198.494C189.509 200.167 188.128 201.349 186.452 201.743C186.255 201.743 186.058 201.841 185.86 201.841C184.776 203.712 183.1 205.189 181.029 205.977ZM185.072 193.964C184.677 193.964 184.184 194.26 183.888 194.555C182.508 196.131 182.902 198.691 183.987 200.266C184.184 200.561 184.381 200.857 184.677 200.955C184.973 201.152 185.269 201.152 185.565 201.152C186.058 200.167 186.452 199.183 186.551 198.1C186.649 197.115 186.649 195.737 185.959 194.457C185.86 194.26 185.663 194.063 185.466 193.866C185.367 193.964 185.269 193.964 185.072 193.964Z" fill="white"/>
<path opacity="0.2" d="M200.257 165.313C200.059 165.313 199.961 165.116 199.961 165.018C200.355 163.147 200.059 161.079 199.271 159.307C199.073 159.504 198.876 159.701 198.482 159.898C198.087 160.095 197.594 160.095 197.299 160.095C195.129 160.095 192.566 158.913 191.974 156.55C191.777 155.762 191.876 154.778 192.664 154.384C192.96 154.187 193.355 154.187 193.65 154.285C195.228 154.384 196.51 155.27 197.299 155.959C198.087 156.648 198.679 157.436 199.271 158.322C199.271 158.224 199.271 158.224 199.369 158.125C199.862 156.747 199.665 155.073 198.778 153.695C197.989 152.415 196.707 151.43 195.129 150.938C195.031 150.938 194.932 150.741 194.932 150.642C194.932 150.544 195.129 150.446 195.228 150.446C196.904 151.036 198.285 152.119 199.172 153.399C200.158 154.876 200.355 156.747 199.862 158.322C199.764 158.519 199.764 158.716 199.566 158.913C200.552 160.882 200.848 163.147 200.454 165.214C200.552 165.214 200.454 165.313 200.257 165.313ZM193.552 154.778C193.355 154.778 193.256 154.778 193.059 154.876C192.566 155.073 192.467 155.861 192.566 156.452C193.059 158.519 195.425 159.602 197.397 159.602C197.693 159.602 198.087 159.602 198.383 159.405C198.679 159.307 198.876 159.012 199.073 158.815C198.58 157.83 197.89 157.042 197.101 156.353C196.313 155.762 195.129 154.975 193.749 154.778C193.65 154.778 193.65 154.778 193.552 154.778Z" fill="white"/>
<path opacity="0.2" d="M166.733 162.458C166.536 162.458 166.437 162.261 166.437 162.162C166.832 160.291 166.536 158.224 165.747 156.452C165.55 156.648 165.353 156.845 164.958 157.042C164.564 157.239 164.071 157.239 163.775 157.239C161.606 157.239 159.042 156.058 158.451 153.695C158.254 152.907 158.352 151.922 159.141 151.529C159.437 151.332 159.831 151.332 160.127 151.43C161.704 151.529 162.986 152.415 163.775 153.104C164.564 153.793 165.156 154.581 165.747 155.467C165.747 155.368 165.747 155.369 165.846 155.27C166.339 153.892 166.142 152.218 165.254 150.839C164.465 149.559 163.183 148.575 161.606 148.083C161.507 148.083 161.409 147.886 161.409 147.787C161.409 147.689 161.606 147.59 161.705 147.59C163.381 148.181 164.761 149.264 165.649 150.544C166.635 152.021 166.832 153.892 166.339 155.467C166.24 155.664 166.24 155.861 166.043 156.058C167.029 158.027 167.325 160.291 166.93 162.359C166.93 162.359 166.832 162.458 166.733 162.458ZM159.93 151.824C159.733 151.824 159.634 151.824 159.437 151.922C158.944 152.119 158.845 152.907 158.944 153.498C159.437 155.565 161.803 156.648 163.775 156.648C164.071 156.648 164.465 156.648 164.761 156.452C165.057 156.353 165.254 156.058 165.451 155.861C164.958 154.876 164.268 154.089 163.479 153.399C162.691 152.809 161.507 152.021 160.127 151.824C160.127 151.824 160.028 151.824 159.93 151.824Z" fill="white"/>
</g>
<path d="M174.72 107.714C175.015 116.379 173.438 121.105 171.564 125.831C174.72 128.785 179.945 132.428 186.847 132.329C193.749 132.231 192.566 128.686 190.791 126.323C185.861 123.862 185.566 120.219 186.749 117.954L174.72 107.714Z" fill="#CE7A63"/>
<path opacity="0.2" d="M186.65 118.053L181.227 114.606C178.663 115 177.48 118.151 180.635 120.612C182.805 122.286 186.157 122.877 186.551 122.483C185.861 120.809 186.058 119.234 186.65 118.053Z" fill="black"/>
<path d="M188.819 94.2254C195.82 92.7485 194.637 101.413 192.862 105.942C188.228 99.2468 188.819 94.2254 188.819 94.2254Z" fill="#263238"/>
<path d="M170.874 103.481C172.255 111.16 172.649 115.197 177.579 117.856C190.003 124.354 192.763 119.923 193.749 111.948C194.637 104.76 192.27 93.3392 184.284 91.1731C176.494 89.007 169.494 95.8007 170.874 103.481Z" fill="#CE7A63"/>
<path d="M173.14 109.88C179.845 111.259 172.647 104.17 174.225 101.314C175.803 98.4591 184.282 100.625 181.817 95.8992C188.423 97.573 194.537 98.1637 195.818 93.7331C197.79 87.3332 191.48 86.0533 187.832 87.924C184.775 89.4994 184.775 89.9916 180.141 88.4163C175.507 86.841 163.971 87.7271 166.929 93.0439C161.703 93.2408 161.703 99.936 166.041 101.807C170.281 103.677 168.112 108.797 173.14 109.88Z" fill="#263238"/>
<path d="M171.761 106.237C171.662 106.237 171.563 106.139 171.465 106.04C171.465 105.942 171.465 105.745 171.662 105.745L182.114 102.496C182.212 102.496 182.409 102.496 182.409 102.693C182.409 102.791 182.409 102.988 182.212 102.988L171.761 106.237Z" fill="white"/>
<path d="M168.113 93.3393C165.55 91.2716 162.197 90.7793 162.197 91.9608C162.197 93.1423 166.93 92.9454 167.423 93.7331C167.817 94.7177 168.113 93.3393 168.113 93.3393Z" fill="#263238"/>
<path d="M189.903 111.85C189.903 111.85 187.537 111.357 180.832 111.16C181.621 112.736 183.1 114.016 186.551 114.016C189.903 114.114 189.903 111.85 189.903 111.85Z" fill="white"/>
<path d="M168.506 109.487C169.393 111.357 170.971 112.539 172.351 113.031C174.521 113.819 175.507 111.653 174.915 109.388C174.323 107.32 172.549 104.367 170.379 104.662C168.309 104.859 167.52 107.32 168.506 109.487Z" fill="#CE7A63"/>
<path d="M183.988 103.579C184.086 104.268 184.481 104.761 184.974 104.662C185.368 104.564 185.664 103.973 185.565 103.382C185.467 102.693 185.072 102.201 184.579 102.299C184.185 102.397 183.889 102.988 183.988 103.579Z" fill="#263238"/>
<path d="M191.087 103.481C191.186 104.17 191.58 104.662 192.073 104.564C192.468 104.465 192.764 103.874 192.665 103.284C192.566 102.594 192.172 102.102 191.679 102.201C191.285 102.201 190.989 102.791 191.087 103.481Z" fill="#263238"/>
<path d="M181.325 101.905C181.227 101.905 181.227 101.905 181.128 101.807C180.931 101.708 180.931 101.413 181.03 101.216C182.213 99.4437 184.086 99.4437 184.185 99.4437C184.382 99.4437 184.579 99.6406 184.579 99.8376C184.579 100.034 184.382 100.231 184.185 100.231C184.086 100.231 182.706 100.231 181.72 101.708C181.523 101.905 181.424 101.905 181.325 101.905Z" fill="#263238"/>
<path d="M193.058 99.7391C192.96 99.7391 192.762 99.7391 192.664 99.6406C191.481 98.3607 190.1 98.656 190.002 98.656C189.804 98.656 189.607 98.5576 189.509 98.3607C189.41 98.1637 189.607 97.9668 189.804 97.8684C189.903 97.8684 191.678 97.4745 193.157 99.0499C193.354 99.2468 193.255 99.4437 193.157 99.6406C193.255 99.7391 193.157 99.7391 193.058 99.7391Z" fill="#263238"/>
<path d="M191.875 108.108C191.382 108.108 190.987 107.911 190.593 107.517C189.804 106.631 189.311 104.859 189.508 102.89C189.706 100.034 191.185 97.7699 192.664 97.7699C193.157 97.7699 193.551 97.9668 193.945 98.3607C194.734 99.2468 195.227 101.019 195.03 102.988C194.833 105.844 193.452 108.108 191.875 108.108ZM192.762 98.2622C191.48 98.2622 190.297 100.428 190.1 102.988C190.001 104.761 190.297 106.434 191.086 107.222C191.382 107.517 191.678 107.714 191.973 107.714C193.255 107.714 194.438 105.548 194.636 102.988C194.734 101.216 194.438 99.5422 193.65 98.7545C193.354 98.4591 193.058 98.2622 192.762 98.2622Z" fill="white"/>
<path d="M189.115 103.481C189.115 103.481 190.989 107.124 192.862 108.797C191.777 109.979 189.707 109.782 189.707 109.782L189.115 103.481Z" fill="#BA4D3C"/>
<path d="M165.648 143.75L163.084 146.409L160.422 149.166C158.647 151.036 156.971 152.907 155.393 154.778C154.605 155.664 153.816 156.648 153.027 157.633C152.238 158.519 151.548 159.504 150.858 160.39C150.168 161.276 149.576 162.261 149.083 163.048C148.59 163.836 148.196 164.624 147.998 165.116L148.196 163.738C148.097 163.541 148.097 164.131 148.196 164.722C148.294 165.411 148.59 166.199 148.886 167.085C149.576 168.857 150.365 170.728 151.351 172.599C152.337 174.47 153.323 176.439 154.407 178.309L157.661 184.119L157.76 184.217C158.844 186.088 158.154 188.451 156.281 189.534C154.9 190.321 153.126 190.125 151.942 189.14C149.97 187.565 148.294 185.989 146.618 184.315C144.942 182.642 143.266 180.869 141.688 178.999C140.11 177.128 138.631 175.06 137.251 172.697C136.561 171.516 135.969 170.236 135.378 168.759C134.786 167.282 134.293 165.608 134.293 163.147C134.293 162.851 134.293 162.556 134.392 162.261L134.49 161.768C134.983 159.602 135.575 157.928 136.265 156.353C136.955 154.778 137.744 153.399 138.533 152.119C140.11 149.461 141.787 147.098 143.561 144.833C145.336 142.569 147.111 140.403 148.984 138.335C149.97 137.35 150.858 136.267 151.844 135.283C152.83 134.298 153.816 133.314 154.9 132.329C158.056 129.375 162.986 129.572 165.944 132.723C168.803 135.775 168.704 140.403 165.845 143.357L165.648 143.75Z" fill="#CF7A64"/>
<path d="M152.533 181.952L161.309 182.051L158.252 192.094C158.252 192.094 150.364 191.011 150.266 186.777L152.533 181.952Z" fill="#CE7A63"/>
<path d="M167.62 188.549L165.944 191.897C165.254 193.177 163.775 193.866 162.296 193.472L158.154 192.192L161.211 182.149L166.141 184.512C167.719 185.202 168.409 186.974 167.62 188.549Z" fill="#CE7A63"/>
<path d="M163.774 126.914C159.435 127.997 154.308 129.671 149.674 134.791C146.42 138.434 140.8 146.409 138.039 151.922C142.969 160.488 150.956 161.473 153.026 160.882C160.52 155.861 165.055 153.301 167.225 146.606C169.394 139.91 167.027 132.034 163.774 126.914Z" fill="#263238"/>
<path d="M184.383 108.108C183.89 108.108 183.495 107.911 183.101 107.517C182.312 106.631 181.819 104.859 182.016 102.89C182.213 100.034 183.692 97.7699 185.171 97.7699C185.664 97.7699 186.059 97.9668 186.453 98.3607C187.242 99.2468 187.735 101.019 187.538 102.988C187.341 105.844 185.862 108.108 184.383 108.108ZM185.171 98.2622C183.89 98.2622 182.706 100.428 182.509 102.988C182.411 104.761 182.706 106.434 183.495 107.222C183.791 107.517 184.087 107.714 184.383 107.714C185.664 107.714 186.848 105.548 187.045 102.988C187.143 101.216 186.848 99.5422 186.059 98.7545C185.763 98.4591 185.467 98.2622 185.171 98.2622Z" fill="white"/>
<path d="M189.806 103.185C189.707 103.185 189.608 103.087 189.608 102.988C189.608 102.89 189.51 102.791 189.411 102.791C188.918 102.594 187.834 102.988 187.439 103.185C187.341 103.284 187.143 103.185 187.045 103.087C186.946 102.988 187.045 102.791 187.143 102.693C187.341 102.594 188.622 102.004 189.51 102.299C189.806 102.397 189.904 102.594 190.003 102.791C190.101 102.89 190.003 103.087 189.904 103.087C189.904 103.185 189.806 103.185 189.806 103.185Z" fill="white"/>
<path d="M330.113 125.24C337.804 116.379 333.86 106.73 325.183 101.413C316.506 96.0961 306.35 99.936 302.505 108.994C298.561 118.052 300.04 120.416 297.575 120.908C296.49 125.634 299.942 130.655 303.886 127.997C309.802 130.557 320.352 136.464 330.113 125.24Z" fill="#263238"/>
<path d="M319.464 132.428C315.224 132.428 311.477 130.557 308.716 129.277C308.322 129.08 307.928 128.883 307.533 128.686L307.928 127.898C308.322 128.095 308.716 128.292 309.209 128.489C314.435 131.049 322.323 134.889 330.704 126.225C333.761 122.975 335.24 119.431 334.845 115.788C334.451 111.948 331.986 108.207 328.042 105.548L328.535 104.761C332.676 107.616 335.24 111.554 335.733 115.689C336.127 119.628 334.648 123.468 331.296 126.914C327.253 131.049 323.112 132.428 319.464 132.428Z" fill="#263238"/>
<path d="M301.617 112.539C299.941 106.73 301.815 94.9146 316.407 94.8161C331 94.8161 337.113 105.056 331 113.622C313.45 117.659 301.617 112.539 301.617 112.539Z" fill="#263238"/>
<path d="M295.603 124.255C286.532 126.618 294.42 141.683 303.294 134.791C301.421 134.692 296.984 130.261 300.336 127.505C296.787 124.452 295.603 124.255 295.603 124.255Z" fill="#263238"/>
<path d="M295.702 137.744C294.716 137.744 293.828 137.449 293.237 137.154C290.772 135.874 289.095 132.723 289.391 129.671C289.687 127.111 291.363 125.24 294.025 124.551L294.223 125.437C291.166 126.225 290.476 128.489 290.279 129.769C289.983 132.428 291.462 135.184 293.631 136.267C295.603 137.252 297.772 136.76 299.843 134.791L300.434 135.48C298.758 137.252 297.082 137.744 295.702 137.744Z" fill="#263238"/>
<path d="M302.604 128.588C300.238 128.095 296.688 122.089 298.167 120.612C296.294 120.514 294.716 121.991 294.223 123.665C293.631 125.535 294.815 128.981 298.956 130.065C301.125 130.655 302.604 128.588 302.604 128.588Z" fill="#407BFF"/>
<path d="M303.097 153.399C302.998 155.664 302.899 157.83 302.702 160.095L302.111 166.79C301.913 169.054 301.618 171.22 301.322 173.485C301.125 174.568 301.026 175.75 300.829 176.931C300.632 178.211 300.336 179.491 299.941 180.672C298.462 185.399 296.293 189.435 293.927 193.472C291.56 197.411 289.095 201.152 286.236 204.795C285.546 205.681 284.165 205.878 283.278 205.189C282.489 204.598 282.193 203.417 282.686 202.53C284.658 198.691 286.63 194.654 288.405 190.715C289.293 188.746 290.081 186.777 290.87 184.709C291.659 182.74 292.251 180.771 292.744 178.802C292.941 177.817 293.138 176.931 293.237 176.045C293.335 175.06 293.434 173.977 293.434 172.894L293.828 166.297L294.124 159.701C294.321 157.535 294.42 155.27 294.518 153.104C294.716 150.741 296.786 148.969 299.153 149.166C301.519 149.166 303.195 151.135 303.097 153.399Z" fill="#FFB573"/>
<path d="M302.506 193.472C302.506 193.472 302.506 245.065 305.661 272.929C305.957 299.119 311.971 358.391 311.971 358.391H318.578C319.662 329.05 327.846 301.58 322.423 275.686C335.142 224.782 329.226 193.571 329.226 193.571L302.506 193.472Z" fill="#FFB573"/>
<path d="M309.703 193.571C309.703 193.571 314.633 256.683 324.592 279.23C334.945 302.959 353.482 349.431 355.256 357.308L360.778 355.831C360.778 355.831 357.13 304.829 340.269 275.981C345.495 204.893 332.283 193.571 332.283 193.571H309.703Z" fill="#FFB573"/>
<path d="M300.335 140.6C294.814 145.326 293.039 152.907 293.039 158.125C296.391 163.541 306.744 165.214 306.744 165.214C306.744 165.214 308.421 154.581 307.632 149.559C306.843 144.538 303.589 137.843 300.335 140.6Z" fill="#263238"/>
<path d="M296.392 150.347C295.702 144.44 299.744 139.123 305.66 138.138C307.238 137.843 309.013 137.547 310.59 137.35C315.52 136.76 320.155 136.76 325.873 136.858C327.352 136.858 328.733 136.957 330.113 137.055C335.142 137.35 338.889 141.978 338.198 146.901C334.945 168.267 333.071 183.725 335.142 193.078C335.142 193.078 341.847 201.94 344.805 222.321C347.467 240.142 346.777 270.073 349.636 286.221C339.283 293.605 306.252 293.211 301.421 288.879C302.801 256.289 296.096 213.558 301.223 193.866C299.153 182.937 300.336 174.568 299.153 167.971C291.561 162.851 297.279 158.125 296.392 150.347Z" fill="#263238"/>
<path d="M315.619 196.918C309.801 196.918 304.378 196.327 302.012 195.343C301.026 194.949 300.533 194.358 300.632 193.768C300.632 193.571 300.829 193.472 300.927 193.472C301.125 193.472 301.223 193.669 301.223 193.768C301.223 194.161 301.913 194.555 302.308 194.752C308.027 197.312 331.69 197.017 335.437 192.783C335.536 192.685 335.733 192.685 335.832 192.783C335.93 192.881 335.93 193.078 335.832 193.177C333.465 195.737 324.098 196.918 315.619 196.918Z" fill="white"/>
<path d="M315.324 194.949C309.506 194.949 304.083 194.358 301.717 193.374C300.731 192.98 300.238 192.389 300.337 191.798C300.337 191.601 300.534 191.503 300.632 191.503C300.83 191.503 300.928 191.7 300.928 191.798C300.928 192.192 301.618 192.586 302.013 192.783C307.732 195.343 331.396 195.048 335.142 190.814C335.241 190.715 335.438 190.715 335.537 190.814C335.635 190.912 335.635 191.109 335.537 191.208C333.17 193.768 323.803 194.949 315.324 194.949Z" fill="white"/>
<path opacity="0.2" d="M320.451 261.212C321.339 248.117 320.451 228.524 312.465 217.496C314.535 231.477 320.451 261.212 320.451 261.212Z" fill="black"/>
<path d="M323.309 119.825C322.619 124.748 322.225 133.707 325.774 136.858C325.774 136.858 314.041 141.486 307.336 153.104C302.504 142.175 310.491 137.35 310.491 137.35C315.914 135.874 315.52 131.837 314.336 128.095L323.309 119.825Z" fill="#FFB573"/>
<path opacity="0.2" d="M319.76 123.172L314.436 128.095C314.731 128.981 314.929 129.868 315.027 130.754C317.098 130.36 319.859 127.997 319.957 125.831C320.056 124.748 319.957 123.665 319.76 123.172Z" fill="black"/>
<path d="M325.381 108.896C325.776 117.068 326.17 120.514 322.522 125.043C317.099 131.837 307.042 130.36 304.281 122.483C301.717 115.394 301.52 103.284 309.014 99.3453C316.409 95.4069 324.987 100.822 325.381 108.896Z" fill="#FFB573"/>
<path d="M317.689 102.496C317.098 111.062 326.366 118.446 329.225 115.197C332.183 111.948 325.084 96.6869 317.689 102.496Z" fill="#263238"/>
<path d="M304.773 101.807C315.225 109.782 327.55 109.782 326.761 103.973C325.972 98.1637 310.985 92.9454 304.773 101.807Z" fill="#263238"/>
<path d="M312.858 112.243C312.957 112.933 312.661 113.425 312.168 113.523C311.774 113.523 311.281 113.031 311.281 112.44C311.182 111.751 311.478 111.259 311.971 111.16C312.365 111.062 312.76 111.554 312.858 112.243Z" fill="#263238"/>
<path d="M304.575 113.031C304.674 113.72 304.378 114.213 303.885 114.311C303.49 114.311 302.997 113.819 302.997 113.228C302.899 112.539 303.195 112.046 303.688 111.948C304.082 111.948 304.575 112.44 304.575 113.031Z" fill="#263238"/>
<path d="M303.885 111.948L302.209 111.653C302.209 111.653 303.195 112.834 303.885 111.948Z" fill="#263238"/>
<path d="M307.239 113.425C307.239 113.425 306.45 116.379 305.365 117.856C306.351 118.545 307.83 118.052 307.83 118.052L307.239 113.425Z" fill="#ED893E"/>
<path d="M328.042 116.28C327.45 117.856 326.168 118.939 324.985 119.332C323.211 119.923 322.126 117.954 322.52 115.985C322.915 114.114 324.197 111.653 326.07 111.948C327.943 112.243 328.732 114.508 328.042 116.28Z" fill="#FFB573"/>
<path d="M314.93 108.896C314.831 108.896 314.732 108.797 314.634 108.699C313.549 107.32 312.07 107.419 312.07 107.419C311.873 107.419 311.676 107.32 311.676 107.025C311.676 106.828 311.774 106.631 312.07 106.631C312.169 106.631 313.944 106.533 315.324 108.207C315.423 108.404 315.423 108.6 315.225 108.797C315.127 108.896 315.028 108.896 314.93 108.896Z" fill="#263238"/>
<path d="M302.209 110.274C302.111 110.274 302.012 110.274 301.914 110.274C301.716 110.176 301.618 109.979 301.716 109.782C302.505 107.813 304.28 107.517 304.379 107.419C304.576 107.419 304.773 107.517 304.872 107.714C304.872 107.911 304.773 108.108 304.576 108.207C304.477 108.207 303.097 108.502 302.505 110.077C302.308 110.176 302.209 110.176 302.209 110.274Z" fill="#263238"/>
<path d="M312.069 111.062L310.393 110.767C310.393 110.767 311.379 111.948 312.069 111.062Z" fill="#263238"/>
<path d="M324.395 180.673L317.887 177.325L316.408 185.595C316.408 185.595 321.634 186.875 325.381 185.3L325.972 184.315C326.071 182.543 325.874 181.756 324.395 180.673Z" fill="#FFB573"/>
<path d="M312.662 179.589L312.465 183.232C312.465 184.316 313.254 185.202 314.24 185.399L316.31 185.694L317.789 177.423L314.535 177.62C313.549 177.719 312.761 178.506 312.662 179.589Z" fill="#FFB573"/>
<path d="M338.198 144.538C339.776 149.067 341.255 153.498 342.536 158.125C343.818 162.753 345.1 167.282 345.889 172.303C346.086 173.583 346.283 174.863 346.283 176.34C346.283 177.916 345.987 179.885 345.001 181.657C344.015 183.429 342.339 184.709 340.86 185.399C339.283 186.186 337.804 186.482 336.423 186.58C333.564 186.875 331 186.58 328.535 186.088C327.253 185.891 326.07 185.595 324.887 185.202C323.704 184.808 322.521 184.512 321.337 184.02C320.253 183.626 319.661 182.346 320.154 181.263C320.549 180.377 321.436 179.786 322.422 179.983H322.521C323.605 180.082 324.69 180.279 325.873 180.377C326.958 180.476 328.141 180.476 329.225 180.574C331.395 180.672 333.564 180.476 335.339 179.983C336.226 179.786 337.015 179.393 337.508 179.097C338.001 178.703 338.297 178.408 338.395 178.113C338.494 177.817 338.592 177.325 338.494 176.636C338.395 175.848 338.198 174.765 338.001 173.682C337.606 171.614 337.015 169.35 336.325 167.184C335.733 165.017 335.043 162.753 334.353 160.587C332.972 156.156 331.493 151.726 330.113 147.393C329.324 145.129 330.606 142.667 332.874 141.978C335.043 141.19 337.409 142.372 338.198 144.538Z" fill="#FFB573"/>
<path d="M283.476 201.054L276.18 200.463L277.954 208.635C277.954 208.635 282.687 207.847 285.645 205.386C285.941 205.09 286.138 204.697 286.237 204.303C286.237 204.007 286.237 203.712 286.138 203.417C285.547 202.038 285.054 201.447 283.476 201.054Z" fill="#FFB573"/>
<path d="M272.235 204.5L273.517 207.946C273.911 208.93 274.996 209.521 275.982 209.226L277.954 208.635L276.179 200.463L273.221 201.94C272.235 202.432 271.841 203.515 272.235 204.5Z" fill="#FFB573"/>
<path d="M333.269 137.843C338.1 139.91 340.467 143.16 344.509 152.415C343.523 158.716 332.874 164.033 332.874 164.033C332.874 164.033 329.325 156.058 328.24 151.135C326.958 146.212 328.339 135.775 333.269 137.843Z" fill="#263238"/>
<path d="M319.07 358.49C319.07 358.293 318.775 358.096 318.479 358.096L312.365 357.997C311.675 357.997 310.985 358.096 310.492 358.391C308.717 359.671 305.365 361.05 301.224 361.739C299.942 361.936 300.533 364.102 303.59 364.2C308.717 364.299 309.605 363.905 313.943 363.905C317.69 363.905 315.915 364.102 318.873 364.2C319.563 364.2 320.155 363.806 320.056 363.314L319.07 358.49Z" fill="#263238"/>
<path d="M361.863 354.748C361.764 354.551 361.469 354.453 361.173 354.551L355.158 356.028C354.567 356.225 353.876 356.422 353.482 356.914C352.003 358.588 350.031 361.148 345.89 361.739C344.608 361.936 345.2 364.102 348.256 364.2C353.383 364.299 353.975 362.33 358.215 361.345C361.863 360.459 360.187 361.05 363.046 360.36C363.736 360.164 364.131 359.573 363.934 359.179L361.863 354.748Z" fill="#263238"/>
<path d="M310.295 148.87C312.563 147.984 318.972 147.492 321.831 150.15C326.564 147.689 329.128 140.797 328.536 136.563C326.465 135.086 324.69 135.381 324.69 135.381C324.69 135.381 314.239 142.077 310.295 148.87Z" fill="#FAFAFA"/>
<path d="M306.154 148.969C306.154 148.969 304.872 143.455 311.084 137.252C310.295 136.76 307.731 137.744 307.731 137.744C307.731 137.744 300.139 142.077 301.322 150.839C303.59 148.772 306.154 148.969 306.154 148.969Z" fill="#FAFAFA"/>
<path d="M314.928 118.446C315.224 118.151 315.52 117.856 315.815 117.462C315.914 117.363 315.815 117.265 315.717 117.166C315.618 117.068 315.421 117.166 315.421 117.265C313.449 119.923 310.491 119.923 310.392 119.923C310.294 119.923 310.195 120.022 310.195 120.12C310.195 120.219 310.294 120.317 310.392 120.317C310.491 120.317 312.857 120.317 314.928 118.446Z" fill="#263238"/>
<path d="M227.963 365.874H226.188L218.695 221.828C218.497 217.496 214.849 214.05 210.511 214.05H184.382C180.043 214.05 176.395 217.496 176.198 221.828L168.704 365.874H166.93L174.423 221.73C174.719 216.413 179.057 212.278 184.382 212.278H210.511C215.835 212.278 220.174 216.413 220.469 221.73L227.963 365.874Z" fill="#407BFF"/>
<path opacity="0.7" d="M227.963 365.874H226.188L218.695 221.828C218.497 217.496 214.849 214.05 210.511 214.05H184.382C180.043 214.05 176.395 217.496 176.198 221.828L168.704 365.874H166.93L174.423 221.73C174.719 216.413 179.057 212.278 184.382 212.278H210.511C215.835 212.278 220.174 216.413 220.469 221.73L227.963 365.874Z" fill="white"/>
<path d="M325.576 365.874H323.802L316.308 221.828C316.111 217.496 312.463 214.05 308.124 214.05H281.995C277.657 214.05 274.009 217.496 273.811 221.828L266.318 365.874H264.543L272.037 221.73C272.332 216.413 276.671 212.278 281.995 212.278H308.124C313.449 212.278 317.787 216.413 318.083 221.73L325.576 365.874Z" fill="#407BFF"/>
<path opacity="0.7" d="M325.576 365.874H323.802L316.308 221.828C316.111 217.496 312.463 214.05 308.124 214.05H281.995C277.657 214.05 274.009 217.496 273.811 221.828L266.318 365.874H264.543L272.037 221.73C272.332 216.413 276.671 212.278 281.995 212.278H308.124C313.449 212.278 317.787 216.413 318.083 221.73L325.576 365.874Z" fill="white"/>
<path d="M322.225 206.764H169.789V215.133H322.225V206.764Z" fill="#407BFF"/>
<path opacity="0.3" d="M322.226 206.764H269.475V215.133H322.226V206.764Z" fill="black"/>
<path d="M281.7 204.795H209.92C209.328 204.795 208.934 205.287 208.934 205.78C208.934 206.37 209.427 206.764 209.92 206.764H281.7C282.292 206.764 282.686 206.272 282.686 205.78C282.686 205.189 282.193 204.795 281.7 204.795Z" fill="#407BFF"/>
<path opacity="0.1" d="M281.7 204.795H209.92C209.328 204.795 208.934 205.287 208.934 205.78C208.934 206.37 209.427 206.764 209.92 206.764H281.7C282.292 206.764 282.686 206.272 282.686 205.78C282.686 205.189 282.193 204.795 281.7 204.795Z" fill="white"/>
<path d="M263.656 206.764H205.482C204.398 206.764 203.313 205.878 203.116 204.893L194.932 171.614C194.636 170.531 195.326 169.744 196.411 169.744H254.585C255.67 169.744 256.754 170.63 256.951 171.614L265.135 204.893C265.332 205.878 264.741 206.764 263.656 206.764Z" fill="#407BFF"/>
<path opacity="0.3" d="M263.656 206.764H205.482C204.398 206.764 203.313 205.878 203.116 204.893L194.932 171.614C194.636 170.531 195.326 169.744 196.411 169.744H254.585C255.67 169.744 256.754 170.63 256.951 171.614L265.135 204.893C265.332 205.878 264.741 206.764 263.656 206.764Z" fill="white"/>
<path d="M246.5 196.623C246.5 196.623 246.402 196.623 246.5 196.623C246.303 196.524 246.205 196.426 246.205 196.229C247.191 193.374 247.191 190.321 246.106 187.762C246.007 187.86 245.909 188.057 245.81 188.155C245.219 189.042 244.134 189.534 242.852 189.731C241.768 189.928 240.782 189.829 239.894 189.435C238.908 189.042 238.119 188.254 237.824 187.368C237.429 186.383 237.528 185.202 238.218 184.414C239.598 182.642 242.556 183.036 244.035 184.02C244.923 184.611 245.613 185.497 246.007 186.285C246.007 186.088 246.106 185.989 246.106 185.792C246.205 184.512 245.81 183.429 244.923 182.445C243.641 181.165 241.472 180.377 239.303 180.476C238.514 180.476 237.824 180.673 237.232 180.869C237.133 180.968 236.936 180.869 236.838 180.673C236.739 180.574 236.838 180.377 237.035 180.279C237.725 179.983 238.514 179.885 239.303 179.786C241.57 179.688 243.937 180.476 245.416 181.952C246.402 183.036 246.895 184.316 246.698 185.694C246.698 186.088 246.599 186.482 246.5 186.875C247.881 189.632 247.979 193.078 246.895 196.229C246.698 196.623 246.599 196.623 246.5 196.623ZM241.077 183.823C240.19 183.823 239.204 184.119 238.711 184.808C238.218 185.399 238.119 186.383 238.415 187.171C238.711 187.958 239.401 188.549 240.19 188.943C240.979 189.238 241.866 189.337 242.754 189.238C243.937 189.042 244.824 188.549 245.416 187.86C245.613 187.663 245.712 187.368 245.81 187.171C245.416 186.383 244.726 185.3 243.74 184.611C243.049 184.119 242.063 183.823 241.077 183.823Z" fill="white"/>
<path d="M252.218 192.881H239.4L240.682 206.764H250.937L252.218 192.881Z" fill="#407BFF"/>
<path d="M245.612 182.149C244.922 182.149 244.527 182.051 244.429 181.952C244.33 181.952 244.231 181.854 244.231 181.756C244.231 181.657 243.936 179.491 245.71 178.014C247.485 176.537 250.542 176.143 250.64 176.143C250.739 176.143 250.838 176.143 250.838 176.242C250.936 176.34 250.936 176.439 250.936 176.537C250.936 176.636 250.147 179.688 248.373 181.165C247.387 181.952 246.401 182.149 245.612 182.149ZM244.823 181.46C245.316 181.559 246.795 181.756 248.077 180.673C249.359 179.589 250.049 177.62 250.345 176.734C249.457 176.833 247.387 177.325 246.105 178.408C244.823 179.491 244.724 180.968 244.823 181.46Z" fill="white"/>
<path d="M235.653 189.238C234.273 189.238 232.893 188.549 232.794 188.549C232.695 188.549 232.695 188.451 232.695 188.451C232.695 188.352 232.695 188.352 232.794 188.254C232.893 188.155 234.273 186.777 235.752 186.58C237.231 186.285 238.217 187.368 238.217 187.466C238.217 187.565 238.316 187.565 238.217 187.663C238.217 187.762 237.625 189.042 236.146 189.238C236.048 189.14 235.851 189.238 235.653 189.238ZM233.287 188.254C233.78 188.451 235.16 188.943 236.146 188.746C237.231 188.549 237.724 187.762 237.921 187.466C237.724 187.269 236.935 186.679 235.851 186.777C234.766 187.072 233.681 187.86 233.287 188.254Z" fill="white"/>
<path d="M102.248 341.949C102.149 341.949 101.952 341.85 101.952 341.653C99.6839 317.629 103.825 253.532 108.755 237.68C108.755 237.483 108.952 237.483 109.15 237.483C109.347 237.483 109.347 237.68 109.347 237.877C104.515 253.631 100.276 317.629 102.543 341.653C102.543 341.752 102.445 341.949 102.248 341.949Z" fill="#263238"/>
<path d="M113.094 321.666H90.416L93.374 365.874H110.136L113.094 321.666Z" fill="#407BFF"/>
<path d="M102.445 254.025C106.291 258.16 104.91 263.181 104.91 263.181C104.91 263.181 99.7832 264.264 95.9378 260.129C92.0924 255.994 91.0078 248.215 91.0078 248.215C91.0078 248.215 98.6 249.889 102.445 254.025Z" fill="#263238"/>
<path d="M115.953 275.686C109.741 279.427 103.727 276.375 103.727 276.375C103.727 276.375 103.727 269.581 110.037 265.84C116.249 262.098 126.405 262.689 126.405 262.689C126.405 262.689 122.165 271.846 115.953 275.686Z" fill="#263238"/>
<path d="M114.671 236.696C114.671 238.763 112.995 240.437 110.925 240.437C108.854 240.437 107.178 238.763 107.178 236.696C107.178 234.628 108.854 232.954 110.925 232.954C112.995 232.954 114.671 234.628 114.671 236.696Z" fill="#407BFF"/>
<path d="M87.261 297.74C93.5714 304.534 102.051 302.86 102.051 302.86C102.051 302.86 104.417 294.59 98.107 287.796C91.7966 281.002 79.1758 278.245 79.1758 278.245C79.1758 278.245 80.9506 290.947 87.261 297.74Z" fill="#263238"/>
</svg>
