<svg width="36" height="36" viewBox="0 0 36 36" fill="none" xmlns="http://www.w3.org/2000/svg">
<path d="M18 36C27.9411 36 36 27.9411 36 18C36 8.05887 27.9411 0 18 0C8.05887 0 0 8.05887 0 18C0 27.9411 8.05887 36 18 36Z" fill="url(#paint0_linear)"/>
<path d="M12.1875 19.3118L14.3231 25.2305C14.3231 25.2305 14.5977 25.7796 14.8722 25.7796C15.1468 25.7796 19.418 21.3559 19.418 21.3559L24.1468 12.2186L12.2638 17.7864L12.1875 19.3118Z" fill="#C8DAEA"/>
<path d="M15.0105 20.8373L14.5986 25.2C14.5986 25.2 14.4308 26.5424 15.758 25.2C17.0851 23.8576 18.3664 22.8356 18.3664 22.8356" fill="#A9C6D8"/>
<path d="M12.2189 19.5254L7.82567 18.0915C7.82567 18.0915 7.30703 17.878 7.47483 17.3898C7.50533 17.2831 7.58161 17.2068 7.79516 17.0542C8.77144 16.3831 25.8104 10.2508 25.8104 10.2508C25.8104 10.2508 26.2986 10.0831 26.5731 10.1898C26.7104 10.2356 26.7867 10.2966 26.863 10.4949C26.8935 10.5712 26.9087 10.7237 26.9087 10.8763C26.9087 10.9831 26.8935 11.0898 26.8782 11.2576C26.7714 12.9356 23.6748 25.4288 23.6748 25.4288C23.6748 25.4288 23.4918 26.161 22.8206 26.1915C22.5765 26.2068 22.2867 26.1458 21.9358 25.8407C20.624 24.7119 16.1087 21.6763 15.1172 21.0203C15.0562 20.9898 15.0409 20.9288 15.0409 20.883C15.0257 20.8068 15.1019 20.7305 15.1019 20.7305C15.1019 20.7305 22.9731 13.7441 23.1714 13.0119C23.1867 12.9508 23.1257 12.9203 23.0494 12.9508C22.5308 13.1492 13.4697 18.8542 12.4782 19.4949C12.3867 19.5559 12.2189 19.5254 12.2189 19.5254Z" fill="white"/>
<defs>
<linearGradient id="paint0_linear" x1="18" y1="36" x2="18" y2="0" gradientUnits="userSpaceOnUse">
<stop stop-color="#1D93D2"/>
<stop offset="1" stop-color="#38B0E3"/>
</linearGradient>
</defs>
</svg>
