<svg width="36" height="36" viewBox="0 0 36 36" fill="none" xmlns="http://www.w3.org/2000/svg">
<path d="M36 18C36 27.9421 27.9421 36 18 36C8.05791 36 0 27.9421 0 18C0 8.05791 8.05791 0 18 0C27.9421 0 36 8.05791 36 18Z" fill="#4D76A1"/>
<path fill-rule="evenodd" clip-rule="evenodd" d="M17.319 25.8975H18.7221C18.7221 25.8975 19.1631 25.8574 19.3636 25.6169C19.564 25.4165 19.564 25.0156 19.564 25.0156C19.564 25.0156 19.5239 23.1314 20.4059 22.8508C21.2878 22.5701 22.3702 24.6949 23.5729 25.4966C24.4549 26.098 25.1364 25.9777 25.1364 25.9777L28.3034 25.9376C28.3034 25.9376 29.9471 25.8174 29.1854 24.5345C29.1052 24.4142 28.7444 23.5724 26.8201 21.8084C24.8558 19.9644 25.0963 20.2851 27.5017 17.0779C28.9449 15.1537 29.5462 13.951 29.3458 13.4699C29.1854 12.9888 28.103 13.1091 28.103 13.1091L24.5351 13.1492C24.5351 13.1492 24.2544 13.1091 24.0941 13.2294C23.8936 13.3497 23.7734 13.6303 23.7734 13.6303C23.7734 13.6303 23.2121 15.1136 22.4504 16.3964C20.887 19.0824 20.2455 19.2427 19.9649 19.0423C19.3636 18.6414 19.5239 17.4788 19.5239 16.637C19.5239 14.0312 19.9248 12.9488 18.7622 12.6681C18.3613 12.588 18.0807 12.5078 17.1186 12.5078C15.8357 12.5078 14.7934 12.5078 14.152 12.8285C13.7511 13.0289 13.4304 13.4699 13.6308 13.51C13.8714 13.5501 14.3925 13.6704 14.6731 14.0312C15.0339 14.5122 15.0339 15.6347 15.0339 15.6347C15.0339 15.6347 15.2344 18.6815 14.5529 19.0824C14.0718 19.363 13.4304 18.8018 11.9872 16.3563C11.2656 15.1136 10.7043 13.7105 10.7043 13.7105C10.7043 13.7105 10.5841 13.4699 10.4237 13.3096C10.1832 13.1492 9.86246 13.1091 9.86246 13.1091L6.49497 13.1492C6.49497 13.1492 5.97381 13.1492 5.81346 13.3897C5.6531 13.5902 5.81346 13.9911 5.81346 13.9911C5.81346 13.9911 8.45934 20.1648 11.466 23.2917C14.1921 26.0579 17.319 25.8975 17.319 25.8975Z" fill="white"/>
</svg>
